<?xml version="1.0" encoding="utf-8"?>
<!-- Generator: Adobe Illustrator 16.0.0, SVG Export Plug-In . SVG Version: 6.00 Build 0)  -->
<!DOCTYPE svg PUBLIC "-//W3C//DTD SVG 1.1//EN" "http://www.w3.org/Graphics/SVG/1.1/DTD/svg11.dtd">
<svg version="1.1" id="Capa_1" xmlns="http://www.w3.org/2000/svg" xmlns:xlink="http://www.w3.org/1999/xlink" x="0px" y="0px"
	 width="540px" height="960px" viewBox="0 0 540 960" enable-background="new 0 0 540 960" xml:space="preserve">
	 <link rel="stylesheet" href="stylesheet.css" type="text/css" charset="utf-8" />
<style type="text/css">
<![CDATA[
@font-face {
    font-family: 'futura_bk_btbook';
    src: url('tt0140m_-webfont.eot');
    src: url('tt0140m_-webfont.eot?#iefix') format('embedded-opentype'),
         url('tt0140m_-webfont.woff2') format('woff2'),
         url('tt0140m_-webfont.woff') format('woff'),
         url('tt0140m_-webfont.ttf') format('truetype'),
         url('tt0140m_-webfont.svg#futura_bk_btbook') format('svg');
    font-weight: normal;
    font-style: normal;

}

]]>
</style>
<rect y="0" fill-rule="evenodd" clip-rule="evenodd" fill="#9FDAD4" width="540" height="960"/>
<g>
	<path fill-rule="evenodd" clip-rule="evenodd" fill="#F6E879" d="M62.639,278.427c0-133.498,108.22-241.719,241.717-241.719
		c114.909,0,211.085,80.183,235.644,187.647v108.144c-24.559,107.465-120.734,187.647-235.644,187.647
		C170.859,520.146,62.639,411.925,62.639,278.427z"/>
	<path fill-rule="evenodd" clip-rule="evenodd" fill="#FFFFFF" d="M540,367.292c-38.33,83.675-122.8,141.806-220.858,141.806
		c-134.101,0-242.809-108.709-242.809-242.81s108.708-242.81,242.809-242.81C417.2,23.478,501.67,81.608,540,165.283V367.292z"/>
	<path fill-rule="evenodd" clip-rule="evenodd" fill="#FFFFFF" d="M235.313,473.124c0,0,3.544,45.99-22.676,63.61
		c-3.08,2.069-4.597,3.626-4.872,4.696h13.677c20.669-5.542,58.755-23.979,71.798-53.195L235.313,473.124z"/>
</g>
<path fill-rule="evenodd" clip-rule="evenodd" d="M195.675,128.105v13.48c0,0.058-0.058,0.115-0.115,0.115l-1.664,0.058
	c0,0.803-0.028,1.692-0.028,2.495c1.319,0,2.925-0.029,4.245-0.029c1.434,0,3.126,0.029,4.302,0.029
	c0.028-0.832,0.028-1.692,0.028-2.466l-1.921-0.115l0.086-13.423c0-0.115,0-0.144,0.057-0.144l1.807-0.085
	c0-0.775,0.029-1.692,0.029-2.438c-1.205,0-2.839,0-4.245,0c-1.348,0-3.126,0-4.331,0c-0.028,0.774-0.028,1.635-0.028,2.438
	L195.675,128.105L195.675,128.105z M206.775,141.787c-0.029,0.803-0.029,1.664-0.029,2.466c0.803,0,1.778-0.029,2.724-0.029
	c1.348,0,2.897,0,4.102,0c0.029-0.774,0.029-1.663,0.029-2.466l-2.122-0.058c0.028-2.839,0.057-5.621,0.057-8.547l0.201-0.029
	c3.298,4.933,6.511,9.092,8.404,11.358c1.463,0,2.897-0.287,3.5-0.545l0.115-15.718c0-0.115,0.057-0.143,0.114-0.143l1.262-0.086
	c0.029-0.803,0.029-1.664,0.029-2.438c-0.861,0-2.037,0.029-3.041,0.029c-1.262,0-2.61,0-3.729,0
	c-0.029,0.746-0.058,1.664-0.058,2.438l2.094,0.057c0.029,3.327,0.029,6.683,0.086,9.953h-0.172
	c-2.438-3.815-6.023-9.322-8.203-12.448c-1.663,0-3.9,0-5.506,0c-0.029,0.774-0.029,1.635-0.029,2.438l1.664,0.057l0.028,13.509
	c0,0.086-0.028,0.115-0.086,0.115L206.775,141.787L206.775,141.787z M233.195,141.787c0,0.803-0.028,1.635-0.028,2.466
	c1.434,0,3.126-0.029,4.502-0.029c1.525,0,3.246,0.029,4.451,0.029c0.029-0.832,0.029-1.692,0.029-2.466l-2.065-0.115l0.086-13.48
	c1.262,0,1.606,0.057,1.979,0.143c0.373,0.086,0.488,0.229,0.545,0.545l0.459,2.753c1.032-0.086,2.123-0.172,3.069-0.287
	c-0.058-1.922-0.172-3.872-0.287-5.794c-0.574,0-1.578,0-2.725,0.029c-0.774,0-4.474,0-5.363,0c-1.066,0-4.881,0-5.626,0
	c-1.004,0-2.094-0.029-2.696-0.029c-0.144,1.922-0.258,3.872-0.373,5.823c0.918,0.115,2.036,0.201,3.04,0.258l0.516-2.753
	c0.058-0.287,0.144-0.488,0.545-0.574c0.401-0.058,0.889-0.144,1.979-0.144v13.423c0,0.058-0.029,0.115-0.086,0.115L233.195,141.787
	L233.195,141.787z M252.005,128.105l-0.029,13.557c0,0.029-0.029,0.086-0.086,0.086l-1.405,0.086c0,0.803,0,1.582-0.029,2.385
	c1.09,0,2.438,0,3.643,0c1.405,0,2.983,0,4.102,0c0-0.803,0-1.582,0.028-2.385l-1.548-0.086l0.028-4.608
	c0.086-0.028,0.315-0.057,0.66-0.057c0.659,0,1.176,0.344,1.548,1.229c0.574,1.348,1.95,4.67,2.696,5.966
	c0.545,0,2.982-0.029,3.614-0.029c0.545,0,1.578-0.029,2.094-0.029c0-0.803,0.029-1.611,0.029-2.385l-1.376-0.172
	c-0.345-0.029-0.545-0.315-0.861-1.033c-1.291-2.663-1.979-4.292-3.241-4.895v-0.172c2.007-0.832,3.556-2.553,3.556-4.991
	c0-1.835-1.606-4.073-4.101-4.618c-1.692-0.402-2.582-0.402-4.217-0.402c-2.237,0-4.675,0.029-6.625,0.058
	c-0.029,0.803-0.029,1.606-0.029,2.438L252.005,128.105L252.005,128.105z M256.767,127.962c0.172-0.057,0.43-0.086,0.917-0.086
	c1.521,0,2.811,1.549,2.811,3.643c0,1.893-1.176,3.241-3.098,3.241c-0.402,0-0.573,0-0.688-0.029L256.767,127.962L256.767,127.962z
	 M279.54,144.511c2.782,0,5.048-0.803,6.854-2.467c1.95-1.864,2.926-4.818,2.926-7.601c0-3.355-1.435-6.339-3.643-7.744
	c-1.492-0.946-3.155-1.405-4.962-1.405c-2.209,0-3.987,0.459-5.766,1.549c-2.352,1.434-4.244,4.446-4.244,8.231
	c0,3.041,0.831,5.306,2.581,7.056C274.692,143.564,276.987,144.511,279.54,144.511L279.54,144.511z M280.143,142.044
	c-0.89,0-1.808-0.315-2.61-1.291c-1.004-1.233-1.405-3.098-1.405-5.995c0-2.725,0.631-4.761,1.462-5.793
	c0.66-0.803,1.463-1.233,2.639-1.233c1.062,0,1.979,0.545,2.553,1.664c0.688,1.319,1.177,3.384,1.177,5.708
	c0,2.38-0.373,4.503-1.377,5.793C281.834,141.901,281.06,142.044,280.143,142.044L280.143,142.044z M293.942,144.224
	c1.177,0,2.639,0,3.93,0c0.98,0,2.414,0.029,3.332,0.029c2.06,0,4.612-0.401,6.3-1.549c2.323-1.549,4.188-4.503,4.188-8.576
	c0-3.098-1.836-5.966-4.274-7.314c-1.429-0.774-3.466-1.262-6.472-1.262c-2.353,0-4.881,0.029-7.004,0.086
	c-0.028,0.803-0.028,1.606-0.028,2.438l1.663,0.057l-0.028,13.48c0,0.057-0.028,0.115-0.115,0.115l-1.463,0.115
	C293.942,142.589,293.942,143.45,293.942,144.224L293.942,144.224z M300.516,127.991c0.2-0.086,0.459-0.115,0.86-0.115
	c0.774,0,1.945,0.258,2.921,1.205c1.52,1.463,2.146,3.184,2.146,6.195c0,1.864-0.541,4.188-1.859,5.421
	c-1.119,1.004-2.348,1.262-3.466,1.262c-0.402,0-0.718-0.229-0.688-0.603L300.516,127.991L300.516,127.991z M322.447,128.077
	l1.95-0.057c0.029-0.803,0.029-1.692,0.029-2.438c-1.291,0-2.926,0-4.446,0c-1.233,0-2.839,0-3.958,0
	c-0.028,0.774-0.028,1.606-0.028,2.41l1.262,0.057c0.115,0,0.144,0.086,0.144,0.172v8.604c0,2.123,0.401,4.417,2.036,5.909
	c1.435,1.291,3.213,1.778,5.736,1.778c2.668,0,4.102-0.832,5.163-1.95c1.09-1.062,2.122-3.212,2.122-6.655l0.086-7.83l1.349-0.086
	c0.028-0.803,0.028-1.635,0.028-2.41c-1.032,0-2.208,0-3.413,0c-1.262,0-2.754,0-3.814,0c0,0.774-0.029,1.635-0.029,2.41
	l2.009,0.086c0.057,0,0.114,0.028,0.114,0.086c0.058,2.352,0.058,5.851,0.058,8.174c0,1.893-0.315,3.5-0.976,4.245
	c-0.487,0.574-1.118,1.004-2.18,1.004c-0.976,0-1.721-0.287-2.295-0.917c-0.659-0.775-1.032-1.75-1.032-3.93L322.447,128.077
	L322.447,128.077z M338.107,136.021c0,3.011,1.435,5.478,3.241,6.798c1.664,1.204,3.9,1.692,6.109,1.692
	c1.463,0,4.13-0.574,5.966-1.291c-0.115-0.775-0.287-1.836-0.517-2.667c-0.946,0.373-3.154,0.803-4.445,0.803
	c-1.147,0-2.496-0.373-3.355-1.176c-1.147-1.033-1.664-2.639-1.664-5.105c0-2.409,0.688-4.302,1.95-5.621
	c0.804-0.832,1.808-1.205,2.725-1.205c0.603,0,1.033,0.172,1.349,0.373c0.114,0.057,0.144,0.229,0.172,0.344l0.688,3.012
	c1.032-0.115,2.065-0.259,3.012-0.402c-0.115-1.979-0.259-3.929-0.431-5.851c-0.717-0.258-2.008-0.43-3.786-0.43
	c-2.553,0-5.105,0.746-7.056,2.266C339.943,129.224,338.107,131.949,338.107,136.021L338.107,136.021z M357.382,136.021
	c0,3.011,1.434,5.478,3.24,6.798c1.664,1.204,3.901,1.692,6.109,1.692c1.463,0,4.13-0.574,5.966-1.291
	c-0.114-0.775-0.286-1.836-0.516-2.667c-0.946,0.373-3.155,0.803-4.446,0.803c-1.146,0-2.495-0.373-3.355-1.176
	c-1.147-1.033-1.663-2.639-1.663-5.105c0-2.409,0.688-4.302,1.95-5.621c0.803-0.832,1.807-1.205,2.725-1.205
	c0.603,0,1.032,0.172,1.348,0.373c0.115,0.057,0.144,0.229,0.172,0.344l0.688,3.012c1.033-0.115,2.065-0.259,3.012-0.402
	c-0.114-1.979-0.258-3.929-0.43-5.851c-0.718-0.258-2.008-0.43-3.786-0.43c-2.553,0-5.105,0.746-7.056,2.266
	C359.218,129.224,357.382,131.949,357.382,136.021L357.382,136.021z M378.95,128.105v13.48c0,0.058-0.058,0.115-0.115,0.115
	l-1.663,0.058c0,0.803-0.028,1.692-0.028,2.495c1.319,0,2.925-0.029,4.244-0.029c1.435,0,3.127,0.029,4.303,0.029
	c0.028-0.832,0.028-1.692,0.028-2.466l-1.921-0.115l0.085-13.423c0-0.115,0-0.144,0.058-0.144l1.808-0.085
	c0-0.775,0.028-1.692,0.028-2.438c-1.205,0-2.84,0-4.245,0c-1.348,0-3.126,0-4.331,0c-0.028,0.774-0.028,1.635-0.028,2.438
	L378.95,128.105L378.95,128.105z M402.813,118.841c-1.606,1.118-3.614,2.553-5.135,3.671c0.316,0.516,0.688,1.119,1.062,1.635
	c1.836-0.89,3.958-1.979,5.65-2.84C403.932,120.476,403.357,119.558,402.813,118.841L402.813,118.841z M399.113,144.511
	c2.782,0,5.048-0.803,6.854-2.467c1.95-1.864,2.926-4.818,2.926-7.601c0-3.355-1.435-6.339-3.643-7.744
	c-1.491-0.946-3.155-1.405-4.962-1.405c-2.208,0-3.986,0.459-5.765,1.549c-2.353,1.434-4.245,4.446-4.245,8.231
	c0,3.041,0.832,5.306,2.581,7.056C394.266,143.564,396.561,144.511,399.113,144.511L399.113,144.511z M399.716,142.044
	c-0.89,0-1.808-0.315-2.61-1.291c-1.004-1.233-1.405-3.098-1.405-5.995c0-2.725,0.631-4.761,1.463-5.793
	c0.659-0.803,1.462-1.233,2.639-1.233c1.062,0,1.979,0.545,2.553,1.664c0.688,1.319,1.176,3.384,1.176,5.708
	c0,2.38-0.373,4.503-1.377,5.793C401.407,141.901,400.633,142.044,399.716,142.044L399.716,142.044z M413.253,141.787
	c-0.028,0.803-0.028,1.664-0.028,2.466c0.803,0,1.778-0.029,2.725-0.029c1.348,0,2.896,0,4.102,0
	c0.028-0.774,0.028-1.663,0.028-2.466l-2.122-0.058c0.028-2.839,0.058-5.621,0.058-8.547l0.2-0.029
	c3.299,4.933,6.511,9.092,8.404,11.358c1.463,0,2.896-0.287,3.499-0.545l0.114-15.718c0-0.115,0.058-0.143,0.115-0.143l1.262-0.086
	c0.028-0.803,0.028-1.664,0.028-2.438c-0.86,0-2.036,0.029-3.04,0.029c-1.262,0-2.61,0-3.729,0
	c-0.028,0.746-0.058,1.664-0.058,2.438l2.094,0.057c0.029,3.327,0.029,6.683,0.087,9.953h-0.173
	c-2.438-3.815-6.022-9.322-8.203-12.448c-1.663,0-3.9,0-5.507,0c-0.028,0.774-0.028,1.635-0.028,2.438l1.664,0.057l0.028,13.509
	c0,0.086-0.028,0.115-0.086,0.115L413.253,141.787z"/>
<text transform="matrix(1 0 0 1 157.7495 192.8354)"><tspan x="0" y="0" font-family="'futura_bk_btbook'" font-size="24.0001">L</tspan><tspan x="10.945" y="0" font-family="'futura_bk_btbook'" font-size="24.0001">os acuerdos construidos en </tspan><tspan x="-26.766" y="24" font-family="'futura_bk_btbook'" font-size="24.0001">e</tspan><tspan x="-14.426" y="24" font-family="'futura_bk_btbook'" font-size="24.0001">l punto de Política de Desarrollo </tspan><tspan x="-31.482" y="48" font-family="'futura_bk_btbook'" font-size="24.0001">R</tspan><tspan x="-18.639" y="48" font-family="'futura_bk_btbook'" font-size="24.0001">ural Integral se han denominado </tspan><tspan x="-47.42" y="72" font-family="'futura_bk_btbook'" font-size="24.0001">&quot;</tspan><tspan x="-40.506" y="72" font-family="'futura_bk_btbook'" font-size="24.0001">Hacia un nuevo campo colombiano, </tspan><tspan x="-31.658" y="96" font-family="'futura_bk_btbook'" font-size="24.0001">R</tspan><tspan x="-18.814" y="96" font-family="'futura_bk_btbook'" font-size="24.0001">eforma Rural Integral -RRI-&quot;. Estos</tspan><tspan x="-37.483" y="120" font-family="'futura_bk_btbook'" font-size="24.0001">s</tspan><tspan x="-27.709" y="120" font-family="'futura_bk_btbook'" font-size="24.0001">e acordaron en aproximadamente </tspan><tspan x="-11.121" y="144" font-family="'futura_bk_btbook'" font-size="24.0001">7</tspan><tspan x="3.035" y="144" font-family="'futura_bk_btbook'" font-size="24.0001"> meses de conversaciones en </tspan><tspan x="-12.334" y="168" font-family="'futura_bk_btbook'" font-size="24.0001">L</tspan><tspan x="-1.389" y="168" font-family="'futura_bk_btbook'" font-size="24.0001">a Habana, Cuba. Veamos en </tspan><tspan x="76.869" y="192.001" font-family="'futura_bk_btbook'" font-size="24.0001">q</tspan><tspan x="90.592" y="192.001" font-family="'futura_bk_btbook'" font-size="24.0001">ue consisten.</tspan></text>
<g>
	<circle fill-rule="evenodd" clip-rule="evenodd" fill="#E2F3AC" cx="119.883" cy="557.981" r="7.657"/>
	<path fill-rule="evenodd" clip-rule="evenodd" fill="#3D001E" d="M119.882,567.685c-5.349,0-9.703-4.352-9.703-9.703
		s4.354-9.706,9.703-9.706c5.349,0,9.702,4.354,9.702,9.706S125.23,567.685,119.882,567.685L119.882,567.685z M119.882,552.369
		c-3.097,0-5.609,2.519-5.609,5.612s2.513,5.611,5.609,5.611c3.093,0,5.608-2.518,5.608-5.611S122.975,552.369,119.882,552.369z"/>
	<circle fill-rule="evenodd" clip-rule="evenodd" fill="#E2F3AC" cx="95.74" cy="599.429" r="7.656"/>
	<path fill-rule="evenodd" clip-rule="evenodd" fill="#3D001E" d="M95.74,609.131c-5.352,0-9.704-4.351-9.704-9.7
		c0-5.354,4.352-9.706,9.704-9.706c5.349,0,9.703,4.353,9.703,9.706C105.442,604.78,101.089,609.131,95.74,609.131L95.74,609.131z
		 M95.74,593.816c-3.093,0-5.612,2.519-5.612,5.614c0,3.092,2.519,5.609,5.612,5.609c3.09,0,5.612-2.518,5.612-5.609
		C101.352,596.335,98.83,593.816,95.74,593.816z"/>
	<rect x="97.068" y="611.311" fill-rule="evenodd" clip-rule="evenodd" fill="#3D001E" width="16.277" height="90.473"/>
	<path fill-rule="evenodd" clip-rule="evenodd" fill="#3D001E" d="M113.345,703.829H97.068c-1.133,0-2.047-0.916-2.047-2.046
		v-90.472c0-1.131,0.914-2.044,2.047-2.044h16.277c1.13,0,2.047,0.913,2.047,2.044v90.472
		C115.392,702.913,114.476,703.829,113.345,703.829L113.345,703.829z M99.112,699.738h12.183v-86.381H99.112V699.738z"/>
	<rect x="154.963" y="611.311" fill-rule="evenodd" clip-rule="evenodd" fill="#3D001E" width="16.277" height="90.473"/>
	<path fill-rule="evenodd" clip-rule="evenodd" fill="#3D001E" d="M171.24,703.829h-16.274c-1.133,0-2.05-0.916-2.05-2.046v-90.472
		c0-1.131,0.917-2.044,2.05-2.044h16.274c1.131,0,2.047,0.913,2.047,2.044v90.472C173.287,702.913,172.371,703.829,171.24,703.829
		L171.24,703.829z M157.011,699.738h12.185v-86.381h-12.185V699.738z"/>
	<rect x="32.061" y="699.747" fill-rule="evenodd" clip-rule="evenodd" fill="#3C312C" width="188.088" height="115.15"/>
	<path fill-rule="evenodd" clip-rule="evenodd" fill="#3D001E" d="M30.814,816.523c-0.488-0.375-0.803-0.963-0.803-1.626v-115.15
		c0-1.128,0.917-2.044,2.047-2.044h188.087c1.131,0,2.047,0.916,2.047,2.044v115.15c0,0.663-0.314,1.251-0.803,1.626H30.814
		L30.814,816.523z M34.108,812.851h183.99V701.797H34.108V812.851z"/>
	<path fill-rule="evenodd" clip-rule="evenodd" fill="#FFFADC" d="M162.066,672.446c0-9.969,8.085-18.053,18.064-18.053
		c9.968,0,18.056,8.084,18.056,18.053c0,14.751,11.954,26.709,26.695,26.709c14.749,0,26.702-11.958,26.702-26.709H287.7
		c0,34.694-28.125,62.821-62.819,62.821C190.19,735.268,162.066,707.141,162.066,672.446z"/>
	<path fill-rule="evenodd" clip-rule="evenodd" fill="#3D001E" d="M224.885,737.314c-35.765,0-64.863-29.101-64.863-64.868
		c0-11.083,9.02-20.101,20.106-20.101s20.105,9.018,20.105,20.101c0,13.599,11.057,24.663,24.652,24.663
		c13.593,0,24.654-11.064,24.654-24.663c0-1.131,0.914-2.047,2.047-2.047H287.7c1.131,0,2.047,0.916,2.047,2.047
		C289.747,708.214,260.65,737.314,224.885,737.314L224.885,737.314z M180.127,656.438c-8.827,0-16.014,7.185-16.014,16.009
		c0,33.512,27.261,60.774,60.771,60.774c32.823,0,59.653-26.161,60.736-58.728H253.56c-1.055,14.903-13.512,26.707-28.675,26.707
		c-15.849,0-28.748-12.896-28.748-28.754C196.137,663.622,188.955,656.438,180.127,656.438z"/>
	<path fill-rule="evenodd" clip-rule="evenodd" fill="#FFFADC" d="M269.821,672.446c11.201,0,20.278-9.074,20.278-20.278
		c0-11.203-9.077-20.282-20.278-20.282c-11.203,0-20.279,9.079-20.279,20.282C249.542,663.372,258.619,672.446,269.821,672.446z"/>
	<path fill-rule="evenodd" clip-rule="evenodd" fill="#3D001E" d="M269.821,674.493c-12.311,0-22.323-10.018-22.323-22.325
		c0-12.313,10.012-22.326,22.323-22.326c12.308,0,22.323,10.013,22.323,22.326C292.145,664.476,282.129,674.493,269.821,674.493
		L269.821,674.493z M269.821,633.933c-10.053,0-18.23,8.18-18.23,18.235s8.177,18.231,18.23,18.231
		c10.052,0,18.231-8.176,18.231-18.231S279.873,633.933,269.821,633.933z"/>
	<rect x="74.224" y="790.84" fill-rule="evenodd" clip-rule="evenodd" fill="#3A6C61" width="35.352" height="25.684"/>
	<path fill-rule="evenodd" clip-rule="evenodd" fill="#3D001E" d="M72.181,816.523V790.84c0-1.131,0.917-2.048,2.044-2.048h35.352
		c1.128,0,2.045,0.917,2.045,2.048v25.684h-4.092v-23.638H76.271v23.638H72.181z"/>
	<rect x="148.779" y="790.84" fill-rule="evenodd" clip-rule="evenodd" fill="#3A6C61" width="35.347" height="25.684"/>
	<path fill-rule="evenodd" clip-rule="evenodd" fill="#3D001E" d="M146.732,816.523V790.84c0-1.131,0.917-2.048,2.047-2.048h35.347
		c1.131,0,2.047,0.917,2.047,2.048v25.684h-4.091v-23.638h-31.26v23.638H146.732z"/>
	<path fill-rule="evenodd" clip-rule="evenodd" fill="#EAEFCC" d="M126.7,623.107c-39.973,0-72.375,16.198-72.375,36.188v155.603
		h144.747V659.295C199.072,639.306,166.669,623.107,126.7,623.107z"/>
	<path fill-rule="evenodd" clip-rule="evenodd" fill="#3D001E" d="M53.079,816.523c-0.488-0.375-0.803-0.963-0.803-1.626V659.294
		c0-21.44,32.689-38.233,74.421-38.233s74.419,16.793,74.419,38.233v155.604c0,0.663-0.314,1.251-0.803,1.626H53.079L53.079,816.523
		z M56.369,812.851h140.656V659.294c0-18.825-31.548-34.143-70.328-34.143c-38.776,0-70.328,15.317-70.328,34.143V812.851z"/>
	<path fill-rule="evenodd" clip-rule="evenodd" fill="#3C312C" d="M220.146,699.75H32.059c0-45.462,42.105-82.317,94.042-82.317
		C178.043,617.433,220.146,654.288,220.146,699.75z"/>
	<path fill-rule="evenodd" clip-rule="evenodd" fill="#3D001E" d="M220.173,701.794h-0.027H32.062c-1.133,0-2.05-0.914-2.05-2.044
		c0-46.518,43.106-84.364,96.092-84.364c52.855,0,95.877,37.663,96.088,84.025c0.019,0.108,0.027,0.222,0.027,0.339
		C222.22,700.88,221.303,701.794,220.173,701.794L220.173,701.794z M34.135,697.703h183.933
		c-1.247-43.318-42.021-78.223-91.964-78.223C76.156,619.48,35.385,654.385,34.135,697.703z"/>
	<circle fill-rule="evenodd" clip-rule="evenodd" fill="#BEC1AE" cx="126.698" cy="630.468" r="35.511"/>
	<path fill-rule="evenodd" clip-rule="evenodd" fill="#3D001E" d="M126.7,668.024c-20.71,0-37.561-16.847-37.561-37.554
		c0-20.71,16.85-37.559,37.561-37.559c20.71,0,37.557,16.849,37.557,37.559C164.257,651.178,147.41,668.024,126.7,668.024
		L126.7,668.024z M126.7,597.002c-18.452,0-33.466,15.015-33.466,33.469c0,18.451,15.014,33.463,33.466,33.463
		c18.454,0,33.462-15.012,33.462-33.463C160.163,612.017,145.154,597.002,126.7,597.002z"/>
	<polygon fill-rule="evenodd" clip-rule="evenodd" fill="#3A6C61" points="91.188,620.922 121.12,685.178 54.325,642.294 	"/>
	<path fill-rule="evenodd" clip-rule="evenodd" fill="#3D001E" d="M121.119,687.225c-0.384,0-0.769-0.108-1.105-0.326
		l-66.795-42.883c-0.602-0.383-0.957-1.055-0.941-1.768c0.02-0.713,0.404-1.366,1.019-1.726l36.864-21.373
		c0.498-0.286,1.093-0.354,1.642-0.18c0.547,0.171,0.998,0.566,1.242,1.088l29.801,63.976c0.219,0.328,0.346,0.719,0.346,1.145
		c0,1.13-0.917,2.047-2.044,2.047H121.119L121.119,687.225z M58.25,642.383l58.034,37.256l-26.005-55.823L58.25,642.383z"/>
	<polygon fill-rule="evenodd" clip-rule="evenodd" fill="#3A6C61" points="158.601,620.922 128.667,685.178 195.466,642.294 	"/>
	<path fill-rule="evenodd" clip-rule="evenodd" fill="#3D001E" d="M128.671,687.225c-0.483,0-0.963-0.172-1.348-0.508
		c-0.683-0.599-0.894-1.577-0.506-2.401l29.93-64.258c0.241-0.521,0.694-0.917,1.238-1.088c0.551-0.174,1.145-0.106,1.643,0.18
		l36.863,21.373c0.618,0.359,1.001,1.013,1.02,1.726c0.016,0.713-0.339,1.385-0.938,1.768l-66.798,42.883
		C129.438,687.116,129.053,687.225,128.671,687.225L128.671,687.225z M159.513,623.815l-26.006,55.823l58.031-37.256
		L159.513,623.815z"/>
	<path fill-rule="evenodd" clip-rule="evenodd" fill="#FFFADC" d="M174.564,597.281c0,26.436-21.431,47.867-47.864,47.867
		c-26.439,0-47.864-21.432-47.864-47.867c0-26.433,21.425-47.864,47.864-47.864C153.133,549.417,174.564,570.849,174.564,597.281z"
		/>
	<path fill-rule="evenodd" clip-rule="evenodd" fill="#3D001E" d="M126.7,647.195c-27.523,0-49.911-22.392-49.911-49.914
		c0-27.521,22.388-49.908,49.911-49.908c27.517,0,49.908,22.388,49.908,49.908C176.608,624.804,154.217,647.195,126.7,647.195
		L126.7,647.195z M126.7,551.465c-25.265,0-45.818,20.552-45.818,45.816s20.553,45.82,45.818,45.82
		c25.264,0,45.817-20.556,45.817-45.82S151.964,551.465,126.7,551.465z"/>
	<path fill-rule="evenodd" clip-rule="evenodd" fill="#BEC1AE" d="M126.7,593.117c-3.74,0-6.762,3.034-6.762,6.77v5.896
		c0,3.73,3.021,6.762,6.762,6.762c3.736,0,6.764-3.031,6.764-6.762v-5.896C133.464,596.151,130.437,593.117,126.7,593.117z"/>
	<path fill-rule="evenodd" clip-rule="evenodd" fill="#3D001E" d="M126.7,614.592c-4.858,0-8.806-3.951-8.806-8.809v-5.896
		c0-4.861,3.948-8.816,8.806-8.816c1.127,0,2.044,0.916,2.044,2.047s-0.917,2.047-2.044,2.047c-2.601,0-4.717,2.117-4.717,4.723
		v5.896c0,2.6,2.117,4.715,4.717,4.715c2.6,0,4.717-2.115,4.717-4.715c0-1.13,0.917-2.047,2.047-2.047
		c1.13,0,2.046,0.917,2.046,2.047C135.511,610.641,131.559,614.592,126.7,614.592z"/>
	<path fill-rule="evenodd" clip-rule="evenodd" fill="#3D001E" d="M105.803,590.777c0,2.061-1.665,3.73-3.73,3.73
		c-2.057,0-3.725-1.67-3.725-3.73c0-2.058,1.668-3.728,3.725-3.728C104.138,587.05,105.803,588.72,105.803,590.777z"/>
	<path fill-rule="evenodd" clip-rule="evenodd" fill="#3D001E" d="M152.192,590.777c0,2.061-1.668,3.73-3.725,3.73
		c-2.063,0-3.73-1.67-3.73-3.73c0-2.058,1.667-3.728,3.73-3.728C150.524,587.05,152.192,588.72,152.192,590.777z"/>
	<path fill-rule="evenodd" clip-rule="evenodd" fill="#3D001E" d="M126.7,633.263c-7.526,0-13.653-6.121-13.653-13.65
		c0-1.128,0.916-2.044,2.047-2.044c1.133,0,2.049,0.916,2.049,2.044c0,5.271,4.286,9.56,9.557,9.56c5.27,0,9.557-4.289,9.557-9.56
		c0-1.128,0.916-2.044,2.049-2.044c1.131,0,2.047,0.916,2.047,2.044C140.353,627.142,134.229,633.263,126.7,633.263z"/>
	<path fill-rule="evenodd" clip-rule="evenodd" fill="#3A6C61" d="M134.009,685.782c0,4.367-3.54,7.902-7.905,7.902
		c-4.366,0-7.906-3.535-7.906-7.902s3.54-7.902,7.906-7.902C130.469,677.88,134.009,681.415,134.009,685.782z"/>
	<path fill-rule="evenodd" clip-rule="evenodd" fill="#3D001E" d="M126.104,695.731c-5.485,0-9.953-4.463-9.953-9.949
		c0-5.487,4.468-9.952,9.953-9.952c5.486,0,9.949,4.465,9.949,9.952C136.053,691.269,131.59,695.731,126.104,695.731
		L126.104,695.731z M126.104,679.924c-3.232,0-5.856,2.627-5.856,5.858c0,3.229,2.624,5.858,5.856,5.858
		c3.231,0,5.857-2.63,5.857-5.858C131.961,682.551,129.335,679.924,126.104,679.924z"/>
	<rect x="54.322" y="729.715" fill-rule="evenodd" clip-rule="evenodd" fill="#BB6125" width="144.747" height="85.183"/>
	<path fill-rule="evenodd" clip-rule="evenodd" fill="#3D001E" d="M53.079,816.523c-0.488-0.375-0.803-0.963-0.803-1.626v-85.185
		c0-1.128,0.916-2.044,2.049-2.044h144.748c1.128,0,2.044,0.916,2.044,2.044v85.185c0,0.663-0.314,1.251-0.803,1.626H53.079
		L53.079,816.523z M56.369,812.851h140.654v-81.088H56.369V812.851z"/>
	<rect x="135.948" y="699.809" fill-rule="evenodd" clip-rule="evenodd" fill="#FFFADC" width="46.782" height="19.51"/>
	<path fill-rule="evenodd" clip-rule="evenodd" fill="#3D001E" d="M182.729,721.365h-46.781c-1.131,0-2.047-0.917-2.047-2.047
		V699.81c0-1.131,0.917-2.047,2.047-2.047h46.781c1.131,0,2.048,0.916,2.048,2.047v19.509
		C184.777,720.448,183.86,721.365,182.729,721.365L182.729,721.365z M137.994,717.273h42.692v-15.42h-42.692V717.273z"/>
	<path fill-rule="evenodd" clip-rule="evenodd" fill="#3D001E" d="M140.602,623.334c0-4.924-6.224-8.915-13.898-8.915
		c-7.676,0-13.901,3.991-13.901,8.915H140.602z"/>
	<path fill-rule="evenodd" clip-rule="evenodd" fill="#3D001E" d="M140.602,625.047h-27.799c-0.946,0-1.714-0.767-1.714-1.714
		c0-5.958,6.86-10.629,15.615-10.629c8.752,0,15.612,4.671,15.612,10.629C142.316,624.28,141.548,625.047,140.602,625.047
		L140.602,625.047z M114.886,621.62h23.64c-1.342-3.11-6.214-5.487-11.822-5.487C121.093,616.133,116.221,618.51,114.886,621.62z"/>
	<path fill-rule="evenodd" clip-rule="evenodd" fill="#3D001E" d="M154.138,554.401c0,0-32.166,14.513-70.343,19.498
		c0,0,18.997-44.623,69.203-20.316L154.138,554.401z"/>
	<path fill-rule="evenodd" clip-rule="evenodd" fill="#3D001E" d="M83.794,576.047c-0.632,0-1.318-0.328-1.694-0.871
		c-0.48-0.593-0.556-1.408-0.263-2.105c0.314-0.781,8.215-18.921,27.327-26.079c13.11-4.907,28.204-3.363,44.745,4.676
		c0.325,0.155,0.59,0.372,0.81,0.683c0.569,0.158,1.09,0.574,1.36,1.15c0.497,1.08,0.007,2.367-1.078,2.835
		c-0.313,0.142-32.851,14.727-70.934,19.698L83.794,576.047L83.794,576.047z M124.927,548.47c-5.043,0-9.779,0.84-14.288,2.537
		c-12.489,4.671-19.839,14.799-23.033,20.192c27.932-4.182,52.215-13.246,61.523-17.03
		C140.581,550.372,132.477,548.47,124.927,548.47z"/>
	<rect x="78.887" y="552.406" fill-rule="evenodd" clip-rule="evenodd" fill="#CEA224" width="95.834" height="12.586"/>
	<path fill-rule="evenodd" clip-rule="evenodd" fill="#3D001E" d="M174.721,567.133H78.89c-1.152,0-2.147-0.957-2.147-2.141v-12.586
		c0-1.193,0.996-2.141,2.147-2.141h95.831c1.169,0,2.147,0.947,2.147,2.141v12.586C176.869,566.176,175.89,567.133,174.721,567.133
		L174.721,567.133z M81.04,562.844h91.548v-8.289H81.04V562.844z"/>
	<rect x="92.101" y="522.628" fill-rule="evenodd" clip-rule="evenodd" fill="#CEA224" width="68.802" height="29.778"/>
	<path fill-rule="evenodd" clip-rule="evenodd" fill="#3D001E" d="M160.902,554.555H92.101c-1.214,0-2.146-0.958-2.146-2.148
		v-29.778c0-1.191,0.932-2.141,2.146-2.141h68.802c1.166,0,2.151,0.949,2.151,2.141v29.778
		C163.053,553.597,162.068,554.555,160.902,554.555L160.902,554.555z M94.251,550.266h64.518v-25.489H94.251V550.266z"/>
	<rect x="92.101" y="541.348" fill-rule="evenodd" clip-rule="evenodd" fill="#3D001E" width="68.802" height="11.493"/>
	<path fill-rule="evenodd" clip-rule="evenodd" fill="#3D001E" d="M160.902,554.981H92.101c-1.214,0-2.146-0.95-2.146-2.142v-11.492
		c0-1.162,0.932-2.112,2.146-2.112h68.802c1.166,0,2.151,0.95,2.151,2.112v11.492C163.053,554.031,162.068,554.981,160.902,554.981
		L160.902,554.981z M94.251,550.723h64.518v-7.226H94.251V550.723z"/>
</g>
</svg>
