<?xml version="1.0" encoding="UTF-8"?>
<!DOCTYPE svg PUBLIC "-//W3C//DTD SVG 1.1//EN" "http://www.w3.org/Graphics/SVG/1.1/DTD/svg11.dtd">
<!-- Creator: CorelDRAW X7 -->
<svg xmlns="http://www.w3.org/2000/svg" xml:space="preserve" width="190.5mm" height="338.667mm" version="1.1" style="shape-rendering:geometricPrecision; text-rendering:geometricPrecision; image-rendering:optimizeQuality; fill-rule:evenodd; clip-rule:evenodd"
viewBox="0 0 19050 33867"
 xmlns:xlink="http://www.w3.org/1999/xlink">
 <defs>
  <style type="text/css">
   <![CDATA[
    .fil0 {fill:#FFF7E1}
    .fil2 {fill:#FEFEFE;fill-rule:nonzero}
    .fil1 {fill:#5B5B5B;fill-rule:nonzero}
   ]]>
  </style>
 </defs>
 <g id="Capa_x0020_1">
  <metadata id="CorelCorpID_0Corel-Layer"/>
  <rect class="fil0" width="19050" height="33867"/>
  <g id="_57877601120">
   <g>
    <g>
     <path class="fil1" d="M8160 15293c-7,-48 26,-92 73,-99 48,-7 92,26 99,74l-172 25zm100 677l-100 -677 172 -25 100 677 -172 25zm172 -25c7,47 -26,91 -74,98 -47,7 -91,-26 -98,-73l172 -25z"/>
    </g>
    <g>
     <path class="fil1" d="M9100 13692c-47,8 -92,-23 -101,-70 -8,-47 23,-93 71,-101l30 171zm852 265l-172 26 0 0 -7 -37 -10 -32 -12 -29 -14 -27 -16 -23 -18 -22 -20 -19 -22 -18 -23 -16 -26 -15 -27 -13 -28 -11 -30 -10 -30 -8 -31 -7 -31 -6 -32 -4 -31 -4 -31 -2 -31 -1 -29 0 -28 0 -26 1 -25 1 -23 2 -20 1 -18 2 -15 2 -11 2 -9 1 -5 1 -1 0 -30 -171 3 -1 7 -1 10 -1 14 -2 18 -2 20 -2 24 -2 25 -2 28 -2 31 -1 32 0 33 0 35 2 37 3 37 3 38 6 38 7 39 8 39 11 39 13 38 15 38 19 37 21 35 24 34 27 32 32 29 34 26 39 22 42 19 45 14 49 11 52 0 0zm158 1074l-172 25 0 -1 -1 -5 -1 -8 -2 -12 -2 -14 -2 -17 -3 -19 -4 -22 -3 -25 -4 -27 -4 -29 -5 -31 -5 -33 -5 -35 -5 -37 -6 -38 -6 -39 -6 -41 -6 -42 -6 -43 -7 -44 -6 -45 -7 -46 -7 -46 -7 -46 -7 -47 -7 -47 -7 -48 -7 -47 -6 -47 -7 -46 -7 -46 172 -26 6 47 7 46 7 47 7 47 7 47 7 47 7 47 7 47 7 46 6 46 7 44 6 44 7 44 6 42 6 41 6 39 5 38 6 37 5 35 5 33 4 31 5 29 4 27 3 24 3 22 3 20 3 17 2 14 2 11 1 8 0 5 1 2zm0 0c7,48 -26,92 -73,99 -48,7 -92,-26 -99,-74l172 -25z"/>
    </g>
    <g>
     <path class="fil1" d="M9861 13916c-44,20 -95,1 -115,-42 -20,-44 -1,-95 42,-115l73 157zm793 115l-172 26 0 0 -7 -39 -10 -33 -11 -28 -13 -23 -14 -21 -16 -17 -17 -14 -18 -12 -20 -11 -22 -8 -23 -7 -26 -5 -26 -4 -28 -2 -28 0 -29 2 -29 2 -29 4 -29 5 -28 6 -28 7 -26 7 -25 7 -23 7 -21 7 -20 7 -16 6 -14 6 -12 5 -8 3 -5 2 0 0 -73 -157 3 -2 7 -3 10 -4 13 -5 17 -7 19 -7 22 -8 24 -8 27 -8 29 -9 30 -8 32 -7 34 -7 34 -6 36 -5 37 -3 37 -2 38 0 39 2 38 5 38 8 39 11 37 15 37 19 34 24 33 28 30 33 26 37 23 41 18 45 15 50 10 53 0 0zm129 876l-172 25 0 -1 0 -3 -1 -5 -1 -8 -1 -9 -2 -11 -2 -13 -2 -15 -3 -16 -2 -19 -3 -20 -4 -22 -3 -23 -4 -25 -4 -27 -4 -28 -4 -30 -5 -31 -5 -33 -5 -34 -5 -35 -5 -37 -6 -38 -6 -39 -5 -40 -7 -42 -6 -43 -6 -43 -7 -45 -7 -46 -7 -47 -7 -47 172 -26 7 48 7 47 7 46 6 44 7 44 6 43 6 41 6 41 6 39 6 38 5 37 5 35 5 34 5 33 5 31 4 30 4 28 4 26 4 26 3 23 3 22 3 20 3 18 3 17 2 15 2 13 1 11 2 9 1 7 0 5 1 4 0 1zm0 0c7,47 -26,91 -73,98 -48,7 -92,-26 -99,-73l172 -25z"/>
    </g>
    <g>
     <path class="fil1" d="M10608 14253c-46,11 -94,-17 -106,-63 -11,-47 17,-94 63,-106l43 169zm882 228l-172 25 0 0 -7 -38 -10 -34 -13 -30 -14 -26 -17 -24 -18 -21 -21 -19 -22 -17 -25 -15 -26 -13 -28 -11 -30 -10 -30 -8 -32 -7 -33 -5 -33 -3 -33 -3 -33 -1 -32 0 -32 1 -30 2 -30 3 -28 3 -26 3 -23 3 -22 4 -18 3 -16 3 -13 3 -9 2 -5 1 -1 1 -43 -169 4 0 7 -2 11 -3 14 -3 19 -3 21 -4 24 -4 27 -4 29 -4 32 -3 33 -3 35 -2 37 -1 38 0 39 1 40 3 40 4 41 6 40 9 41 11 40 13 40 16 39 20 37 23 36 27 34 31 30 35 28 39 24 43 19 47 15 50 11 55 0 0zm108 733l-171 29 0 -2 0 0 -1 -3 0 -3 -1 -4 -1 -6 -1 -8 -1 -8 -2 -11 -1 -11 -2 -13 -2 -14 -3 -16 -2 -17 -3 -19 -3 -20 -3 -22 -4 -23 -3 -25 -4 -26 -4 -28 -4 -29 -5 -31 -5 -33 -5 -34 -5 -35 -6 -38 -5 -39 -6 -40 -7 -42 -6 -44 -7 -46 -7 -47 172 -25 7 47 7 45 6 44 6 43 6 40 6 39 6 37 5 36 5 34 5 33 4 31 5 29 4 28 4 26 3 25 4 23 3 21 3 21 2 18 3 18 2 15 2 15 2 13 2 11 2 10 1 9 1 7 1 6 0 5 1 3 0 2 0 1 0 -2zm-171 29l0 -1 0 -1 0 2zm-64 2489l-156 -75 40 -90 37 -93 34 -95 29 -98 27 -99 23 -100 20 -101 18 -102 14 -102 13 -101 9 -101 8 -100 5 -99 4 -97 2 -95 0 -93 -1 -89 -3 -87 -3 -83 -4 -79 -5 -74 -5 -70 -6 -66 -6 -59 -5 -54 -6 -48 -5 -42 -5 -34 -4 -28 -3 -20 -2 -12 0 -3 171 -29 1 5 2 13 3 21 4 29 5 36 5 43 6 49 6 56 6 62 6 66 5 72 5 77 4 81 4 86 2 88 1 93 0 95 -2 98 -3 100 -6 102 -8 103 -10 105 -12 106 -16 106 -18 106 -21 107 -25 105 -28 105 -32 104 -35 102 -40 100 -44 97zm0 0c-21,44 -73,62 -116,41 -43,-21 -61,-73 -40,-116l156 75z"/>
    </g>
    <g>
     <path class="fil1" d="M11272 17609c48,-7 92,26 99,73 7,48 -26,92 -74,99l-25 -172zm-2276 335l2276 -335 25 172 -2276 335 -25 -172zm25 172c-47,7 -91,-26 -98,-73 -7,-48 26,-92 73,-99l25 172z"/>
    </g>
    <g>
     <path class="fil1" d="M9069 17968c35,33 35,88 2,123 -34,34 -89,34 -123,1l121 -124zm-839 -2773l32 170 -139 35 -115 43 -91 52 -70 58 -51 64 -37 70 -22 77 -9 86 3 93 16 101 28 106 39 111 49 115 57 117 65 119 72 119 77 118 81 117 83 115 85 111 85 107 85 103 82 96 78 90 74 83 68 74 61 65 52 55 43 44 32 32 20 20 6 7 -121 124 -8 -8 -20 -20 -33 -34 -44 -45 -54 -56 -61 -66 -70 -76 -75 -84 -80 -91 -84 -99 -86 -104 -87 -110 -87 -115 -86 -118 -83 -120 -80 -123 -75 -125 -69 -125 -61 -125 -53 -124 -43 -123 -32 -121 -19 -120 -4 -116 13 -114 31 -108 53 -101 73 -91 95 -79 116 -65 137 -52 158 -39zm0 0c47,-9 92,22 101,69 9,47 -22,93 -69,101l-32 -170z"/>
    </g>
    <g>
     <path class="fil1" d="M8332 15268c7,47 -26,91 -73,98 -48,7 -92,-26 -99,-73l172 -25zm-364 -2475l364 2475 -172 25 -364 -2475 172 -25zm-172 25c-7,-47 26,-91 73,-98 47,-7 92,26 99,73l-172 25z"/>
    </g>
    <g>
     <path class="fil1" d="M7968 12793c7,48 -26,92 -74,99 -47,7 -91,-26 -98,-74l172 -25zm359 -689l25 172 0 0 -43 7 -39 10 -36 12 -33 13 -29 15 -27 16 -24 17 -21 18 -20 19 -18 20 -15 20 -14 22 -13 22 -11 22 -9 23 -8 23 -7 22 -6 23 -5 23 -3 21 -3 21 -2 21 -1 19 -1 17 0 17 1 14 0 13 1 10 1 8 0 6 1 3 0 0 -172 25 -1 -3 0 -6 -1 -9 -1 -11 -1 -14 -1 -17 0 -18 0 -21 1 -23 1 -24 3 -26 3 -27 5 -28 6 -30 8 -30 9 -31 11 -31 13 -32 16 -31 18 -32 20 -31 23 -30 26 -30 29 -28 32 -27 36 -25 38 -23 41 -20 44 -18 48 -16 51 -12 54 -10 0 0zm701 523l-172 21 0 1 0 -3 -1 -6 -2 -8 -2 -10 -3 -12 -3 -13 -5 -15 -5 -17 -6 -17 -7 -18 -8 -19 -9 -19 -10 -20 -12 -19 -12 -20 -14 -19 -15 -18 -16 -18 -18 -17 -19 -15 -20 -15 -22 -14 -24 -12 -25 -11 -28 -9 -29 -7 -32 -6 -35 -3 -38 0 -40 2 -44 5 -25 -172 54 -6 52 -3 50 1 48 4 45 8 43 10 40 14 38 16 35 18 33 21 31 22 28 23 26 25 23 25 22 27 19 26 17 26 15 27 14 26 12 25 11 25 9 24 8 22 7 21 5 20 5 18 3 15 3 14 2 11 2 9 1 6 0 3zm0 0c6,48 -28,91 -75,97 -48,6 -91,-28 -97,-76l172 -21z"/>
    </g>
    <g>
     <path class="fil1" d="M8856 12650c-7,-47 26,-91 73,-98 48,-7 92,26 99,73l-172 25zm366 2486l-366 -2486 172 -25 366 2486 -172 25zm172 -25c7,48 -26,92 -73,99 -48,7 -92,-26 -99,-74l172 -25z"/>
    </g>
    <g>
     <path class="fil1" d="M9068 18422l2375 -349 25 171 -2374 350 -26 -172 0 0zm-241 -26l172 -25 0 0 0 3 1 3 1 3 1 3 1 2 1 3 2 3 1 2 2 3 1 2 2 2 2 3 2 2 2 2 3 2 2 2 2 1 3 2 3 2 2 1 3 1 3 1 3 1 2 1 3 1 3 0 3 1 3 0 3 0 3 0 3 0 3 -1 26 172 -12 1 -12 1 -12 1 -12 -1 -11 -1 -12 -1 -11 -2 -12 -3 -10 -3 -11 -4 -11 -4 -10 -5 -10 -5 -10 -5 -9 -6 -10 -7 -8 -7 -9 -7 -8 -8 -8 -8 -7 -9 -7 -8 -7 -10 -6 -9 -6 -10 -5 -11 -5 -10 -4 -11 -4 -11 -3 -12 -3 -11 -2 -12 0 0zm145 -211l27 186 -172 25 -27 -186 172 -25 0 0zm26 -241l25 172 0 0 -3 0 -3 1 -3 1 -3 1 -3 1 -2 1 -3 1 -2 2 -3 1 -2 2 -3 2 -2 2 -2 2 -2 2 -2 2 -2 3 -2 2 -1 3 -2 2 -1 3 -1 3 -1 2 -1 3 -1 3 -1 3 0 3 -1 3 0 3 0 3 0 3 0 3 1 3 -172 25 -2 -12 0 -12 -1 -11 1 -12 1 -12 1 -11 2 -12 3 -11 3 -11 4 -11 4 -10 5 -10 5 -11 5 -9 6 -10 7 -9 7 -9 7 -8 8 -8 8 -8 8 -8 9 -7 10 -6 9 -7 10 -5 10 -6 11 -4 11 -5 11 -3 11 -4 12 -2 12 -2 0 0zm2399 -178l-2374 350 -25 -172 2374 -350 25 172 0 0zm242 26l-172 25 0 1 -1 -4 0 -3 -1 -3 -1 -2 -1 -3 -1 -3 -2 -3 -1 -2 -2 -3 -2 -2 -1 -2 -2 -3 -3 -2 -2 -2 -2 -2 -2 -2 -3 -1 -2 -2 -3 -1 -3 -2 -2 -1 -3 -1 -3 -1 -3 -1 -2 0 -3 -1 -3 0 -3 -1 -3 0 -3 0 -3 1 -4 0 -25 -172 12 -1 12 -1 12 0 12 0 11 1 12 2 11 2 11 2 11 3 11 4 11 4 10 5 10 5 10 6 9 6 9 6 9 7 9 7 8 8 8 8 7 9 7 9 7 9 6 10 6 9 5 11 5 10 4 11 4 11 3 12 3 11 2 12 0 0zm-145 211l-27 -186 172 -25 27 186 -172 25 0 0zm-26 241l-25 -171 0 0 3 -1 3 -1 3 0 2 -1 3 -1 3 -2 3 -1 2 -1 3 -2 2 -2 2 -2 3 -2 2 -2 2 -2 2 -2 2 -2 1 -3 2 -2 1 -3 2 -3 1 -2 1 -3 1 -3 1 -3 1 -3 0 -3 0 -2 1 -3 0 -3 0 -3 0 -4 -1 -3 172 -25 1 12 1 12 0 12 0 11 -1 12 -1 12 -3 11 -2 11 -3 11 -4 11 -4 10 -5 11 -5 10 -6 9 -6 10 -6 9 -7 9 -7 9 -8 8 -8 7 -9 8 -9 7 -9 7 -9 6 -10 5 -11 6 -10 5 -11 4 -11 4 -12 3 -11 2 -12 2 0 0z"/>
     <path id="1" class="fil1" d="M11455 18159l-2374 349c-81,12 -156,-44 -168,-125l-27 -185c-12,-81 44,-157 124,-168l2375 -350c80,-12 156,44 168,125l27 186c12,80 -44,156 -125,168z"/>
    </g>
    <g>
     <path class="fil1" d="M9385 15647l-25 -172 0 0 1 0 0 0 1 -1 1 0 0 0 1 0 0 0 1 -1 0 0 1 0 0 -1 1 0 0 -1 1 0 0 -1 0 0 1 -1 0 0 0 -1 1 0 0 -1 0 0 0 -1 0 -1 1 0 0 -1 0 0 0 -1 0 0 0 -1 0 -1 0 -1 171 -25 2 10 0 9 0 9 0 10 -1 9 -1 9 -1 9 -3 9 -2 9 -3 8 -3 9 -4 8 -4 8 -4 8 -5 7 -5 7 -6 7 -6 7 -6 7 -6 6 -7 6 -7 5 -7 6 -8 5 -8 4 -8 4 -9 4 -8 3 -9 3 -9 3 -9 2 -10 2 0 0zm-211 -158l171 -25 0 0 1 1 0 1 0 0 0 1 0 0 1 1 0 0 0 1 0 0 1 1 0 0 1 1 0 0 0 1 1 0 1 1 0 0 0 0 1 1 1 0 0 0 1 0 0 1 1 0 1 0 0 0 1 0 0 0 1 0 1 0 0 0 1 0 25 172 -9 1 -10 0 -9 1 -9 -1 -10 0 -9 -2 -9 -1 -9 -2 -8 -3 -9 -3 -8 -3 -9 -4 -7 -4 -8 -4 -8 -5 -7 -5 -7 -6 -7 -5 -6 -7 -7 -6 -5 -7 -6 -7 -5 -7 -5 -8 -5 -8 -4 -8 -4 -8 -3 -9 -3 -9 -3 -9 -2 -9 -1 -10 0 0zm157 -211l25 172 0 0 -1 0 0 0 -1 0 0 0 -1 1 0 0 -1 0 -1 0 0 1 -1 0 0 0 0 1 -1 0 0 1 -1 0 0 1 -1 0 0 1 0 0 0 1 -1 0 0 1 0 1 0 0 0 1 -1 0 0 1 0 0 0 1 0 1 0 0 0 1 -171 25 -1 -9 -1 -9 0 -10 0 -9 1 -9 1 -10 2 -9 2 -8 2 -9 3 -9 3 -8 4 -8 4 -8 5 -8 4 -8 6 -7 5 -7 6 -7 6 -6 6 -6 7 -6 7 -6 8 -5 7 -5 8 -5 8 -4 9 -3 8 -4 9 -3 9 -2 10 -2 9 -2 0 0zm211 157l-171 25 0 0 0 0 -1 -1 0 -1 0 0 0 -1 0 0 -1 -1 0 0 0 -1 -1 0 0 -1 0 0 -1 -1 0 0 -1 -1 0 0 -1 0 0 -1 -1 0 0 0 -1 -1 -1 0 0 0 -1 0 0 0 -1 0 0 0 -1 0 -1 0 0 0 -1 0 -1 0 -25 -172 9 -1 10 -1 9 0 10 0 9 1 9 1 9 2 9 2 9 2 8 3 9 4 8 3 8 4 7 5 8 5 7 5 7 5 7 6 7 6 6 7 6 6 5 7 5 8 5 8 5 7 4 9 4 8 3 9 3 9 3 9 2 9 1 9 0 0z"/>
     <path id="1" class="fil2" d="M9457 15448c8,54 -30,105 -84,113 -55,8 -105,-30 -113,-84 -8,-55 29,-105 84,-113 54,-8 105,29 113,84z"/>
    </g>
    <g>
     <path class="fil1" d="M10097 15542l-25 -172 0 0 1 0 0 0 1 0 0 -1 1 0 1 0 0 0 1 -1 0 0 1 0 0 -1 1 0 0 0 0 -1 1 0 0 -1 1 0 0 -1 0 -1 1 0 0 -1 0 0 0 -1 0 0 1 -1 0 -1 0 0 0 -1 0 0 0 -1 0 -1 0 0 171 -26 2 10 0 9 0 10 0 9 -1 9 -1 9 -1 9 -3 9 -2 9 -3 9 -3 8 -4 8 -4 8 -4 8 -5 7 -5 8 -6 7 -6 6 -6 7 -6 6 -7 6 -7 6 -8 5 -7 5 -8 4 -8 4 -9 4 -8 4 -9 3 -9 2 -9 2 -10 2 0 0zm-211 -157l171 -26 0 0 1 1 0 1 0 0 0 1 0 0 1 1 0 1 0 0 0 1 1 0 0 1 1 0 0 0 0 1 1 0 0 1 1 0 0 0 1 1 1 0 0 0 1 1 0 0 1 0 0 0 1 0 1 0 0 0 1 0 1 0 0 0 1 0 25 172 -9 1 -10 1 -9 0 -9 0 -10 -1 -9 -1 -9 -2 -9 -2 -8 -3 -9 -3 -8 -3 -9 -4 -8 -4 -7 -4 -8 -5 -7 -5 -7 -5 -7 -6 -6 -6 -7 -7 -5 -7 -6 -7 -5 -7 -5 -8 -5 -8 -4 -8 -4 -8 -3 -9 -3 -9 -3 -9 -2 -9 -1 -9 0 0zm157 -212l25 172 0 0 -1 0 0 0 -1 0 0 0 -1 1 -1 0 0 0 -1 1 0 0 -1 0 0 1 0 0 -1 0 0 1 -1 0 0 1 -1 0 0 1 0 0 -1 1 0 1 0 0 0 1 0 0 0 1 -1 0 0 1 0 1 0 0 0 1 0 1 0 0 -171 26 -1 -10 -1 -9 0 -10 0 -9 1 -9 1 -9 2 -9 2 -9 2 -9 3 -9 3 -8 4 -8 4 -8 5 -8 4 -7 6 -8 5 -7 6 -7 6 -6 6 -6 7 -6 7 -6 8 -5 7 -5 8 -4 8 -5 9 -3 8 -4 9 -3 9 -2 10 -2 9 -2 0 0zm211 157l-171 26 0 0 0 -1 -1 -1 0 0 0 -1 0 -1 0 0 -1 -1 0 0 0 -1 -1 0 0 -1 0 0 -1 -1 0 0 -1 0 0 -1 -1 0 0 0 -1 -1 0 0 -1 0 -1 -1 0 0 -1 0 0 0 -1 0 0 0 -1 0 -1 0 0 0 -1 0 -1 0 -25 -172 9 -1 10 -1 9 0 9 0 10 1 9 1 9 2 9 2 9 3 8 2 9 4 8 3 8 5 7 4 8 5 7 5 7 5 7 6 6 6 7 7 6 7 5 7 5 7 5 8 5 8 4 8 4 8 3 9 3 9 3 9 2 9 1 9 0 0z"/>
     <path id="1" class="fil2" d="M10169 15343c8,54 -30,105 -84,113 -55,8 -105,-30 -113,-84 -8,-54 29,-105 84,-113 54,-8 105,30 113,84z"/>
    </g>
    <g>
     <path class="fil1" d="M10774 15442l-25 -172 0 0 1 0 0 0 1 0 0 0 1 0 1 -1 0 0 1 0 0 -1 1 0 0 0 1 -1 0 0 0 -1 1 0 0 -1 1 0 0 -1 0 0 1 -1 0 0 0 -1 0 0 0 -1 1 -1 0 0 0 -1 0 0 0 -1 0 -1 0 0 0 -1 171 -25 2 9 0 10 0 9 0 9 -1 9 -1 10 -1 9 -3 8 -2 9 -3 9 -3 8 -4 8 -4 8 -4 8 -5 8 -5 7 -6 7 -6 7 -6 6 -6 6 -7 6 -7 6 -8 5 -7 5 -8 5 -8 4 -9 4 -8 3 -9 3 -9 2 -9 3 -10 1 0 0zm-211 -157l171 -25 0 0 1 0 0 1 0 1 0 0 0 1 1 0 0 1 0 0 0 1 1 0 0 1 0 0 1 1 0 0 1 1 0 0 1 0 0 1 1 0 1 0 0 1 1 0 0 0 1 0 0 0 1 0 1 0 0 1 1 0 1 0 0 -1 1 0 25 172 -9 1 -10 1 -9 0 -9 0 -10 -1 -9 -1 -9 -2 -9 -2 -8 -2 -9 -3 -8 -4 -9 -3 -8 -4 -7 -5 -8 -5 -7 -5 -7 -5 -7 -6 -6 -6 -7 -7 -6 -6 -5 -7 -5 -8 -5 -7 -5 -8 -4 -9 -4 -8 -3 -9 -3 -8 -3 -10 -2 -9 -1 -9 0 0zm157 -212l25 172 0 0 -1 0 0 0 -1 1 0 0 -1 0 -1 0 0 1 -1 0 0 0 -1 0 0 1 -1 0 0 1 0 0 -1 1 0 0 -1 1 0 0 0 1 -1 0 0 1 0 0 0 1 0 1 -1 0 0 1 0 0 0 1 0 1 0 0 0 1 0 1 -171 25 -1 -9 -1 -10 0 -9 0 -10 1 -9 1 -9 2 -9 2 -9 2 -9 3 -8 3 -9 4 -8 4 -8 4 -8 5 -7 5 -7 6 -7 6 -7 6 -7 6 -6 7 -6 7 -5 8 -6 7 -5 8 -4 8 -4 9 -4 8 -3 9 -3 9 -3 10 -2 9 -2 0 0zm211 158l-171 25 0 0 0 -1 -1 -1 0 0 0 -1 0 0 0 -1 -1 0 0 -1 0 0 -1 -1 0 0 -1 -1 0 0 0 -1 -1 0 0 0 -1 -1 0 0 -1 -1 -1 0 0 0 -1 0 0 0 -1 -1 0 0 -1 0 -1 0 0 0 -1 0 0 0 -1 0 -1 0 -25 -172 9 -1 10 0 9 -1 9 1 10 0 9 2 9 1 9 2 9 3 8 3 8 3 9 4 8 4 7 4 8 5 7 5 7 6 7 5 7 7 6 6 6 7 5 7 5 7 5 8 5 8 4 8 4 8 3 9 3 9 3 9 2 9 1 10 0 0z"/>
     <path id="1" class="fil2" d="M10846 15243c8,55 -30,105 -84,113 -55,8 -105,-29 -113,-84 -8,-54 29,-105 84,-113 54,-8 105,30 113,84z"/>
    </g>
   </g>
   <g>
    <g>
     <g>
      <g>
       <path class="fil1" d="M9905 11210c-48,-2 -85,-43 -83,-90 2,-48 43,-85 91,-83l-8 173zm4936 1560l-102 140 -146 -105 -144 -101 -144 -97 -143 -93 -142 -89 -142 -86 -141 -83 -141 -78 -141 -76 -141 -72 -141 -68 -141 -65 -142 -62 -143 -59 -143 -55 -144 -53 -145 -49 -147 -46 -148 -44 -149 -40 -151 -38 -153 -35 -155 -32 -157 -29 -159 -27 -162 -24 -164 -22 -167 -19 -170 -17 -173 -14 -176 -12 -179 -10 8 -173 182 10 178 12 176 14 172 17 170 20 167 22 165 24 162 28 161 30 158 33 156 35 155 39 152 41 152 45 150 47 148 51 148 53 147 57 146 60 145 63 144 67 144 70 144 73 144 77 144 81 144 83 144 88 145 91 145 95 146 98 147 103 147 106zm0 0c39,28 48,82 19,121 -28,39 -82,47 -121,19l102 -140z"/>
      </g>
      <g>
       <path class="fil1" d="M14697 12176c-12,-46 16,-94 62,-106 47,-12 94,16 106,63l-168 43zm238 851l3 -174 -87 99 -4 -29 -4 -28 -4 -27 -4 -26 -4 -25 -4 -25 -3 -24 -4 -24 -4 -23 -4 -23 -4 -23 -4 -22 -4 -22 -4 -22 -4 -22 -4 -21 -4 -22 -5 -22 -4 -22 -5 -22 -5 -22 -5 -23 -5 -23 -6 -24 -6 -24 -5 -24 -7 -25 -6 -26 -7 -26 -6 -28 -8 -28 -7 -29 168 -43 8 29 7 29 7 27 7 27 6 27 6 25 6 25 6 25 6 24 5 24 5 23 5 23 5 23 5 23 5 22 4 23 5 22 4 23 4 23 4 22 4 23 4 24 4 23 4 24 4 25 4 25 4 25 4 26 4 27 3 27 4 28 4 29 -87 99zm87 -99c7,47 -26,91 -74,98 -47,6 -91,-27 -97,-74l171 -24zm-891 134l-19 -173 29 -3 29 -3 28 -3 27 -3 27 -2 26 -3 25 -2 25 -2 25 -2 24 -2 24 -2 24 -2 23 -1 24 -2 23 -1 23 -1 24 -1 23 -1 24 0 24 -1 24 -1 25 0 25 0 25 0 26 0 27 0 27 0 27 0 29 0 29 1 30 0 31 1 -3 174 -31 -1 -30 -1 -29 0 -27 0 -28 -1 -26 0 -26 0 -25 0 -25 0 -24 1 -23 0 -24 0 -23 1 -23 1 -22 1 -23 1 -22 1 -23 1 -22 1 -23 2 -23 1 -23 2 -23 2 -24 2 -24 2 -25 2 -26 3 -26 2 -26 3 -28 3 -28 3 -29 3zm0 0c-48,5 -91,-29 -96,-77 -5,-47 29,-90 77,-96l19 173z"/>
      </g>
     </g>
    </g>
    <g>
     <g>
      <g>
       <path class="fil1" d="M9145 11210l-8 -173c48,-2 89,35 91,83 2,47 -35,88 -83,90zm-4936 1560l147 -106 147 -103 146 -98 145 -95 145 -91 144 -88 144 -83 144 -81 144 -77 144 -73 144 -70 144 -67 145 -63 146 -60 147 -57 148 -53 148 -51 150 -47 152 -45 152 -41 155 -39 156 -35 158 -33 161 -30 162 -28 165 -24 167 -22 170 -20 172 -17 176 -14 178 -12 182 -10 8 173 -179 10 -176 12 -173 14 -170 17 -167 19 -164 22 -162 24 -159 27 -157 29 -155 32 -153 35 -151 38 -149 40 -148 44 -147 46 -145 49 -144 53 -143 55 -143 59 -142 62 -141 65 -141 68 -141 72 -141 76 -141 78 -141 83 -142 86 -142 89 -143 93 -144 97 -144 101 -146 105 -102 -140zm0 0l102 140c-39,28 -93,20 -122,-19 -28,-39 -19,-93 20,-121z"/>
      </g>
      <g>
       <path class="fil1" d="M4353 12176l-168 -43c12,-47 59,-75 106,-63 46,12 74,60 62,106zm-238 851l-87 -99 4 -29 4 -28 3 -27 4 -27 4 -26 4 -25 4 -25 4 -25 4 -24 4 -23 4 -24 4 -23 4 -22 4 -23 4 -23 5 -22 4 -23 5 -22 5 -23 5 -23 5 -23 5 -23 5 -24 6 -24 6 -25 6 -25 6 -25 6 -27 7 -27 7 -27 7 -29 8 -29 168 43 -7 29 -8 28 -6 28 -7 26 -6 26 -7 25 -5 24 -6 24 -6 24 -5 23 -5 23 -5 22 -5 22 -4 22 -5 22 -4 22 -4 21 -4 22 -4 22 -4 22 -4 22 -4 23 -4 23 -4 23 -4 24 -3 24 -4 25 -4 25 -4 26 -4 27 -4 28 -4 29 -87 -99 3 174zm-87 -99l171 24c-6,47 -50,80 -97,74 -48,-7 -81,-51 -74,-98zm891 134l-29 -3 -28 -3 -28 -3 -26 -3 -26 -2 -26 -3 -25 -2 -24 -2 -24 -2 -23 -2 -23 -2 -23 -1 -23 -2 -22 -1 -23 -1 -22 -1 -23 -1 -22 -1 -23 -1 -23 -1 -24 0 -23 0 -24 -1 -25 0 -25 0 -26 0 -26 0 -28 1 -27 0 -29 0 -30 1 -31 1 -3 -174 31 -1 30 0 29 -1 29 0 27 0 27 0 27 0 26 0 25 0 25 0 25 0 24 1 24 1 23 0 24 1 24 1 23 1 23 1 24 2 23 1 24 2 24 2 24 2 25 2 25 2 25 2 26 3 27 2 27 3 28 3 29 3 29 3 -19 173zm0 0l19 -173c48,6 82,49 77,96 -5,48 -48,82 -96,77z"/>
      </g>
     </g>
    </g>
   </g>
  </g>
 </g>
</svg>
