<?xml version="1.0" encoding="UTF-8"?>
<!DOCTYPE svg PUBLIC "-//W3C//DTD SVG 1.1//EN" "http://www.w3.org/Graphics/SVG/1.1/DTD/svg11.dtd">
<!-- Creator: CorelDRAW X7 -->
<svg xmlns="http://www.w3.org/2000/svg" xml:space="preserve" width="190.5mm" height="338.667mm" version="1.1" style="shape-rendering:geometricPrecision; text-rendering:geometricPrecision; image-rendering:optimizeQuality; fill-rule:evenodd; clip-rule:evenodd"
viewBox="0 0 19050 33867"
 xmlns:xlink="http://www.w3.org/1999/xlink">
 <defs>
  <style type="text/css">
   <![CDATA[
    .str0 {stroke:white;stroke-width:106.57}
    .fil2 {fill:none;fill-rule:nonzero}
    .fil3 {fill:white}
    .fil0 {fill:#61C5C3;fill-rule:nonzero}
    .fil1 {fill:white;fill-rule:nonzero}
    .fil4 {fill:white;fill-rule:nonzero}
   ]]>
  </style>
 </defs>
 <g id="Capa_x0020_1">
  <metadata id="CorelCorpID_0Corel-Layer"/>
  <polygon class="fil0" points="0,33867 19050,33867 19050,0 0,0 "/>
  <g id="_02titulopolitica">
   <path class="fil1" d="M6965 12697l0 858c0,4 -3,7 -7,7l-95 5c-1,35 -1,72 -1,105 60,0 130,-2 193,-2 90,0 193,2 270,2 1,-35 1,-72 1,-105l-171 -3 2 -295c13,1 48,1 73,1 75,0 168,-13 235,-46 113,-50 203,-172 203,-313 0,-127 -82,-255 -218,-297 -89,-26 -157,-28 -260,-28 -113,0 -233,2 -328,3 0,34 -2,70 -2,105l105 3zm195 -3c10,-5 33,-7 71,-7 144,0 240,92 240,240 0,79 -26,152 -88,194 -38,28 -95,43 -150,43 -36,0 -71,-2 -76,-15l3 -455zm943 993c91,0 168,-22 231,-67 92,-66 158,-183 158,-321 0,-138 -55,-237 -138,-297 -62,-43 -133,-61 -216,-61 -89,0 -179,25 -247,76 -98,79 -148,190 -148,313 0,122 41,212 116,277 60,55 149,80 244,80zm16 -98c-45,0 -83,-17 -110,-50 -41,-47 -61,-114 -61,-227 0,-102 21,-175 63,-223 30,-37 73,-50 112,-50 46,0 85,17 115,57 34,46 51,113 51,209 0,112 -15,184 -60,235 -30,37 -70,49 -110,49zm587 -940c0,274 0,634 0,911 0,4 -4,7 -7,7l-102 5c0,32 -1,68 -1,100 61,0 136,-2 201,-2 72,0 150,0 210,0 0,-31 0,-66 0,-100l-115 -3c2,-323 5,-766 7,-1056 0,-5 -2,-7 -5,-7 -15,0 -230,34 -310,42 -2,32 -3,67 -3,100l125 3zm501 440l0 471c0,4 -2,7 -7,7l-101 5c-2,32 -2,67 -2,100 62,0 135,-2 197,-2 66,0 146,0 203,0 1,-31 1,-66 1,-100l-106 -3c0,-174 3,-439 3,-621 0,-4 0,-5 -2,-5 -15,0 -224,35 -304,43 0,32 -2,69 0,100l118 5zm196 -521c-75,73 -163,161 -238,234 19,24 39,47 59,67 83,-63 178,-138 268,-207 -27,-31 -57,-66 -89,-94zm472 1119c88,0 195,-15 288,-50 -3,-32 -8,-68 -15,-102 -55,15 -118,27 -168,27 -50,0 -95,-30 -95,-90 0,-81 0,-162 1,-231 0,-70 0,-147 0,-167 87,0 182,2 257,2 2,-37 5,-79 5,-117 -82,2 -175,2 -260,2 2,-60 3,-177 3,-225 0,-4 -1,-5 -3,-5 -5,0 -113,36 -173,70 -3,45 -7,101 -8,148 0,7 -7,12 -12,12 -33,1 -72,5 -107,6 -3,34 -3,72 -3,107 38,0 83,0 115,0 0,30 -2,159 -2,204 0,33 -1,143 -1,232 0,50 1,89 51,130 44,40 88,47 127,47zm574 -1103c-75,0 -119,54 -119,110 0,63 53,112 113,112 65,0 116,-47 116,-115 0,-50 -33,-107 -110,-107zm-83 505l0 471c0,4 -2,7 -7,7l-101 5c-2,32 -2,67 -2,100 62,0 135,-2 197,-2 66,0 146,0 203,0 2,-31 2,-66 2,-100l-107 -3c0,-174 3,-439 3,-621 0,-4 0,-5 -1,-5 -15,0 -225,35 -305,43 0,32 -2,69 0,100l118 5zm397 270c0,208 149,328 328,328 70,0 185,-23 283,-73 -5,-32 -15,-69 -23,-99 -54,20 -135,47 -200,47 -45,0 -100,-10 -135,-52 -37,-43 -57,-96 -57,-185 0,-91 25,-155 58,-198 30,-38 69,-56 122,-56 67,0 142,38 158,45 27,-15 69,-102 69,-139 -32,-18 -100,-36 -167,-36 -262,0 -436,181 -436,418zm1152 253c23,33 42,60 58,75 100,0 204,-18 229,-27 1,-31 0,-68 0,-98l-102 3c-8,2 -12,-5 -12,-20 0,-70 4,-251 4,-343 0,-166 -112,-261 -238,-261 -144,0 -250,71 -342,153 22,30 47,62 70,86 62,-54 140,-103 205,-103 90,0 128,62 123,198 -16,0 -51,0 -101,0 -240,0 -345,142 -345,235 0,100 115,177 200,177 60,0 130,-17 243,-75l8 0zm-261 -122c0,-65 55,-121 186,-121 34,0 60,1 69,1 0,45 0,97 0,132 0,5 0,8 -4,12 -48,33 -108,55 -155,55 -51,0 -96,-32 -96,-79z"/>
   <polygon class="fil2 str0" points="6772,13837 6772,13837 12298,13837 "/>
   <path class="fil3" d="M5259 15419c17,36 34,60 55,75 85,0 205,-20 230,-30 0,-32 0,-69 0,-99l-101 5c-12,0 -15,-10 -15,-26 0,-316 5,-744 5,-1028 0,-3 -2,-5 -4,-5 -18,0 -229,33 -319,43 -2,32 -2,67 -2,100l133 3c2,105 3,206 3,310l-8 5c-41,-11 -96,-25 -156,-25 -94,0 -182,39 -240,104 -77,83 -119,191 -119,308 0,108 37,193 99,255 55,55 126,80 200,80 50,0 86,-5 229,-75l10 0zm-18 -125c0,15 -2,21 -8,26 -50,32 -98,50 -153,50 -44,0 -87,-21 -114,-58 -31,-45 -45,-98 -45,-175 0,-96 19,-158 52,-206 30,-44 80,-65 132,-65 51,0 98,15 136,35 0,118 0,261 0,393zm380 -140c0,213 140,340 358,340 75,0 195,-29 290,-74 -5,-31 -15,-70 -25,-101 -55,21 -152,50 -225,50 -58,0 -108,-7 -153,-55 -32,-35 -50,-89 -50,-165 123,0 323,0 396,-5 17,-2 67,-55 72,-77 0,-88 -22,-171 -73,-233 -44,-53 -114,-87 -209,-87 -230,0 -381,182 -381,407zm356 -303c44,0 74,20 95,50 19,28 34,78 34,125 0,11 -7,18 -19,18 -76,3 -188,5 -268,5 2,-77 32,-122 53,-150 27,-33 60,-48 105,-48zm815 524c-2,32 -2,69 -2,102 65,0 143,0 208,0 49,0 137,0 197,0 146,0 281,-30 380,-98 136,-99 223,-270 223,-482 0,-183 -100,-344 -238,-423 -94,-53 -207,-81 -398,-81 -134,0 -267,1 -370,3 -2,35 -2,70 -2,105l112 3 0 860c0,3 -4,6 -7,6l-103 5zm308 -874c15,-5 45,-7 80,-7 108,0 201,29 268,89 98,89 140,191 140,371 0,127 -45,260 -122,331 -70,64 -165,92 -278,92 -76,0 -91,-13 -91,-50l3 -826zm823 653c0,213 140,340 358,340 75,0 195,-29 290,-74 -5,-31 -15,-70 -25,-101 -55,21 -152,50 -225,50 -58,0 -108,-7 -153,-55 -32,-35 -50,-89 -50,-165 123,0 323,0 396,-5 17,-2 67,-55 72,-77 0,-88 -22,-171 -74,-233 -43,-53 -113,-87 -208,-87 -230,0 -381,182 -381,407zm356 -303c43,0 73,20 95,50 18,28 33,78 33,125 0,11 -6,18 -18,18 -77,3 -188,5 -268,5 2,-77 32,-122 53,-150 27,-33 60,-48 105,-48zm528 386c-36,5 -76,12 -111,20 8,68 16,138 25,207 45,16 123,30 208,30 91,0 173,-15 221,-42 79,-43 124,-112 124,-193 0,-130 -89,-172 -209,-205 -130,-38 -160,-50 -160,-103 0,-39 17,-62 37,-75 20,-15 53,-24 85,-24 32,0 63,7 85,22 5,5 8,12 10,18l25 99c38,-5 78,-12 112,-17 -5,-67 -12,-133 -20,-200 -22,-10 -89,-27 -179,-27 -91,0 -163,19 -213,45 -61,32 -121,99 -121,185 0,99 61,160 203,202 126,36 163,48 163,115 0,38 -20,61 -43,75 -29,18 -60,20 -99,20 -38,0 -78,-12 -105,-30 -8,-7 -10,-12 -13,-20l-25 -102zm1033 182c23,33 41,60 58,75 100,0 203,-19 228,-27 2,-32 0,-68 0,-98l-101 3c-9,2 -12,-5 -12,-20 0,-70 3,-251 3,-343 0,-167 -111,-262 -238,-262 -143,0 -250,72 -341,154 21,30 46,61 70,86 61,-55 140,-103 205,-103 90,0 128,62 123,198 -17,0 -52,0 -102,0 -240,0 -345,142 -345,235 0,100 115,177 200,177 60,0 130,-17 244,-75l8 0zm-262 -122c0,-65 55,-122 187,-122 33,0 60,2 68,2 0,45 0,97 0,132 0,5 0,8 -3,11 -48,34 -108,55 -155,55 -52,0 -97,-31 -97,-78zm730 -406c0,147 0,325 0,477 0,3 -3,7 -7,7l-88 5c-2,30 -2,67 -2,98 60,0 135,-1 198,-1 77,0 165,0 230,0 2,-32 2,-67 2,-99l-148 -5c0,-42 0,-97 1,-142 0,-52 7,-108 27,-147 38,-73 68,-115 100,-140 20,-17 35,-20 52,-20 35,0 80,12 95,15 23,-20 60,-118 60,-172 -29,-13 -70,-21 -109,-21 -76,0 -126,35 -225,227l-10 -2c-3,-82 -6,-163 -10,-219 0,-3 -1,-5 -3,-5 -8,0 -201,34 -273,44 -2,32 -2,65 -2,97l112 3zm701 0c0,147 0,325 0,477 0,3 -3,7 -7,7l-88 5c-2,30 -2,67 -2,98 60,0 135,-1 199,-1 76,0 165,0 230,0 1,-32 1,-67 1,-99l-148 -5c0,-42 0,-97 2,-142 0,-52 6,-108 26,-147 39,-73 69,-115 100,-140 20,-17 35,-20 52,-20 35,0 80,12 95,15 23,-20 60,-118 60,-172 -29,-13 -70,-21 -109,-21 -76,0 -126,35 -224,227l-10 -2c-4,-82 -7,-163 -10,-219 0,-3 -2,-5 -4,-5 -8,0 -201,34 -273,44 -1,32 -1,65 -1,97l111 3zm920 603c91,0 168,-22 231,-67 92,-67 158,-183 158,-321 0,-139 -55,-237 -138,-297 -62,-43 -133,-62 -217,-62 -88,0 -178,25 -246,77 -98,78 -148,190 -148,313 0,122 41,212 116,277 60,55 149,80 244,80zm16 -99c-45,0 -83,-16 -110,-50 -41,-46 -61,-113 -61,-226 0,-102 21,-175 63,-223 30,-37 73,-50 111,-50 47,0 85,16 115,56 35,47 52,114 52,210 0,112 -15,183 -60,235 -30,37 -70,48 -110,48zm570 -939c0,274 0,634 0,911 0,3 -4,7 -7,7l-101 5c0,31 -2,68 -2,100 61,0 136,-2 201,-2 72,0 150,0 210,0 0,-32 0,-67 0,-100l-115 -3c2,-324 5,-766 7,-1056 0,-5 -2,-7 -5,-7 -15,0 -230,34 -310,42 -1,32 -3,67 -3,100l125 3zm464 0c0,274 0,634 0,911 0,3 -3,7 -6,7l-102 5c0,31 -1,68 -1,100 61,0 136,-2 201,-2 72,0 150,0 210,0 0,-32 0,-67 0,-100l-115 -3c2,-324 5,-766 7,-1056 0,-5 -2,-7 -5,-7 -15,0 -230,34 -310,42 -2,32 -3,67 -3,100l124 3zm745 1038c92,0 168,-22 232,-67 91,-67 158,-183 158,-321 0,-139 -55,-237 -138,-297 -62,-43 -134,-62 -217,-62 -88,0 -178,25 -247,77 -98,78 -148,190 -148,313 0,122 42,212 117,277 60,55 148,80 243,80zm17 -99c-45,0 -84,-16 -110,-50 -42,-46 -62,-113 -62,-226 0,-102 22,-175 63,-223 30,-37 74,-50 112,-50 47,0 85,16 115,56 35,47 52,114 52,210 0,112 -15,183 -60,235 -30,37 -70,48 -110,48z"/>
   <polygon class="fil2 str0" points="4662,15643 4662,15643 14408,15643 "/>
   <path class="fil1" d="M3640 17182c-2,33 -2,68 -2,103 47,0 102,-1 153,-1 82,0 162,0 227,0 1,-34 1,-70 1,-104l-124 -3c18,-60 43,-136 63,-198l361 -2c5,0 9,2 10,7 20,52 45,129 64,183 3,5 0,8 -4,8l-110 5c-1,35 -1,70 -1,105 70,0 160,-1 239,-1 57,0 125,0 175,0 2,-34 2,-70 2,-104l-95 -5c-102,-288 -240,-696 -345,-987 -73,0 -126,1 -150,3 -108,287 -259,691 -369,978 -2,5 -5,6 -10,8l-85 5zm511 -754c47,143 102,311 147,444l-302 0c-5,0 -5,-3 -3,-10 46,-133 101,-296 150,-434l8 0zm791 665c-138,85 -143,90 -143,107 0,79 55,109 110,128l0 10c-40,30 -80,55 -148,103 -27,21 -35,38 -35,65 0,124 128,194 343,194 96,0 191,-17 266,-45 125,-50 193,-138 193,-236 0,-75 -23,-105 -76,-141 -53,-37 -118,-44 -265,-50 -152,-5 -195,-8 -195,-50 0,-18 28,-47 62,-73 155,6 245,-39 300,-95 51,-55 75,-130 75,-188 0,-55 -19,-108 -49,-141l2 -5c35,0 113,0 148,-2 2,-37 2,-78 -2,-113 -48,5 -156,10 -231,13 -10,0 -20,-2 -37,-5 -18,-6 -73,-15 -133,-15 -205,0 -350,132 -350,290 0,128 92,203 165,238l0 11zm27 -261c0,-120 56,-186 141,-186 45,0 77,15 97,43 23,32 33,70 33,130 0,130 -58,195 -136,195 -74,0 -135,-43 -135,-182zm375 625c0,49 -27,85 -72,112 -45,25 -112,35 -170,35 -88,0 -183,-32 -183,-105 0,-50 38,-87 93,-140 35,2 92,7 173,12 125,10 159,23 159,86zm364 -759c0,147 0,325 0,477 0,3 -3,7 -6,7l-89 5c-1,30 -1,66 -1,98 60,0 135,-2 198,-2 77,0 165,0 230,0 1,-31 1,-66 1,-98l-148 -5c0,-42 0,-97 2,-142 0,-52 7,-109 27,-147 38,-74 68,-115 100,-140 19,-17 34,-20 51,-20 35,0 80,11 95,15 23,-20 60,-119 60,-172 -28,-13 -70,-21 -108,-21 -77,0 -127,35 -225,227l-10 -2c-3,-82 -7,-164 -10,-219 0,-3 -2,-5 -3,-5 -9,0 -202,34 -274,44 -1,31 -1,65 -1,96l111 4zm996 527c24,34 42,60 59,75 100,0 203,-18 228,-26 2,-32 0,-69 0,-99l-102 4c-8,1 -11,-5 -11,-20 0,-70 3,-252 3,-343 0,-167 -112,-262 -238,-262 -143,0 -250,72 -342,153 22,30 47,62 70,87 62,-55 140,-103 205,-103 90,0 128,61 123,198 -16,0 -51,0 -101,0 -240,0 -345,142 -345,235 0,100 115,176 200,176 60,0 130,-16 243,-75l8 0zm-261 -121c0,-65 55,-122 186,-122 34,0 60,2 69,2 0,45 0,97 0,131 0,5 0,9 -4,12 -48,33 -108,55 -154,55 -52,0 -97,-32 -97,-78zm729 -406c0,147 0,325 0,477 0,3 -3,7 -6,7l-89 5c-1,30 -1,66 -1,98 60,0 135,-2 198,-2 77,0 165,0 230,0 2,-31 2,-66 2,-98l-149 -5c0,-42 0,-97 2,-142 0,-52 7,-109 27,-147 38,-74 68,-115 100,-140 20,-17 35,-20 51,-20 35,0 80,11 95,15 23,-20 60,-119 60,-172 -28,-13 -70,-21 -108,-21 -77,0 -127,35 -225,227l-10 -2c-3,-82 -7,-164 -10,-219 0,-3 -2,-5 -3,-5 -9,0 -202,34 -273,44 -2,31 -2,65 -2,96l111 4zm782 -500c-75,0 -120,53 -120,110 0,63 53,111 113,111 65,0 117,-46 117,-115 0,-50 -34,-106 -110,-106zm-84 505l0 471c0,3 -1,6 -6,6l-102 5c-2,32 -2,67 -2,100 62,0 135,-1 197,-1 67,0 147,0 203,0 2,-32 2,-67 2,-100l-107 -4c0,-173 4,-439 4,-621 0,-3 0,-5 -2,-5 -15,0 -225,35 -305,44 0,31 -2,68 0,100l118 5zm740 597c91,0 168,-21 231,-66 92,-67 159,-183 159,-322 0,-138 -55,-236 -139,-296 -61,-44 -133,-62 -216,-62 -88,0 -178,25 -247,77 -98,78 -148,190 -148,313 0,122 42,211 117,276 60,55 148,80 243,80zm17 -98c-45,0 -84,-17 -110,-50 -42,-47 -62,-113 -62,-226 0,-102 22,-175 63,-224 30,-36 74,-50 112,-50 46,0 85,17 115,57 35,47 51,113 51,210 0,112 -15,183 -60,235 -30,36 -70,48 -109,48zm996 -889l0 854c0,3 -2,6 -5,6l-112 5c-2,34 -2,70 -2,105 69,0 150,-1 220,-1 73,0 158,1 220,1 2,-35 3,-71 2,-106l-129 -5 5 -853c0,-5 0,-6 4,-6l120 -5c1,-34 1,-72 1,-105 -63,0 -145,0 -216,0 -72,0 -162,0 -225,0 -2,33 -2,71 -2,105l119 5zm544 388l0 473c0,3 -1,6 -5,6l-91 5c-2,32 -2,69 -2,100 57,0 127,-1 186,-1 64,0 140,0 197,0 0,-32 2,-67 2,-100l-100 -4c0,-110 1,-289 5,-404 53,-44 131,-80 181,-80 35,0 69,5 94,51 18,32 18,86 18,158 0,82 0,189 0,269 -2,3 -3,6 -7,6l-85 5c0,32 0,69 0,100 52,0 120,-1 180,-1 63,0 135,0 192,0 1,-32 1,-69 1,-100l-96 -4c1,-116 5,-267 5,-377 0,-40 -7,-87 -34,-132 -33,-55 -96,-117 -176,-117 -73,0 -110,9 -275,108l-8 -1c-5,-29 -14,-67 -20,-100 0,-3 0,-5 -4,-5 -10,0 -201,36 -274,46 0,29 -2,64 -2,95l118 4zm1134 599c89,0 195,-15 289,-50 -4,-31 -9,-68 -15,-101 -55,15 -119,26 -169,26 -50,0 -95,-30 -95,-90 0,-80 0,-162 2,-230 0,-71 0,-148 0,-168 87,0 182,2 257,2 1,-37 5,-78 5,-117 -82,2 -175,2 -260,2 1,-60 3,-176 3,-225 0,-3 -2,-5 -3,-5 -5,0 -113,37 -173,70 -4,45 -7,102 -9,149 0,6 -6,11 -11,11 -34,2 -72,5 -107,7 -3,33 -3,71 -3,106 38,0 83,0 115,0 0,30 -2,159 -2,204 0,34 -2,144 -2,233 0,50 2,88 52,130 43,40 88,46 126,46zm362 -339c0,213 140,339 358,339 75,0 195,-28 290,-73 -5,-32 -15,-70 -25,-102 -55,22 -152,50 -225,50 -58,0 -108,-6 -153,-55 -32,-34 -50,-88 -50,-164 123,0 323,0 396,-5 17,-2 67,-55 72,-77 0,-88 -22,-172 -73,-233 -44,-54 -114,-87 -209,-87 -230,0 -381,182 -381,407zm356 -304c44,0 74,20 95,50 19,29 34,79 34,125 0,12 -7,19 -19,19 -76,3 -188,5 -268,5 2,-77 32,-122 53,-150 27,-34 60,-49 105,-49zm608 436c-138,85 -143,90 -143,107 0,79 55,109 110,128l0 10c-40,30 -80,55 -148,103 -27,21 -35,38 -35,65 0,124 128,194 343,194 96,0 191,-17 266,-45 125,-50 194,-138 194,-236 0,-75 -24,-105 -77,-141 -53,-37 -118,-44 -265,-50 -151,-5 -195,-8 -195,-50 0,-18 29,-47 62,-73 155,6 245,-39 300,-95 51,-55 75,-130 75,-188 0,-55 -19,-108 -49,-141l2 -5c35,0 113,0 148,-2 2,-37 2,-78 -1,-113 -49,5 -157,10 -232,13 -10,0 -20,-2 -37,-5 -18,-6 -73,-15 -133,-15 -205,0 -350,132 -350,290 0,128 92,203 165,238l0 11zm27 -261c0,-120 57,-186 142,-186 44,0 76,15 96,43 23,32 33,70 33,130 0,130 -58,195 -136,195 -73,0 -135,-43 -135,-182zm375 625c0,49 -27,85 -72,112 -45,25 -112,35 -170,35 -88,0 -183,-32 -183,-105 0,-50 38,-87 93,-140 35,2 92,7 173,12 125,10 159,23 159,86zm364 -759c0,147 0,325 0,477 0,3 -3,7 -6,7l-88 5c-2,30 -2,66 -2,98 60,0 135,-2 198,-2 77,0 165,0 230,0 2,-31 2,-66 2,-98l-149 -5c0,-42 0,-97 2,-142 0,-52 7,-109 27,-147 38,-74 68,-115 100,-140 20,-17 35,-20 51,-20 35,0 80,11 95,15 23,-20 60,-119 60,-172 -28,-13 -70,-21 -108,-21 -77,0 -127,35 -225,227l-10 -2c-3,-82 -7,-164 -10,-219 0,-3 -2,-5 -3,-5 -9,0 -202,34 -273,44 -2,31 -2,65 -2,96l111 4zm996 527c24,34 42,60 59,75 100,0 203,-18 228,-26 2,-32 0,-69 0,-99l-102 4c-8,1 -11,-5 -11,-20 0,-70 3,-252 3,-343 0,-167 -112,-262 -238,-262 -143,0 -250,72 -342,153 22,30 47,62 70,87 62,-55 140,-103 205,-103 90,0 128,61 123,198 -16,0 -51,0 -101,0 -240,0 -345,142 -345,235 0,100 115,176 200,176 60,0 130,-16 243,-75l8 0zm-261 -121c0,-65 55,-122 187,-122 33,0 60,2 68,2 0,45 0,97 0,131 0,5 0,9 -4,12 -48,33 -108,55 -154,55 -52,0 -97,-32 -97,-78zm710 -841c0,274 0,634 0,911 0,3 -4,6 -7,6l-102 5c0,32 -1,69 -1,100 61,0 136,-1 201,-1 72,0 150,0 210,0 0,-32 0,-67 0,-100l-115 -4c2,-323 5,-765 7,-1056 0,-5 -2,-6 -5,-6 -15,0 -230,33 -310,42 -2,31 -3,66 -3,100l125 3z"/>
   <polygon class="fil2 str0" points="3658,17450 3658,17450 15412,17450 "/>
  </g>
  <g>
   <path id="_01iconotierra" class="fil1" d="M12009 11112c0,-694 -323,-1313 -826,-1714l0 -257c257,-52 453,-329 453,-663 0,-371 -243,-673 -541,-673 -183,0 -344,114 -442,287 2,-25 3,-49 3,-74 0,-371 -242,-673 -541,-673 -298,0 -541,302 -541,673 0,333 197,610 454,663l0 248c-70,-6 -141,-10 -212,-10 -1212,0 -2194,982 -2194,2193l4387 0zm-3392 -1622c240,-177 519,-303 822,-360 6,2 13,4 19,5 27,4 324,56 644,262 -353,21 -653,277 -819,485 -236,-226 -506,-340 -666,-392zm1762 126c276,270 513,685 538,1321l-1170 0c-22,-407 -161,-706 -341,-924 120,-152 512,-582 973,-397zm1447 1321l-734 0c-25,-691 -289,-1146 -596,-1442 -8,-15 -20,-27 -36,-35 -189,-172 -390,-288 -561,-364 1016,42 1840,837 1927,1841zm-731 -2956c202,0 366,223 366,497 0,233 -119,428 -278,482l0 -482c0,-49 -39,-88 -88,-88 -48,0 -87,39 -87,88l0 482c-160,-54 -278,-249 -278,-482 0,-274 163,-497 365,-497zm-1345 37c0,-275 164,-498 365,-498 202,0 366,223 366,498 0,233 -119,428 -278,482l0 -482c0,-49 -39,-88 -88,-88 -48,0 -87,39 -87,88l0 482c-160,-54 -278,-249 -278,-482zm453 921l0 -258c146,-30 273,-133 354,-277 -2,24 -3,49 -3,74 0,334 197,610 454,663l0 130c-241,-156 -513,-266 -806,-318 1,-4 1,-9 1,-14zm-1751 686c55,11 458,100 766,432 6,12 15,23 27,31 170,195 305,468 326,849l-1766 0c45,-518 286,-979 647,-1312z"/>
  </g>
  <polygon id="_03textohaciauncampo" class="fil4" points="3872,19335 3872,18528 3968,18528 3968,18838 4397,18838 4397,18528 4494,18528 4494,19335 4397,19335 4397,18930 3968,18930 3968,19335 "/>
  <path id="1" class="fil4" d="M5064 19088c0,-57 -15,-103 -47,-138 -31,-35 -71,-52 -121,-52 -52,0 -92,16 -121,48 -29,32 -44,77 -44,134 0,61 15,108 44,141 29,33 71,50 124,50 52,0 92,-16 121,-49 29,-32 44,-77 44,-134zm84 -258l0 505 -84 0 0 -92c-20,37 -46,65 -77,84 -32,20 -67,29 -106,29 -72,0 -131,-24 -175,-74 -44,-50 -66,-116 -66,-198 0,-83 21,-149 64,-198 43,-49 101,-74 173,-74 42,0 79,10 110,29 31,19 56,47 75,85l0 -96 86 0z"/>
  <path id="2" class="fil4" d="M5707 19215l0 101c-22,13 -48,23 -77,30 -28,7 -59,10 -92,10 -78,0 -140,-24 -188,-74 -48,-49 -72,-114 -72,-195 0,-81 25,-147 74,-198 50,-51 113,-77 189,-77 28,0 56,3 82,9 27,6 52,15 76,26l0 93c-22,-14 -45,-25 -69,-33 -23,-7 -47,-11 -71,-11 -57,0 -103,17 -137,53 -34,35 -51,83 -51,141 0,52 17,96 52,131 34,34 77,52 129,52 26,0 52,-5 77,-14 25,-9 51,-24 78,-44z"/>
  <path id="3" class="fil4" d="M5811 18587c0,-17 7,-32 19,-44 12,-12 27,-19 45,-19 17,0 32,7 44,19 13,13 19,28 19,45 0,18 -6,33 -18,45 -12,12 -27,18 -45,18 -18,0 -33,-6 -45,-18 -12,-12 -19,-28 -19,-46zm21 748l0 -505 87 0 0 505 -87 0z"/>
  <path id="4" class="fil4" d="M6487 19088c0,-57 -16,-103 -47,-138 -31,-35 -71,-52 -121,-52 -52,0 -93,16 -122,48 -29,32 -43,77 -43,134 0,61 14,108 44,141 29,33 70,50 124,50 51,0 92,-16 121,-49 29,-32 44,-77 44,-134zm83 -258l0 505 -83 0 0 -92c-20,37 -46,65 -78,84 -31,20 -66,29 -105,29 -73,0 -131,-24 -175,-74 -45,-50 -67,-116 -67,-198 0,-83 22,-149 65,-198 43,-49 100,-74 172,-74 42,0 79,10 110,29 31,19 56,47 75,85l0 -96 86 0z"/>
  <path id="5" class="fil4" d="M7157 18830l0 249c0,72 11,123 32,152 22,28 58,43 109,43 51,0 87,-14 109,-43 21,-28 31,-79 31,-152l0 -249 88 0 0 295c0,76 -19,134 -58,173 -39,39 -96,58 -172,58 -75,0 -132,-19 -171,-59 -39,-39 -58,-96 -58,-172l0 -295 90 0z"/>
  <path id="6" class="fil4" d="M7693 19335l0 -505 85 0 0 78c21,-32 48,-56 78,-72 31,-16 66,-24 106,-24 59,0 106,16 139,48 34,31 50,75 50,132l0 343 -88 0 0 -297c0,-51 -10,-89 -32,-114 -21,-25 -55,-37 -99,-37 -26,0 -50,4 -71,14 -21,9 -38,22 -52,40 -11,13 -19,28 -23,45 -5,17 -7,46 -7,88l0 261 -86 0z"/>
  <path id="7" class="fil4" d="M8655 19335l0 -505 85 0 0 78c21,-32 48,-56 78,-72 31,-16 66,-24 106,-24 59,0 106,16 139,48 34,31 50,75 50,132l0 343 -88 0 0 -297c0,-51 -10,-89 -32,-114 -21,-25 -55,-37 -99,-37 -26,0 -50,4 -71,14 -21,9 -38,22 -52,40 -11,13 -19,28 -23,45 -5,17 -7,46 -7,88l0 261 -86 0z"/>
  <path id="8" class="fil4" d="M9365 18830l0 249c0,72 11,123 33,152 21,28 57,43 109,43 50,0 87,-14 108,-43 21,-28 31,-79 31,-152l0 -249 89 0 0 295c0,76 -20,134 -59,173 -39,39 -96,58 -172,58 -75,0 -132,-19 -171,-59 -39,-39 -58,-96 -58,-172l0 -295 90 0z"/>
  <path id="9" class="fil4" d="M10259 19026c-3,-45 -17,-79 -44,-103 -27,-24 -63,-36 -109,-36 -42,0 -77,12 -105,38 -28,25 -44,58 -49,101l307 0zm93 70l-400 0 0 7c0,54 16,98 47,131 30,34 71,50 120,50 34,0 65,-9 92,-27 27,-18 51,-46 72,-82l65 44c-25,45 -57,80 -96,103 -40,23 -85,34 -137,34 -77,0 -139,-25 -186,-76 -48,-50 -72,-117 -72,-199 0,-79 24,-144 71,-194 47,-51 107,-76 181,-76 75,0 134,24 178,72 43,48 65,113 65,195l0 18z"/>
  <polygon id="10" class="fil4" points="10648,19367 10398,18830 10495,18830 10647,19183 10799,18830 10896,18830 "/>
  <path id="11" class="fil4" d="M11040 19084c0,54 18,99 53,136 36,37 79,55 130,55 50,0 93,-18 128,-55 36,-37 53,-82 53,-136 0,-53 -17,-98 -53,-135 -35,-37 -78,-55 -128,-55 -51,0 -94,18 -130,55 -36,37 -53,82 -53,135zm-92 0c0,-37 7,-72 21,-105 13,-33 33,-62 59,-88 26,-26 56,-45 89,-59 33,-13 68,-20 106,-20 37,0 71,7 104,21 33,13 63,33 90,59 26,26 46,55 60,88 13,32 20,67 20,104 0,37 -7,71 -20,104 -14,33 -34,61 -60,87 -27,26 -57,46 -90,60 -33,14 -68,21 -104,21 -37,0 -72,-7 -106,-20 -33,-14 -63,-34 -89,-60 -26,-26 -46,-55 -59,-88 -14,-32 -21,-67 -21,-104z"/>
  <path id="12" class="fil4" d="M12351 19215l0 101c-22,13 -48,23 -77,30 -28,7 -59,10 -92,10 -78,0 -141,-24 -188,-74 -48,-49 -72,-114 -72,-195 0,-81 25,-147 74,-198 50,-51 113,-77 189,-77 28,0 55,3 82,9 27,6 52,15 75,26l0 93c-22,-14 -44,-25 -68,-33 -23,-7 -47,-11 -72,-11 -56,0 -102,17 -136,53 -34,35 -51,83 -51,141 0,52 17,96 51,131 35,34 78,52 130,52 26,0 51,-5 76,-14 25,-9 52,-24 79,-44z"/>
  <path id="13" class="fil4" d="M12857 19088c0,-57 -15,-103 -46,-138 -31,-35 -72,-52 -122,-52 -52,0 -92,16 -121,48 -29,32 -44,77 -44,134 0,61 15,108 44,141 29,33 71,50 124,50 52,0 92,-16 121,-49 30,-32 44,-77 44,-134zm84 -258l0 505 -84 0 0 -92c-20,37 -46,65 -77,84 -32,20 -67,29 -106,29 -72,0 -131,-24 -175,-74 -44,-50 -66,-116 -66,-198 0,-83 21,-149 64,-198 43,-49 101,-74 173,-74 42,0 79,10 110,29 31,19 56,47 75,85l0 -96 86 0z"/>
  <path id="14" class="fil4" d="M13815 19335l0 -297c0,-51 -10,-89 -30,-114 -21,-25 -52,-37 -95,-37 -23,0 -45,4 -64,14 -20,9 -36,22 -50,40 -10,13 -17,28 -21,46 -5,18 -7,47 -7,87l0 261 -84 0 0 -297c0,-51 -10,-89 -30,-114 -21,-25 -53,-37 -95,-37 -23,0 -45,4 -65,14 -20,9 -37,22 -50,40 -10,13 -17,28 -21,44 -4,17 -6,47 -6,89l0 261 -84 0 0 -505 85 0 0 78c21,-32 46,-56 75,-72 29,-16 62,-24 100,-24 41,0 76,9 104,26 29,18 51,43 65,77 22,-35 48,-60 77,-77 30,-17 64,-26 103,-26 56,0 100,16 132,48 31,31 47,75 47,132l0 343 -86 0z"/>
  <path id="15" class="fil4" d="M14154 19084c0,57 16,102 47,137 31,34 73,51 124,51 51,0 90,-16 119,-47 29,-31 43,-75 43,-130 0,-62 -14,-111 -43,-146 -29,-36 -69,-53 -120,-53 -53,0 -94,17 -125,50 -30,33 -45,79 -45,138zm-83 497l0 -751 82 0 0 96c20,-37 46,-65 77,-84 32,-20 68,-30 107,-30 73,0 132,25 176,75 44,49 66,115 66,197 0,83 -22,150 -65,199 -43,49 -101,73 -173,73 -42,0 -78,-9 -109,-28 -31,-19 -56,-47 -75,-84l0 337 -86 0z"/>
  <path id="16" class="fil4" d="M14767 19084c0,54 18,99 54,136 35,37 79,55 129,55 51,0 94,-18 129,-55 35,-37 53,-82 53,-136 0,-53 -18,-98 -53,-135 -35,-37 -78,-55 -129,-55 -51,0 -94,18 -130,55 -35,37 -53,82 -53,135zm-91 0c0,-37 6,-72 20,-105 14,-33 34,-62 60,-88 26,-26 55,-45 88,-59 34,-13 69,-20 106,-20 37,0 72,7 105,21 33,13 62,33 89,59 27,26 46,55 60,88 14,32 20,67 20,104 0,37 -6,71 -20,104 -14,33 -33,61 -60,87 -27,26 -56,46 -90,60 -33,14 -68,21 -104,21 -37,0 -72,-7 -105,-20 -34,-14 -63,-34 -89,-60 -26,-26 -46,-55 -60,-88 -14,-32 -20,-67 -20,-104z"/>
  <path id="17" class="fil4" d="M7071 20568l0 101c-23,13 -49,24 -77,30 -29,7 -60,11 -93,11 -78,0 -140,-25 -188,-75 -47,-49 -71,-114 -71,-195 0,-80 24,-146 74,-198 49,-51 112,-77 189,-77 28,0 55,3 82,9 26,6 51,15 75,26l0 93c-22,-14 -45,-25 -68,-33 -24,-7 -48,-11 -72,-11 -57,0 -102,18 -136,53 -35,36 -52,83 -52,141 0,52 17,96 52,131 34,34 77,52 129,52 26,0 52,-5 77,-14 25,-9 51,-24 79,-44z"/>
  <path id="18" class="fil4" d="M7241 20437c0,54 18,99 54,136 35,37 79,55 129,55 51,0 94,-18 129,-55 35,-37 53,-82 53,-136 0,-53 -18,-98 -53,-135 -35,-37 -78,-55 -129,-55 -51,0 -94,18 -129,55 -36,37 -54,82 -54,135zm-91 0c0,-37 7,-72 20,-105 14,-33 34,-62 60,-88 26,-26 56,-45 89,-58 33,-14 68,-21 106,-21 36,0 71,7 104,21 33,13 63,33 90,59 26,26 45,55 59,88 14,33 20,67 20,104 0,37 -6,72 -20,104 -14,33 -33,62 -59,87 -27,26 -57,47 -91,61 -33,14 -68,21 -103,21 -38,0 -73,-7 -106,-21 -33,-14 -63,-34 -89,-59 -26,-27 -46,-56 -60,-89 -13,-32 -20,-67 -20,-104z"/>
  <polygon id="19" class="fil4" points="7837,20688 7837,19834 7925,19834 7925,20688 "/>
  <path id="20" class="fil4" d="M8157 20437c0,54 18,99 53,136 36,37 79,55 130,55 50,0 93,-18 129,-55 35,-37 52,-82 52,-136 0,-53 -17,-98 -52,-135 -36,-37 -79,-55 -129,-55 -51,0 -94,18 -130,55 -35,37 -53,82 -53,135zm-92 0c0,-37 7,-72 21,-105 13,-33 33,-62 59,-88 27,-26 56,-45 89,-58 33,-14 68,-21 106,-21 37,0 72,7 105,21 32,13 62,33 89,59 26,26 46,55 60,88 13,33 20,67 20,104 0,37 -7,72 -20,104 -14,33 -34,62 -60,87 -27,26 -57,47 -90,61 -33,14 -68,21 -104,21 -37,0 -72,-7 -106,-21 -33,-14 -62,-34 -89,-59 -26,-27 -46,-56 -59,-89 -14,-32 -21,-67 -21,-104z"/>
  <path id="21" class="fil4" d="M9450 20688l0 -297c0,-51 -10,-89 -31,-114 -20,-25 -52,-37 -94,-37 -23,0 -45,5 -64,14 -20,9 -37,23 -50,40 -10,13 -17,29 -22,46 -4,18 -6,47 -6,87l0 261 -84 0 0 -297c0,-51 -10,-89 -31,-114 -20,-25 -52,-37 -94,-37 -23,0 -45,5 -65,14 -20,9 -37,23 -50,40 -10,13 -17,28 -21,44 -4,17 -6,47 -6,89l0 261 -84 0 0 -505 85 0 0 78c21,-32 46,-56 75,-72 29,-16 62,-24 100,-24 41,0 76,9 104,27 29,17 50,43 65,76 22,-34 48,-60 77,-77 30,-17 64,-26 103,-26 56,0 100,16 132,48 31,31 47,75 47,132l0 343 -86 0z"/>
  <path id="22" class="fil4" d="M9788 20439c0,58 15,104 45,137 31,33 72,50 124,50 52,0 92,-18 121,-53 30,-35 44,-83 44,-146 0,-55 -14,-98 -43,-129 -28,-31 -68,-47 -119,-47 -51,0 -93,17 -125,52 -31,34 -47,79 -47,136zm-82 -605l85 0 0 445c20,-38 45,-66 76,-85 31,-19 67,-29 108,-29 73,0 131,25 174,74 43,49 65,115 65,198 0,82 -22,148 -67,198 -44,50 -102,75 -175,75 -39,0 -74,-10 -106,-30 -32,-20 -58,-47 -78,-83l0 91 -82 0 0 -854z"/>
  <path id="23" class="fil4" d="M10335 19940c0,-17 7,-32 19,-44 12,-12 27,-18 45,-18 17,0 32,6 44,18 13,13 19,28 19,46 0,17 -6,32 -18,44 -12,12 -28,18 -45,18 -18,0 -33,-6 -45,-18 -12,-12 -19,-28 -19,-46zm21 748l0 -505 87 0 0 505 -87 0z"/>
  <path id="24" class="fil4" d="M11011 20441c0,-57 -16,-103 -47,-138 -31,-34 -71,-52 -122,-52 -51,0 -92,16 -121,48 -29,32 -43,77 -43,134 0,61 14,108 43,141 30,33 71,50 125,50 51,0 92,-16 121,-48 29,-33 44,-78 44,-135zm83 -258l0 505 -83 0 0 -91c-20,36 -46,64 -78,84 -31,19 -66,29 -105,29 -73,0 -131,-25 -175,-75 -45,-50 -67,-116 -67,-198 0,-83 22,-149 65,-198 43,-49 100,-74 172,-74 42,0 79,10 110,29 31,19 56,47 75,85l0 -96 86 0z"/>
  <path id="25" class="fil4" d="M11267 20688l0 -505 84 0 0 78c22,-32 48,-56 79,-72 30,-16 66,-24 105,-24 60,0 107,16 140,48 33,31 50,75 50,132l0 343 -88 0 0 -297c0,-51 -11,-89 -32,-114 -22,-25 -55,-37 -100,-37 -25,0 -49,5 -70,14 -21,9 -39,23 -53,40 -10,13 -18,28 -23,45 -4,17 -6,46 -6,88l0 261 -86 0z"/>
  <path id="26" class="fil4" d="M11947 20437c0,54 17,99 53,136 36,37 79,55 130,55 50,0 93,-18 128,-55 35,-37 53,-82 53,-136 0,-53 -18,-98 -53,-135 -35,-37 -78,-55 -128,-55 -51,0 -95,18 -130,55 -36,37 -53,82 -53,135zm-92 0c0,-37 7,-72 20,-105 14,-33 34,-62 60,-88 26,-26 56,-45 89,-58 33,-14 68,-21 106,-21 36,0 71,7 104,21 33,13 63,33 90,59 26,26 46,55 59,88 14,33 21,67 21,104 0,37 -7,72 -21,104 -13,33 -33,62 -59,87 -27,26 -57,47 -90,61 -34,14 -68,21 -104,21 -37,0 -73,-7 -106,-21 -33,-14 -63,-34 -89,-59 -26,-27 -46,-56 -60,-89 -13,-32 -20,-67 -20,-104z"/>
  <path id="27" class="fil4" d="M2829 22041l0 -807 189 0c54,0 94,3 119,9 25,6 47,17 67,31 23,19 42,44 55,76 13,31 20,66 20,104 0,66 -18,116 -55,151 -37,34 -91,51 -163,51l-17 0 308 385 -122 0 -294 -385 -14 0 0 385 -93 0zm93 -726l0 270 73 0c76,0 126,-9 151,-29 26,-19 38,-53 38,-101 0,-52 -13,-88 -39,-109 -26,-20 -76,-31 -150,-31l-73 0z"/>
  <path id="28" class="fil4" d="M3782 21732c-3,-44 -18,-79 -45,-103 -26,-24 -63,-36 -109,-36 -42,0 -77,13 -105,38 -28,25 -44,59 -49,101l308 0zm92 70l-400 0 0 8c0,54 16,97 47,131 31,33 71,49 121,49 33,0 64,-9 91,-27 27,-18 51,-45 72,-82l66 44c-25,45 -58,80 -97,103 -39,23 -85,35 -137,35 -77,0 -139,-26 -186,-76 -48,-51 -71,-118 -71,-200 0,-79 23,-144 70,-194 47,-50 108,-76 182,-76 74,0 133,24 177,72 43,48 65,113 65,196l0 17z"/>
  <path id="29" class="fil4" d="M4027 22041l0 -433 -97 0 0 -71 97 0 0 -146c0,-84 10,-141 32,-170 21,-30 59,-44 113,-44 14,0 27,0 39,2 13,2 24,5 36,9l0 89c-11,-6 -22,-11 -33,-14 -12,-3 -23,-4 -35,-4 -25,0 -43,8 -52,24 -10,16 -14,56 -14,119l0 135 134 0 0 71 -132 0 0 433 -88 0z"/>
  <path id="30" class="fil4" d="M4381 21791c0,53 18,98 54,135 35,37 79,55 129,55 51,0 94,-18 129,-55 35,-37 53,-82 53,-135 0,-54 -18,-99 -53,-136 -35,-37 -78,-55 -129,-55 -51,0 -94,18 -130,55 -35,37 -53,82 -53,136zm-91 -1c0,-37 7,-72 20,-105 14,-32 34,-62 60,-88 26,-25 55,-45 89,-58 33,-14 68,-20 105,-20 37,0 72,6 105,20 33,14 63,33 89,60 27,25 46,54 60,87 14,33 20,68 20,104 0,37 -6,72 -20,104 -14,33 -33,62 -60,87 -26,27 -56,47 -90,61 -33,14 -68,21 -104,21 -37,0 -72,-7 -105,-21 -34,-14 -63,-34 -89,-59 -26,-27 -46,-56 -60,-89 -13,-32 -20,-67 -20,-104z"/>
  <path id="31" class="fil4" d="M4974 22041l0 -504 77 0 0 105c23,-44 47,-75 74,-94 26,-19 58,-28 95,-28 10,0 20,0 30,2 9,2 19,4 28,7l-28 79c-10,-4 -20,-6 -28,-8 -9,-1 -18,-2 -26,-2 -45,0 -80,16 -102,49 -23,33 -35,82 -35,149l0 245 -85 0z"/>
  <path id="32" class="fil4" d="M6071 22041l0 -297c0,-51 -10,-89 -31,-114 -20,-25 -52,-37 -95,-37 -23,0 -44,5 -64,14 -19,10 -36,23 -50,40 -9,13 -17,29 -21,46 -4,18 -7,47 -7,87l0 261 -83 0 0 -297c0,-51 -10,-89 -31,-114 -21,-25 -52,-37 -95,-37 -23,0 -44,5 -64,14 -20,10 -37,23 -51,40 -9,13 -16,28 -20,45 -5,17 -7,46 -7,88l0 261 -83 0 0 -504 84 0 0 78c21,-33 46,-57 75,-73 29,-16 63,-23 101,-23 40,0 75,8 104,26 28,17 50,43 65,76 22,-34 47,-60 77,-77 29,-17 64,-25 103,-25 56,0 100,15 131,47 32,32 48,76 48,132l0 343 -86 0z"/>
  <path id="33" class="fil4" d="M6712 21794c0,-57 -15,-103 -46,-138 -31,-34 -72,-52 -122,-52 -52,0 -92,16 -121,48 -29,32 -44,77 -44,134 0,61 15,108 44,141 29,33 71,50 125,50 51,0 91,-16 121,-48 29,-32 43,-77 43,-135zm84 -257l0 504 -84 0 0 -91c-20,36 -46,65 -77,84 -32,19 -67,29 -106,29 -72,0 -130,-25 -175,-75 -44,-50 -66,-116 -66,-198 0,-83 21,-149 64,-198 43,-49 101,-73 173,-73 42,0 79,9 110,28 31,19 56,47 75,85l0 -95 86 0z"/>
  <path id="34" class="fil4" d="M7310 22041l0 -807 190 0c54,0 94,3 119,9 25,6 47,17 66,31 24,19 43,44 56,76 13,31 20,66 20,104 0,66 -19,116 -55,151 -37,34 -91,51 -163,51l-17 0 308 385 -122 0 -294 -385 -14 0 0 385 -94 0zm94 -726l0 270 73 0c75,0 126,-9 151,-29 25,-19 38,-53 38,-101 0,-52 -13,-88 -39,-109 -26,-20 -76,-31 -150,-31l-73 0z"/>
  <path id="35" class="fil4" d="M7987 21537l0 248c0,72 11,123 32,152 22,29 58,43 109,43 51,0 87,-14 108,-42 21,-29 32,-80 32,-153l0 -248 88 0 0 294c0,76 -19,134 -58,173 -39,39 -97,59 -172,59 -75,0 -132,-20 -171,-59 -39,-40 -58,-97 -58,-173l0 -294 90 0z"/>
  <path id="36" class="fil4" d="M8524 22041l0 -504 77 0 0 105c23,-44 48,-75 74,-94 26,-19 58,-28 95,-28 11,0 21,0 30,2 10,2 19,4 29,7l-29 79c-10,-4 -19,-6 -28,-8 -9,-1 -17,-2 -25,-2 -46,0 -80,16 -103,49 -23,33 -34,82 -34,149l0 245 -86 0z"/>
  <path id="37" class="fil4" d="M9305 21794c0,-57 -15,-103 -46,-138 -32,-34 -72,-52 -122,-52 -52,0 -92,16 -121,48 -29,32 -44,77 -44,134 0,61 15,108 44,141 29,33 71,50 124,50 52,0 92,-16 121,-48 30,-32 44,-77 44,-135zm84 -257l0 504 -84 0 0 -91c-20,36 -46,65 -77,84 -32,19 -67,29 -106,29 -72,0 -131,-25 -175,-75 -44,-50 -66,-116 -66,-198 0,-83 21,-149 64,-198 43,-49 101,-73 173,-73 42,0 79,9 110,28 31,19 56,47 75,85l0 -95 86 0z"/>
  <polygon id="38" class="fil4" points="9566,22041 9566,21187 9654,21187 9654,22041 "/>
  <polygon id="39" class="fil4" points="10178,22041 10178,21234 10274,21234 10274,22041 "/>
  <path id="40" class="fil4" d="M10460 22041l0 -504 85 0 0 78c21,-33 47,-57 78,-73 30,-16 66,-23 106,-23 59,0 106,15 139,47 33,32 50,76 50,132l0 343 -88 0 0 -297c0,-51 -11,-89 -32,-114 -22,-25 -55,-37 -100,-37 -25,0 -49,5 -70,14 -21,10 -39,23 -53,40 -10,13 -18,28 -22,45 -5,17 -7,47 -7,88l0 261 -86 0z"/>
  <polygon id="41" class="fil4" points="11102,21608 11010,21608 11010,21537 11102,21537 11102,21333 11190,21333 11190,21537 11283,21537 11283,21608 11190,21608 11190,22041 11102,22041 "/>
  <path id="42" class="fil4" d="M11739 21732c-3,-44 -18,-79 -45,-103 -26,-24 -63,-36 -109,-36 -42,0 -77,13 -105,38 -28,25 -44,59 -48,101l307 0zm92 70l-399 0 0 8c0,54 15,97 46,131 31,33 71,49 121,49 34,0 64,-9 91,-27 28,-18 52,-45 73,-82l65 44c-25,45 -58,80 -97,103 -39,23 -85,35 -137,35 -76,0 -138,-26 -186,-76 -47,-51 -71,-118 -71,-200 0,-79 24,-144 71,-194 47,-50 107,-76 181,-76 74,0 134,24 177,72 44,48 65,113 65,196l0 17z"/>
  <path id="43" class="fil4" d="M12348 21791c0,-57 -16,-103 -47,-137 -31,-35 -71,-52 -122,-52 -51,0 -92,16 -121,48 -29,32 -43,77 -43,134 0,61 14,108 43,141 30,33 71,50 125,50 51,0 92,-17 121,-49 29,-33 44,-78 44,-135zm83 -254l0 495c0,55 -4,94 -11,117 -7,24 -19,44 -36,63 -24,25 -53,44 -87,57 -34,12 -73,18 -117,18 -76,0 -136,-17 -179,-52 -43,-35 -65,-85 -67,-149l97 0 0 7c0,38 13,67 40,88 26,20 63,31 110,31 35,0 65,-6 89,-17 24,-11 43,-28 56,-50 8,-13 13,-27 16,-44 4,-16 6,-40 6,-71l0 -40 0 -45c-20,36 -46,64 -77,83 -32,19 -67,29 -107,29 -72,0 -130,-25 -174,-74 -45,-49 -67,-114 -67,-196 0,-82 22,-148 65,-196 43,-48 100,-72 172,-72 42,0 79,9 110,28 32,19 57,47 75,84l0 -94 86 0z"/>
  <path id="44" class="fil4" d="M12607 22041l0 -504 77 0 0 105c23,-44 48,-75 74,-94 26,-19 58,-28 95,-28 11,0 21,0 30,2 10,2 19,4 29,7l-29 79c-10,-4 -19,-6 -28,-8 -9,-1 -17,-2 -25,-2 -46,0 -80,16 -103,49 -23,33 -34,82 -34,149l0 245 -86 0z"/>
  <path id="45" class="fil4" d="M13388 21794c0,-57 -15,-103 -46,-138 -32,-34 -72,-52 -122,-52 -52,0 -92,16 -121,48 -29,32 -44,77 -44,134 0,61 15,108 44,141 29,33 71,50 124,50 52,0 92,-16 121,-48 30,-32 44,-77 44,-135zm84 -257l0 504 -84 0 0 -91c-20,36 -46,65 -77,84 -32,19 -67,29 -106,29 -72,0 -131,-25 -175,-75 -44,-50 -66,-116 -66,-198 0,-83 21,-149 64,-198 43,-49 101,-73 173,-73 42,0 79,9 110,28 31,19 56,47 75,85l0 -95 86 0z"/>
  <polygon id="46" class="fil4" points="13649,22041 13649,21187 13737,21187 13737,22041 "/>
  <path id="47" class="fil4" d="M14444 22258l-57 30c-44,-81 -77,-167 -100,-258 -22,-91 -33,-187 -33,-287 0,-107 11,-205 33,-295 22,-90 55,-174 100,-252l57 27c-38,78 -67,159 -85,244 -18,85 -27,177 -27,276 0,102 9,196 27,280 19,84 47,162 85,235z"/>
  <path id="48" class="fil4" d="M14585 22041l0 -807 190 0c54,0 93,3 118,9 26,6 48,17 67,31 24,19 42,44 55,76 14,31 20,66 20,104 0,66 -18,116 -55,151 -37,34 -91,51 -162,51l-17 0 308 385 -122 0 -295 -385 -13 0 0 385 -94 0zm94 -726l0 270 73 0c75,0 125,-9 151,-29 25,-19 38,-53 38,-101 0,-52 -13,-88 -40,-109 -26,-20 -76,-31 -149,-31l-73 0z"/>
  <path id="49" class="fil4" d="M15189 22041l0 -807 190 0c54,0 94,3 119,9 25,6 47,17 66,31 24,19 42,44 56,76 13,31 20,66 20,104 0,66 -19,116 -56,151 -37,34 -91,51 -162,51l-17 0 308 385 -122 0 -295 -385 -13 0 0 385 -94 0zm94 -726l0 270 73 0c75,0 125,-9 151,-29 25,-19 38,-53 38,-101 0,-52 -13,-88 -39,-109 -27,-20 -76,-31 -150,-31l-73 0z"/>
  <polygon id="50" class="fil4" points="15794,22041 15794,21234 15890,21234 15890,22041 "/>
  <path id="51" class="fil4" d="M16032 22258c38,-73 66,-151 85,-235 18,-84 27,-178 27,-280 0,-99 -9,-191 -27,-276 -18,-85 -46,-166 -85,-244l56 -27c46,78 79,162 101,252 22,90 33,188 33,295 0,100 -11,196 -33,287 -23,91 -56,177 -101,258l-56 -30z"/>
 </g>
</svg>
