<?xml version="1.0" encoding="UTF-8"?>
<!DOCTYPE svg PUBLIC "-//W3C//DTD SVG 1.1//EN" "http://www.w3.org/Graphics/SVG/1.1/DTD/svg11.dtd">
<!-- Creator: CorelDRAW X7 -->
<svg xmlns="http://www.w3.org/2000/svg" xml:space="preserve" width="190.5mm" height="338.667mm" version="1.1" style="shape-rendering:geometricPrecision; text-rendering:geometricPrecision; image-rendering:optimizeQuality; fill-rule:evenodd; clip-rule:evenodd"
viewBox="0 0 19050 33867"
 xmlns:xlink="http://www.w3.org/1999/xlink">
 <defs>
  <style type="text/css">
   <![CDATA[
    .fil3 {fill:#2B2A29;fill-rule:nonzero}
    .fil8 {fill:#006A5E;fill-rule:nonzero}
    .fil6 {fill:#4E3E37;fill-rule:nonzero}
    .fil5 {fill:#541124;fill-rule:nonzero}
    .fil0 {fill:#61C5C3;fill-rule:nonzero}
    .fil10 {fill:#BEC2AF;fill-rule:nonzero}
    .fil4 {fill:#C7DD9F;fill-rule:nonzero}
    .fil11 {fill:#D3642B;fill-rule:nonzero}
    .fil13 {fill:#DEA518;fill-rule:nonzero}
    .fil9 {fill:#E2E7C6;fill-rule:nonzero}
    .fil1 {fill:#FCEA6B;fill-rule:nonzero}
    .fil7 {fill:#FFF9D9;fill-rule:nonzero}
    .fil12 {fill:#FFFBDA;fill-rule:nonzero}
    .fil2 {fill:white;fill-rule:nonzero}
   ]]>
  </style>
 </defs>
 <g id="Capa_x0020_1">
  <metadata id="CorelCorpID_0Corel-Layer"/>
  <polygon class="fil0" points="0,33867 19050,33867 19050,0 0,0 "/>
  <g id="globo">
   <path class="fil1" d="M2210 9822c0,-4709 3818,-8527 8527,-8527 4054,0 7447,2829 8313,6620l0 3815c-866,3791 -4259,6620 -8313,6620 -4709,0 -8527,-3818 -8527,-8528z"/>
   <path class="fil2" d="M19050 12957c-1352,2952 -4332,5003 -7791,5003 -4731,0 -8566,-3835 -8566,-8566 0,-4731 3835,-8566 8566,-8566 3459,0 6439,2051 7791,5003l0 7126z"/>
   <path class="fil2" d="M8301 16691c0,0 125,1622 -800,2244 -108,73 -162,128 -172,165l483 0c729,-195 2073,-845 2533,-1876l-2044 -533z"/>
  </g>
  <polygon class="fil3" points="5280,6237 5280,5556 5360,5556 5360,6160 5618,6160 5618,6237 "/>
  <path id="1" class="fil3" d="M5732 6026c0,45 15,83 45,114 31,31 67,47 110,47 42,0 79,-16 108,-47 30,-31 45,-69 45,-114 0,-45 -15,-83 -45,-114 -29,-32 -66,-47 -108,-47 -43,0 -80,15 -110,47 -30,31 -45,69 -45,114zm-77 -1c0,-31 6,-60 17,-88 12,-28 29,-53 51,-74 22,-22 47,-39 75,-50 28,-11 57,-17 89,-17 31,0 60,6 88,17 28,12 53,29 76,51 22,21 38,46 50,73 11,28 17,57 17,88 0,32 -6,61 -17,88 -12,28 -28,52 -50,73 -23,23 -48,40 -76,52 -28,11 -58,17 -88,17 -31,0 -61,-6 -89,-17 -28,-12 -53,-28 -75,-50 -22,-23 -39,-47 -51,-75 -11,-27 -17,-56 -17,-88z"/>
  <path id="2" class="fil3" d="M6186 6166l63 -42c12,22 26,39 44,50 18,12 40,17 64,17 24,0 43,-5 58,-17 15,-12 22,-27 22,-47 0,-14 -5,-27 -15,-37 -10,-10 -27,-19 -52,-27l-12 -4c-103,-36 -155,-81 -155,-134 0,-38 14,-69 42,-93 27,-24 64,-36 108,-36 37,0 69,7 95,22 27,15 45,36 57,63l-59 36c-9,-19 -22,-34 -38,-45 -17,-11 -37,-16 -59,-16 -22,0 -39,6 -53,18 -13,12 -20,27 -20,46 0,26 28,48 85,66 10,3 19,6 25,7 46,15 78,32 96,51 18,20 27,45 27,76 0,40 -14,73 -43,98 -28,25 -66,37 -112,37 -39,0 -73,-7 -101,-22 -28,-15 -50,-37 -67,-67z"/>
  <path id="3" class="fil3" d="M7226 6029c0,-49 -13,-87 -39,-116 -27,-30 -61,-44 -103,-44 -44,0 -78,13 -102,40 -25,27 -37,65 -37,113 0,52 12,91 37,119 25,28 60,42 105,42 43,0 77,-14 102,-41 25,-27 37,-65 37,-113zm70 -218l0 426 -70 0 0 -77c-17,31 -39,55 -65,71 -27,16 -57,24 -90,24 -60,0 -110,-21 -147,-63 -37,-42 -56,-97 -56,-167 0,-70 18,-125 54,-167 36,-41 85,-62 146,-62 35,0 66,8 93,24 26,16 47,40 63,72l0 -81 72 0z"/>
  <path id="4" class="fil3" d="M7769 6136l0 85c-20,11 -41,20 -65,26 -24,5 -50,8 -78,8 -66,0 -119,-21 -159,-62 -40,-42 -60,-97 -60,-165 0,-68 21,-124 62,-167 42,-43 95,-65 160,-65 23,0 46,3 69,8 22,5 43,12 63,22l0 78c-18,-12 -38,-21 -57,-28 -20,-6 -40,-9 -61,-9 -48,0 -86,15 -115,45 -29,29 -43,69 -43,119 0,44 14,80 43,110 29,29 66,44 109,44 22,0 44,-4 65,-12 21,-8 43,-20 67,-37z"/>
  <path id="5" class="fil3" d="M7938 5811l0 210c0,61 9,104 28,128 18,25 48,37 91,37 43,0 74,-12 92,-36 18,-24 27,-67 27,-129l0 -210 74 0 0 249c0,64 -16,113 -49,146 -33,33 -82,49 -145,49 -64,0 -112,-16 -145,-49 -32,-34 -49,-82 -49,-146l0 -249 76 0z"/>
  <path id="6" class="fil3" d="M8693 5976c-3,-37 -15,-66 -38,-86 -22,-21 -53,-31 -92,-31 -35,0 -65,11 -88,32 -24,21 -38,49 -41,85l259 0zm78 59l-337 0 0 7c0,45 13,82 39,110 26,28 60,42 102,42 28,0 54,-7 77,-23 23,-15 43,-38 61,-69l55 37c-21,38 -49,68 -82,87 -33,20 -71,29 -115,29 -65,0 -117,-21 -157,-64 -40,-43 -60,-99 -60,-168 0,-67 19,-122 59,-164 40,-43 91,-64 153,-64 63,0 113,20 150,61 36,40 55,95 55,165l0 14z"/>
  <path id="7" class="fil3" d="M8881 6237l0 -426 65 0 0 89c20,-37 41,-63 63,-79 22,-16 49,-24 80,-24 9,0 17,1 25,2 8,2 16,4 25,6l-25 66c-8,-2 -16,-5 -23,-6 -8,-1 -15,-2 -22,-2 -38,0 -67,14 -86,42 -20,27 -29,69 -29,125l0 207 -73 0z"/>
  <path id="8" class="fil3" d="M9541 6027c0,-48 -14,-86 -40,-115 -26,-29 -61,-43 -104,-43 -43,0 -77,13 -101,39 -24,26 -36,63 -36,109 0,53 12,94 36,123 25,30 59,45 102,45 44,0 79,-14 105,-42 25,-28 38,-67 38,-116zm70 -511l0 721 -70 0 0 -77c-17,31 -39,54 -66,71 -26,16 -56,24 -89,24 -61,0 -110,-21 -148,-63 -37,-42 -56,-97 -56,-167 0,-69 19,-125 55,-166 37,-42 86,-63 146,-63 36,0 66,8 92,24 26,16 47,40 64,72l0 -376 72 0z"/>
  <path id="9" class="fil3" d="M9802 6026c0,45 15,83 45,114 31,31 67,47 110,47 42,0 78,-16 108,-47 30,-31 45,-69 45,-114 0,-45 -15,-83 -45,-114 -30,-32 -66,-47 -108,-47 -43,0 -80,15 -110,47 -30,31 -45,69 -45,114zm-77 -1c0,-31 6,-60 17,-88 12,-28 29,-53 51,-74 22,-22 47,-39 75,-50 27,-11 57,-17 89,-17 31,0 60,6 88,17 28,12 53,29 76,51 22,21 38,46 50,73 11,28 17,57 17,88 0,32 -6,61 -17,88 -12,28 -28,52 -50,73 -23,23 -48,40 -76,52 -29,11 -58,17 -88,17 -32,0 -61,-6 -89,-17 -28,-12 -53,-28 -75,-50 -22,-23 -39,-47 -51,-75 -11,-27 -17,-56 -17,-88z"/>
  <path id="10" class="fil3" d="M10256 6166l63 -42c11,22 26,39 44,50 18,12 40,17 64,17 24,0 43,-5 58,-17 15,-12 22,-27 22,-47 0,-14 -5,-27 -15,-37 -10,-10 -28,-19 -52,-27l-12 -4c-104,-36 -155,-81 -155,-134 0,-38 14,-69 41,-93 28,-24 65,-36 109,-36 37,0 69,7 95,22 26,15 45,36 57,63l-59 36c-9,-19 -22,-34 -39,-45 -17,-11 -36,-16 -58,-16 -22,0 -39,6 -53,18 -13,12 -20,27 -20,46 0,26 28,48 85,66 10,3 19,6 25,7 46,15 78,32 96,51 18,20 27,45 27,76 0,40 -14,73 -43,98 -28,25 -66,37 -112,37 -40,0 -73,-7 -101,-22 -28,-15 -50,-37 -67,-67z"/>
  <path id="11" class="fil3" d="M11297 6136l0 85c-19,11 -41,20 -65,26 -24,5 -50,8 -78,8 -66,0 -119,-21 -159,-62 -40,-42 -60,-97 -60,-165 0,-68 21,-124 62,-167 42,-43 95,-65 160,-65 23,0 46,3 69,8 22,5 43,12 63,22l0 78c-18,-12 -37,-21 -57,-28 -20,-6 -40,-9 -61,-9 -48,0 -86,15 -115,45 -29,29 -43,69 -43,119 0,44 14,80 43,110 29,29 66,44 109,44 23,0 44,-4 65,-12 21,-8 43,-20 67,-37z"/>
  <path id="12" class="fil3" d="M11441 6026c0,45 15,83 45,114 30,31 67,47 109,47 43,0 79,-16 109,-47 29,-31 44,-69 44,-114 0,-45 -15,-83 -44,-114 -30,-32 -66,-47 -109,-47 -43,0 -79,15 -109,47 -30,31 -45,69 -45,114zm-77 -1c0,-31 5,-60 17,-88 11,-28 28,-53 50,-74 22,-22 47,-39 75,-50 28,-11 58,-17 89,-17 31,0 61,6 88,17 28,12 53,29 76,51 22,21 39,46 50,73 12,28 18,57 18,88 0,32 -6,61 -18,88 -11,28 -28,52 -50,73 -23,23 -48,40 -76,52 -28,11 -57,17 -88,17 -31,0 -61,-6 -89,-17 -28,-12 -53,-28 -75,-50 -22,-23 -39,-47 -50,-75 -12,-27 -17,-56 -17,-88z"/>
  <path id="13" class="fil3" d="M11940 6237l0 -426 71 0 0 66c18,-27 40,-47 66,-61 26,-13 56,-20 89,-20 51,0 90,14 118,40 28,27 42,64 42,111l0 290 -74 0 0 -250c0,-44 -9,-76 -27,-97 -18,-20 -46,-31 -84,-31 -22,0 -42,4 -59,12 -18,8 -33,19 -45,34 -9,11 -15,24 -19,38 -4,14 -6,39 -6,74l0 220 -72 0z"/>
  <path id="14" class="fil3" d="M12425 6166l63 -42c12,22 26,39 44,50 18,12 40,17 64,17 24,0 43,-5 58,-17 15,-12 22,-27 22,-47 0,-14 -5,-27 -15,-37 -10,-10 -27,-19 -52,-27l-12 -4c-103,-36 -155,-81 -155,-134 0,-38 14,-69 42,-93 28,-24 64,-36 108,-36 37,0 69,7 95,22 27,15 45,36 57,63l-59 36c-9,-19 -22,-34 -38,-45 -17,-11 -37,-16 -59,-16 -22,0 -39,6 -53,18 -13,12 -20,27 -20,46 0,26 28,48 85,66 10,3 19,6 25,7 46,15 78,32 96,51 18,20 28,45 28,76 0,40 -15,73 -44,98 -28,25 -66,37 -112,37 -39,0 -73,-7 -101,-22 -27,-15 -50,-37 -67,-67z"/>
  <polygon id="15" class="fil3" points="12870,5871 12792,5871 12792,5811 12870,5811 12870,5640 12944,5640 12944,5811 13022,5811 13022,5871 12944,5871 12944,6237 12870,6237 "/>
  <path id="16" class="fil3" d="M13106 6237l0 -426 65 0 0 89c19,-37 40,-63 62,-79 22,-16 49,-24 81,-24 8,0 17,1 25,2 8,2 16,4 24,6l-24 66c-9,-2 -17,-5 -24,-6 -8,-1 -15,-2 -21,-2 -39,0 -68,14 -87,42 -19,27 -29,69 -29,125l0 207 -72 0z"/>
  <path id="17" class="fil3" d="M13508 5811l0 210c0,61 9,104 27,128 18,25 49,37 92,37 43,0 73,-12 91,-36 18,-24 27,-67 27,-129l0 -210 74 0 0 249c0,64 -16,113 -49,146 -33,33 -81,49 -145,49 -63,0 -111,-16 -144,-49 -33,-34 -50,-82 -50,-146l0 -249 77 0z"/>
  <path id="18" class="fil3" d="M13947 5606c0,-14 5,-27 15,-37 11,-10 23,-16 38,-16 15,0 27,6 38,16 10,11 15,23 15,38 0,15 -5,27 -15,38 -10,10 -23,15 -38,15 -15,0 -27,-5 -38,-15 -10,-11 -15,-23 -15,-39zm17 631l0 -426 73 0 0 426 -73 0z"/>
  <path id="19" class="fil3" d="M14516 6027c0,-48 -13,-86 -39,-115 -27,-29 -61,-43 -104,-43 -43,0 -77,13 -101,39 -25,26 -37,63 -37,109 0,53 13,94 37,123 25,30 58,45 101,45 45,0 80,-14 105,-42 26,-28 38,-67 38,-116zm71 -511l0 721 -71 0 0 -77c-16,31 -38,54 -65,71 -26,16 -56,24 -89,24 -61,0 -110,-21 -148,-63 -37,-42 -56,-97 -56,-167 0,-69 18,-125 55,-166 37,-42 85,-63 146,-63 35,0 66,8 92,24 26,16 47,40 63,72l0 -376 73 0z"/>
  <path id="20" class="fil3" d="M14778 6026c0,45 15,83 45,114 30,31 67,47 110,47 42,0 78,-16 108,-47 30,-31 45,-69 45,-114 0,-45 -15,-83 -45,-114 -30,-32 -66,-47 -108,-47 -43,0 -80,15 -110,47 -30,31 -45,69 -45,114zm-77 -1c0,-31 6,-60 17,-88 12,-28 28,-53 50,-74 23,-22 47,-39 75,-50 28,-11 58,-17 90,-17 31,0 60,6 88,17 28,12 53,29 75,51 23,21 39,46 51,73 11,28 17,57 17,88 0,32 -6,61 -17,88 -12,28 -28,52 -51,73 -22,23 -48,40 -76,52 -28,11 -57,17 -87,17 -32,0 -61,-6 -89,-17 -29,-12 -53,-28 -76,-50 -22,-23 -38,-47 -50,-75 -11,-27 -17,-56 -17,-88z"/>
  <path id="21" class="fil3" d="M15232 6166l63 -42c11,22 26,39 44,50 18,12 39,17 64,17 24,0 43,-5 58,-17 15,-12 22,-27 22,-47 0,-14 -5,-27 -15,-37 -10,-10 -28,-19 -52,-27l-12 -4c-104,-36 -155,-81 -155,-134 0,-38 13,-69 41,-93 28,-24 64,-36 109,-36 37,0 69,7 95,22 26,15 45,36 57,63l-59 36c-9,-19 -22,-34 -39,-45 -17,-11 -36,-16 -59,-16 -21,0 -38,6 -52,18 -13,12 -20,27 -20,46 0,26 28,48 84,66 11,3 20,6 26,7 46,15 78,32 96,51 18,20 27,45 27,76 0,40 -14,73 -43,98 -28,25 -66,37 -112,37 -40,0 -73,-7 -101,-22 -28,-15 -50,-37 -67,-67z"/>
  <path id="22" class="fil3" d="M16248 5976c-3,-37 -15,-66 -38,-86 -22,-21 -53,-31 -92,-31 -35,0 -65,11 -88,32 -24,21 -38,49 -41,85l259 0zm78 59l-337 0 0 7c0,45 13,82 39,110 26,28 60,42 102,42 28,0 54,-7 77,-23 23,-15 43,-38 61,-69l55 37c-21,38 -48,68 -82,87 -33,20 -71,29 -115,29 -65,0 -117,-21 -157,-64 -40,-43 -60,-99 -60,-168 0,-67 20,-122 59,-164 40,-43 91,-64 153,-64 63,0 113,20 150,61 37,40 55,95 55,165l0 14z"/>
  <path id="23" class="fil3" d="M16436 6237l0 -426 71 0 0 66c18,-27 40,-47 66,-61 26,-13 56,-20 89,-20 51,0 90,14 118,40 28,27 42,64 42,111l0 290 -74 0 0 -250c0,-44 -9,-76 -27,-97 -18,-20 -46,-31 -84,-31 -22,0 -42,4 -59,12 -18,8 -33,19 -45,34 -9,11 -15,24 -19,38 -4,14 -6,39 -6,74l0 220 -72 0z"/>
  <path id="24" class="fil3" d="M4529 7118c-3,-38 -15,-66 -37,-87 -23,-20 -54,-30 -93,-30 -35,0 -65,10 -88,32 -24,21 -37,49 -41,85l259 0zm78 59l-337 0 0 6c0,46 13,83 39,111 26,28 60,42 102,42 28,0 54,-8 77,-23 23,-15 43,-38 61,-69l55 37c-21,38 -48,67 -81,87 -34,19 -72,29 -116,29 -65,0 -117,-21 -157,-64 -40,-43 -60,-99 -60,-169 0,-66 20,-121 59,-163 40,-43 91,-64 154,-64 62,0 112,20 149,60 37,41 55,96 55,166l0 14z"/>
  <polygon id="25" class="fil3" points="4721,7379 4721,6658 4795,6658 4795,7379 "/>
  <path id="26" class="fil3" d="M5299 7167c0,48 13,86 39,115 27,29 62,44 105,44 43,0 76,-14 100,-40 25,-26 37,-63 37,-110 0,-52 -12,-93 -37,-123 -24,-30 -58,-45 -101,-45 -45,0 -79,15 -105,43 -25,28 -38,67 -38,116zm-71 420l0 -634 70 0 0 80c17,-30 38,-54 65,-70 27,-17 57,-25 90,-25 62,0 111,21 148,63 38,42 56,97 56,166 0,71 -18,126 -55,168 -36,41 -85,62 -146,62 -35,0 -65,-8 -91,-24 -27,-16 -48,-40 -64,-71l0 285 -73 0z"/>
  <path id="27" class="fil3" d="M5842 6953l0 210c0,61 9,104 27,128 18,24 49,36 92,36 43,0 73,-12 91,-36 18,-24 27,-67 27,-128l0 -210 74 0 0 249c0,64 -16,112 -49,145 -33,33 -81,50 -145,50 -63,0 -111,-17 -144,-50 -33,-33 -49,-81 -49,-145l0 -249 76 0z"/>
  <path id="28" class="fil3" d="M6294 7379l0 -426 71 0 0 66c19,-27 41,-48 66,-61 26,-13 56,-20 90,-20 50,0 89,13 117,40 29,27 43,64 43,111l0 290 -75 0 0 -251c0,-43 -9,-75 -27,-96 -18,-21 -46,-31 -84,-31 -21,0 -41,4 -59,12 -18,8 -33,19 -45,33 -8,11 -15,24 -19,38 -4,15 -6,39 -6,75l0 220 -72 0z"/>
  <polygon id="29" class="fil3" points="6836,7013 6758,7013 6758,6953 6836,6953 6836,6782 6910,6782 6910,6953 6989,6953 6989,7013 6910,7013 6910,7379 6836,7379 "/>
  <path id="30" class="fil3" d="M7114 7167c0,45 15,83 45,115 30,31 67,46 110,46 42,0 78,-15 108,-46 30,-32 45,-70 45,-115 0,-44 -15,-83 -45,-114 -30,-31 -66,-47 -108,-47 -43,0 -80,16 -110,47 -30,31 -45,70 -45,114zm-77 0c0,-31 6,-61 17,-88 12,-28 28,-53 50,-75 22,-21 47,-38 75,-49 28,-11 58,-17 90,-17 31,0 60,6 88,17 28,12 53,28 75,50 22,22 39,46 51,74 11,28 17,57 17,88 0,31 -6,60 -17,88 -12,27 -29,52 -51,73 -22,22 -48,39 -76,51 -28,12 -57,18 -87,18 -32,0 -61,-6 -89,-17 -29,-12 -54,-29 -76,-50 -22,-23 -38,-48 -50,-75 -11,-27 -17,-56 -17,-88z"/>
  <path id="31" class="fil3" d="M8220 7168c0,-47 -13,-85 -40,-114 -26,-29 -61,-44 -104,-44 -43,0 -77,13 -101,40 -24,26 -36,63 -36,109 0,52 12,94 36,123 25,30 59,45 102,45 45,0 80,-14 105,-42 25,-28 38,-67 38,-117zm70 -510l0 721 -70 0 0 -77c-17,31 -39,54 -65,70 -27,17 -57,25 -90,25 -61,0 -110,-21 -147,-63 -38,-42 -56,-98 -56,-167 0,-70 18,-125 55,-167 36,-41 85,-62 146,-62 35,0 66,8 92,24 26,16 47,40 63,71l0 -375 72 0z"/>
  <path id="32" class="fil3" d="M8741 7118c-3,-38 -15,-66 -38,-87 -22,-20 -53,-30 -92,-30 -35,0 -65,10 -88,32 -24,21 -38,49 -41,85l259 0zm78 59l-337 0 0 6c0,46 13,83 39,111 26,28 60,42 102,42 28,0 54,-8 77,-23 23,-15 43,-38 61,-69l55 37c-21,38 -49,67 -82,87 -33,19 -71,29 -115,29 -65,0 -117,-21 -157,-64 -40,-43 -60,-99 -60,-169 0,-66 19,-121 59,-163 40,-43 91,-64 153,-64 63,0 113,20 150,60 36,41 55,96 55,166l0 14z"/>
  <path id="33" class="fil3" d="M9296 7073l0 306 -79 0 0 -681 143 0c50,0 87,3 110,8 24,5 44,14 62,26 21,15 38,37 51,63 12,27 18,57 18,90 0,33 -6,63 -18,90 -13,27 -30,48 -51,64 -18,12 -38,21 -62,26 -23,5 -60,8 -110,8l-23 0 -41 0zm0 -73l41 0c69,0 116,-8 140,-25 24,-16 36,-44 36,-85 0,-43 -12,-74 -37,-91 -24,-18 -71,-27 -139,-27l-41 0 0 228z"/>
  <path id="34" class="fil3" d="M9684 7167c0,45 15,83 45,115 30,31 67,46 109,46 43,0 79,-15 109,-46 30,-32 45,-70 45,-115 0,-44 -15,-83 -45,-114 -30,-31 -66,-47 -109,-47 -43,0 -79,16 -109,47 -30,31 -45,70 -45,114zm-77 0c0,-31 6,-61 17,-88 12,-28 28,-53 50,-75 22,-21 47,-38 75,-49 28,-11 58,-17 90,-17 31,0 60,6 88,17 27,12 53,28 75,50 22,22 39,46 51,74 11,28 17,57 17,88 0,31 -6,60 -17,88 -12,27 -29,52 -51,73 -22,22 -48,39 -76,51 -28,12 -57,18 -87,18 -32,0 -62,-6 -90,-17 -28,-12 -53,-29 -75,-50 -22,-23 -38,-48 -50,-75 -11,-27 -17,-56 -17,-88z"/>
  <polygon id="35" class="fil3" points="10187,7379 10187,6658 10261,6658 10261,7379 "/>
  <path id="36" class="fil3" d="M10417 7379l0 -426 74 0 0 426 -74 0zm-29 -493l95 -161 93 0 -132 161 -56 0z"/>
  <polygon id="37" class="fil3" points="10656,7013 10578,7013 10578,6953 10656,6953 10656,6782 10730,6782 10730,6953 10808,6953 10808,7013 10730,7013 10730,7379 10656,7379 "/>
  <path id="38" class="fil3" d="M10877 6748c0,-14 6,-27 16,-37 10,-11 23,-16 38,-16 15,0 27,5 38,16 10,10 15,23 15,38 0,15 -5,27 -15,37 -10,11 -23,16 -38,16 -15,0 -28,-5 -38,-16 -10,-10 -16,-23 -16,-38zm18 631l0 -426 73 0 0 426 -73 0z"/>
  <path id="39" class="fil3" d="M11448 7278l0 85c-19,11 -41,20 -65,25 -24,6 -50,9 -78,9 -65,0 -118,-21 -158,-63 -41,-41 -61,-96 -61,-164 0,-68 21,-124 63,-167 41,-44 94,-65 159,-65 24,0 47,2 69,7 23,5 44,13 64,22l0 79c-19,-13 -38,-22 -58,-28 -20,-6 -40,-10 -60,-10 -48,0 -87,15 -115,45 -29,30 -44,70 -44,120 0,43 15,80 44,109 29,30 65,45 109,45 22,0 43,-4 65,-12 21,-8 43,-20 66,-37z"/>
  <path id="40" class="fil3" d="M11875 7170c0,-48 -13,-87 -39,-116 -27,-29 -61,-44 -103,-44 -44,0 -78,14 -102,41 -25,27 -37,64 -37,113 0,51 12,91 37,119 25,28 60,42 105,42 43,0 77,-14 102,-41 25,-27 37,-65 37,-114zm70 -217l0 426 -70 0 0 -77c-17,31 -39,54 -65,71 -27,16 -57,24 -89,24 -61,0 -111,-21 -148,-63 -37,-42 -56,-98 -56,-167 0,-70 18,-126 54,-167 37,-41 85,-62 146,-62 35,0 66,8 93,24 26,16 47,40 63,71l0 -80 72 0z"/>
  <path id="41" class="fil3" d="M12698 7168c0,-47 -13,-85 -40,-114 -26,-29 -61,-44 -104,-44 -43,0 -77,13 -101,40 -24,26 -36,63 -36,109 0,52 12,94 36,123 25,30 59,45 102,45 45,0 80,-14 105,-42 25,-28 38,-67 38,-117zm70 -510l0 721 -70 0 0 -77c-17,31 -39,54 -65,70 -27,17 -57,25 -90,25 -61,0 -110,-21 -147,-63 -38,-42 -56,-98 -56,-167 0,-70 18,-125 55,-167 36,-41 85,-62 146,-62 35,0 66,8 92,24 26,16 47,40 63,71l0 -375 72 0z"/>
  <path id="42" class="fil3" d="M13219 7118c-3,-38 -15,-66 -38,-87 -22,-20 -53,-30 -92,-30 -35,0 -65,10 -88,32 -24,21 -38,49 -41,85l259 0zm78 59l-337 0 0 6c0,46 13,83 39,111 26,28 60,42 102,42 28,0 54,-8 77,-23 23,-15 43,-38 61,-69l55 37c-21,38 -49,67 -82,87 -33,19 -71,29 -115,29 -65,0 -117,-21 -157,-64 -40,-43 -60,-99 -60,-169 0,-66 19,-121 59,-163 40,-43 91,-64 153,-64 63,0 113,20 150,60 36,41 55,96 55,166l0 14z"/>
  <path id="43" class="fil3" d="M13777 7303l52 0c83,0 141,-4 173,-11 33,-8 59,-20 81,-38 28,-23 49,-53 64,-90 14,-36 21,-78 21,-126 0,-48 -7,-89 -21,-126 -15,-36 -36,-66 -64,-89 -22,-18 -49,-31 -82,-38 -33,-8 -90,-12 -172,-12l-52 0 0 530zm-82 76l0 -681 131 0c97,0 165,5 204,14 40,10 74,27 104,50 39,30 69,68 89,115 20,47 30,101 30,162 0,61 -10,114 -30,161 -20,47 -49,85 -89,115 -30,23 -63,39 -101,49 -39,10 -98,15 -178,15l-29 0 -131 0z"/>
  <path id="44" class="fil3" d="M14680 7118c-2,-38 -15,-66 -37,-87 -23,-20 -54,-30 -93,-30 -35,0 -65,10 -88,32 -24,21 -37,49 -41,85l259 0zm78 59l-337 0 0 6c0,46 13,83 39,111 26,28 60,42 102,42 28,0 54,-8 77,-23 23,-15 43,-38 61,-69l55 37c-21,38 -48,67 -81,87 -34,19 -72,29 -116,29 -65,0 -117,-21 -157,-64 -40,-43 -60,-99 -60,-169 0,-66 20,-121 60,-163 39,-43 90,-64 153,-64 62,0 112,20 149,60 37,41 55,96 55,166l0 14z"/>
  <path id="45" class="fil3" d="M14823 7307l62 -41c12,22 27,39 45,50 18,11 39,17 64,17 23,0 43,-6 58,-17 14,-12 22,-28 22,-47 0,-15 -5,-27 -15,-37 -11,-10 -28,-19 -52,-27l-12 -5c-104,-35 -156,-80 -156,-134 0,-37 14,-68 42,-92 28,-24 64,-36 109,-36 37,0 68,7 95,22 26,15 45,36 56,63l-58 36c-9,-20 -22,-35 -39,-45 -17,-11 -36,-16 -59,-16 -21,0 -39,6 -52,18 -14,12 -20,27 -20,46 0,26 28,48 84,65 11,4 19,6 26,8 46,15 78,32 96,51 18,19 27,44 27,76 0,40 -14,73 -43,98 -29,24 -66,37 -112,37 -40,0 -74,-7 -101,-22 -28,-15 -50,-38 -67,-68z"/>
  <path id="46" class="fil3" d="M15581 7170c0,-48 -13,-87 -39,-116 -26,-29 -60,-44 -102,-44 -44,0 -78,14 -103,41 -24,27 -36,64 -36,113 0,51 12,91 36,119 25,28 60,42 105,42 44,0 78,-14 103,-41 24,-27 36,-65 36,-114zm71 -217l0 426 -71 0 0 -77c-16,31 -38,54 -65,71 -26,16 -56,24 -89,24 -61,0 -110,-21 -148,-63 -37,-42 -56,-98 -56,-167 0,-70 18,-126 55,-167 36,-41 85,-62 145,-62 36,0 67,8 93,24 26,16 48,40 64,71l0 -80 72 0z"/>
  <path id="47" class="fil3" d="M15799 7379l0 -426 64 0 0 89c20,-37 41,-63 63,-79 22,-16 49,-24 80,-24 9,0 17,0 26,2 7,1 16,3 24,6l-24 66c-9,-3 -17,-5 -24,-6 -8,-2 -15,-2 -22,-2 -38,0 -67,14 -86,41 -19,28 -29,70 -29,126l0 207 -72 0z"/>
  <path id="48" class="fil3" d="M16133 7379l0 -426 65 0 0 89c19,-37 40,-63 62,-79 22,-16 49,-24 81,-24 8,0 17,0 25,2 8,1 16,3 24,6l-24 66c-9,-3 -16,-5 -24,-6 -7,-2 -15,-2 -21,-2 -39,0 -68,14 -87,41 -19,28 -29,70 -29,126l0 207 -72 0z"/>
  <path id="49" class="fil3" d="M16509 7167c0,45 15,83 45,115 30,31 67,46 110,46 42,0 78,-15 108,-46 30,-32 45,-70 45,-115 0,-44 -15,-83 -45,-114 -30,-31 -66,-47 -108,-47 -43,0 -80,16 -110,47 -30,31 -45,70 -45,114zm-77 0c0,-31 6,-61 17,-88 12,-28 28,-53 50,-75 22,-21 47,-38 75,-49 28,-11 58,-17 90,-17 31,0 60,6 88,17 28,12 53,28 75,50 22,22 39,46 51,74 11,28 17,57 17,88 0,31 -6,60 -17,88 -12,27 -29,52 -51,73 -22,22 -48,39 -76,51 -28,12 -57,18 -87,18 -32,0 -61,-6 -90,-17 -28,-12 -53,-29 -75,-50 -22,-23 -38,-48 -50,-75 -11,-27 -17,-56 -17,-88z"/>
  <polygon id="50" class="fil3" points="17012,7379 17012,6658 17086,6658 17086,7379 "/>
  <polygon id="51" class="fil3" points="17242,7379 17242,6658 17317,6658 17317,7379 "/>
  <path id="52" class="fil3" d="M17512 7167c0,45 15,83 45,115 30,31 67,46 110,46 42,0 78,-15 108,-46 30,-32 45,-70 45,-115 0,-44 -15,-83 -45,-114 -30,-31 -66,-47 -108,-47 -43,0 -80,16 -110,47 -30,31 -45,70 -45,114zm-77 0c0,-31 6,-61 17,-88 12,-28 28,-53 51,-75 22,-21 47,-38 74,-49 28,-11 58,-17 90,-17 31,0 60,6 88,17 28,12 53,28 75,50 23,22 39,46 51,74 11,28 17,57 17,88 0,31 -6,60 -17,88 -12,27 -28,52 -51,73 -22,22 -47,39 -76,51 -28,12 -57,18 -87,18 -32,0 -61,-6 -89,-17 -28,-12 -53,-29 -75,-50 -23,-23 -39,-48 -51,-75 -11,-27 -17,-56 -17,-88z"/>
  <path id="53" class="fil3" d="M4021 8521l0 -681 160 0c46,0 79,2 101,7 21,5 40,14 56,27 20,15 36,37 47,63 11,27 16,56 16,88 0,56 -15,98 -46,127 -31,29 -77,44 -137,44l-15 0 260 325 -102 0 -249 -325 -12 0 0 325 -79 0zm79 -613l0 228 62 0c64,0 106,-8 127,-25 22,-16 32,-44 32,-85 0,-44 -10,-74 -33,-92 -22,-17 -64,-26 -126,-26l-62 0z"/>
  <path id="54" class="fil3" d="M4592 8095l0 209c0,62 9,104 27,129 19,24 49,36 92,36 43,0 74,-12 92,-36 17,-24 26,-67 26,-129l0 -209 75 0 0 248c0,65 -17,113 -50,146 -32,33 -81,50 -145,50 -63,0 -111,-17 -144,-50 -33,-33 -49,-82 -49,-146l0 -248 76 0z"/>
  <path id="55" class="fil3" d="M5045 8521l0 -426 65 0 0 89c20,-37 41,-64 63,-80 22,-15 49,-23 80,-23 9,0 17,0 25,2 8,1 16,3 25,6l-25 66c-8,-3 -16,-5 -23,-6 -8,-2 -15,-3 -22,-3 -38,0 -67,14 -86,42 -20,28 -29,70 -29,125l0 208 -73 0z"/>
  <path id="56" class="fil3" d="M5704 8312c0,-48 -13,-87 -39,-116 -26,-29 -60,-44 -102,-44 -44,0 -78,14 -103,40 -24,27 -36,65 -36,114 0,51 12,91 36,118 25,28 60,42 105,42 44,0 78,-13 103,-40 24,-27 36,-65 36,-114zm71 -217l0 426 -71 0 0 -78c-16,31 -38,55 -65,71 -26,17 -56,25 -89,25 -61,0 -110,-21 -148,-63 -37,-42 -56,-98 -56,-167 0,-70 18,-126 55,-167 36,-42 85,-62 145,-62 36,0 67,8 93,24 26,16 48,40 64,71l0 -80 72 0z"/>
  <polygon id="57" class="fil3" points="5924,8521 5924,7800 5999,7800 5999,8521 "/>
  <polygon id="58" class="fil3" points="6441,8521 6441,7840 6522,7840 6522,8521 "/>
  <path id="59" class="fil3" d="M6679 8521l0 -426 71 0 0 66c18,-28 41,-48 66,-61 26,-14 56,-20 89,-20 51,0 90,13 118,40 28,26 42,63 42,111l0 290 -74 0 0 -251c0,-43 -9,-75 -27,-96 -18,-21 -46,-32 -84,-32 -22,0 -42,4 -59,12 -18,8 -33,19 -45,34 -9,11 -15,24 -19,38 -4,14 -6,39 -6,75l0 220 -72 0z"/>
  <polygon id="60" class="fil3" points="7221,8155 7143,8155 7143,8095 7221,8095 7221,7923 7295,7923 7295,8095 7373,8095 7373,8155 7295,8155 7295,8521 7221,8521 "/>
  <path id="61" class="fil3" d="M7758 8260c-3,-38 -15,-67 -38,-87 -22,-20 -53,-31 -92,-31 -35,0 -65,11 -88,32 -24,22 -38,50 -41,86l259 0zm78 59l-337 0 0 6c0,46 13,83 39,111 26,28 60,42 102,42 28,0 54,-8 77,-23 23,-15 43,-39 61,-70l55 38c-21,38 -48,67 -82,87 -33,19 -71,29 -115,29 -65,0 -117,-22 -157,-64 -40,-43 -60,-99 -60,-169 0,-67 20,-121 59,-164 40,-42 91,-63 153,-63 63,0 113,20 150,60 37,40 55,96 55,165l0 15z"/>
  <path id="62" class="fil3" d="M8271 8309c0,-48 -13,-86 -39,-115 -26,-29 -60,-44 -102,-44 -44,0 -78,14 -103,41 -24,27 -37,64 -37,113 0,51 13,91 37,119 25,27 60,41 105,41 44,0 78,-13 102,-41 25,-27 37,-65 37,-114zm71 -214l0 418c0,46 -3,79 -9,99 -7,19 -17,37 -31,52 -20,22 -44,38 -73,48 -28,11 -62,16 -99,16 -64,0 -114,-14 -151,-44 -36,-30 -55,-71 -56,-125l82 0 0 5c0,32 11,57 33,74 22,18 53,26 93,26 30,0 54,-4 75,-14 21,-9 36,-23 47,-42 7,-10 11,-23 14,-37 3,-14 4,-34 4,-60l0 -33 0 -38c-16,30 -38,53 -64,70 -27,16 -57,24 -90,24 -61,0 -110,-21 -148,-62 -37,-42 -56,-97 -56,-166 0,-69 18,-124 55,-165 36,-41 85,-61 145,-61 36,0 67,8 93,24 27,16 48,39 64,70l0 -79 72 0z"/>
  <path id="63" class="fil3" d="M8490 8521l0 -426 65 0 0 89c20,-37 41,-64 63,-80 22,-15 49,-23 80,-23 9,0 17,0 25,2 8,1 16,3 25,6l-25 66c-8,-3 -16,-5 -23,-6 -8,-2 -15,-3 -22,-3 -38,0 -67,14 -86,42 -20,28 -29,70 -29,125l0 208 -73 0z"/>
  <path id="64" class="fil3" d="M9150 8312c0,-48 -14,-87 -40,-116 -26,-29 -60,-44 -102,-44 -44,0 -78,14 -103,40 -24,27 -36,65 -36,114 0,51 12,91 37,118 24,28 59,42 104,42 44,0 78,-13 103,-40 24,-27 37,-65 37,-114zm70 -217l0 426 -70 0 0 -78c-17,31 -39,55 -66,71 -26,17 -56,25 -89,25 -61,0 -110,-21 -148,-63 -37,-42 -56,-98 -56,-167 0,-70 18,-126 55,-167 36,-42 85,-62 145,-62 36,0 67,8 93,24 26,16 48,40 64,71l0 -80 72 0z"/>
  <polygon id="65" class="fil3" points="9369,8521 9369,7800 9444,7800 9444,8521 "/>
  <path id="66" class="fil3" d="M9832 8449l63 -42c11,23 26,40 44,51 18,11 40,17 64,17 24,0 43,-6 58,-18 15,-11 22,-27 22,-46 0,-15 -5,-27 -15,-37 -10,-10 -28,-19 -52,-28l-12 -4c-104,-36 -155,-80 -155,-134 0,-38 14,-69 41,-92 28,-24 65,-36 109,-36 37,0 69,7 95,22 26,14 45,35 57,62l-59 37c-9,-20 -22,-35 -39,-45 -17,-11 -36,-16 -58,-16 -22,0 -39,6 -53,18 -13,11 -20,27 -20,45 0,26 28,48 85,66 10,4 19,6 25,8 46,15 78,32 96,51 18,19 27,44 27,75 0,41 -14,73 -43,98 -28,25 -66,38 -112,38 -40,0 -73,-8 -101,-23 -28,-14 -50,-37 -67,-67z"/>
  <path id="67" class="fil3" d="M10567 8260c-3,-38 -15,-67 -37,-87 -23,-20 -54,-31 -93,-31 -35,0 -65,11 -88,32 -24,22 -37,50 -41,86l259 0zm78 59l-337 0 0 6c0,46 13,83 39,111 26,28 60,42 102,42 28,0 54,-8 77,-23 23,-15 43,-39 61,-70l55 38c-21,38 -48,67 -82,87 -33,19 -71,29 -115,29 -65,0 -117,-22 -157,-64 -40,-43 -60,-99 -60,-169 0,-67 20,-121 59,-164 40,-42 91,-63 153,-63 63,0 113,20 150,60 37,40 55,96 55,165l0 15z"/>
  <path id="68" class="fil3" d="M11036 8521l0 -721 71 0 0 361c18,-28 41,-48 66,-61 26,-14 56,-20 89,-20 51,0 90,13 118,40 28,26 43,63 43,111l0 290 -75 0 0 -251c0,-43 -9,-75 -27,-96 -18,-21 -46,-32 -84,-32 -22,0 -42,4 -59,12 -18,8 -33,19 -45,34 -9,11 -15,24 -19,38 -4,14 -6,39 -6,75l0 220 -72 0z"/>
  <path id="69" class="fil3" d="M11892 8312c0,-48 -13,-87 -39,-116 -26,-29 -60,-44 -103,-44 -43,0 -77,14 -102,40 -25,27 -37,65 -37,114 0,51 13,91 37,118 25,28 60,42 105,42 44,0 78,-13 102,-40 25,-27 37,-65 37,-114zm71 -217l0 426 -71 0 0 -78c-17,31 -39,55 -65,71 -27,17 -56,25 -89,25 -61,0 -111,-21 -148,-63 -37,-42 -56,-98 -56,-167 0,-70 18,-126 55,-167 36,-42 84,-62 145,-62 36,0 67,8 93,24 26,16 47,40 63,71l0 -80 73 0z"/>
  <path id="70" class="fil3" d="M12108 8521l0 -426 72 0 0 66c18,-28 40,-48 66,-61 25,-14 55,-20 89,-20 50,0 90,13 118,40 28,26 42,63 42,111l0 290 -74 0 0 -251c0,-43 -9,-75 -27,-96 -19,-21 -47,-32 -84,-32 -22,0 -42,4 -60,12 -18,8 -32,19 -44,34 -9,11 -16,24 -19,38 -4,14 -6,39 -6,75l0 220 -73 0z"/>
  <path id="71" class="fil3" d="M13246 8310c0,-47 -13,-86 -40,-114 -26,-30 -61,-44 -104,-44 -43,0 -77,13 -101,40 -24,26 -36,62 -36,109 0,52 12,93 36,123 25,29 59,44 102,44 45,0 80,-14 105,-42 25,-27 38,-66 38,-116zm70 -510l0 721 -70 0 0 -77c-17,30 -39,54 -65,70 -27,16 -57,25 -90,25 -61,0 -110,-21 -147,-63 -38,-42 -56,-98 -56,-167 0,-70 18,-126 55,-167 36,-42 85,-62 146,-62 35,0 66,8 92,24 26,16 47,40 63,71l0 -375 72 0z"/>
  <path id="72" class="fil3" d="M13767 8260c-3,-38 -15,-67 -38,-87 -22,-20 -53,-31 -92,-31 -35,0 -65,11 -89,32 -23,22 -37,50 -40,86l259 0zm78 59l-337 0 0 6c0,46 13,83 39,111 26,28 60,42 101,42 29,0 55,-8 78,-23 23,-15 43,-39 61,-70l55 38c-21,38 -49,67 -82,87 -33,19 -72,29 -115,29 -65,0 -117,-22 -157,-64 -40,-43 -60,-99 -60,-169 0,-67 19,-121 59,-164 40,-42 91,-63 153,-63 63,0 113,20 150,60 36,40 55,96 55,165l0 15z"/>
  <path id="73" class="fil3" d="M13954 8521l0 -426 72 0 0 66c18,-28 40,-48 66,-61 26,-14 55,-20 89,-20 50,0 90,13 118,40 28,26 42,63 42,111l0 290 -74 0 0 -251c0,-43 -9,-75 -27,-96 -19,-21 -47,-32 -84,-32 -22,0 -42,4 -60,12 -17,8 -32,19 -44,34 -9,11 -16,24 -19,38 -4,14 -6,39 -6,75l0 220 -73 0z"/>
  <path id="74" class="fil3" d="M14528 8309c0,45 15,83 45,114 30,32 67,47 109,47 43,0 79,-15 109,-47 30,-31 45,-69 45,-114 0,-45 -15,-83 -45,-114 -30,-31 -66,-47 -109,-47 -43,0 -79,16 -109,47 -30,31 -45,69 -45,114zm-77 0c0,-31 6,-61 17,-89 12,-27 28,-52 50,-74 22,-22 47,-38 75,-49 28,-12 58,-17 90,-17 31,0 60,5 88,17 27,11 53,28 75,50 22,22 39,46 51,74 11,28 17,57 17,88 0,31 -6,60 -17,88 -12,27 -29,52 -51,73 -22,22 -48,39 -76,51 -28,12 -57,18 -87,18 -32,0 -62,-6 -90,-18 -28,-11 -53,-28 -75,-50 -22,-22 -38,-47 -50,-74 -11,-27 -17,-57 -17,-88z"/>
  <path id="75" class="fil3" d="M15619 8521l0 -251c0,-43 -8,-75 -26,-96 -17,-21 -44,-32 -80,-32 -19,0 -37,4 -54,12 -16,8 -30,19 -42,34 -8,11 -14,24 -18,39 -3,15 -5,39 -5,74l0 220 -71 0 0 -251c0,-43 -9,-75 -26,-96 -17,-21 -44,-32 -80,-32 -19,0 -38,4 -54,12 -17,8 -31,19 -43,34 -8,11 -14,24 -17,38 -4,14 -6,39 -6,75l0 220 -70 0 0 -426 71 0 0 66c18,-28 39,-48 64,-61 24,-14 52,-20 84,-20 35,0 64,7 88,22 24,14 42,36 55,64 18,-29 40,-51 65,-65 25,-14 54,-21 87,-21 47,0 84,13 111,40 26,26 40,63 40,111l0 290 -73 0z"/>
  <path id="76" class="fil3" d="M15821 7890c0,-15 6,-27 16,-38 10,-10 23,-15 38,-15 15,0 27,5 38,16 10,10 15,23 15,38 0,14 -5,27 -15,37 -10,10 -23,15 -38,15 -15,0 -28,-5 -38,-15 -10,-10 -16,-23 -16,-38zm18 631l0 -426 73 0 0 426 -73 0z"/>
  <path id="77" class="fil3" d="M16065 8521l0 -426 72 0 0 66c18,-28 40,-48 66,-61 26,-14 55,-20 89,-20 50,0 90,13 118,40 28,26 42,63 42,111l0 290 -74 0 0 -251c0,-43 -9,-75 -27,-96 -19,-21 -46,-32 -84,-32 -22,0 -42,4 -60,12 -17,8 -32,19 -44,34 -9,11 -15,24 -19,38 -4,14 -6,39 -6,75l0 220 -73 0z"/>
  <path id="78" class="fil3" d="M16922 8312c0,-48 -13,-87 -39,-116 -27,-29 -61,-44 -103,-44 -44,0 -78,14 -102,40 -25,27 -37,65 -37,114 0,51 12,91 37,118 25,28 60,42 105,42 43,0 77,-13 102,-40 25,-27 37,-65 37,-114zm70 -217l0 426 -70 0 0 -78c-17,31 -39,55 -65,71 -27,17 -57,25 -90,25 -61,0 -110,-21 -147,-63 -38,-42 -56,-98 -56,-167 0,-70 18,-126 54,-167 36,-42 85,-62 146,-62 35,0 66,8 93,24 26,16 47,40 63,71l0 -80 72 0z"/>
  <path id="79" class="fil3" d="M17464 8310c0,-47 -13,-86 -40,-114 -26,-30 -61,-44 -104,-44 -43,0 -77,13 -101,40 -24,26 -36,62 -36,109 0,52 12,93 36,123 25,29 59,44 102,44 45,0 80,-14 105,-42 25,-27 38,-66 38,-116zm70 -510l0 721 -70 0 0 -77c-17,30 -39,54 -65,70 -27,16 -57,25 -90,25 -61,0 -110,-21 -147,-63 -38,-42 -56,-98 -56,-167 0,-70 18,-126 55,-167 36,-42 85,-62 146,-62 35,0 66,8 92,24 26,16 47,40 63,71l0 -375 72 0z"/>
  <path id="80" class="fil3" d="M17725 8309c0,45 16,83 46,114 30,32 66,47 109,47 43,0 79,-15 109,-47 29,-31 44,-69 44,-114 0,-45 -15,-83 -44,-114 -30,-31 -66,-47 -109,-47 -43,0 -80,16 -110,47 -30,31 -45,69 -45,114zm-77 0c0,-31 6,-61 17,-89 12,-27 29,-52 51,-74 22,-22 47,-38 75,-49 28,-12 57,-17 89,-17 31,0 60,5 88,17 28,11 53,28 76,50 22,22 39,46 50,74 12,28 17,57 17,88 0,31 -5,60 -17,88 -11,27 -28,52 -50,73 -23,22 -48,39 -76,51 -28,12 -58,18 -88,18 -31,0 -61,-6 -89,-18 -28,-11 -53,-28 -75,-50 -22,-22 -39,-47 -51,-74 -11,-27 -17,-57 -17,-88z"/>
  <path id="81" class="fil3" d="M3537 8996l0 257 -55 0 0 -257 55 0zm-132 0l0 257 -54 0 0 -257 54 0z"/>
  <polygon id="82" class="fil3" points="3663,9662 3663,8981 3744,8981 3744,9243 4106,9243 4106,8981 4188,8981 4188,9662 4106,9662 4106,9320 3744,9320 3744,9662 "/>
  <path id="83" class="fil3" d="M4669 9454c0,-48 -13,-87 -39,-116 -26,-30 -60,-44 -102,-44 -44,0 -78,13 -103,40 -24,27 -37,65 -37,113 0,52 13,91 37,119 25,28 60,42 105,42 44,0 78,-13 102,-41 25,-27 37,-65 37,-113zm71 -217l0 425 -71 0 0 -77c-17,31 -38,55 -65,71 -26,16 -56,24 -89,24 -61,0 -110,-20 -148,-63 -37,-42 -56,-97 -56,-166 0,-70 18,-126 55,-168 36,-41 85,-62 145,-62 36,0 67,8 93,24 26,16 48,40 64,72l0 -80 72 0z"/>
  <path id="84" class="fil3" d="M5212 9561l0 85c-19,12 -41,20 -65,26 -24,6 -50,8 -78,8 -65,0 -118,-20 -158,-62 -41,-42 -61,-97 -61,-165 0,-68 21,-124 63,-167 41,-43 94,-65 159,-65 24,0 47,3 69,8 23,5 44,12 64,22l0 78c-19,-12 -38,-21 -58,-28 -20,-6 -40,-9 -60,-9 -48,0 -87,15 -115,45 -29,30 -44,69 -44,119 0,44 15,80 44,110 29,29 65,44 109,44 22,0 44,-4 65,-12 21,-8 43,-20 66,-37z"/>
  <path id="85" class="fil3" d="M5300 9031c0,-14 5,-26 16,-37 10,-10 23,-16 38,-16 14,0 27,6 37,16 10,11 16,24 16,38 0,15 -5,28 -16,38 -10,10 -23,15 -37,15 -15,0 -28,-5 -38,-15 -11,-10 -16,-23 -16,-39zm17 631l0 -425 73 0 0 425 -73 0z"/>
  <path id="86" class="fil3" d="M5870 9454c0,-48 -13,-87 -40,-116 -26,-30 -60,-44 -102,-44 -44,0 -78,13 -102,40 -25,27 -37,65 -37,113 0,52 12,91 37,119 24,28 59,42 105,42 43,0 77,-13 102,-41 24,-27 37,-65 37,-113zm70 -217l0 425 -70 0 0 -77c-17,31 -39,55 -66,71 -26,16 -56,24 -89,24 -61,0 -110,-20 -147,-63 -38,-42 -56,-97 -56,-166 0,-70 18,-126 54,-168 36,-41 85,-62 146,-62 35,0 66,8 92,24 27,16 48,40 64,72l0 -80 72 0z"/>
  <path id="87" class="fil3" d="M6435 9237l0 209c0,61 9,104 28,128 18,25 48,37 91,37 43,0 74,-12 92,-36 18,-24 27,-67 27,-129l0 -209 74 0 0 248c0,64 -17,113 -49,146 -33,33 -82,49 -145,49 -64,0 -112,-16 -145,-49 -32,-33 -49,-82 -49,-146l0 -248 76 0z"/>
  <path id="88" class="fil3" d="M6888 9662l0 -425 71 0 0 65c18,-27 40,-47 66,-61 26,-13 56,-20 89,-20 51,0 90,14 118,40 28,27 42,64 42,112l0 289 -74 0 0 -250c0,-43 -9,-75 -27,-96 -18,-21 -46,-32 -84,-32 -22,0 -42,4 -59,12 -18,8 -33,19 -45,34 -9,11 -15,24 -19,38 -4,14 -6,39 -6,74l0 220 -72 0z"/>
  <path id="89" class="fil3" d="M7699 9662l0 -425 72 0 0 65c18,-27 40,-47 66,-61 26,-13 55,-20 89,-20 50,0 90,14 118,40 28,27 42,64 42,112l0 289 -74 0 0 -250c0,-43 -9,-75 -27,-96 -19,-21 -47,-32 -84,-32 -22,0 -42,4 -60,12 -18,8 -32,19 -44,34 -9,11 -16,24 -19,38 -4,14 -6,39 -6,74l0 220 -73 0z"/>
  <path id="90" class="fil3" d="M8299 9237l0 209c0,61 9,104 27,128 18,25 49,37 92,37 43,0 73,-12 91,-36 18,-24 27,-67 27,-129l0 -209 74 0 0 248c0,64 -16,113 -49,146 -33,33 -81,49 -145,49 -63,0 -112,-16 -144,-49 -33,-33 -50,-82 -50,-146l0 -248 77 0z"/>
  <path id="91" class="fil3" d="M9053 9401c-3,-37 -15,-66 -38,-86 -22,-21 -53,-31 -92,-31 -35,0 -65,11 -88,32 -24,21 -38,50 -41,85l259 0zm78 59l-337 0 0 7c0,46 13,82 39,110 26,29 60,43 102,43 28,0 54,-8 77,-24 23,-15 43,-38 61,-69l55 37c-21,39 -48,68 -82,87 -33,20 -71,29 -115,29 -65,0 -117,-21 -157,-64 -40,-43 -60,-99 -60,-168 0,-67 20,-121 59,-164 40,-42 91,-64 153,-64 63,0 113,21 150,61 37,40 55,95 55,165l0 14z"/>
  <polygon id="92" class="fil3" points="9381,9689 9170,9237 9252,9237 9380,9534 9508,9237 9590,9237 "/>
  <path id="93" class="fil3" d="M9711 9451c0,45 15,83 45,114 31,31 67,47 110,47 42,0 79,-16 108,-47 30,-31 45,-69 45,-114 0,-45 -15,-83 -45,-114 -29,-32 -66,-47 -108,-47 -43,0 -80,15 -110,47 -30,31 -45,69 -45,114zm-77 0c0,-32 6,-61 17,-89 12,-28 29,-52 51,-74 22,-22 47,-38 75,-50 28,-11 57,-17 89,-17 31,0 60,6 88,18 28,11 53,28 76,50 22,21 38,46 50,73 11,28 17,58 17,89 0,31 -6,60 -17,87 -12,28 -28,52 -50,74 -23,22 -48,39 -76,51 -29,12 -58,17 -88,17 -31,0 -61,-5 -89,-17 -28,-12 -53,-28 -75,-50 -22,-22 -39,-47 -51,-74 -11,-28 -17,-57 -17,-88z"/>
  <path id="94" class="fil3" d="M10818 9561l0 85c-19,12 -41,20 -65,26 -24,6 -50,8 -78,8 -66,0 -118,-20 -159,-62 -40,-42 -60,-97 -60,-165 0,-68 21,-124 62,-167 42,-43 95,-65 160,-65 23,0 46,3 69,8 23,5 44,12 64,22l0 78c-19,-12 -38,-21 -58,-28 -20,-6 -40,-9 -61,-9 -47,0 -86,15 -115,45 -28,30 -43,69 -43,119 0,44 15,80 44,110 29,29 65,44 109,44 22,0 43,-4 64,-12 22,-8 44,-20 67,-37z"/>
  <path id="95" class="fil3" d="M11245 9454c0,-48 -13,-87 -40,-116 -26,-30 -60,-44 -102,-44 -44,0 -78,13 -102,40 -25,27 -37,65 -37,113 0,52 12,91 37,119 24,28 60,42 105,42 43,0 77,-13 102,-41 24,-27 37,-65 37,-113zm70 -217l0 425 -70 0 0 -77c-17,31 -39,55 -66,71 -26,16 -56,24 -89,24 -61,0 -110,-20 -147,-63 -38,-42 -56,-97 -56,-166 0,-70 18,-126 54,-168 36,-41 85,-62 146,-62 35,0 66,8 92,24 27,16 48,40 64,72l0 -80 72 0z"/>
  <path id="96" class="fil3" d="M12053 9662l0 -250c0,-43 -8,-75 -26,-96 -17,-21 -44,-32 -80,-32 -19,0 -37,4 -54,12 -16,8 -30,19 -42,34 -8,11 -14,24 -18,39 -3,15 -5,39 -5,73l0 220 -71 0 0 -250c0,-43 -9,-75 -26,-96 -17,-21 -44,-32 -80,-32 -19,0 -38,4 -54,12 -17,8 -31,19 -43,34 -8,11 -14,23 -17,37 -4,15 -6,40 -6,75l0 220 -70 0 0 -425 71 0 0 65c18,-27 39,-47 64,-61 24,-13 52,-20 84,-20 35,0 64,8 88,22 24,15 42,37 55,65 18,-29 40,-51 65,-65 25,-14 54,-22 87,-22 47,0 84,14 111,40 26,27 40,64 40,112l0 289 -73 0z"/>
  <path id="97" class="fil3" d="M12339 9451c0,48 13,86 40,115 26,29 61,43 105,43 42,0 75,-13 100,-40 24,-26 36,-62 36,-109 0,-53 -12,-94 -36,-124 -25,-29 -59,-44 -102,-44 -44,0 -79,14 -105,42 -25,28 -38,67 -38,117zm-70 419l0 -633 69 0 0 80c17,-31 39,-55 65,-71 27,-16 58,-25 91,-25 61,0 110,21 148,63 37,42 55,98 55,167 0,70 -18,126 -54,167 -37,42 -85,62 -147,62 -34,0 -65,-7 -91,-24 -26,-15 -47,-39 -64,-71l0 285 -72 0z"/>
  <path id="98" class="fil3" d="M12856 9451c0,45 15,83 45,114 31,31 67,47 110,47 42,0 79,-16 108,-47 30,-31 45,-69 45,-114 0,-45 -15,-83 -45,-114 -29,-32 -66,-47 -108,-47 -43,0 -80,15 -110,47 -30,31 -45,69 -45,114zm-77 0c0,-32 6,-61 17,-89 12,-28 29,-52 51,-74 22,-22 47,-38 75,-50 28,-11 57,-17 89,-17 31,0 60,6 88,18 28,11 53,28 76,50 22,21 38,46 50,73 11,28 17,58 17,89 0,31 -6,60 -17,87 -12,28 -28,52 -50,74 -23,22 -48,39 -76,51 -29,12 -58,17 -88,17 -31,0 -61,-5 -89,-17 -28,-12 -53,-28 -75,-50 -22,-22 -39,-47 -51,-74 -11,-28 -17,-57 -17,-88z"/>
  <path id="99" class="fil3" d="M13963 9561l0 85c-19,12 -41,20 -65,26 -24,6 -50,8 -78,8 -66,0 -118,-20 -159,-62 -40,-42 -60,-97 -60,-165 0,-68 21,-124 62,-167 42,-43 95,-65 160,-65 23,0 46,3 69,8 23,5 44,12 64,22l0 78c-19,-12 -38,-21 -58,-28 -20,-6 -40,-9 -61,-9 -47,0 -86,15 -115,45 -28,30 -43,69 -43,119 0,44 15,80 44,110 29,29 65,44 109,44 22,0 43,-4 64,-12 22,-8 44,-20 67,-37z"/>
  <path id="100" class="fil3" d="M14107 9451c0,45 15,83 45,114 30,31 67,47 109,47 43,0 79,-16 109,-47 30,-31 45,-69 45,-114 0,-45 -15,-83 -45,-114 -30,-32 -66,-47 -109,-47 -43,0 -79,15 -109,47 -30,31 -45,69 -45,114zm-77 0c0,-32 6,-61 17,-89 12,-28 28,-52 50,-74 22,-22 47,-38 75,-50 28,-11 58,-17 90,-17 31,0 60,6 88,18 27,11 53,28 75,50 22,21 39,46 51,73 11,28 17,58 17,89 0,31 -6,60 -17,87 -12,28 -29,52 -51,74 -22,22 -48,39 -76,51 -28,12 -57,17 -87,17 -32,0 -62,-5 -90,-17 -28,-12 -53,-28 -75,-50 -22,-22 -38,-47 -50,-74 -11,-28 -17,-57 -17,-88z"/>
  <polygon id="101" class="fil3" points="14610,9662 14610,8941 14684,8941 14684,9662 "/>
  <path id="102" class="fil3" d="M14879 9451c0,45 16,83 46,114 30,31 66,47 109,47 42,0 79,-16 108,-47 30,-31 45,-69 45,-114 0,-45 -15,-83 -45,-114 -29,-32 -66,-47 -108,-47 -43,0 -80,15 -110,47 -30,31 -45,69 -45,114zm-77 0c0,-32 6,-61 17,-89 12,-28 29,-52 51,-74 22,-22 47,-38 75,-50 28,-11 57,-17 89,-17 31,0 60,6 88,18 28,11 53,28 76,50 22,21 38,46 50,73 11,28 17,58 17,89 0,31 -6,60 -17,87 -12,28 -28,52 -50,74 -23,22 -48,39 -76,51 -28,12 -58,17 -88,17 -31,0 -61,-5 -89,-17 -28,-12 -53,-28 -75,-50 -22,-22 -39,-47 -51,-74 -11,-28 -17,-57 -17,-88z"/>
  <path id="103" class="fil3" d="M15971 9662l0 -250c0,-43 -9,-75 -26,-96 -18,-21 -44,-32 -80,-32 -20,0 -38,4 -54,12 -17,8 -31,19 -42,34 -9,11 -15,24 -18,39 -4,15 -6,39 -6,73l0 220 -70 0 0 -250c0,-43 -9,-75 -26,-96 -18,-21 -44,-32 -80,-32 -20,0 -38,4 -55,12 -17,8 -31,19 -42,34 -8,11 -14,23 -18,37 -3,15 -5,40 -5,75l0 220 -71 0 0 -425 72 0 0 65c17,-27 39,-47 63,-61 24,-13 53,-20 85,-20 34,0 63,8 88,22 24,15 42,37 54,65 19,-29 40,-51 65,-65 25,-14 54,-22 87,-22 48,0 85,14 111,40 27,27 40,64 40,112l0 289 -72 0z"/>
  <path id="104" class="fil3" d="M16256 9452c0,49 12,88 38,116 25,28 60,42 105,42 43,0 77,-15 102,-44 24,-30 37,-71 37,-124 0,-46 -12,-82 -37,-109 -24,-26 -57,-39 -100,-39 -43,0 -79,14 -105,43 -27,29 -40,67 -40,115zm-70 -511l73 0 0 376c16,-32 37,-56 63,-72 26,-16 57,-24 92,-24 61,0 110,21 146,63 37,41 55,97 55,167 0,69 -19,124 -56,166 -37,43 -86,63 -148,63 -33,0 -63,-8 -90,-24 -26,-17 -48,-40 -65,-71l0 77 -70 0 0 -721z"/>
  <path id="105" class="fil3" d="M16718 9031c0,-14 5,-26 15,-37 11,-10 23,-16 38,-16 15,0 27,6 38,16 10,11 15,24 15,38 0,15 -5,28 -15,38 -10,10 -23,15 -38,15 -15,0 -27,-5 -38,-15 -10,-10 -15,-23 -15,-39zm17 631l0 -425 73 0 0 425 -73 0z"/>
  <path id="106" class="fil3" d="M17287 9454c0,-48 -13,-87 -39,-116 -26,-30 -60,-44 -103,-44 -43,0 -77,13 -102,40 -24,27 -37,65 -37,113 0,52 13,91 37,119 25,28 60,42 105,42 44,0 78,-13 102,-41 25,-27 37,-65 37,-113zm71 -217l0 425 -71 0 0 -77c-17,31 -39,55 -65,71 -27,16 -56,24 -89,24 -61,0 -110,-20 -148,-63 -37,-42 -56,-97 -56,-166 0,-70 18,-126 55,-168 36,-41 84,-62 145,-62 36,0 67,8 93,24 26,16 47,40 63,72l0 -80 73 0z"/>
  <path id="107" class="fil3" d="M17503 9662l0 -425 72 0 0 65c18,-27 40,-47 66,-61 26,-13 55,-20 89,-20 50,0 90,14 118,40 28,27 42,64 42,112l0 289 -74 0 0 -250c0,-43 -9,-75 -27,-96 -19,-21 -47,-32 -84,-32 -22,0 -42,4 -60,12 -17,8 -32,19 -44,34 -9,11 -16,24 -19,38 -4,14 -6,39 -6,74l0 220 -73 0z"/>
  <path id="108" class="fil3" d="M18077 9451c0,45 15,83 45,114 30,31 67,47 109,47 43,0 79,-16 109,-47 30,-31 45,-69 45,-114 0,-45 -15,-83 -45,-114 -30,-32 -66,-47 -109,-47 -43,0 -79,15 -109,47 -30,31 -45,69 -45,114zm-77 0c0,-32 6,-61 17,-89 12,-28 28,-52 50,-74 22,-22 47,-38 75,-50 28,-11 58,-17 90,-17 31,0 60,6 88,18 27,11 53,28 75,50 22,21 39,46 51,73 11,28 17,58 17,89 0,31 -6,60 -17,87 -12,28 -29,52 -51,74 -22,22 -48,39 -76,51 -28,12 -57,17 -87,17 -32,0 -62,-5 -90,-17 -28,-12 -53,-28 -75,-50 -22,-22 -38,-47 -50,-74 -11,-28 -17,-57 -17,-88z"/>
  <polygon id="109" class="fil3" points="18558,9798 18646,9544 18725,9572 18611,9819 "/>
  <path id="110" class="fil3" d="M3874 10804l0 -681 160 0c46,0 79,3 100,8 22,5 40,14 56,26 21,16 36,37 47,64 12,26 17,55 17,88 0,55 -15,98 -47,127 -31,29 -76,43 -137,43l-14 0 260 325 -103 0 -248 -325 -12 0 0 325 -79 0zm79 -612l0 227 62 0c63,0 106,-8 127,-24 21,-16 32,-45 32,-85 0,-44 -11,-75 -33,-92 -22,-18 -64,-26 -126,-26l-62 0z"/>
  <path id="111" class="fil3" d="M4678 10543c-2,-37 -15,-66 -37,-87 -23,-20 -53,-30 -93,-30 -35,0 -64,11 -88,32 -24,21 -37,49 -41,85l259 0zm78 59l-337 0 0 7c0,45 13,82 39,110 26,28 60,42 102,42 28,0 54,-7 77,-23 23,-15 44,-38 61,-69l55 37c-21,38 -48,67 -81,87 -34,20 -72,29 -116,29 -65,0 -117,-21 -157,-64 -40,-43 -60,-99 -60,-168 0,-67 20,-122 60,-164 39,-43 90,-64 153,-64 62,0 112,20 149,61 37,40 55,95 55,165l0 14z"/>
  <path id="112" class="fil3" d="M4885 10804l0 -366 -82 0 0 -60 82 0 0 -123c0,-71 9,-118 27,-143 18,-25 50,-38 96,-38 11,0 22,1 33,3 10,1 20,4 30,7l0 75c-9,-5 -19,-9 -28,-11 -10,-3 -19,-4 -29,-4 -22,0 -36,7 -45,20 -7,14 -12,48 -12,101l0 113 114 0 0 60 -112 0 0 366 -74 0z"/>
  <path id="113" class="fil3" d="M5184 10593c0,45 15,83 45,114 30,31 67,47 110,47 42,0 78,-16 108,-47 30,-31 45,-69 45,-114 0,-45 -15,-83 -45,-115 -30,-31 -66,-46 -108,-46 -43,0 -80,15 -110,46 -30,32 -45,70 -45,115zm-77 -1c0,-31 6,-60 17,-88 12,-28 28,-53 50,-74 22,-22 47,-39 75,-50 28,-11 58,-17 90,-17 31,0 60,6 88,17 28,12 53,28 75,51 22,21 39,45 51,73 11,28 17,57 17,88 0,31 -6,61 -17,88 -12,28 -29,52 -51,73 -22,23 -48,40 -76,52 -28,11 -57,17 -87,17 -32,0 -61,-6 -90,-17 -28,-12 -53,-29 -75,-50 -22,-23 -38,-47 -50,-75 -11,-27 -17,-56 -17,-88z"/>
  <path id="114" class="fil3" d="M5684 10804l0 -426 65 0 0 89c19,-37 40,-63 62,-79 22,-16 49,-24 81,-24 9,0 17,1 25,2 8,2 16,4 24,6l-24 66c-8,-3 -16,-5 -24,-6 -7,-1 -14,-2 -21,-2 -39,0 -68,14 -87,42 -19,27 -29,69 -29,125l0 207 -72 0z"/>
  <path id="115" class="fil3" d="M6610 10804l0 -251c0,-43 -9,-75 -26,-96 -18,-21 -44,-31 -80,-31 -20,0 -38,4 -54,12 -17,8 -31,19 -42,34 -9,11 -15,24 -18,39 -4,14 -6,39 -6,73l0 220 -70 0 0 -251c0,-43 -9,-75 -26,-96 -18,-21 -44,-31 -80,-31 -20,0 -38,4 -55,12 -17,8 -31,19 -42,34 -8,10 -14,23 -18,37 -3,14 -5,40 -5,75l0 220 -71 0 0 -426 72 0 0 66c17,-27 39,-48 63,-61 24,-13 53,-20 85,-20 34,0 63,7 88,22 24,15 42,37 54,65 19,-29 40,-51 65,-65 25,-15 54,-22 87,-22 48,0 85,13 111,40 27,27 40,64 40,111l0 290 -72 0z"/>
  <path id="116" class="fil3" d="M7151 10595c0,-48 -13,-86 -39,-116 -27,-29 -61,-44 -103,-44 -44,0 -78,14 -102,41 -25,27 -37,65 -37,113 0,51 12,91 37,119 25,28 60,42 105,42 43,0 77,-14 102,-41 25,-27 37,-65 37,-114zm70 -217l0 426 -70 0 0 -77c-17,31 -39,55 -65,71 -27,16 -57,24 -89,24 -61,0 -111,-21 -148,-63 -37,-42 -56,-97 -56,-167 0,-70 18,-125 54,-167 37,-41 85,-62 146,-62 35,0 66,8 93,24 26,16 47,40 63,72l0 -81 72 0z"/>
  <path id="117" class="fil3" d="M7656 10804l0 -681 160 0c45,0 79,3 100,8 21,5 40,14 56,26 20,16 36,37 47,64 11,26 17,55 17,88 0,55 -16,98 -47,127 -31,29 -77,43 -137,43l-14 0 260 325 -103 0 -249 -325 -11 0 0 325 -79 0zm79 -612l0 227 61 0c64,0 106,-8 128,-24 21,-16 32,-45 32,-85 0,-44 -11,-75 -33,-92 -22,-18 -64,-26 -127,-26l-61 0z"/>
  <path id="118" class="fil3" d="M8226 10378l0 210c0,61 9,104 28,128 18,24 48,37 91,37 43,0 74,-12 92,-36 18,-25 27,-67 27,-129l0 -210 74 0 0 249c0,64 -17,113 -49,146 -33,33 -82,49 -145,49 -64,0 -112,-16 -145,-49 -32,-34 -49,-82 -49,-146l0 -249 76 0z"/>
  <path id="119" class="fil3" d="M8680 10804l0 -426 65 0 0 89c19,-37 40,-63 62,-79 22,-16 49,-24 80,-24 9,0 18,1 26,2 8,2 16,4 24,6l-24 66c-9,-3 -17,-5 -24,-6 -8,-1 -15,-2 -22,-2 -38,0 -67,14 -86,42 -19,27 -29,69 -29,125l0 207 -72 0z"/>
  <path id="120" class="fil3" d="M9339 10595c0,-48 -13,-86 -40,-116 -26,-29 -60,-44 -102,-44 -44,0 -78,14 -102,41 -25,27 -37,65 -37,113 0,51 12,91 37,119 24,28 59,42 105,42 43,0 77,-14 102,-41 24,-27 37,-65 37,-114zm70 -217l0 426 -70 0 0 -77c-17,31 -39,55 -66,71 -26,16 -56,24 -89,24 -61,0 -110,-21 -147,-63 -38,-42 -56,-97 -56,-167 0,-70 18,-125 54,-167 36,-41 85,-62 146,-62 35,0 66,8 92,24 27,16 48,40 64,72l0 -81 72 0z"/>
  <polygon id="121" class="fil3" points="9559,10804 9559,10083 9633,10083 9633,10804 "/>
  <polygon id="122" class="fil3" points="10075,10804 10075,10123 10156,10123 10156,10804 "/>
  <path id="123" class="fil3" d="M10313 10804l0 -426 71 0 0 66c19,-27 41,-48 66,-61 26,-13 56,-20 90,-20 50,0 89,13 117,40 29,27 43,64 43,111l0 290 -75 0 0 -251c0,-43 -9,-75 -27,-96 -18,-21 -46,-31 -84,-31 -21,0 -41,4 -59,12 -18,8 -33,19 -45,34 -8,11 -15,23 -19,38 -4,14 -6,39 -6,74l0 220 -72 0z"/>
  <polygon id="124" class="fil3" points="10855,10438 10777,10438 10777,10378 10855,10378 10855,10207 10929,10207 10929,10378 11008,10378 11008,10438 10929,10438 10929,10804 10855,10804 "/>
  <path id="125" class="fil3" d="M11392 10543c-2,-37 -15,-66 -37,-87 -23,-20 -53,-30 -93,-30 -35,0 -64,11 -88,32 -24,21 -37,49 -41,85l259 0zm78 59l-337 0 0 7c0,45 13,82 39,110 26,28 60,42 102,42 28,0 54,-7 77,-23 23,-15 44,-38 61,-69l55 37c-21,38 -48,67 -81,87 -34,20 -72,29 -116,29 -65,0 -117,-21 -157,-64 -40,-43 -60,-99 -60,-168 0,-67 20,-122 60,-164 39,-43 90,-64 153,-64 63,0 112,20 149,61 37,40 55,95 55,165l0 14z"/>
  <path id="126" class="fil3" d="M11906 10593c0,-48 -13,-87 -39,-116 -27,-29 -61,-43 -103,-43 -44,0 -78,13 -103,40 -24,27 -36,65 -36,113 0,52 12,91 37,119 24,28 59,42 105,42 43,0 77,-14 102,-41 24,-28 37,-66 37,-114zm70 -215l0 419c0,46 -3,79 -9,98 -6,20 -17,37 -31,53 -20,21 -44,37 -73,48 -28,11 -61,16 -98,16 -65,0 -115,-15 -151,-45 -37,-29 -55,-71 -57,-125l82 0 0 6c0,32 11,56 33,74 22,17 53,26 94,26 29,0 54,-5 74,-14 21,-10 37,-24 47,-42 7,-11 12,-23 14,-37 3,-14 5,-34 5,-60l0 -34 0 -38c-17,31 -38,54 -65,70 -27,16 -57,24 -90,24 -61,0 -110,-20 -147,-62 -38,-41 -56,-97 -56,-165 0,-70 18,-125 54,-166 36,-41 85,-61 146,-61 35,0 66,8 93,24 26,16 47,40 63,71l0 -80 72 0z"/>
  <path id="127" class="fil3" d="M12125 10804l0 -426 65 0 0 89c19,-37 40,-63 62,-79 22,-16 49,-24 80,-24 9,0 18,1 26,2 8,2 16,4 24,6l-24 66c-9,-3 -17,-5 -24,-6 -8,-1 -15,-2 -22,-2 -38,0 -67,14 -86,42 -19,27 -29,69 -29,125l0 207 -72 0z"/>
  <path id="128" class="fil3" d="M12784 10595c0,-48 -13,-86 -40,-116 -26,-29 -60,-44 -102,-44 -44,0 -78,14 -102,41 -25,27 -37,65 -37,113 0,51 12,91 37,119 24,28 59,42 105,42 43,0 77,-14 102,-41 24,-27 37,-65 37,-114zm70 -217l0 426 -70 0 0 -77c-17,31 -39,55 -66,71 -26,16 -56,24 -89,24 -61,0 -110,-21 -147,-63 -38,-42 -56,-97 -56,-167 0,-70 18,-125 54,-167 36,-41 85,-62 146,-62 35,0 66,8 92,24 27,16 48,40 64,72l0 -81 72 0z"/>
  <polygon id="129" class="fil3" points="13004,10804 13004,10083 13078,10083 13078,10804 "/>
  <polygon id="130" class="fil3" points="13503,10555 13720,10555 13720,10629 13503,10629 "/>
  <path id="131" class="fil3" d="M13868 10804l0 -681 160 0c45,0 79,3 100,8 21,5 40,14 56,26 20,16 36,37 47,64 11,26 17,55 17,88 0,55 -16,98 -47,127 -31,29 -77,43 -137,43l-14 0 260 325 -103 0 -249 -325 -11 0 0 325 -79 0zm79 -612l0 227 62 0c63,0 105,-8 127,-24 21,-16 32,-45 32,-85 0,-44 -11,-75 -33,-92 -22,-18 -64,-26 -126,-26l-62 0z"/>
  <path id="132" class="fil3" d="M14378 10804l0 -681 160 0c45,0 79,3 100,8 21,5 40,14 56,26 20,16 36,37 47,64 11,26 17,55 17,88 0,55 -16,98 -47,127 -31,29 -77,43 -137,43l-14 0 260 325 -103 0 -249 -325 -11 0 0 325 -79 0zm79 -612l0 227 61 0c64,0 106,-8 128,-24 21,-16 32,-45 32,-85 0,-44 -11,-75 -33,-92 -22,-18 -65,-26 -127,-26l-61 0z"/>
  <polygon id="133" class="fil3" points="14888,10804 14888,10123 14969,10123 14969,10804 "/>
  <polygon id="134" class="fil3" points="15118,10555 15335,10555 15335,10629 15118,10629 "/>
  <path id="135" class="fil3" d="M15630 10137l0 258 -54 0 0 -258 54 0zm-131 0l0 258 -54 0 0 -258 54 0z"/>
  <path id="136" class="fil3" d="M15760 10759c0,-16 5,-29 16,-40 11,-10 24,-16 39,-16 16,0 29,6 40,16 11,11 16,24 16,40 0,15 -5,28 -16,38 -11,10 -24,16 -40,16 -15,0 -28,-6 -39,-16 -11,-10 -16,-23 -16,-38z"/>
  <polygon id="137" class="fil3" points="16319,10804 16319,10123 16678,10123 16678,10197 16400,10197 16400,10393 16678,10393 16678,10468 16400,10468 16400,10729 16678,10729 16678,10804 "/>
  <path id="138" class="fil3" d="M16763 10732l62 -41c12,22 27,39 45,50 18,12 39,17 63,17 24,0 44,-5 58,-17 15,-12 23,-28 23,-47 0,-15 -6,-27 -16,-37 -10,-10 -27,-19 -51,-27l-13 -4c-103,-36 -155,-81 -155,-134 0,-38 14,-69 42,-93 28,-24 64,-36 109,-36 37,0 68,7 95,22 26,15 45,36 56,63l-59 36c-8,-19 -21,-35 -38,-45 -17,-11 -37,-16 -59,-16 -21,0 -39,6 -52,18 -14,12 -20,27 -20,46 0,26 28,48 84,65 11,4 19,7 25,8 46,15 79,32 97,51 18,19 27,45 27,76 0,40 -14,73 -43,98 -29,25 -66,37 -112,37 -40,0 -74,-7 -101,-22 -28,-15 -50,-37 -67,-68z"/>
  <polygon id="139" class="fil3" points="17207,10438 17129,10438 17129,10378 17207,10378 17207,10207 17281,10207 17281,10378 17359,10378 17359,10438 17281,10438 17281,10804 17207,10804 "/>
  <path id="140" class="fil3" d="M17485 10593c0,45 15,83 45,114 30,31 67,47 109,47 43,0 79,-16 109,-47 30,-31 45,-69 45,-114 0,-45 -15,-83 -45,-115 -30,-31 -66,-46 -109,-46 -43,0 -79,15 -109,46 -30,32 -45,70 -45,115zm-77 -1c0,-31 6,-60 17,-88 12,-28 28,-53 50,-74 22,-22 47,-39 75,-50 28,-11 58,-17 90,-17 31,0 60,6 88,17 28,12 53,28 75,51 22,21 39,45 51,73 11,28 17,57 17,88 0,31 -6,61 -17,88 -12,28 -29,52 -51,73 -22,23 -48,40 -76,52 -28,11 -57,17 -87,17 -32,0 -62,-6 -90,-17 -28,-12 -53,-29 -75,-50 -22,-23 -38,-47 -50,-75 -11,-27 -17,-56 -17,-88z"/>
  <path id="141" class="fil3" d="M17939 10732l62 -41c12,22 27,39 45,50 18,12 39,17 64,17 23,0 43,-5 58,-17 14,-12 22,-28 22,-47 0,-15 -5,-27 -15,-37 -11,-10 -28,-19 -52,-27l-12 -4c-104,-36 -156,-81 -156,-134 0,-38 14,-69 42,-93 28,-24 64,-36 109,-36 37,0 68,7 95,22 26,15 45,36 56,63l-58 36c-9,-19 -22,-35 -39,-45 -17,-11 -36,-16 -59,-16 -21,0 -39,6 -52,18 -14,12 -20,27 -20,46 0,26 28,48 84,65 11,4 19,7 26,8 46,15 78,32 96,51 18,19 27,45 27,76 0,40 -14,73 -43,98 -29,25 -66,37 -112,37 -40,0 -74,-7 -101,-22 -28,-15 -50,-37 -67,-68z"/>
  <path id="142" class="fil3" d="M3731 11874l62 -42c12,23 27,40 45,51 18,11 39,17 63,17 24,0 44,-6 58,-18 15,-11 23,-27 23,-46 0,-15 -6,-27 -16,-37 -10,-10 -27,-19 -51,-27l-13 -5c-103,-35 -155,-80 -155,-134 0,-38 14,-68 42,-92 28,-24 64,-36 109,-36 37,0 68,7 95,22 26,15 45,35 56,62l-59 37c-8,-20 -21,-35 -38,-45 -17,-11 -37,-16 -59,-16 -21,0 -39,6 -52,18 -14,12 -20,27 -20,46 0,26 28,48 84,65 11,4 19,6 25,8 46,15 79,32 97,51 18,19 27,44 27,76 0,40 -14,73 -43,97 -29,25 -66,38 -112,38 -40,0 -74,-8 -101,-22 -28,-15 -50,-38 -67,-68z"/>
  <path id="143" class="fil3" d="M4466 11685c-3,-38 -15,-67 -38,-87 -22,-20 -53,-30 -92,-30 -36,0 -65,10 -89,32 -23,21 -37,49 -41,85l260 0zm78 59l-338 0 0 6c0,46 13,83 40,111 26,28 60,42 101,42 29,0 55,-8 78,-23 23,-15 43,-38 61,-69l55 37c-21,38 -49,67 -82,87 -33,19 -72,29 -115,29 -65,0 -118,-22 -158,-64 -40,-43 -60,-99 -60,-169 0,-66 20,-121 60,-163 40,-43 91,-64 153,-64 63,0 113,20 150,60 36,41 55,96 55,165l0 15z"/>
  <path id="144" class="fil3" d="M5260 11737c0,-48 -13,-87 -39,-116 -26,-29 -61,-44 -103,-44 -44,0 -78,14 -102,41 -25,27 -37,64 -37,113 0,51 12,91 37,119 25,28 60,42 105,42 43,0 77,-14 102,-41 25,-27 37,-65 37,-114zm71 -217l0 426 -71 0 0 -77c-17,31 -39,54 -65,70 -27,17 -57,25 -89,25 -61,0 -111,-21 -148,-63 -37,-42 -56,-98 -56,-167 0,-70 18,-126 54,-167 37,-42 85,-62 146,-62 36,0 66,8 93,24 26,16 47,40 63,71l0 -80 73 0z"/>
  <path id="145" class="fil3" d="M5803 11845l0 85c-19,11 -41,20 -65,25 -24,6 -50,9 -78,9 -66,0 -119,-21 -159,-63 -40,-41 -60,-96 -60,-164 0,-68 21,-124 62,-167 42,-44 95,-65 160,-65 23,0 46,2 69,7 22,5 44,13 63,22l0 78c-18,-12 -37,-21 -57,-27 -20,-7 -40,-10 -61,-10 -48,0 -86,15 -115,45 -29,30 -43,70 -43,119 0,44 14,81 43,110 30,30 66,44 110,44 22,0 43,-4 64,-11 21,-8 44,-20 67,-37z"/>
  <path id="146" class="fil3" d="M5947 11734c0,45 15,83 45,115 30,31 67,46 109,46 43,0 79,-15 109,-46 30,-32 44,-70 44,-115 0,-45 -14,-83 -44,-114 -30,-31 -66,-47 -109,-47 -43,0 -79,16 -109,47 -30,31 -45,69 -45,114zm-77 0c0,-31 5,-61 17,-89 11,-27 28,-52 50,-74 22,-21 47,-38 75,-49 28,-11 58,-17 89,-17 31,0 61,6 89,17 27,12 52,28 75,50 22,22 39,46 50,74 12,28 18,57 18,88 0,31 -6,60 -18,88 -11,27 -28,52 -50,73 -23,22 -48,39 -76,51 -28,12 -57,18 -88,18 -31,0 -61,-6 -89,-18 -28,-11 -53,-28 -75,-50 -22,-22 -39,-47 -50,-74 -12,-27 -17,-57 -17,-88z"/>
  <path id="147" class="fil3" d="M6447 11946l0 -426 65 0 0 89c19,-37 40,-64 62,-79 22,-16 49,-24 81,-24 8,0 17,0 25,2 8,1 16,3 24,6l-24 66c-9,-3 -17,-5 -24,-6 -8,-2 -15,-2 -21,-2 -39,0 -68,13 -87,41 -19,28 -29,70 -29,125l0 208 -72 0z"/>
  <path id="148" class="fil3" d="M7106 11735c0,-47 -13,-85 -40,-114 -26,-29 -61,-44 -104,-44 -43,0 -77,13 -101,40 -24,26 -36,62 -36,109 0,52 12,93 37,123 24,30 58,44 101,44 45,0 80,-14 105,-41 25,-28 38,-67 38,-117zm70 -510l0 721 -70 0 0 -77c-17,30 -39,54 -65,70 -27,17 -57,25 -90,25 -61,0 -110,-21 -147,-63 -38,-42 -56,-98 -56,-167 0,-70 18,-125 55,-167 36,-41 85,-62 146,-62 35,0 66,8 92,24 26,16 47,40 63,71l0 -375 72 0z"/>
  <path id="149" class="fil3" d="M7651 11737c0,-48 -14,-87 -40,-116 -26,-29 -60,-44 -102,-44 -44,0 -78,14 -103,41 -24,27 -36,64 -36,113 0,51 12,91 37,119 24,28 59,42 104,42 44,0 78,-14 103,-41 24,-27 37,-65 37,-114zm70 -217l0 426 -70 0 0 -77c-17,31 -39,54 -66,70 -26,17 -56,25 -89,25 -61,0 -110,-21 -148,-63 -37,-42 -56,-98 -56,-167 0,-70 18,-126 55,-167 36,-42 85,-62 145,-62 36,0 67,8 93,24 26,16 48,40 64,71l0 -80 72 0z"/>
  <path id="150" class="fil3" d="M7868 11946l0 -426 64 0 0 89c20,-37 41,-64 63,-79 22,-16 49,-24 80,-24 9,0 17,0 26,2 8,1 16,3 24,6l-24 66c-9,-3 -17,-5 -24,-6 -8,-2 -15,-2 -22,-2 -38,0 -67,13 -86,41 -19,28 -29,70 -29,125l0 208 -72 0z"/>
  <path id="151" class="fil3" d="M8244 11734c0,45 15,83 45,115 30,31 67,46 109,46 43,0 79,-15 109,-46 30,-32 44,-70 44,-115 0,-45 -14,-83 -44,-114 -30,-31 -66,-47 -109,-47 -43,0 -79,16 -109,47 -30,31 -45,69 -45,114zm-77 0c0,-31 5,-61 17,-89 11,-27 28,-52 50,-74 22,-21 47,-38 75,-49 28,-11 58,-17 89,-17 31,0 61,6 89,17 27,12 52,28 75,50 22,22 39,46 50,74 12,28 18,57 18,88 0,31 -6,60 -18,88 -11,27 -28,52 -50,73 -23,22 -48,39 -76,51 -28,12 -57,18 -88,18 -31,0 -61,-6 -89,-18 -28,-11 -53,-28 -75,-50 -22,-22 -39,-47 -50,-74 -12,-27 -17,-57 -17,-88z"/>
  <path id="152" class="fil3" d="M8743 11946l0 -426 71 0 0 66c18,-28 40,-48 66,-61 26,-14 56,-20 89,-20 51,0 90,13 118,40 28,26 42,64 42,111l0 290 -74 0 0 -251c0,-43 -9,-75 -27,-96 -18,-21 -46,-31 -84,-31 -22,0 -42,4 -59,12 -18,8 -33,19 -45,33 -9,11 -15,24 -19,38 -4,15 -6,39 -6,75l0 220 -72 0z"/>
  <path id="153" class="fil3" d="M9856 11685c-2,-38 -15,-67 -37,-87 -22,-20 -53,-30 -92,-30 -36,0 -65,10 -89,32 -23,21 -37,49 -41,85l259 0zm78 59l-337 0 0 6c0,46 13,83 39,111 26,28 60,42 102,42 29,0 55,-8 77,-23 23,-15 44,-38 61,-69l56 37c-22,38 -49,67 -82,87 -33,19 -72,29 -116,29 -64,0 -117,-22 -157,-64 -40,-43 -60,-99 -60,-169 0,-66 20,-121 60,-163 39,-43 90,-64 153,-64 63,0 113,20 149,60 37,41 55,96 55,165l0 15z"/>
  <path id="154" class="fil3" d="M10044 11946l0 -426 72 0 0 66c18,-28 40,-48 66,-61 25,-14 55,-20 89,-20 50,0 89,13 117,40 29,26 43,64 43,111l0 290 -74 0 0 -251c0,-43 -9,-75 -28,-96 -18,-21 -46,-31 -84,-31 -21,0 -41,4 -59,12 -18,8 -32,19 -44,33 -9,11 -16,24 -20,38 -4,15 -5,39 -5,75l0 220 -73 0z"/>
  <path id="155" class="fil3" d="M11182 11737c0,-48 -14,-87 -40,-116 -26,-29 -60,-44 -102,-44 -44,0 -78,14 -103,41 -24,27 -36,64 -36,113 0,51 12,91 37,119 24,28 59,42 105,42 43,0 77,-14 102,-41 24,-27 37,-65 37,-114zm70 -217l0 426 -70 0 0 -77c-17,31 -39,54 -66,70 -26,17 -56,25 -89,25 -61,0 -110,-21 -148,-63 -37,-42 -56,-98 -56,-167 0,-70 19,-126 55,-167 36,-42 85,-62 145,-62 36,0 67,8 93,24 26,16 48,40 64,71l0 -80 72 0z"/>
  <path id="156" class="fil3" d="M11468 11734c0,48 13,86 40,115 26,29 61,43 104,43 43,0 76,-13 101,-39 24,-26 36,-63 36,-110 0,-52 -12,-93 -36,-123 -25,-30 -59,-45 -102,-45 -44,0 -79,14 -105,43 -25,28 -38,67 -38,116zm-70 419l0 -633 69 0 0 80c17,-30 38,-54 65,-70 27,-17 57,-25 91,-25 61,0 110,21 147,63 38,41 56,97 56,166 0,71 -18,126 -54,168 -37,41 -86,62 -147,62 -35,0 -65,-8 -91,-24 -26,-16 -47,-40 -64,-71l0 284 -72 0z"/>
  <path id="157" class="fil3" d="M11943 11946l0 -426 65 0 0 89c20,-37 41,-64 63,-79 22,-16 48,-24 80,-24 9,0 17,0 25,2 8,1 16,3 24,6l-24 66c-8,-3 -16,-5 -23,-6 -8,-2 -15,-2 -22,-2 -38,0 -67,13 -86,41 -20,28 -29,70 -29,125l0 208 -73 0z"/>
  <path id="158" class="fil3" d="M12320 11734c0,45 15,83 45,115 30,31 66,46 109,46 43,0 79,-15 109,-46 29,-32 44,-70 44,-115 0,-45 -15,-83 -44,-114 -30,-31 -66,-47 -109,-47 -43,0 -80,16 -110,47 -30,31 -44,69 -44,114zm-78 0c0,-31 6,-61 18,-89 11,-27 28,-52 50,-74 22,-21 47,-38 75,-49 28,-11 57,-17 89,-17 31,0 60,6 88,17 28,12 53,28 76,50 22,22 39,46 50,74 12,28 17,57 17,88 0,31 -5,60 -17,88 -11,27 -28,52 -50,73 -23,22 -48,39 -76,51 -28,12 -58,18 -88,18 -31,0 -61,-6 -89,-18 -28,-11 -53,-28 -75,-50 -22,-22 -39,-47 -50,-74 -12,-27 -18,-57 -18,-88z"/>
  <polygon id="159" class="fil3" points="12744,11946 12908,11726 12749,11520 12839,11520 12950,11672 13061,11520 13152,11520 12991,11726 13157,11946 13066,11946 12950,11781 12835,11946 "/>
  <path id="160" class="fil3" d="M13218 11315c0,-14 5,-27 15,-38 11,-10 23,-15 38,-15 15,0 27,5 38,16 10,10 15,23 15,38 0,15 -5,27 -15,37 -10,11 -23,16 -38,16 -15,0 -27,-5 -38,-16 -10,-10 -15,-23 -15,-38zm17 631l0 -426 73 0 0 426 -73 0z"/>
  <path id="161" class="fil3" d="M14054 11946l0 -251c0,-43 -9,-75 -26,-96 -17,-21 -44,-31 -80,-31 -19,0 -37,4 -54,12 -16,8 -30,19 -42,33 -8,11 -14,24 -18,39 -4,15 -6,40 -6,74l0 220 -70 0 0 -251c0,-43 -9,-75 -26,-96 -17,-21 -44,-31 -80,-31 -19,0 -38,4 -55,12 -16,8 -31,19 -42,33 -8,11 -14,24 -17,38 -4,14 -6,39 -6,75l0 220 -70 0 0 -426 71 0 0 66c18,-28 39,-48 63,-61 25,-14 53,-20 85,-20 34,0 64,7 88,22 24,15 42,36 55,64 18,-29 40,-50 65,-65 25,-14 54,-21 86,-21 48,0 85,13 112,40 26,26 40,64 40,111l0 290 -73 0z"/>
  <path id="162" class="fil3" d="M14595 11737c0,-48 -13,-87 -39,-116 -26,-29 -60,-44 -103,-44 -43,0 -77,14 -102,41 -24,27 -37,64 -37,113 0,51 13,91 37,119 25,28 60,42 105,42 44,0 78,-14 102,-41 25,-27 37,-65 37,-114zm71 -217l0 426 -71 0 0 -77c-17,31 -39,54 -65,70 -27,17 -56,25 -89,25 -61,0 -110,-21 -148,-63 -37,-42 -56,-98 -56,-167 0,-70 18,-126 55,-167 36,-42 84,-62 145,-62 36,0 67,8 93,24 26,16 47,40 63,71l0 -80 73 0z"/>
  <path id="163" class="fil3" d="M15137 11735c0,-47 -13,-85 -39,-114 -27,-29 -61,-44 -105,-44 -43,0 -76,13 -100,40 -25,26 -37,62 -37,109 0,52 12,93 37,123 24,30 58,44 101,44 45,0 80,-14 105,-41 25,-28 38,-67 38,-117zm71 -510l0 721 -71 0 0 -77c-17,30 -38,54 -65,70 -27,17 -56,25 -89,25 -61,0 -111,-21 -148,-63 -37,-42 -56,-98 -56,-167 0,-70 18,-125 55,-167 36,-41 85,-62 146,-62 35,0 66,8 92,24 26,16 47,40 63,71l0 -375 73 0z"/>
  <path id="164" class="fil3" d="M15682 11737c0,-48 -13,-87 -40,-116 -26,-29 -60,-44 -102,-44 -44,0 -78,14 -102,41 -25,27 -37,64 -37,113 0,51 12,91 37,119 24,28 60,42 105,42 43,0 77,-14 102,-41 24,-27 37,-65 37,-114zm70 -217l0 426 -70 0 0 -77c-17,31 -39,54 -66,70 -26,17 -56,25 -89,25 -61,0 -110,-21 -147,-63 -38,-42 -56,-98 -56,-167 0,-70 18,-126 54,-167 36,-42 85,-62 146,-62 35,0 66,8 92,24 27,16 48,40 64,71l0 -80 72 0z"/>
  <path id="165" class="fil3" d="M16490 11946l0 -251c0,-43 -8,-75 -26,-96 -17,-21 -44,-31 -80,-31 -19,0 -37,4 -54,12 -16,8 -30,19 -42,33 -8,11 -14,24 -18,39 -4,15 -5,40 -5,74l0 220 -71 0 0 -251c0,-43 -9,-75 -26,-96 -17,-21 -44,-31 -80,-31 -19,0 -38,4 -54,12 -17,8 -31,19 -43,33 -8,11 -14,24 -17,38 -4,14 -6,39 -6,75l0 220 -70 0 0 -426 71 0 0 66c18,-28 39,-48 64,-61 24,-14 52,-20 84,-20 35,0 64,7 88,22 24,15 42,36 55,64 18,-29 40,-50 65,-65 25,-14 54,-21 87,-21 47,0 84,13 111,40 26,26 40,64 40,111l0 290 -73 0z"/>
  <path id="166" class="fil3" d="M17008 11685c-3,-38 -15,-67 -38,-87 -22,-20 -53,-30 -92,-30 -35,0 -65,10 -88,32 -24,21 -38,49 -41,85l259 0zm78 59l-337 0 0 6c0,46 13,83 39,111 26,28 60,42 102,42 28,0 54,-8 77,-23 23,-15 43,-38 61,-69l55 37c-21,38 -49,67 -82,87 -33,19 -71,29 -115,29 -65,0 -117,-22 -157,-64 -40,-43 -60,-99 -60,-169 0,-66 19,-121 59,-163 40,-43 91,-64 153,-64 63,0 113,20 150,60 36,41 55,96 55,165l0 15z"/>
  <path id="167" class="fil3" d="M17196 11946l0 -426 71 0 0 66c18,-28 40,-48 66,-61 26,-14 56,-20 89,-20 51,0 90,13 118,40 28,26 42,64 42,111l0 290 -74 0 0 -251c0,-43 -9,-75 -27,-96 -18,-21 -46,-31 -84,-31 -22,0 -42,4 -60,12 -17,8 -32,19 -44,33 -9,11 -15,24 -19,38 -4,15 -6,39 -6,75l0 220 -72 0z"/>
  <polygon id="168" class="fil3" points="17738,11580 17660,11580 17660,11520 17738,11520 17738,11349 17812,11349 17812,11520 17890,11520 17890,11580 17812,11580 17812,11946 17738,11946 "/>
  <path id="169" class="fil3" d="M18275 11685c-3,-38 -15,-67 -38,-87 -22,-20 -53,-30 -92,-30 -35,0 -65,10 -88,32 -24,21 -38,49 -41,85l259 0zm78 59l-337 0 0 6c0,46 13,83 39,111 26,28 60,42 102,42 28,0 54,-8 77,-23 23,-15 43,-38 61,-69l55 37c-21,38 -49,67 -82,87 -33,19 -71,29 -115,29 -65,0 -117,-22 -157,-64 -40,-43 -60,-99 -60,-169 0,-66 19,-121 59,-163 40,-43 91,-64 153,-64 63,0 113,20 150,60 36,41 55,96 55,165l0 15z"/>
  <polygon id="170" class="fil3" points="4855,13079 5146,12484 4831,12484 4831,12413 5262,12413 4922,13113 "/>
  <path id="171" class="fil3" d="M6257 13088l0 -251c0,-43 -8,-75 -26,-96 -17,-21 -44,-32 -80,-32 -19,0 -37,4 -54,12 -16,8 -30,19 -42,34 -8,11 -14,24 -18,39 -4,15 -5,39 -5,74l0 220 -71 0 0 -251c0,-43 -9,-75 -26,-96 -17,-21 -44,-32 -80,-32 -19,0 -38,4 -54,12 -17,8 -31,19 -43,34 -8,11 -14,23 -17,38 -4,14 -6,39 -6,75l0 220 -70 0 0 -426 71 0 0 66c18,-28 39,-48 64,-61 24,-14 52,-20 84,-20 35,0 64,7 88,22 24,14 42,36 55,64 18,-29 40,-51 65,-65 25,-14 54,-21 87,-21 47,0 84,13 111,40 26,26 40,63 40,111l0 290 -73 0z"/>
  <path id="172" class="fil3" d="M6775 12827c-3,-38 -15,-67 -38,-87 -22,-20 -53,-31 -92,-31 -35,0 -65,11 -88,32 -24,21 -38,50 -41,86l259 0zm78 59l-337 0 0 6c0,46 13,83 39,111 26,28 60,42 102,42 28,0 54,-8 77,-23 23,-16 43,-39 61,-70l55 37c-21,39 -49,68 -82,87 -33,20 -71,30 -115,30 -65,0 -117,-22 -157,-64 -40,-43 -60,-100 -60,-169 0,-67 19,-121 59,-164 40,-42 91,-63 153,-63 63,0 113,20 150,60 36,40 55,95 55,165l0 15z"/>
  <path id="173" class="fil3" d="M6918 13016l62 -42c12,23 26,40 45,51 18,11 39,17 63,17 24,0 43,-6 58,-18 15,-12 22,-27 22,-46 0,-15 -5,-27 -15,-37 -10,-10 -27,-19 -52,-28l-12 -4c-103,-36 -155,-80 -155,-134 0,-38 14,-69 42,-93 28,-24 64,-35 108,-35 37,0 69,7 95,22 27,14 46,35 57,62l-59 37c-9,-20 -21,-35 -38,-46 -17,-10 -37,-15 -59,-15 -22,0 -39,6 -53,17 -13,12 -20,28 -20,46 0,26 29,48 85,66 11,3 19,6 25,8 46,15 78,32 96,51 19,19 28,44 28,75 0,41 -15,73 -43,98 -29,25 -66,38 -113,38 -39,0 -73,-8 -101,-23 -27,-14 -50,-37 -66,-67z"/>
  <path id="174" class="fil3" d="M7652 12827c-2,-38 -15,-67 -37,-87 -23,-20 -53,-31 -92,-31 -36,0 -65,11 -89,32 -24,21 -37,50 -41,86l259 0zm78 59l-337 0 0 6c0,46 13,83 39,111 26,28 60,42 102,42 29,0 54,-8 77,-23 23,-16 44,-39 61,-70l56 37c-22,39 -49,68 -82,87 -33,20 -72,30 -116,30 -64,0 -117,-22 -157,-64 -40,-43 -60,-100 -60,-169 0,-67 20,-121 60,-164 39,-42 90,-63 153,-63 63,0 112,20 149,60 37,40 55,95 55,165l0 15z"/>
  <path id="175" class="fil3" d="M7795 13016l63 -42c11,23 26,40 44,51 18,11 39,17 64,17 24,0 43,-6 58,-18 15,-12 22,-27 22,-46 0,-15 -5,-27 -15,-37 -10,-10 -28,-19 -52,-28l-12 -4c-104,-36 -156,-80 -156,-134 0,-38 14,-69 42,-93 28,-24 64,-35 109,-35 37,0 69,7 95,22 26,14 45,35 57,62l-59 37c-9,-20 -22,-35 -39,-46 -17,-10 -36,-15 -59,-15 -21,0 -39,6 -52,17 -13,12 -20,28 -20,46 0,26 28,48 84,66 11,3 20,6 26,8 46,15 78,32 96,51 18,19 27,44 27,75 0,41 -14,73 -43,98 -28,25 -66,38 -112,38 -40,0 -73,-8 -101,-23 -28,-14 -50,-37 -67,-67z"/>
  <path id="176" class="fil3" d="M8835 12877c0,-47 -14,-86 -40,-115 -26,-29 -61,-43 -104,-43 -43,0 -77,13 -101,39 -24,27 -36,63 -36,110 0,52 12,93 36,123 25,29 59,44 102,44 45,0 79,-14 105,-42 25,-28 38,-66 38,-116zm70 -510l0 721 -70 0 0 -77c-17,30 -39,54 -65,70 -27,16 -57,25 -90,25 -61,0 -110,-21 -147,-63 -38,-42 -56,-98 -56,-167 0,-70 18,-126 54,-167 37,-42 86,-62 146,-62 36,0 67,7 93,24 26,16 47,40 63,71l0 -375 72 0z"/>
  <path id="177" class="fil3" d="M9356 12827c-3,-38 -15,-67 -38,-87 -22,-20 -53,-31 -92,-31 -36,0 -65,11 -89,32 -23,21 -37,50 -41,86l260 0zm78 59l-338 0 0 6c0,46 13,83 39,111 27,28 60,42 102,42 29,0 55,-8 78,-23 23,-16 43,-39 61,-70l55 37c-22,39 -49,68 -82,87 -33,20 -72,30 -115,30 -65,0 -118,-22 -158,-64 -40,-43 -60,-100 -60,-169 0,-67 20,-121 60,-164 40,-42 91,-63 153,-63 63,0 113,20 150,60 36,40 55,95 55,165l0 15z"/>
  <path id="178" class="fil3" d="M10151 12987l0 84c-19,12 -41,20 -65,26 -24,6 -50,9 -78,9 -66,0 -118,-21 -159,-63 -40,-42 -60,-96 -60,-164 0,-69 21,-124 62,-168 42,-43 95,-64 160,-64 23,0 46,2 69,7 23,5 44,12 64,22l0 78c-19,-12 -38,-21 -58,-27 -20,-7 -40,-10 -61,-10 -47,0 -86,15 -115,45 -28,30 -43,70 -43,119 0,44 15,81 44,110 29,29 65,44 109,44 22,0 43,-4 64,-12 22,-7 44,-20 67,-36z"/>
  <path id="179" class="fil3" d="M10295 12876c0,45 15,83 45,114 30,32 67,47 109,47 43,0 79,-15 109,-47 30,-31 45,-69 45,-114 0,-45 -15,-83 -45,-114 -30,-31 -66,-47 -109,-47 -43,0 -79,16 -109,47 -30,31 -45,69 -45,114zm-77 0c0,-31 6,-61 17,-89 12,-27 28,-52 50,-74 22,-22 47,-38 75,-49 28,-12 58,-17 90,-17 31,0 60,5 88,17 27,11 53,28 75,50 22,21 39,46 51,74 11,27 17,57 17,88 0,31 -6,60 -17,88 -12,27 -29,51 -51,73 -22,22 -48,39 -76,51 -28,12 -57,18 -87,18 -32,0 -62,-6 -90,-18 -28,-11 -53,-28 -75,-50 -22,-22 -38,-47 -50,-74 -11,-28 -17,-57 -17,-88z"/>
  <path id="180" class="fil3" d="M10794 13088l0 -426 71 0 0 66c19,-28 41,-48 66,-61 26,-14 56,-20 90,-20 50,0 89,13 117,40 29,26 43,63 43,111l0 290 -75 0 0 -251c0,-43 -9,-75 -27,-96 -18,-21 -46,-32 -84,-32 -22,0 -41,4 -59,12 -18,8 -33,19 -45,34 -8,11 -15,24 -19,38 -4,14 -6,39 -6,75l0 220 -72 0z"/>
  <polygon id="181" class="fil3" points="11465,13114 11254,12662 11336,12662 11464,12959 11592,12662 11674,12662 "/>
  <path id="182" class="fil3" d="M12054 12827c-2,-38 -15,-67 -37,-87 -22,-20 -53,-31 -92,-31 -36,0 -65,11 -89,32 -23,21 -37,50 -41,86l259 0zm79 59l-338 0 0 6c0,46 13,83 39,111 26,28 60,42 102,42 29,0 55,-8 77,-23 23,-16 44,-39 61,-70l56 37c-22,39 -49,68 -82,87 -33,20 -72,30 -116,30 -64,0 -117,-22 -157,-64 -40,-43 -60,-100 -60,-169 0,-67 20,-121 60,-164 40,-42 90,-63 153,-63 63,0 113,20 149,60 37,40 56,95 56,165l0 15z"/>
  <path id="183" class="fil3" d="M12243 13088l0 -426 65 0 0 89c20,-37 40,-64 62,-80 23,-16 49,-24 81,-24 9,0 17,1 25,3 8,1 16,3 24,6l-24 66c-8,-3 -16,-5 -24,-7 -7,-1 -14,-2 -21,-2 -38,0 -67,14 -87,42 -19,28 -28,70 -28,125l0 208 -73 0z"/>
  <path id="184" class="fil3" d="M12532 13016l62 -42c12,23 27,40 45,51 18,11 39,17 63,17 24,0 43,-6 58,-18 15,-12 22,-27 22,-46 0,-15 -5,-27 -15,-37 -10,-10 -27,-19 -52,-28l-12 -4c-103,-36 -155,-80 -155,-134 0,-38 14,-69 42,-93 28,-24 64,-35 108,-35 37,0 69,7 95,22 27,14 46,35 57,62l-59 37c-9,-20 -21,-35 -38,-46 -17,-10 -37,-15 -59,-15 -22,0 -39,6 -53,17 -13,12 -20,28 -20,46 0,26 29,48 85,66 11,3 19,6 25,8 46,15 78,32 97,51 18,19 27,44 27,75 0,41 -15,73 -43,98 -29,25 -66,38 -113,38 -39,0 -73,-8 -101,-23 -27,-14 -50,-37 -66,-67z"/>
  <path id="185" class="fil3" d="M13290 12879c0,-48 -13,-87 -39,-116 -26,-29 -61,-44 -103,-44 -43,0 -78,13 -102,40 -25,27 -37,65 -37,113 0,52 13,92 37,119 25,28 60,42 105,42 43,0 78,-13 102,-40 25,-28 37,-65 37,-114zm71 -217l0 426 -71 0 0 -78c-17,31 -39,55 -65,71 -27,17 -56,25 -89,25 -61,0 -111,-21 -148,-63 -37,-42 -56,-98 -56,-167 0,-70 18,-126 54,-167 37,-42 85,-62 146,-62 36,0 67,7 93,24 26,16 47,40 63,71l0 -80 73 0z"/>
  <path id="186" class="fil3" d="M13833 12987l0 84c-19,12 -41,20 -65,26 -24,6 -50,9 -78,9 -66,0 -119,-21 -159,-63 -40,-42 -60,-96 -60,-164 0,-69 21,-124 62,-168 42,-43 95,-64 160,-64 23,0 46,2 69,7 22,5 44,12 63,22l0 78c-18,-12 -37,-21 -57,-27 -20,-7 -40,-10 -61,-10 -47,0 -86,15 -115,45 -29,30 -43,70 -43,119 0,44 14,81 44,110 29,29 65,44 109,44 22,0 43,-4 64,-12 21,-7 44,-20 67,-36z"/>
  <path id="187" class="fil3" d="M13921 12457c0,-15 5,-27 15,-38 11,-10 23,-15 38,-15 15,0 27,5 38,16 10,10 15,23 15,38 0,14 -5,27 -15,37 -10,10 -23,15 -38,15 -15,0 -27,-5 -38,-15 -10,-10 -15,-23 -15,-38zm17 631l0 -426 73 0 0 426 -73 0z"/>
  <path id="188" class="fil3" d="M14208 12876c0,45 15,83 45,114 30,32 66,47 109,47 43,0 79,-15 109,-47 29,-31 44,-69 44,-114 0,-45 -15,-83 -44,-114 -30,-31 -66,-47 -109,-47 -43,0 -80,16 -110,47 -30,31 -44,69 -44,114zm-78 0c0,-31 6,-61 18,-89 11,-27 28,-52 50,-74 22,-22 47,-38 75,-49 28,-12 57,-17 89,-17 31,0 60,5 88,17 28,11 53,28 76,50 22,21 39,46 50,74 12,27 17,57 17,88 0,31 -5,60 -17,88 -11,27 -28,51 -50,73 -23,22 -48,39 -76,51 -28,12 -58,18 -88,18 -31,0 -61,-6 -89,-18 -28,-11 -53,-28 -75,-50 -22,-22 -39,-47 -50,-74 -12,-28 -18,-57 -18,-88z"/>
  <path id="189" class="fil3" d="M14706 13088l0 -426 72 0 0 66c18,-28 40,-48 66,-61 26,-14 56,-20 89,-20 50,0 90,13 118,40 28,26 42,63 42,111l0 290 -74 0 0 -251c0,-43 -9,-75 -27,-96 -19,-21 -46,-32 -84,-32 -22,0 -42,4 -60,12 -17,8 -32,19 -44,34 -9,11 -15,24 -19,38 -4,14 -6,39 -6,75l0 220 -73 0z"/>
  <path id="190" class="fil3" d="M15539 12827c-2,-38 -15,-67 -37,-87 -23,-20 -54,-31 -93,-31 -35,0 -65,11 -88,32 -24,21 -37,50 -41,86l259 0zm78 59l-337 0 0 6c0,46 13,83 39,111 26,28 60,42 102,42 28,0 54,-8 77,-23 23,-16 43,-39 61,-70l55 37c-21,39 -48,68 -81,87 -34,20 -72,30 -116,30 -65,0 -117,-22 -157,-64 -40,-43 -60,-100 -60,-169 0,-67 20,-121 60,-164 39,-42 90,-63 153,-63 62,0 112,20 149,60 37,40 55,95 55,165l0 15z"/>
  <path id="191" class="fil3" d="M15682 13016l62 -42c12,23 27,40 45,51 18,11 39,17 64,17 23,0 43,-6 58,-18 14,-12 22,-27 22,-46 0,-15 -5,-27 -15,-37 -11,-10 -28,-19 -52,-28l-12 -4c-104,-36 -156,-80 -156,-134 0,-38 14,-69 42,-93 28,-24 64,-35 109,-35 37,0 68,7 95,22 26,14 45,35 56,62l-58 37c-9,-20 -22,-35 -39,-46 -17,-10 -36,-15 -59,-15 -21,0 -39,6 -52,17 -14,12 -20,28 -20,46 0,26 28,48 84,66 11,3 19,6 26,8 46,15 78,32 96,51 18,19 27,44 27,75 0,41 -14,73 -43,98 -29,25 -66,38 -112,38 -40,0 -74,-8 -101,-23 -28,-14 -50,-37 -67,-67z"/>
  <path id="192" class="fil3" d="M16698 12827c-3,-38 -15,-67 -38,-87 -22,-20 -53,-31 -92,-31 -35,0 -65,11 -88,32 -24,21 -38,50 -41,86l259 0zm78 59l-337 0 0 6c0,46 13,83 39,111 26,28 60,42 102,42 28,0 54,-8 77,-23 23,-16 43,-39 61,-70l55 37c-21,39 -49,68 -82,87 -33,20 -71,30 -115,30 -65,0 -117,-22 -157,-64 -40,-43 -60,-100 -60,-169 0,-67 19,-121 59,-164 40,-42 91,-63 153,-63 63,0 113,20 150,60 36,40 55,95 55,165l0 15z"/>
  <path id="193" class="fil3" d="M16885 13088l0 -426 72 0 0 66c18,-28 40,-48 66,-61 26,-14 56,-20 89,-20 50,0 90,13 118,40 28,26 42,63 42,111l0 290 -74 0 0 -251c0,-43 -9,-75 -27,-96 -19,-21 -46,-32 -84,-32 -22,0 -42,4 -60,12 -17,8 -32,19 -44,34 -9,11 -15,24 -19,38 -4,14 -6,39 -6,75l0 220 -73 0z"/>
  <polygon id="194" class="fil3" points="4816,14229 4816,13548 4897,13548 4897,14152 5154,14152 5154,14229 "/>
  <path id="195" class="fil3" d="M5552 14021c0,-48 -14,-87 -40,-116 -26,-30 -60,-44 -102,-44 -44,0 -78,13 -103,40 -24,27 -36,65 -36,113 0,52 12,91 37,119 24,28 59,42 104,42 44,0 78,-14 103,-41 24,-27 37,-65 37,-113zm70 -217l0 425 -70 0 0 -77c-17,31 -39,55 -66,71 -26,16 -56,24 -89,24 -61,0 -110,-21 -148,-63 -37,-42 -56,-97 -56,-166 0,-70 18,-126 55,-168 36,-41 85,-62 145,-62 36,0 67,8 93,24 26,16 48,40 64,72l0 -80 72 0z"/>
  <polygon id="196" class="fil3" points="6056,14229 6056,13548 6137,13548 6137,13810 6499,13810 6499,13548 6581,13548 6581,14229 6499,14229 6499,13887 6137,13887 6137,14229 "/>
  <path id="197" class="fil3" d="M7062 14021c0,-48 -13,-87 -39,-116 -26,-30 -61,-44 -103,-44 -43,0 -78,13 -102,40 -25,27 -37,65 -37,113 0,52 13,91 37,119 25,28 60,42 105,42 43,0 78,-14 102,-41 25,-27 37,-65 37,-113zm71 -217l0 425 -71 0 0 -77c-17,31 -39,55 -65,71 -27,16 -56,24 -89,24 -61,0 -111,-21 -148,-63 -37,-42 -56,-97 -56,-166 0,-70 18,-126 54,-168 37,-41 85,-62 146,-62 36,0 67,8 93,24 26,16 47,40 63,72l0 -80 73 0z"/>
  <path id="198" class="fil3" d="M7348 14019c0,49 12,88 38,116 25,28 60,42 105,42 43,0 77,-15 102,-45 24,-29 37,-70 37,-123 0,-46 -12,-82 -37,-109 -24,-26 -57,-39 -100,-39 -43,0 -79,14 -105,43 -27,29 -40,67 -40,115zm-70 -511l73 0 0 376c16,-32 37,-56 63,-72 26,-16 57,-24 92,-24 61,0 110,21 146,63 37,41 55,97 55,167 0,69 -19,124 -56,166 -37,42 -86,63 -148,63 -33,0 -63,-8 -90,-24 -26,-17 -48,-40 -65,-71l0 77 -70 0 0 -721z"/>
  <path id="199" class="fil3" d="M8149 14021c0,-48 -14,-87 -40,-116 -26,-30 -60,-44 -102,-44 -44,0 -78,13 -102,40 -25,27 -37,65 -37,113 0,52 12,91 37,119 24,28 59,42 105,42 43,0 77,-14 102,-41 24,-27 37,-65 37,-113zm70 -217l0 425 -70 0 0 -77c-17,31 -39,55 -66,71 -26,16 -56,24 -89,24 -61,0 -110,-21 -147,-63 -38,-42 -56,-97 -56,-166 0,-70 18,-126 54,-168 36,-41 85,-62 146,-62 35,0 66,8 92,24 26,16 48,40 64,72l0 -80 72 0z"/>
  <path id="200" class="fil3" d="M8365 14229l0 -425 71 0 0 65c18,-27 40,-47 66,-61 26,-13 56,-20 89,-20 51,0 90,14 118,40 28,27 42,64 42,112l0 289 -74 0 0 -250c0,-44 -9,-75 -27,-96 -18,-21 -46,-32 -84,-32 -22,0 -42,4 -59,12 -18,8 -33,19 -45,34 -9,11 -15,24 -19,38 -4,14 -6,39 -6,74l0 220 -72 0z"/>
  <path id="201" class="fil3" d="M9221 14021c0,-48 -13,-87 -39,-116 -26,-30 -61,-44 -103,-44 -43,0 -78,13 -102,40 -25,27 -37,65 -37,113 0,52 13,91 37,119 25,28 60,42 105,42 43,0 78,-14 102,-41 25,-27 37,-65 37,-113zm71 -217l0 425 -71 0 0 -77c-17,31 -39,55 -65,71 -27,16 -56,24 -89,24 -61,0 -111,-21 -148,-63 -37,-42 -56,-97 -56,-166 0,-70 18,-126 54,-168 37,-41 85,-62 146,-62 36,0 67,8 93,24 26,16 47,40 63,72l0 -80 73 0z"/>
  <polygon id="202" class="fil3" points="9419,14365 9508,14111 9587,14139 9473,14385 "/>
  <path id="203" class="fil3" d="M10559 13711c-32,-35 -67,-61 -104,-78 -37,-17 -78,-26 -122,-26 -36,0 -71,8 -106,22 -34,15 -64,35 -89,61 -26,27 -45,57 -58,91 -13,33 -20,70 -20,110 0,32 4,61 12,88 8,26 19,51 35,73 27,39 60,69 100,90 40,21 83,31 129,31 44,0 84,-9 121,-27 38,-18 72,-45 102,-80l0 107c-34,25 -70,43 -109,56 -39,12 -79,18 -121,18 -35,0 -71,-5 -105,-16 -34,-10 -66,-26 -96,-46 -49,-35 -87,-77 -113,-127 -26,-51 -40,-106 -40,-166 0,-52 9,-100 27,-143 17,-43 44,-82 80,-117 35,-33 73,-59 115,-75 43,-17 89,-25 138,-25 40,0 78,6 115,18 37,12 73,30 109,55l0 106z"/>
  <path id="204" class="fil3" d="M10759 13804l0 209c0,61 9,104 27,128 18,25 48,37 92,37 43,0 73,-12 91,-36 18,-24 27,-67 27,-129l0 -209 74 0 0 248c0,64 -16,113 -49,146 -33,33 -82,49 -145,49 -64,0 -112,-16 -144,-49 -33,-33 -50,-82 -50,-146l0 -248 77 0z"/>
  <path id="205" class="fil3" d="M11280 14019c0,49 13,88 39,116 25,28 60,42 104,42 44,0 78,-15 102,-45 25,-29 37,-70 37,-123 0,-46 -12,-82 -36,-109 -24,-26 -58,-39 -100,-39 -44,0 -79,14 -106,43 -26,29 -40,67 -40,115zm-69 -511l72 0 0 376c17,-32 38,-56 64,-72 26,-16 57,-24 91,-24 62,0 110,21 147,63 36,41 54,97 54,167 0,69 -18,124 -55,166 -38,42 -87,63 -148,63 -33,0 -63,-8 -90,-24 -27,-17 -49,-40 -66,-71l0 77 -69 0 0 -721z"/>
  <path id="206" class="fil3" d="M12081 14021c0,-48 -13,-87 -39,-116 -26,-30 -60,-44 -103,-44 -43,0 -77,13 -102,40 -25,27 -37,65 -37,113 0,52 13,91 37,119 25,28 60,42 105,42 43,0 78,-14 102,-41 25,-27 37,-65 37,-113zm71 -217l0 425 -71 0 0 -77c-17,31 -39,55 -65,71 -27,16 -56,24 -89,24 -61,0 -111,-21 -148,-63 -37,-42 -56,-97 -56,-166 0,-70 18,-126 55,-168 36,-41 84,-62 145,-62 36,0 67,8 93,24 26,16 47,40 63,72l0 -80 73 0z"/>
  <path id="207" class="fil3" d="M12308 14184c0,-16 5,-29 16,-39 11,-11 24,-17 39,-17 16,0 29,6 40,16 11,11 16,24 16,40 0,15 -5,28 -16,38 -11,11 -24,16 -40,16 -15,0 -29,-5 -39,-16 -11,-10 -16,-23 -16,-38z"/>
  <polygon id="208" class="fil3" points="13061,14256 12774,13548 12861,13548 13061,14069 13260,13548 13348,13548 "/>
  <path id="209" class="fil3" d="M13662 13968c-3,-37 -15,-66 -38,-86 -22,-21 -53,-31 -92,-31 -36,0 -65,11 -89,32 -23,21 -37,50 -41,85l260 0zm78 59l-338 0 0 7c0,45 14,82 40,110 26,28 60,42 101,42 29,0 55,-7 78,-23 23,-15 43,-38 61,-69l55 37c-21,39 -49,68 -82,87 -33,20 -72,29 -115,29 -65,0 -118,-21 -158,-64 -40,-43 -60,-99 -60,-168 0,-67 20,-121 60,-164 40,-42 91,-64 153,-64 63,0 113,20 150,61 36,40 55,95 55,165l0 14z"/>
  <path id="210" class="fil3" d="M14175 14021c0,-48 -13,-87 -39,-116 -26,-30 -61,-44 -103,-44 -43,0 -78,13 -102,40 -25,27 -37,65 -37,113 0,52 13,91 37,119 25,28 60,42 105,42 43,0 78,-14 102,-41 25,-27 37,-65 37,-113zm71 -217l0 425 -71 0 0 -77c-17,31 -39,55 -65,71 -27,16 -56,24 -89,24 -61,0 -111,-21 -148,-63 -37,-42 -56,-97 -56,-166 0,-70 18,-126 54,-168 37,-41 85,-62 146,-62 36,0 67,8 93,24 26,16 47,40 63,72l0 -80 73 0z"/>
  <path id="211" class="fil3" d="M14984 14229l0 -250c0,-44 -9,-75 -26,-96 -18,-21 -44,-32 -80,-32 -20,0 -38,4 -54,12 -17,8 -31,19 -42,34 -9,11 -15,24 -19,39 -3,15 -5,39 -5,73l0 220 -71 0 0 -250c0,-44 -8,-75 -26,-96 -17,-21 -44,-32 -79,-32 -20,0 -38,4 -55,12 -17,8 -31,19 -43,34 -8,11 -13,23 -17,37 -4,15 -5,40 -5,75l0 220 -71 0 0 -425 72 0 0 65c17,-27 38,-47 63,-61 24,-13 53,-20 84,-20 35,0 64,8 88,22 24,15 43,37 55,65 19,-29 40,-51 65,-65 25,-15 54,-22 87,-22 47,0 84,14 111,40 27,27 40,64 40,112l0 289 -72 0z"/>
  <path id="212" class="fil3" d="M15242 14018c0,45 15,83 45,114 30,31 67,47 109,47 43,0 79,-16 109,-47 30,-31 45,-69 45,-114 0,-45 -15,-83 -45,-114 -30,-32 -66,-47 -109,-47 -43,0 -79,15 -109,47 -30,31 -45,69 -45,114zm-77 0c0,-32 5,-61 17,-89 12,-28 28,-52 50,-74 22,-22 47,-38 75,-50 28,-11 58,-17 90,-17 31,0 60,6 88,17 27,12 53,29 75,51 22,21 39,46 51,73 11,28 17,58 17,89 0,31 -6,60 -17,87 -12,28 -29,52 -51,73 -22,23 -48,40 -76,52 -28,12 -57,17 -87,17 -32,0 -62,-5 -90,-17 -28,-12 -53,-28 -75,-50 -22,-22 -38,-47 -50,-75 -12,-27 -17,-56 -17,-87z"/>
  <path id="213" class="fil3" d="M15696 14158l62 -42c12,22 27,39 45,51 18,11 39,17 64,17 23,0 43,-6 58,-18 14,-12 22,-27 22,-47 0,-14 -5,-27 -15,-37 -11,-10 -28,-19 -52,-27l-12 -4c-104,-36 -156,-81 -156,-134 0,-38 14,-69 42,-93 28,-24 64,-36 109,-36 37,0 68,8 95,22 26,15 45,36 56,63l-58 36c-9,-19 -22,-34 -39,-45 -17,-10 -36,-16 -59,-16 -21,0 -39,6 -52,18 -14,12 -20,27 -20,46 0,26 28,48 84,66 11,3 19,6 25,8 47,15 79,32 97,51 18,19 27,44 27,75 0,40 -14,73 -43,98 -29,25 -66,37 -112,37 -40,0 -74,-7 -101,-22 -28,-15 -50,-37 -67,-67z"/>
  <path id="214" class="fil3" d="M16712 13968c-3,-37 -15,-66 -38,-86 -22,-21 -53,-31 -92,-31 -35,0 -65,11 -88,32 -24,21 -38,50 -41,85l259 0zm78 59l-337 0 0 7c0,45 13,82 39,110 26,28 60,42 102,42 28,0 54,-7 77,-23 23,-15 43,-38 61,-69l55 37c-21,39 -49,68 -82,87 -33,20 -71,29 -115,29 -65,0 -117,-21 -157,-64 -40,-43 -60,-99 -60,-168 0,-67 19,-121 59,-164 40,-42 91,-64 153,-64 63,0 113,20 150,61 36,40 55,95 55,165l0 14z"/>
  <path id="215" class="fil3" d="M16899 14229l0 -425 72 0 0 65c18,-27 40,-47 66,-61 26,-13 55,-20 89,-20 50,0 90,14 118,40 28,27 42,64 42,112l0 289 -74 0 0 -250c0,-44 -9,-75 -27,-96 -19,-21 -46,-32 -84,-32 -22,0 -42,4 -60,12 -17,8 -32,19 -44,34 -9,11 -15,24 -19,38 -4,14 -6,39 -6,74l0 220 -73 0z"/>
  <path id="216" class="fil3" d="M8499 15160c0,-50 -12,-89 -38,-117 -25,-28 -60,-43 -104,-43 -43,0 -77,15 -102,45 -25,30 -38,71 -38,123 0,47 13,84 37,110 24,26 58,40 101,40 43,0 78,-15 105,-44 26,-28 39,-67 39,-114zm71 419l-72 0 0 -285c-17,31 -38,55 -64,71 -26,16 -56,24 -92,24 -61,0 -110,-21 -146,-62 -36,-41 -55,-97 -55,-168 0,-69 19,-124 56,-166 37,-42 87,-63 148,-63 33,0 63,8 90,25 26,16 48,40 64,71l0 -81 71 0 0 634z"/>
  <path id="217" class="fil3" d="M8787 14945l0 210c0,61 9,104 27,128 18,24 49,37 92,37 43,0 73,-12 91,-36 18,-25 27,-67 27,-129l0 -210 74 0 0 249c0,64 -16,113 -49,146 -33,33 -81,49 -145,49 -63,0 -111,-16 -144,-50 -33,-33 -49,-81 -49,-145l0 -249 76 0z"/>
  <path id="218" class="fil3" d="M9541 15110c-2,-37 -15,-66 -37,-87 -23,-20 -54,-30 -93,-30 -35,0 -64,11 -88,32 -24,21 -37,49 -41,85l259 0zm78 59l-337 0 0 7c0,45 13,82 39,110 26,28 60,42 102,42 28,0 54,-7 77,-23 23,-15 44,-38 61,-69l55 37c-21,38 -48,67 -81,87 -34,19 -72,29 -116,29 -65,0 -117,-21 -157,-64 -40,-43 -60,-99 -60,-168 0,-67 20,-122 60,-164 39,-43 90,-64 153,-64 62,0 112,20 149,61 37,40 55,95 55,165l0 14z"/>
  <path id="219" class="fil3" d="M10337 15270l0 85c-20,11 -41,20 -65,26 -24,5 -50,8 -78,8 -66,0 -119,-21 -159,-62 -40,-42 -60,-97 -60,-165 0,-68 20,-124 62,-167 42,-43 95,-65 160,-65 23,0 46,3 69,7 22,5 43,13 63,22l0 79c-18,-12 -38,-22 -57,-28 -20,-6 -40,-10 -61,-10 -48,0 -86,15 -115,45 -29,30 -43,70 -43,120 0,43 14,80 43,109 29,30 66,45 109,45 22,0 44,-4 65,-12 21,-8 43,-20 67,-37z"/>
  <path id="220" class="fil3" d="M10481 15160c0,44 15,83 45,114 30,31 66,47 109,47 43,0 79,-16 109,-47 29,-31 44,-70 44,-114 0,-45 -15,-83 -44,-115 -30,-31 -66,-46 -109,-46 -43,0 -79,15 -109,46 -30,32 -45,70 -45,115zm-78 -1c0,-31 6,-61 18,-88 11,-28 28,-53 50,-74 22,-22 47,-39 75,-50 28,-11 57,-17 89,-17 31,0 61,6 88,17 28,12 53,28 76,50 22,22 39,46 50,74 12,28 17,57 17,88 0,31 -5,61 -17,88 -11,27 -28,52 -50,73 -23,23 -48,40 -76,51 -28,12 -57,18 -88,18 -31,0 -61,-6 -89,-17 -28,-12 -53,-29 -75,-50 -22,-23 -39,-48 -50,-75 -12,-27 -18,-56 -18,-88z"/>
  <path id="221" class="fil3" d="M10980 15371l0 -426 71 0 0 66c18,-27 40,-48 66,-61 26,-13 56,-20 89,-20 51,0 90,13 118,40 28,27 42,64 42,111l0 290 -74 0 0 -251c0,-43 -9,-75 -27,-96 -18,-21 -46,-31 -84,-31 -22,0 -42,4 -60,12 -17,8 -32,19 -44,33 -9,12 -15,24 -19,39 -4,14 -6,39 -6,74l0 220 -72 0z"/>
  <path id="222" class="fil3" d="M11465 15299l63 -41c11,22 26,39 44,50 18,12 40,17 64,17 24,0 43,-6 58,-17 15,-12 22,-28 22,-47 0,-15 -5,-27 -15,-37 -10,-10 -28,-19 -52,-27l-12 -5c-104,-35 -155,-80 -155,-134 0,-37 14,-68 41,-92 28,-24 65,-36 109,-36 37,0 69,7 95,22 26,15 45,36 57,63l-59 36c-9,-20 -22,-35 -39,-45 -17,-11 -36,-16 -58,-16 -22,0 -39,6 -53,18 -13,12 -20,27 -20,46 0,26 28,48 85,65 10,4 19,6 25,8 46,15 78,32 96,51 18,19 27,44 27,76 0,40 -14,73 -43,98 -28,25 -66,37 -112,37 -40,0 -73,-7 -101,-22 -28,-15 -50,-38 -67,-68z"/>
  <path id="223" class="fil3" d="M11885 14740c0,-14 5,-27 15,-37 11,-11 24,-16 38,-16 15,0 27,5 38,16 10,10 15,23 15,38 0,15 -5,27 -15,37 -10,11 -23,16 -38,16 -14,0 -27,-5 -38,-16 -10,-10 -15,-23 -15,-38zm17 631l0 -426 73 0 0 426 -73 0z"/>
  <path id="224" class="fil3" d="M12084 15299l62 -41c12,22 27,39 45,50 18,12 39,17 63,17 24,0 44,-6 58,-17 15,-12 23,-28 23,-47 0,-15 -6,-27 -16,-37 -10,-10 -27,-19 -51,-27l-13 -5c-103,-35 -155,-80 -155,-134 0,-37 14,-68 42,-92 28,-24 64,-36 109,-36 37,0 68,7 95,22 26,15 45,36 56,63l-59 36c-8,-20 -21,-35 -38,-45 -17,-11 -37,-16 -59,-16 -21,0 -39,6 -52,18 -14,12 -20,27 -20,46 0,26 28,48 84,65 11,4 19,6 25,8 46,15 79,32 97,51 18,19 27,44 27,76 0,40 -14,73 -43,98 -29,25 -66,37 -112,37 -40,0 -74,-7 -101,-22 -28,-15 -50,-38 -67,-68z"/>
  <polygon id="225" class="fil3" points="12528,15005 12450,15005 12450,14945 12528,14945 12528,14774 12602,14774 12602,14945 12680,14945 12680,15005 12602,15005 12602,15371 12528,15371 "/>
  <path id="226" class="fil3" d="M13065 15110c-2,-37 -15,-66 -37,-87 -23,-20 -54,-30 -93,-30 -35,0 -65,11 -88,32 -24,21 -37,49 -41,85l259 0zm78 59l-337 0 0 7c0,45 13,82 39,110 26,28 60,42 102,42 28,0 54,-7 77,-23 23,-15 43,-38 61,-69l55 37c-21,38 -48,67 -81,87 -34,19 -72,29 -116,29 -65,0 -117,-21 -157,-64 -40,-43 -60,-99 -60,-168 0,-67 20,-122 60,-164 39,-43 90,-64 153,-64 62,0 112,20 149,61 37,40 55,95 55,165l0 14z"/>
  <path id="227" class="fil3" d="M13253 15371l0 -426 71 0 0 66c19,-27 41,-48 66,-61 26,-13 56,-20 90,-20 50,0 89,13 117,40 28,27 43,64 43,111l0 290 -75 0 0 -251c0,-43 -9,-75 -27,-96 -18,-21 -46,-31 -84,-31 -22,0 -41,4 -59,12 -18,8 -33,19 -45,33 -9,12 -15,24 -19,39 -4,14 -6,39 -6,74l0 220 -72 0z"/>
  <path id="228" class="fil3" d="M13794 15325c0,-15 5,-28 16,-39 11,-11 24,-16 39,-16 16,0 29,5 40,16 11,11 16,24 16,39 0,16 -5,29 -16,39 -11,10 -24,16 -40,16 -15,0 -28,-6 -39,-16 -11,-10 -16,-23 -16,-39z"/>
  <g id="_56025394768">
   <path class="fil4" d="M4499 19684c0,150 -121,270 -270,270 -149,0 -270,-120 -270,-270 0,-149 121,-270 270,-270 149,0 270,121 270,270z"/>
   <path class="fil5" d="M4229 20027c-189,0 -342,-154 -342,-343 0,-188 153,-342 342,-342 189,0 342,154 342,342 0,189 -153,343 -342,343zm0 -541c-109,0 -198,89 -198,198 0,109 89,198 198,198 109,0 198,-89 198,-198 0,-109 -89,-198 -198,-198z"/>
   <path class="fil4" d="M3648 21147c0,149 -121,270 -271,270 -149,0 -270,-121 -270,-270 0,-150 121,-271 270,-271 150,0 271,121 271,271z"/>
   <path class="fil5" d="M3377 21489c-188,0 -342,-154 -342,-342 0,-189 154,-343 342,-343 189,0 343,154 343,343 0,188 -154,342 -343,342zm0 -540c-109,0 -197,88 -197,198 0,109 88,197 197,197 110,0 198,-88 198,-197 0,-110 -88,-198 -198,-198z"/>
   <polygon class="fil5" points="3999,24757 3424,24757 3424,21566 3999,21566 "/>
   <path class="fil5" d="M3999 24830l-575 0c-40,0 -72,-33 -72,-73l0 -3191c0,-40 32,-72 72,-72l575 0c39,0 72,32 72,72l0 3191c0,40 -33,73 -72,73zm-503 -145l430 0 0 -3047 -430 0 0 3047z"/>
   <polygon class="fil5" points="6041,24757 5467,24757 5467,21566 6041,21566 "/>
   <path class="fil5" d="M6041 24830l-574 0c-40,0 -72,-33 -72,-73l0 -3191c0,-40 32,-72 72,-72l574 0c40,0 72,32 72,72l0 3191c0,40 -32,73 -72,73zm-502 -145l430 0 0 -3047 -430 0 0 3047z"/>
   <polygon class="fil6" points="7766,28748 1131,28748 1131,24686 7766,24686 "/>
   <path class="fil5" d="M1087 28805c-17,-13 -28,-34 -28,-57l0 -4062c0,-40 32,-73 72,-73l6635 0c40,0 72,33 72,73l0 4062c0,23 -11,44 -28,57l-6723 0zm116 -129l6491 0 0 -3918 -6491 0 0 3918z"/>
   <path class="fil7" d="M5717 23722c0,-351 286,-636 638,-636 351,0 637,285 637,636 0,521 421,943 941,943 521,0 942,-422 942,-943l1274 0c0,1224 -992,2217 -2216,2217 -1223,0 -2216,-993 -2216,-2217z"/>
   <path class="fil5" d="M7933 26011c-1261,0 -2288,-1027 -2288,-2289 0,-391 318,-709 709,-709 392,0 710,318 710,709 0,480 390,870 869,870 480,0 870,-390 870,-870 0,-39 32,-72 72,-72l1274 0c40,0 73,33 73,72 0,1262 -1027,2289 -2289,2289zm-1579 -2853c-311,0 -564,253 -564,564 0,1183 961,2144 2143,2144 1158,0 2105,-923 2143,-2071l-1131 0c-37,525 -477,942 -1012,942 -559,0 -1014,-455 -1014,-1015 0,-311 -253,-564 -565,-564z"/>
   <path class="fil7" d="M9519 23722c395,0 715,-320 715,-715 0,-395 -320,-715 -715,-715 -396,0 -716,320 -716,715 0,395 320,715 716,715z"/>
   <path class="fil5" d="M9519 23795c-435,0 -788,-354 -788,-788 0,-434 353,-788 788,-788 434,0 787,354 787,788 0,434 -353,788 -787,788zm0 -1431c-355,0 -643,288 -643,643 0,355 288,643 643,643 354,0 643,-288 643,-643 0,-355 -289,-643 -643,-643z"/>
   <polygon class="fil8" points="2618,28805 2618,27899 3866,27899 3866,28805 "/>
   <path class="fil5" d="M2546 28805l0 -906c0,-40 33,-72 72,-72l1248 0c39,0 72,32 72,72l0 906 -145 0 0 -834 -1102 0 0 834 -145 0z"/>
   <polygon class="fil8" points="5249,28805 5249,27899 6496,27899 6496,28805 "/>
   <path class="fil5" d="M5176 28805l0 -906c0,-40 33,-72 73,-72l1247 0c39,0 72,32 72,72l0 906 -145 0 0 -834 -1102 0 0 834 -145 0z"/>
   <path class="fil9" d="M4470 21982c-1410,0 -2554,571 -2554,1276l0 5490 5107 0 0 -5490c0,-705 -1143,-1276 -2553,-1276z"/>
   <path class="fil5" d="M1873 28805c-18,-13 -29,-34 -29,-57l0 -5490c0,-756 1153,-1348 2626,-1348 1472,0 2625,592 2625,1348l0 5490c0,23 -11,44 -28,57l-5194 0zm116 -129l4962 0 0 -5418c0,-664 -1113,-1204 -2481,-1204 -1368,0 -2481,540 -2481,1204l0 5418z"/>
   <path class="fil6" d="M7766 24686l-6635 0c0,-1604 1485,-2904 3318,-2904 1832,0 3317,1300 3317,2904z"/>
   <path class="fil5" d="M7767 24758l-1 0 -6635 0c-40,0 -72,-33 -72,-72 0,-1641 1520,-2977 3390,-2977 1864,0 3382,1329 3389,2965 1,3 1,7 1,12 0,39 -32,72 -72,72zm-6563 -145l6489 0c-44,-1528 -1482,-2759 -3244,-2759 -1762,0 -3201,1231 -3245,2759z"/>
   <path class="fil10" d="M3217 22241c0,-691 561,-1252 1253,-1252 692,0 1252,561 1252,1252 0,692 -560,1253 -1252,1253 -692,0 -1253,-561 -1253,-1253z"/>
   <path class="fil5" d="M4470 23566c-731,0 -1325,-594 -1325,-1324 0,-731 594,-1325 1325,-1325 730,0 1325,594 1325,1325 0,730 -595,1324 -1325,1324zm0 -2505c-651,0 -1181,530 -1181,1181 0,651 530,1180 1181,1180 651,0 1180,-529 1180,-1180 0,-651 -529,-1181 -1180,-1181z"/>
   <polygon class="fil8" points="3217,21905 4273,24172 1916,22659 "/>
   <path class="fil5" d="M4273 24244c-14,0 -27,-4 -39,-12l-2357 -1513c-21,-13 -33,-37 -33,-62 1,-25 15,-48 36,-61l1301 -754c17,-10 38,-12 58,-6 19,6 35,20 43,38l1052 2257c7,12 12,26 12,41 0,39 -32,72 -72,72l-1 0zm-2218 -1582l2047 1314 -917 -1969 -1130 655z"/>
   <polygon class="fil8" points="5595,21905 4539,24172 6896,22659 "/>
   <path class="fil5" d="M4539 24244c-17,0 -34,-6 -47,-18 -24,-21 -32,-56 -18,-85l1056 -2267c8,-18 24,-32 43,-38 20,-6 41,-4 58,6l1301 754c22,13 35,36 36,61 0,25 -12,49 -33,62l-2357 1513c-12,8 -25,12 -39,12zm1088 -2237l-917 1969 2047 -1314 -1130 -655z"/>
   <path class="fil7" d="M6158 21071c0,932 -756,1688 -1688,1688 -933,0 -1689,-756 -1689,-1688 0,-933 756,-1689 1689,-1689 932,0 1688,756 1688,1689z"/>
   <path class="fil5" d="M4470 22832c-971,0 -1761,-790 -1761,-1761 0,-971 790,-1761 1761,-1761 970,0 1760,790 1760,1761 0,971 -790,1761 -1760,1761zm0 -3378c-892,0 -1617,725 -1617,1617 0,891 725,1616 1617,1616 891,0 1616,-725 1616,-1616 0,-892 -725,-1617 -1616,-1617z"/>
   <path class="fil10" d="M4470 20924c-132,0 -239,107 -239,239l0 208c0,131 107,238 239,238 132,0 238,-107 238,-238l0 -208c0,-132 -106,-239 -238,-239z"/>
   <path class="fil5" d="M4470 21681c-172,0 -311,-139 -311,-310l0 -208c0,-172 139,-311 311,-311 39,0 72,32 72,72 0,40 -33,72 -72,72 -92,0 -167,75 -167,167l0 208c0,91 75,166 167,166 91,0 166,-75 166,-166 0,-40 32,-73 72,-73 40,0 73,33 73,73 0,171 -140,310 -311,310z"/>
   <path class="fil5" d="M3732 20841c0,73 -58,132 -131,132 -73,0 -132,-59 -132,-132 0,-72 59,-131 132,-131 73,0 131,59 131,131z"/>
   <path class="fil5" d="M5369 20841c0,73 -59,132 -131,132 -73,0 -132,-59 -132,-132 0,-72 59,-131 132,-131 72,0 131,59 131,131z"/>
   <path class="fil5" d="M4470 22340c-266,0 -482,-216 -482,-481 0,-40 32,-73 72,-73 40,0 73,33 73,73 0,185 151,337 337,337 186,0 337,-152 337,-337 0,-40 32,-73 72,-73 40,0 72,33 72,73 0,265 -216,481 -481,481z"/>
   <path class="fil8" d="M4728 24193c0,154 -125,279 -279,279 -154,0 -279,-125 -279,-279 0,-154 125,-279 279,-279 154,0 279,125 279,279z"/>
   <path class="fil5" d="M4449 24544c-194,0 -351,-158 -351,-351 0,-194 157,-351 351,-351 193,0 351,157 351,351 0,193 -158,351 -351,351zm0 -558c-114,0 -207,93 -207,207 0,114 93,207 207,207 114,0 206,-93 206,-207 0,-114 -92,-207 -206,-207z"/>
   <polygon class="fil11" points="7023,25743 1916,25743 1916,28748 7023,28748 "/>
   <path class="fil5" d="M1873 28805c-18,-13 -29,-34 -29,-57l0 -3005c0,-40 32,-72 72,-72l5107 0c40,0 72,32 72,72l0 3005c0,23 -11,44 -28,57l-5194 0zm116 -129l4962 0 0 -2861 -4962 0 0 2861z"/>
   <polygon class="fil12" points="6446,25376 4796,25376 4796,24688 6446,24688 "/>
   <path class="fil5" d="M6446 25448l-1650 0c-40,0 -72,-32 -72,-72l0 -688c0,-40 32,-72 72,-72l1650 0c40,0 73,32 73,72l0 688c0,40 -33,72 -73,72zm-1578 -144l1506 0 0 -544 -1506 0 0 544z"/>
   <path class="fil5" d="M4960 21990c0,-174 -219,-315 -490,-315 -271,0 -491,141 -491,315l981 0z"/>
   <path class="fil5" d="M4960 22050l-981 0c-33,0 -60,-27 -60,-60 0,-210 242,-375 551,-375 309,0 551,165 551,375 0,33 -27,60 -61,60zm-907 -121l834 0c-47,-109 -219,-193 -417,-193 -198,0 -370,84 -417,193z"/>
   <path class="fil5" d="M5438 19558c0,0 -1135,512 -2482,688 0,0 670,-1574 2441,-717l41 29z"/>
   <path class="fil5" d="M2956 20322c-22,0 -46,-12 -60,-31 -17,-21 -19,-50 -9,-74 11,-28 290,-668 964,-920 463,-174 995,-119 1579,165 11,5 20,13 28,24 20,5 39,20 48,40 18,38 0,84 -38,100 -11,5 -1159,520 -2502,695l-10 1zm1451 -973c-178,0 -345,29 -504,89 -440,165 -700,522 -812,713 985,-148 1842,-468 2170,-601 -302,-134 -588,-201 -854,-201z"/>
   <polygon class="fil13" points="6164,19932 2783,19932 2783,19488 6164,19488 "/>
   <path class="fil5" d="M6164 20007l-3381 0c-41,0 -76,-34 -76,-75l0 -444c0,-42 35,-76 76,-76l3381 0c41,0 76,34 76,76l0 444c0,41 -35,75 -76,75zm-3305 -151l3230 0 0 -293 -3230 0 0 293z"/>
   <polygon class="fil13" points="5676,18437 3249,18437 3249,19488 5676,19488 "/>
   <path class="fil5" d="M5676 19563l-2427 0c-43,0 -76,-33 -76,-75l0 -1051c0,-42 33,-75 76,-75l2427 0c41,0 76,33 76,75l0 1051c0,42 -35,75 -76,75zm-2351 -151l2276 0 0 -899 -2276 0 0 899z"/>
   <polygon class="fil5" points="5676,19098 3249,19098 3249,19503 5676,19503 "/>
   <path class="fil5" d="M5676 19579l-2427 0c-43,0 -76,-34 -76,-76l0 -405c0,-41 33,-75 76,-75l2427 0c41,0 76,34 76,75l0 405c0,42 -35,76 -76,76zm-2351 -151l2276 0 0 -255 -2276 0 0 255z"/>
  </g>
  <polygon class="fil3" points="6820,4828 6820,4071 7028,4071 7028,4828 "/>
  <path id="1" class="fil3" d="M7194 4828l0 -757 199 0 286 390c6,7 15,23 27,47 13,24 27,53 42,86 -4,-31 -7,-59 -9,-84 -2,-24 -3,-46 -3,-65l0 -374 198 0 0 757 -198 0 -286 -391c-6,-8 -15,-24 -28,-47 -12,-24 -26,-53 -41,-85 4,32 7,60 9,84 2,25 3,46 3,65l0 374 -199 0z"/>
  <polygon id="2" class="fil3" points="8205,4828 8205,4250 8036,4250 8036,4071 8581,4071 8581,4250 8411,4250 8411,4828 "/>
  <path id="3" class="fil3" d="M8681 4828l0 -757 216 0c84,0 143,4 177,12 33,8 61,21 86,39 27,21 48,47 62,79 15,32 22,67 22,106 0,59 -14,106 -43,143 -29,37 -71,61 -126,73l206 305 -233 0 -173 -296 0 296 -194 0zm194 -399l38 0c44,0 77,-7 97,-23 21,-15 31,-39 31,-71 0,-38 -9,-65 -28,-81 -20,-16 -52,-24 -97,-24l-41 0 0 199z"/>
  <path id="4" class="fil3" d="M10137 4451c0,55 -10,106 -30,153 -20,48 -49,90 -88,128 -38,37 -82,66 -132,86 -50,20 -101,30 -154,30 -54,0 -106,-10 -156,-30 -49,-20 -92,-49 -130,-86 -39,-38 -68,-80 -89,-128 -20,-48 -30,-99 -30,-153 0,-54 10,-105 30,-152 21,-48 50,-91 89,-128 38,-38 81,-66 130,-86 50,-20 102,-31 156,-31 53,0 105,11 155,31 50,20 93,48 131,86 38,37 67,79 87,127 21,48 31,99 31,153zm-405 223c58,0 105,-21 142,-63 38,-43 56,-96 56,-160 0,-63 -19,-116 -57,-158 -37,-43 -85,-64 -141,-64 -57,0 -104,21 -141,63 -38,43 -57,96 -57,159 0,65 19,118 56,160 37,42 84,63 142,63z"/>
  <path id="5" class="fil3" d="M10266 4828l0 -757 157 0c118,0 201,6 250,17 49,11 91,29 128,55 48,34 84,77 109,129 25,52 37,111 37,178 0,67 -12,127 -37,179 -25,52 -61,95 -109,128 -36,26 -78,44 -125,55 -47,11 -119,16 -218,16l-35 0 -157 0zm204 -169l35 0c81,0 140,-17 177,-50 37,-33 56,-86 56,-159 0,-72 -19,-125 -56,-159 -37,-33 -96,-50 -177,-50l-35 0 0 418z"/>
  <path id="6" class="fil3" d="M11072 4071l206 0 0 369c0,53 1,92 4,116 3,24 7,43 14,59 8,19 22,34 41,44 20,11 44,16 72,16 28,0 52,-5 72,-16 19,-10 33,-25 41,-44 7,-16 11,-35 14,-59 3,-24 4,-63 4,-116l0 -52 0 -317 205 0 0 400c0,84 -4,145 -15,184 -10,40 -26,73 -50,101 -26,31 -61,54 -106,69 -46,16 -100,23 -165,23 -65,0 -119,-7 -164,-23 -45,-15 -81,-38 -107,-69 -23,-28 -40,-61 -50,-101 -10,-39 -16,-100 -16,-184l0 -78 0 -322z"/>
  <path id="7" class="fil3" d="M12450 4101l0 225c-28,-31 -56,-54 -84,-69 -28,-14 -59,-22 -90,-22 -60,0 -108,21 -144,61 -37,41 -55,93 -55,158 0,61 18,111 56,151 37,40 85,60 143,60 31,0 62,-7 90,-22 28,-14 56,-37 84,-69l0 226c-32,15 -65,27 -97,35 -33,8 -65,12 -99,12 -41,0 -79,-5 -114,-14 -35,-10 -67,-25 -96,-45 -57,-38 -100,-86 -129,-143 -30,-58 -45,-123 -45,-195 0,-58 10,-110 28,-158 19,-47 48,-90 85,-129 36,-36 76,-64 121,-82 45,-18 95,-28 150,-28 34,0 66,4 99,12 32,8 65,20 97,36z"/>
  <path id="8" class="fil3" d="M13115 4101l0 225c-28,-31 -57,-54 -85,-69 -28,-14 -58,-22 -90,-22 -59,0 -107,21 -144,61 -36,41 -55,93 -55,158 0,61 19,111 56,151 38,40 85,60 143,60 32,0 62,-7 90,-22 28,-14 57,-37 85,-69l0 226c-33,15 -65,27 -98,35 -32,8 -65,12 -98,12 -41,0 -79,-5 -114,-14 -35,-10 -67,-25 -97,-45 -56,-38 -99,-86 -129,-143 -29,-58 -44,-123 -44,-195 0,-58 9,-110 28,-158 19,-47 47,-90 85,-129 36,-36 76,-64 121,-82 45,-18 95,-28 150,-28 33,0 66,4 98,12 33,8 65,20 98,36z"/>
  <polygon id="9" class="fil3" points="13236,4828 13236,4071 13445,4071 13445,4828 "/>
  <path id="10" class="fil3" d="M14388 4451c0,55 -10,106 -30,153 -20,48 -49,90 -88,128 -38,37 -82,66 -132,86 -49,20 -101,30 -154,30 -54,0 -106,-10 -156,-30 -49,-20 -92,-49 -130,-86 -39,-38 -68,-80 -89,-128 -20,-48 -30,-99 -30,-153 0,-54 10,-105 30,-152 21,-48 50,-91 89,-128 38,-38 81,-66 130,-86 50,-20 102,-31 156,-31 53,0 105,11 155,31 50,20 94,48 131,86 38,37 67,79 88,127 20,48 30,99 30,153zm-405 223c58,0 105,-21 142,-63 38,-43 56,-96 56,-160 0,-63 -18,-116 -56,-158 -38,-43 -85,-64 -142,-64 -57,0 -104,21 -141,63 -38,43 -56,96 -56,159 0,65 18,118 55,160 37,42 84,63 142,63zm150 -864l-160 181 -79 0 94 -181 145 0z"/>
  <path id="11" class="fil3" d="M14517 4828l0 -757 199 0 286 390c5,7 14,23 27,47 13,24 26,53 42,86 -4,-31 -7,-59 -9,-84 -2,-24 -3,-46 -3,-65l0 -374 198 0 0 757 -198 0 -286 -391c-6,-8 -15,-24 -28,-47 -13,-24 -26,-53 -41,-85 4,32 7,60 9,84 2,25 3,46 3,65l0 374 -199 0z"/>
 </g>
</svg>
