<?xml version="1.0" encoding="UTF-8"?>
<!DOCTYPE svg PUBLIC "-//W3C//DTD SVG 1.1//EN" "http://www.w3.org/Graphics/SVG/1.1/DTD/svg11.dtd">
<!-- Creator: CorelDRAW X7 -->
<svg xmlns="http://www.w3.org/2000/svg" xml:space="preserve" width="190.5mm" height="338.667mm" version="1.1" style="shape-rendering:geometricPrecision; text-rendering:geometricPrecision; image-rendering:optimizeQuality; fill-rule:evenodd; clip-rule:evenodd"
viewBox="0 0 19050 33867"
 xmlns:xlink="http://www.w3.org/1999/xlink">
 <defs>
  <style type="text/css">
   <![CDATA[
    .fil4 {fill:#2B2A29;fill-rule:nonzero}
    .fil3 {fill:#2B2A29;fill-rule:nonzero}
    .fil9 {fill:#006A5E;fill-rule:nonzero}
    .fil7 {fill:#4E3E37;fill-rule:nonzero}
    .fil6 {fill:#541124;fill-rule:nonzero}
    .fil0 {fill:#61C5C3;fill-rule:nonzero}
    .fil11 {fill:#BEC2AF;fill-rule:nonzero}
    .fil5 {fill:#C7DD9F;fill-rule:nonzero}
    .fil12 {fill:#D3642B;fill-rule:nonzero}
    .fil14 {fill:#DEA518;fill-rule:nonzero}
    .fil10 {fill:#E2E7C6;fill-rule:nonzero}
    .fil1 {fill:#FCEA6B;fill-rule:nonzero}
    .fil8 {fill:#FFF9D9;fill-rule:nonzero}
    .fil13 {fill:#FFFBDA;fill-rule:nonzero}
    .fil2 {fill:white;fill-rule:nonzero}
   ]]>
  </style>
 </defs>
 <g id="Capa_x0020_1">
  <metadata id="CorelCorpID_0Corel-Layer"/>
  <polygon class="fil0" points="0,33867 19050,33867 19050,0 0,0 "/>
  <g id="globo">
   <path class="fil1" d="M2210 9822c0,-4709 3818,-8527 8527,-8527 4054,0 7447,2829 8313,6620l0 3815c-866,3791 -4259,6620 -8313,6620 -4709,0 -8527,-3818 -8527,-8528z"/>
   <path class="fil2" d="M19050 12957c-1352,2952 -4332,5003 -7791,5003 -4731,0 -8566,-3835 -8566,-8566 0,-4731 3835,-8566 8566,-8566 3459,0 6439,2051 7791,5003l0 7126z"/>
   <path class="fil2" d="M8301 16691c0,0 125,1622 -800,2244 -108,73 -162,128 -172,165l483 0c729,-195 2073,-845 2533,-1876l-2044 -533z"/>
  </g>
  <path class="fil3" d="M6903 4519l0 476c0,2 -2,4 -4,4l-59 2c0,28 -1,60 -1,88 47,0 103,-1 150,-1 51,0 110,1 152,1 1,-29 1,-60 1,-87l-68 -4 3 -474c0,-4 0,-5 2,-5l64 -3c0,-27 1,-59 1,-86 -43,0 -100,0 -150,0 -48,0 -110,0 -153,0 -1,28 -1,58 -1,86l63 3zm392 483c-1,28 -1,59 -1,87 28,0 62,-1 96,-1 47,0 102,0 144,0 1,-27 1,-59 1,-87l-75 -2c2,-100 3,-198 3,-302l7 -1c116,174 229,321 296,401 52,0 102,-10 124,-19l4 -555c0,-4 2,-5 4,-5l44 -3c1,-28 1,-58 1,-86 -30,0 -72,1 -107,1 -45,0 -92,0 -132,0 -1,27 -2,59 -2,86l74 2c1,118 1,236 3,351l-6 0c-86,-134 -212,-328 -289,-439 -59,0 -138,0 -195,0 -1,28 -1,58 -1,86l59 2 1 477c0,3 -1,4 -3,4l-50 3zm932 0c0,28 -1,58 -1,87 50,0 110,-1 158,-1 54,0 115,1 157,1 1,-29 1,-60 1,-87l-72 -4 3 -476c44,0 56,2 69,5 14,3 18,8 20,20l16 97c36,-3 75,-6 108,-10 -2,-68 -6,-137 -10,-205 -20,0 -56,0 -96,1 -27,0 -158,0 -189,0 -38,0 -172,0 -199,0 -35,0 -74,-1 -95,-1 -5,68 -9,137 -13,206 32,4 72,7 107,9l18 -97c2,-11 5,-18 20,-21 14,-2 31,-5 69,-5l0 474c0,2 -1,4 -3,4l-68 3zm663 -483l-1 479c0,1 -1,3 -3,3l-49 3c0,28 0,55 -1,84 38,0 86,0 128,0 50,0 105,0 145,0 0,-29 0,-56 1,-84l-55 -3 1 -163c3,-1 11,-2 23,-2 24,0 42,12 55,43 20,48 69,165 95,211 19,0 105,-1 128,-1 19,0 55,-1 74,-1 0,-29 1,-57 1,-84l-49 -6c-12,-1 -19,-12 -30,-37 -46,-94 -70,-151 -115,-173l0 -6c71,-29 126,-90 126,-176 0,-64 -57,-143 -145,-163 -60,-14 -91,-14 -149,-14 -79,0 -165,1 -233,2 -1,29 -1,57 -1,86l54 2zm168 -5c6,-2 15,-3 33,-3 53,0 99,55 99,129 0,66 -42,114 -110,114 -14,0 -20,0 -24,-1l2 -239zm804 584c98,0 178,-28 241,-87 69,-66 104,-170 104,-268 0,-119 -51,-224 -129,-273 -53,-34 -111,-50 -175,-50 -78,0 -141,16 -203,55 -83,50 -150,157 -150,290 0,107 29,187 91,249 50,51 130,84 221,84zm21 -87c-32,0 -64,-11 -92,-46 -36,-43 -50,-109 -50,-211 0,-96 22,-168 52,-204 23,-29 51,-44 93,-44 37,0 70,19 90,59 24,46 41,119 41,201 0,84 -13,159 -48,205 -27,35 -54,40 -86,40zm487 77c41,0 93,0 138,0 35,0 85,1 118,1 72,0 163,-14 222,-55 82,-54 148,-159 148,-302 0,-110 -65,-211 -151,-258 -50,-28 -122,-45 -228,-45 -83,0 -172,1 -247,3 -1,29 -1,57 -1,86l58 2 -1 476c0,2 -1,4 -4,4l-51 4c-1,26 -1,57 -1,84zm232 -573c7,-3 16,-4 30,-4 27,0 69,9 103,43 54,51 76,112 76,218 0,66 -19,148 -66,191 -39,36 -83,45 -122,45 -14,0 -26,-8 -25,-21l4 -472zm773 3l69 -2c1,-28 1,-59 1,-86 -45,0 -103,0 -157,0 -43,0 -100,0 -139,0 -1,28 -1,57 -1,85l44 2c4,0 5,3 5,6l0 304c0,75 14,156 72,208 51,46 113,63 202,63 94,0 145,-29 182,-69 39,-37 75,-113 75,-235l3 -276 48 -3c1,-28 1,-57 1,-85 -36,0 -78,0 -120,0 -45,0 -98,0 -135,0 0,28 -1,58 -1,85l71 3c2,0 4,1 4,3 2,83 2,207 2,289 0,66 -11,123 -35,149 -17,21 -39,36 -76,36 -35,0 -61,-10 -81,-33 -24,-27 -37,-61 -37,-138l3 -306zm553 281c0,106 50,193 114,239 59,43 138,60 216,60 51,0 145,-20 210,-46 -4,-27 -10,-64 -18,-94 -34,14 -112,29 -157,29 -41,0 -88,-13 -118,-42 -41,-36 -59,-93 -59,-180 0,-85 24,-152 69,-198 28,-30 63,-43 96,-43 21,0 36,6 47,13 4,2 5,9 6,13l25 106c36,-4 73,-9 106,-14 -4,-70 -9,-139 -15,-207 -26,-9 -71,-15 -134,-15 -90,0 -180,26 -249,80 -75,59 -139,155 -139,299zm680 0c0,106 50,193 114,239 59,43 138,60 215,60 52,0 146,-20 211,-46 -4,-27 -10,-64 -18,-94 -34,14 -112,29 -157,29 -41,0 -88,-13 -118,-42 -41,-36 -59,-93 -59,-180 0,-85 24,-152 69,-198 28,-30 63,-43 96,-43 21,0 36,6 47,13 4,2 5,9 6,13l25 106c36,-4 73,-9 106,-14 -4,-70 -9,-139 -15,-207 -26,-9 -71,-15 -134,-15 -90,0 -180,26 -249,80 -75,59 -139,155 -139,299zm761 -280l0 476c0,2 -3,4 -5,4l-58 2c0,28 -1,60 -1,88 46,0 103,-1 150,-1 50,0 110,1 151,1 1,-29 1,-60 1,-87l-67 -4 3 -474c0,-4 0,-5 2,-5l63 -3c0,-27 1,-59 1,-86 -42,0 -100,0 -149,0 -48,0 -111,0 -153,0 -1,28 -1,58 -1,86l63 3zm841 -327c-56,40 -127,91 -181,130 11,18 25,39 38,58 64,-32 139,-70 199,-101 -16,-29 -36,-61 -56,-87zm-130 906c98,0 178,-28 242,-87 68,-66 103,-170 103,-268 0,-119 -51,-224 -129,-273 -52,-34 -111,-50 -175,-50 -78,0 -140,16 -203,55 -83,50 -150,157 -150,290 0,107 30,187 91,249 50,51 131,84 221,84zm21 -87c-31,0 -64,-11 -92,-46 -35,-43 -50,-109 -50,-211 0,-96 23,-168 52,-204 23,-29 52,-44 93,-44 38,0 70,19 90,59 24,46 42,119 42,201 0,84 -14,159 -49,205 -26,35 -54,40 -86,40zm478 -9c-1,28 -1,59 -1,87 28,0 62,-1 96,-1 47,0 102,0 144,0 1,-27 1,-59 1,-87l-74 -2c1,-100 2,-198 2,-302l7 -1c116,174 229,321 296,401 52,0 102,-10 124,-19l4 -555c0,-4 2,-5 4,-5l44 -3c1,-28 1,-58 1,-86 -30,0 -72,1 -107,1 -45,0 -92,0 -132,0 -1,27 -2,59 -2,86l74 2c1,118 1,236 3,351l-6 0c-86,-134 -212,-328 -289,-439 -59,0 -138,0 -194,0 -1,28 -1,58 -1,86l58 2 1 477c0,3 -1,4 -3,4l-50 3z"/>
  <polygon class="fil4" points="5753,6785 5753,6180 5825,6180 5825,6717 6053,6717 6053,6785 "/>
  <path id="1" class="fil4" d="M6155 6597c0,40 14,74 40,102 27,27 60,41 97,41 38,0 70,-14 97,-41 26,-28 40,-62 40,-102 0,-40 -14,-74 -40,-101 -27,-28 -59,-42 -97,-42 -38,0 -70,14 -97,42 -27,27 -40,61 -40,101zm-68 0c0,-28 5,-54 15,-79 10,-24 25,-46 45,-66 19,-19 41,-34 66,-44 25,-10 51,-15 80,-15 27,0 53,5 78,15 25,11 47,26 67,45 20,19 35,41 45,66 10,24 15,50 15,78 0,28 -5,54 -15,78 -10,24 -25,46 -45,65 -20,20 -43,35 -67,46 -25,10 -51,15 -78,15 -28,0 -55,-5 -80,-15 -25,-11 -47,-25 -66,-45 -20,-20 -35,-42 -45,-66 -10,-24 -15,-50 -15,-78z"/>
  <path id="2" class="fil4" d="M6559 6722l55 -38c11,20 24,35 40,45 16,10 35,16 56,16 22,0 39,-6 52,-16 13,-11 20,-24 20,-41 0,-14 -5,-25 -14,-34 -9,-8 -24,-16 -46,-24l-11 -4c-92,-31 -138,-71 -138,-119 0,-33 13,-61 37,-82 25,-21 57,-32 97,-32 33,0 61,7 84,20 24,13 41,31 51,55l-53 33c-7,-18 -19,-31 -34,-40 -15,-10 -32,-15 -52,-15 -19,0 -35,6 -47,16 -12,11 -18,25 -18,41 0,23 26,43 76,59 9,3 17,5 22,7 41,13 70,28 86,45 16,17 24,39 24,67 0,36 -13,65 -38,87 -26,22 -59,33 -100,33 -35,0 -65,-6 -90,-20 -25,-13 -44,-33 -59,-59z"/>
  <path id="3" class="fil4" d="M7483 6600c0,-43 -12,-77 -35,-103 -24,-27 -54,-39 -91,-39 -39,0 -70,11 -91,35 -22,24 -33,58 -33,101 0,46 11,81 33,106 22,24 53,37 93,37 39,0 69,-12 91,-36 22,-24 33,-58 33,-101zm62 -193l0 378 -62 0 0 -68c-15,27 -35,48 -58,63 -24,14 -50,21 -80,21 -54,0 -98,-18 -131,-56 -33,-37 -50,-87 -50,-148 0,-62 16,-112 49,-149 32,-36 75,-55 129,-55 32,0 59,7 83,21 23,15 42,36 56,64l0 -71 64 0z"/>
  <path id="4" class="fil4" d="M7965 6695l0 76c-17,10 -36,18 -58,23 -21,5 -44,7 -69,7 -58,0 -105,-18 -141,-55 -36,-37 -54,-86 -54,-147 0,-60 19,-110 56,-148 37,-39 84,-58 142,-58 21,0 41,2 61,7 20,4 39,11 57,19l0 70c-17,-11 -34,-19 -52,-25 -17,-5 -35,-8 -53,-8 -43,0 -77,13 -103,40 -25,26 -38,62 -38,106 0,39 13,71 39,97 25,26 58,40 97,40 19,0 38,-4 57,-11 19,-7 38,-18 59,-33z"/>
  <path id="5" class="fil4" d="M8116 6407l0 186c0,54 8,92 24,114 16,22 44,32 82,32 38,0 65,-10 81,-32 16,-21 24,-59 24,-114l0 -186 66 0 0 221c0,57 -15,100 -44,129 -29,30 -72,44 -129,44 -56,0 -99,-14 -128,-44 -29,-29 -44,-73 -44,-129l0 -221 68 0z"/>
  <path id="6" class="fil4" d="M8786 6553c-2,-33 -13,-59 -33,-77 -20,-18 -47,-27 -82,-27 -31,0 -58,9 -78,28 -21,19 -34,44 -37,76l230 0zm70 53l-300 0 0 5c0,41 12,74 35,99 23,25 53,37 90,37 26,0 49,-7 69,-20 21,-14 39,-35 54,-62l49 33c-19,34 -43,60 -72,77 -30,18 -64,26 -103,26 -57,0 -104,-19 -140,-57 -35,-38 -53,-88 -53,-149 0,-60 18,-108 53,-146 35,-38 81,-57 136,-57 56,0 100,18 133,54 33,36 49,85 49,147l0 13z"/>
  <path id="7" class="fil4" d="M8954 6785l0 -378 58 0 0 79c17,-33 36,-57 55,-71 20,-14 44,-21 72,-21 8,0 15,1 22,2 7,1 15,3 22,5l-22 59c-7,-2 -14,-4 -21,-6 -6,-1 -13,-1 -19,-1 -34,0 -60,12 -77,37 -17,24 -25,61 -25,111l0 184 -65 0z"/>
  <path id="8" class="fil4" d="M9540 6598c0,-42 -12,-76 -35,-102 -23,-26 -54,-38 -93,-38 -38,0 -68,11 -89,35 -22,23 -33,55 -33,97 0,46 11,83 33,109 22,26 52,40 90,40 40,0 71,-13 93,-38 23,-24 34,-59 34,-103zm63 -454l0 641 -63 0 0 -68c-15,27 -34,48 -58,62 -23,15 -50,22 -79,22 -54,0 -98,-18 -131,-56 -34,-37 -50,-87 -50,-148 0,-62 16,-112 49,-148 32,-37 75,-56 129,-56 32,0 59,7 82,21 23,15 42,36 56,64l0 -334 65 0z"/>
  <path id="9" class="fil4" d="M9773 6597c0,40 13,74 40,102 27,27 59,41 97,41 38,0 70,-14 97,-41 26,-28 39,-62 39,-102 0,-40 -13,-74 -39,-101 -27,-28 -59,-42 -97,-42 -38,0 -71,14 -97,42 -27,27 -40,61 -40,101zm-69 0c0,-28 5,-54 16,-79 10,-24 25,-46 44,-66 20,-19 42,-34 67,-44 25,-10 51,-15 79,-15 28,0 54,5 79,15 24,11 47,26 67,45 19,19 34,41 45,66 10,24 15,50 15,78 0,28 -5,54 -15,78 -11,24 -26,46 -45,65 -20,20 -43,35 -68,46 -25,10 -51,15 -78,15 -28,0 -54,-5 -79,-15 -25,-11 -47,-25 -67,-45 -19,-20 -34,-42 -44,-66 -11,-24 -16,-50 -16,-78z"/>
  <path id="10" class="fil4" d="M10176 6722l56 -38c10,20 23,35 40,45 15,10 34,16 56,16 21,0 38,-6 52,-16 13,-11 19,-24 19,-41 0,-14 -4,-25 -13,-34 -9,-8 -25,-16 -46,-24l-11 -4c-92,-31 -138,-71 -138,-119 0,-33 12,-61 37,-82 25,-21 57,-32 97,-32 33,0 61,7 84,20 24,13 40,31 50,55l-52 33c-8,-18 -19,-31 -34,-40 -15,-10 -32,-15 -52,-15 -19,0 -35,6 -47,16 -12,11 -18,25 -18,41 0,23 25,43 75,59 10,3 17,5 23,7 41,13 69,28 85,45 17,17 25,39 25,67 0,36 -13,65 -39,87 -25,22 -58,33 -99,33 -36,0 -66,-6 -90,-20 -25,-13 -45,-33 -60,-59z"/>
  <path id="11" class="fil4" d="M11101 6695l0 76c-17,10 -36,18 -57,23 -22,5 -45,7 -70,7 -58,0 -105,-18 -141,-55 -36,-37 -53,-86 -53,-147 0,-60 18,-110 55,-148 37,-39 84,-58 142,-58 21,0 41,2 61,7 20,4 39,11 57,19l0 70c-17,-11 -34,-19 -52,-25 -17,-5 -35,-8 -53,-8 -43,0 -77,13 -103,40 -25,26 -38,62 -38,106 0,39 13,71 39,97 25,26 58,40 97,40 19,0 38,-4 57,-11 19,-7 39,-18 59,-33z"/>
  <path id="12" class="fil4" d="M11229 6597c0,40 14,74 40,102 27,27 60,41 98,41 37,0 70,-14 96,-41 26,-28 40,-62 40,-102 0,-40 -14,-74 -40,-101 -26,-28 -59,-42 -96,-42 -39,0 -71,14 -98,42 -26,27 -40,61 -40,101zm-68 0c0,-28 5,-54 15,-79 10,-24 25,-46 45,-66 19,-19 41,-34 66,-44 25,-10 51,-15 80,-15 27,0 53,5 78,15 25,11 47,26 67,45 20,19 35,41 45,66 10,24 15,50 15,78 0,28 -5,54 -15,78 -10,24 -25,46 -45,65 -20,20 -42,35 -67,46 -25,10 -51,15 -78,15 -28,0 -55,-5 -80,-15 -25,-11 -47,-25 -66,-45 -20,-20 -35,-42 -45,-66 -10,-24 -15,-50 -15,-78z"/>
  <path id="13" class="fil4" d="M11673 6785l0 -378 63 0 0 58c17,-24 36,-42 59,-54 23,-12 49,-18 79,-18 45,0 80,12 105,36 25,23 38,56 38,99l0 257 -67 0 0 -223c0,-38 -8,-66 -24,-85 -16,-19 -41,-28 -74,-28 -20,0 -37,4 -53,11 -16,7 -29,17 -40,30 -7,9 -13,21 -17,33 -3,13 -5,35 -5,67l0 195 -64 0z"/>
  <path id="14" class="fil4" d="M12105 6722l55 -38c10,20 24,35 40,45 16,10 35,16 56,16 21,0 39,-6 52,-16 13,-11 19,-24 19,-41 0,-14 -4,-25 -13,-34 -9,-8 -24,-16 -46,-24l-11 -4c-92,-31 -138,-71 -138,-119 0,-33 13,-61 37,-82 25,-21 57,-32 97,-32 33,0 61,7 84,20 24,13 40,31 51,55l-53 33c-7,-18 -19,-31 -34,-40 -15,-10 -32,-15 -52,-15 -19,0 -35,6 -47,16 -12,11 -18,25 -18,41 0,23 25,43 76,59 9,3 16,5 22,7 41,13 70,28 86,45 16,17 24,39 24,67 0,36 -13,65 -38,87 -26,22 -59,33 -100,33 -36,0 -65,-6 -90,-20 -25,-13 -45,-33 -59,-59z"/>
  <polygon id="15" class="fil4" points="12499,6460 12430,6460 12430,6407 12499,6407 12499,6254 12565,6254 12565,6407 12635,6407 12635,6460 12565,6460 12565,6785 12499,6785 "/>
  <path id="16" class="fil4" d="M12709 6785l0 -378 58 0 0 79c17,-33 36,-57 55,-71 20,-14 44,-21 72,-21 8,0 15,1 22,2 7,1 15,3 22,5l-22 59c-7,-2 -14,-4 -21,-6 -6,-1 -13,-1 -19,-1 -34,0 -60,12 -77,37 -17,24 -25,61 -25,111l0 184 -65 0z"/>
  <path id="17" class="fil4" d="M13067 6407l0 186c0,54 8,92 24,114 16,22 43,32 81,32 39,0 66,-10 82,-32 15,-21 23,-59 23,-114l0 -186 66 0 0 221c0,57 -14,100 -43,129 -30,30 -73,44 -129,44 -56,0 -99,-14 -128,-44 -30,-29 -44,-73 -44,-129l0 -221 68 0z"/>
  <path id="18" class="fil4" d="M13457 6224c0,-12 4,-24 14,-33 9,-9 20,-14 33,-14 13,0 24,5 34,14 9,10 14,21 14,34 0,13 -5,24 -14,33 -9,10 -20,14 -34,14 -13,0 -24,-4 -33,-14 -10,-9 -14,-20 -14,-34zm15 561l0 -378 65 0 0 378 -65 0z"/>
  <path id="19" class="fil4" d="M13963 6598c0,-42 -12,-76 -35,-102 -23,-26 -54,-38 -93,-38 -38,0 -68,11 -89,35 -22,23 -33,55 -33,97 0,46 11,83 33,109 22,26 52,40 90,40 40,0 71,-13 93,-38 23,-24 34,-59 34,-103zm63 -454l0 641 -63 0 0 -68c-15,27 -34,48 -58,62 -23,15 -50,22 -79,22 -54,0 -98,-18 -131,-56 -34,-37 -50,-87 -50,-148 0,-62 16,-112 49,-148 32,-37 75,-56 129,-56 32,0 59,7 82,21 23,15 42,36 56,64l0 -334 65 0z"/>
  <path id="20" class="fil4" d="M14196 6597c0,40 13,74 40,102 27,27 59,41 97,41 38,0 70,-14 97,-41 26,-28 39,-62 39,-102 0,-40 -13,-74 -39,-101 -27,-28 -59,-42 -97,-42 -38,0 -71,14 -97,42 -27,27 -40,61 -40,101zm-69 0c0,-28 5,-54 16,-79 10,-24 25,-46 44,-66 20,-19 42,-34 67,-44 25,-10 51,-15 79,-15 28,0 54,5 79,15 24,11 47,26 67,45 19,19 34,41 45,66 10,24 15,50 15,78 0,28 -5,54 -15,78 -11,24 -26,46 -45,65 -20,20 -43,35 -68,46 -25,10 -51,15 -78,15 -28,0 -54,-5 -79,-15 -25,-11 -47,-25 -67,-45 -19,-20 -34,-42 -44,-66 -11,-24 -16,-50 -16,-78z"/>
  <path id="21" class="fil4" d="M14599 6722l56 -38c10,20 23,35 40,45 15,10 34,16 56,16 21,0 39,-6 52,-16 13,-11 19,-24 19,-41 0,-14 -4,-25 -13,-34 -9,-8 -25,-16 -46,-24l-11 -4c-92,-31 -138,-71 -138,-119 0,-33 12,-61 37,-82 25,-21 57,-32 97,-32 33,0 61,7 84,20 24,13 40,31 51,55l-53 33c-8,-18 -19,-31 -34,-40 -15,-10 -32,-15 -52,-15 -19,0 -35,6 -47,16 -12,11 -18,25 -18,41 0,23 25,43 75,59 10,3 17,5 23,7 41,13 69,28 85,45 17,17 25,39 25,67 0,36 -13,65 -39,87 -25,22 -58,33 -99,33 -36,0 -66,-6 -90,-20 -25,-13 -45,-33 -60,-59z"/>
  <path id="22" class="fil4" d="M15502 6553c-2,-33 -13,-59 -33,-77 -20,-18 -47,-27 -82,-27 -31,0 -58,9 -79,28 -21,19 -33,44 -36,76l230 0zm70 53l-300 0 0 5c0,41 12,74 35,99 23,25 53,37 90,37 26,0 49,-7 69,-20 20,-14 38,-35 54,-62l49 33c-19,34 -43,60 -73,77 -29,18 -63,26 -102,26 -58,0 -104,-19 -140,-57 -35,-38 -53,-88 -53,-149 0,-60 18,-108 53,-146 35,-38 80,-57 136,-57 56,0 100,18 133,54 32,36 49,85 49,147l0 13z"/>
  <path id="23" class="fil4" d="M15669 6785l0 -378 64 0 0 58c16,-24 36,-42 58,-54 23,-12 50,-18 80,-18 44,0 79,12 104,36 25,23 38,56 38,99l0 257 -66 0 0 -223c0,-38 -8,-66 -24,-85 -16,-19 -41,-28 -75,-28 -19,0 -37,4 -53,11 -15,7 -29,17 -39,30 -8,9 -14,21 -17,33 -4,13 -5,35 -5,67l0 195 -65 0z"/>
  <path id="24" class="fil4" d="M5085 7568c-2,-33 -13,-59 -33,-77 -20,-18 -47,-27 -82,-27 -31,0 -58,9 -78,28 -21,19 -34,44 -37,76l230 0zm70 53l-300 0 0 5c0,41 12,74 35,99 23,25 53,37 90,37 26,0 49,-7 69,-21 21,-13 39,-34 54,-61l49 33c-19,34 -43,60 -72,77 -30,18 -64,26 -103,26 -57,0 -104,-19 -140,-57 -35,-38 -53,-88 -53,-150 0,-59 18,-107 53,-145 35,-38 81,-57 136,-57 56,0 100,18 133,54 33,36 49,85 49,147l0 13z"/>
  <polygon id="25" class="fil4" points="5256,7800 5256,7159 5322,7159 5322,7800 "/>
  <path id="26" class="fil4" d="M5770 7612c0,43 12,77 35,102 23,26 54,39 93,39 38,0 68,-12 89,-36 22,-23 33,-55 33,-97 0,-47 -11,-83 -33,-110 -21,-26 -52,-39 -90,-39 -40,0 -71,12 -93,37 -23,25 -34,60 -34,104zm-63 373l0 -563 62 0 0 71c15,-27 34,-48 58,-63 24,-15 51,-22 80,-22 55,0 99,19 132,56 33,37 49,86 49,148 0,62 -16,112 -48,149 -33,37 -76,55 -130,55 -31,0 -59,-7 -82,-21 -23,-14 -42,-35 -56,-63l0 253 -65 0z"/>
  <path id="27" class="fil4" d="M6252 7422l0 186c0,54 8,92 24,114 17,21 44,32 82,32 38,0 65,-10 81,-32 16,-21 24,-59 24,-114l0 -186 66 0 0 221c0,57 -14,100 -44,129 -29,29 -72,44 -129,44 -56,0 -98,-15 -128,-44 -29,-30 -43,-73 -43,-129l0 -221 67 0z"/>
  <path id="28" class="fil4" d="M6654 7800l0 -378 64 0 0 58c16,-24 36,-42 59,-54 22,-12 49,-18 79,-18 45,0 79,12 104,36 26,23 38,56 38,99l0 257 -66 0 0 -223c0,-38 -8,-67 -24,-85 -16,-19 -41,-28 -75,-28 -19,0 -37,3 -52,10 -16,8 -29,17 -40,30 -8,10 -14,22 -17,34 -4,13 -5,35 -5,66l0 196 -65 0z"/>
  <polygon id="29" class="fil4" points="7136,7475 7067,7475 7067,7422 7136,7422 7136,7269 7202,7269 7202,7422 7272,7422 7272,7475 7202,7475 7202,7800 7136,7800 "/>
  <path id="30" class="fil4" d="M7383 7612c0,40 14,74 40,102 27,27 60,41 98,41 37,0 70,-14 96,-41 27,-28 40,-62 40,-102 0,-40 -13,-74 -40,-101 -26,-28 -59,-42 -96,-42 -39,0 -71,14 -98,42 -26,27 -40,61 -40,101zm-68 0c0,-28 5,-54 15,-79 10,-25 25,-47 45,-66 19,-19 42,-34 66,-44 25,-10 52,-15 80,-15 27,0 53,5 78,15 25,11 47,25 67,45 20,19 35,41 45,65 10,25 15,51 15,79 0,27 -5,53 -15,78 -10,24 -25,46 -45,65 -20,20 -42,35 -67,45 -25,11 -51,16 -78,16 -28,0 -55,-5 -80,-15 -24,-11 -47,-26 -66,-45 -20,-20 -35,-42 -45,-66 -10,-24 -15,-50 -15,-78z"/>
  <path id="31" class="fil4" d="M8366 7613c0,-42 -12,-76 -35,-102 -23,-26 -54,-39 -93,-39 -38,0 -68,12 -89,36 -22,23 -33,55 -33,97 0,46 11,83 33,109 22,26 52,39 90,39 40,0 71,-12 93,-37 23,-24 34,-59 34,-103zm63 -454l0 641 -63 0 0 -68c-15,27 -34,48 -58,62 -23,15 -50,22 -79,22 -54,0 -98,-19 -131,-56 -34,-37 -50,-87 -50,-148 0,-62 16,-112 49,-149 32,-36 75,-55 129,-55 32,0 59,7 82,21 23,15 42,36 56,64l0 -334 65 0z"/>
  <path id="32" class="fil4" d="M8829 7568c-2,-33 -13,-59 -33,-77 -20,-18 -47,-27 -82,-27 -32,0 -58,9 -79,28 -21,19 -33,44 -36,76l230 0zm70 53l-300 0 0 5c0,41 11,74 35,99 23,25 53,37 90,37 25,0 48,-7 69,-21 20,-13 38,-34 54,-61l49 33c-19,34 -43,60 -73,77 -29,18 -63,26 -102,26 -58,0 -104,-19 -140,-57 -35,-38 -53,-88 -53,-150 0,-59 17,-107 53,-145 35,-38 80,-57 136,-57 56,0 100,18 133,54 32,36 49,85 49,147l0 13z"/>
  <path id="33" class="fil4" d="M9323 7528l0 272 -70 0 0 -605 127 0c44,0 77,2 98,7 21,4 39,12 54,23 20,14 35,32 45,56 11,24 17,51 17,80 0,30 -6,56 -17,80 -10,24 -25,43 -45,57 -15,11 -33,19 -54,23 -21,5 -54,7 -98,7l-21 0 -36 0zm0 -65l36 0c62,0 104,-7 125,-22 21,-14 32,-39 32,-75 0,-39 -11,-66 -33,-82 -22,-15 -63,-23 -124,-23l-36 0 0 202z"/>
  <path id="34" class="fil4" d="M9668 7612c0,40 13,74 40,102 27,27 59,41 97,41 38,0 70,-14 96,-41 27,-28 40,-62 40,-102 0,-40 -13,-74 -40,-101 -26,-28 -58,-42 -96,-42 -38,0 -71,14 -97,42 -27,27 -40,61 -40,101zm-69 0c0,-28 5,-54 15,-79 11,-25 25,-47 45,-66 20,-19 42,-34 67,-44 24,-10 51,-15 79,-15 28,0 54,5 78,15 25,11 47,25 68,45 19,19 34,41 44,65 10,25 16,51 16,79 0,27 -6,53 -16,78 -10,24 -25,46 -44,65 -21,20 -43,35 -68,45 -25,11 -51,16 -78,16 -28,0 -54,-5 -79,-15 -25,-11 -47,-26 -67,-45 -20,-20 -34,-42 -45,-66 -10,-24 -15,-50 -15,-78z"/>
  <polygon id="35" class="fil4" points="10115,7800 10115,7159 10181,7159 10181,7800 "/>
  <path id="36" class="fil4" d="M10320 7800l0 -378 65 0 0 378 -65 0zm-27 -438l85 -144 83 0 -118 144 -50 0z"/>
  <polygon id="37" class="fil4" points="10531,7475 10462,7475 10462,7422 10531,7422 10531,7269 10597,7269 10597,7422 10667,7422 10667,7475 10597,7475 10597,7800 10531,7800 "/>
  <path id="38" class="fil4" d="M10729 7239c0,-13 4,-24 13,-33 10,-9 21,-14 34,-14 13,0 24,5 34,14 9,10 13,21 13,34 0,13 -4,24 -13,33 -9,9 -21,14 -34,14 -13,0 -24,-5 -34,-14 -9,-9 -13,-20 -13,-34zm15 561l0 -378 65 0 0 378 -65 0z"/>
  <path id="39" class="fil4" d="M11236 7710l0 76c-17,10 -36,17 -58,23 -21,5 -44,7 -69,7 -59,0 -106,-18 -141,-55 -36,-38 -54,-86 -54,-147 0,-60 19,-110 56,-148 37,-39 84,-58 141,-58 21,0 42,2 62,7 20,4 39,11 56,19l0 70c-16,-11 -33,-19 -51,-25 -18,-5 -36,-8 -54,-8 -42,0 -76,13 -102,40 -26,26 -38,62 -38,106 0,39 12,71 38,97 26,26 58,39 97,39 20,0 39,-3 58,-10 18,-7 38,-18 59,-33z"/>
  <path id="40" class="fil4" d="M11615 7615c0,-43 -11,-78 -35,-104 -23,-26 -53,-39 -91,-39 -39,0 -69,12 -91,36 -22,24 -32,58 -32,101 0,46 11,81 32,106 22,24 53,37 94,37 38,0 69,-12 90,-36 22,-24 33,-58 33,-101zm63 -193l0 378 -63 0 0 -69c-15,28 -34,49 -58,63 -23,15 -50,22 -79,22 -54,0 -98,-19 -131,-56 -33,-37 -50,-87 -50,-148 0,-62 16,-112 48,-149 33,-37 76,-55 130,-55 31,0 59,7 82,21 23,15 42,36 57,64l0 -71 64 0z"/>
  <path id="41" class="fil4" d="M12347 7613c0,-42 -12,-76 -35,-102 -24,-26 -55,-39 -93,-39 -38,0 -68,12 -90,36 -21,23 -32,55 -32,97 0,46 11,83 33,109 21,26 51,39 90,39 39,0 71,-12 93,-37 22,-24 34,-59 34,-103zm62 -454l0 641 -62 0 0 -68c-15,27 -34,48 -58,62 -24,15 -50,22 -80,22 -54,0 -98,-19 -131,-56 -33,-37 -50,-87 -50,-148 0,-62 17,-112 49,-149 33,-36 76,-55 130,-55 31,0 59,7 82,21 23,15 42,36 56,64l0 -334 64 0z"/>
  <path id="42" class="fil4" d="M12810 7568c-3,-33 -14,-59 -34,-77 -20,-18 -47,-27 -82,-27 -31,0 -57,9 -78,28 -21,19 -33,44 -37,76l231 0zm69 53l-300 0 0 5c0,41 12,74 35,99 23,25 53,37 91,37 25,0 48,-7 68,-21 21,-13 39,-34 54,-61l50 33c-19,34 -44,60 -73,77 -30,18 -64,26 -103,26 -57,0 -104,-19 -139,-57 -36,-38 -54,-88 -54,-150 0,-59 18,-107 53,-145 35,-38 81,-57 136,-57 56,0 100,18 133,54 33,36 49,85 49,147l0 13z"/>
  <path id="43" class="fil4" d="M13306 7732l46 0c74,0 126,-3 154,-9 29,-7 53,-18 72,-34 25,-20 44,-47 56,-80 13,-32 20,-70 20,-112 0,-42 -6,-80 -19,-112 -13,-32 -32,-58 -57,-79 -19,-16 -43,-28 -73,-34 -29,-7 -80,-10 -153,-10l-46 0 0 470zm-73 68l0 -605 116 0c86,0 147,4 182,13 35,8 66,23 92,43 35,27 62,61 79,103 18,41 27,89 27,144 0,54 -9,102 -26,143 -18,41 -45,76 -80,102 -26,21 -56,35 -90,44 -34,9 -86,13 -158,13l-26 0 -116 0z"/>
  <path id="44" class="fil4" d="M14109 7568c-3,-33 -14,-59 -34,-77 -19,-18 -47,-27 -82,-27 -31,0 -57,9 -78,28 -21,19 -33,44 -37,76l231 0zm69 53l-300 0 0 5c0,41 12,74 35,99 23,25 54,37 91,37 25,0 48,-7 68,-21 21,-13 39,-34 55,-61l49 33c-19,34 -44,60 -73,77 -30,18 -64,26 -103,26 -57,0 -104,-19 -139,-57 -36,-38 -54,-88 -54,-150 0,-59 18,-107 53,-145 36,-38 81,-57 136,-57 56,0 100,18 133,54 33,36 49,85 49,147l0 13z"/>
  <path id="45" class="fil4" d="M14236 7736l55 -37c11,20 24,35 40,45 16,10 35,15 56,15 22,0 39,-5 52,-15 13,-11 20,-25 20,-42 0,-13 -5,-24 -14,-33 -9,-8 -24,-17 -46,-24l-11 -4c-92,-31 -138,-71 -138,-119 0,-33 13,-61 37,-82 25,-21 57,-32 97,-32 33,0 61,7 84,20 24,13 41,31 51,55l-53 33c-7,-18 -19,-31 -34,-41 -15,-9 -32,-14 -52,-14 -19,0 -35,6 -47,16 -12,11 -18,24 -18,41 0,23 26,43 76,58 9,3 17,6 22,7 41,14 70,29 86,46 16,17 24,39 24,67 0,36 -13,65 -38,87 -26,22 -59,33 -100,33 -35,0 -65,-7 -90,-20 -25,-13 -44,-33 -59,-60z"/>
  <path id="46" class="fil4" d="M14910 7615c0,-43 -12,-78 -35,-104 -23,-26 -54,-39 -91,-39 -39,0 -69,12 -91,36 -22,24 -33,58 -33,101 0,46 11,81 33,106 22,24 53,37 93,37 39,0 69,-12 91,-36 22,-24 33,-58 33,-101zm63 -193l0 378 -63 0 0 -69c-15,28 -35,49 -58,63 -24,15 -50,22 -79,22 -55,0 -98,-19 -132,-56 -33,-37 -49,-87 -49,-148 0,-62 16,-112 48,-149 32,-37 75,-55 129,-55 32,0 60,7 83,21 23,15 42,36 56,64l0 -71 65 0z"/>
  <path id="47" class="fil4" d="M15103 7800l0 -378 58 0 0 78c17,-32 35,-56 55,-70 20,-14 44,-21 72,-21 7,0 15,0 22,2 7,1 14,3 21,5l-21 59c-7,-3 -15,-4 -21,-6 -7,-1 -13,-2 -19,-2 -34,0 -60,13 -77,37 -17,25 -26,62 -26,112l0 184 -64 0z"/>
  <path id="48" class="fil4" d="M15400 7800l0 -378 58 0 0 78c17,-32 36,-56 55,-70 20,-14 44,-21 72,-21 8,0 15,0 22,2 7,1 14,3 22,5l-22 59c-7,-3 -14,-4 -21,-6 -7,-1 -13,-2 -19,-2 -34,0 -60,13 -77,37 -17,25 -26,62 -26,112l0 184 -64 0z"/>
  <path id="49" class="fil4" d="M15734 7612c0,40 14,74 41,102 26,27 59,41 97,41 38,0 70,-14 96,-41 27,-28 40,-62 40,-102 0,-40 -13,-74 -40,-101 -26,-28 -58,-42 -96,-42 -38,0 -71,14 -98,42 -26,27 -40,61 -40,101zm-68 0c0,-28 5,-54 15,-79 10,-25 25,-47 45,-66 20,-19 42,-34 66,-44 25,-10 52,-15 80,-15 27,0 54,5 78,15 25,11 47,25 67,45 20,19 35,41 45,65 10,25 15,51 15,79 0,27 -5,53 -15,78 -10,24 -25,46 -45,65 -20,20 -42,35 -67,45 -25,11 -51,16 -78,16 -28,0 -54,-5 -79,-15 -25,-11 -47,-26 -67,-45 -20,-20 -35,-42 -45,-66 -10,-24 -15,-50 -15,-78z"/>
  <polygon id="50" class="fil4" points="16181,7800 16181,7159 16247,7159 16247,7800 "/>
  <polygon id="51" class="fil4" points="16386,7800 16386,7159 16452,7159 16452,7800 "/>
  <path id="52" class="fil4" d="M16626 7612c0,40 14,74 40,102 27,27 60,41 97,41 38,0 70,-14 97,-41 26,-28 40,-62 40,-102 0,-40 -14,-74 -40,-101 -27,-28 -59,-42 -97,-42 -38,0 -70,14 -97,42 -27,27 -40,61 -40,101zm-68 0c0,-28 5,-54 15,-79 10,-25 25,-47 45,-66 19,-19 41,-34 66,-44 25,-10 51,-15 80,-15 27,0 53,5 78,15 25,11 47,25 67,45 20,19 35,41 45,65 10,25 15,51 15,79 0,27 -5,53 -15,78 -10,24 -25,46 -45,65 -20,20 -43,35 -67,45 -25,11 -51,16 -78,16 -28,0 -55,-5 -80,-15 -25,-11 -47,-26 -66,-45 -20,-20 -35,-42 -45,-66 -10,-24 -15,-50 -15,-78z"/>
  <path id="53" class="fil4" d="M4634 8815l0 -605 143 0c40,0 70,2 89,6 18,5 35,13 50,24 17,14 31,33 41,56 10,24 15,50 15,78 0,50 -14,88 -41,114 -28,25 -69,38 -122,38l-13 0 231 289 -91 0 -221 -289 -10 0 0 289 -71 0zm71 -545l0 203 54 0c57,0 94,-7 113,-22 20,-14 29,-40 29,-76 0,-38 -10,-66 -29,-81 -20,-16 -57,-24 -113,-24l-54 0z"/>
  <path id="54" class="fil4" d="M5142 8436l0 187c0,54 8,92 24,114 16,21 43,32 81,32 39,0 66,-11 82,-32 15,-21 23,-59 23,-114l0 -187 66 0 0 221c0,57 -14,101 -43,130 -30,29 -73,44 -129,44 -56,0 -99,-15 -128,-44 -30,-30 -44,-73 -44,-130l0 -221 68 0z"/>
  <path id="55" class="fil4" d="M5544 8815l0 -379 58 0 0 79c18,-33 36,-56 56,-70 19,-14 43,-21 71,-21 8,0 15,0 23,2 7,1 14,3 21,5l-21 59c-8,-3 -15,-5 -22,-6 -6,-1 -13,-2 -19,-2 -34,0 -59,13 -77,37 -17,25 -25,62 -25,112l0 184 -65 0z"/>
  <path id="56" class="fil4" d="M6130 8629c0,-42 -11,-77 -35,-103 -23,-26 -53,-39 -91,-39 -39,0 -69,12 -91,36 -22,24 -32,58 -32,101 0,45 11,81 32,105 22,25 54,38 94,38 38,0 69,-12 90,-36 22,-25 33,-58 33,-102zm63 -193l0 379 -63 0 0 -69c-15,28 -34,49 -58,63 -23,15 -50,22 -79,22 -54,0 -98,-19 -131,-56 -33,-37 -50,-87 -50,-148 0,-63 16,-112 48,-149 33,-37 76,-55 130,-55 31,0 59,7 82,21 23,14 42,36 57,64l0 -72 64 0z"/>
  <polygon id="57" class="fil4" points="6326,8815 6326,8174 6392,8174 6392,8815 "/>
  <polygon id="58" class="fil4" points="6785,8815 6785,8210 6857,8210 6857,8815 "/>
  <path id="59" class="fil4" d="M6996 8815l0 -379 64 0 0 59c16,-24 36,-42 59,-54 22,-12 49,-18 79,-18 45,0 79,12 104,35 26,24 38,57 38,99l0 258 -66 0 0 -223c0,-38 -8,-67 -24,-85 -16,-19 -41,-28 -75,-28 -19,0 -37,3 -53,10 -15,7 -28,17 -39,30 -8,10 -14,22 -17,34 -4,13 -5,35 -5,66l0 196 -65 0z"/>
  <polygon id="60" class="fil4" points="7478,8490 7409,8490 7409,8436 7478,8436 7478,8284 7544,8284 7544,8436 7614,8436 7614,8490 7544,8490 7544,8815 7478,8815 "/>
  <path id="61" class="fil4" d="M7956 8583c-3,-33 -14,-59 -34,-77 -20,-18 -47,-27 -82,-27 -31,0 -57,9 -78,28 -21,19 -33,44 -37,76l231 0zm69 52l-300 0 0 6c0,41 12,73 35,98 23,25 53,38 91,38 25,0 48,-7 68,-21 21,-13 39,-34 54,-61l50 33c-19,34 -44,60 -73,77 -30,17 -64,26 -103,26 -57,0 -104,-19 -139,-57 -36,-38 -54,-88 -54,-150 0,-59 18,-108 53,-145 35,-38 81,-57 136,-57 56,0 100,18 133,54 33,36 49,85 49,147l0 12z"/>
  <path id="62" class="fil4" d="M8412 8627c0,-43 -11,-77 -35,-103 -23,-25 -53,-38 -91,-38 -39,0 -69,12 -91,36 -22,24 -33,57 -33,100 0,46 11,81 33,106 22,25 53,37 94,37 38,0 68,-12 90,-37 22,-24 33,-58 33,-101zm63 -191l0 372c0,41 -3,71 -9,88 -5,17 -14,33 -27,47 -17,19 -39,33 -65,42 -25,10 -54,14 -87,14 -58,0 -102,-13 -135,-39 -32,-26 -48,-63 -50,-111l73 0 0 5c0,28 10,50 29,66 20,15 48,23 84,23 25,0 48,-4 66,-13 18,-8 32,-21 42,-37 6,-10 10,-21 12,-33 3,-12 4,-30 4,-53l0 -30 0 -34c-15,27 -34,48 -57,62 -24,15 -51,22 -80,22 -55,0 -98,-19 -131,-56 -34,-37 -50,-86 -50,-147 0,-62 16,-111 48,-147 32,-36 76,-54 130,-54 31,0 59,7 82,21 24,14 43,35 56,63l0 -71 65 0z"/>
  <path id="63" class="fil4" d="M8607 8815l0 -379 57 0 0 79c18,-33 36,-56 56,-70 20,-14 43,-21 71,-21 8,0 16,0 23,2 7,1 14,3 21,5l-21 59c-8,-3 -15,-5 -21,-6 -7,-1 -13,-2 -19,-2 -34,0 -60,13 -77,37 -17,25 -26,62 -26,112l0 184 -64 0z"/>
  <path id="64" class="fil4" d="M9193 8629c0,-42 -12,-77 -35,-103 -24,-26 -54,-39 -92,-39 -38,0 -69,12 -90,36 -22,24 -33,58 -33,101 0,45 11,81 33,105 22,25 53,38 93,38 39,0 69,-12 91,-36 22,-25 33,-58 33,-102zm62 -193l0 379 -62 0 0 -69c-15,28 -35,49 -59,63 -23,15 -49,22 -79,22 -54,0 -98,-19 -131,-56 -33,-37 -50,-87 -50,-148 0,-63 16,-112 49,-149 32,-37 75,-55 129,-55 32,0 59,7 82,21 24,14 43,36 57,64l0 -72 64 0z"/>
  <polygon id="65" class="fil4" points="9388,8815 9388,8174 9454,8174 9454,8815 "/>
  <path id="66" class="fil4" d="M9800 8751l55 -37c10,20 24,35 40,45 16,10 35,15 56,15 21,0 39,-5 52,-15 13,-11 19,-25 19,-42 0,-13 -4,-24 -13,-33 -9,-9 -24,-17 -46,-24l-11 -4c-92,-31 -138,-71 -138,-119 0,-34 12,-61 37,-82 25,-22 57,-32 97,-32 33,0 61,6 84,20 24,13 40,31 51,55l-53 32c-8,-17 -19,-30 -34,-40 -15,-9 -32,-14 -52,-14 -19,0 -35,6 -47,16 -12,11 -18,24 -18,41 0,23 25,43 75,58 10,3 17,6 23,7 41,14 69,29 86,46 16,17 24,39 24,67 0,35 -13,65 -39,87 -25,22 -58,33 -99,33 -36,0 -65,-7 -90,-20 -25,-13 -45,-33 -59,-60z"/>
  <path id="67" class="fil4" d="M10453 8583c-3,-33 -14,-59 -34,-77 -20,-18 -47,-27 -82,-27 -31,0 -57,9 -78,28 -21,19 -33,44 -37,76l231 0zm69 52l-300 0 0 6c0,41 12,73 35,98 23,25 53,38 91,38 25,0 48,-7 68,-21 21,-13 39,-34 54,-61l49 33c-18,34 -43,60 -72,77 -30,17 -64,26 -103,26 -57,0 -104,-19 -139,-57 -36,-38 -54,-88 -54,-150 0,-59 18,-108 53,-145 35,-38 81,-57 136,-57 56,0 100,18 133,54 33,36 49,85 49,147l0 12z"/>
  <path id="68" class="fil4" d="M10869 8815l0 -641 64 0 0 321c16,-24 36,-42 59,-54 22,-12 49,-18 79,-18 45,0 79,12 104,35 26,24 38,57 38,99l0 258 -66 0 0 -223c0,-38 -8,-67 -24,-85 -16,-19 -41,-28 -75,-28 -19,0 -37,3 -53,10 -15,7 -28,17 -39,30 -8,10 -14,22 -17,34 -4,13 -5,35 -5,66l0 196 -65 0z"/>
  <path id="69" class="fil4" d="M11631 8629c0,-42 -12,-77 -35,-103 -24,-26 -54,-39 -92,-39 -38,0 -69,12 -90,36 -22,24 -33,58 -33,101 0,45 11,81 33,105 22,25 53,38 93,38 39,0 69,-12 91,-36 22,-25 33,-58 33,-102zm62 -193l0 379 -62 0 0 -69c-15,28 -35,49 -59,63 -23,15 -49,22 -79,22 -54,0 -98,-19 -131,-56 -33,-37 -50,-87 -50,-148 0,-63 16,-112 49,-149 32,-37 75,-55 129,-55 32,0 59,7 82,21 24,14 43,36 57,64l0 -72 64 0z"/>
  <path id="70" class="fil4" d="M11823 8815l0 -379 63 0 0 59c16,-24 36,-42 59,-54 23,-12 49,-18 79,-18 45,0 80,12 105,35 25,24 37,57 37,99l0 258 -66 0 0 -223c0,-38 -8,-67 -24,-85 -16,-19 -41,-28 -74,-28 -20,0 -37,3 -53,10 -16,7 -29,17 -40,30 -8,10 -13,22 -17,34 -3,13 -5,35 -5,66l0 196 -64 0z"/>
  <path id="71" class="fil4" d="M12834 8628c0,-42 -12,-76 -35,-102 -24,-26 -55,-39 -93,-39 -38,0 -68,12 -90,35 -21,24 -32,56 -32,97 0,47 11,84 33,110 21,26 51,39 90,39 40,0 71,-12 93,-37 22,-25 34,-59 34,-103zm62 -454l0 641 -62 0 0 -69c-15,28 -34,49 -58,63 -24,15 -50,22 -80,22 -54,0 -98,-19 -131,-56 -33,-37 -50,-87 -50,-148 0,-62 17,-112 49,-149 33,-37 76,-55 130,-55 31,0 59,7 82,21 23,14 42,36 56,64l0 -334 64 0z"/>
  <path id="72" class="fil4" d="M13297 8583c-3,-33 -14,-59 -34,-77 -19,-18 -47,-27 -82,-27 -31,0 -57,9 -78,28 -21,19 -33,44 -37,76l231 0zm69 52l-300 0 0 6c0,41 12,73 35,98 23,25 53,38 91,38 25,0 48,-7 68,-21 21,-13 39,-34 54,-61l50 33c-19,34 -44,60 -73,77 -30,17 -64,26 -103,26 -57,0 -104,-19 -139,-57 -36,-38 -54,-88 -54,-150 0,-59 18,-108 53,-145 35,-38 81,-57 136,-57 56,0 100,18 133,54 33,36 49,85 49,147l0 12z"/>
  <path id="73" class="fil4" d="M13464 8815l0 -379 63 0 0 59c16,-24 36,-42 59,-54 23,-12 49,-18 79,-18 45,0 80,12 105,35 25,24 37,57 37,99l0 258 -66 0 0 -223c0,-38 -8,-67 -24,-85 -16,-19 -41,-28 -74,-28 -20,0 -37,3 -53,10 -16,7 -29,17 -40,30 -8,10 -13,22 -17,34 -3,13 -5,35 -5,66l0 196 -64 0z"/>
  <path id="74" class="fil4" d="M13973 8627c0,40 14,74 41,101 26,28 59,42 97,42 38,0 70,-14 96,-42 27,-27 40,-61 40,-101 0,-40 -13,-74 -40,-102 -26,-27 -58,-41 -96,-41 -38,0 -71,14 -98,41 -26,28 -40,62 -40,102zm-68 0c0,-28 5,-54 15,-79 10,-25 25,-47 45,-66 20,-19 42,-34 66,-44 25,-10 52,-15 80,-15 27,0 54,5 78,15 25,10 47,25 67,45 20,19 35,41 45,65 10,25 15,51 15,79 0,27 -5,53 -15,78 -10,24 -25,46 -45,65 -20,20 -42,35 -67,45 -25,11 -51,16 -78,16 -28,0 -54,-5 -79,-16 -25,-10 -47,-25 -67,-44 -20,-20 -35,-42 -45,-66 -10,-24 -15,-50 -15,-78z"/>
  <path id="75" class="fil4" d="M14944 8815l0 -223c0,-38 -8,-67 -24,-85 -15,-19 -39,-28 -70,-28 -18,0 -34,3 -49,10 -14,7 -27,17 -37,30 -7,10 -13,22 -16,35 -3,13 -5,35 -5,65l0 196 -63 0 0 -223c0,-38 -7,-67 -23,-85 -15,-19 -39,-28 -71,-28 -17,0 -33,3 -48,10 -15,7 -28,17 -38,30 -7,10 -12,21 -16,34 -3,12 -4,35 -4,66l0 196 -63 0 0 -379 64 0 0 59c15,-24 34,-42 56,-54 21,-12 47,-18 75,-18 31,0 57,6 78,20 22,13 38,32 49,57 16,-26 35,-45 57,-58 23,-13 48,-19 78,-19 42,0 75,12 98,35 24,24 36,57 36,99l0 258 -64 0z"/>
  <path id="76" class="fil4" d="M15123 8254c0,-13 5,-24 14,-33 9,-9 21,-14 34,-14 13,0 24,5 33,14 9,9 14,21 14,34 0,13 -4,24 -14,33 -9,9 -20,14 -33,14 -13,0 -25,-5 -34,-14 -9,-9 -14,-20 -14,-34zm16 561l0 -379 65 0 0 379 -65 0z"/>
  <path id="77" class="fil4" d="M15340 8815l0 -379 64 0 0 59c16,-24 36,-42 58,-54 23,-12 50,-18 80,-18 44,0 79,12 104,35 25,24 38,57 38,99l0 258 -66 0 0 -223c0,-38 -8,-67 -24,-85 -16,-19 -41,-28 -75,-28 -19,0 -37,3 -53,10 -15,7 -29,17 -39,30 -8,10 -14,22 -17,34 -4,13 -5,35 -5,66l0 196 -65 0z"/>
  <path id="78" class="fil4" d="M16101 8629c0,-42 -11,-77 -35,-103 -23,-26 -53,-39 -91,-39 -38,0 -69,12 -91,36 -21,24 -32,58 -32,101 0,45 11,81 33,105 21,25 53,38 93,38 38,0 69,-12 91,-36 21,-25 32,-58 32,-102zm63 -193l0 379 -63 0 0 -69c-15,28 -34,49 -58,63 -23,15 -50,22 -79,22 -54,0 -98,-19 -131,-56 -33,-37 -50,-87 -50,-148 0,-63 16,-112 49,-149 32,-37 75,-55 129,-55 32,0 59,7 82,21 24,14 43,36 57,64l0 -72 64 0z"/>
  <path id="79" class="fil4" d="M16583 8628c0,-42 -12,-76 -35,-102 -23,-26 -54,-39 -93,-39 -38,0 -68,12 -89,35 -22,24 -33,56 -33,97 0,47 11,84 33,110 22,26 52,39 90,39 40,0 71,-12 93,-37 23,-25 34,-59 34,-103zm63 -454l0 641 -63 0 0 -69c-15,28 -34,49 -58,63 -23,15 -50,22 -79,22 -55,0 -98,-19 -131,-56 -34,-37 -50,-87 -50,-148 0,-62 16,-112 49,-149 32,-37 75,-55 129,-55 32,0 59,7 82,21 23,14 42,36 56,64l0 -334 65 0z"/>
  <path id="80" class="fil4" d="M16816 8627c0,40 13,74 40,101 27,28 59,42 97,42 38,0 70,-14 97,-42 26,-27 39,-61 39,-101 0,-40 -13,-74 -39,-102 -27,-27 -59,-41 -97,-41 -38,0 -71,14 -97,41 -27,28 -40,62 -40,102zm-69 0c0,-28 5,-54 15,-79 11,-25 26,-47 45,-66 20,-19 42,-34 67,-44 25,-10 51,-15 79,-15 28,0 54,5 79,15 24,10 47,25 67,45 19,19 34,41 44,65 11,25 16,51 16,79 0,27 -5,53 -16,78 -10,24 -25,46 -44,65 -20,20 -43,35 -68,45 -25,11 -51,16 -78,16 -28,0 -54,-5 -79,-16 -25,-10 -47,-25 -67,-44 -19,-20 -34,-42 -45,-66 -10,-24 -15,-50 -15,-78z"/>
  <path id="81" class="fil4" d="M4203 9237l0 229 -48 0 0 -229 48 0zm-117 0l0 229 -48 0 0 -229 48 0z"/>
  <polygon id="82" class="fil4" points="4316,9830 4316,9224 4388,9224 4388,9457 4710,9457 4710,9224 4783,9224 4783,9830 4710,9830 4710,9526 4388,9526 4388,9830 "/>
  <path id="83" class="fil4" d="M5210 9644c0,-42 -11,-77 -35,-103 -23,-26 -53,-39 -91,-39 -39,0 -69,12 -91,36 -22,24 -32,58 -32,101 0,45 11,81 32,105 22,25 53,38 94,38 38,0 69,-12 90,-37 22,-24 33,-57 33,-101zm63 -193l0 379 -63 0 0 -69c-15,28 -34,49 -58,63 -23,15 -50,22 -79,22 -54,0 -98,-19 -131,-56 -33,-38 -50,-87 -50,-148 0,-63 16,-112 48,-149 33,-37 76,-55 130,-55 31,0 59,7 82,21 23,14 42,36 57,64l0 -72 64 0z"/>
  <path id="84" class="fil4" d="M5693 9740l0 75c-17,11 -37,18 -58,23 -21,5 -44,8 -69,8 -59,0 -106,-19 -141,-56 -36,-37 -54,-86 -54,-146 0,-61 18,-110 55,-149 37,-38 85,-57 142,-57 21,0 42,2 62,6 20,5 38,11 56,20l0 69c-16,-10 -33,-18 -51,-24 -18,-6 -36,-9 -54,-9 -42,0 -76,14 -102,40 -26,27 -39,62 -39,106 0,39 13,72 39,98 26,26 58,39 97,39 20,0 39,-3 58,-10 18,-7 38,-18 59,-33z"/>
  <path id="85" class="fil4" d="M5771 9269c0,-13 4,-24 14,-33 9,-9 20,-14 33,-14 13,0 24,5 34,14 9,9 14,21 14,34 0,13 -5,24 -14,33 -9,9 -20,14 -34,14 -13,0 -24,-5 -33,-14 -10,-9 -14,-20 -14,-34zm15 561l0 -379 65 0 0 379 -65 0z"/>
  <path id="86" class="fil4" d="M6277 9644c0,-42 -11,-77 -35,-103 -23,-26 -53,-39 -91,-39 -39,0 -69,12 -91,36 -22,24 -33,58 -33,101 0,45 11,81 33,105 22,25 53,38 94,38 38,0 68,-12 90,-37 22,-24 33,-57 33,-101zm63 -193l0 379 -63 0 0 -69c-15,28 -34,49 -58,63 -23,15 -50,22 -79,22 -54,0 -98,-19 -131,-56 -33,-38 -50,-87 -50,-148 0,-63 16,-112 48,-149 32,-37 76,-55 130,-55 31,0 59,7 82,21 23,14 42,36 57,64l0 -72 64 0z"/>
  <path id="87" class="fil4" d="M6780 9451l0 187c0,54 8,92 24,114 16,21 43,32 82,32 38,0 65,-11 81,-32 16,-21 24,-60 24,-114l0 -187 66 0 0 221c0,57 -15,100 -44,130 -29,29 -72,44 -129,44 -56,0 -99,-15 -128,-44 -29,-30 -44,-73 -44,-130l0 -221 68 0z"/>
  <path id="88" class="fil4" d="M7182 9830l0 -379 64 0 0 59c16,-25 35,-43 58,-54 23,-12 50,-18 80,-18 44,0 79,12 104,35 25,24 38,57 38,99l0 258 -66 0 0 -223c0,-38 -8,-67 -24,-85 -17,-19 -41,-28 -75,-28 -19,0 -37,3 -53,10 -16,7 -29,17 -39,30 -8,10 -14,21 -17,34 -4,13 -6,35 -6,66l0 196 -64 0z"/>
  <path id="89" class="fil4" d="M7904 9830l0 -379 63 0 0 59c16,-25 36,-43 59,-54 23,-12 49,-18 79,-18 45,0 80,12 105,35 25,24 37,57 37,99l0 258 -66 0 0 -223c0,-38 -8,-67 -24,-85 -16,-19 -41,-28 -75,-28 -19,0 -36,3 -52,10 -16,7 -29,17 -40,30 -8,10 -13,21 -17,34 -3,13 -5,35 -5,66l0 196 -64 0z"/>
  <path id="90" class="fil4" d="M8436 9451l0 187c0,54 8,92 24,114 17,21 44,32 82,32 38,0 65,-11 81,-32 16,-21 24,-60 24,-114l0 -187 66 0 0 221c0,57 -14,100 -44,130 -29,29 -72,44 -129,44 -56,0 -99,-15 -128,-44 -29,-30 -43,-73 -43,-130l0 -221 67 0z"/>
  <path id="91" class="fil4" d="M9107 9598c-3,-34 -14,-59 -34,-77 -20,-18 -47,-27 -82,-27 -31,0 -57,9 -78,28 -21,19 -33,44 -37,76l231 0zm69 52l-300 0 0 6c0,41 12,73 35,98 23,25 53,38 91,38 25,0 48,-7 68,-21 21,-13 39,-34 54,-61l50 33c-19,34 -44,60 -73,77 -30,17 -64,26 -103,26 -57,0 -104,-19 -139,-57 -36,-38 -54,-88 -54,-150 0,-59 18,-108 53,-145 35,-38 81,-57 136,-57 56,0 100,18 133,54 33,36 49,84 49,146l0 13z"/>
  <polygon id="92" class="fil4" points="9398,9853 9211,9451 9284,9451 9398,9716 9512,9451 9584,9451 "/>
  <path id="93" class="fil4" d="M9692 9642c0,40 13,74 40,101 27,28 59,42 97,42 38,0 70,-14 97,-42 26,-27 39,-61 39,-101 0,-40 -13,-74 -39,-102 -27,-27 -59,-41 -97,-41 -38,0 -70,14 -97,41 -27,28 -40,62 -40,102zm-69 0c0,-28 6,-55 16,-79 10,-25 25,-47 44,-66 20,-19 42,-34 67,-44 25,-10 51,-15 79,-15 28,0 54,5 79,15 24,10 47,25 67,45 20,19 34,41 45,65 10,25 15,51 15,79 0,27 -5,53 -15,78 -11,24 -25,46 -45,65 -20,20 -43,35 -68,45 -25,11 -51,16 -78,16 -27,0 -54,-5 -79,-16 -25,-10 -47,-25 -67,-44 -19,-20 -34,-42 -44,-66 -10,-25 -16,-51 -16,-78z"/>
  <path id="94" class="fil4" d="M10676 9740l0 75c-17,11 -37,18 -58,23 -21,5 -44,8 -69,8 -59,0 -106,-19 -141,-56 -36,-37 -54,-86 -54,-146 0,-61 18,-110 55,-149 37,-38 85,-57 142,-57 21,0 42,2 62,6 20,5 38,11 56,20l0 69c-16,-10 -34,-18 -51,-24 -18,-6 -36,-9 -54,-9 -42,0 -77,14 -102,40 -26,27 -39,62 -39,106 0,39 13,72 39,98 26,26 58,39 97,39 20,0 39,-3 58,-10 18,-7 38,-18 59,-33z"/>
  <path id="95" class="fil4" d="M11055 9644c0,-42 -12,-77 -35,-103 -23,-26 -53,-39 -91,-39 -39,0 -69,12 -91,36 -22,24 -33,58 -33,101 0,45 11,81 33,105 22,25 53,38 94,38 38,0 68,-12 90,-37 22,-24 33,-57 33,-101zm63 -193l0 379 -63 0 0 -69c-15,28 -34,49 -58,63 -24,15 -50,22 -79,22 -54,0 -98,-19 -131,-56 -34,-38 -50,-87 -50,-148 0,-63 16,-112 48,-149 32,-37 76,-55 130,-55 31,0 59,7 82,21 23,14 42,36 56,64l0 -72 65 0z"/>
  <path id="96" class="fil4" d="M11774 9830l0 -223c0,-38 -8,-67 -23,-85 -16,-19 -39,-28 -71,-28 -18,0 -34,3 -48,10 -15,7 -28,17 -38,30 -7,10 -13,22 -16,35 -3,13 -5,35 -5,65l0 196 -62 0 0 -223c0,-38 -8,-67 -24,-85 -15,-19 -39,-28 -71,-28 -17,0 -33,3 -48,10 -15,7 -28,17 -38,30 -7,10 -12,21 -15,34 -4,12 -5,35 -5,66l0 196 -63 0 0 -379 64 0 0 59c15,-25 34,-43 56,-54 22,-12 47,-18 75,-18 31,0 57,6 78,19 22,14 38,33 49,58 16,-26 36,-45 58,-58 22,-13 48,-19 77,-19 42,0 75,12 99,35 23,24 35,57 35,99l0 258 -64 0z"/>
  <path id="97" class="fil4" d="M12028 9642c0,42 12,76 35,102 24,26 55,38 93,38 38,0 68,-11 89,-35 22,-23 33,-56 33,-97 0,-47 -11,-83 -33,-110 -21,-26 -51,-40 -90,-40 -40,0 -70,13 -93,38 -23,25 -34,60 -34,104zm-63 372l0 -563 62 0 0 72c15,-28 34,-49 58,-63 24,-15 51,-22 80,-22 55,0 99,18 132,56 33,37 49,86 49,148 0,62 -16,112 -48,149 -33,37 -76,55 -130,55 -31,0 -59,-7 -82,-21 -23,-15 -42,-36 -56,-64l0 253 -65 0z"/>
  <path id="98" class="fil4" d="M12488 9642c0,40 13,74 40,101 26,28 59,42 97,42 38,0 70,-14 96,-42 27,-27 40,-61 40,-101 0,-40 -13,-74 -40,-102 -26,-27 -58,-41 -96,-41 -38,0 -71,14 -97,41 -27,28 -40,62 -40,102zm-69 0c0,-28 5,-55 15,-79 11,-25 25,-47 45,-66 20,-19 42,-34 67,-44 24,-10 51,-15 79,-15 28,0 54,5 78,15 25,10 47,25 68,45 19,19 34,41 44,65 10,25 15,51 15,79 0,27 -5,53 -15,78 -10,24 -25,46 -44,65 -21,20 -43,35 -68,45 -25,11 -51,16 -78,16 -28,0 -54,-5 -79,-16 -25,-10 -47,-25 -67,-44 -20,-20 -34,-42 -45,-66 -10,-25 -15,-51 -15,-78z"/>
  <path id="99" class="fil4" d="M13471 9740l0 75c-17,11 -36,18 -57,23 -22,5 -45,8 -70,8 -58,0 -105,-19 -141,-56 -36,-37 -53,-86 -53,-146 0,-61 18,-110 55,-149 37,-38 84,-57 142,-57 21,0 41,2 61,6 20,5 39,11 57,20l0 69c-17,-10 -34,-18 -52,-24 -17,-6 -35,-9 -53,-9 -43,0 -77,14 -103,40 -25,27 -38,62 -38,106 0,39 13,72 39,98 25,26 58,39 97,39 19,0 38,-3 57,-10 19,-7 39,-18 59,-33z"/>
  <path id="100" class="fil4" d="M13599 9642c0,40 14,74 40,101 27,28 60,42 98,42 37,0 70,-14 96,-42 26,-27 40,-61 40,-101 0,-40 -14,-74 -40,-102 -26,-27 -59,-41 -96,-41 -39,0 -71,14 -98,41 -26,28 -40,62 -40,102zm-68 0c0,-28 5,-55 15,-79 10,-25 25,-47 45,-66 19,-19 41,-34 66,-44 25,-10 51,-15 80,-15 27,0 53,5 78,15 25,10 47,25 67,45 20,19 35,41 45,65 10,25 15,51 15,79 0,27 -5,53 -15,78 -10,24 -25,46 -45,65 -20,20 -42,35 -67,45 -25,11 -51,16 -78,16 -28,0 -55,-5 -80,-16 -25,-10 -47,-25 -66,-44 -20,-20 -35,-42 -45,-66 -10,-25 -15,-51 -15,-78z"/>
  <polygon id="101" class="fil4" points="14046,9830 14046,9189 14112,9189 14112,9830 "/>
  <path id="102" class="fil4" d="M14286 9642c0,40 13,74 40,101 27,28 59,42 97,42 38,0 70,-14 97,-42 26,-27 39,-61 39,-101 0,-40 -13,-74 -39,-102 -27,-27 -59,-41 -97,-41 -38,0 -70,14 -97,41 -27,28 -40,62 -40,102zm-69 0c0,-28 5,-55 16,-79 10,-25 25,-47 44,-66 20,-19 42,-34 67,-44 25,-10 51,-15 79,-15 28,0 54,5 79,15 24,10 47,25 67,45 19,19 34,41 45,65 10,25 15,51 15,79 0,27 -5,53 -15,78 -11,24 -26,46 -45,65 -20,20 -43,35 -68,45 -25,11 -51,16 -78,16 -28,0 -54,-5 -79,-16 -25,-10 -47,-25 -67,-44 -19,-20 -34,-42 -44,-66 -11,-25 -16,-51 -16,-78z"/>
  <path id="103" class="fil4" d="M15256 9830l0 -223c0,-38 -8,-67 -23,-85 -15,-19 -39,-28 -71,-28 -17,0 -34,3 -48,10 -15,7 -27,17 -38,30 -7,10 -12,22 -16,35 -3,13 -5,35 -5,65l0 196 -62 0 0 -223c0,-38 -8,-67 -23,-85 -16,-19 -40,-28 -71,-28 -18,0 -34,3 -49,10 -15,7 -27,17 -38,30 -7,10 -12,21 -15,34 -3,12 -5,35 -5,66l0 196 -63 0 0 -379 64 0 0 59c16,-25 34,-43 56,-54 22,-12 47,-18 75,-18 31,0 57,6 78,19 22,14 38,33 49,58 17,-26 36,-45 58,-58 22,-13 48,-19 77,-19 42,0 75,12 99,35 24,24 35,57 35,99l0 258 -64 0z"/>
  <path id="104" class="fil4" d="M15509 9643c0,44 12,78 34,103 23,25 54,37 93,37 39,0 69,-13 91,-39 22,-27 33,-63 33,-110 0,-41 -11,-73 -32,-97 -22,-23 -52,-35 -90,-35 -38,0 -69,13 -93,39 -24,25 -36,59 -36,102zm-61 -454l64 0 0 334c15,-28 33,-50 56,-64 24,-14 51,-21 82,-21 54,0 98,18 130,55 32,37 49,87 49,149 0,61 -17,110 -50,148 -33,37 -77,56 -132,56 -29,0 -55,-7 -79,-22 -24,-15 -44,-36 -59,-63l0 69 -61 0 0 -641z"/>
  <path id="105" class="fil4" d="M15920 9269c0,-13 4,-24 14,-33 9,-9 20,-14 34,-14 12,0 24,5 33,14 9,9 14,21 14,34 0,13 -5,24 -14,33 -9,9 -20,14 -33,14 -14,0 -25,-5 -34,-14 -10,-9 -14,-20 -14,-34zm15 561l0 -379 65 0 0 379 -65 0z"/>
  <path id="106" class="fil4" d="M16426 9644c0,-42 -11,-77 -35,-103 -23,-26 -53,-39 -91,-39 -39,0 -69,12 -91,36 -22,24 -32,58 -32,101 0,45 11,81 32,105 22,25 53,38 94,38 38,0 69,-12 90,-37 22,-24 33,-57 33,-101zm63 -193l0 379 -63 0 0 -69c-15,28 -34,49 -58,63 -23,15 -50,22 -79,22 -54,0 -98,-19 -131,-56 -33,-38 -50,-87 -50,-148 0,-63 16,-112 48,-149 33,-37 76,-55 130,-55 31,0 59,7 82,21 23,14 42,36 57,64l0 -72 64 0z"/>
  <path id="107" class="fil4" d="M16618 9830l0 -379 64 0 0 59c16,-25 36,-43 59,-54 22,-12 49,-18 79,-18 45,0 79,12 104,35 26,24 38,57 38,99l0 258 -66 0 0 -223c0,-38 -8,-67 -24,-85 -16,-19 -41,-28 -75,-28 -19,0 -37,3 -53,10 -15,7 -28,17 -39,30 -8,10 -14,21 -17,34 -4,13 -5,35 -5,66l0 196 -65 0z"/>
  <path id="108" class="fil4" d="M17128 9642c0,40 14,74 40,101 27,28 60,42 97,42 38,0 70,-14 97,-42 26,-27 40,-61 40,-101 0,-40 -14,-74 -40,-102 -27,-27 -59,-41 -97,-41 -38,0 -70,14 -97,41 -27,28 -40,62 -40,102zm-68 0c0,-28 5,-55 15,-79 10,-25 25,-47 45,-66 19,-19 41,-34 66,-44 25,-10 51,-15 80,-15 27,0 53,5 78,15 25,10 47,25 67,45 20,19 35,41 45,65 10,25 15,51 15,79 0,27 -5,53 -15,78 -10,24 -25,46 -45,65 -20,20 -43,35 -67,45 -25,11 -51,16 -78,16 -28,0 -55,-5 -80,-16 -25,-10 -47,-25 -66,-44 -20,-20 -35,-42 -45,-66 -10,-25 -15,-51 -15,-78z"/>
  <polygon id="109" class="fil4" points="17556,9950 17634,9725 17705,9749 17603,9969 "/>
  <path id="110" class="fil4" d="M4503 10845l0 -606 143 0c40,0 70,3 89,7 18,5 35,12 50,23 17,14 31,33 41,57 10,23 15,50 15,78 0,50 -14,88 -41,113 -28,26 -69,39 -122,39l-13 0 231 289 -91 0 -221 -289 -10 0 0 289 -71 0zm71 -545l0 203 54 0c57,0 94,-8 114,-22 19,-15 28,-40 28,-76 0,-39 -10,-66 -29,-81 -20,-16 -57,-24 -113,-24l-54 0z"/>
  <path id="111" class="fil4" d="M5218 10613c-2,-34 -13,-59 -33,-77 -20,-18 -48,-27 -82,-27 -32,0 -58,9 -79,28 -21,19 -33,44 -36,76l230 0zm69 52l-299 0 0 6c0,40 11,73 34,98 24,25 54,38 91,38 25,0 48,-7 69,-21 20,-13 38,-34 54,-62l49 33c-19,35 -43,60 -73,78 -29,17 -63,26 -102,26 -58,0 -104,-19 -140,-57 -36,-38 -53,-88 -53,-150 0,-59 17,-108 53,-146 35,-37 80,-56 136,-56 55,0 100,18 133,54 32,35 48,84 48,146l0 13z"/>
  <path id="112" class="fil4" d="M5402 10845l0 -325 -73 0 0 -54 73 0 0 -109c0,-63 8,-106 24,-128 16,-22 44,-33 85,-33 10,0 20,1 29,2 10,1 18,4 27,7l0 67c-8,-5 -17,-9 -25,-11 -8,-2 -17,-3 -26,-3 -19,0 -32,6 -39,18 -7,12 -11,42 -11,89l0 101 101 0 0 54 -99 0 0 325 -66 0z"/>
  <path id="113" class="fil4" d="M5668 10657c0,40 13,73 40,101 27,28 59,42 97,42 38,0 70,-14 97,-42 26,-28 39,-61 39,-101 0,-40 -13,-74 -39,-102 -27,-28 -59,-41 -97,-41 -38,0 -71,13 -97,41 -27,28 -40,62 -40,102zm-69 -1c0,-27 5,-54 15,-78 11,-25 26,-47 45,-66 20,-20 42,-34 67,-44 25,-10 51,-15 79,-15 28,0 54,5 79,15 24,10 47,25 67,45 19,19 34,40 44,65 11,25 16,51 16,78 0,28 -5,54 -16,78 -10,25 -25,47 -44,65 -20,20 -43,35 -68,46 -25,11 -51,16 -78,16 -28,0 -54,-5 -79,-16 -25,-10 -47,-25 -67,-44 -19,-20 -34,-42 -45,-66 -10,-25 -15,-51 -15,-79z"/>
  <path id="114" class="fil4" d="M6112 10845l0 -379 58 0 0 79c17,-33 36,-56 55,-70 20,-14 44,-22 72,-22 8,0 15,1 22,2 7,2 15,3 22,6l-22 59c-7,-3 -14,-5 -21,-6 -7,-1 -13,-2 -19,-2 -34,0 -60,12 -77,37 -17,25 -26,62 -26,111l0 185 -64 0z"/>
  <path id="115" class="fil4" d="M6935 10845l0 -223c0,-39 -8,-67 -23,-86 -15,-18 -39,-27 -71,-27 -17,0 -33,3 -48,10 -15,7 -27,17 -38,30 -7,10 -12,21 -16,35 -3,13 -5,35 -5,65l0 196 -62 0 0 -223c0,-39 -8,-67 -23,-86 -16,-18 -39,-27 -71,-27 -18,0 -34,3 -49,10 -15,7 -27,17 -38,30 -7,10 -12,21 -15,33 -3,13 -5,35 -5,67l0 196 -63 0 0 -379 64 0 0 59c16,-25 34,-43 56,-55 22,-11 47,-17 75,-17 31,0 57,6 79,19 21,13 37,33 48,58 17,-26 36,-46 58,-58 22,-13 48,-19 77,-19 42,0 75,11 99,35 24,24 35,57 35,99l0 258 -64 0z"/>
  <path id="116" class="fil4" d="M7416 10659c0,-43 -12,-77 -35,-103 -23,-26 -53,-39 -91,-39 -39,0 -69,12 -91,36 -22,24 -33,57 -33,100 0,46 11,81 33,106 22,25 53,37 94,37 38,0 68,-12 90,-36 22,-24 33,-58 33,-101zm63 -193l0 379 -63 0 0 -69c-15,28 -34,49 -58,63 -24,15 -50,22 -79,22 -54,0 -98,-19 -131,-56 -34,-38 -50,-87 -50,-149 0,-62 16,-111 48,-148 32,-37 76,-55 130,-55 31,0 59,7 82,21 23,14 42,36 56,64l0 -72 65 0z"/>
  <path id="117" class="fil4" d="M7865 10845l0 -606 142 0c40,0 70,3 89,7 19,5 36,12 50,23 18,14 32,33 42,57 10,23 15,50 15,78 0,50 -14,88 -42,113 -28,26 -68,39 -122,39l-13 0 232 289 -92 0 -221 -289 -10 0 0 289 -70 0zm70 -545l0 203 55 0c56,0 94,-8 113,-22 19,-15 28,-40 28,-76 0,-39 -9,-66 -29,-81 -20,-16 -57,-24 -112,-24l-55 0z"/>
  <path id="118" class="fil4" d="M8372 10466l0 186c0,55 8,93 24,114 16,22 43,33 82,33 38,0 65,-11 81,-32 16,-22 24,-60 24,-115l0 -186 66 0 0 221c0,57 -15,100 -44,130 -29,29 -72,44 -129,44 -56,0 -99,-15 -128,-44 -29,-30 -44,-73 -44,-130l0 -221 68 0z"/>
  <path id="119" class="fil4" d="M8775 10845l0 -379 58 0 0 79c17,-33 35,-56 55,-70 20,-14 44,-22 72,-22 7,0 15,1 22,2 7,2 14,3 22,6l-22 59c-7,-3 -14,-5 -21,-6 -7,-1 -13,-2 -19,-2 -34,0 -60,12 -77,37 -17,25 -26,62 -26,111l0 185 -64 0z"/>
  <path id="120" class="fil4" d="M9361 10659c0,-43 -12,-77 -35,-103 -23,-26 -54,-39 -91,-39 -39,0 -70,12 -91,36 -22,24 -33,57 -33,100 0,46 11,81 33,106 22,25 53,37 93,37 39,0 69,-12 91,-36 22,-24 33,-58 33,-101zm62 -193l0 379 -62 0 0 -69c-15,28 -35,49 -58,63 -24,15 -50,22 -80,22 -54,0 -98,-19 -131,-56 -33,-38 -50,-87 -50,-149 0,-62 17,-111 49,-148 32,-37 75,-55 129,-55 32,0 59,7 83,21 23,14 42,36 56,64l0 -72 64 0z"/>
  <polygon id="121" class="fil4" points="9556,10845 9556,10204 9622,10204 9622,10845 "/>
  <polygon id="122" class="fil4" points="10015,10845 10015,10239 10087,10239 10087,10845 "/>
  <path id="123" class="fil4" d="M10227 10845l0 -379 63 0 0 59c17,-25 36,-43 59,-55 23,-11 49,-17 79,-17 45,0 80,11 105,35 25,24 38,57 38,99l0 258 -66 0 0 -223c0,-39 -9,-67 -25,-86 -16,-18 -41,-27 -74,-27 -20,0 -37,3 -53,10 -16,7 -29,17 -40,30 -7,10 -13,21 -17,34 -3,13 -5,35 -5,66l0 196 -64 0z"/>
  <polygon id="124" class="fil4" points="10709,10520 10639,10520 10639,10466 10709,10466 10709,10314 10775,10314 10775,10466 10844,10466 10844,10520 10775,10520 10775,10845 10709,10845 "/>
  <path id="125" class="fil4" d="M11186 10613c-2,-34 -13,-59 -33,-77 -20,-18 -47,-27 -82,-27 -32,0 -58,9 -79,28 -21,19 -33,44 -36,76l230 0zm70 52l-300 0 0 6c0,40 11,73 35,98 23,25 53,38 90,38 25,0 48,-7 69,-21 20,-13 38,-34 54,-62l49 33c-19,35 -43,60 -73,78 -29,17 -63,26 -102,26 -58,0 -104,-19 -140,-57 -36,-38 -53,-88 -53,-150 0,-59 17,-108 53,-146 35,-37 80,-56 136,-56 56,0 100,18 133,54 32,35 49,84 49,146l0 13z"/>
  <path id="126" class="fil4" d="M11643 10657c0,-43 -12,-77 -35,-103 -23,-26 -54,-39 -92,-39 -38,0 -69,12 -91,36 -21,24 -32,58 -32,101 0,45 11,81 33,105 22,25 53,38 93,38 38,0 69,-12 91,-37 22,-24 33,-58 33,-101zm62 -191l0 372c0,41 -3,70 -8,88 -6,17 -15,33 -27,46 -18,20 -40,34 -65,43 -25,10 -55,14 -88,14 -57,0 -102,-13 -134,-39 -32,-26 -49,-64 -50,-111l73 0 0 4c0,29 9,51 29,66 19,16 47,23 83,23 26,0 48,-4 66,-12 19,-9 33,-21 42,-38 6,-9 10,-20 13,-32 2,-13 4,-31 4,-54l0 -29 0 -34c-15,27 -34,47 -58,62 -24,14 -50,21 -80,21 -54,0 -98,-18 -131,-55 -33,-37 -50,-86 -50,-147 0,-62 16,-111 49,-147 32,-36 75,-54 129,-54 31,0 59,7 83,21 23,14 42,35 56,63l0 -71 64 0z"/>
  <path id="127" class="fil4" d="M11837 10845l0 -379 58 0 0 79c17,-33 36,-56 55,-70 20,-14 44,-22 72,-22 8,0 15,1 22,2 7,2 15,3 22,6l-22 59c-7,-3 -14,-5 -21,-6 -6,-1 -13,-2 -19,-2 -34,0 -60,12 -77,37 -17,25 -25,62 -25,111l0 185 -65 0z"/>
  <path id="128" class="fil4" d="M12423 10659c0,-43 -12,-77 -35,-103 -23,-26 -54,-39 -91,-39 -39,0 -69,12 -91,36 -22,24 -33,57 -33,100 0,46 11,81 33,106 22,25 53,37 93,37 39,0 69,-12 91,-36 22,-24 33,-58 33,-101zm63 -193l0 379 -63 0 0 -69c-15,28 -34,49 -58,63 -24,15 -50,22 -79,22 -54,0 -98,-19 -131,-56 -34,-38 -50,-87 -50,-149 0,-62 16,-111 48,-148 32,-37 75,-55 130,-55 31,0 59,7 82,21 23,14 42,36 56,64l0 -72 65 0z"/>
  <polygon id="129" class="fil4" points="12619,10845 12619,10204 12685,10204 12685,10845 "/>
  <polygon id="130" class="fil4" points="13062,10624 13255,10624 13255,10689 13062,10689 "/>
  <path id="131" class="fil4" d="M13387 10845l0 -606 142 0c40,0 70,3 89,7 19,5 36,12 50,23 18,14 32,33 42,57 10,23 15,50 15,78 0,50 -14,88 -42,113 -28,26 -68,39 -122,39l-13 0 232 289 -92 0 -221 -289 -10 0 0 289 -70 0zm70 -545l0 203 55 0c56,0 94,-8 113,-22 19,-15 28,-40 28,-76 0,-39 -9,-66 -29,-81 -20,-16 -57,-24 -112,-24l-55 0z"/>
  <path id="132" class="fil4" d="M13840 10845l0 -606 142 0c41,0 70,3 89,7 19,5 36,12 50,23 18,14 32,33 42,57 10,23 15,50 15,78 0,50 -14,88 -42,113 -28,26 -68,39 -122,39l-12 0 231 289 -92 0 -221 -289 -10 0 0 289 -70 0zm70 -545l0 203 55 0c56,0 94,-8 113,-22 19,-15 29,-40 29,-76 0,-39 -10,-66 -30,-81 -19,-16 -57,-24 -112,-24l-55 0z"/>
  <polygon id="133" class="fil4" points="14294,10845 14294,10239 14366,10239 14366,10845 "/>
  <polygon id="134" class="fil4" points="14498,10624 14691,10624 14691,10689 14498,10689 "/>
  <path id="135" class="fil4" d="M14953 10252l0 229 -48 0 0 -229 48 0zm-116 0l0 229 -49 0 0 -229 49 0z"/>
  <path id="136" class="fil4" d="M15069 10804c0,-13 4,-25 14,-35 10,-9 21,-14 35,-14 14,0 25,5 35,14 10,10 15,21 15,35 0,14 -5,25 -15,34 -9,10 -21,14 -35,14 -14,0 -26,-4 -35,-14 -10,-9 -14,-20 -14,-34z"/>
  <polygon id="137" class="fil4" points="15566,10845 15566,10239 15885,10239 15885,10305 15638,10305 15638,10479 15885,10479 15885,10546 15638,10546 15638,10778 15885,10778 15885,10845 "/>
  <path id="138" class="fil4" d="M15960 10781l56 -37c10,20 23,35 39,45 16,10 35,15 57,15 21,0 38,-5 51,-16 13,-10 20,-24 20,-41 0,-13 -5,-24 -14,-33 -9,-9 -24,-17 -46,-24l-10 -4c-92,-32 -138,-72 -138,-119 0,-34 12,-61 37,-82 25,-22 57,-32 96,-32 33,0 61,6 85,19 23,13 40,32 50,56l-52 32c-8,-17 -19,-31 -34,-40 -15,-9 -33,-14 -53,-14 -19,0 -34,5 -46,16 -12,11 -18,24 -18,41 0,23 25,42 75,58 9,3 17,5 22,7 41,13 70,28 86,45 16,17 24,40 24,68 0,35 -12,64 -38,86 -25,23 -59,34 -100,34 -35,0 -65,-7 -90,-20 -24,-13 -44,-33 -59,-60z"/>
  <polygon id="139" class="fil4" points="16355,10520 16285,10520 16285,10466 16355,10466 16355,10314 16421,10314 16421,10466 16490,10466 16490,10520 16421,10520 16421,10845 16355,10845 "/>
  <path id="140" class="fil4" d="M16602 10657c0,40 13,73 40,101 27,28 59,42 97,42 38,0 70,-14 97,-42 26,-28 39,-61 39,-101 0,-40 -13,-74 -39,-102 -27,-28 -59,-41 -97,-41 -38,0 -70,13 -97,41 -27,28 -40,62 -40,102zm-69 -1c0,-27 5,-54 16,-78 10,-25 25,-47 44,-66 20,-20 42,-34 67,-44 25,-10 51,-15 79,-15 28,0 54,5 79,15 24,10 47,25 67,45 20,19 34,40 45,65 10,25 15,51 15,78 0,28 -5,54 -15,78 -11,25 -25,47 -45,65 -20,20 -43,35 -68,46 -25,11 -51,16 -78,16 -28,0 -54,-5 -79,-16 -25,-10 -47,-25 -67,-44 -19,-20 -34,-42 -44,-66 -11,-25 -16,-51 -16,-79z"/>
  <path id="141" class="fil4" d="M17006 10781l55 -37c10,20 24,35 40,45 16,10 35,15 56,15 21,0 39,-5 52,-16 13,-10 19,-24 19,-41 0,-13 -4,-24 -13,-33 -9,-9 -24,-17 -46,-24l-11 -4c-92,-32 -138,-72 -138,-119 0,-34 13,-61 37,-82 25,-22 57,-32 97,-32 33,0 61,6 84,19 24,13 40,32 51,56l-53 32c-7,-17 -19,-31 -34,-40 -15,-9 -32,-14 -52,-14 -19,0 -35,5 -47,16 -12,11 -18,24 -18,41 0,23 25,42 75,58 10,3 17,5 23,7 41,13 69,28 86,45 16,17 24,40 24,68 0,35 -13,64 -39,86 -25,23 -58,34 -99,34 -36,0 -65,-7 -90,-20 -25,-13 -45,-33 -59,-60z"/>
  <path id="142" class="fil4" d="M4376 11796l55 -37c11,20 24,35 40,45 16,10 35,15 57,15 21,0 38,-5 51,-16 13,-10 20,-24 20,-41 0,-13 -5,-24 -14,-33 -9,-9 -24,-17 -46,-24l-10 -4c-92,-32 -138,-72 -138,-119 0,-34 12,-61 37,-83 24,-21 57,-31 96,-31 33,0 61,6 85,19 23,13 40,32 50,56l-52 32c-8,-17 -19,-31 -34,-40 -16,-9 -33,-14 -53,-14 -19,0 -34,5 -46,16 -12,10 -18,24 -18,41 0,23 25,42 75,58 9,3 17,5 22,7 41,13 70,28 86,45 16,17 24,39 24,67 0,36 -13,65 -38,87 -25,22 -59,34 -100,34 -35,0 -65,-7 -90,-20 -24,-13 -44,-33 -59,-60z"/>
  <path id="143" class="fil4" d="M5029 11628c-2,-34 -13,-59 -33,-78 -20,-18 -48,-27 -82,-27 -32,0 -58,10 -79,29 -21,19 -33,44 -36,76l230 0zm69 52l-299 0 0 6c0,40 11,73 34,98 24,25 54,37 91,37 25,0 48,-6 69,-20 20,-14 38,-34 54,-62l49 33c-19,34 -43,60 -73,78 -29,17 -63,26 -102,26 -58,0 -104,-19 -140,-57 -36,-39 -53,-88 -53,-150 0,-59 17,-108 53,-146 35,-37 80,-56 136,-56 55,0 100,18 133,53 32,36 48,85 48,147l0 13z"/>
  <path id="144" class="fil4" d="M5735 11674c0,-43 -11,-77 -35,-103 -23,-26 -53,-39 -91,-39 -39,0 -69,12 -91,36 -22,24 -32,57 -32,100 0,46 11,81 32,106 22,25 53,37 94,37 38,0 69,-12 90,-36 22,-24 33,-58 33,-101zm63 -193l0 379 -63 0 0 -69c-15,27 -34,48 -58,63 -23,14 -50,22 -79,22 -54,0 -98,-19 -131,-56 -33,-38 -50,-87 -50,-149 0,-62 16,-111 48,-148 33,-37 76,-55 130,-55 31,0 59,7 82,21 23,14 42,35 57,63l0 -71 64 0z"/>
  <path id="145" class="fil4" d="M6218 11770l0 75c-17,10 -36,18 -58,23 -21,5 -44,8 -69,8 -59,0 -106,-19 -141,-56 -36,-37 -54,-86 -54,-146 0,-61 19,-110 55,-149 37,-38 85,-57 142,-57 21,0 42,2 62,6 20,5 39,11 56,20l0 69c-16,-11 -33,-19 -51,-24 -18,-6 -36,-9 -54,-9 -42,0 -76,13 -102,40 -26,27 -39,62 -39,106 0,39 13,71 39,98 26,26 58,39 97,39 20,0 39,-4 58,-10 18,-7 38,-18 59,-33z"/>
  <path id="146" class="fil4" d="M6346 11672c0,39 13,73 40,101 27,28 59,42 97,42 38,0 70,-14 97,-42 26,-28 39,-62 39,-101 0,-40 -13,-74 -39,-102 -27,-28 -59,-42 -97,-42 -38,0 -71,14 -97,42 -27,28 -40,62 -40,102zm-69 -1c0,-28 5,-54 15,-78 11,-25 26,-47 45,-66 20,-20 42,-34 67,-44 25,-10 51,-15 79,-15 28,0 54,5 79,15 24,10 47,25 67,44 19,20 34,41 44,66 11,25 16,51 16,78 0,28 -5,54 -16,78 -10,25 -25,46 -44,65 -20,20 -43,35 -68,46 -25,10 -51,16 -78,16 -28,0 -54,-6 -79,-16 -25,-10 -47,-25 -67,-44 -19,-20 -34,-42 -45,-67 -10,-24 -15,-50 -15,-78z"/>
  <path id="147" class="fil4" d="M6790 11860l0 -379 58 0 0 79c17,-33 36,-56 55,-70 20,-15 44,-22 72,-22 8,0 15,1 22,2 7,1 15,3 22,6l-22 58c-7,-2 -14,-4 -21,-5 -7,-2 -13,-2 -19,-2 -34,0 -60,12 -77,37 -17,25 -26,62 -26,111l0 185 -64 0z"/>
  <path id="148" class="fil4" d="M7376 11672c0,-42 -12,-76 -35,-101 -24,-26 -54,-39 -93,-39 -38,0 -68,12 -89,35 -22,23 -33,56 -33,97 0,47 11,83 33,109 22,27 52,40 90,40 40,0 71,-12 93,-37 23,-25 34,-60 34,-104zm63 -453l0 641 -63 0 0 -69c-15,27 -34,48 -58,63 -24,14 -50,22 -79,22 -55,0 -98,-19 -132,-56 -33,-38 -49,-87 -49,-149 0,-62 16,-111 48,-148 33,-37 76,-55 130,-55 32,0 59,7 82,21 23,14 42,35 56,63l0 -333 65 0z"/>
  <path id="149" class="fil4" d="M7860 11674c0,-43 -12,-77 -35,-103 -23,-26 -53,-39 -91,-39 -39,0 -69,12 -91,36 -22,24 -33,57 -33,100 0,46 11,81 33,106 22,25 53,37 94,37 38,0 68,-12 90,-36 22,-24 33,-58 33,-101zm63 -193l0 379 -63 0 0 -69c-15,27 -34,48 -58,63 -24,14 -50,22 -79,22 -54,0 -98,-19 -131,-56 -34,-38 -50,-87 -50,-149 0,-62 16,-111 48,-148 32,-37 76,-55 130,-55 31,0 59,7 82,21 23,14 42,35 56,63l0 -71 65 0z"/>
  <path id="150" class="fil4" d="M8053 11860l0 -379 58 0 0 79c17,-33 36,-56 55,-70 20,-15 44,-22 72,-22 8,0 15,1 22,2 7,1 14,3 22,6l-22 58c-7,-2 -14,-4 -21,-5 -7,-2 -13,-2 -19,-2 -34,0 -60,12 -77,37 -17,25 -26,62 -26,111l0 185 -64 0z"/>
  <path id="151" class="fil4" d="M8387 11672c0,39 14,73 41,101 26,28 59,42 97,42 38,0 70,-14 96,-42 27,-28 40,-62 40,-101 0,-40 -13,-74 -40,-102 -26,-28 -58,-42 -96,-42 -38,0 -71,14 -98,42 -26,28 -40,62 -40,102zm-68 -1c0,-28 5,-54 15,-78 10,-25 25,-47 45,-66 20,-20 42,-34 66,-44 25,-10 52,-15 80,-15 27,0 54,5 78,15 25,10 47,25 67,44 20,20 35,41 45,66 10,25 15,51 15,78 0,28 -5,54 -15,78 -10,25 -25,46 -45,65 -20,20 -42,35 -67,46 -25,10 -51,16 -78,16 -28,0 -54,-6 -79,-16 -25,-10 -47,-25 -67,-44 -20,-20 -35,-42 -45,-67 -10,-24 -15,-50 -15,-78z"/>
  <path id="152" class="fil4" d="M8831 11860l0 -379 64 0 0 58c16,-24 35,-42 58,-54 23,-12 50,-17 80,-17 44,0 79,11 104,35 25,24 38,57 38,99l0 258 -66 0 0 -223c0,-39 -8,-67 -24,-86 -17,-18 -41,-28 -75,-28 -19,0 -37,4 -53,11 -16,7 -29,17 -39,30 -8,10 -14,21 -17,34 -4,12 -6,34 -6,66l0 196 -64 0z"/>
  <path id="153" class="fil4" d="M9821 11628c-2,-34 -13,-59 -33,-78 -20,-18 -48,-27 -82,-27 -32,0 -58,10 -79,29 -21,19 -33,44 -36,76l230 0zm69 52l-299 0 0 6c0,40 11,73 34,98 23,25 54,37 91,37 25,0 48,-6 69,-20 20,-14 38,-34 54,-62l49 33c-19,34 -43,60 -73,78 -29,17 -64,26 -102,26 -58,0 -105,-19 -140,-57 -36,-39 -54,-88 -54,-150 0,-59 18,-108 53,-146 36,-37 81,-56 136,-56 56,0 101,18 133,53 33,36 49,85 49,147l0 13z"/>
  <path id="154" class="fil4" d="M9988 11860l0 -379 63 0 0 58c17,-24 36,-42 59,-54 23,-12 49,-17 79,-17 45,0 80,11 105,35 25,24 38,57 38,99l0 258 -66 0 0 -223c0,-39 -8,-67 -25,-86 -16,-18 -41,-28 -74,-28 -20,0 -37,4 -53,11 -16,7 -29,17 -40,30 -7,10 -13,21 -17,34 -3,12 -5,34 -5,66l0 196 -64 0z"/>
  <path id="155" class="fil4" d="M10999 11674c0,-43 -12,-77 -35,-103 -23,-26 -54,-39 -91,-39 -39,0 -69,12 -91,36 -22,24 -33,57 -33,100 0,46 11,81 33,106 22,25 53,37 93,37 39,0 69,-12 91,-36 22,-24 33,-58 33,-101zm63 -193l0 379 -63 0 0 -69c-15,27 -35,48 -58,63 -24,14 -50,22 -79,22 -55,0 -98,-19 -132,-56 -33,-38 -49,-87 -49,-149 0,-62 16,-111 48,-148 32,-37 75,-55 129,-55 32,0 59,7 83,21 23,14 42,35 56,63l0 -71 65 0z"/>
  <path id="156" class="fil4" d="M11254 11672c0,42 11,76 35,102 23,25 54,38 93,38 38,0 67,-12 89,-35 22,-23 32,-56 32,-98 0,-46 -10,-83 -32,-109 -22,-27 -52,-40 -90,-40 -40,0 -71,13 -94,38 -22,25 -33,59 -33,104zm-63 372l0 -563 62 0 0 71c14,-27 34,-48 58,-62 24,-15 50,-22 80,-22 55,0 98,18 131,55 33,37 50,87 50,148 0,63 -16,113 -49,149 -32,37 -75,56 -130,56 -31,0 -58,-7 -81,-22 -23,-14 -42,-35 -57,-63l0 253 -64 0z"/>
  <path id="157" class="fil4" d="M11676 11860l0 -379 58 0 0 79c17,-33 36,-56 55,-70 20,-15 44,-22 72,-22 7,0 15,1 22,2 7,1 14,3 22,6l-22 58c-7,-2 -14,-4 -21,-5 -7,-2 -13,-2 -19,-2 -34,0 -60,12 -77,37 -17,25 -26,62 -26,111l0 185 -64 0z"/>
  <path id="158" class="fil4" d="M12010 11672c0,39 14,73 40,101 27,28 60,42 98,42 38,0 70,-14 96,-42 27,-28 40,-62 40,-101 0,-40 -13,-74 -40,-102 -26,-28 -58,-42 -96,-42 -39,0 -71,14 -98,42 -26,28 -40,62 -40,102zm-68 -1c0,-28 5,-54 15,-78 10,-25 25,-47 45,-66 19,-20 42,-34 66,-44 25,-10 52,-15 80,-15 27,0 53,5 78,15 25,10 47,25 67,44 20,20 35,41 45,66 10,25 15,51 15,78 0,28 -5,54 -15,78 -10,25 -25,46 -45,65 -20,20 -42,35 -67,46 -25,10 -51,16 -78,16 -28,0 -54,-6 -79,-16 -25,-10 -48,-25 -67,-44 -20,-20 -35,-42 -45,-67 -10,-24 -15,-50 -15,-78z"/>
  <polygon id="159" class="fil4" points="12388,11860 12533,11664 12392,11481 12473,11481 12571,11616 12670,11481 12750,11481 12608,11664 12754,11860 12674,11860 12571,11713 12468,11860 "/>
  <path id="160" class="fil4" d="M12809 11299c0,-13 4,-24 14,-34 9,-9 20,-13 33,-13 13,0 24,4 34,14 9,9 14,20 14,34 0,13 -5,24 -14,33 -9,9 -20,13 -34,13 -13,0 -24,-4 -33,-13 -10,-9 -14,-21 -14,-34zm15 561l0 -379 65 0 0 379 -65 0z"/>
  <path id="161" class="fil4" d="M13552 11860l0 -223c0,-39 -7,-67 -23,-86 -15,-18 -39,-28 -71,-28 -17,0 -33,4 -48,11 -15,7 -27,17 -37,30 -8,10 -13,21 -16,35 -4,13 -5,35 -5,65l0 196 -63 0 0 -223c0,-39 -8,-67 -23,-86 -16,-18 -39,-28 -71,-28 -17,0 -34,4 -49,11 -15,7 -27,17 -37,30 -8,10 -13,21 -16,33 -3,13 -5,35 -5,67l0 196 -62 0 0 -379 63 0 0 58c16,-24 35,-42 56,-54 22,-12 47,-17 76,-17 30,0 56,6 78,19 21,13 37,32 49,57 16,-25 35,-45 57,-57 22,-13 48,-19 77,-19 43,0 75,11 99,35 24,24 36,57 36,99l0 258 -65 0z"/>
  <path id="162" class="fil4" d="M14033 11674c0,-43 -11,-77 -35,-103 -23,-26 -53,-39 -91,-39 -39,0 -69,12 -91,36 -22,24 -32,57 -32,100 0,46 11,81 32,106 22,25 54,37 94,37 38,0 69,-12 90,-36 22,-24 33,-58 33,-101zm63 -193l0 379 -63 0 0 -69c-15,27 -34,48 -58,63 -23,14 -50,22 -79,22 -54,0 -98,-19 -131,-56 -33,-38 -50,-87 -50,-149 0,-62 16,-111 48,-148 33,-37 76,-55 130,-55 31,0 59,7 82,21 24,14 42,35 57,63l0 -71 64 0z"/>
  <path id="163" class="fil4" d="M14515 11672c0,-42 -12,-76 -35,-101 -24,-26 -54,-39 -93,-39 -38,0 -68,12 -89,35 -22,23 -33,56 -33,97 0,47 11,83 33,109 22,27 52,40 90,40 40,0 71,-12 93,-37 23,-25 34,-60 34,-104zm63 -453l0 641 -63 0 0 -69c-15,27 -34,48 -58,63 -24,14 -50,22 -79,22 -55,0 -98,-19 -132,-56 -33,-38 -49,-87 -49,-149 0,-62 16,-111 48,-148 33,-37 76,-55 130,-55 32,0 59,7 82,21 23,14 42,35 56,63l0 -333 65 0z"/>
  <path id="164" class="fil4" d="M14999 11674c0,-43 -12,-77 -35,-103 -23,-26 -53,-39 -91,-39 -39,0 -69,12 -91,36 -22,24 -33,57 -33,100 0,46 11,81 33,106 22,25 53,37 94,37 38,0 68,-12 90,-36 22,-24 33,-58 33,-101zm63 -193l0 379 -63 0 0 -69c-15,27 -34,48 -58,63 -24,14 -50,22 -79,22 -54,0 -98,-19 -131,-56 -34,-38 -50,-87 -50,-149 0,-62 16,-111 48,-148 32,-37 76,-55 130,-55 31,0 59,7 82,21 23,14 42,35 56,63l0 -71 65 0z"/>
  <path id="165" class="fil4" d="M15718 11860l0 -223c0,-39 -8,-67 -23,-86 -16,-18 -39,-28 -71,-28 -18,0 -34,4 -48,11 -15,7 -28,17 -38,30 -7,10 -13,21 -16,35 -3,13 -5,35 -5,65l0 196 -63 0 0 -223c0,-39 -7,-67 -23,-86 -15,-18 -39,-28 -71,-28 -17,0 -33,4 -48,11 -15,7 -28,17 -38,30 -7,10 -12,21 -15,33 -4,13 -5,35 -5,67l0 196 -63 0 0 -379 64 0 0 58c15,-24 34,-42 56,-54 22,-12 47,-17 75,-17 31,0 57,6 78,19 22,13 38,32 49,57 16,-25 35,-45 58,-57 22,-13 48,-19 77,-19 42,0 75,11 99,35 23,24 35,57 35,99l0 258 -64 0z"/>
  <path id="166" class="fil4" d="M16178 11628c-3,-34 -14,-59 -34,-78 -19,-18 -47,-27 -82,-27 -31,0 -57,10 -78,29 -21,19 -33,44 -37,76l231 0zm69 52l-300 0 0 6c0,40 12,73 35,98 23,25 53,37 91,37 25,0 48,-6 68,-20 21,-14 39,-34 54,-62l50 33c-19,34 -44,60 -73,78 -30,17 -64,26 -103,26 -57,0 -104,-19 -139,-57 -36,-39 -54,-88 -54,-150 0,-59 18,-108 53,-146 35,-37 81,-56 136,-56 56,0 100,18 133,53 33,36 49,85 49,147l0 13z"/>
  <path id="167" class="fil4" d="M16345 11860l0 -379 63 0 0 58c16,-24 36,-42 59,-54 23,-12 49,-17 79,-17 45,0 80,11 105,35 25,24 37,57 37,99l0 258 -66 0 0 -223c0,-39 -8,-67 -24,-86 -16,-18 -41,-28 -74,-28 -20,0 -37,4 -53,11 -16,7 -29,17 -40,30 -8,10 -13,21 -17,34 -3,12 -5,34 -5,66l0 196 -64 0z"/>
  <polygon id="168" class="fil4" points="16827,11534 16757,11534 16757,11481 16827,11481 16827,11329 16893,11329 16893,11481 16962,11481 16962,11534 16893,11534 16893,11860 16827,11860 "/>
  <path id="169" class="fil4" d="M17304 11628c-2,-34 -13,-59 -33,-78 -20,-18 -48,-27 -82,-27 -32,0 -58,10 -79,29 -21,19 -33,44 -36,76l230 0zm69 52l-299 0 0 6c0,40 11,73 34,98 23,25 54,37 91,37 25,0 48,-6 69,-20 20,-14 38,-34 54,-62l49 33c-19,34 -43,60 -73,78 -29,17 -64,26 -102,26 -58,0 -105,-19 -140,-57 -36,-39 -53,-88 -53,-150 0,-59 17,-108 52,-146 36,-37 81,-56 136,-56 56,0 101,18 133,53 33,36 49,85 49,147l0 13z"/>
  <polygon id="170" class="fil4" points="5375,12867 5634,12338 5354,12338 5354,12275 5737,12275 5435,12897 "/>
  <path id="171" class="fil4" d="M6622 12874l0 -222c0,-39 -8,-67 -23,-86 -16,-18 -39,-28 -71,-28 -18,0 -34,4 -48,11 -15,7 -28,17 -38,30 -7,10 -13,21 -16,34 -3,14 -5,35 -5,66l0 195 -63 0 0 -222c0,-39 -7,-67 -23,-86 -15,-18 -39,-28 -71,-28 -17,0 -33,4 -48,11 -15,7 -28,17 -38,30 -7,9 -12,21 -15,33 -4,13 -5,35 -5,67l0 195 -63 0 0 -378 64 0 0 58c15,-24 34,-42 56,-54 22,-12 47,-18 75,-18 31,0 57,7 78,20 22,13 38,32 49,57 16,-26 35,-45 58,-58 22,-12 48,-19 77,-19 42,0 75,12 99,36 23,24 35,57 35,99l0 257 -64 0z"/>
  <path id="172" class="fil4" d="M7082 12642c-3,-33 -14,-59 -34,-77 -20,-18 -47,-27 -82,-27 -31,0 -57,10 -78,29 -21,18 -33,44 -37,75l231 0zm69 53l-300 0 0 6c0,40 12,73 35,98 23,25 53,37 91,37 25,0 48,-6 68,-20 21,-14 39,-34 54,-62l50 33c-19,34 -44,60 -73,78 -30,17 -64,25 -103,25 -57,0 -104,-19 -139,-57 -36,-38 -54,-88 -54,-149 0,-60 18,-108 53,-146 35,-38 81,-56 136,-56 56,0 100,17 133,53 33,36 49,85 49,147l0 13z"/>
  <path id="173" class="fil4" d="M7209 12811l55 -37c11,20 24,35 40,45 16,10 35,15 56,15 21,0 39,-5 52,-16 13,-10 19,-24 19,-41 0,-13 -4,-24 -13,-33 -9,-9 -24,-17 -46,-25l-11 -3c-92,-32 -138,-72 -138,-119 0,-34 13,-62 37,-83 25,-21 57,-32 97,-32 33,0 61,7 84,20 24,13 41,32 51,56l-53 32c-7,-17 -19,-31 -34,-40 -15,-10 -32,-14 -52,-14 -19,0 -35,5 -47,16 -12,10 -18,24 -18,40 0,24 25,43 76,59 9,3 17,5 22,7 41,13 70,28 86,45 16,17 24,39 24,67 0,36 -13,65 -38,87 -26,22 -59,33 -100,33 -35,0 -65,-6 -90,-19 -25,-14 -45,-34 -59,-60z"/>
  <path id="174" class="fil4" d="M7862 12642c-3,-33 -14,-59 -34,-77 -19,-18 -47,-27 -82,-27 -31,0 -57,10 -78,29 -21,18 -33,44 -37,75l231 0zm69 53l-300 0 0 6c0,40 12,73 35,98 23,25 53,37 91,37 25,0 48,-6 68,-20 21,-14 39,-34 54,-62l50 33c-19,34 -44,60 -73,78 -30,17 -64,25 -103,25 -57,0 -104,-19 -139,-57 -36,-38 -54,-88 -54,-149 0,-60 18,-108 53,-146 35,-38 81,-56 136,-56 56,0 100,17 133,53 33,36 49,85 49,147l0 13z"/>
  <path id="175" class="fil4" d="M7989 12811l55 -37c11,20 24,35 40,45 16,10 35,15 56,15 22,0 39,-5 52,-16 13,-10 20,-24 20,-41 0,-13 -5,-24 -14,-33 -9,-9 -24,-17 -46,-25l-11 -3c-92,-32 -138,-72 -138,-119 0,-34 13,-62 37,-83 25,-21 57,-32 97,-32 33,0 61,7 84,20 24,13 41,32 51,56l-53 32c-7,-17 -19,-31 -34,-40 -15,-10 -32,-14 -52,-14 -19,0 -35,5 -47,16 -12,10 -18,24 -18,40 0,24 26,43 76,59 9,3 17,5 22,7 41,13 70,28 86,45 16,17 24,39 24,67 0,36 -13,65 -38,87 -26,22 -59,33 -100,33 -35,0 -65,-6 -90,-19 -25,-14 -44,-34 -59,-60z"/>
  <path id="176" class="fil4" d="M8913 12687c0,-42 -12,-76 -35,-102 -24,-25 -55,-38 -93,-38 -38,0 -68,11 -90,35 -21,23 -32,56 -32,97 0,47 11,83 33,109 21,27 51,40 90,40 39,0 71,-13 93,-37 22,-25 34,-60 34,-104zm62 -454l0 641 -62 0 0 -68c-15,27 -34,48 -58,63 -24,14 -50,21 -80,21 -54,0 -98,-18 -131,-56 -33,-37 -50,-86 -50,-148 0,-62 17,-111 49,-148 33,-37 76,-56 130,-56 31,0 59,7 82,22 23,14 42,35 56,63l0 -334 64 0z"/>
  <path id="177" class="fil4" d="M9376 12642c-3,-33 -14,-59 -34,-77 -20,-18 -47,-27 -82,-27 -31,0 -57,10 -78,29 -21,18 -33,44 -37,75l231 0zm69 53l-300 0 0 6c0,40 12,73 35,98 23,25 53,37 91,37 25,0 48,-6 68,-20 21,-14 39,-34 54,-62l50 33c-19,34 -44,60 -73,78 -30,17 -64,25 -103,25 -57,0 -104,-19 -139,-57 -36,-38 -54,-88 -54,-149 0,-60 18,-108 53,-146 35,-38 81,-56 136,-56 56,0 100,17 133,53 33,36 49,85 49,147l0 13z"/>
  <path id="178" class="fil4" d="M10083 12785l0 75c-17,10 -36,18 -58,23 -21,5 -44,7 -69,7 -59,0 -106,-18 -141,-55 -36,-37 -54,-86 -54,-146 0,-61 19,-111 56,-149 36,-38 84,-58 141,-58 21,0 42,3 62,7 20,4 39,11 56,19l0 70c-16,-11 -33,-19 -51,-25 -18,-5 -36,-8 -54,-8 -42,0 -76,13 -102,40 -26,26 -39,62 -39,106 0,39 13,71 39,98 26,26 58,39 97,39 20,0 39,-4 58,-11 18,-7 38,-17 59,-32z"/>
  <path id="179" class="fil4" d="M10211 12686c0,40 13,74 40,102 27,28 59,42 97,42 38,0 70,-14 97,-42 26,-28 39,-62 39,-102 0,-40 -13,-73 -39,-101 -27,-28 -59,-42 -97,-42 -38,0 -71,14 -97,42 -27,28 -40,61 -40,101zm-69 0c0,-28 5,-54 15,-79 11,-24 26,-46 45,-65 20,-20 42,-35 67,-45 25,-10 51,-15 79,-15 28,0 54,5 79,16 24,10 47,25 67,44 19,19 34,41 44,66 11,25 16,51 16,78 0,28 -5,54 -16,78 -10,25 -25,46 -44,65 -20,20 -43,35 -68,46 -25,10 -51,15 -78,15 -28,0 -54,-5 -79,-15 -25,-10 -47,-25 -67,-45 -19,-19 -34,-41 -45,-66 -10,-24 -15,-50 -15,-78z"/>
  <path id="180" class="fil4" d="M10654 12874l0 -378 64 0 0 58c16,-24 36,-42 59,-54 22,-12 49,-18 79,-18 45,0 79,12 104,36 25,24 38,57 38,99l0 257 -66 0 0 -222c0,-39 -8,-67 -24,-86 -16,-18 -41,-28 -75,-28 -19,0 -37,4 -53,11 -15,7 -28,17 -39,30 -8,10 -14,21 -17,34 -4,12 -5,34 -5,66l0 195 -65 0z"/>
  <polygon id="181" class="fil4" points="11251,12898 11063,12496 11136,12496 11250,12760 11364,12496 11437,12496 "/>
  <path id="182" class="fil4" d="M11775 12642c-3,-33 -14,-59 -34,-77 -19,-18 -47,-27 -82,-27 -31,0 -57,10 -78,29 -21,18 -33,44 -37,75l231 0zm69 53l-300 0 0 6c0,40 12,73 35,98 23,25 53,37 91,37 25,0 48,-6 68,-20 21,-14 39,-34 55,-62l49 33c-19,34 -44,60 -73,78 -30,17 -64,25 -103,25 -57,0 -104,-19 -139,-57 -36,-38 -54,-88 -54,-149 0,-60 18,-108 53,-146 36,-38 81,-56 136,-56 56,0 100,17 133,53 33,36 49,85 49,147l0 13z"/>
  <path id="183" class="fil4" d="M11943 12874l0 -378 57 0 0 79c18,-33 36,-56 56,-71 19,-14 43,-21 71,-21 8,0 15,1 23,2 7,1 14,3 21,6l-21 58c-8,-2 -15,-4 -21,-5 -7,-2 -13,-2 -20,-2 -34,0 -59,12 -76,37 -18,24 -26,62 -26,111l0 184 -64 0z"/>
  <path id="184" class="fil4" d="M12199 12811l55 -37c11,20 24,35 40,45 16,10 35,15 57,15 21,0 38,-5 51,-16 13,-10 20,-24 20,-41 0,-13 -5,-24 -14,-33 -9,-9 -24,-17 -46,-25l-11 -3c-92,-32 -138,-72 -138,-119 0,-34 13,-62 38,-83 24,-21 57,-32 96,-32 33,0 61,7 85,20 23,13 40,32 50,56l-52 32c-8,-17 -20,-31 -35,-40 -15,-10 -32,-14 -52,-14 -19,0 -34,5 -46,16 -12,10 -18,24 -18,40 0,24 25,43 75,59 9,3 17,5 22,7 41,13 70,28 86,45 16,17 24,39 24,67 0,36 -13,65 -38,87 -26,22 -59,33 -100,33 -35,0 -65,-6 -90,-19 -24,-14 -44,-34 -59,-60z"/>
  <path id="185" class="fil4" d="M12873 12689c0,-43 -12,-77 -35,-103 -23,-26 -53,-39 -91,-39 -39,0 -69,12 -91,36 -22,24 -33,57 -33,100 0,46 11,81 33,106 22,25 53,37 94,37 38,0 68,-12 90,-36 22,-24 33,-58 33,-101zm63 -193l0 378 -63 0 0 -68c-15,27 -34,48 -58,63 -24,14 -50,21 -79,21 -54,0 -98,-18 -131,-56 -34,-37 -50,-86 -50,-148 0,-62 16,-112 48,-148 32,-37 76,-56 130,-56 31,0 59,7 82,22 23,14 42,35 56,63l0 -71 65 0z"/>
  <path id="186" class="fil4" d="M13356 12785l0 75c-17,10 -37,18 -58,23 -21,5 -45,7 -69,7 -59,0 -106,-18 -141,-55 -36,-37 -54,-86 -54,-146 0,-61 18,-111 55,-149 37,-38 85,-58 142,-58 21,0 41,3 62,7 20,4 38,11 56,19l0 70c-17,-11 -34,-19 -51,-25 -18,-5 -36,-8 -54,-8 -42,0 -77,13 -102,40 -26,26 -39,62 -39,106 0,39 13,71 39,98 26,26 58,39 97,39 20,0 39,-4 57,-11 19,-7 39,-17 60,-32z"/>
  <path id="187" class="fil4" d="M13434 12314c0,-13 4,-24 13,-34 10,-9 21,-14 34,-14 13,0 24,5 34,15 9,9 13,20 13,33 0,13 -4,25 -13,34 -9,9 -21,13 -34,13 -13,0 -24,-4 -34,-13 -9,-9 -13,-21 -13,-34zm15 560l0 -378 65 0 0 378 -65 0z"/>
  <path id="188" class="fil4" d="M13689 12686c0,40 13,74 40,102 27,28 59,42 97,42 38,0 70,-14 96,-42 27,-28 40,-62 40,-102 0,-40 -13,-73 -40,-101 -26,-28 -58,-42 -96,-42 -38,0 -71,14 -97,42 -27,28 -40,61 -40,101zm-69 0c0,-28 5,-54 15,-79 11,-24 25,-46 45,-65 20,-20 42,-35 67,-45 24,-10 51,-15 79,-15 28,0 54,5 78,16 25,10 47,25 68,44 19,19 34,41 44,66 10,25 16,51 16,78 0,28 -6,54 -16,78 -10,25 -25,46 -44,65 -21,20 -43,35 -68,46 -25,10 -51,15 -78,15 -28,0 -54,-5 -79,-15 -25,-10 -47,-25 -67,-45 -20,-19 -34,-41 -45,-66 -10,-24 -15,-50 -15,-78z"/>
  <path id="189" class="fil4" d="M14132 12874l0 -378 64 0 0 58c16,-24 35,-42 58,-54 23,-12 50,-18 80,-18 44,0 79,12 104,36 25,24 38,57 38,99l0 257 -66 0 0 -222c0,-39 -8,-67 -24,-86 -16,-18 -41,-28 -75,-28 -19,0 -37,4 -53,11 -15,7 -29,17 -39,30 -8,10 -14,21 -17,34 -4,12 -5,34 -5,66l0 195 -65 0z"/>
  <path id="190" class="fil4" d="M14872 12642c-2,-33 -13,-59 -33,-77 -20,-18 -47,-27 -82,-27 -31,0 -58,10 -79,29 -21,18 -33,44 -36,75l230 0zm70 53l-300 0 0 6c0,40 12,73 35,98 23,25 53,37 90,37 26,0 49,-6 69,-20 20,-14 38,-34 54,-62l49 33c-19,34 -43,60 -72,78 -30,17 -64,25 -103,25 -58,0 -104,-19 -140,-57 -35,-38 -53,-88 -53,-149 0,-60 18,-108 53,-146 35,-38 80,-56 136,-56 56,0 100,17 133,53 32,36 49,85 49,147l0 13z"/>
  <path id="191" class="fil4" d="M14999 12811l56 -37c10,20 23,35 39,45 16,10 35,15 57,15 21,0 38,-5 51,-16 14,-10 20,-24 20,-41 0,-13 -4,-24 -13,-33 -9,-9 -25,-17 -46,-25l-11 -3c-92,-32 -138,-72 -138,-119 0,-34 12,-62 37,-83 25,-21 57,-32 97,-32 32,0 61,7 84,20 23,13 40,32 50,56l-52 32c-8,-17 -19,-31 -34,-40 -15,-10 -33,-14 -52,-14 -20,0 -35,5 -47,16 -12,10 -18,24 -18,40 0,24 25,43 75,59 10,3 17,5 23,7 41,13 69,28 85,45 16,17 24,39 24,67 0,36 -12,65 -38,87 -25,22 -58,33 -100,33 -35,0 -65,-6 -89,-19 -25,-14 -45,-34 -60,-60z"/>
  <path id="192" class="fil4" d="M15902 12642c-2,-33 -13,-59 -33,-77 -20,-18 -47,-27 -82,-27 -32,0 -58,10 -79,29 -21,18 -33,44 -36,75l230 0zm70 53l-300 0 0 6c0,40 11,73 35,98 23,25 53,37 90,37 25,0 48,-6 69,-20 20,-14 38,-34 54,-62l49 33c-19,34 -43,60 -73,78 -29,17 -63,25 -102,25 -58,0 -104,-19 -140,-57 -36,-38 -53,-88 -53,-149 0,-60 17,-108 53,-146 35,-38 80,-56 136,-56 56,0 100,17 133,53 32,36 49,85 49,147l0 13z"/>
  <path id="193" class="fil4" d="M16069 12874l0 -378 64 0 0 58c16,-24 35,-42 58,-54 23,-12 50,-18 80,-18 44,0 79,12 104,36 25,24 38,57 38,99l0 257 -66 0 0 -222c0,-39 -8,-67 -24,-86 -17,-18 -41,-28 -75,-28 -19,0 -37,4 -53,11 -16,7 -29,17 -39,30 -8,10 -14,21 -17,34 -4,12 -6,34 -6,66l0 195 -64 0z"/>
  <polygon id="194" class="fil4" points="5340,13889 5340,13284 5412,13284 5412,13821 5641,13821 5641,13889 "/>
  <path id="195" class="fil4" d="M5994 13704c0,-43 -11,-77 -35,-103 -23,-26 -53,-39 -91,-39 -39,0 -69,12 -91,36 -22,24 -32,57 -32,100 0,46 11,81 32,106 22,25 54,37 94,37 38,0 69,-12 90,-36 22,-24 33,-58 33,-101zm63 -193l0 378 -63 0 0 -68c-15,27 -34,48 -58,63 -23,14 -50,21 -79,21 -54,0 -98,-18 -131,-56 -33,-37 -50,-86 -50,-148 0,-62 16,-112 48,-149 33,-36 76,-55 130,-55 31,0 59,7 82,22 24,14 42,35 57,63l0 -71 64 0z"/>
  <polygon id="196" class="fil4" points="6443,13889 6443,13284 6515,13284 6515,13517 6837,13517 6837,13284 6909,13284 6909,13889 6837,13889 6837,13585 6515,13585 6515,13889 "/>
  <path id="197" class="fil4" d="M7337 13704c0,-43 -12,-77 -35,-103 -23,-26 -53,-39 -91,-39 -39,0 -69,12 -91,36 -22,24 -33,57 -33,100 0,46 11,81 33,106 22,25 53,37 94,37 38,0 68,-12 90,-36 22,-24 33,-58 33,-101zm63 -193l0 378 -63 0 0 -68c-15,27 -34,48 -58,63 -24,14 -50,21 -79,21 -54,0 -98,-18 -131,-56 -34,-37 -50,-86 -50,-148 0,-62 16,-112 48,-149 32,-36 76,-55 130,-55 31,0 59,7 82,22 23,14 42,35 57,63l0 -71 64 0z"/>
  <path id="198" class="fil4" d="M7591 13702c0,44 11,79 34,103 23,25 54,38 93,38 39,0 69,-13 91,-40 22,-26 33,-63 33,-109 0,-42 -11,-74 -33,-97 -21,-24 -51,-35 -89,-35 -38,0 -70,12 -93,38 -24,26 -36,60 -36,102zm-62 -454l65 0 0 334c14,-28 33,-49 56,-63 23,-15 51,-22 82,-22 54,0 97,19 130,56 32,37 48,86 48,148 0,62 -16,111 -49,148 -33,38 -77,56 -132,56 -29,0 -56,-7 -80,-22 -24,-14 -43,-35 -58,-62l0 68 -62 0 0 -641z"/>
  <path id="199" class="fil4" d="M8303 13704c0,-43 -12,-77 -35,-103 -23,-26 -54,-39 -91,-39 -39,0 -69,12 -91,36 -22,24 -33,57 -33,100 0,46 11,81 33,106 22,25 53,37 93,37 39,0 69,-12 91,-36 22,-24 33,-58 33,-101zm63 -193l0 378 -63 0 0 -68c-15,27 -35,48 -58,63 -24,14 -50,21 -79,21 -55,0 -98,-18 -132,-56 -33,-37 -49,-86 -49,-148 0,-62 16,-112 48,-149 32,-36 75,-55 129,-55 32,0 60,7 83,22 23,14 42,35 56,63l0 -71 65 0z"/>
  <path id="200" class="fil4" d="M8495 13889l0 -378 64 0 0 58c16,-24 35,-42 58,-54 23,-12 50,-18 80,-18 44,0 79,12 104,36 25,24 38,57 38,99l0 257 -66 0 0 -223c0,-38 -8,-66 -24,-85 -17,-19 -41,-28 -75,-28 -19,0 -37,4 -53,11 -16,7 -29,17 -39,30 -8,10 -14,21 -17,33 -4,13 -6,35 -6,67l0 195 -64 0z"/>
  <path id="201" class="fil4" d="M9256 13704c0,-43 -11,-77 -35,-103 -23,-26 -53,-39 -91,-39 -39,0 -69,12 -91,36 -22,24 -32,57 -32,100 0,46 11,81 32,106 22,25 53,37 94,37 38,0 69,-12 90,-36 22,-24 33,-58 33,-101zm63 -193l0 378 -63 0 0 -68c-15,27 -34,48 -58,63 -23,14 -50,21 -79,21 -54,0 -98,-18 -131,-56 -33,-37 -50,-86 -50,-148 0,-62 16,-112 48,-149 33,-36 76,-55 130,-55 31,0 59,7 82,22 23,14 42,35 57,63l0 -71 64 0z"/>
  <polygon id="202" class="fil4" points="9432,14009 9511,13784 9581,13809 9480,14028 "/>
  <path id="203" class="fil4" d="M10446 13429c-29,-32 -60,-55 -93,-70 -33,-15 -69,-23 -109,-23 -32,0 -63,7 -93,20 -31,13 -57,31 -79,54 -24,24 -41,51 -53,80 -11,30 -17,63 -17,99 0,28 3,54 10,77 7,24 18,46 31,66 25,34 54,61 90,79 35,19 74,28 115,28 38,0 74,-8 107,-24 33,-16 64,-39 91,-71l0 95c-30,22 -63,39 -97,50 -35,11 -71,16 -108,16 -31,0 -63,-4 -93,-14 -30,-9 -59,-23 -85,-42 -44,-30 -78,-68 -101,-112 -24,-45 -35,-94 -35,-147 0,-47 7,-90 23,-128 16,-38 39,-72 71,-104 31,-29 65,-52 103,-66 38,-15 78,-23 123,-23 35,0 69,6 102,16 32,11 65,27 97,50l0 94z"/>
  <path id="204" class="fil4" d="M10623 13511l0 186c0,54 8,92 24,114 16,22 43,33 82,33 38,0 65,-11 81,-32 16,-22 24,-60 24,-115l0 -186 66 0 0 221c0,57 -15,100 -44,129 -29,30 -72,44 -129,44 -56,0 -99,-14 -128,-44 -29,-29 -44,-72 -44,-129l0 -221 68 0z"/>
  <path id="205" class="fil4" d="M11087 13702c0,44 11,79 34,103 22,25 53,38 93,38 38,0 69,-13 90,-40 22,-26 33,-63 33,-109 0,-42 -10,-74 -32,-97 -21,-24 -51,-35 -89,-35 -39,0 -70,12 -94,38 -23,26 -35,60 -35,102zm-62 -454l64 0 0 334c15,-28 34,-49 57,-63 23,-15 50,-22 81,-22 55,0 98,19 130,56 33,37 49,86 49,148 0,62 -17,111 -50,148 -33,38 -77,56 -131,56 -29,0 -56,-7 -80,-22 -24,-14 -43,-35 -58,-62l0 68 -62 0 0 -641z"/>
  <path id="206" class="fil4" d="M11799 13704c0,-43 -12,-77 -35,-103 -24,-26 -54,-39 -92,-39 -38,0 -69,12 -90,36 -22,24 -33,57 -33,100 0,46 11,81 33,106 22,25 53,37 93,37 38,0 69,-12 91,-36 22,-24 33,-58 33,-101zm62 -193l0 378 -62 0 0 -68c-16,27 -35,48 -59,63 -23,14 -50,21 -79,21 -54,0 -98,-18 -131,-56 -33,-37 -50,-86 -50,-148 0,-62 16,-112 49,-149 32,-36 75,-55 129,-55 32,0 59,7 82,22 24,14 43,35 57,63l0 -71 64 0z"/>
  <path id="207" class="fil4" d="M12000 13849c0,-14 5,-25 14,-35 10,-10 22,-14 35,-14 14,0 26,4 35,14 10,9 15,21 15,35 0,13 -5,25 -14,34 -10,9 -22,14 -36,14 -14,0 -25,-5 -35,-14 -9,-9 -14,-21 -14,-34z"/>
  <polygon id="208" class="fil4" points="12670,13913 12414,13284 12492,13284 12670,13747 12847,13284 12925,13284 "/>
  <path id="209" class="fil4" d="M13203 13657c-2,-33 -13,-59 -33,-77 -20,-18 -47,-27 -82,-27 -31,0 -58,10 -79,28 -21,19 -33,45 -36,76l230 0zm70 53l-300 0 0 6c0,40 12,73 35,98 23,25 53,37 90,37 26,0 49,-7 69,-20 20,-14 38,-34 54,-62l49 33c-19,34 -43,60 -72,77 -30,18 -64,26 -103,26 -58,0 -104,-19 -140,-57 -35,-38 -53,-88 -53,-149 0,-60 18,-108 53,-146 35,-38 80,-57 136,-57 56,0 100,18 133,54 32,36 49,85 49,147l0 13z"/>
  <path id="210" class="fil4" d="M13660 13704c0,-43 -12,-77 -35,-103 -23,-26 -54,-39 -91,-39 -39,0 -69,12 -91,36 -22,24 -33,57 -33,100 0,46 11,81 33,106 22,25 53,37 93,37 39,0 69,-12 91,-36 22,-24 33,-58 33,-101zm62 -193l0 378 -62 0 0 -68c-15,27 -35,48 -58,63 -24,14 -50,21 -79,21 -55,0 -99,-18 -132,-56 -33,-37 -50,-86 -50,-148 0,-62 17,-112 49,-149 32,-36 75,-55 129,-55 32,0 59,7 83,22 23,14 42,35 56,63l0 -71 64 0z"/>
  <path id="211" class="fil4" d="M14379 13889l0 -223c0,-38 -8,-66 -24,-85 -15,-19 -39,-28 -71,-28 -17,0 -33,4 -48,11 -14,7 -27,17 -37,30 -7,10 -13,21 -16,34 -3,14 -5,35 -5,66l0 195 -63 0 0 -223c0,-38 -8,-66 -23,-85 -15,-19 -39,-28 -71,-28 -17,0 -33,4 -48,11 -15,7 -28,17 -38,30 -7,9 -13,21 -16,33 -3,13 -4,35 -4,67l0 195 -63 0 0 -378 63 0 0 58c16,-24 35,-42 57,-54 21,-12 46,-18 75,-18 30,0 56,7 78,20 21,13 38,32 49,57 16,-26 35,-45 57,-58 23,-12 48,-19 78,-19 42,0 75,12 98,36 24,24 36,57 36,99l0 257 -64 0z"/>
  <path id="212" class="fil4" d="M14608 13701c0,40 14,74 40,102 27,28 59,41 97,41 38,0 70,-13 97,-41 26,-28 40,-62 40,-102 0,-40 -14,-74 -40,-101 -27,-28 -59,-42 -97,-42 -38,0 -70,14 -97,42 -27,27 -40,61 -40,101zm-68 0c0,-28 5,-54 15,-79 10,-24 25,-46 45,-66 19,-19 41,-34 66,-44 25,-10 51,-15 80,-15 27,0 53,5 78,15 25,11 47,26 67,45 20,19 34,41 45,66 10,24 15,50 15,78 0,28 -5,54 -15,78 -11,24 -25,46 -45,65 -20,20 -43,35 -68,46 -25,10 -50,15 -77,15 -28,0 -55,-5 -80,-15 -25,-10 -47,-25 -66,-45 -20,-20 -35,-42 -45,-66 -10,-24 -15,-50 -15,-78z"/>
  <path id="213" class="fil4" d="M15012 13826l55 -37c11,20 24,34 40,45 16,10 35,15 56,15 22,0 39,-6 52,-16 13,-10 20,-24 20,-41 0,-14 -5,-25 -14,-33 -9,-9 -24,-17 -46,-25l-11 -3c-92,-32 -138,-72 -138,-120 0,-33 13,-61 37,-82 25,-21 57,-32 97,-32 33,0 61,7 84,20 24,13 41,31 51,55l-53 33c-7,-18 -19,-31 -34,-40 -15,-10 -32,-14 -52,-14 -19,0 -35,5 -47,16 -12,10 -18,24 -18,40 0,23 26,43 76,59 9,3 17,5 22,7 41,13 70,28 86,45 16,17 24,39 24,67 0,36 -13,65 -38,87 -26,22 -59,33 -100,33 -35,0 -65,-6 -90,-20 -25,-13 -44,-33 -59,-59z"/>
  <path id="214" class="fil4" d="M15915 13657c-3,-33 -14,-59 -34,-77 -20,-18 -47,-27 -82,-27 -31,0 -57,10 -78,28 -21,19 -34,45 -37,76l231 0zm69 53l-300 0 0 6c0,40 12,73 35,98 23,25 53,37 91,37 25,0 48,-7 68,-20 21,-14 39,-34 54,-62l49 33c-18,34 -43,60 -72,77 -30,18 -64,26 -103,26 -57,0 -104,-19 -140,-57 -35,-38 -53,-88 -53,-149 0,-60 18,-108 53,-146 35,-38 81,-57 136,-57 56,0 100,18 133,54 33,36 49,85 49,147l0 13z"/>
  <path id="215" class="fil4" d="M16081 13889l0 -378 64 0 0 58c16,-24 36,-42 59,-54 23,-12 49,-18 79,-18 45,0 80,12 105,36 25,24 37,57 37,99l0 257 -66 0 0 -223c0,-38 -8,-66 -24,-85 -16,-19 -41,-28 -75,-28 -19,0 -37,4 -52,11 -16,7 -29,17 -40,30 -8,10 -14,21 -17,33 -3,13 -5,35 -5,67l0 195 -65 0z"/>
  <path id="216" class="fil4" d="M8615 14716c0,-44 -12,-79 -34,-104 -22,-25 -54,-37 -93,-37 -38,0 -69,13 -91,39 -22,27 -33,63 -33,110 0,42 11,74 33,98 21,23 51,35 89,35 39,0 70,-13 93,-39 24,-25 36,-59 36,-102zm62 373l-64 0 0 -253c-14,28 -33,49 -56,63 -23,14 -51,21 -82,21 -54,0 -98,-18 -130,-55 -32,-37 -49,-86 -49,-149 0,-62 17,-111 50,-148 33,-37 77,-56 131,-56 30,0 57,7 80,22 24,15 43,36 58,63l0 -71 62 0 0 563z"/>
  <path id="217" class="fil4" d="M8870 14526l0 186c0,54 8,92 24,114 17,22 44,32 82,32 38,0 65,-10 81,-32 16,-21 24,-59 24,-114l0 -186 66 0 0 221c0,57 -14,100 -44,129 -29,30 -72,44 -129,44 -56,0 -98,-14 -128,-44 -29,-29 -43,-73 -43,-129l0 -221 67 0z"/>
  <path id="218" class="fil4" d="M9541 14672c-3,-33 -14,-59 -34,-77 -19,-18 -47,-27 -82,-27 -31,0 -57,9 -78,28 -21,19 -33,44 -37,76l231 0zm69 53l-300 0 0 5c0,41 12,74 35,99 23,25 53,37 91,37 25,0 48,-7 68,-20 21,-14 39,-35 54,-62l50 33c-19,34 -44,60 -73,77 -30,18 -64,26 -103,26 -57,0 -104,-19 -139,-57 -36,-38 -54,-88 -54,-150 0,-59 18,-107 53,-145 35,-38 81,-57 136,-57 56,0 100,18 133,54 33,36 49,85 49,147l0 13z"/>
  <path id="219" class="fil4" d="M10248 14814l0 76c-17,10 -36,18 -58,23 -21,5 -44,7 -69,7 -59,0 -106,-18 -141,-55 -36,-37 -54,-86 -54,-147 0,-60 19,-110 56,-148 37,-39 84,-58 141,-58 21,0 42,2 62,7 20,4 39,11 56,19l0 70c-16,-11 -33,-19 -51,-25 -18,-5 -36,-8 -54,-8 -42,0 -76,13 -102,40 -26,26 -38,62 -38,106 0,39 12,71 38,97 26,26 58,40 97,40 20,0 39,-4 58,-11 18,-7 38,-18 59,-33z"/>
  <path id="220" class="fil4" d="M10376 14716c0,40 13,74 40,102 27,27 59,41 97,41 38,0 70,-14 97,-41 26,-28 39,-62 39,-102 0,-40 -13,-74 -39,-101 -27,-28 -59,-42 -97,-42 -38,0 -71,14 -97,42 -27,27 -40,61 -40,101zm-69 0c0,-28 5,-54 15,-79 11,-24 26,-46 45,-66 20,-19 42,-34 67,-44 25,-10 51,-15 79,-15 28,0 54,5 79,15 24,11 47,25 67,45 19,19 34,41 44,66 11,24 16,50 16,78 0,28 -5,54 -16,78 -10,24 -25,46 -44,65 -20,20 -43,35 -68,46 -25,10 -51,15 -78,15 -28,0 -54,-5 -79,-15 -25,-11 -47,-25 -67,-45 -19,-20 -34,-42 -45,-66 -10,-24 -15,-50 -15,-78z"/>
  <path id="221" class="fil4" d="M10819 14904l0 -378 64 0 0 58c16,-24 36,-42 59,-54 22,-12 49,-18 79,-18 45,0 79,12 104,36 26,23 38,56 38,99l0 257 -66 0 0 -223c0,-38 -8,-66 -24,-85 -16,-19 -41,-28 -75,-28 -19,0 -37,4 -53,11 -15,7 -28,17 -39,29 -8,10 -14,22 -17,34 -4,13 -5,35 -5,67l0 195 -65 0z"/>
  <path id="222" class="fil4" d="M11251 14840l56 -37c10,20 23,35 39,45 16,10 35,15 57,15 21,0 38,-5 51,-15 13,-11 20,-24 20,-42 0,-13 -5,-24 -13,-33 -9,-8 -25,-16 -47,-24l-10 -4c-92,-31 -138,-71 -138,-119 0,-33 12,-61 37,-82 25,-21 57,-32 96,-32 33,0 61,7 85,20 23,13 40,31 50,55l-52 33c-8,-18 -19,-31 -34,-40 -15,-10 -33,-15 -53,-15 -19,0 -34,6 -46,16 -12,11 -18,25 -18,41 0,23 25,43 75,58 10,4 17,6 23,8 40,13 69,28 85,45 16,17 24,39 24,67 0,36 -12,65 -38,87 -25,22 -59,33 -100,33 -35,0 -65,-6 -90,-20 -24,-13 -44,-33 -59,-60z"/>
  <path id="223" class="fil4" d="M11624 14343c0,-12 5,-24 14,-33 9,-9 20,-14 34,-14 12,0 24,5 33,14 9,10 14,21 14,34 0,13 -5,24 -14,33 -9,10 -20,14 -33,14 -14,0 -25,-4 -34,-14 -9,-9 -14,-20 -14,-34zm15 561l0 -378 65 0 0 378 -65 0z"/>
  <path id="224" class="fil4" d="M11801 14840l55 -37c11,20 24,35 40,45 16,10 35,15 57,15 21,0 38,-5 51,-15 13,-11 20,-24 20,-42 0,-13 -5,-24 -14,-33 -9,-8 -24,-16 -46,-24l-11 -4c-92,-31 -138,-71 -138,-119 0,-33 13,-61 38,-82 24,-21 57,-32 96,-32 33,0 61,7 85,20 23,13 40,31 50,55l-52 33c-8,-18 -20,-31 -35,-40 -15,-10 -32,-15 -52,-15 -19,0 -34,6 -46,16 -12,11 -18,25 -18,41 0,23 25,43 75,58 9,4 17,6 22,8 41,13 70,28 86,45 16,17 24,39 24,67 0,36 -13,65 -38,87 -26,22 -59,33 -100,33 -35,0 -65,-6 -90,-20 -24,-13 -44,-33 -59,-60z"/>
  <polygon id="225" class="fil4" points="12196,14579 12126,14579 12126,14526 12196,14526 12196,14373 12262,14373 12262,14526 12331,14526 12331,14579 12262,14579 12262,14904 12196,14904 "/>
  <path id="226" class="fil4" d="M12673 14672c-2,-33 -13,-59 -33,-77 -20,-18 -47,-27 -82,-27 -32,0 -58,9 -79,28 -21,19 -33,44 -36,76l230 0zm70 53l-300 0 0 5c0,41 11,74 35,99 23,25 53,37 90,37 25,0 48,-7 69,-20 20,-14 38,-35 54,-62l49 33c-19,34 -43,60 -73,77 -29,18 -63,26 -102,26 -58,0 -104,-19 -140,-57 -35,-38 -53,-88 -53,-150 0,-59 17,-107 53,-145 35,-38 80,-57 136,-57 56,0 100,18 133,54 32,36 49,85 49,147l0 13z"/>
  <path id="227" class="fil4" d="M12840 14904l0 -378 64 0 0 58c16,-24 35,-42 58,-54 23,-12 50,-18 80,-18 44,0 79,12 104,36 25,23 38,56 38,99l0 257 -66 0 0 -223c0,-38 -8,-66 -24,-85 -17,-19 -41,-28 -75,-28 -19,0 -37,4 -53,11 -16,7 -29,17 -39,29 -8,10 -14,22 -17,34 -4,13 -6,35 -6,67l0 195 -64 0z"/>
  <path id="228" class="fil4" d="M13321 14864c0,-14 5,-25 15,-35 9,-10 21,-15 34,-15 14,0 26,5 36,15 9,9 14,21 14,35 0,13 -5,25 -14,34 -10,9 -22,14 -36,14 -13,0 -25,-5 -35,-14 -9,-9 -14,-21 -14,-34z"/>
  <g id="_56019981136">
   <path class="fil5" d="M4499 19684c0,150 -121,270 -270,270 -149,0 -270,-120 -270,-270 0,-149 121,-270 270,-270 149,0 270,121 270,270z"/>
   <path class="fil6" d="M4229 20027c-189,0 -342,-154 -342,-343 0,-188 153,-342 342,-342 189,0 342,154 342,342 0,189 -153,343 -342,343zm0 -541c-109,0 -198,89 -198,198 0,109 89,198 198,198 109,0 198,-89 198,-198 0,-109 -89,-198 -198,-198z"/>
   <path class="fil5" d="M3648 21147c0,149 -121,270 -271,270 -149,0 -270,-121 -270,-270 0,-150 121,-271 270,-271 150,0 271,121 271,271z"/>
   <path class="fil6" d="M3377 21489c-188,0 -342,-154 -342,-342 0,-189 154,-343 342,-343 189,0 343,154 343,343 0,188 -154,342 -343,342zm0 -540c-109,0 -197,88 -197,198 0,109 88,197 197,197 110,0 198,-88 198,-197 0,-110 -88,-198 -198,-198z"/>
   <polygon class="fil6" points="3999,24757 3424,24757 3424,21566 3999,21566 "/>
   <path class="fil6" d="M3999 24830l-575 0c-40,0 -72,-33 -72,-73l0 -3191c0,-40 32,-72 72,-72l575 0c39,0 72,32 72,72l0 3191c0,40 -33,73 -72,73zm-503 -145l430 0 0 -3047 -430 0 0 3047z"/>
   <polygon class="fil6" points="6041,24757 5467,24757 5467,21566 6041,21566 "/>
   <path class="fil6" d="M6041 24830l-574 0c-40,0 -72,-33 -72,-73l0 -3191c0,-40 32,-72 72,-72l574 0c40,0 72,32 72,72l0 3191c0,40 -32,73 -72,73zm-502 -145l430 0 0 -3047 -430 0 0 3047z"/>
   <polygon class="fil7" points="7766,28748 1131,28748 1131,24686 7766,24686 "/>
   <path class="fil6" d="M1087 28805c-17,-13 -28,-34 -28,-57l0 -4062c0,-40 32,-73 72,-73l6635 0c40,0 72,33 72,73l0 4062c0,23 -11,44 -28,57l-6723 0zm116 -129l6491 0 0 -3918 -6491 0 0 3918z"/>
   <path class="fil8" d="M5717 23722c0,-351 286,-636 638,-636 351,0 637,285 637,636 0,521 421,943 941,943 521,0 942,-422 942,-943l1274 0c0,1224 -992,2217 -2216,2217 -1223,0 -2216,-993 -2216,-2217z"/>
   <path class="fil6" d="M7933 26011c-1261,0 -2288,-1027 -2288,-2289 0,-391 318,-709 709,-709 392,0 710,318 710,709 0,480 390,870 869,870 480,0 870,-390 870,-870 0,-39 32,-72 72,-72l1274 0c40,0 73,33 73,72 0,1262 -1027,2289 -2289,2289zm-1579 -2853c-311,0 -564,253 -564,564 0,1183 961,2144 2143,2144 1158,0 2105,-923 2143,-2071l-1131 0c-37,525 -477,942 -1012,942 -559,0 -1014,-455 -1014,-1015 0,-311 -253,-564 -565,-564z"/>
   <path class="fil8" d="M9519 23722c395,0 715,-320 715,-715 0,-395 -320,-715 -715,-715 -396,0 -716,320 -716,715 0,395 320,715 716,715z"/>
   <path class="fil6" d="M9519 23795c-435,0 -788,-354 -788,-788 0,-434 353,-788 788,-788 434,0 787,354 787,788 0,434 -353,788 -787,788zm0 -1431c-355,0 -643,288 -643,643 0,355 288,643 643,643 354,0 643,-288 643,-643 0,-355 -289,-643 -643,-643z"/>
   <polygon class="fil9" points="2618,28805 2618,27899 3866,27899 3866,28805 "/>
   <path class="fil6" d="M2546 28805l0 -906c0,-40 33,-72 72,-72l1248 0c39,0 72,32 72,72l0 906 -145 0 0 -834 -1102 0 0 834 -145 0z"/>
   <polygon class="fil9" points="5249,28805 5249,27899 6496,27899 6496,28805 "/>
   <path class="fil6" d="M5176 28805l0 -906c0,-40 33,-72 73,-72l1247 0c39,0 72,32 72,72l0 906 -145 0 0 -834 -1102 0 0 834 -145 0z"/>
   <path class="fil10" d="M4470 21982c-1410,0 -2554,571 -2554,1276l0 5490 5107 0 0 -5490c0,-705 -1143,-1276 -2553,-1276z"/>
   <path class="fil6" d="M1873 28805c-18,-13 -29,-34 -29,-57l0 -5490c0,-756 1153,-1348 2626,-1348 1472,0 2625,592 2625,1348l0 5490c0,23 -11,44 -28,57l-5194 0zm116 -129l4962 0 0 -5418c0,-664 -1113,-1204 -2481,-1204 -1368,0 -2481,540 -2481,1204l0 5418z"/>
   <path class="fil7" d="M7766 24686l-6635 0c0,-1604 1485,-2904 3318,-2904 1832,0 3317,1300 3317,2904z"/>
   <path class="fil6" d="M7767 24758l-1 0 -6635 0c-40,0 -72,-33 -72,-72 0,-1641 1520,-2977 3390,-2977 1864,0 3382,1329 3389,2965 1,3 1,7 1,12 0,39 -32,72 -72,72zm-6563 -145l6489 0c-44,-1528 -1482,-2759 -3244,-2759 -1762,0 -3201,1231 -3245,2759z"/>
   <path class="fil11" d="M3217 22241c0,-691 561,-1252 1253,-1252 692,0 1252,561 1252,1252 0,692 -560,1253 -1252,1253 -692,0 -1253,-561 -1253,-1253z"/>
   <path class="fil6" d="M4470 23566c-731,0 -1325,-594 -1325,-1324 0,-731 594,-1325 1325,-1325 730,0 1325,594 1325,1325 0,730 -595,1324 -1325,1324zm0 -2505c-651,0 -1181,530 -1181,1181 0,651 530,1180 1181,1180 651,0 1180,-529 1180,-1180 0,-651 -529,-1181 -1180,-1181z"/>
   <polygon class="fil9" points="3217,21905 4273,24172 1916,22659 "/>
   <path class="fil6" d="M4273 24244c-14,0 -27,-4 -39,-12l-2357 -1513c-21,-13 -33,-37 -33,-62 1,-25 15,-48 36,-61l1301 -754c17,-10 38,-12 58,-6 19,6 35,20 43,38l1052 2257c7,12 12,26 12,41 0,39 -32,72 -72,72l-1 0zm-2218 -1582l2047 1314 -917 -1969 -1130 655z"/>
   <polygon class="fil9" points="5595,21905 4539,24172 6896,22659 "/>
   <path class="fil6" d="M4539 24244c-17,0 -34,-6 -47,-18 -24,-21 -32,-56 -18,-85l1056 -2267c8,-18 24,-32 43,-38 20,-6 41,-4 58,6l1301 754c22,13 35,36 36,61 0,25 -12,49 -33,62l-2357 1513c-12,8 -25,12 -39,12zm1088 -2237l-917 1969 2047 -1314 -1130 -655z"/>
   <path class="fil8" d="M6158 21071c0,932 -756,1688 -1688,1688 -933,0 -1689,-756 -1689,-1688 0,-933 756,-1689 1689,-1689 932,0 1688,756 1688,1689z"/>
   <path class="fil6" d="M4470 22832c-971,0 -1761,-790 -1761,-1761 0,-971 790,-1761 1761,-1761 970,0 1760,790 1760,1761 0,971 -790,1761 -1760,1761zm0 -3378c-892,0 -1617,725 -1617,1617 0,891 725,1616 1617,1616 891,0 1616,-725 1616,-1616 0,-892 -725,-1617 -1616,-1617z"/>
   <path class="fil11" d="M4470 20924c-132,0 -239,107 -239,239l0 208c0,131 107,238 239,238 132,0 238,-107 238,-238l0 -208c0,-132 -106,-239 -238,-239z"/>
   <path class="fil6" d="M4470 21681c-172,0 -311,-139 -311,-310l0 -208c0,-172 139,-311 311,-311 39,0 72,32 72,72 0,40 -33,72 -72,72 -92,0 -167,75 -167,167l0 208c0,91 75,166 167,166 91,0 166,-75 166,-166 0,-40 32,-73 72,-73 40,0 73,33 73,73 0,171 -140,310 -311,310z"/>
   <path class="fil6" d="M3732 20841c0,73 -58,132 -131,132 -73,0 -132,-59 -132,-132 0,-72 59,-131 132,-131 73,0 131,59 131,131z"/>
   <path class="fil6" d="M5369 20841c0,73 -59,132 -131,132 -73,0 -132,-59 -132,-132 0,-72 59,-131 132,-131 72,0 131,59 131,131z"/>
   <path class="fil6" d="M4470 22340c-266,0 -482,-216 -482,-481 0,-40 32,-73 72,-73 40,0 73,33 73,73 0,185 151,337 337,337 186,0 337,-152 337,-337 0,-40 32,-73 72,-73 40,0 72,33 72,73 0,265 -216,481 -481,481z"/>
   <path class="fil9" d="M4728 24193c0,154 -125,279 -279,279 -154,0 -279,-125 -279,-279 0,-154 125,-279 279,-279 154,0 279,125 279,279z"/>
   <path class="fil6" d="M4449 24544c-194,0 -351,-158 -351,-351 0,-194 157,-351 351,-351 193,0 351,157 351,351 0,193 -158,351 -351,351zm0 -558c-114,0 -207,93 -207,207 0,114 93,207 207,207 114,0 206,-93 206,-207 0,-114 -92,-207 -206,-207z"/>
   <polygon class="fil12" points="7023,25743 1916,25743 1916,28748 7023,28748 "/>
   <path class="fil6" d="M1873 28805c-18,-13 -29,-34 -29,-57l0 -3005c0,-40 32,-72 72,-72l5107 0c40,0 72,32 72,72l0 3005c0,23 -11,44 -28,57l-5194 0zm116 -129l4962 0 0 -2861 -4962 0 0 2861z"/>
   <polygon class="fil13" points="6446,25376 4796,25376 4796,24688 6446,24688 "/>
   <path class="fil6" d="M6446 25448l-1650 0c-40,0 -72,-32 -72,-72l0 -688c0,-40 32,-72 72,-72l1650 0c40,0 73,32 73,72l0 688c0,40 -33,72 -73,72zm-1578 -144l1506 0 0 -544 -1506 0 0 544z"/>
   <path class="fil6" d="M4960 21990c0,-174 -219,-315 -490,-315 -271,0 -491,141 -491,315l981 0z"/>
   <path class="fil6" d="M4960 22050l-981 0c-33,0 -60,-27 -60,-60 0,-210 242,-375 551,-375 309,0 551,165 551,375 0,33 -27,60 -61,60zm-907 -121l834 0c-47,-109 -219,-193 -417,-193 -198,0 -370,84 -417,193z"/>
   <path class="fil6" d="M5438 19558c0,0 -1135,512 -2482,688 0,0 670,-1574 2441,-717l41 29z"/>
   <path class="fil6" d="M2956 20322c-22,0 -46,-12 -60,-31 -17,-21 -19,-50 -9,-74 11,-28 290,-668 964,-920 463,-174 995,-119 1579,165 11,5 20,13 28,24 20,5 39,20 48,40 18,38 0,84 -38,100 -11,5 -1159,520 -2502,695l-10 1zm1451 -973c-178,0 -345,29 -504,89 -440,165 -700,522 -812,713 985,-148 1842,-468 2170,-601 -302,-134 -588,-201 -854,-201z"/>
   <polygon class="fil14" points="6164,19932 2783,19932 2783,19488 6164,19488 "/>
   <path class="fil6" d="M6164 20007l-3381 0c-41,0 -76,-34 -76,-75l0 -444c0,-42 35,-76 76,-76l3381 0c41,0 76,34 76,76l0 444c0,41 -35,75 -76,75zm-3305 -151l3230 0 0 -293 -3230 0 0 293z"/>
   <polygon class="fil14" points="5676,18437 3249,18437 3249,19488 5676,19488 "/>
   <path class="fil6" d="M5676 19563l-2427 0c-43,0 -76,-33 -76,-75l0 -1051c0,-42 33,-75 76,-75l2427 0c41,0 76,33 76,75l0 1051c0,42 -35,75 -76,75zm-2351 -151l2276 0 0 -899 -2276 0 0 899z"/>
   <polygon class="fil6" points="5676,19098 3249,19098 3249,19503 5676,19503 "/>
   <path class="fil6" d="M5676 19579l-2427 0c-43,0 -76,-34 -76,-76l0 -405c0,-41 33,-75 76,-75l2427 0c41,0 76,34 76,75l0 405c0,42 -35,76 -76,76zm-2351 -151l2276 0 0 -255 -2276 0 0 255z"/>
  </g>
 </g>
</svg>
