<?xml version="1.0" encoding="UTF-8"?>
<!DOCTYPE svg PUBLIC "-//W3C//DTD SVG 1.1//EN" "http://www.w3.org/Graphics/SVG/1.1/DTD/svg11.dtd">
<!-- Creator: CorelDRAW X7 -->
<svg xmlns="http://www.w3.org/2000/svg" xml:space="preserve" width="190.5mm" height="338.667mm" version="1.1" style="shape-rendering:geometricPrecision; text-rendering:geometricPrecision; image-rendering:optimizeQuality; fill-rule:evenodd; clip-rule:evenodd"
viewBox="0 0 19050 33867"
 xmlns:xlink="http://www.w3.org/1999/xlink">
 <defs>
  <style type="text/css">
   <![CDATA[
    .fil5 {fill:#006A5E;fill-rule:nonzero}
    .fil3 {fill:#4E3E37;fill-rule:nonzero}
    .fil2 {fill:#541124;fill-rule:nonzero}
    .fil0 {fill:#61C5C3;fill-rule:nonzero}
    .fil7 {fill:#BEC2AF;fill-rule:nonzero}
    .fil1 {fill:#C7DD9F;fill-rule:nonzero}
    .fil8 {fill:#D3642B;fill-rule:nonzero}
    .fil10 {fill:#DEA518;fill-rule:nonzero}
    .fil6 {fill:#E2E7C6;fill-rule:nonzero}
    .fil4 {fill:#FFF9D9;fill-rule:nonzero}
    .fil9 {fill:#FFFBDA;fill-rule:nonzero}
   ]]>
  </style>
 </defs>
 <g id="Capa_x0020_1">
  <metadata id="CorelCorpID_0Corel-Layer"/>
  <polygon class="fil0" points="0,33867 19050,33867 19050,0 0,0 "/>
  <path class="fil1" d="M4499 19684c0,150 -121,270 -270,270 -149,0 -270,-120 -270,-270 0,-149 121,-270 270,-270 149,0 270,121 270,270z"/>
  <path class="fil2" d="M4229 20027c-189,0 -342,-154 -342,-343 0,-188 153,-342 342,-342 189,0 342,154 342,342 0,189 -153,343 -342,343zm0 -541c-109,0 -198,89 -198,198 0,109 89,198 198,198 109,0 198,-89 198,-198 0,-109 -89,-198 -198,-198z"/>
  <path class="fil1" d="M3648 21147c0,149 -121,270 -271,270 -149,0 -270,-121 -270,-270 0,-150 121,-271 270,-271 150,0 271,121 271,271z"/>
  <path class="fil2" d="M3377 21489c-188,0 -342,-154 -342,-342 0,-189 154,-343 342,-343 189,0 343,154 343,343 0,188 -154,342 -343,342zm0 -540c-109,0 -197,88 -197,198 0,109 88,197 197,197 110,0 198,-88 198,-197 0,-110 -88,-198 -198,-198z"/>
  <polygon class="fil2" points="3999,24757 3424,24757 3424,21566 3999,21566 "/>
  <path class="fil2" d="M3999 24830l-575 0c-40,0 -72,-33 -72,-73l0 -3191c0,-40 32,-72 72,-72l575 0c39,0 72,32 72,72l0 3191c0,40 -33,73 -72,73zm-503 -145l430 0 0 -3047 -430 0 0 3047z"/>
  <polygon class="fil2" points="6041,24757 5467,24757 5467,21566 6041,21566 "/>
  <path class="fil2" d="M6041 24830l-574 0c-40,0 -72,-33 -72,-73l0 -3191c0,-40 32,-72 72,-72l574 0c40,0 72,32 72,72l0 3191c0,40 -32,73 -72,73zm-502 -145l430 0 0 -3047 -430 0 0 3047z"/>
  <polygon class="fil3" points="7766,28748 1131,28748 1131,24686 7766,24686 "/>
  <path class="fil2" d="M1087 28805c-17,-13 -28,-34 -28,-57l0 -4062c0,-40 32,-73 72,-73l6635 0c40,0 72,33 72,73l0 4062c0,23 -11,44 -28,57l-6723 0zm116 -129l6491 0 0 -3918 -6491 0 0 3918z"/>
  <path class="fil4" d="M5717 23722c0,-351 286,-636 638,-636 351,0 637,285 637,636 0,521 421,943 941,943 521,0 942,-422 942,-943l1274 0c0,1224 -992,2217 -2216,2217 -1223,0 -2216,-993 -2216,-2217z"/>
  <path class="fil2" d="M7933 26011c-1261,0 -2288,-1027 -2288,-2289 0,-391 318,-709 709,-709 392,0 710,318 710,709 0,480 390,870 869,870 480,0 870,-390 870,-870 0,-39 32,-72 72,-72l1274 0c40,0 73,33 73,72 0,1262 -1027,2289 -2289,2289zm-1579 -2853c-311,0 -564,253 -564,564 0,1183 961,2144 2143,2144 1158,0 2105,-923 2143,-2071l-1131 0c-37,525 -477,942 -1012,942 -559,0 -1014,-455 -1014,-1015 0,-311 -253,-564 -565,-564z"/>
  <path class="fil4" d="M9519 23722c395,0 715,-320 715,-715 0,-395 -320,-715 -715,-715 -396,0 -716,320 -716,715 0,395 320,715 716,715z"/>
  <path class="fil2" d="M9519 23795c-435,0 -788,-354 -788,-788 0,-434 353,-788 788,-788 434,0 787,354 787,788 0,434 -353,788 -787,788zm0 -1431c-355,0 -643,288 -643,643 0,355 288,643 643,643 354,0 643,-288 643,-643 0,-355 -289,-643 -643,-643z"/>
  <polygon class="fil5" points="2618,28805 2618,27899 3866,27899 3866,28805 "/>
  <path class="fil2" d="M2546 28805l0 -906c0,-40 33,-72 72,-72l1248 0c39,0 72,32 72,72l0 906 -145 0 0 -834 -1102 0 0 834 -145 0z"/>
  <polygon class="fil5" points="5249,28805 5249,27899 6496,27899 6496,28805 "/>
  <path class="fil2" d="M5176 28805l0 -906c0,-40 33,-72 73,-72l1247 0c39,0 72,32 72,72l0 906 -145 0 0 -834 -1102 0 0 834 -145 0z"/>
  <path class="fil6" d="M4470 21982c-1410,0 -2554,571 -2554,1276l0 5490 5107 0 0 -5490c0,-705 -1143,-1276 -2553,-1276z"/>
  <path class="fil2" d="M1873 28805c-18,-13 -29,-34 -29,-57l0 -5490c0,-756 1153,-1348 2626,-1348 1472,0 2625,592 2625,1348l0 5490c0,23 -11,44 -28,57l-5194 0zm116 -129l4962 0 0 -5418c0,-664 -1113,-1204 -2481,-1204 -1368,0 -2481,540 -2481,1204l0 5418z"/>
  <path class="fil3" d="M7766 24686l-6635 0c0,-1604 1485,-2904 3318,-2904 1832,0 3317,1300 3317,2904z"/>
  <path class="fil2" d="M7767 24758l-1 0 -6635 0c-40,0 -72,-33 -72,-72 0,-1641 1520,-2977 3390,-2977 1864,0 3382,1329 3389,2965 1,3 1,7 1,12 0,39 -32,72 -72,72zm-6563 -145l6489 0c-44,-1528 -1482,-2759 -3244,-2759 -1762,0 -3201,1231 -3245,2759z"/>
  <path class="fil7" d="M3217 22241c0,-691 561,-1252 1253,-1252 692,0 1252,561 1252,1252 0,692 -560,1253 -1252,1253 -692,0 -1253,-561 -1253,-1253z"/>
  <path class="fil2" d="M4470 23566c-731,0 -1325,-594 -1325,-1324 0,-731 594,-1325 1325,-1325 730,0 1325,594 1325,1325 0,730 -595,1324 -1325,1324zm0 -2505c-651,0 -1181,530 -1181,1181 0,651 530,1180 1181,1180 651,0 1180,-529 1180,-1180 0,-651 -529,-1181 -1180,-1181z"/>
  <polygon class="fil5" points="3217,21905 4273,24172 1916,22659 "/>
  <path class="fil2" d="M4273 24244c-14,0 -27,-4 -39,-12l-2357 -1513c-21,-13 -33,-37 -33,-62 1,-25 15,-48 36,-61l1301 -754c17,-10 38,-12 58,-6 19,6 35,20 43,38l1052 2257c7,12 12,26 12,41 0,39 -32,72 -72,72l-1 0zm-2218 -1582l2047 1314 -917 -1969 -1130 655z"/>
  <polygon class="fil5" points="5595,21905 4539,24172 6896,22659 "/>
  <path class="fil2" d="M4539 24244c-17,0 -34,-6 -47,-18 -24,-21 -32,-56 -18,-85l1056 -2267c8,-18 24,-32 43,-38 20,-6 41,-4 58,6l1301 754c22,13 35,36 36,61 0,25 -12,49 -33,62l-2357 1513c-12,8 -25,12 -39,12zm1088 -2237l-917 1969 2047 -1314 -1130 -655z"/>
  <path class="fil4" d="M6158 21071c0,932 -756,1688 -1688,1688 -933,0 -1689,-756 -1689,-1688 0,-933 756,-1689 1689,-1689 932,0 1688,756 1688,1689z"/>
  <path class="fil2" d="M4470 22832c-971,0 -1761,-790 -1761,-1761 0,-971 790,-1761 1761,-1761 970,0 1760,790 1760,1761 0,971 -790,1761 -1760,1761zm0 -3378c-892,0 -1617,725 -1617,1617 0,891 725,1616 1617,1616 891,0 1616,-725 1616,-1616 0,-892 -725,-1617 -1616,-1617z"/>
  <path class="fil7" d="M4470 20924c-132,0 -239,107 -239,239l0 208c0,131 107,238 239,238 132,0 238,-107 238,-238l0 -208c0,-132 -106,-239 -238,-239z"/>
  <path class="fil2" d="M4470 21681c-172,0 -311,-139 -311,-310l0 -208c0,-172 139,-311 311,-311 39,0 72,32 72,72 0,40 -33,72 -72,72 -92,0 -167,75 -167,167l0 208c0,91 75,166 167,166 91,0 166,-75 166,-166 0,-40 32,-73 72,-73 40,0 73,33 73,73 0,171 -140,310 -311,310z"/>
  <path class="fil2" d="M3732 20841c0,73 -58,132 -131,132 -73,0 -132,-59 -132,-132 0,-72 59,-131 132,-131 73,0 131,59 131,131z"/>
  <path class="fil2" d="M5369 20841c0,73 -59,132 -131,132 -73,0 -132,-59 -132,-132 0,-72 59,-131 132,-131 72,0 131,59 131,131z"/>
  <path class="fil2" d="M4470 22340c-266,0 -482,-216 -482,-481 0,-40 32,-73 72,-73 40,0 73,33 73,73 0,185 151,337 337,337 186,0 337,-152 337,-337 0,-40 32,-73 72,-73 40,0 72,33 72,73 0,265 -216,481 -481,481z"/>
  <path class="fil5" d="M4728 24193c0,154 -125,279 -279,279 -154,0 -279,-125 -279,-279 0,-154 125,-279 279,-279 154,0 279,125 279,279z"/>
  <path class="fil2" d="M4449 24544c-194,0 -351,-158 -351,-351 0,-194 157,-351 351,-351 193,0 351,157 351,351 0,193 -158,351 -351,351zm0 -558c-114,0 -207,93 -207,207 0,114 93,207 207,207 114,0 206,-93 206,-207 0,-114 -92,-207 -206,-207z"/>
  <polygon class="fil8" points="7023,25743 1916,25743 1916,28748 7023,28748 "/>
  <path class="fil2" d="M1873 28805c-18,-13 -29,-34 -29,-57l0 -3005c0,-40 32,-72 72,-72l5107 0c40,0 72,32 72,72l0 3005c0,23 -11,44 -28,57l-5194 0zm116 -129l4962 0 0 -2861 -4962 0 0 2861z"/>
  <polygon class="fil9" points="6446,25376 4796,25376 4796,24688 6446,24688 "/>
  <path class="fil2" d="M6446 25448l-1650 0c-40,0 -72,-32 -72,-72l0 -688c0,-40 32,-72 72,-72l1650 0c40,0 73,32 73,72l0 688c0,40 -33,72 -73,72zm-1578 -144l1506 0 0 -544 -1506 0 0 544z"/>
  <path class="fil2" d="M4960 21990c0,-174 -219,-315 -490,-315 -271,0 -491,141 -491,315l981 0z"/>
  <path class="fil2" d="M4960 22050l-981 0c-33,0 -60,-27 -60,-60 0,-210 242,-375 551,-375 309,0 551,165 551,375 0,33 -27,60 -61,60zm-907 -121l834 0c-47,-109 -219,-193 -417,-193 -198,0 -370,84 -417,193z"/>
  <path class="fil2" d="M5438 19558c0,0 -1135,512 -2482,688 0,0 670,-1574 2441,-717l41 29z"/>
  <path class="fil2" d="M2956 20322c-22,0 -46,-12 -60,-31 -17,-21 -19,-50 -9,-74 11,-28 290,-668 964,-920 463,-174 995,-119 1579,165 11,5 20,13 28,24 20,5 39,20 48,40 18,38 0,84 -38,100 -11,5 -1159,520 -2502,695l-10 1zm1451 -973c-178,0 -345,29 -504,89 -440,165 -700,522 -812,713 985,-148 1842,-468 2170,-601 -302,-134 -588,-201 -854,-201z"/>
  <polygon class="fil10" points="6164,19932 2783,19932 2783,19488 6164,19488 "/>
  <path class="fil2" d="M6164 20007l-3381 0c-41,0 -76,-34 -76,-75l0 -444c0,-42 35,-76 76,-76l3381 0c41,0 76,34 76,76l0 444c0,41 -35,75 -76,75zm-3305 -151l3230 0 0 -293 -3230 0 0 293z"/>
  <polygon class="fil10" points="5676,18437 3249,18437 3249,19488 5676,19488 "/>
  <path class="fil2" d="M5676 19563l-2427 0c-43,0 -76,-33 -76,-75l0 -1051c0,-42 33,-75 76,-75l2427 0c41,0 76,33 76,75l0 1051c0,42 -35,75 -76,75zm-2351 -151l2276 0 0 -899 -2276 0 0 899z"/>
  <polygon class="fil2" points="5676,19098 3249,19098 3249,19503 5676,19503 "/>
  <path class="fil2" d="M5676 19579l-2427 0c-43,0 -76,-34 -76,-76l0 -405c0,-41 33,-75 76,-75l2427 0c41,0 76,34 76,75l0 405c0,42 -35,76 -76,76zm-2351 -151l2276 0 0 -255 -2276 0 0 255z"/>
 </g>
</svg>
