<?xml version="1.0" encoding="UTF-8"?>
<!DOCTYPE svg PUBLIC "-//W3C//DTD SVG 1.1//EN" "http://www.w3.org/Graphics/SVG/1.1/DTD/svg11.dtd">
<!-- Creator: CorelDRAW X7 -->
<svg xmlns="http://www.w3.org/2000/svg" xml:space="preserve" width="190.5mm" height="338.667mm" version="1.1" style="shape-rendering:geometricPrecision; text-rendering:geometricPrecision; image-rendering:optimizeQuality; fill-rule:evenodd; clip-rule:evenodd"
viewBox="0 0 19050 33867"
 xmlns:xlink="http://www.w3.org/1999/xlink">
 <defs>
  <style type="text/css">
   <![CDATA[
    .fil13 {fill:#2B2A29;fill-rule:nonzero}
    .fil5 {fill:#006A5E;fill-rule:nonzero}
    .fil3 {fill:#4E3E37;fill-rule:nonzero}
    .fil2 {fill:#541124;fill-rule:nonzero}
    .fil0 {fill:#61C5C3;fill-rule:nonzero}
    .fil11 {fill:#AC98BA;fill-rule:nonzero}
    .fil7 {fill:#BEC2AF;fill-rule:nonzero}
    .fil1 {fill:#C7DD9F;fill-rule:nonzero}
    .fil8 {fill:#D3642B;fill-rule:nonzero}
    .fil10 {fill:#DEA518;fill-rule:nonzero}
    .fil6 {fill:#E2E7C6;fill-rule:nonzero}
    .fil4 {fill:#FFF9D9;fill-rule:nonzero}
    .fil9 {fill:#FFFBDA;fill-rule:nonzero}
    .fil12 {fill:white;fill-rule:nonzero}
   ]]>
  </style>
 </defs>
 <g id="Capa_x0020_1">
  <metadata id="CorelCorpID_0Corel-Layer"/>
  <polygon class="fil0" points="0,33867 19050,33867 19050,0 0,0 "/>
  <path class="fil1" d="M4499 19686c0,149 -121,270 -270,270 -149,0 -270,-121 -270,-270 0,-149 121,-270 270,-270 149,0 270,121 270,270z"/>
  <path class="fil2" d="M4229 20028c-189,0 -342,-153 -342,-342 0,-189 153,-343 342,-343 189,0 342,154 342,343 0,189 -153,342 -342,342zm0 -540c-109,0 -198,89 -198,198 0,109 89,198 198,198 109,0 198,-89 198,-198 0,-109 -89,-198 -198,-198z"/>
  <path class="fil1" d="M3648 21148c0,149 -121,270 -271,270 -149,0 -270,-121 -270,-270 0,-149 121,-270 270,-270 150,0 271,121 271,270z"/>
  <path class="fil2" d="M3377 21490c-188,0 -342,-153 -342,-342 0,-189 154,-342 342,-342 189,0 343,153 343,342 0,189 -154,342 -343,342zm0 -540c-109,0 -198,89 -198,198 0,109 89,198 198,198 110,0 198,-89 198,-198 0,-109 -88,-198 -198,-198z"/>
  <polygon class="fil2" points="3999,24759 3424,24759 3424,21567 3999,21567 "/>
  <path class="fil2" d="M3999 24831l-575 0c-40,0 -72,-32 -72,-72l0 -3192c0,-40 32,-72 72,-72l575 0c39,0 72,32 72,72l0 3192c0,40 -33,72 -72,72zm-503 -144l430 0 0 -3048 -430 0 0 3048z"/>
  <polygon class="fil2" points="6041,24759 5467,24759 5467,21567 6041,21567 "/>
  <path class="fil2" d="M6041 24831l-574 0c-40,0 -72,-32 -72,-72l0 -3192c0,-40 32,-72 72,-72l574 0c40,0 72,32 72,72l0 3192c0,40 -32,72 -72,72zm-502 -144l430 0 0 -3048 -430 0 0 3048z"/>
  <polygon class="fil3" points="7766,28749 1131,28749 1131,24687 7766,24687 "/>
  <path class="fil2" d="M1087 28807c-17,-14 -28,-34 -28,-58l0 -4062c0,-40 32,-72 72,-72l6635 0c40,0 72,32 72,72l0 4062c0,24 -11,44 -28,58l-6723 0zm116 -130l6491 0 0 -3918 -6491 0 0 3918z"/>
  <path class="fil4" d="M5717 23724c0,-352 286,-637 638,-637 351,0 637,285 637,637 0,520 421,942 941,942 521,0 942,-422 942,-942l1274 0c0,1224 -992,2216 -2216,2216 -1224,0 -2216,-992 -2216,-2216z"/>
  <path class="fil2" d="M7933 26012c-1261,0 -2288,-1026 -2288,-2288 0,-391 318,-709 709,-709 392,0 710,318 710,709 0,480 390,870 869,870 480,0 870,-390 870,-870 0,-40 32,-72 72,-72l1274 0c40,0 73,32 73,72 0,1262 -1027,2288 -2289,2288zm-1579 -2853c-311,0 -564,253 -564,565 0,1182 961,2144 2143,2144 1158,0 2105,-923 2143,-2072l-1131 0c-37,526 -477,942 -1012,942 -559,0 -1014,-455 -1014,-1014 0,-312 -253,-565 -565,-565z"/>
  <path class="fil4" d="M9519 23724c395,0 715,-320 715,-716 0,-395 -320,-715 -715,-715 -396,0 -716,320 -716,715 0,396 320,716 716,716z"/>
  <path class="fil2" d="M9519 23796c-435,0 -788,-353 -788,-788 0,-434 353,-787 788,-787 434,0 787,353 787,787 0,435 -353,788 -787,788zm0 -1431c-355,0 -643,289 -643,643 0,355 288,644 643,644 354,0 643,-289 643,-644 0,-354 -289,-643 -643,-643z"/>
  <polygon class="fil5" points="2618,28807 2618,27900 3866,27900 3866,28807 "/>
  <path class="fil2" d="M2546 28807l0 -907c0,-39 33,-72 72,-72l1248 0c39,0 72,33 72,72l0 907 -145 0 0 -834 -1102 0 0 834 -145 0z"/>
  <polygon class="fil5" points="5249,28807 5249,27900 6496,27900 6496,28807 "/>
  <path class="fil2" d="M5176 28807l0 -907c0,-39 33,-72 73,-72l1247 0c39,0 72,33 72,72l0 907 -145 0 0 -834 -1102 0 0 834 -145 0z"/>
  <path class="fil6" d="M4470 21983c-1410,0 -2554,572 -2554,1277l0 5489 5107 0 0 -5489c0,-705 -1143,-1277 -2553,-1277z"/>
  <path class="fil2" d="M1873 28807c-18,-14 -29,-34 -29,-58l0 -5489c0,-757 1153,-1349 2626,-1349 1472,0 2625,592 2625,1349l0 5489c0,24 -11,44 -28,58l-5194 0zm116 -130l4962 0 0 -5417c0,-664 -1113,-1205 -2481,-1205 -1368,0 -2481,541 -2481,1205l0 5417z"/>
  <path class="fil3" d="M7766 24687l-6635 0c0,-1604 1485,-2904 3318,-2904 1832,0 3317,1300 3317,2904z"/>
  <path class="fil2" d="M7767 24759l-1 0 -6635 0c-40,0 -72,-32 -72,-72 0,-1641 1520,-2976 3390,-2976 1864,0 3382,1328 3389,2964 1,4 1,8 1,12 0,40 -32,72 -72,72zm-6563 -144l6489 0c-44,-1528 -1482,-2760 -3244,-2760 -1762,0 -3201,1232 -3245,2760z"/>
  <path class="fil7" d="M3217 22243c0,-692 561,-1253 1253,-1253 692,0 1252,561 1252,1253 0,692 -560,1253 -1252,1253 -692,0 -1253,-561 -1253,-1253z"/>
  <path class="fil2" d="M4470 23568c-731,0 -1325,-595 -1325,-1325 0,-731 594,-1325 1325,-1325 730,0 1325,594 1325,1325 0,730 -595,1325 -1325,1325zm0 -2506c-651,0 -1181,530 -1181,1181 0,651 530,1180 1181,1180 651,0 1180,-529 1180,-1180 0,-651 -529,-1181 -1180,-1181z"/>
  <polygon class="fil5" points="3217,21906 4273,24173 1916,22660 "/>
  <path class="fil2" d="M4273 24245c-14,0 -27,-4 -39,-11l-2357 -1513c-21,-14 -33,-37 -33,-63 1,-25 15,-48 36,-60l1301 -754c17,-10 38,-13 58,-7 19,6 35,20 43,39l1052 2257c7,11 12,25 12,40 0,40 -32,72 -72,72l-1 0zm-2218 -1582l2047 1315 -917 -1970 -1130 655z"/>
  <polygon class="fil5" points="5595,21906 4539,24173 6896,22660 "/>
  <path class="fil2" d="M4539 24245c-17,0 -34,-6 -47,-18 -24,-21 -32,-55 -18,-85l1056 -2266c8,-19 24,-33 43,-39 20,-6 41,-3 58,7l1301 754c22,12 35,35 36,60 0,26 -12,49 -33,63l-2357 1513c-12,7 -25,11 -39,11zm1088 -2237l-917 1970 2047 -1315 -1130 -655z"/>
  <path class="fil4" d="M6158 21072c0,933 -756,1689 -1688,1689 -933,0 -1689,-756 -1689,-1689 0,-932 756,-1688 1689,-1688 932,0 1688,756 1688,1688z"/>
  <path class="fil2" d="M4470 22833c-971,0 -1761,-790 -1761,-1761 0,-971 790,-1761 1761,-1761 970,0 1760,790 1760,1761 0,971 -790,1761 -1760,1761zm0 -3377c-892,0 -1617,725 -1617,1616 0,891 725,1617 1617,1617 891,0 1616,-726 1616,-1617 0,-891 -725,-1616 -1616,-1616z"/>
  <path class="fil7" d="M4470 20925c-132,0 -239,107 -239,239l0 208c0,132 107,239 239,239 131,0 238,-107 238,-239l0 -208c0,-132 -107,-239 -238,-239z"/>
  <path class="fil2" d="M4470 21683c-172,0 -311,-140 -311,-311l0 -208c0,-171 139,-311 311,-311 39,0 72,32 72,72 0,40 -33,72 -72,72 -92,0 -167,75 -167,167l0 208c0,92 75,166 167,166 91,0 166,-74 166,-166 0,-40 32,-72 72,-72 40,0 73,32 73,72 0,171 -140,311 -311,311z"/>
  <path class="fil2" d="M3732 20843c0,72 -58,131 -131,131 -73,0 -132,-59 -132,-131 0,-73 59,-132 132,-132 73,0 131,59 131,132z"/>
  <path class="fil2" d="M5369 20843c0,72 -59,131 -131,131 -73,0 -132,-59 -132,-131 0,-73 59,-132 132,-132 72,0 131,59 131,132z"/>
  <path class="fil2" d="M4470 22341c-266,0 -482,-215 -482,-481 0,-40 32,-72 72,-72 40,0 73,32 73,72 0,186 151,337 337,337 186,0 337,-151 337,-337 0,-40 32,-72 72,-72 40,0 72,32 72,72 0,266 -216,481 -481,481z"/>
  <path class="fil5" d="M4728 24194c0,154 -125,279 -279,279 -154,0 -279,-125 -279,-279 0,-154 125,-279 279,-279 154,0 279,125 279,279z"/>
  <path class="fil2" d="M4449 24545c-194,0 -351,-157 -351,-351 0,-193 157,-351 351,-351 193,0 351,158 351,351 0,194 -158,351 -351,351zm0 -557c-114,0 -207,92 -207,206 0,114 93,207 207,207 114,0 206,-93 206,-207 0,-114 -92,-206 -206,-206z"/>
  <polygon class="fil8" points="7023,25744 1916,25744 1916,28749 7023,28749 "/>
  <path class="fil2" d="M1873 28807c-18,-14 -29,-34 -29,-58l0 -3005c0,-40 32,-72 72,-72l5107 0c40,0 72,32 72,72l0 3005c0,24 -11,44 -28,58l-5194 0zm116 -130l4962 0 0 -2861 -4962 0 0 2861z"/>
  <polygon class="fil9" points="6446,25377 4796,25377 4796,24689 6446,24689 "/>
  <path class="fil2" d="M6446 25450l-1650 0c-40,0 -72,-33 -72,-73l0 -688c0,-40 32,-72 72,-72l1650 0c40,0 73,32 73,72l0 688c0,40 -33,73 -73,73zm-1578 -145l1506 0 0 -544 -1506 0 0 544z"/>
  <path class="fil2" d="M4960 21991c0,-173 -219,-314 -490,-314 -271,0 -491,141 -491,314l981 0z"/>
  <path class="fil2" d="M4960 22052l-981 0c-33,0 -60,-27 -60,-61 0,-210 242,-375 551,-375 309,0 551,165 551,375 0,34 -28,61 -61,61zm-907 -121l834 0c-47,-110 -219,-194 -417,-194 -198,0 -370,84 -417,194z"/>
  <path class="fil2" d="M5438 19559c0,0 -1135,512 -2482,688 0,0 670,-1574 2441,-716l41 28z"/>
  <path class="fil2" d="M2956 20323c-22,0 -46,-12 -60,-31 -17,-21 -19,-49 -9,-74 11,-28 290,-667 964,-920 463,-173 995,-119 1579,165 11,5 20,13 28,24 20,6 39,20 48,41 18,38 0,83 -38,100 -11,5 -1159,519 -2502,695l-10 0zm1451 -973c-178,0 -345,30 -504,90 -440,164 -700,522 -812,712 985,-147 1842,-467 2170,-601 -302,-134 -588,-201 -854,-201z"/>
  <polygon class="fil10" points="6164,19933 2783,19933 2783,19489 6164,19489 "/>
  <path class="fil2" d="M6164 20009l-3381 0c-41,0 -76,-34 -76,-76l0 -444c0,-42 35,-75 76,-75l3381 0c41,0 76,33 76,75l0 444c0,42 -35,76 -76,76zm-3305 -152l3230 0 0 -292 -3230 0 0 292z"/>
  <polygon class="fil10" points="5676,18439 3249,18439 3249,19489 5676,19489 "/>
  <path class="fil2" d="M5676 19565l-2427 0c-43,0 -76,-34 -76,-76l0 -1050c0,-43 33,-76 76,-76l2427 0c41,0 76,33 76,76l0 1050c0,42 -35,76 -76,76zm-2351 -151l2276 0 0 -900 -2276 0 0 900z"/>
  <polygon class="fil2" points="5676,19099 3249,19099 3249,19504 5676,19504 "/>
  <path class="fil2" d="M5676 19580l-2427 0c-43,0 -76,-34 -76,-76l0 -405c0,-41 33,-75 76,-75l2427 0c41,0 76,34 76,75l0 405c0,42 -35,76 -76,76zm-2351 -150l2276 0 0 -255 -2276 0 0 255z"/>
  <path class="fil11" d="M2197 9823c0,-4711 3819,-8529 8529,-8529 4055,0 7448,2829 8315,6621l0 3816c-867,3792 -4260,6621 -8315,6621 -4710,0 -8529,-3819 -8529,-8529z"/>
  <path class="fil12" d="M19041 12958c-1353,2953 -4333,5004 -7793,5004 -4732,0 -8568,-3836 -8568,-8568 0,-4731 3836,-8567 8568,-8567 3460,0 6440,2051 7793,5003l0 7128z"/>
  <path class="fil12" d="M8290 16693c0,0 125,1622 -800,2244 -109,73 -162,128 -172,166l483 0c729,-196 2073,-846 2533,-1877l-2044 -533z"/>
  <polygon class="fil13" points="5427,7071 5427,6390 5508,6390 5508,6994 5766,6994 5766,7071 "/>
  <path id="1" class="fil13" d="M6163 6862c0,-48 -13,-86 -39,-116 -26,-29 -61,-44 -103,-44 -43,0 -78,14 -102,41 -25,27 -37,65 -37,113 0,51 13,91 37,119 25,28 60,42 105,42 43,0 78,-14 102,-41 25,-27 37,-65 37,-114zm71 -217l0 426 -71 0 0 -77c-17,31 -39,55 -65,71 -27,16 -56,24 -89,24 -61,0 -111,-21 -148,-63 -37,-42 -56,-98 -56,-167 0,-70 18,-125 54,-167 37,-41 85,-62 146,-62 36,0 67,8 93,24 26,16 47,40 63,72l0 -81 73 0z"/>
  <path id="2" class="fil13" d="M6668 7071l0 -681 160 0c45,0 79,3 100,8 21,5 40,14 56,26 20,16 36,37 47,63 11,27 17,56 17,89 0,55 -16,98 -47,127 -31,29 -77,43 -137,43l-14 0 260 325 -103 0 -249 -325 -11 0 0 325 -79 0zm79 -612l0 227 62 0c63,0 105,-8 127,-24 21,-16 32,-45 32,-85 0,-44 -11,-75 -33,-92 -22,-18 -64,-26 -126,-26l-62 0z"/>
  <path id="3" class="fil13" d="M7178 7071l0 -681 160 0c45,0 79,3 100,8 21,5 40,14 56,26 20,16 36,37 47,63 11,27 17,56 17,89 0,55 -16,98 -47,127 -31,29 -77,43 -137,43l-14 0 260 325 -103 0 -249 -325 -11 0 0 325 -79 0zm79 -612l0 227 61 0c64,0 106,-8 128,-24 21,-16 32,-45 32,-85 0,-44 -11,-75 -33,-92 -22,-18 -65,-26 -127,-26l-61 0z"/>
  <polygon id="4" class="fil13" points="7688,7071 7688,6390 7769,6390 7769,7071 "/>
  <path id="5" class="fil13" d="M8162 6999l63 -41c11,22 26,39 44,50 18,12 40,17 64,17 24,0 43,-6 58,-17 15,-12 22,-28 22,-47 0,-15 -5,-27 -15,-37 -10,-10 -28,-19 -52,-27l-12 -5c-104,-35 -155,-80 -155,-134 0,-37 14,-68 41,-92 28,-24 65,-36 109,-36 37,0 69,7 95,22 26,15 45,36 57,63l-59 36c-9,-20 -22,-35 -39,-45 -17,-11 -36,-16 -58,-16 -22,0 -39,6 -53,18 -13,12 -20,27 -20,46 0,26 28,48 85,65 10,4 19,6 25,8 46,15 78,32 96,51 18,19 27,44 27,76 0,40 -14,73 -43,98 -28,25 -66,37 -112,37 -40,0 -73,-7 -101,-22 -28,-15 -50,-38 -67,-68z"/>
  <path id="6" class="fil13" d="M8582 6440c0,-14 5,-27 15,-37 11,-11 23,-16 38,-16 15,0 27,5 38,16 10,11 15,23 15,38 0,15 -5,27 -15,37 -10,11 -23,16 -38,16 -15,0 -27,-5 -38,-16 -10,-10 -15,-23 -15,-38zm17 631l0 -426 73 0 0 426 -73 0z"/>
  <path id="7" class="fil13" d="M9128 6810c-3,-37 -15,-66 -38,-87 -22,-20 -53,-30 -92,-30 -35,0 -65,11 -88,32 -24,21 -38,49 -41,85l259 0zm78 59l-337 0 0 7c0,45 13,82 39,110 26,28 60,42 102,42 28,0 54,-7 77,-23 23,-15 43,-38 61,-69l55 37c-21,38 -49,67 -82,87 -33,19 -71,29 -115,29 -65,0 -117,-21 -157,-64 -40,-43 -60,-99 -60,-168 0,-67 19,-122 59,-164 40,-43 91,-64 153,-64 63,0 113,20 150,61 36,40 55,95 55,165l0 14z"/>
  <path id="8" class="fil13" d="M9315 7071l0 -426 72 0 0 66c18,-27 40,-48 66,-61 26,-13 56,-20 89,-20 51,0 90,13 118,40 28,27 42,64 42,111l0 290 -74 0 0 -251c0,-43 -9,-75 -27,-96 -18,-21 -46,-31 -84,-31 -22,0 -42,4 -60,12 -17,8 -32,19 -44,33 -9,12 -15,24 -19,39 -4,14 -6,39 -6,74l0 220 -73 0z"/>
  <polygon id="9" class="fil13" points="9858,6705 9780,6705 9780,6645 9858,6645 9858,6474 9932,6474 9932,6645 10010,6645 10010,6705 9932,6705 9932,7071 9858,7071 "/>
  <path id="10" class="fil13" d="M10418 6862c0,-48 -13,-86 -39,-116 -26,-29 -60,-44 -102,-44 -44,0 -78,14 -103,41 -24,27 -37,65 -37,113 0,51 13,91 37,119 25,28 60,42 105,42 44,0 78,-14 102,-41 25,-27 37,-65 37,-114zm71 -217l0 426 -71 0 0 -77c-17,31 -38,55 -65,71 -26,16 -56,24 -89,24 -61,0 -110,-21 -148,-63 -37,-42 -56,-98 -56,-167 0,-70 18,-125 55,-167 36,-41 85,-62 145,-62 36,0 67,8 93,24 26,16 48,40 64,72l0 -81 72 0z"/>
  <polygon id="11" class="fil13" points="10919,7071 10919,6350 10994,6350 10994,7071 "/>
  <path id="12" class="fil13" d="M11472 6862c0,-48 -13,-86 -39,-116 -27,-29 -61,-44 -103,-44 -44,0 -78,14 -102,41 -25,27 -37,65 -37,113 0,51 12,91 37,119 25,28 60,42 105,42 43,0 77,-14 102,-41 25,-27 37,-65 37,-114zm70 -217l0 426 -70 0 0 -77c-17,31 -39,55 -65,71 -27,16 -57,24 -90,24 -60,0 -110,-21 -147,-63 -37,-42 -56,-98 -56,-167 0,-70 18,-125 54,-167 36,-41 85,-62 146,-62 35,0 66,8 93,24 26,16 47,40 63,72l0 -81 72 0z"/>
  <path id="13" class="fil13" d="M11643 6999l62 -41c12,22 27,39 45,50 18,12 39,17 64,17 24,0 43,-6 58,-17 14,-12 22,-28 22,-47 0,-15 -5,-27 -15,-37 -11,-10 -28,-19 -52,-27l-12 -5c-104,-35 -156,-80 -156,-134 0,-37 14,-68 42,-92 28,-24 64,-36 109,-36 37,0 69,7 95,22 26,15 45,36 57,63l-59 36c-9,-20 -22,-35 -39,-45 -17,-11 -36,-16 -59,-16 -21,0 -39,6 -52,18 -14,12 -20,27 -20,46 0,26 28,48 84,65 11,4 19,6 26,8 46,15 78,32 96,51 18,19 27,44 27,76 0,40 -14,73 -43,98 -28,25 -66,37 -112,37 -40,0 -73,-7 -101,-22 -28,-15 -50,-38 -67,-68z"/>
  <path id="14" class="fil13" d="M12426 6861c0,49 13,88 39,116 25,28 60,42 104,42 44,0 78,-15 102,-45 25,-29 37,-70 37,-123 0,-46 -12,-83 -36,-109 -24,-26 -58,-40 -100,-40 -44,0 -79,15 -106,44 -26,29 -40,67 -40,115zm-69 -511l72 0 0 376c17,-32 38,-56 64,-72 26,-16 57,-24 91,-24 62,0 110,21 147,62 36,42 54,98 54,167 0,69 -18,125 -55,167 -38,42 -87,63 -148,63 -33,0 -63,-8 -90,-25 -27,-16 -49,-40 -66,-70l0 77 -69 0 0 -721z"/>
  <path id="15" class="fil13" d="M13227 6862c0,-48 -13,-86 -39,-116 -26,-29 -60,-44 -103,-44 -43,0 -77,14 -102,41 -25,27 -37,65 -37,113 0,51 13,91 37,119 25,28 60,42 105,42 44,0 78,-14 102,-41 25,-27 37,-65 37,-114zm71 -217l0 426 -71 0 0 -77c-17,31 -39,55 -65,71 -27,16 -56,24 -89,24 -61,0 -111,-21 -148,-63 -37,-42 -56,-98 -56,-167 0,-70 18,-125 55,-167 36,-41 84,-62 145,-62 36,0 67,8 93,24 26,16 47,40 63,72l0 -81 73 0z"/>
  <path id="16" class="fil13" d="M13398 6999l63 -41c12,22 26,39 44,50 18,12 40,17 64,17 24,0 43,-6 58,-17 15,-12 22,-28 22,-47 0,-15 -5,-27 -15,-37 -10,-10 -28,-19 -52,-27l-12 -5c-104,-35 -155,-80 -155,-134 0,-37 14,-68 41,-92 28,-24 65,-36 109,-36 37,0 69,7 95,22 27,15 45,36 57,63l-59 36c-9,-20 -22,-35 -38,-45 -17,-11 -37,-16 -59,-16 -22,0 -39,6 -53,18 -13,12 -20,27 -20,46 0,26 28,48 85,65 10,4 19,6 25,8 46,15 78,32 96,51 18,19 27,44 27,76 0,40 -14,73 -43,98 -28,25 -66,37 -112,37 -40,0 -73,-7 -101,-22 -28,-15 -50,-38 -67,-68z"/>
  <path id="17" class="fil13" d="M14133 6810c-2,-37 -15,-66 -37,-87 -23,-20 -54,-30 -93,-30 -35,0 -65,11 -88,32 -24,21 -37,49 -41,85l259 0zm78 59l-337 0 0 7c0,45 13,82 39,110 26,28 60,42 102,42 28,0 54,-7 77,-23 23,-15 43,-38 61,-69l55 37c-21,38 -48,67 -81,87 -34,19 -72,29 -116,29 -65,0 -117,-21 -157,-64 -40,-43 -60,-99 -60,-168 0,-67 20,-122 60,-164 39,-43 90,-64 153,-64 62,0 112,20 149,61 37,40 55,95 55,165l0 14z"/>
  <path id="18" class="fil13" d="M14276 6999l62 -41c12,22 27,39 45,50 18,12 39,17 64,17 23,0 43,-6 58,-17 14,-12 22,-28 22,-47 0,-15 -5,-27 -15,-37 -11,-10 -28,-19 -52,-27l-12 -5c-104,-35 -156,-80 -156,-134 0,-37 14,-68 42,-92 28,-24 64,-36 109,-36 37,0 68,7 95,22 26,15 45,36 56,63l-58 36c-9,-20 -22,-35 -39,-45 -17,-11 -36,-16 -59,-16 -21,0 -39,6 -52,18 -14,12 -20,27 -20,46 0,26 28,48 84,65 11,4 19,6 25,8 47,15 79,32 97,51 18,19 27,44 27,76 0,40 -14,73 -43,98 -29,25 -66,37 -112,37 -40,0 -74,-7 -101,-22 -28,-15 -50,-38 -67,-68z"/>
  <path id="19" class="fil13" d="M15060 6860c0,47 13,86 40,115 26,28 61,43 104,43 43,0 76,-13 101,-40 24,-26 36,-63 36,-110 0,-52 -12,-93 -36,-123 -25,-30 -59,-44 -102,-44 -44,0 -79,14 -105,42 -25,28 -38,67 -38,117zm-70 419l0 -634 69 0 0 81c17,-31 38,-55 65,-71 27,-17 57,-25 91,-25 61,0 110,21 147,63 38,42 56,97 56,166 0,71 -18,127 -54,168 -37,42 -86,62 -147,62 -35,0 -65,-8 -91,-24 -26,-16 -47,-40 -64,-71l0 285 -72 0z"/>
  <path id="20" class="fil13" d="M15860 6862c0,-48 -13,-86 -39,-116 -26,-29 -61,-44 -103,-44 -43,0 -78,14 -102,41 -25,27 -37,65 -37,113 0,51 13,91 37,119 25,28 60,42 105,42 43,0 78,-14 102,-41 25,-27 37,-65 37,-114zm71 -217l0 426 -71 0 0 -77c-17,31 -39,55 -65,71 -27,16 -56,24 -89,24 -61,0 -111,-21 -148,-63 -37,-42 -56,-98 -56,-167 0,-70 18,-125 54,-167 37,-41 85,-62 146,-62 36,0 67,8 93,24 26,16 47,40 63,72l0 -81 73 0z"/>
  <path id="21" class="fil13" d="M16077 7071l0 -426 65 0 0 89c20,-37 40,-63 62,-79 23,-16 49,-24 81,-24 9,0 17,1 25,2 8,1 16,4 24,6l-24 66c-8,-3 -16,-5 -24,-6 -7,-1 -14,-2 -21,-2 -38,0 -67,14 -87,41 -19,28 -28,70 -28,126l0 207 -73 0z"/>
  <path id="22" class="fil13" d="M16736 6862c0,-48 -13,-86 -39,-116 -26,-29 -60,-44 -103,-44 -43,0 -77,14 -102,41 -25,27 -37,65 -37,113 0,51 13,91 37,119 25,28 60,42 105,42 44,0 78,-14 102,-41 25,-27 37,-65 37,-114zm71 -217l0 426 -71 0 0 -77c-17,31 -39,55 -65,71 -27,16 -56,24 -89,24 -61,0 -111,-21 -148,-63 -37,-42 -56,-98 -56,-167 0,-70 18,-125 55,-167 36,-41 84,-62 145,-62 36,0 67,8 93,24 26,16 47,40 63,72l0 -81 73 0z"/>
  <polygon id="23" class="fil13" points="5245,8213 5245,7492 5320,7492 5320,8213 "/>
  <path id="24" class="fil13" d="M5798 8004c0,-48 -13,-87 -39,-116 -27,-29 -61,-44 -103,-44 -44,0 -78,14 -102,41 -25,27 -37,64 -37,113 0,51 12,91 37,119 25,28 60,41 105,41 43,0 77,-13 102,-40 25,-27 37,-65 37,-114zm70 -217l0 426 -70 0 0 -77c-17,31 -39,54 -65,70 -27,17 -57,25 -90,25 -61,0 -110,-21 -147,-63 -38,-42 -56,-98 -56,-167 0,-70 18,-126 54,-167 36,-42 85,-62 146,-62 35,0 66,8 93,24 26,16 47,40 63,71l0 -80 72 0z"/>
  <polygon id="25" class="fil13" points="6306,7847 6228,7847 6228,7787 6306,7787 6306,7616 6381,7616 6381,7787 6459,7787 6459,7847 6381,7847 6381,8213 6306,8213 "/>
  <path id="26" class="fil13" d="M6542 8213l0 -426 65 0 0 89c20,-37 41,-64 63,-79 22,-16 49,-24 80,-24 9,0 17,0 25,2 8,1 17,3 25,6l-25 66c-8,-3 -16,-5 -23,-6 -8,-2 -15,-2 -22,-2 -38,0 -67,13 -86,41 -19,28 -29,70 -29,125l0 208 -73 0z"/>
  <path id="27" class="fil13" d="M7202 8004c0,-48 -14,-87 -40,-116 -26,-29 -60,-44 -102,-44 -44,0 -78,14 -103,41 -24,27 -36,64 -36,113 0,51 12,91 37,119 24,28 59,41 105,41 43,0 77,-13 102,-40 24,-27 37,-65 37,-114zm70 -217l0 426 -70 0 0 -77c-17,31 -39,54 -66,70 -26,17 -56,25 -89,25 -61,0 -110,-21 -148,-63 -37,-42 -56,-98 -56,-167 0,-70 19,-126 55,-167 36,-42 85,-62 145,-62 36,0 67,8 93,24 26,16 48,40 64,71l0 -80 72 0z"/>
  <path id="28" class="fil13" d="M7418 8213l0 -426 71 0 0 66c18,-28 40,-48 66,-61 26,-14 56,-20 89,-20 51,0 90,13 118,40 28,26 42,64 42,111l0 290 -74 0 0 -251c0,-43 -9,-75 -27,-96 -18,-21 -46,-31 -84,-31 -22,0 -42,4 -59,12 -18,7 -33,19 -45,33 -9,11 -15,24 -19,38 -4,15 -6,39 -6,75l0 220 -72 0z"/>
  <path id="29" class="fil13" d="M7903 8141l63 -42c12,23 26,40 44,51 18,11 40,17 64,17 24,0 43,-6 58,-18 15,-11 22,-27 22,-46 0,-15 -5,-27 -15,-37 -10,-10 -27,-19 -52,-28l-12 -4c-103,-35 -155,-80 -155,-134 0,-38 14,-69 42,-92 27,-24 64,-36 108,-36 37,0 69,7 95,22 27,15 45,35 57,62l-59 37c-9,-20 -22,-35 -38,-45 -17,-11 -37,-16 -59,-16 -22,0 -39,6 -53,18 -13,12 -20,27 -20,46 0,26 28,48 85,65 10,4 19,6 25,8 46,15 78,32 96,51 18,19 27,44 27,76 0,40 -14,72 -43,97 -28,25 -66,38 -112,38 -39,0 -73,-8 -101,-23 -28,-14 -50,-37 -67,-67z"/>
  <path id="30" class="fil13" d="M8355 8213l0 -366 -82 0 0 -60 82 0 0 -123c0,-71 9,-119 27,-144 18,-24 50,-37 96,-37 12,0 22,1 33,3 10,1 20,4 30,7l0 75c-9,-5 -19,-9 -28,-12 -10,-2 -19,-3 -29,-3 -21,0 -36,7 -44,20 -8,14 -12,47 -12,101l0 113 113 0 0 60 -111 0 0 366 -75 0z"/>
  <path id="31" class="fil13" d="M8654 8001c0,45 15,83 45,114 31,32 67,47 110,47 42,0 78,-15 108,-47 30,-31 45,-69 45,-114 0,-45 -15,-83 -45,-114 -30,-31 -66,-47 -108,-47 -43,0 -80,16 -110,47 -30,31 -45,69 -45,114zm-77 0c0,-31 6,-61 17,-89 12,-27 29,-52 51,-74 22,-21 47,-38 75,-49 27,-12 57,-17 89,-17 31,0 60,5 88,17 28,12 53,28 76,50 22,22 38,46 50,74 11,28 17,57 17,88 0,31 -6,60 -17,88 -12,27 -28,52 -50,73 -23,22 -48,39 -76,51 -29,12 -58,18 -88,18 -32,0 -61,-6 -89,-18 -28,-11 -53,-28 -75,-50 -22,-22 -39,-47 -51,-74 -11,-27 -17,-57 -17,-88z"/>
  <path id="32" class="fil13" d="M9154 8213l0 -426 65 0 0 89c20,-37 40,-64 63,-79 22,-16 48,-24 80,-24 9,0 17,0 25,2 8,1 16,3 24,6l-24 66c-8,-3 -16,-5 -24,-6 -7,-2 -14,-2 -21,-2 -38,0 -67,13 -87,41 -19,28 -28,70 -28,125l0 208 -73 0z"/>
  <path id="33" class="fil13" d="M10080 8213l0 -251c0,-43 -9,-75 -26,-96 -17,-21 -44,-31 -80,-31 -19,0 -37,4 -54,12 -17,7 -31,19 -42,33 -8,11 -14,24 -18,39 -4,15 -6,40 -6,74l0 220 -70 0 0 -251c0,-43 -9,-75 -26,-96 -18,-21 -44,-31 -80,-31 -20,0 -38,4 -55,12 -17,7 -31,19 -42,33 -8,11 -14,24 -18,38 -3,14 -5,39 -5,75l0 220 -70 0 0 -426 71 0 0 66c18,-28 39,-48 63,-61 25,-14 53,-20 85,-20 34,0 64,7 88,22 24,15 42,36 55,64 18,-29 40,-51 64,-65 26,-14 54,-21 87,-21 48,0 85,13 111,40 27,26 40,64 40,111l0 290 -72 0z"/>
  <path id="34" class="fil13" d="M10621 8004c0,-48 -13,-87 -39,-116 -26,-29 -60,-44 -103,-44 -43,0 -78,14 -102,41 -25,27 -37,64 -37,113 0,51 13,91 37,119 25,28 60,41 105,41 43,0 78,-13 102,-40 25,-27 37,-65 37,-114zm71 -217l0 426 -71 0 0 -77c-17,31 -39,54 -65,70 -27,17 -56,25 -89,25 -61,0 -111,-21 -148,-63 -37,-42 -56,-98 -56,-167 0,-70 18,-126 55,-167 36,-42 84,-62 145,-62 36,0 67,8 93,24 26,16 47,40 63,71l0 -80 73 0z"/>
  <path id="35" class="fil13" d="M11164 8112l0 85c-19,11 -41,20 -65,25 -24,6 -50,9 -78,9 -66,0 -118,-21 -159,-63 -40,-41 -60,-96 -60,-164 0,-68 21,-124 62,-167 42,-44 95,-65 160,-65 23,0 46,2 69,7 23,5 44,12 64,22l0 78c-19,-12 -38,-21 -58,-27 -20,-7 -40,-10 -61,-10 -47,0 -86,15 -115,45 -28,30 -43,70 -43,119 0,44 15,81 44,110 29,30 65,44 109,44 22,0 43,-4 64,-11 22,-8 44,-20 67,-37z"/>
  <path id="36" class="fil13" d="M11252 7582c0,-15 5,-27 15,-38 11,-10 23,-15 38,-15 15,0 27,5 38,16 10,10 15,23 15,38 0,14 -5,27 -15,37 -10,10 -23,16 -38,16 -15,0 -27,-6 -38,-16 -10,-10 -15,-23 -15,-38zm17 631l0 -426 73 0 0 426 -73 0z"/>
  <path id="37" class="fil13" d="M11539 8001c0,45 15,83 45,114 30,32 66,47 109,47 43,0 79,-15 109,-47 29,-31 44,-69 44,-114 0,-45 -15,-83 -44,-114 -30,-31 -66,-47 -109,-47 -43,0 -79,16 -109,47 -30,31 -45,69 -45,114zm-78 0c0,-31 6,-61 18,-89 11,-27 28,-52 50,-74 22,-21 47,-38 75,-49 28,-12 57,-17 89,-17 31,0 61,5 88,17 28,12 53,28 76,50 22,22 39,46 50,74 12,28 17,57 17,88 0,31 -5,60 -17,88 -11,27 -28,52 -50,73 -23,22 -48,39 -76,51 -28,12 -57,18 -88,18 -31,0 -61,-6 -89,-18 -28,-11 -53,-28 -75,-50 -22,-22 -39,-47 -50,-74 -12,-27 -18,-57 -18,-88zm165 -281l95 -162 94 0 -133 162 -56 0z"/>
  <path id="38" class="fil13" d="M12038 8213l0 -426 71 0 0 66c18,-28 40,-48 66,-61 26,-14 56,-20 89,-20 51,0 90,13 118,40 28,26 42,64 42,111l0 290 -74 0 0 -251c0,-43 -9,-75 -27,-96 -18,-21 -46,-31 -84,-31 -22,0 -42,4 -60,12 -17,7 -32,19 -44,33 -9,11 -15,24 -19,38 -4,15 -6,39 -6,75l0 220 -72 0z"/>
  <path id="39" class="fil13" d="M13151 7952c-2,-38 -15,-67 -37,-87 -23,-20 -53,-30 -93,-30 -35,0 -64,10 -88,32 -24,21 -37,49 -41,85l259 0zm78 59l-337 0 0 6c0,46 13,83 39,111 26,28 60,42 102,42 28,0 54,-8 77,-23 23,-15 44,-39 61,-69l55 37c-21,38 -48,67 -81,87 -33,19 -72,29 -116,29 -64,0 -117,-22 -157,-64 -40,-43 -60,-99 -60,-169 0,-66 20,-121 60,-164 39,-42 90,-63 153,-63 63,0 112,20 149,60 37,41 55,96 55,165l0 15z"/>
  <path id="40" class="fil13" d="M13294 8141l62 -42c12,23 27,40 45,51 18,11 39,17 64,17 24,0 43,-6 58,-18 14,-11 22,-27 22,-46 0,-15 -5,-27 -15,-37 -11,-10 -28,-19 -52,-28l-12 -4c-104,-35 -156,-80 -156,-134 0,-38 14,-69 42,-92 28,-24 64,-36 109,-36 37,0 68,7 95,22 26,15 45,35 57,62l-59 37c-9,-20 -22,-35 -39,-45 -17,-11 -36,-16 -59,-16 -21,0 -39,6 -52,18 -14,12 -20,27 -20,46 0,26 28,48 84,65 11,4 19,6 26,8 46,15 78,32 96,51 18,19 27,44 27,76 0,40 -14,72 -43,97 -28,25 -66,38 -112,38 -40,0 -73,-8 -101,-23 -28,-14 -50,-37 -67,-67z"/>
  <polygon id="41" class="fil13" points="13738,7847 13660,7847 13660,7787 13738,7787 13738,7616 13813,7616 13813,7787 13891,7787 13891,7847 13813,7847 13813,8213 13738,8213 "/>
  <path id="42" class="fil13" d="M13974 8213l0 -426 65 0 0 89c20,-37 41,-64 63,-79 22,-16 49,-24 80,-24 9,0 17,0 25,2 8,1 16,3 24,6l-24 66c-8,-3 -16,-5 -23,-6 -8,-2 -15,-2 -22,-2 -38,0 -67,13 -86,41 -20,28 -29,70 -29,125l0 208 -73 0z"/>
  <path id="43" class="fil13" d="M14376 7787l0 210c0,61 9,103 27,128 19,24 49,36 92,36 43,0 74,-12 92,-36 18,-24 26,-67 26,-128l0 -210 75 0 0 249c0,64 -17,112 -49,145 -33,33 -82,50 -146,50 -63,0 -111,-17 -144,-50 -33,-33 -49,-82 -49,-145l0 -249 76 0z"/>
  <path id="44" class="fil13" d="M15155 8112l0 85c-19,11 -41,20 -65,25 -24,6 -50,9 -78,9 -65,0 -118,-21 -158,-63 -41,-41 -61,-96 -61,-164 0,-68 21,-124 63,-167 41,-44 94,-65 159,-65 24,0 47,2 69,7 23,5 44,12 64,22l0 78c-19,-12 -38,-21 -58,-27 -20,-7 -40,-10 -60,-10 -48,0 -87,15 -115,45 -29,30 -44,70 -44,119 0,44 15,81 44,110 29,30 65,44 109,44 22,0 44,-4 65,-11 21,-8 43,-20 66,-37z"/>
  <polygon id="45" class="fil13" points="15268,7847 15190,7847 15190,7787 15268,7787 15268,7616 15342,7616 15342,7787 15420,7787 15420,7847 15342,7847 15342,8213 15268,8213 "/>
  <path id="46" class="fil13" d="M15572 7787l0 210c0,61 9,103 27,128 18,24 48,36 92,36 43,0 73,-12 91,-36 18,-24 27,-67 27,-128l0 -210 74 0 0 249c0,64 -16,112 -49,145 -33,33 -82,50 -145,50 -64,0 -112,-17 -144,-50 -33,-33 -50,-82 -50,-145l0 -249 77 0z"/>
  <path id="47" class="fil13" d="M16025 8213l0 -426 65 0 0 89c19,-37 40,-64 62,-79 22,-16 49,-24 81,-24 8,0 17,0 25,2 8,1 16,3 24,6l-24 66c-9,-3 -17,-5 -24,-6 -7,-2 -15,-2 -21,-2 -39,0 -68,13 -87,41 -19,28 -29,70 -29,125l0 208 -72 0z"/>
  <path id="48" class="fil13" d="M16684 8004c0,-48 -13,-87 -40,-116 -26,-29 -60,-44 -102,-44 -44,0 -78,14 -102,41 -25,27 -37,64 -37,113 0,51 12,91 37,119 24,28 60,41 105,41 43,0 77,-13 102,-40 24,-27 37,-65 37,-114zm70 -217l0 426 -70 0 0 -77c-17,31 -39,54 -66,70 -26,17 -56,25 -89,25 -61,0 -110,-21 -147,-63 -38,-42 -56,-98 -56,-167 0,-70 18,-126 54,-167 36,-42 85,-62 146,-62 35,0 66,8 92,24 27,16 48,40 64,71l0 -80 72 0z"/>
  <polygon id="49" class="fil13" points="16904,8213 16904,7492 16978,7492 16978,8213 "/>
  <path id="50" class="fil13" d="M4168 9144c0,-47 -13,-86 -40,-115 -26,-29 -61,-43 -104,-43 -43,0 -77,13 -101,39 -24,27 -36,63 -36,110 0,52 12,93 37,123 24,29 58,44 101,44 45,0 80,-14 105,-42 25,-28 38,-66 38,-116zm70 -511l0 722 -70 0 0 -77c-17,30 -38,54 -65,70 -27,16 -57,25 -90,25 -61,0 -110,-21 -147,-63 -37,-42 -56,-98 -56,-167 0,-70 18,-126 55,-167 36,-42 85,-63 146,-63 35,0 66,8 92,24 26,17 47,40 63,72l0 -376 72 0z"/>
  <path id="51" class="fil13" d="M4689 9094c-3,-38 -15,-67 -38,-87 -22,-20 -53,-31 -92,-31 -35,0 -65,11 -88,32 -24,21 -38,50 -41,86l259 0zm78 59l-337 0 0 6c0,46 13,82 39,111 26,28 60,42 102,42 28,0 54,-8 77,-23 23,-16 43,-39 61,-70l55 37c-21,39 -49,68 -82,87 -33,20 -71,30 -115,30 -65,0 -117,-22 -157,-65 -40,-42 -60,-99 -60,-168 0,-67 20,-121 59,-164 40,-42 91,-63 153,-63 63,0 113,20 150,60 37,40 55,95 55,165l0 15z"/>
  <polygon id="52" class="fil13" points="4880,9355 4880,8633 4955,8633 4955,9355 "/>
  <path id="53" class="fil13" d="M5715 9254l0 84c-19,12 -41,20 -65,26 -24,6 -50,9 -78,9 -66,0 -118,-21 -159,-63 -40,-42 -60,-96 -60,-164 0,-69 21,-124 62,-168 42,-43 95,-65 160,-65 23,0 46,3 69,8 23,5 44,12 64,22l0 78c-19,-12 -38,-21 -58,-27 -20,-7 -40,-10 -61,-10 -47,0 -86,15 -115,45 -28,30 -43,70 -43,119 0,44 15,80 44,110 29,29 65,44 109,44 22,0 43,-4 64,-12 22,-7 44,-20 67,-36z"/>
  <path id="54" class="fil13" d="M6142 9146c0,-48 -13,-87 -40,-116 -26,-30 -60,-44 -102,-44 -44,0 -78,13 -102,40 -25,27 -37,65 -37,113 0,52 12,92 37,119 24,28 60,42 105,42 43,0 77,-13 102,-40 24,-28 37,-66 37,-114zm70 -217l0 426 -70 0 0 -78c-17,31 -39,55 -66,71 -26,17 -56,25 -89,25 -61,0 -110,-21 -147,-63 -38,-42 -56,-98 -56,-167 0,-70 18,-126 54,-167 36,-42 85,-63 146,-63 35,0 66,8 92,24 27,17 48,40 64,72l0 -80 72 0z"/>
  <path id="55" class="fil13" d="M6950 9355l0 -251c0,-43 -8,-75 -26,-96 -17,-21 -44,-32 -80,-32 -19,0 -37,4 -54,12 -16,8 -30,19 -42,34 -8,11 -14,24 -18,39 -3,15 -5,39 -5,73l0 221 -71 0 0 -251c0,-43 -9,-75 -26,-96 -17,-21 -44,-32 -80,-32 -19,0 -38,4 -54,12 -17,8 -31,19 -43,34 -8,11 -14,23 -17,38 -4,14 -6,39 -6,74l0 221 -70 0 0 -426 71 0 0 65c18,-27 39,-47 64,-61 24,-13 52,-20 84,-20 35,0 64,8 88,23 24,14 42,36 55,64 18,-29 40,-51 65,-65 25,-14 54,-22 87,-22 47,0 84,14 111,41 26,26 40,63 40,111l0 290 -73 0z"/>
  <path id="56" class="fil13" d="M7236 9143c0,48 13,86 40,115 26,29 61,43 105,43 42,0 75,-13 100,-39 24,-27 36,-63 36,-110 0,-52 -12,-94 -36,-123 -25,-30 -59,-45 -102,-45 -44,0 -79,14 -105,42 -25,28 -38,67 -38,117zm-70 419l0 -633 69 0 0 80c17,-31 39,-54 65,-71 27,-16 58,-25 91,-25 61,0 110,21 148,63 37,42 55,98 55,167 0,70 -18,126 -54,168 -37,41 -85,62 -147,62 -34,0 -65,-8 -91,-24 -26,-16 -47,-40 -64,-71l0 284 -72 0z"/>
  <path id="57" class="fil13" d="M7753 9143c0,45 15,83 45,114 31,31 67,47 110,47 42,0 79,-16 108,-47 30,-31 45,-69 45,-114 0,-45 -15,-83 -45,-114 -29,-31 -66,-47 -108,-47 -43,0 -80,16 -110,47 -30,31 -45,69 -45,114zm-77 0c0,-32 6,-61 17,-89 12,-27 29,-52 51,-74 22,-22 47,-38 75,-50 27,-11 57,-17 89,-17 31,0 60,6 88,18 28,11 53,28 76,50 22,21 38,46 50,74 11,27 17,57 17,88 0,31 -6,60 -17,88 -12,27 -28,51 -50,73 -23,22 -48,39 -76,51 -29,12 -58,18 -88,18 -31,0 -61,-6 -89,-18 -28,-11 -53,-28 -75,-50 -22,-22 -39,-47 -51,-74 -11,-28 -17,-57 -17,-88z"/>
  <polygon id="58" class="fil13" points="8234,9490 8323,9236 8402,9264 8288,9511 "/>
  <path id="59" class="fil13" d="M9141 9254l0 84c-19,12 -41,20 -65,26 -24,6 -50,9 -78,9 -66,0 -119,-21 -159,-63 -40,-42 -60,-96 -60,-164 0,-69 21,-124 62,-168 42,-43 95,-65 160,-65 23,0 46,3 69,8 23,5 44,12 63,22l0 78c-18,-12 -37,-21 -57,-27 -20,-7 -40,-10 -61,-10 -47,0 -86,15 -115,45 -28,30 -43,70 -43,119 0,44 15,80 44,110 29,29 65,44 109,44 22,0 43,-4 64,-12 22,-7 44,-20 67,-36z"/>
  <path id="60" class="fil13" d="M9243 9355l0 -426 65 0 0 88c19,-37 40,-63 62,-79 22,-16 49,-24 81,-24 9,0 17,1 25,3 8,1 16,3 24,6l-24 66c-8,-3 -16,-5 -24,-7 -7,-1 -14,-2 -21,-2 -39,0 -67,14 -87,42 -19,28 -29,69 -29,125l0 208 -72 0z"/>
  <path id="61" class="fil13" d="M9878 9094c-2,-38 -15,-67 -37,-87 -23,-20 -53,-31 -92,-31 -36,0 -65,11 -89,32 -23,21 -37,50 -41,86l259 0zm78 59l-337 0 0 6c0,46 13,82 39,111 26,28 60,42 102,42 29,0 55,-8 77,-23 23,-16 44,-39 61,-70l56 37c-22,39 -49,68 -82,87 -33,20 -72,30 -116,30 -64,0 -117,-22 -157,-65 -40,-42 -60,-99 -60,-168 0,-67 20,-121 60,-164 39,-42 90,-63 153,-63 63,0 113,20 149,60 37,40 55,95 55,165l0 15z"/>
  <path id="62" class="fil13" d="M10392 9146c0,-48 -13,-87 -39,-116 -27,-30 -61,-44 -103,-44 -44,0 -78,13 -102,40 -25,27 -37,65 -37,113 0,52 12,92 37,119 25,28 60,42 105,42 43,0 77,-13 102,-40 25,-28 37,-66 37,-114zm70 -217l0 426 -70 0 0 -78c-17,31 -39,55 -66,71 -26,17 -56,25 -89,25 -61,0 -110,-21 -147,-63 -38,-42 -56,-98 -56,-167 0,-70 18,-126 54,-167 36,-42 85,-63 146,-63 35,0 66,8 92,24 27,17 48,40 64,72l0 -80 72 0z"/>
  <polygon id="63" class="fil13" points="10893,9355 10893,8633 10967,8633 10967,9355 "/>
  <path id="64" class="fil13" d="M11445 9146c0,-48 -13,-87 -39,-116 -26,-30 -60,-44 -103,-44 -43,0 -77,13 -102,40 -24,27 -37,65 -37,113 0,52 13,92 37,119 25,28 60,42 105,42 44,0 78,-13 102,-40 25,-28 37,-66 37,-114zm71 -217l0 426 -71 0 0 -78c-17,31 -39,55 -65,71 -27,17 -56,25 -89,25 -61,0 -110,-21 -148,-63 -37,-42 -56,-98 -56,-167 0,-70 18,-126 55,-167 36,-42 84,-63 145,-63 36,0 67,8 93,24 26,17 47,40 63,72l0 -80 73 0z"/>
  <path id="65" class="fil13" d="M11616 9283l63 -42c12,23 26,40 44,51 18,11 40,17 64,17 24,0 43,-6 58,-18 15,-12 22,-27 22,-46 0,-15 -5,-27 -15,-37 -10,-10 -27,-20 -52,-28l-12 -4c-103,-36 -155,-80 -155,-134 0,-38 14,-69 42,-93 28,-24 64,-36 108,-36 37,0 69,8 95,23 27,14 46,35 57,62l-59 36c-9,-19 -22,-34 -38,-45 -17,-10 -37,-15 -59,-15 -22,0 -39,6 -53,17 -13,12 -20,28 -20,46 0,26 28,48 85,66 10,3 19,6 25,8 46,15 78,32 96,51 18,19 28,44 28,75 0,41 -15,73 -43,98 -29,25 -67,38 -113,38 -39,0 -73,-8 -101,-23 -27,-15 -50,-37 -67,-67z"/>
  <path id="66" class="fil13" d="M12657 9254l0 84c-19,12 -41,20 -65,26 -24,6 -50,9 -78,9 -66,0 -119,-21 -159,-63 -40,-42 -60,-96 -60,-164 0,-69 21,-124 62,-168 42,-43 95,-65 160,-65 23,0 46,3 69,8 23,5 44,12 63,22l0 78c-18,-12 -37,-21 -57,-27 -20,-7 -40,-10 -61,-10 -47,0 -86,15 -115,45 -28,30 -43,70 -43,119 0,44 15,80 44,110 29,29 65,44 109,44 22,0 43,-4 64,-12 22,-7 44,-20 67,-36z"/>
  <path id="67" class="fil13" d="M12801 9143c0,45 15,83 45,114 30,31 67,47 109,47 43,0 79,-16 109,-47 30,-31 45,-69 45,-114 0,-45 -15,-83 -45,-114 -30,-31 -66,-47 -109,-47 -43,0 -79,16 -109,47 -30,31 -45,69 -45,114zm-77 0c0,-32 5,-61 17,-89 12,-27 28,-52 50,-74 22,-22 47,-38 75,-50 28,-11 58,-17 90,-17 31,0 60,6 88,18 27,11 53,28 75,50 22,21 39,46 51,74 11,27 17,57 17,88 0,31 -6,60 -17,88 -12,27 -29,51 -51,73 -22,22 -48,39 -76,51 -28,12 -57,18 -87,18 -32,0 -62,-6 -90,-18 -28,-11 -53,-28 -75,-50 -22,-22 -38,-47 -50,-74 -12,-28 -17,-57 -17,-88z"/>
  <path id="68" class="fil13" d="M13300 9355l0 -426 71 0 0 65c19,-27 41,-47 66,-61 26,-13 56,-20 90,-20 50,0 89,14 117,41 28,26 43,63 43,111l0 290 -75 0 0 -251c0,-43 -9,-75 -27,-96 -18,-21 -46,-32 -84,-32 -22,0 -41,4 -59,12 -18,8 -33,19 -45,34 -9,11 -15,24 -19,38 -4,14 -6,39 -6,74l0 221 -72 0z"/>
  <path id="69" class="fil13" d="M14156 9144c0,-47 -13,-86 -39,-115 -27,-29 -61,-43 -105,-43 -43,0 -76,13 -100,39 -25,27 -37,63 -37,110 0,52 13,93 37,123 25,29 58,44 101,44 45,0 80,-14 105,-42 26,-28 38,-66 38,-116zm71 -511l0 722 -71 0 0 -77c-17,30 -38,54 -65,70 -26,16 -56,25 -89,25 -61,0 -110,-21 -148,-63 -37,-42 -56,-98 -56,-167 0,-70 18,-126 55,-167 37,-42 85,-63 146,-63 35,0 66,8 92,24 26,17 47,40 63,72l0 -376 73 0z"/>
  <path id="70" class="fil13" d="M14362 8724c0,-15 5,-27 15,-38 11,-10 24,-15 39,-15 14,0 27,5 37,15 10,11 16,24 16,39 0,14 -5,27 -16,37 -10,10 -23,15 -37,15 -15,0 -28,-5 -39,-15 -10,-10 -15,-23 -15,-38zm17 631l0 -426 73 0 0 426 -73 0z"/>
  <path id="71" class="fil13" d="M14933 9254l0 84c-20,12 -41,20 -65,26 -24,6 -50,9 -78,9 -66,0 -119,-21 -159,-63 -40,-42 -60,-96 -60,-164 0,-69 20,-124 62,-168 42,-43 95,-65 160,-65 23,0 46,3 69,8 22,5 43,12 63,22l0 78c-18,-12 -38,-21 -57,-27 -20,-7 -40,-10 -61,-10 -48,0 -86,15 -115,45 -29,30 -43,70 -43,119 0,44 14,80 43,110 29,29 66,44 109,44 22,0 44,-4 65,-12 21,-7 43,-20 67,-36z"/>
  <path id="72" class="fil13" d="M15020 8724c0,-15 6,-27 16,-38 10,-10 23,-15 38,-15 14,0 27,5 38,15 10,11 15,24 15,39 0,14 -5,27 -15,37 -10,10 -23,15 -38,15 -15,0 -28,-5 -38,-15 -10,-10 -16,-23 -16,-38zm18 631l0 -426 73 0 0 426 -73 0z"/>
  <path id="73" class="fil13" d="M15307 9143c0,45 15,83 45,114 31,31 67,47 110,47 42,0 78,-16 108,-47 30,-31 45,-69 45,-114 0,-45 -15,-83 -45,-114 -30,-31 -66,-47 -108,-47 -43,0 -80,16 -110,47 -30,31 -45,69 -45,114zm-77 0c0,-32 6,-61 17,-89 12,-27 29,-52 51,-74 22,-22 47,-38 74,-50 28,-11 58,-17 90,-17 31,0 60,6 88,18 28,11 53,28 76,50 22,21 38,46 50,74 11,27 17,57 17,88 0,31 -6,60 -17,88 -12,27 -28,51 -50,73 -23,22 -48,39 -76,51 -29,12 -58,18 -88,18 -32,0 -61,-6 -89,-18 -28,-11 -53,-28 -75,-50 -22,-22 -39,-47 -51,-74 -11,-28 -17,-57 -17,-88z"/>
  <path id="74" class="fil13" d="M15806 9355l0 -426 72 0 0 65c18,-27 40,-47 66,-61 25,-13 55,-20 89,-20 50,0 89,14 118,41 28,26 42,63 42,111l0 290 -74 0 0 -251c0,-43 -9,-75 -28,-96 -18,-21 -46,-32 -84,-32 -21,0 -41,4 -59,12 -18,8 -32,19 -44,34 -9,11 -16,24 -20,38 -4,14 -5,39 -5,74l0 221 -73 0z"/>
  <path id="75" class="fil13" d="M16639 9094c-3,-38 -15,-67 -38,-87 -22,-20 -53,-31 -92,-31 -35,0 -65,11 -88,32 -24,21 -38,50 -41,86l259 0zm78 59l-337 0 0 6c0,46 13,82 39,111 26,28 60,42 102,42 28,0 54,-8 77,-23 23,-16 43,-39 61,-70l55 37c-21,39 -48,68 -82,87 -33,20 -71,30 -115,30 -65,0 -117,-22 -157,-65 -40,-42 -60,-99 -60,-168 0,-67 20,-121 59,-164 40,-42 91,-63 153,-63 63,0 113,20 150,60 37,40 55,95 55,165l0 15z"/>
  <path id="76" class="fil13" d="M16782 9283l62 -42c12,23 27,40 45,51 18,11 39,17 63,17 24,0 44,-6 58,-18 15,-12 22,-27 22,-46 0,-15 -5,-27 -15,-37 -10,-10 -27,-20 -52,-28l-12 -4c-103,-36 -155,-80 -155,-134 0,-38 14,-69 42,-93 28,-24 64,-36 109,-36 37,0 68,8 94,23 27,14 46,35 57,62l-59 36c-8,-19 -21,-34 -38,-45 -17,-10 -37,-15 -59,-15 -21,0 -39,6 -52,17 -14,12 -21,28 -21,46 0,26 29,48 85,66 11,3 19,6 25,8 46,15 79,32 97,51 18,19 27,44 27,75 0,41 -15,73 -43,98 -29,25 -66,38 -112,38 -40,0 -74,-8 -102,-23 -27,-15 -50,-37 -66,-67z"/>
  <path id="77" class="fil13" d="M17821 9144c0,-47 -13,-86 -39,-115 -27,-29 -61,-43 -105,-43 -43,0 -76,13 -100,39 -25,27 -37,63 -37,110 0,52 12,93 37,123 25,29 58,44 101,44 45,0 80,-14 105,-42 26,-28 38,-66 38,-116zm71 -511l0 722 -71 0 0 -77c-17,30 -38,54 -65,70 -27,16 -56,25 -89,25 -61,0 -111,-21 -148,-63 -37,-42 -56,-98 -56,-167 0,-70 18,-126 55,-167 37,-42 85,-63 146,-63 35,0 66,8 92,24 26,17 47,40 63,72l0 -376 73 0z"/>
  <path id="78" class="fil13" d="M18342 9094c-2,-38 -15,-67 -37,-87 -23,-20 -54,-31 -93,-31 -35,0 -65,11 -88,32 -24,21 -37,50 -41,86l259 0zm78 59l-337 0 0 6c0,46 13,82 39,111 26,28 60,42 102,42 28,0 54,-8 77,-23 23,-16 43,-39 61,-70l55 37c-21,39 -48,68 -81,87 -34,20 -72,30 -116,30 -65,0 -117,-22 -157,-65 -40,-42 -60,-99 -60,-168 0,-67 20,-121 60,-164 39,-42 90,-63 153,-63 62,0 112,20 149,60 37,40 55,95 55,165l0 15z"/>
  <path id="79" class="fil13" d="M5209 10286c0,49 13,88 39,116 25,28 60,42 104,42 44,0 78,-15 102,-45 25,-29 37,-70 37,-123 0,-46 -12,-83 -36,-109 -24,-26 -58,-39 -100,-39 -44,0 -79,14 -106,43 -26,29 -40,67 -40,115zm-69 -511l72 0 0 376c17,-32 38,-56 64,-72 26,-16 57,-24 91,-24 62,0 110,21 147,63 36,41 54,97 54,166 0,70 -18,125 -55,167 -38,42 -87,63 -148,63 -33,0 -63,-8 -90,-24 -27,-17 -49,-40 -66,-71l0 77 -69 0 0 -721z"/>
  <path id="80" class="fil13" d="M5671 9865c0,-14 5,-27 16,-37 10,-10 23,-16 38,-16 14,0 27,6 37,16 11,11 16,23 16,38 0,15 -5,27 -16,38 -10,10 -22,15 -37,15 -15,0 -28,-5 -38,-15 -11,-11 -16,-23 -16,-39zm17 631l0 -426 74 0 0 426 -74 0z"/>
  <path id="81" class="fil13" d="M6217 10235c-2,-37 -15,-66 -37,-86 -23,-21 -54,-31 -93,-31 -35,0 -65,11 -88,32 -24,21 -37,50 -41,85l259 0zm78 59l-337 0 0 7c0,45 13,82 39,110 26,28 60,42 102,42 28,0 54,-7 77,-23 23,-15 43,-38 61,-69l55 37c-21,39 -48,68 -81,87 -34,20 -72,29 -116,29 -65,0 -117,-21 -157,-64 -40,-43 -60,-99 -60,-168 0,-67 20,-122 60,-164 39,-42 90,-64 153,-64 62,0 112,20 149,61 37,40 55,95 55,165l0 14z"/>
  <path id="82" class="fil13" d="M6405 10496l0 -426 71 0 0 66c19,-27 41,-47 66,-61 26,-13 56,-20 90,-20 50,0 89,14 117,40 28,27 43,64 43,112l0 289 -75 0 0 -250c0,-44 -9,-76 -27,-96 -18,-21 -46,-32 -84,-32 -22,0 -41,4 -59,12 -18,8 -33,19 -45,34 -9,11 -15,24 -19,38 -4,14 -6,39 -6,74l0 220 -72 0z"/>
  <path id="83" class="fil13" d="M7238 10235c-3,-37 -15,-66 -38,-86 -22,-21 -53,-31 -92,-31 -36,0 -65,11 -89,32 -23,21 -37,50 -41,85l260 0zm78 59l-338 0 0 7c0,45 13,82 40,110 26,28 60,42 101,42 29,0 55,-7 78,-23 23,-15 43,-38 61,-69l55 37c-21,39 -49,68 -82,87 -33,20 -72,29 -115,29 -65,0 -118,-21 -158,-64 -40,-43 -60,-99 -60,-168 0,-67 20,-122 60,-164 40,-42 91,-64 153,-64 63,0 113,20 150,61 36,40 55,95 55,165l0 14z"/>
  <path id="84" class="fil13" d="M7380 10425l63 -42c12,22 26,39 44,51 18,11 40,17 64,17 24,0 43,-6 58,-18 15,-12 22,-27 22,-47 0,-14 -5,-27 -15,-37 -10,-10 -27,-19 -52,-27l-12 -4c-103,-36 -155,-81 -155,-134 0,-38 14,-69 42,-93 27,-24 64,-36 108,-36 37,0 69,8 95,22 27,15 45,36 57,63l-59 36c-9,-19 -22,-34 -38,-45 -17,-11 -37,-16 -59,-16 -22,0 -39,6 -53,18 -13,12 -20,27 -20,46 0,26 28,48 85,66 10,3 19,6 25,8 46,14 78,31 96,51 18,19 27,44 27,75 0,40 -14,73 -43,98 -28,25 -66,37 -112,37 -39,0 -73,-7 -101,-22 -28,-15 -50,-37 -67,-67z"/>
  <polygon id="85" class="fil13" points="7825,10130 7746,10130 7746,10070 7825,10070 7825,9899 7899,9899 7899,10070 7977,10070 7977,10130 7899,10130 7899,10496 7825,10496 "/>
  <path id="86" class="fil13" d="M8385 10288c0,-48 -13,-87 -39,-116 -26,-30 -60,-44 -102,-44 -44,0 -78,13 -103,40 -24,27 -37,65 -37,113 0,52 13,91 37,119 25,28 60,42 105,42 44,0 78,-14 102,-41 25,-27 37,-65 37,-113zm71 -218l0 426 -71 0 0 -77c-17,31 -38,55 -65,71 -26,16 -56,24 -89,24 -61,0 -110,-21 -148,-63 -37,-42 -56,-97 -56,-167 0,-70 18,-125 55,-167 36,-41 85,-62 145,-62 36,0 67,8 93,24 26,16 48,40 64,72l0 -81 72 0z"/>
  <path id="87" class="fil13" d="M8602 10496l0 -426 65 0 0 89c20,-37 41,-63 63,-79 22,-16 49,-24 80,-24 9,0 17,1 26,2 7,2 16,4 24,6l-24 66c-9,-2 -17,-4 -24,-6 -8,-1 -15,-2 -22,-2 -38,0 -67,14 -86,42 -19,27 -29,69 -29,125l0 207 -73 0z"/>
  <polygon id="88" class="fil13" points="9200,10704 9315,10454 9148,10070 9232,10070 9356,10376 9487,10070 9567,10070 9282,10704 "/>
  <path id="89" class="fil13" d="M9986 10286c0,49 13,88 39,116 25,28 60,42 104,42 44,0 78,-15 102,-45 25,-29 37,-70 37,-123 0,-46 -12,-83 -36,-109 -24,-26 -58,-39 -100,-39 -44,0 -79,14 -106,43 -26,29 -40,67 -40,115zm-69 -511l72 0 0 376c17,-32 38,-56 64,-72 26,-16 57,-24 92,-24 61,0 109,21 146,63 36,41 55,97 55,166 0,70 -19,125 -56,167 -37,42 -87,63 -148,63 -33,0 -63,-8 -90,-24 -27,-17 -49,-40 -66,-71l0 77 -69 0 0 -721z"/>
  <path id="90" class="fil13" d="M10530 10070l0 210c0,61 9,104 27,128 19,25 49,37 92,37 43,0 74,-12 92,-36 17,-24 26,-67 26,-129l0 -210 75 0 0 249c0,64 -17,113 -50,146 -32,33 -81,49 -145,49 -63,0 -111,-16 -144,-49 -33,-34 -49,-82 -49,-146l0 -249 76 0z"/>
  <path id="91" class="fil13" d="M11284 10235c-2,-37 -15,-66 -37,-86 -22,-21 -53,-31 -92,-31 -36,0 -65,11 -89,32 -23,21 -37,50 -41,85l259 0zm78 59l-337 0 0 7c0,45 13,82 39,110 26,28 60,42 102,42 29,0 55,-7 77,-23 23,-15 44,-38 61,-69l56 37c-22,39 -49,68 -82,87 -33,20 -72,29 -116,29 -64,0 -117,-21 -157,-64 -40,-43 -60,-99 -60,-168 0,-67 20,-122 60,-164 40,-42 90,-64 153,-64 63,0 113,20 149,61 37,40 55,95 55,165l0 14z"/>
  <path id="92" class="fil13" d="M11472 10496l0 -426 72 0 0 66c18,-27 40,-47 66,-61 25,-13 55,-20 89,-20 50,0 89,14 118,40 28,27 42,64 42,112l0 289 -74 0 0 -250c0,-44 -9,-76 -28,-96 -18,-21 -46,-32 -84,-32 -21,0 -41,4 -59,12 -18,8 -32,19 -44,34 -9,11 -16,24 -20,38 -4,14 -5,39 -5,74l0 220 -73 0z"/>
  <polygon id="93" class="fil13" points="12424,10523 12213,10070 12295,10070 12423,10368 12552,10070 12633,10070 "/>
  <path id="94" class="fil13" d="M12698 9865c0,-14 6,-27 16,-37 10,-10 23,-16 38,-16 14,0 27,6 37,16 11,11 16,23 16,38 0,15 -5,27 -15,38 -11,10 -23,15 -38,15 -15,0 -28,-5 -38,-15 -10,-11 -16,-23 -16,-39zm18 631l0 -426 73 0 0 426 -73 0z"/>
  <polygon id="95" class="fil13" points="13083,10523 12872,10070 12954,10070 13082,10368 13210,10070 13292,10070 "/>
  <path id="96" class="fil13" d="M13357 9865c0,-14 5,-27 15,-37 11,-10 24,-16 39,-16 14,0 27,6 37,16 10,11 16,23 16,38 0,15 -6,27 -16,38 -10,10 -23,15 -37,15 -15,0 -28,-5 -39,-15 -10,-11 -15,-23 -15,-39zm17 631l0 -426 73 0 0 426 -73 0z"/>
  <path id="97" class="fil13" d="M13602 10496l0 -426 65 0 0 89c19,-37 40,-63 62,-79 22,-16 49,-24 81,-24 8,0 17,1 25,2 8,2 16,4 24,6l-24 66c-9,-2 -16,-4 -24,-6 -7,-1 -15,-2 -21,-2 -39,0 -68,14 -87,42 -19,27 -29,69 -29,125l0 207 -72 0z"/>
  <path id="98" class="fil13" d="M14287 10285c0,48 13,86 39,115 27,28 61,43 105,43 42,0 76,-13 100,-40 24,-26 37,-62 37,-109 0,-53 -13,-94 -37,-124 -24,-29 -58,-44 -101,-44 -45,0 -80,14 -105,42 -26,28 -38,67 -38,117zm-71 419l0 -634 70 0 0 81c16,-31 38,-55 65,-71 27,-17 57,-25 90,-25 62,0 111,21 148,63 37,42 56,97 56,166 0,71 -18,127 -55,168 -36,42 -85,62 -146,62 -35,0 -66,-8 -92,-24 -26,-16 -47,-39 -63,-71l0 285 -73 0z"/>
  <path id="99" class="fil13" d="M15087 10288c0,-48 -14,-87 -40,-116 -26,-30 -60,-44 -102,-44 -44,0 -78,13 -103,40 -24,27 -36,65 -36,113 0,52 12,91 37,119 24,28 59,42 105,42 43,0 77,-14 102,-41 24,-27 37,-65 37,-113zm70 -218l0 426 -70 0 0 -77c-17,31 -39,55 -66,71 -26,16 -56,24 -89,24 -61,0 -110,-21 -147,-63 -38,-42 -57,-97 -57,-167 0,-70 19,-125 55,-167 36,-41 85,-62 145,-62 36,0 67,8 93,24 26,16 48,40 64,72l0 -81 72 0z"/>
  <path id="100" class="fil13" d="M15304 10496l0 -426 65 0 0 89c19,-37 40,-63 62,-79 22,-16 49,-24 80,-24 9,0 18,1 26,2 8,2 16,4 24,6l-24 66c-9,-2 -17,-4 -24,-6 -8,-1 -15,-2 -22,-2 -38,0 -67,14 -86,42 -19,27 -29,69 -29,125l0 207 -72 0z"/>
  <path id="101" class="fil13" d="M15963 10288c0,-48 -13,-87 -40,-116 -26,-30 -60,-44 -102,-44 -44,0 -78,13 -102,40 -25,27 -37,65 -37,113 0,52 12,91 37,119 24,28 59,42 105,42 43,0 77,-14 102,-41 24,-27 37,-65 37,-113zm70 -218l0 426 -70 0 0 -77c-17,31 -39,55 -66,71 -26,16 -56,24 -89,24 -61,0 -110,-21 -147,-63 -38,-42 -56,-97 -56,-167 0,-70 18,-125 54,-167 36,-41 85,-62 146,-62 35,0 66,8 92,24 27,16 48,40 64,72l0 -81 72 0z"/>
  <polygon id="102" class="fil13" points="16464,10496 16464,9775 16538,9775 16538,10496 "/>
  <path id="103" class="fil13" d="M17016 10288c0,-48 -13,-87 -39,-116 -26,-30 -60,-44 -103,-44 -43,0 -78,13 -102,40 -25,27 -37,65 -37,113 0,52 13,91 37,119 25,28 60,42 105,42 43,0 78,-14 102,-41 25,-27 37,-65 37,-113zm71 -218l0 426 -71 0 0 -77c-17,31 -39,55 -65,71 -27,16 -56,24 -89,24 -61,0 -111,-21 -148,-63 -37,-42 -56,-97 -56,-167 0,-70 18,-125 55,-167 36,-41 84,-62 145,-62 36,0 67,8 93,24 26,16 47,40 63,72l0 -81 73 0z"/>
  <path id="104" class="fil13" d="M4496 11427c0,47 13,86 39,114 27,29 62,44 105,44 43,0 76,-14 100,-40 25,-26 37,-63 37,-110 0,-52 -12,-93 -37,-123 -24,-30 -58,-45 -101,-45 -45,0 -79,15 -105,43 -25,28 -38,67 -38,117zm-71 419l0 -634 70 0 0 81c16,-31 38,-55 65,-71 27,-17 57,-25 90,-25 62,0 111,21 148,63 38,42 56,97 56,166 0,71 -18,127 -55,168 -36,41 -85,62 -146,62 -35,0 -65,-8 -92,-24 -26,-16 -47,-40 -63,-71l0 285 -73 0z"/>
  <path id="105" class="fil13" d="M5013 11427c0,44 15,83 45,114 30,31 67,46 109,46 43,0 79,-15 109,-46 30,-31 45,-70 45,-114 0,-45 -15,-84 -45,-115 -30,-31 -66,-46 -109,-46 -43,0 -79,15 -109,46 -30,31 -45,70 -45,115zm-77 -1c0,-31 6,-61 17,-88 12,-28 28,-53 50,-75 22,-21 47,-38 75,-49 28,-11 58,-17 90,-17 31,0 60,6 88,17 27,12 53,28 75,50 22,22 39,46 51,74 11,28 17,57 17,88 0,31 -6,61 -17,88 -12,27 -29,52 -51,73 -22,23 -48,40 -76,51 -28,12 -57,18 -87,18 -32,0 -62,-6 -90,-17 -28,-12 -53,-29 -75,-50 -22,-23 -38,-48 -50,-75 -11,-27 -17,-56 -17,-88z"/>
  <path id="106" class="fil13" d="M5581 11427c0,50 13,89 39,117 25,28 60,42 104,42 44,0 78,-15 102,-45 25,-29 37,-71 37,-123 0,-46 -12,-83 -36,-109 -24,-26 -58,-40 -100,-40 -44,0 -79,15 -106,44 -26,29 -40,67 -40,114zm-69 -510l72 0 0 376c17,-32 38,-56 64,-72 26,-16 57,-24 92,-24 61,0 109,21 146,62 36,42 55,98 55,167 0,69 -19,125 -56,167 -37,42 -87,63 -148,63 -33,0 -63,-8 -90,-25 -27,-16 -49,-40 -66,-70l0 77 -69 0 0 -721z"/>
  <polygon id="107" class="fil13" points="6060,11638 6060,10917 6135,10917 6135,11638 "/>
  <path id="108" class="fil13" d="M6613 11429c0,-48 -13,-86 -39,-116 -27,-29 -61,-44 -103,-44 -44,0 -78,14 -102,41 -25,27 -37,64 -37,113 0,51 12,91 37,119 25,28 60,42 105,42 43,0 77,-14 102,-41 25,-27 37,-65 37,-114zm71 -217l0 426 -71 0 0 -77c-17,31 -39,54 -65,71 -27,16 -57,24 -89,24 -61,0 -111,-21 -148,-63 -37,-42 -56,-98 -56,-167 0,-70 18,-126 54,-167 37,-41 85,-62 146,-62 35,0 66,8 93,24 26,16 47,40 63,72l0 -81 73 0z"/>
  <path id="109" class="fil13" d="M7156 11537l0 85c-19,11 -41,20 -65,25 -24,6 -50,9 -78,9 -66,0 -119,-21 -159,-62 -40,-42 -60,-97 -60,-165 0,-68 21,-124 62,-167 42,-43 95,-65 160,-65 23,0 46,2 69,7 22,5 43,13 63,22l0 79c-18,-12 -37,-22 -57,-28 -20,-6 -40,-10 -61,-10 -48,0 -86,15 -115,45 -29,30 -43,70 -43,120 0,43 14,80 43,109 29,30 66,45 109,45 23,0 44,-4 65,-12 21,-8 43,-20 67,-37z"/>
  <path id="110" class="fil13" d="M7244 11007c0,-14 5,-27 15,-37 11,-11 23,-16 38,-16 15,0 27,5 38,16 10,10 15,23 15,38 0,15 -5,27 -15,37 -10,11 -23,16 -38,16 -15,0 -27,-5 -38,-16 -10,-10 -15,-23 -15,-38zm17 631l0 -426 73 0 0 426 -73 0z"/>
  <path id="111" class="fil13" d="M7530 11427c0,44 16,83 46,114 30,31 66,46 109,46 42,0 79,-15 108,-46 30,-31 45,-70 45,-114 0,-45 -15,-84 -45,-115 -29,-31 -66,-46 -108,-46 -43,0 -80,15 -110,46 -30,31 -45,70 -45,115zm-77 -1c0,-31 6,-61 17,-88 12,-28 29,-53 51,-75 22,-21 47,-38 75,-49 28,-11 57,-17 89,-17 31,0 60,6 88,17 28,12 53,28 76,50 22,22 38,46 50,74 11,28 17,57 17,88 0,31 -6,61 -17,88 -12,27 -28,52 -50,73 -23,23 -48,40 -76,51 -28,12 -58,18 -88,18 -31,0 -61,-6 -89,-17 -28,-12 -53,-29 -75,-50 -22,-23 -39,-48 -51,-75 -11,-27 -17,-56 -17,-88zm165 -280l95 -162 94 0 -133 162 -56 0z"/>
  <path id="112" class="fil13" d="M8029 11638l0 -426 72 0 0 66c18,-27 40,-48 66,-61 26,-13 55,-20 89,-20 50,0 90,13 118,40 28,27 42,64 42,111l0 290 -74 0 0 -251c0,-43 -9,-75 -27,-96 -19,-21 -47,-31 -84,-31 -22,0 -42,4 -60,12 -17,8 -32,19 -44,33 -9,11 -16,24 -19,38 -4,15 -6,40 -6,75l0 220 -73 0z"/>
  <path id="113" class="fil13" d="M8842 11638l0 -426 65 0 0 89c19,-37 40,-63 62,-79 22,-16 49,-24 81,-24 9,0 17,1 25,2 8,1 16,3 24,6l-24 66c-8,-3 -16,-5 -24,-6 -7,-2 -14,-2 -21,-2 -39,0 -67,14 -87,41 -19,28 -29,70 -29,126l0 207 -72 0z"/>
  <path id="114" class="fil13" d="M9244 11212l0 210c0,61 9,104 27,128 18,24 49,37 92,37 43,0 74,-13 91,-37 18,-24 27,-66 27,-128l0 -210 74 0 0 249c0,64 -16,113 -49,146 -33,33 -81,49 -145,49 -63,0 -111,-16 -144,-50 -33,-33 -49,-81 -49,-145l0 -249 76 0z"/>
  <path id="115" class="fil13" d="M9697 11638l0 -426 65 0 0 89c20,-37 40,-63 63,-79 22,-16 48,-24 80,-24 9,0 17,1 25,2 8,1 16,3 24,6l-24 66c-8,-3 -16,-5 -24,-6 -7,-2 -14,-2 -21,-2 -38,0 -67,14 -87,41 -19,28 -28,70 -28,126l0 207 -73 0z"/>
  <path id="116" class="fil13" d="M10356 11429c0,-48 -13,-86 -39,-116 -26,-29 -60,-44 -103,-44 -43,0 -77,14 -102,41 -24,27 -37,64 -37,113 0,51 13,91 37,119 25,28 60,42 105,42 44,0 78,-14 102,-41 25,-27 37,-65 37,-114zm71 -217l0 426 -71 0 0 -77c-17,31 -39,54 -65,71 -27,16 -56,24 -89,24 -61,0 -110,-21 -148,-63 -37,-42 -56,-98 -56,-167 0,-70 18,-126 55,-167 36,-41 84,-62 145,-62 36,0 67,8 93,24 26,16 47,40 63,72l0 -81 73 0z"/>
  <polygon id="117" class="fil13" points="10576,11638 10576,10917 10650,10917 10650,11638 "/>
  <polygon id="118" class="fil13" points="11067,11846 11182,11596 11015,11212 11100,11212 11223,11518 11355,11212 11435,11212 11149,11846 "/>
  <path id="119" class="fil13" d="M12111 11537l0 85c-19,11 -41,20 -65,25 -24,6 -50,9 -78,9 -66,0 -119,-21 -159,-62 -40,-42 -60,-97 -60,-165 0,-68 21,-124 62,-167 42,-43 95,-65 160,-65 23,0 46,2 69,7 22,5 44,13 63,22l0 79c-18,-12 -37,-22 -57,-28 -20,-6 -40,-10 -61,-10 -48,0 -86,15 -115,45 -29,30 -43,70 -43,120 0,43 14,80 43,109 30,30 66,45 110,45 22,0 43,-4 64,-12 21,-8 44,-20 67,-37z"/>
  <path id="120" class="fil13" d="M12255 11427c0,44 15,83 45,114 30,31 67,46 109,46 43,0 79,-15 109,-46 30,-31 44,-70 44,-114 0,-45 -14,-84 -44,-115 -30,-31 -66,-46 -109,-46 -43,0 -79,15 -109,46 -30,31 -45,70 -45,115zm-77 -1c0,-31 5,-61 17,-88 11,-28 28,-53 50,-75 22,-21 47,-38 75,-49 28,-11 58,-17 89,-17 31,0 61,6 89,17 27,12 52,28 75,50 22,22 39,46 50,74 12,28 18,57 18,88 0,31 -6,61 -18,88 -11,27 -28,52 -50,73 -23,23 -48,40 -76,51 -28,12 -57,18 -88,18 -31,0 -61,-6 -89,-17 -28,-12 -53,-29 -75,-50 -22,-23 -39,-48 -50,-75 -12,-27 -17,-56 -17,-88z"/>
  <path id="121" class="fil13" d="M12754 11638l0 -426 71 0 0 66c18,-27 41,-48 66,-61 26,-13 56,-20 89,-20 51,0 90,13 118,40 28,27 42,64 42,111l0 290 -74 0 0 -251c0,-43 -9,-75 -27,-96 -18,-21 -46,-31 -84,-31 -22,0 -42,4 -59,12 -18,8 -33,19 -45,33 -9,11 -15,24 -19,38 -4,15 -6,40 -6,75l0 220 -72 0z"/>
  <polygon id="122" class="fil13" points="13296,11272 13218,11272 13218,11212 13296,11212 13296,11041 13370,11041 13370,11212 13448,11212 13448,11272 13370,11272 13370,11638 13296,11638 "/>
  <path id="123" class="fil13" d="M13532 11638l0 -426 65 0 0 89c19,-37 40,-63 62,-79 22,-16 49,-24 81,-24 8,0 17,1 25,2 8,1 16,3 24,6l-24 66c-8,-3 -16,-5 -24,-6 -7,-2 -14,-2 -21,-2 -39,0 -68,14 -87,41 -19,28 -29,70 -29,126l0 207 -72 0z"/>
  <path id="124" class="fil13" d="M13852 11007c0,-14 5,-27 16,-37 10,-11 23,-16 38,-16 14,0 27,5 37,16 10,10 16,23 16,38 0,15 -5,27 -16,37 -10,11 -23,16 -37,16 -15,0 -28,-5 -38,-16 -11,-10 -16,-23 -16,-38zm17 631l0 -426 73 0 0 426 -73 0z"/>
  <path id="125" class="fil13" d="M14166 11427c0,50 12,89 38,117 25,28 60,42 104,42 44,0 78,-15 102,-45 25,-29 37,-71 37,-123 0,-46 -12,-83 -36,-109 -24,-26 -58,-40 -100,-40 -44,0 -79,15 -105,44 -27,29 -40,67 -40,114zm-70 -510l72 0 0 376c17,-32 38,-56 64,-72 26,-16 57,-24 92,-24 61,0 110,21 146,62 36,42 55,98 55,167 0,69 -19,125 -56,167 -37,42 -87,63 -148,63 -33,0 -63,-8 -90,-25 -27,-16 -49,-40 -65,-70l0 77 -70 0 0 -721z"/>
  <path id="126" class="fil13" d="M14709 11212l0 210c0,61 9,104 27,128 19,24 49,37 92,37 43,0 74,-13 92,-37 18,-24 26,-66 26,-128l0 -210 75 0 0 249c0,64 -17,113 -49,146 -33,33 -82,49 -146,49 -63,0 -111,-16 -144,-50 -33,-33 -49,-81 -49,-145l0 -249 76 0z"/>
  <polygon id="127" class="fil13" points="15145,11846 15260,11596 15093,11212 15177,11212 15301,11518 15432,11212 15512,11212 15226,11846 "/>
  <path id="128" class="fil13" d="M15883 11377c-3,-37 -15,-66 -38,-87 -22,-20 -53,-30 -92,-30 -36,0 -65,10 -89,32 -23,21 -37,49 -41,85l260 0zm78 59l-338 0 0 7c0,45 14,82 40,110 26,28 60,42 101,42 29,0 55,-8 78,-23 23,-15 43,-38 61,-69l55 37c-21,38 -49,67 -82,87 -33,19 -72,29 -115,29 -65,0 -118,-21 -158,-64 -40,-43 -60,-99 -60,-169 0,-66 20,-121 60,-163 40,-43 91,-64 153,-64 63,0 113,20 150,60 36,41 55,96 55,166l0 14z"/>
  <path id="129" class="fil13" d="M16677 11429c0,-48 -13,-86 -39,-116 -26,-29 -61,-44 -103,-44 -43,0 -78,14 -102,41 -25,27 -37,64 -37,113 0,51 13,91 37,119 25,28 60,42 105,42 43,0 78,-14 102,-41 25,-27 37,-65 37,-114zm71 -217l0 426 -71 0 0 -77c-17,31 -39,54 -65,71 -27,16 -56,24 -89,24 -61,0 -111,-21 -148,-63 -37,-42 -56,-98 -56,-167 0,-70 18,-126 54,-167 37,-41 85,-62 146,-62 36,0 67,8 93,24 26,16 47,40 63,72l0 -81 73 0z"/>
  <polygon id="130" class="fil13" points="17178,11638 17178,10917 17252,10917 17252,11638 "/>
  <path id="131" class="fil13" d="M17731 11429c0,-48 -14,-86 -40,-116 -26,-29 -60,-44 -102,-44 -44,0 -78,14 -103,41 -24,27 -36,64 -36,113 0,51 12,91 37,119 24,28 59,42 105,42 43,0 77,-14 102,-41 24,-27 37,-65 37,-114zm70 -217l0 426 -70 0 0 -77c-17,31 -39,54 -66,71 -26,16 -56,24 -89,24 -61,0 -110,-21 -148,-63 -37,-42 -56,-98 -56,-167 0,-70 19,-126 55,-167 36,-41 85,-62 145,-62 36,0 67,8 93,24 26,16 48,40 64,72l0 -81 72 0z"/>
  <path id="132" class="fil13" d="M4498 12679l0 85c-19,11 -40,20 -65,25 -24,6 -50,9 -77,9 -66,0 -119,-21 -159,-63 -40,-42 -61,-96 -61,-164 0,-68 21,-124 63,-167 41,-44 95,-65 159,-65 24,0 47,2 69,7 23,5 44,12 64,22l0 78c-19,-12 -38,-21 -58,-27 -20,-7 -40,-10 -60,-10 -48,0 -86,15 -115,45 -29,30 -43,70 -43,119 0,44 14,81 43,110 29,30 65,44 109,44 22,0 44,-4 65,-11 21,-8 43,-20 66,-37z"/>
  <path id="133" class="fil13" d="M4642 12568c0,45 15,83 45,114 31,32 67,47 110,47 42,0 79,-15 108,-47 30,-31 45,-69 45,-114 0,-45 -15,-83 -45,-114 -29,-31 -66,-47 -108,-47 -43,0 -80,16 -110,47 -30,31 -45,69 -45,114zm-77 0c0,-31 6,-61 17,-89 12,-27 29,-52 51,-74 22,-22 47,-38 75,-49 28,-12 57,-17 89,-17 31,0 60,5 88,17 28,11 53,28 76,50 22,22 38,46 50,74 11,28 17,57 17,88 0,31 -6,60 -17,88 -12,27 -28,52 -50,73 -23,22 -48,39 -76,51 -28,12 -58,18 -88,18 -31,0 -61,-6 -89,-18 -28,-11 -53,-28 -75,-50 -22,-22 -39,-47 -51,-74 -11,-27 -17,-57 -17,-88z"/>
  <path id="134" class="fil13" d="M5141 12780l0 -426 72 0 0 66c18,-28 40,-48 66,-61 26,-14 55,-20 89,-20 50,0 90,13 118,40 28,26 42,64 42,111l0 290 -74 0 0 -251c0,-43 -9,-75 -27,-96 -19,-21 -47,-31 -84,-31 -22,0 -42,4 -60,11 -18,8 -32,20 -44,34 -9,11 -16,24 -19,38 -4,15 -6,39 -6,75l0 220 -73 0z"/>
  <path id="135" class="fil13" d="M5627 12708l62 -42c12,23 27,40 45,51 18,11 39,17 64,17 24,0 43,-6 58,-18 14,-11 22,-27 22,-46 0,-15 -5,-27 -15,-37 -10,-10 -28,-19 -52,-28l-12 -4c-104,-35 -156,-80 -156,-134 0,-38 14,-69 42,-92 28,-24 64,-36 109,-36 37,0 69,7 95,22 26,15 45,35 57,62l-59 37c-9,-20 -22,-35 -39,-45 -17,-11 -36,-16 -59,-16 -21,0 -39,6 -52,18 -14,12 -20,27 -20,46 0,26 28,47 84,65 11,4 19,6 26,8 46,15 78,32 96,51 18,19 27,44 27,76 0,40 -14,72 -43,97 -28,25 -66,38 -112,38 -40,0 -73,-8 -101,-23 -28,-14 -50,-37 -67,-67z"/>
  <polygon id="136" class="fil13" points="6071,12414 5993,12414 5993,12354 6071,12354 6071,12182 6146,12182 6146,12354 6224,12354 6224,12414 6146,12414 6146,12780 6071,12780 "/>
  <path id="137" class="fil13" d="M6307 12780l0 -426 65 0 0 89c20,-37 41,-64 63,-80 22,-15 49,-23 80,-23 9,0 17,0 25,2 8,1 16,3 25,6l-25 66c-8,-3 -16,-5 -23,-6 -8,-2 -15,-2 -22,-2 -38,0 -67,13 -86,41 -20,28 -29,70 -29,125l0 208 -73 0z"/>
  <path id="138" class="fil13" d="M6709 12354l0 209c0,62 9,104 27,129 19,24 49,36 92,36 43,0 74,-12 92,-36 18,-24 26,-67 26,-129l0 -209 75 0 0 249c0,64 -17,112 -49,145 -33,33 -82,50 -146,50 -63,0 -111,-17 -144,-50 -33,-33 -49,-82 -49,-145l0 -249 76 0z"/>
  <path id="139" class="fil13" d="M7488 12679l0 85c-19,11 -41,20 -65,25 -24,6 -50,9 -78,9 -65,0 -118,-21 -158,-63 -41,-42 -61,-96 -61,-164 0,-68 21,-124 63,-167 41,-44 95,-65 159,-65 24,0 47,2 69,7 23,5 44,12 64,22l0 78c-19,-12 -38,-21 -58,-27 -20,-7 -40,-10 -60,-10 -48,0 -86,15 -115,45 -29,30 -44,70 -44,119 0,44 15,81 44,110 29,30 65,44 109,44 22,0 44,-4 65,-11 21,-8 43,-20 66,-37z"/>
  <path id="140" class="fil13" d="M7916 12679l0 85c-19,11 -41,20 -65,25 -24,6 -50,9 -78,9 -65,0 -118,-21 -159,-63 -40,-42 -60,-96 -60,-164 0,-68 21,-124 63,-167 41,-44 94,-65 159,-65 24,0 47,2 69,7 23,5 44,12 64,22l0 78c-19,-12 -38,-21 -58,-27 -20,-7 -40,-10 -60,-10 -48,0 -87,15 -115,45 -29,30 -44,70 -44,119 0,44 15,81 44,110 29,30 65,44 109,44 22,0 43,-4 65,-11 21,-8 43,-20 66,-37z"/>
  <path id="141" class="fil13" d="M8004 12149c0,-15 5,-27 15,-38 11,-10 24,-15 39,-15 14,0 27,5 37,16 10,10 16,23 16,38 0,14 -5,27 -16,37 -10,10 -23,15 -37,15 -15,0 -28,-5 -39,-15 -10,-10 -15,-23 -15,-38zm17 631l0 -426 73 0 0 426 -73 0z"/>
  <path id="142" class="fil13" d="M8291 12568c0,45 15,83 45,114 30,32 67,47 109,47 43,0 79,-15 109,-47 29,-31 44,-69 44,-114 0,-45 -15,-83 -44,-114 -30,-31 -66,-47 -109,-47 -43,0 -79,16 -109,47 -30,31 -45,69 -45,114zm-77 0c0,-31 5,-61 17,-89 11,-27 28,-52 50,-74 22,-22 47,-38 75,-49 28,-12 58,-17 89,-17 31,0 61,5 88,17 28,11 53,28 76,50 22,22 39,46 50,74 12,28 18,57 18,88 0,31 -6,60 -18,88 -11,27 -28,52 -50,73 -23,22 -48,39 -76,51 -28,12 -57,18 -88,18 -31,0 -61,-6 -89,-18 -28,-11 -53,-28 -75,-50 -22,-22 -39,-47 -50,-74 -12,-27 -17,-57 -17,-88zm164 -281l95 -162 94 0 -133 162 -56 0z"/>
  <path id="143" class="fil13" d="M8790 12780l0 -426 71 0 0 66c18,-28 40,-48 66,-61 26,-14 56,-20 89,-20 51,0 90,13 118,40 28,26 42,64 42,111l0 290 -74 0 0 -251c0,-43 -9,-75 -27,-96 -18,-21 -46,-31 -84,-31 -22,0 -42,4 -59,11 -18,8 -33,20 -45,34 -9,11 -15,24 -19,38 -4,15 -6,39 -6,75l0 220 -72 0z"/>
  <path id="144" class="fil13" d="M9927 12569c0,-47 -13,-86 -39,-114 -27,-29 -61,-44 -105,-44 -43,0 -76,13 -100,40 -25,26 -37,62 -37,109 0,52 12,93 37,123 24,30 58,44 101,44 45,0 80,-14 105,-42 25,-27 38,-66 38,-116zm71 -510l0 721 -71 0 0 -77c-17,30 -38,54 -65,70 -27,17 -56,25 -89,25 -61,0 -111,-21 -148,-63 -37,-42 -56,-98 -56,-167 0,-70 18,-125 55,-167 36,-42 85,-62 146,-62 35,0 66,8 92,24 26,16 47,40 63,71l0 -375 73 0z"/>
  <path id="145" class="fil13" d="M10448 12519c-3,-38 -15,-67 -37,-87 -23,-20 -54,-30 -93,-30 -35,0 -65,10 -88,31 -24,22 -37,50 -41,86l259 0zm78 59l-337 0 0 6c0,46 13,83 39,111 26,28 60,42 102,42 28,0 54,-8 77,-23 23,-15 43,-39 61,-70l55 38c-21,38 -48,67 -81,87 -34,19 -72,29 -116,29 -65,0 -117,-22 -157,-64 -40,-43 -60,-99 -60,-169 0,-66 20,-121 59,-164 40,-42 91,-63 153,-63 63,0 113,20 150,60 37,41 55,96 55,165l0 15z"/>
  <path id="146" class="fil13" d="M10985 12354l0 209c0,62 9,104 28,129 18,24 48,36 91,36 43,0 74,-12 92,-36 18,-24 27,-67 27,-129l0 -209 74 0 0 249c0,64 -17,112 -49,145 -33,33 -82,50 -145,50 -64,0 -112,-17 -145,-50 -32,-33 -49,-82 -49,-145l0 -249 76 0z"/>
  <path id="147" class="fil13" d="M11438 12780l0 -426 71 0 0 66c18,-28 40,-48 66,-61 26,-14 56,-20 89,-20 51,0 90,13 118,40 28,26 42,64 42,111l0 290 -74 0 0 -251c0,-43 -9,-75 -27,-96 -18,-21 -46,-31 -84,-31 -22,0 -42,4 -59,11 -18,8 -33,20 -45,34 -9,11 -15,24 -19,38 -4,15 -6,39 -6,75l0 220 -72 0z"/>
  <path id="148" class="fil13" d="M12294 12571c0,-48 -13,-87 -39,-116 -26,-29 -61,-44 -103,-44 -43,0 -78,14 -102,41 -25,27 -37,64 -37,113 0,51 13,91 37,118 25,28 60,42 105,42 43,0 78,-13 102,-40 25,-27 37,-65 37,-114zm71 -217l0 426 -71 0 0 -77c-17,30 -39,54 -65,70 -27,17 -56,25 -89,25 -61,0 -111,-21 -148,-63 -37,-42 -56,-98 -56,-167 0,-70 18,-126 54,-167 37,-42 85,-62 146,-62 36,0 67,8 93,24 26,16 47,40 63,71l0 -80 73 0z"/>
  <path id="149" class="fil13" d="M12862 12568c0,48 13,86 39,115 27,29 61,43 105,43 42,0 76,-13 100,-39 24,-27 37,-63 37,-110 0,-52 -13,-93 -37,-123 -24,-30 -58,-45 -101,-45 -45,0 -80,14 -105,43 -26,28 -38,67 -38,116zm-71 419l0 -633 70 0 0 80c16,-31 38,-54 65,-71 27,-16 57,-24 90,-24 62,0 111,21 148,63 37,41 56,97 56,166 0,70 -18,126 -55,168 -36,41 -85,62 -146,62 -35,0 -66,-8 -92,-24 -26,-16 -47,-40 -63,-71l0 284 -73 0z"/>
  <path id="150" class="fil13" d="M13662 12571c0,-48 -14,-87 -40,-116 -26,-29 -60,-44 -102,-44 -44,0 -78,14 -103,41 -24,27 -36,64 -36,113 0,51 12,91 37,118 24,28 59,42 105,42 43,0 77,-13 102,-40 24,-27 37,-65 37,-114zm70 -217l0 426 -70 0 0 -77c-17,30 -39,54 -66,70 -26,17 -56,25 -89,25 -61,0 -110,-21 -148,-63 -37,-42 -56,-98 -56,-167 0,-70 19,-126 55,-167 36,-42 85,-62 145,-62 36,0 67,8 93,24 26,16 48,40 64,71l0 -80 72 0z"/>
  <polygon id="151" class="fil13" points="13818,12780 14062,12418 13833,12418 13833,12354 14190,12354 13946,12716 14188,12716 14188,12780 "/>
  <path id="152" class="fil13" d="M14871 12519c-2,-38 -15,-67 -37,-87 -23,-20 -53,-30 -92,-30 -36,0 -65,10 -89,31 -24,22 -37,50 -41,86l259 0zm78 59l-337 0 0 6c0,46 13,83 39,111 26,28 60,42 102,42 29,0 54,-8 77,-23 23,-15 44,-39 61,-70l56 38c-22,38 -49,67 -82,87 -33,19 -72,29 -116,29 -64,0 -117,-22 -157,-64 -40,-43 -60,-99 -60,-169 0,-66 20,-121 60,-164 39,-42 90,-63 153,-63 63,0 112,20 149,60 37,41 55,96 55,165l0 15z"/>
  <path id="153" class="fil13" d="M15014 12708l63 -42c11,23 26,40 44,51 18,11 39,17 64,17 24,0 43,-6 58,-18 14,-11 22,-27 22,-46 0,-15 -5,-27 -15,-37 -10,-10 -28,-19 -52,-28l-12 -4c-104,-35 -156,-80 -156,-134 0,-38 14,-69 42,-92 28,-24 64,-36 109,-36 37,0 69,7 95,22 26,15 45,35 57,62l-59 37c-9,-20 -22,-35 -39,-45 -17,-11 -36,-16 -59,-16 -21,0 -39,6 -52,18 -14,12 -20,27 -20,46 0,26 28,47 84,65 11,4 19,6 26,8 46,15 78,32 96,51 18,19 27,44 27,76 0,40 -14,72 -43,97 -28,25 -66,38 -112,38 -40,0 -73,-8 -101,-23 -28,-14 -50,-37 -67,-67z"/>
  <polygon id="154" class="fil13" points="15458,12414 15380,12414 15380,12354 15458,12354 15458,12182 15533,12182 15533,12354 15611,12354 15611,12414 15533,12414 15533,12780 15458,12780 "/>
  <path id="155" class="fil13" d="M16019 12571c0,-48 -13,-87 -39,-116 -26,-29 -61,-44 -103,-44 -43,0 -78,14 -102,41 -25,27 -37,64 -37,113 0,51 13,91 37,118 25,28 60,42 105,42 43,0 78,-13 102,-40 25,-27 37,-65 37,-114zm71 -217l0 426 -71 0 0 -77c-17,30 -39,54 -65,70 -27,17 -56,25 -89,25 -61,0 -111,-21 -148,-63 -37,-42 -56,-98 -56,-167 0,-70 18,-126 54,-167 37,-42 85,-62 146,-62 36,0 67,8 93,24 26,16 47,40 63,71l0 -80 73 0z"/>
  <path id="156" class="fil13" d="M16305 12569c0,50 12,89 38,116 25,28 60,42 105,42 43,0 77,-14 102,-44 24,-30 37,-71 37,-123 0,-47 -12,-83 -37,-109 -24,-27 -57,-40 -100,-40 -43,0 -79,15 -105,44 -27,28 -40,67 -40,114zm-70 -510l73 0 0 375c16,-31 37,-55 63,-71 26,-16 57,-24 92,-24 61,0 110,20 146,62 37,42 55,97 55,167 0,69 -19,125 -56,167 -37,42 -86,63 -148,63 -33,0 -63,-8 -90,-25 -26,-17 -48,-40 -65,-70l0 77 -70 0 0 -721z"/>
  <polygon id="157" class="fil13" points="16784,12780 16784,12059 16858,12059 16858,12780 "/>
  <path id="158" class="fil13" d="M17313 12519c-3,-38 -15,-67 -38,-87 -22,-20 -53,-30 -92,-30 -36,0 -65,10 -89,31 -23,22 -37,50 -41,86l260 0zm78 59l-338 0 0 6c0,46 13,83 39,111 27,28 60,42 102,42 29,0 55,-8 78,-23 23,-15 43,-39 61,-70l55 38c-22,38 -49,67 -82,87 -33,19 -72,29 -115,29 -65,0 -118,-22 -158,-64 -40,-43 -60,-99 -60,-169 0,-66 20,-121 60,-164 40,-42 91,-63 153,-63 63,0 113,20 150,60 36,41 55,96 55,165l0 15z"/>
  <polygon id="159" class="fil13" points="17764,12987 17880,12738 17713,12354 17797,12354 17921,12660 18052,12354 18132,12354 17846,12987 "/>
  <path id="160" class="fil13" d="M4843 13711c0,-48 -14,-86 -40,-115 -26,-29 -61,-43 -104,-43 -43,0 -77,13 -101,39 -24,27 -36,63 -36,110 0,52 12,93 36,123 25,29 59,44 102,44 44,0 79,-14 105,-42 25,-28 38,-67 38,-116zm70 -511l0 721 -70 0 0 -77c-17,31 -39,55 -66,71 -26,16 -56,25 -89,25 -61,0 -110,-21 -148,-64 -37,-42 -56,-97 -56,-166 0,-70 19,-126 55,-167 37,-42 86,-63 146,-63 36,0 66,8 92,24 27,16 47,40 64,72l0 -376 72 0z"/>
  <path id="161" class="fil13" d="M5130 13496l0 209c0,61 9,104 27,128 18,25 49,37 92,37 43,0 74,-12 92,-36 17,-24 26,-67 26,-129l0 -209 75 0 0 248c0,64 -17,113 -50,146 -33,33 -81,50 -145,50 -63,0 -111,-17 -144,-50 -33,-33 -49,-82 -49,-146l0 -248 76 0z"/>
  <path id="162" class="fil13" d="M5583 13921l0 -425 65 0 0 88c20,-37 41,-63 63,-79 22,-16 48,-24 80,-24 9,0 17,1 25,2 8,2 16,4 24,7l-24 66c-8,-3 -16,-5 -23,-7 -8,-1 -15,-2 -22,-2 -38,0 -67,14 -86,42 -20,28 -29,69 -29,125l0 207 -73 0z"/>
  <path id="163" class="fil13" d="M6242 13713c0,-48 -13,-87 -39,-116 -26,-30 -60,-44 -103,-44 -43,0 -77,13 -102,40 -24,27 -37,65 -37,113 0,52 13,91 37,119 25,28 60,42 105,42 44,0 78,-13 102,-41 25,-27 37,-65 37,-113zm71 -217l0 425 -71 0 0 -77c-17,31 -38,55 -65,71 -27,16 -56,25 -89,25 -61,0 -110,-21 -148,-64 -37,-42 -56,-97 -56,-166 0,-70 18,-126 55,-168 36,-41 84,-62 145,-62 36,0 67,8 93,24 26,16 47,40 64,72l0 -80 72 0z"/>
  <path id="164" class="fil13" d="M6784 13711c0,-48 -13,-86 -39,-115 -27,-29 -61,-43 -105,-43 -43,0 -76,13 -100,39 -25,27 -37,63 -37,110 0,52 12,93 37,123 25,29 58,44 101,44 45,0 80,-14 105,-42 26,-28 38,-67 38,-116zm71 -511l0 721 -71 0 0 -77c-17,31 -38,55 -65,71 -27,16 -56,25 -89,25 -61,0 -111,-21 -148,-64 -37,-42 -56,-97 -56,-166 0,-70 18,-126 55,-167 37,-42 85,-63 146,-63 35,0 66,8 92,24 26,16 47,40 63,72l0 -376 73 0z"/>
  <path id="165" class="fil13" d="M7305 13660c-2,-37 -15,-66 -37,-86 -23,-21 -54,-31 -93,-31 -35,0 -65,11 -88,32 -24,21 -37,50 -41,85l259 0zm78 59l-337 0 0 7c0,46 13,82 39,110 26,29 60,43 102,43 28,0 54,-8 77,-23 23,-16 43,-39 61,-70l55 37c-21,39 -48,68 -81,87 -34,20 -72,30 -116,30 -65,0 -117,-22 -157,-65 -40,-42 -60,-99 -60,-168 0,-67 20,-121 60,-164 39,-42 90,-64 153,-64 62,0 112,21 149,61 37,40 55,95 55,165l0 14z"/>
  <path id="166" class="fil13" d="M7494 13921l0 -425 65 0 0 88c19,-37 40,-63 62,-79 22,-16 49,-24 81,-24 8,0 17,1 25,2 8,2 16,4 24,7l-24 66c-9,-3 -16,-5 -24,-7 -7,-1 -15,-2 -21,-2 -39,0 -68,14 -87,42 -19,28 -29,69 -29,125l0 207 -72 0z"/>
  <path id="167" class="fil13" d="M8153 13713c0,-48 -13,-87 -39,-116 -27,-30 -61,-44 -103,-44 -44,0 -78,13 -102,40 -25,27 -37,65 -37,113 0,52 12,91 37,119 25,28 60,42 105,42 43,0 77,-13 102,-41 25,-27 37,-65 37,-113zm70 -217l0 425 -70 0 0 -77c-17,31 -39,55 -65,71 -27,16 -57,25 -89,25 -61,0 -111,-21 -148,-64 -37,-42 -56,-97 -56,-166 0,-70 18,-126 54,-168 36,-41 85,-62 146,-62 35,0 66,8 93,24 26,16 47,40 63,72l0 -80 72 0z"/>
  <path id="168" class="fil13" d="M8379 13876c0,-15 6,-28 17,-39 11,-11 24,-17 39,-17 15,0 28,6 39,16 11,11 17,24 17,40 0,15 -5,28 -16,38 -11,11 -24,16 -40,16 -16,0 -29,-5 -39,-16 -11,-10 -17,-23 -17,-38z"/>
  <path id="169" class="fil13" d="M8939 13921l0 -681 142 0c49,0 86,3 110,8 24,5 44,14 61,26 22,16 39,37 51,62 12,26 18,53 18,83 0,36 -9,66 -26,91 -17,24 -43,41 -75,50 40,7 72,25 95,55 23,30 35,67 35,113 0,27 -5,53 -15,78 -10,25 -23,46 -41,64 -19,19 -43,32 -71,40 -28,8 -76,11 -142,11l-142 0zm79 -319l0 249 63 0c43,0 74,-2 93,-5 19,-4 34,-10 46,-18 13,-10 24,-24 32,-41 8,-18 12,-38 12,-59 0,-25 -4,-46 -14,-65 -10,-18 -24,-32 -42,-43 -11,-6 -23,-11 -37,-14 -15,-2 -37,-4 -67,-4l-23 0 -63 0zm0 -291l0 228 63 0c57,0 98,-9 121,-26 24,-16 36,-44 36,-84 0,-44 -11,-74 -33,-92 -22,-17 -63,-26 -124,-26l-63 0z"/>
  <path id="170" class="fil13" d="M9535 13496l0 209c0,61 9,104 27,128 18,25 49,37 92,37 43,0 73,-12 91,-36 18,-24 27,-67 27,-129l0 -209 74 0 0 248c0,64 -16,113 -49,146 -33,33 -81,50 -145,50 -63,0 -111,-17 -144,-50 -33,-33 -49,-82 -49,-146l0 -248 76 0z"/>
  <path id="171" class="fil13" d="M9942 13850l63 -42c11,23 26,39 44,51 18,11 39,17 64,17 24,0 43,-6 58,-18 15,-12 22,-27 22,-46 0,-15 -5,-28 -15,-38 -10,-9 -28,-19 -52,-27l-12 -4c-104,-36 -155,-80 -155,-134 0,-38 14,-69 41,-93 28,-24 64,-36 109,-36 37,0 69,8 95,22 26,15 45,36 57,63l-59 36c-9,-19 -22,-34 -39,-45 -17,-10 -36,-16 -59,-16 -21,0 -38,6 -52,18 -13,12 -20,28 -20,46 0,26 28,48 85,66 10,3 19,6 25,8 46,15 78,32 96,51 18,19 27,44 27,75 0,40 -14,73 -43,98 -28,25 -66,38 -112,38 -40,0 -73,-8 -101,-23 -28,-15 -50,-37 -67,-67z"/>
  <path id="172" class="fil13" d="M10702 13820l0 85c-20,12 -41,20 -65,26 -24,6 -50,9 -78,9 -66,0 -119,-21 -159,-63 -40,-42 -60,-97 -60,-164 0,-69 21,-124 62,-168 42,-43 95,-65 160,-65 23,0 46,3 69,8 22,5 43,12 63,22l0 78c-18,-12 -38,-21 -57,-28 -20,-6 -40,-9 -61,-9 -48,0 -86,15 -115,45 -29,30 -43,70 -43,119 0,44 14,80 43,110 29,29 66,44 109,44 22,0 44,-4 65,-12 21,-7 43,-20 67,-37z"/>
  <path id="173" class="fil13" d="M11129 13713c0,-48 -14,-87 -40,-116 -26,-30 -60,-44 -102,-44 -44,0 -78,13 -103,40 -24,27 -36,65 -36,113 0,52 12,91 37,119 24,28 59,42 105,42 43,0 77,-13 102,-41 24,-27 37,-65 37,-113zm70 -217l0 425 -70 0 0 -77c-17,31 -39,55 -66,71 -26,16 -56,25 -89,25 -61,0 -110,-21 -148,-64 -37,-42 -56,-97 -56,-166 0,-70 19,-126 55,-168 36,-41 85,-62 145,-62 36,0 67,8 93,24 26,16 48,40 64,72l0 -80 72 0z"/>
  <polygon id="174" class="fil13" points="11629,13921 11629,13200 11704,13200 11704,13921 "/>
  <path id="175" class="fil13" d="M12182 13713c0,-48 -13,-87 -39,-116 -27,-30 -61,-44 -103,-44 -44,0 -78,13 -102,40 -25,27 -37,65 -37,113 0,52 12,91 37,119 25,28 60,42 105,42 43,0 77,-13 102,-41 25,-27 37,-65 37,-113zm71 -217l0 425 -71 0 0 -77c-17,31 -39,55 -65,71 -27,16 -57,25 -89,25 -61,0 -111,-21 -148,-64 -37,-42 -56,-97 -56,-166 0,-70 18,-126 54,-168 37,-41 85,-62 146,-62 35,0 66,8 93,24 26,16 47,40 63,72l0 -80 73 0z"/>
  <path id="176" class="fil13" d="M12981 13660c-3,-37 -15,-66 -37,-86 -23,-21 -54,-31 -93,-31 -35,0 -65,11 -88,32 -24,21 -37,50 -41,85l259 0zm78 59l-337 0 0 7c0,46 13,82 39,110 26,29 60,43 102,43 28,0 54,-8 77,-23 23,-16 43,-39 61,-70l55 37c-21,39 -48,68 -81,87 -34,20 -72,30 -116,30 -65,0 -117,-22 -157,-65 -40,-42 -60,-99 -60,-168 0,-67 20,-121 59,-164 40,-42 91,-64 154,-64 62,0 112,21 149,61 37,40 55,95 55,165l0 14z"/>
  <path id="177" class="fil13" d="M13170 13921l0 -425 65 0 0 88c19,-37 40,-63 62,-79 22,-16 49,-24 81,-24 8,0 17,1 25,2 8,2 16,4 24,7l-24 66c-9,-3 -17,-5 -24,-7 -7,-1 -15,-2 -21,-2 -39,0 -68,14 -87,42 -19,28 -29,69 -29,125l0 207 -72 0z"/>
  <path id="178" class="fil13" d="M13504 13921l0 -425 65 0 0 88c20,-37 40,-63 62,-79 22,-16 49,-24 81,-24 9,0 17,1 25,2 8,2 16,4 24,7l-24 66c-8,-3 -16,-5 -24,-7 -7,-1 -14,-2 -21,-2 -39,0 -67,14 -87,42 -19,28 -28,69 -28,125l0 207 -73 0z"/>
  <path id="179" class="fil13" d="M14163 13713c0,-48 -13,-87 -39,-116 -26,-30 -60,-44 -103,-44 -43,0 -77,13 -102,40 -25,27 -37,65 -37,113 0,52 13,91 37,119 25,28 60,42 105,42 44,0 78,-13 102,-41 25,-27 37,-65 37,-113zm71 -217l0 425 -71 0 0 -77c-17,31 -39,55 -65,71 -27,16 -56,25 -89,25 -61,0 -111,-21 -148,-64 -37,-42 -56,-97 -56,-166 0,-70 18,-126 55,-168 36,-41 84,-62 145,-62 36,0 67,8 93,24 26,16 47,40 63,72l0 -80 73 0z"/>
  <path id="180" class="fil13" d="M14705 13711c0,-48 -13,-86 -39,-115 -27,-29 -62,-43 -105,-43 -43,0 -76,13 -101,39 -24,27 -36,63 -36,110 0,52 12,93 37,123 24,29 58,44 101,44 45,0 80,-14 105,-42 25,-28 38,-67 38,-116zm71 -511l0 721 -71 0 0 -77c-17,31 -38,55 -65,71 -27,16 -57,25 -89,25 -62,0 -111,-21 -148,-64 -37,-42 -56,-97 -56,-166 0,-70 18,-126 55,-167 36,-42 85,-63 146,-63 35,0 66,8 92,24 26,16 47,40 63,72l0 -376 73 0z"/>
  <path id="181" class="fil13" d="M14911 13291c0,-15 5,-27 15,-38 11,-10 23,-15 38,-15 15,0 27,5 38,15 10,11 15,24 15,39 0,14 -5,27 -15,37 -10,10 -23,15 -38,15 -15,0 -27,-5 -38,-15 -10,-10 -15,-23 -15,-38zm17 630l0 -425 73 0 0 425 -73 0z"/>
  <path id="182" class="fil13" d="M15481 13820l0 85c-19,12 -40,20 -65,26 -24,6 -50,9 -78,9 -65,0 -118,-21 -158,-63 -40,-42 -61,-97 -61,-164 0,-69 21,-124 63,-168 41,-43 95,-65 159,-65 24,0 47,3 69,8 23,5 44,12 64,22l0 78c-19,-12 -38,-21 -58,-28 -20,-6 -40,-9 -60,-9 -48,0 -86,15 -115,45 -29,30 -44,70 -44,119 0,44 15,80 44,110 29,29 65,44 109,44 22,0 44,-4 65,-12 21,-7 43,-20 66,-37z"/>
  <path id="183" class="fil13" d="M15908 13713c0,-48 -13,-87 -39,-116 -26,-30 -60,-44 -103,-44 -43,0 -77,13 -102,40 -25,27 -37,65 -37,113 0,52 13,91 37,119 25,28 60,42 105,42 43,0 78,-13 102,-41 25,-27 37,-65 37,-113zm71 -217l0 425 -71 0 0 -77c-17,31 -39,55 -65,71 -27,16 -56,25 -89,25 -61,0 -111,-21 -148,-64 -37,-42 -56,-97 -56,-166 0,-70 18,-126 55,-168 36,-41 84,-62 145,-62 36,0 67,8 93,24 26,16 47,40 63,72l0 -80 73 0z"/>
  <path id="184" class="fil13" d="M16451 13820l0 85c-19,12 -41,20 -65,26 -24,6 -50,9 -78,9 -66,0 -118,-21 -159,-63 -40,-42 -60,-97 -60,-164 0,-69 21,-124 62,-168 42,-43 95,-65 160,-65 23,0 46,3 69,8 23,5 44,12 64,22l0 78c-19,-12 -38,-21 -58,-28 -20,-6 -40,-9 -61,-9 -47,0 -86,15 -115,45 -28,30 -43,70 -43,119 0,44 15,80 44,110 29,29 65,44 109,44 22,0 43,-4 64,-12 22,-7 44,-20 67,-37z"/>
  <path id="185" class="fil13" d="M16539 13291c0,-15 5,-27 15,-38 11,-10 24,-15 38,-15 15,0 27,5 38,15 10,11 15,24 15,39 0,14 -5,27 -15,37 -10,10 -23,15 -38,15 -14,0 -27,-5 -38,-15 -10,-10 -15,-23 -15,-38zm17 630l0 -425 73 0 0 425 -73 0z"/>
  <path id="186" class="fil13" d="M16826 13710c0,45 15,83 45,114 30,31 66,47 109,47 43,0 79,-16 109,-47 29,-31 44,-69 44,-114 0,-45 -15,-83 -44,-114 -30,-31 -66,-47 -109,-47 -43,0 -79,16 -109,47 -30,31 -45,69 -45,114zm-78 0c0,-32 6,-61 18,-89 11,-28 28,-52 50,-74 22,-22 47,-38 75,-50 28,-11 57,-17 89,-17 31,0 61,6 88,18 28,11 53,28 76,50 22,21 39,46 50,74 12,27 17,57 17,88 0,31 -5,60 -17,87 -11,28 -28,52 -50,74 -23,22 -48,39 -76,51 -28,12 -57,18 -88,18 -31,0 -61,-6 -89,-18 -28,-12 -53,-28 -75,-50 -22,-22 -39,-47 -50,-74 -12,-28 -18,-57 -18,-88zm165 -281l95 -162 94 0 -133 162 -56 0z"/>
  <path id="187" class="fil13" d="M17325 13921l0 -425 71 0 0 65c18,-27 40,-47 66,-61 26,-13 56,-20 89,-20 51,0 90,14 118,40 28,27 42,64 42,112l0 289 -74 0 0 -250c0,-43 -9,-75 -27,-96 -18,-21 -46,-32 -84,-32 -22,0 -42,4 -60,12 -17,8 -32,19 -44,34 -9,11 -15,24 -19,38 -4,14 -6,39 -6,74l0 220 -72 0z"/>
  <path id="188" class="fil13" d="M7502 14853c0,-48 -13,-86 -40,-115 -26,-29 -61,-43 -104,-43 -43,0 -76,13 -101,39 -24,26 -36,63 -36,109 0,53 12,94 37,123 24,30 58,45 101,45 45,0 80,-14 105,-42 25,-28 38,-67 38,-116zm71 -511l0 721 -71 0 0 -77c-17,31 -38,54 -65,71 -27,16 -57,24 -89,24 -62,0 -111,-21 -148,-63 -37,-42 -56,-97 -56,-167 0,-69 18,-125 55,-166 36,-42 85,-63 146,-63 35,0 66,8 92,24 26,16 47,40 63,72l0 -376 73 0z"/>
  <path id="189" class="fil13" d="M8023 14802c-3,-37 -15,-66 -38,-87 -22,-20 -53,-30 -92,-30 -35,0 -65,11 -88,32 -24,21 -38,49 -41,85l259 0zm78 59l-337 0 0 7c0,45 13,82 39,110 26,28 60,42 102,42 28,0 54,-7 77,-23 23,-15 43,-38 61,-69l55 37c-21,38 -48,68 -82,87 -33,20 -71,29 -115,29 -65,0 -117,-21 -157,-64 -40,-43 -60,-99 -60,-168 0,-67 20,-122 59,-164 40,-43 91,-64 153,-64 63,0 113,20 150,61 37,40 55,95 55,165l0 14z"/>
  <polygon id="190" class="fil13" points="8495,15063 8495,14342 8570,14342 8570,15063 "/>
  <path id="191" class="fil13" d="M9048 14855c0,-49 -13,-87 -39,-116 -26,-30 -61,-44 -103,-44 -44,0 -78,13 -102,40 -25,27 -37,65 -37,113 0,51 12,91 37,119 25,28 60,42 105,42 43,0 77,-14 102,-41 25,-27 37,-65 37,-113zm71 -218l0 426 -71 0 0 -77c-17,31 -39,55 -65,71 -27,16 -57,24 -89,24 -61,0 -111,-21 -148,-63 -37,-42 -56,-97 -56,-167 0,-70 18,-125 54,-167 37,-41 85,-62 146,-62 36,0 66,8 93,24 26,16 47,40 63,72l0 -81 73 0z"/>
  <path id="192" class="fil13" d="M9616 14852c0,47 13,86 39,115 26,28 61,43 105,43 42,0 76,-13 100,-40 24,-26 37,-63 37,-109 0,-53 -13,-94 -37,-124 -24,-29 -58,-44 -102,-44 -44,0 -79,14 -104,42 -26,28 -38,67 -38,117zm-71 419l0 -634 70 0 0 81c16,-31 38,-55 65,-71 27,-17 57,-25 90,-25 62,0 111,21 148,63 37,42 56,97 56,166 0,71 -19,127 -55,168 -36,42 -85,62 -146,62 -35,0 -66,-8 -92,-24 -26,-16 -47,-39 -63,-71l0 285 -73 0z"/>
  <path id="193" class="fil13" d="M10133 14852c0,45 15,83 45,114 30,31 66,47 109,47 43,0 79,-16 109,-47 29,-31 44,-69 44,-114 0,-45 -15,-83 -44,-114 -30,-32 -66,-47 -109,-47 -43,0 -79,15 -109,47 -30,31 -45,69 -45,114zm-77 -1c0,-31 5,-60 17,-88 11,-28 28,-53 50,-74 22,-22 47,-39 75,-50 28,-11 58,-17 89,-17 31,0 61,6 88,17 28,12 53,29 76,51 22,21 39,45 50,73 12,28 17,57 17,88 0,31 -5,61 -17,88 -11,28 -28,52 -50,73 -23,23 -48,40 -76,52 -28,11 -57,17 -88,17 -31,0 -61,-6 -89,-17 -28,-12 -53,-28 -75,-50 -22,-23 -39,-47 -50,-75 -12,-27 -17,-56 -17,-88z"/>
  <path id="194" class="fil13" d="M10701 14853c0,49 13,88 38,116 26,28 61,42 105,42 43,0 77,-15 102,-45 25,-29 37,-70 37,-123 0,-46 -12,-83 -36,-109 -24,-26 -58,-39 -101,-39 -43,0 -78,14 -105,43 -27,29 -40,67 -40,115zm-69 -511l72 0 0 376c17,-32 38,-56 64,-72 26,-16 56,-24 91,-24 61,0 110,21 147,63 36,41 54,97 54,166 0,70 -18,125 -56,167 -37,42 -86,63 -147,63 -33,0 -63,-8 -90,-25 -27,-16 -49,-40 -66,-70l0 77 -69 0 0 -721z"/>
  <path id="195" class="fil13" d="M11177 15063l0 -426 65 0 0 89c20,-37 40,-63 63,-79 22,-16 48,-24 80,-24 9,0 17,1 25,2 8,2 16,4 24,6l-24 66c-8,-2 -16,-5 -24,-6 -7,-1 -14,-2 -21,-2 -38,0 -67,14 -86,42 -20,27 -29,69 -29,125l0 207 -73 0z"/>
  <path id="196" class="fil13" d="M11813 14802c-3,-37 -15,-66 -38,-87 -22,-20 -53,-30 -92,-30 -36,0 -65,11 -89,32 -23,21 -37,49 -41,85l260 0zm78 59l-338 0 0 7c0,45 13,82 40,110 26,28 60,42 101,42 29,0 55,-7 78,-23 23,-15 43,-38 61,-69l55 37c-21,38 -49,68 -82,87 -33,20 -72,29 -115,29 -65,0 -118,-21 -158,-64 -40,-43 -60,-99 -60,-168 0,-67 20,-122 60,-164 40,-43 91,-64 153,-64 63,0 113,20 150,61 36,40 55,95 55,165l0 14z"/>
  <polygon id="197" class="fil13" points="11941,15063 12184,14701 11956,14701 11956,14637 12313,14637 12069,14999 12311,14999 12311,15063 "/>
  <path id="198" class="fil13" d="M12737 14855c0,-49 -13,-87 -40,-116 -26,-30 -60,-44 -102,-44 -44,0 -78,13 -102,40 -25,27 -37,65 -37,113 0,51 12,91 37,119 24,28 59,42 105,42 43,0 77,-14 102,-41 24,-27 37,-65 37,-113zm70 -218l0 426 -70 0 0 -77c-17,31 -39,55 -66,71 -26,16 -56,24 -89,24 -61,0 -110,-21 -147,-63 -38,-42 -56,-97 -56,-167 0,-70 18,-125 54,-167 36,-41 85,-62 146,-62 35,0 66,8 92,24 27,16 48,40 64,72l0 -81 72 0z"/>
  <path id="199" class="fil13" d="M13235 15063l0 -426 65 0 0 89c19,-37 40,-63 62,-79 22,-16 49,-24 81,-24 8,0 17,1 25,2 8,2 16,4 24,6l-24 66c-9,-2 -17,-5 -24,-6 -7,-1 -15,-2 -21,-2 -39,0 -68,14 -87,42 -19,27 -29,69 -29,125l0 207 -72 0z"/>
  <path id="200" class="fil13" d="M13637 14637l0 210c0,61 9,104 27,128 18,24 49,37 92,37 43,0 73,-12 91,-36 18,-24 27,-67 27,-129l0 -210 74 0 0 249c0,64 -16,113 -49,146 -33,33 -81,49 -145,49 -63,0 -111,-16 -144,-49 -33,-34 -49,-82 -49,-146l0 -249 76 0z"/>
  <path id="201" class="fil13" d="M14090 15063l0 -426 65 0 0 89c19,-37 40,-63 62,-79 22,-16 49,-24 81,-24 9,0 17,1 25,2 8,2 16,4 24,6l-24 66c-8,-2 -16,-5 -24,-6 -7,-1 -14,-2 -21,-2 -39,0 -68,14 -87,42 -19,27 -29,69 -29,125l0 207 -72 0z"/>
  <path id="202" class="fil13" d="M14749 14855c0,-49 -13,-87 -39,-116 -26,-30 -61,-44 -103,-44 -43,0 -78,13 -102,40 -25,27 -37,65 -37,113 0,51 13,91 37,119 25,28 60,42 105,42 43,0 78,-14 102,-41 25,-27 37,-65 37,-113zm71 -218l0 426 -71 0 0 -77c-17,31 -39,55 -65,71 -27,16 -56,24 -89,24 -61,0 -111,-21 -148,-63 -37,-42 -56,-97 -56,-167 0,-70 18,-125 54,-167 37,-41 85,-62 146,-62 36,0 67,8 93,24 26,16 47,40 63,72l0 -81 73 0z"/>
  <polygon id="203" class="fil13" points="14969,15063 14969,14342 15043,14342 15043,15063 "/>
  <path id="204" class="fil13" d="M9686 15944c-2,-38 -15,-66 -37,-87 -23,-20 -53,-30 -93,-30 -35,0 -64,10 -88,32 -24,21 -37,49 -41,85l259 0zm78 59l-337 0 0 6c0,46 13,83 39,111 26,28 60,42 102,42 28,0 54,-8 77,-23 23,-15 44,-38 61,-69l55 37c-21,38 -48,67 -81,87 -34,19 -72,29 -116,29 -65,0 -117,-21 -157,-64 -40,-43 -60,-99 -60,-169 0,-66 20,-121 60,-163 39,-43 90,-64 153,-64 63,0 112,20 149,60 37,41 55,96 55,166l0 14z"/>
  <polygon id="205" class="fil13" points="9800,16205 9963,15985 9804,15779 9895,15779 10005,15931 10117,15779 10208,15779 10047,15985 10212,16205 10121,16205 10005,16040 9890,16205 "/>
  <polygon id="206" class="fil13" points="10298,15839 10220,15839 10220,15779 10298,15779 10298,15608 10372,15608 10372,15779 10450,15779 10450,15839 10372,15839 10372,16205 10298,16205 "/>
  <path id="207" class="fil13" d="M10534 16205l0 -426 65 0 0 89c20,-37 40,-63 62,-79 22,-16 49,-24 81,-24 9,0 17,0 25,2 8,1 16,3 24,6l-24 66c-8,-3 -16,-5 -24,-6 -7,-2 -14,-2 -21,-2 -39,0 -67,14 -87,41 -19,28 -29,70 -29,126l0 207 -72 0z"/>
  <path id="208" class="fil13" d="M11169 15944c-2,-38 -15,-66 -37,-87 -22,-20 -53,-30 -92,-30 -36,0 -65,10 -89,32 -23,21 -37,49 -41,85l259 0zm78 59l-337 0 0 6c0,46 13,83 39,111 26,28 60,42 102,42 29,0 55,-8 77,-23 23,-15 44,-38 61,-69l56 37c-22,38 -49,67 -82,87 -33,19 -72,29 -116,29 -64,0 -117,-21 -157,-64 -40,-43 -60,-99 -60,-169 0,-66 20,-121 60,-163 40,-43 90,-64 153,-64 63,0 113,20 149,60 37,41 55,96 55,166l0 14z"/>
  <path id="209" class="fil13" d="M11950 16205l0 -251c0,-43 -9,-75 -26,-96 -18,-21 -44,-31 -80,-31 -20,0 -38,4 -54,12 -17,8 -31,19 -42,33 -9,11 -15,24 -19,39 -3,15 -5,40 -5,74l0 220 -71 0 0 -251c0,-43 -8,-75 -26,-96 -17,-21 -44,-31 -79,-31 -20,0 -38,4 -55,12 -17,8 -31,19 -43,33 -8,11 -13,24 -17,38 -4,14 -5,39 -5,75l0 220 -71 0 0 -426 72 0 0 66c17,-27 38,-48 63,-61 24,-13 52,-20 84,-20 35,0 64,7 88,22 24,15 43,36 55,64 19,-29 40,-50 65,-65 25,-14 54,-21 87,-21 47,0 84,13 111,40 27,27 40,64 40,111l0 290 -72 0z"/>
  <path id="210" class="fil13" d="M12491 15996c0,-48 -13,-87 -40,-116 -26,-29 -60,-44 -102,-44 -44,0 -78,14 -102,41 -25,27 -37,64 -37,113 0,51 12,91 37,119 24,28 59,42 105,42 43,0 77,-14 102,-41 24,-27 37,-65 37,-114zm70 -217l0 426 -70 0 0 -77c-17,31 -39,54 -66,71 -26,16 -56,24 -89,24 -61,0 -110,-21 -147,-63 -38,-42 -56,-98 -56,-167 0,-70 18,-126 54,-167 36,-41 85,-62 146,-62 35,0 66,8 92,24 27,16 48,40 64,71l0 -80 72 0z"/>
  <path id="211" class="fil13" d="M12717 16159c0,-15 6,-28 17,-39 10,-11 24,-16 39,-16 15,0 28,5 39,16 11,11 17,24 17,39 0,16 -6,28 -16,39 -11,10 -25,15 -40,15 -16,0 -29,-5 -40,-15 -10,-11 -16,-23 -16,-39z"/>
  <path class="fil13" d="M8881 4400l-318 -757 219 0 152 423c1,5 4,15 8,32 5,18 10,41 17,69 6,-23 11,-43 16,-62 4,-19 8,-32 10,-39l151 -423 219 0 -317 757 -157 0z"/>
  <polygon id="1" class="fil13" points="9422,4400 9422,3643 9630,3643 9630,4400 "/>
  <path id="2" class="fil13" d="M9830 4155c30,35 61,61 90,78 30,17 60,26 90,26 27,0 50,-8 67,-22 18,-15 27,-34 27,-57 0,-25 -8,-44 -23,-58 -15,-13 -50,-27 -104,-42 -74,-20 -126,-46 -157,-78 -31,-32 -46,-76 -46,-132 0,-72 24,-131 73,-177 48,-45 111,-68 188,-68 42,0 81,6 119,17 37,11 72,28 106,51l-65 148c-23,-20 -47,-35 -72,-45 -24,-10 -49,-16 -73,-16 -25,0 -45,6 -60,18 -16,12 -24,27 -24,46 0,19 7,34 21,45 13,12 40,23 78,33l10 3c84,22 139,47 166,75 18,18 31,40 41,66 9,26 14,55 14,87 0,80 -27,145 -79,193 -53,49 -124,74 -211,74 -53,0 -101,-9 -144,-27 -44,-18 -85,-46 -125,-84l93 -154z"/>
  <polygon id="3" class="fil13" points="10416,4400 10416,3643 10625,3643 10625,4400 "/>
  <path id="4" class="fil13" d="M11568 4023c0,54 -10,105 -30,153 -20,47 -49,90 -88,127 -38,38 -82,66 -132,87 -50,20 -101,30 -154,30 -55,0 -106,-10 -156,-30 -49,-21 -93,-49 -130,-87 -39,-37 -69,-80 -89,-128 -20,-48 -30,-98 -30,-152 0,-54 10,-105 30,-153 20,-48 50,-90 89,-128 37,-37 81,-66 130,-86 50,-20 101,-30 156,-30 53,0 105,10 155,30 50,20 93,49 131,86 38,37 67,80 87,128 21,48 31,99 31,153zm-405 222c57,0 105,-21 142,-63 38,-42 56,-95 56,-159 0,-64 -19,-116 -57,-159 -38,-42 -85,-63 -141,-63 -57,0 -104,21 -142,63 -37,42 -56,95 -56,159 0,65 19,118 56,159 36,42 84,63 142,63zm150 -864l-160 181 -80 0 94 -181 146 0z"/>
  <path id="5" class="fil13" d="M11697 4400l0 -757 199 0 286 389c5,8 14,24 27,48 12,24 26,52 41,86 -4,-32 -7,-60 -9,-84 -2,-25 -2,-46 -2,-65l0 -374 197 0 0 757 -197 0 -286 -391c-6,-8 -16,-24 -28,-48 -13,-24 -26,-52 -41,-85 4,32 7,60 9,85 2,24 3,46 3,65l0 374 -199 0z"/>
  <path id="6" class="fil13" d="M12930 4400l0 -757 157 0c118,0 201,5 250,16 48,11 91,30 128,56 48,33 84,76 109,128 25,52 37,112 37,179 0,67 -12,126 -37,178 -25,52 -61,95 -109,129 -37,25 -78,43 -125,54 -47,11 -119,17 -218,17l-35 0 -157 0zm204 -170l34 0c81,0 141,-16 178,-50 37,-33 56,-86 56,-158 0,-72 -19,-125 -56,-159 -37,-34 -97,-51 -178,-51l-34 0 0 418z"/>
  <polygon id="7" class="fil13" points="13741,4400 13741,3643 14204,3643 14204,3809 13942,3809 13942,3940 14189,3940 14189,4102 13942,4102 13942,4230 14204,4230 14204,4400 "/>
  <polygon id="8" class="fil13" points="7381,5669 7381,4913 7587,4913 7587,5492 7843,5492 7843,5669 "/>
  <path id="9" class="fil13" d="M8702 5292c0,55 -10,106 -30,153 -20,48 -49,91 -87,128 -39,37 -83,66 -132,86 -50,20 -101,30 -155,30 -54,0 -106,-10 -155,-30 -49,-20 -93,-49 -130,-86 -39,-37 -69,-80 -89,-128 -20,-48 -30,-99 -30,-153 0,-54 10,-104 30,-152 20,-48 50,-91 89,-128 37,-37 81,-66 130,-86 49,-20 101,-30 155,-30 54,0 106,10 156,30 49,20 93,49 131,86 38,37 67,80 87,128 20,47 30,98 30,152zm-404 223c57,0 104,-21 142,-63 37,-42 56,-96 56,-160 0,-63 -19,-116 -57,-158 -38,-43 -85,-64 -141,-64 -57,0 -104,21 -142,64 -37,42 -56,95 -56,158 0,65 18,118 55,160 37,42 85,63 143,63z"/>
  <path id="10" class="fil13" d="M8865 5425c31,34 61,60 91,78 30,17 59,25 89,25 27,0 50,-7 68,-22 18,-15 26,-33 26,-56 0,-25 -7,-44 -23,-58 -15,-14 -49,-28 -103,-42 -74,-20 -127,-46 -158,-78 -30,-32 -46,-76 -46,-132 0,-72 24,-131 73,-177 48,-46 111,-68 188,-68 42,0 82,5 119,16 37,12 73,29 106,51l-64 148c-24,-20 -48,-34 -73,-45 -24,-10 -48,-15 -73,-15 -24,0 -44,6 -60,18 -15,12 -23,27 -23,46 0,18 7,34 20,45 14,11 40,22 79,33l9 2c84,23 140,48 166,75 18,19 32,41 41,67 9,26 14,55 14,87 0,80 -26,144 -79,193 -53,49 -123,73 -211,73 -53,0 -101,-9 -144,-26 -43,-18 -85,-47 -125,-85l93 -153z"/>
  <path id="11" class="fil13" d="M9978 5387l205 0 -77 -250c-2,-8 -6,-20 -10,-37 -4,-17 -9,-38 -16,-65 -4,19 -9,36 -13,53 -4,17 -9,33 -13,49l-76 250zm-289 282l261 -756 258 0 262 756 -205 0 -39 -135 -293 0 -39 135 -205 0z"/>
  <path id="12" class="fil13" d="M11072 4942l0 226c-29,-32 -57,-55 -85,-69 -28,-15 -58,-22 -90,-22 -59,0 -107,20 -144,60 -37,41 -55,93 -55,158 0,61 19,111 56,151 37,40 85,60 143,60 32,0 62,-7 90,-22 28,-14 56,-37 85,-69l0 226c-33,16 -66,28 -98,35 -32,8 -65,12 -98,12 -41,0 -80,-5 -115,-14 -34,-10 -67,-25 -96,-45 -56,-38 -99,-86 -129,-143 -30,-58 -44,-123 -44,-195 0,-57 9,-110 28,-157 19,-48 47,-91 85,-129 35,-37 76,-65 121,-83 45,-18 95,-27 150,-27 33,0 66,3 98,11 32,8 65,20 98,36z"/>
  <path id="13" class="fil13" d="M11184 4913l205 0 0 368c0,54 1,93 4,116 3,24 8,43 14,59 8,20 22,34 42,45 19,10 43,15 71,15 29,0 52,-5 72,-15 19,-11 33,-25 41,-45 7,-16 12,-35 14,-59 3,-23 5,-62 5,-116l0 -52 0 -316 205 0 0 400c0,83 -5,144 -15,183 -10,40 -27,73 -51,101 -26,31 -61,54 -106,69 -45,16 -100,23 -164,23 -65,0 -120,-7 -165,-23 -45,-15 -81,-38 -107,-69 -23,-28 -40,-61 -50,-101 -10,-39 -15,-100 -15,-183l0 -79 0 -321z"/>
  <polygon id="14" class="fil13" points="12013,5669 12013,4913 12477,4913 12477,5079 12214,5079 12214,5210 12462,5210 12462,5372 12214,5372 12214,5500 12477,5500 12477,5669 "/>
  <path id="15" class="fil13" d="M12613 5669l0 -756 216 0c84,0 143,3 177,11 33,8 61,21 86,39 27,21 48,47 62,79 15,32 22,68 22,106 0,59 -14,106 -43,143 -29,37 -71,61 -126,73l206 305 -233 0 -173 -296 0 296 -194 0zm194 -399l38 0c44,0 77,-7 97,-23 21,-15 31,-39 31,-71 0,-38 -9,-65 -29,-81 -19,-16 -51,-24 -96,-24l-41 0 0 199z"/>
  <path id="16" class="fil13" d="M13292 5669l0 -756 157 0c118,0 201,5 250,16 49,11 91,30 128,55 48,34 84,77 109,129 25,52 37,112 37,178 0,67 -12,127 -37,179 -25,52 -61,95 -109,128 -36,26 -78,44 -125,55 -47,11 -119,16 -218,16l-35 0 -157 0zm204 -169l35 0c81,0 140,-17 177,-50 37,-33 56,-86 56,-158 0,-73 -19,-126 -56,-160 -37,-33 -96,-50 -177,-50l-35 0 0 418z"/>
  <path id="17" class="fil13" d="M14879 5292c0,55 -10,106 -30,153 -19,48 -49,91 -87,128 -38,37 -83,66 -132,86 -50,20 -101,30 -154,30 -55,0 -106,-10 -156,-30 -49,-20 -93,-49 -130,-86 -39,-37 -69,-80 -89,-128 -20,-48 -30,-99 -30,-153 0,-54 10,-104 30,-152 20,-48 50,-91 89,-128 37,-37 81,-66 130,-86 50,-20 101,-30 156,-30 53,0 105,10 155,30 49,20 93,49 131,86 38,37 67,80 87,128 20,47 30,98 30,152zm-404 223c57,0 105,-21 142,-63 37,-42 56,-96 56,-160 0,-63 -19,-116 -57,-158 -38,-43 -85,-64 -141,-64 -57,0 -104,21 -142,64 -37,42 -56,95 -56,158 0,65 19,118 55,160 37,42 85,63 143,63z"/>
  <path id="18" class="fil13" d="M15042 5425c31,34 61,60 91,78 30,17 59,25 89,25 28,0 50,-7 68,-22 18,-15 27,-33 27,-56 0,-25 -8,-44 -23,-58 -16,-14 -50,-28 -104,-42 -74,-20 -127,-46 -158,-78 -30,-32 -46,-76 -46,-132 0,-72 25,-131 73,-177 48,-46 111,-68 188,-68 42,0 82,5 119,16 38,12 73,29 106,51l-64 148c-24,-20 -48,-34 -72,-45 -25,-10 -49,-15 -73,-15 -25,0 -45,6 -61,18 -15,12 -23,27 -23,46 0,18 7,34 20,45 14,11 40,22 79,33l9 2c84,23 140,48 166,75 18,19 32,41 41,67 10,26 14,55 14,87 0,80 -26,144 -79,193 -53,49 -123,73 -211,73 -53,0 -101,-9 -144,-26 -43,-18 -85,-47 -125,-85l93 -153z"/>
 </g>
</svg>
