<?xml version="1.0" encoding="UTF-8"?>
<!DOCTYPE svg PUBLIC "-//W3C//DTD SVG 1.1//EN" "http://www.w3.org/Graphics/SVG/1.1/DTD/svg11.dtd">
<!-- Creator: CorelDRAW X7 -->
<svg xmlns="http://www.w3.org/2000/svg" xml:space="preserve" width="190.5mm" height="338.667mm" version="1.1" style="shape-rendering:geometricPrecision; text-rendering:geometricPrecision; image-rendering:optimizeQuality; fill-rule:evenodd; clip-rule:evenodd"
viewBox="0 0 19050 33867"
 xmlns:xlink="http://www.w3.org/1999/xlink">
 <defs>
  <style type="text/css">
   <![CDATA[
    .str1 {stroke:#575756;stroke-width:246.94}
    .str3 {stroke:#61C5C3;stroke-width:246.94}
    .str4 {stroke:white;stroke-width:246.94}
    .str0 {stroke:#3C3C3B;stroke-width:106.57}
    .str2 {stroke:#575756;stroke-width:246.94;stroke-linecap:round}
    .fil2 {fill:none;fill-rule:nonzero}
    .fil0 {fill:#FEFEFE;fill-rule:nonzero}
    .fil1 {fill:#3C3C3B;fill-rule:nonzero}
    .fil4 {fill:#61C5C3;fill-rule:nonzero}
    .fil3 {fill:white;fill-rule:nonzero}
   ]]>
  </style>
 </defs>
 <g id="Capa_x0020_1">
  <metadata id="CorelCorpID_0Corel-Layer"/>
  <polygon class="fil0" points="0,33867 19050,33867 19050,0 0,0 "/>
  <g id="_56067856032">
   <path class="fil1" d="M6674 15189l0 1029c0,4 -4,8 -8,8l-114 6c-2,42 -2,86 -2,126 72,0 156,-2 232,-2 108,0 232,2 324,2 2,-42 2,-86 2,-126l-206 -4 2 -353c16,2 58,2 88,2 90,0 202,-16 282,-56 135,-60 243,-206 243,-376 0,-152 -98,-306 -261,-356 -106,-32 -188,-34 -312,-34 -136,0 -280,2 -394,4 0,40 -2,84 -2,126l126 4zm234 -4c12,-6 40,-8 86,-8 172,0 288,110 288,288 0,94 -32,182 -106,232 -46,34 -114,52 -180,52 -44,0 -86,-2 -92,-18l4 -546zm1003 -132c-90,0 -144,64 -144,132 0,76 64,134 136,134 78,0 140,-56 140,-138 0,-60 -40,-128 -132,-128zm-100 606l0 565c0,4 -2,8 -8,8l-122 6c-2,38 -2,80 -2,120 74,0 162,-2 236,-2 80,0 176,0 244,0 2,-38 2,-80 2,-120l-128 -4c0,-208 4,-527 4,-745 0,-4 0,-6 -2,-6 -18,0 -270,42 -366,52 0,38 -2,82 0,120l142 6zm572 -528c0,329 0,761 0,1093 0,4 -4,8 -8,8l-122 6c0,38 -2,82 -2,120 74,0 164,-2 242,-2 86,0 180,0 252,0 0,-38 0,-80 0,-120l-138 -4c2,-388 6,-918 8,-1267 0,-6 -2,-8 -6,-8 -18,0 -276,40 -372,50 -2,38 -4,80 -4,120l150 4zm1011 1155c28,40 50,72 70,90 120,0 244,-22 274,-32 2,-38 0,-82 0,-118l-122 4c-10,2 -14,-6 -14,-24 0,-84 4,-301 4,-411 0,-200 -134,-314 -286,-314 -172,0 -300,86 -409,184 25,36 55,74 83,104 74,-66 168,-124 246,-124 108,0 154,74 148,238 -20,0 -62,0 -122,0 -288,0 -413,169 -413,281 0,120 137,212 239,212 72,0 156,-20 292,-90l10 0zm-314 -146c0,-78 66,-146 224,-146 40,0 72,2 82,2 0,54 0,116 0,158 0,6 0,10 -4,14 -58,40 -130,66 -186,66 -62,0 -116,-38 -116,-94zm896 -487c0,176 0,390 0,573 0,4 -4,8 -8,8l-106 6c-2,36 -2,80 -2,118 72,0 162,-2 238,-2 92,0 198,0 276,0 2,-38 2,-80 2,-118l-178 -6c0,-50 0,-117 2,-171 0,-62 8,-130 32,-176 46,-88 82,-138 120,-168 24,-20 42,-24 62,-24 42,0 95,14 113,18 28,-24 72,-142 72,-206 -34,-16 -84,-26 -129,-26 -92,0 -152,42 -270,272l-12 -2c-4,-98 -8,-196 -12,-262 0,-4 -2,-6 -4,-6 -10,0 -242,40 -328,52 -2,38 -2,78 -2,116l134 4zm693 315c0,256 168,408 430,408 90,0 234,-34 348,-88 -6,-38 -18,-84 -30,-122 -66,26 -182,60 -270,60 -70,0 -130,-8 -184,-66 -38,-42 -60,-106 -60,-198 148,0 388,0 476,-6 20,-2 80,-65 86,-91 0,-106 -26,-206 -88,-280 -52,-64 -136,-104 -250,-104 -276,0 -458,218 -458,487zm428 -363c52,0 88,24 114,60 22,34 40,94 40,150 0,14 -8,22 -22,22 -92,4 -226,6 -322,6 2,-92 38,-146 64,-180 32,-40 72,-58 126,-58zm654 463c-44,6 -92,14 -134,24 10,82 20,166 30,248 54,20 148,36 250,36 110,0 207,-18 265,-50 94,-52 148,-134 148,-232 0,-156 -106,-205 -249,-245 -156,-46 -192,-60 -192,-124 0,-46 20,-74 44,-90 24,-18 64,-28 102,-28 38,0 75,8 101,26 6,6 10,14 12,22l30 118c46,-6 94,-14 134,-20 -6,-80 -14,-160 -24,-240 -26,-12 -106,-32 -213,-32 -110,0 -196,22 -256,54 -74,38 -146,118 -146,222 0,118 74,191 244,241 152,44 195,58 195,138 0,46 -24,74 -51,90 -34,22 -72,24 -118,24 -46,0 -94,-14 -126,-36 -10,-8 -12,-14 -16,-24l-30 -122z"/>
   <polygon class="fil2 str0" points="6442,16556 6442,16556 12420,16556 "/>
   <path class="fil2 str1" d="M15738 16036c0,3431 -2782,6213 -6213,6213 -3431,0 -6213,-2782 -6213,-6213 0,-3432 2782,-6213 6213,-6213 3431,0 6213,2781 6213,6213z"/>
   <polyline class="fil2 str2" points="15381,12855 15307,13703 14543,13329 "/>
  </g>
  <g id="_56067855232">
   <path class="fil3" d="M15858 17959c-1129,0 -2044,-914 -2044,-2043 0,-1128 915,-2043 2044,-2043 1128,0 2043,915 2043,2043 0,1129 -915,2043 -2043,2043z"/>
   <path class="fil2 str3" d="M15858 17959c-1129,0 -2044,-914 -2044,-2043 0,-1128 915,-2043 2044,-2043 1128,0 2043,915 2043,2043 0,1129 -915,2043 -2043,2043z"/>
   <path class="fil4" d="M17140 15651l-546 -546c-8,-8 -18,-12 -30,-12 -11,0 -21,4 -29,12l-222 222c-8,8 -12,18 -12,30 0,11 4,21 12,29l27 27c-19,12 -40,18 -62,18 -30,0 -59,-12 -81,-33 -37,-38 -87,-58 -140,-58 -52,0 -102,20 -139,58l-29 28 -44 -44c-37,-38 -87,-58 -140,-58 -53,0 -102,20 -140,58 -21,21 -50,33 -80,33 -23,0 -44,-6 -62,-18l27 -27c16,-16 16,-43 0,-59l-222 -222c-8,-7 -17,-12 -28,-12l-4 0c-11,0 -20,5 -28,12l-546 546c-16,17 -16,43 0,59l103 103c39,40 92,62 149,62 42,0 82,-13 116,-35l251 250 -30 30c-57,57 -57,150 0,207 28,27 66,43 105,42l0 2c0,39 15,75 43,103 27,28 65,43 104,43 0,37 14,75 43,104 28,28 65,43 104,43 0,38 14,76 43,104 28,28 64,43 103,43 40,0 76,-15 104,-43l29 -29 46 46c27,26 62,41 100,42l7 0c37,-1 73,-16 100,-42 28,-29 42,-67 42,-105l2 0c39,0 75,-15 103,-43 27,-27 43,-64 43,-103 0,0 -1,-1 -1,-1 1,0 1,0 2,0 39,0 76,-15 103,-43 29,-29 43,-67 43,-105 0,0 1,0 1,0 39,0 76,-15 103,-42 57,-57 57,-150 0,-207l-45 -46 234 -234c35,22 75,35 117,35 56,0 109,-22 149,-62l102 -103c8,-7 12,-17 13,-27l0 -4c-1,-10 -5,-20 -13,-28zm-341 103l-369 -369 0 0 -28 -28 162 -163 487 487 -72 73c-24,24 -56,37 -90,37 -34,0 -66,-13 -90,-37zm-275 513c-12,12 -27,19 -44,19 -16,0 -32,-7 -44,-19l-45 -45 -30 -30 -30 -30 -73 -73c-24,-24 -24,-63 0,-88 12,-11 28,-18 44,-18 17,0 33,7 44,18l73 73 30 30 30 30 45 45c24,25 24,64 0,88zm-147 148c-12,11 -27,18 -44,18 -17,0 -32,-7 -44,-18l-46 -46 -29 -30 -30 -29 -73 -73c-24,-24 -24,-64 0,-88 12,-12 27,-18 44,-18 17,0 32,6 44,18l73 73 30 29 29 30 46 46c24,24 24,64 0,88zm-129 103c0,17 -7,32 -18,44 -12,12 -28,18 -44,18 -17,0 -33,-6 -44,-18l-46 -46 -30 -29 -29 -30 -73 -73 0 0c-12,-12 -19,-27 -19,-44 0,-17 7,-32 19,-44 11,-12 27,-18 44,-18 16,0 32,6 44,18l73 73 29 30 30 29 46 46 0 0c11,12 18,27 18,44zm-166 191c-11,12 -27,19 -44,19 -16,0 -32,-7 -44,-19l-45 -45 -30 -30 -30 -30 -73 -73c-24,-24 -24,-63 0,-88 12,-11 28,-18 44,-18 17,0 33,7 44,18l73 73 30 30 30 30 45 45c25,25 25,64 0,88zm324 -767c-28,-27 -65,-43 -104,-43 -39,0 -75,16 -103,43 -29,29 -43,67 -43,105 0,0 -1,0 -1,0 -39,0 -76,15 -103,42 -29,29 -43,67 -43,105 0,0 -1,0 -1,0 -39,0 -76,15 -104,43 -27,27 -42,64 -42,103l0 1c-1,0 -1,0 -2,0 -39,0 -75,16 -103,43 -57,57 -57,150 0,207l73 73 -29 29c-12,12 -28,19 -44,19 -17,0 -33,-7 -44,-19 -25,-24 -25,-63 0,-88 8,-8 12,-19 12,-29 0,-11 -4,-22 -12,-30 -17,-16 -43,-16 -60,0 -12,12 -27,18 -44,18 -16,0 -32,-6 -44,-18 -12,-12 -18,-27 -18,-44 0,-17 6,-32 18,-44 8,-8 13,-19 13,-30 0,-10 -5,-21 -13,-29 -16,-17 -43,-17 -59,0 -12,12 -27,18 -44,18 -17,0 -32,-7 -44,-18 -24,-25 -24,-64 0,-88 8,-8 12,-19 12,-30 0,-11 -4,-21 -12,-30 -16,-16 -43,-16 -59,0 -12,12 -28,19 -44,19 -17,0 -33,-7 -44,-19 -25,-24 -25,-63 0,-88l59 -59 0 0 301 -301c16,-12 36,-18 56,-18 26,0 50,10 69,28l129 130c38,37 88,58 141,58 52,0 102,-20 139,-57l92 -91c8,-8 12,-19 12,-30 0,-11 -4,-21 -12,-29l-308 -309 28 -28c21,-22 50,-33 80,-33 31,0 59,11 81,33 37,37 87,58 140,58 45,0 87,-15 122,-42l310 310 -231 232 -73 -73zm-847 -188l-259 261 -248 -248 311 -310c34,27 77,42 122,42 52,0 102,-21 139,-58 22,-22 51,-34 81,-34 31,0 59,12 81,34l44 44 30 30 29 30 279 278 -62 61c-22,21 -50,33 -80,33 -31,0 -60,-12 -81,-33l-130 -130c-24,-24 -54,-41 -87,-48 -13,-3 -27,-5 -41,-5 -5,0 -9,0 -14,1 -35,2 -70,16 -98,38 -5,4 -11,9 -16,14zm-685 21c-34,0 -66,-13 -90,-37l-73 -73 487 -487 163 162 -29 29 0 0 -369 369c-24,24 -56,37 -89,37z"/>
  </g>
  <g id="pilar1" xlink:href="http://www.w3.org/">
   <path class="fil4" d="M11568 9583c0,1129 -914,2044 -2043,2044 -1129,0 -2043,-915 -2043,-2044 0,-1128 914,-2043 2043,-2043 1129,0 2043,915 2043,2043z"/>
   <path class="fil2 str4" d="M11568 9583c0,1129 -914,2044 -2043,2044 -1129,0 -2043,-915 -2043,-2044 0,-1128 914,-2043 2043,-2043 1129,0 2043,915 2043,2043z"/>
   <path class="fil3" d="M9240 9433l-121 0c-23,-183 -179,-325 -368,-325 -188,0 -344,142 -367,325l-139 0c-25,0 -45,20 -46,44l0 200c1,24 21,44 46,44l106 0c-4,23 -6,46 -6,69 0,85 25,163 69,228l-159 135c-18,15 -21,40 -9,59l215 330c8,13 22,21 36,21 1,0 2,0 2,0 14,0 28,-6 36,-18l212 -276 212 276c9,12 22,18 36,18 1,0 2,0 2,0 15,0 28,-8 36,-21l216 -330c12,-19 8,-44 -9,-59l-153 -130c46,-66 73,-146 73,-233 0,-23 -2,-46 -6,-69l86 0c25,0 45,-21 45,-46l0 -196c0,-25 -20,-46 -45,-46zm-489 -234c139,0 255,102 276,234l-551 0c21,-132 137,-234 275,-234zm-249 1240l-158 -243 129 -109c5,5 11,10 16,14 3,3 5,5 8,7 7,6 15,12 23,17 4,3 7,5 11,8 6,4 13,8 19,11 4,2 7,5 11,7 10,5 19,9 29,13 4,2 8,3 12,5 7,3 15,6 22,8 4,2 7,3 11,4 10,3 20,6 30,8l20 12 -183 238zm490 0l-183 -238 16 -9c9,-2 17,-4 26,-6 2,-1 3,-1 5,-1 25,-7 50,-16 74,-28 2,-1 3,-1 5,-2 7,-4 14,-8 22,-12 2,-1 4,-2 6,-4 12,-7 23,-15 35,-23 2,-2 5,-4 8,-7 5,-4 10,-8 15,-12 2,-2 4,-3 6,-5l124 104 -159 243zm78 -649c0,82 -31,156 -82,213 -5,5 -11,11 -16,16 -1,1 -2,1 -2,2 -47,44 -105,73 -168,82 0,0 0,0 0,0 -16,3 -33,5 -50,5 -21,0 -42,-3 -62,-7 -4,0 -7,-1 -11,-2 -6,-2 -11,-3 -17,-5 -4,-1 -9,-3 -13,-4 -5,-2 -9,-3 -14,-5 -5,-2 -9,-4 -14,-6 -4,-2 -8,-4 -11,-6 -5,-2 -10,-5 -14,-7 -4,-2 -7,-4 -11,-7 -4,-2 -9,-5 -13,-8 -4,-3 -7,-5 -10,-8 -4,-3 -9,-6 -13,-10 -3,-2 -6,-5 -9,-7 -7,-7 -14,-14 -21,-21 -52,-57 -84,-132 -84,-215 0,-23 3,-46 8,-69l619 0c5,23 8,46 8,69zm124 -160l-65 0 -753 0 -86 0 0 -106 91 0 741 0 72 0 0 106z"/>
   <path class="fil3" d="M10837 9185l-590 -569c-2,-2 -5,-3 -7,-5 -3,-1 -4,-3 -7,-4 -2,-1 -5,-1 -8,-2 -3,0 -6,-1 -9,-1 0,0 0,0 0,0l-975 0 -1 0c-12,0 -23,4 -31,13l-494 493c12,-1 24,-2 36,-2 29,0 57,4 84,10l424 -424 842 0 -472 443 -736 0c50,21 94,52 130,91l578 0 0 710 -468 0c-12,30 -28,59 -46,85l6 6 954 0 394 0 364 0c25,0 45,-20 46,-45l0 -768c-1,-12 -6,-23 -14,-31zm-441 753l-304 0 0 -539 304 0 0 539zm364 0l-274 0 0 -584c0,-26 -20,-46 -45,-46l-394 0c-25,0 -45,20 -45,46l0 584 -310 0 0 -736 523 -491 545 526 0 701z"/>
   <path class="fil4" d="M9857 5341c197,0 277,139 179,309l-436 756c-99,170 -259,170 -357,0l-437 -756c-98,-170 -18,-309 179,-309l872 0z"/>
  </g>
  <g id="_56067857280">
   <path class="fil3" d="M11568 22249c0,1128 -914,2043 -2043,2043 -1129,0 -2043,-915 -2043,-2043 0,-1129 914,-2043 2043,-2043 1129,0 2043,914 2043,2043z"/>
   <path class="fil2 str3" d="M11568 22249c0,1128 -914,2043 -2043,2043 -1129,0 -2043,-915 -2043,-2043 0,-1129 914,-2043 2043,-2043 1129,0 2043,914 2043,2043z"/>
   <path class="fil4" d="M10949 22461c0,0 0,-1 0,-1 0,-2 0,-3 -1,-5l-98 -484 90 -114c6,-7 11,-15 11,-25 0,-13 -8,-25 -19,-31l-236 -180c-8,-6 -17,-9 -27,-9 -9,0 -18,3 -26,9l-240 182c0,1 -1,1 -1,2 0,0 -1,0 -1,1 -33,30 -66,57 -99,84 -5,2 -9,6 -12,10 -269,212 -545,312 -821,298 -457,-24 -769,-359 -795,-387 -3,-4 -7,-8 -11,-10l-236 -180c-8,-6 -17,-9 -27,-9 -9,0 -18,3 -26,9l-240 182c0,1 -1,2 -1,2 -2,2 -3,3 -5,5 -1,1 -2,2 -3,4 0,1 -1,1 -1,2 -1,1 -1,2 -1,3 -1,2 -2,3 -2,5 0,2 -1,4 -1,6 0,2 0,3 0,5 0,2 1,4 2,6 0,2 0,3 0,4 0,0 1,0 1,0 1,3 2,5 4,7 1,1 1,2 1,3 1,0 1,0 1,0l105 120 -133 484c0,0 0,0 0,0 -1,2 -1,4 -1,6 0,1 -1,2 -1,2l0 0 0 383c1,20 19,36 41,36l500 0c23,0 41,-17 41,-38l0 -190 1687 0 0 190c0,21 19,38 41,38l500 0c23,0 41,-17 41,-38l0 -375c0,-2 1,-4 1,-5 0,-3 -1,-5 -2,-7zm-89 -30l-399 0 125 -455c4,-12 1,-24 -7,-33l-65 -74 316 0 -56 71c-6,8 -9,19 -7,29l93 462zm-705 0l0 -345c42,-25 85,-53 127,-84l0 429 -127 0zm-206 0l0 -242c41,-17 83,-36 124,-58l0 300 -124 0zm-197 0l0 -182c38,-8 77,-19 115,-31l0 213 -115 0zm-188 0l0 -159c35,-1 71,-4 106,-9l0 168 -106 0zm799 -492c21,-16 42,-34 62,-52l77 88 -125 456 -14 0 0 -492zm306 -241l128 97 -255 0 127 -97zm-1187 574l0 159 -92 0 0 -166c24,3 49,5 73,7 7,0 13,0 19,0zm-298 159l0 -210c40,12 81,23 124,31l0 179 -124 0zm-205 0l0 -295c39,20 80,39 124,56l0 239 -124 0zm-205 0l0 -426c36,28 77,56 123,85l0 341 -123 0zm-100 0l-92 -460 61 -79c13,13 30,28 50,46l0 493 -19 0zm-273 -733l127 97 -255 0 128 -97zm-83 278c3,-12 0,-24 -8,-33l-65 -74 316 0 -56 71c-6,8 -9,19 -7,29l93 462 -399 0 126 -455zm282 835l-419 0 0 -306 419 0 0 306zm81 -306l1687 0 0 79 -1687 0 0 -79zm2187 306l-418 0 0 -306 418 0 0 306z"/>
   <polyline class="fil2 str2" points="12527,22058 11703,21844 12199,21152 "/>
  </g>
  <g id="_56067861120">
   <path class="fil3" d="M3192 17959c-1128,0 -2043,-914 -2043,-2043 0,-1128 915,-2043 2043,-2043 1129,0 2044,915 2044,2043 0,1129 -915,2043 -2044,2043z"/>
   <path class="fil2 str3" d="M3192 17959c-1128,0 -2043,-914 -2043,-2043 0,-1128 915,-2043 2043,-2043 1129,0 2044,915 2044,2043 0,1129 -915,2043 -2044,2043z"/>
   <path class="fil4" d="M4309 16767l-1146 0 0 -413c0,-32 -3,-63 -9,-94l1155 0c25,0 45,-20 45,-44 0,-25 -20,-45 -45,-45l-406 0c0,0 0,0 1,-1 79,-90 61,-235 60,-241 -2,-17 -16,-29 -33,-29 -8,0 -15,1 -23,1 -38,-70 -111,-115 -193,-115 -35,0 -69,8 -99,24 -1,0 -2,0 -2,1 -39,20 -71,51 -92,90 -7,-1 -14,-1 -20,-1 -17,0 -31,12 -33,29 -1,6 -20,151 60,241 0,1 0,1 1,1l-403 0c-30,-75 -79,-143 -143,-195 195,-76 316,-217 316,-374 0,-10 -1,-20 -2,-31l1011 0c22,0 39,-17 39,-39 0,-21 -17,-39 -39,-39l-263 0 0 -175c8,-81 43,-204 93,-211 11,-1 21,-9 26,-19 5,-11 3,-23 -3,-33l-36 -53c-6,-8 -15,-14 -26,-14 -3,-1 -77,-4 -141,77 -63,-81 -136,-78 -141,-77 -12,1 -22,8 -28,18l-20 42c-5,10 -5,21 0,31 5,9 15,16 25,17 49,7 72,136 73,221l0 176 -284 0 0 -175c8,-81 43,-204 93,-211 11,-1 21,-9 26,-19 4,-11 3,-23 -3,-33l-36 -53c-6,-8 -15,-14 -26,-14 -3,-1 -77,-4 -141,77 -63,-81 -136,-78 -141,-77 -12,1 -23,8 -28,18l-20 42c-5,10 -5,21 0,31 5,9 14,16 25,17 48,7 72,136 73,221l0 176 -127 0c-44,-116 -159,-213 -311,-270 -56,-111 -171,-181 -296,-181 -122,0 -235,68 -293,175 -207,72 -348,217 -348,385 0,161 125,304 326,378 -109,92 -174,229 -174,374l0 451c0,21 18,39 39,39l463 0c3,0 5,1 7,1l0 0 1 0 2 0 0 0 0 0c2,0 5,-1 7,-1l414 0c2,0 4,1 7,1l0 0 0 0 1187 0c21,-1 38,-18 38,-39 0,-22 -17,-39 -39,-39zm-227 -1711l2 3c-33,24 -56,64 -72,107 -4,-14 -10,-26 -15,-38 32,-51 66,-67 85,-72zm-109 227l-39 0c-3,-54 -15,-148 -56,-205 34,26 75,84 95,205zm-38 67l44 0 0 143 -44 0 0 -143zm-315 -294l2 3c-33,24 -56,64 -72,107 -5,-14 -10,-26 -15,-38 31,-51 66,-67 85,-72zm-109 227l-39 0c-3,-54 -15,-148 -56,-205 34,26 74,84 95,205zm-38 67l44 0 0 143 -44 0 0 -143zm426 618c1,41 -5,112 -46,159 -7,7 -14,14 -23,20 -9,-35 -28,-85 -66,-132 37,-27 83,-42 135,-47zm-64 -57c-20,5 -39,12 -57,20 -16,-34 -36,-59 -57,-78 45,2 87,23 114,58zm-201 -35c21,9 63,33 86,89 -1,1 -3,2 -4,3 -32,-25 -71,-46 -121,-58 11,-13 24,-25 39,-34zm-55 251c-41,-47 -46,-118 -46,-159 73,6 124,34 160,68 45,44 65,98 73,131 -8,2 -17,3 -25,4l-77 0c-36,-6 -63,-20 -85,-44zm-890 254l-147 -315c41,15 86,24 131,24 60,0 119,-15 171,-42l-155 333zm196 -236l0 238 -111 0 111 -238zm-457 -261c-3,-4 -6,-9 -10,-14 -2,-4 -4,-7 -6,-11 -3,-5 -6,-11 -9,-16 -1,-4 -3,-8 -5,-11 -2,-6 -5,-12 -7,-18 -1,-4 -3,-7 -4,-11 -2,-6 -4,-13 -5,-20 -1,-3 -2,-6 -3,-9 -1,-8 -3,-16 -3,-23 -1,-3 -1,-5 -2,-8 -1,-10 -1,-21 -1,-31 0,-165 133,-298 297,-298 165,0 298,133 298,298 0,10 0,21 -1,31 -1,2 -1,3 -1,5 -1,9 -3,17 -4,26 -1,2 -1,3 -2,4 -2,9 -4,18 -7,26 0,2 -1,3 -1,5 -3,8 -6,16 -10,24 -1,2 -1,3 -2,5 -4,8 -8,15 -12,23 -1,1 -2,3 -3,5 -5,7 -9,14 -14,21 -1,1 -3,3 -4,5 -5,6 -10,13 -16,19 -1,1 -3,3 -4,4 -6,7 -13,13 -19,19 -53,47 -122,75 -198,75 -59,0 -114,-17 -160,-47 -4,-3 -9,-6 -13,-9 -1,0 -2,-1 -3,-2 -7,-5 -13,-11 -20,-16 0,-1 -1,-1 -2,-2 0,0 -1,-1 -2,-2 -5,-4 -10,-9 -14,-13 -3,-3 -6,-6 -8,-9 -4,-5 -8,-10 -12,-14 -3,-4 -5,-7 -8,-11zm65 261l111 238 -111 0 0 -238zm9 -960c46,-41 107,-65 170,-65 66,0 128,25 174,68 -6,-1 -12,-2 -18,-3 -3,0 -6,-1 -9,-1 -9,-2 -17,-3 -25,-4 -11,-2 -22,-3 -32,-4 -6,-1 -11,-1 -17,-2 -8,0 -17,-1 -25,-1 -5,-1 -10,-1 -15,-1 -13,-1 -26,-1 -40,-1 -12,0 -25,0 -37,1 -5,0 -10,0 -15,0 -7,1 -14,1 -21,2 -6,0 -12,1 -19,1 -4,1 -9,1 -13,2 -19,2 -39,5 -58,8zm-393 417c0,-138 125,-258 308,-316 0,0 1,0 2,0 38,-12 77,-21 118,-27 1,-1 2,-1 3,-1 19,-3 39,-5 58,-6 2,-1 3,-1 5,-1 21,-1 41,-2 62,-2 11,0 22,0 33,1 2,0 4,0 6,0 9,0 19,1 28,1 1,1 2,1 3,1 67,5 133,19 192,39 1,1 2,0 3,1 174,60 292,176 292,310 0,111 -82,213 -216,279 3,-6 6,-13 9,-20 2,-3 3,-7 5,-11 2,-6 5,-13 7,-20 1,-3 2,-6 3,-9 3,-10 5,-19 7,-28 1,-4 2,-7 2,-10 2,-10 4,-20 5,-30 0,-3 0,-5 1,-7 1,-12 1,-23 1,-34l0 0c0,-208 -168,-376 -375,-376 -208,0 -376,168 -376,376l0 0c0,11 0,23 1,34 0,2 1,4 1,7 1,11 3,21 5,31 0,3 1,5 1,8 2,9 5,19 8,28 0,2 0,3 1,4 3,10 7,20 11,30 1,2 2,5 3,7 4,9 8,18 12,27 -141,-66 -229,-172 -229,-286zm152 752c0,-125 58,-243 154,-320l0 389c0,21 17,39 39,39l201 0 0 304 -394 0 0 -412zm824 412l-352 0 0 -304 191 0c22,0 39,-18 39,-39l0 -361c77,76 122,181 122,292l0 412z"/>
   <path class="fil4" d="M4080 16520c0,-19 -15,-34 -33,-34l-41 0c7,-14 11,-32 11,-55 0,-19 -15,-34 -33,-34 -19,0 -34,15 -34,34 0,19 -4,32 -14,41 -5,6 -12,9 -19,11 -15,-48 -59,-83 -112,-85 -3,-1 -7,0 -10,1l-309 89c-15,4 -24,17 -24,32 0,15 9,28 24,32l309 89c3,1 6,1 9,1 0,0 1,0 1,0 53,-2 97,-37 112,-85 6,2 13,5 19,10 10,9 14,23 14,42 0,18 15,33 34,33 18,0 33,-15 33,-33 0,-23 -4,-41 -11,-56l41 0c18,0 33,-15 33,-33zm-273 55l-191 -55 191 -55c28,3 49,27 49,55 0,28 -21,51 -49,55z"/>
   <polyline class="fil2 str2" points="3454,18927 3652,18100 4354,18582 "/>
  </g>
 </g>
</svg>
