<?xml version="1.0" encoding="UTF-8"?>
<!DOCTYPE svg PUBLIC "-//W3C//DTD SVG 1.1//EN" "http://www.w3.org/Graphics/SVG/1.1/DTD/svg11.dtd">
<!-- Creator: CorelDRAW X7 -->
<svg xmlns="http://www.w3.org/2000/svg" xml:space="preserve" width="190.5mm" height="338.402mm" version="1.1" style="shape-rendering:geometricPrecision; text-rendering:geometricPrecision; image-rendering:optimizeQuality; fill-rule:evenodd; clip-rule:evenodd"
viewBox="0 0 19050 33840"
 xmlns:xlink="http://www.w3.org/1999/xlink">
 <defs>
  <style type="text/css">
   <![CDATA[
    .str4 {stroke:#575756;stroke-width:106.57}
    .str2 {stroke:#5A2431;stroke-width:68.54}
    .str0 {stroke:#5A2431;stroke-width:68.54;stroke-linejoin:round}
    .str1 {stroke:#5A2431;stroke-width:68.54;stroke-linecap:round;stroke-linejoin:round}
    .str3 {stroke:#FEFEFE;stroke-width:68.54;stroke-linecap:round;stroke-linejoin:round}
    .fil2 {fill:none;fill-rule:nonzero}
    .fil18 {fill:#2B2A29;fill-rule:nonzero}
    .fil17 {fill:#2B2A29;fill-rule:nonzero}
    .fil3 {fill:#277776;fill-rule:nonzero}
    .fil8 {fill:#58BEBE;fill-rule:nonzero}
    .fil14 {fill:#5CAF94;fill-rule:nonzero}
    .fil11 {fill:#6E6553;fill-rule:nonzero}
    .fil12 {fill:#71BB70;fill-rule:nonzero}
    .fil5 {fill:#9AC65F;fill-rule:nonzero}
    .fil15 {fill:#A8B35E;fill-rule:nonzero}
    .fil7 {fill:#C7C7C6;fill-rule:nonzero}
    .fil9 {fill:#D46736;fill-rule:nonzero}
    .fil13 {fill:#E2E7C7;fill-rule:nonzero}
    .fil1 {fill:#E8EFC9;fill-rule:nonzero}
    .fil10 {fill:#F39662;fill-rule:nonzero}
    .fil0 {fill:#F7F7F7;fill-rule:nonzero}
    .fil16 {fill:#FFF386;fill-rule:nonzero}
    .fil4 {fill:#FFF7B7;fill-rule:nonzero}
    .fil6 {fill:#FFFDED;fill-rule:nonzero}
   ]]>
  </style>
 </defs>
 <g id="Capa_x0020_1">
  <metadata id="CorelCorpID_0Corel-Layer"/>
  <polygon class="fil0" points="0,33840 19050,33840 19050,0 0,0 "/>
  <path class="fil1" d="M3113 27163c0,24 -33,44 -75,44 -42,0 -75,-20 -75,-44l0 -1817c0,-24 33,-43 75,-43 42,0 75,19 75,43l0 1817z"/>
  <path class="fil2 str0" d="M3113 27163c0,24 -33,44 -75,44 -42,0 -75,-20 -75,-44l0 -1817c0,-24 33,-43 75,-43 42,0 75,19 75,43l0 1817z"/>
  <path class="fil3" d="M4263 24873c0,-128 -179,-234 -420,-262 -31,-95 -136,-177 -284,-233 14,-24 21,-48 21,-74 0,-149 -242,-269 -542,-269 -300,0 -543,120 -543,269 0,45 23,87 62,125 -86,49 -147,109 -171,176 -387,12 -692,171 -692,366 0,203 331,367 740,367 11,0 22,0 33,0 -16,25 -25,52 -25,80 0,149 243,270 543,270 152,0 289,-31 387,-81 11,0 22,0 33,0 409,0 740,-164 740,-367 0,-57 -27,-112 -75,-161 118,-49 193,-123 193,-206z"/>
  <path class="fil2 str0" d="M4263 24873c0,-128 -179,-234 -420,-262 -31,-95 -136,-177 -284,-233 14,-24 21,-48 21,-74 0,-149 -242,-269 -542,-269 -300,0 -543,120 -543,269 0,45 23,87 62,125 -86,49 -147,109 -171,176 -387,12 -692,171 -692,366 0,203 331,367 740,367 11,0 22,0 33,0 -16,25 -25,52 -25,80 0,149 243,270 543,270 152,0 289,-31 387,-81 11,0 22,0 33,0 409,0 740,-164 740,-367 0,-57 -27,-112 -75,-161 118,-49 193,-123 193,-206z"/>
  <path class="fil2 str1" d="M3113 25688c0,0 258,815 608,-116"/>
  <path class="fil4" d="M15132 27225l-7909 -47c13,-2184 1794,-3944 3978,-3931 2184,13 3944,1795 3931,3978z"/>
  <path class="fil2 str2" d="M7223 27178c13,-2184 1794,-3944 3978,-3931 2184,14 3944,1795 3930,3979"/>
  <path class="fil5" d="M7910 27201c12,-2048 1579,-3723 3574,-3913 -115,-11 -233,-17 -351,-18 -2184,-13 -3965,1747 -3978,3931l7908 47c0,-1 0,-3 0,-4l-7153 -43z"/>
  <path class="fil5" d="M15132 27234l-5511 -33c10,-1758 1166,-3241 2755,-3746 -123,-39 -249,-72 -377,-99 -1780,376 -3122,1950 -3133,3845l6266 37c0,-1 0,-3 0,-4z"/>
  <path class="fil5" d="M11084 27201c9,-1474 823,-2755 2023,-3428 -122,-68 -248,-130 -377,-186 -1404,601 -2391,1990 -2401,3614l755 0z"/>
  <path class="fil5" d="M13850 24287c-119,-109 -243,-210 -374,-303 -1014,710 -1681,1884 -1689,3217l755 0c7,-1158 511,-2196 1308,-2914z"/>
  <path class="fil5" d="M14188 24638c-595,687 -958,1582 -964,2563l755 0c5,-750 218,-1449 583,-2044 -110,-183 -236,-357 -374,-519z"/>
  <path class="fil2 str2" d="M7223 27201c13,-2184 1794,-3944 3978,-3931 2184,13 3944,1794 3930,3978"/>
  <polygon class="fil6 str0" points="8112,25354 3980,25354 3980,27213 8112,27213 "/>
  <polygon class="fil7" points="7765,24453 4278,24453 3447,25352 8645,25352 "/>
  <polygon class="fil2 str0" points="7765,24453 4278,24453 3447,25352 8645,25352 "/>
  <polygon class="fil8 str0" points="6432,26716 5867,26716 5867,26067 6432,26067 "/>
  <polygon class="fil8 str0" points="7642,26716 7077,26716 7077,26067 7642,26067 "/>
  <line class="fil2 str3" x1="7187" y1="26363" x2="7291" y2= "26258" />
  <line class="fil2 str3" x1="7156" y1="26290" x2="7219" y2= "26226" />
  <polygon class="fil9 str0" points="8109,27211 3980,27211 3980,26726 8109,26726 "/>
  <polygon class="fil10 str0" points="5228,26076 4393,26076 4393,27212 5228,27212 "/>
  <line class="fil2 str1" x1="4811" y1="26076" x2="4811" y2= "27195" />
  <path class="fil11" d="M5011 26678c0,32 -26,57 -57,57 -32,0 -57,-25 -57,-57 0,-31 25,-57 57,-57 31,0 57,26 57,57z"/>
  <path class="fil2 str0" d="M5011 26678c0,32 -26,57 -57,57 -32,0 -57,-25 -57,-57 0,-31 25,-57 57,-57 31,0 57,26 57,57z"/>
  <path class="fil11" d="M4724 26678c0,32 -26,57 -58,57 -31,0 -57,-25 -57,-57 0,-31 26,-57 57,-57 32,0 58,26 58,57z"/>
  <path class="fil2 str0" d="M4724 26678c0,32 -26,57 -58,57 -31,0 -57,-25 -57,-57 0,-31 26,-57 57,-57 32,0 58,26 58,57z"/>
  <line class="fil2 str1" x1="8106" y1="26433" x2="18030" y2= "26364" />
  <line class="fil2 str1" x1="8139" y1="26857" x2="18030" y2= "26857" />
  <polygon class="fil11" points="18115,27278 17898,27278 17898,26072 18115,26072 "/>
  <polygon class="fil2 str1" points="18115,27278 17898,27278 17898,26073 18115,26073 "/>
  <polygon class="fil11" points="15801,27278 15584,27278 15584,26072 15801,26072 "/>
  <polygon class="fil2 str1" points="15801,27278 15584,27278 15584,26073 15801,26073 "/>
  <polygon class="fil11" points="16573,27278 16356,27278 16356,26072 16573,26072 "/>
  <polygon class="fil2 str1" points="16572,27278 16356,27278 16356,26073 16572,26073 "/>
  <polygon class="fil11" points="17344,27278 17127,27278 17127,26072 17344,26072 "/>
  <polygon class="fil2 str1" points="17344,27278 17127,27278 17127,26073 17344,26073 "/>
  <polygon class="fil11" points="15118,27278 14901,27278 14901,26072 15118,26072 "/>
  <polygon class="fil2 str1" points="15118,27278 14901,27278 14901,26073 15118,26073 "/>
  <polygon class="fil11" points="12716,27278 12499,27278 12499,26072 12716,26072 "/>
  <polygon class="fil2 str1" points="12716,27278 12499,27278 12499,26073 12716,26073 "/>
  <polygon class="fil11" points="13487,27278 13271,27278 13271,26072 13487,26072 "/>
  <polygon class="fil2 str1" points="13487,27278 13270,27278 13270,26073 13487,26073 "/>
  <polygon class="fil11" points="14259,27278 14042,27278 14042,26072 14259,26072 "/>
  <polygon class="fil2 str1" points="14259,27278 14042,27278 14042,26073 14259,26073 "/>
  <polygon class="fil11" points="11945,27278 11728,27278 11728,26072 11945,26072 "/>
  <polygon class="fil2 str1" points="11945,27278 11728,27278 11728,26073 11945,26073 "/>
  <polygon class="fil11" points="9631,27278 9414,27278 9414,26072 9631,26072 "/>
  <polygon class="fil2 str1" points="9631,27278 9414,27278 9414,26073 9631,26073 "/>
  <polygon class="fil11" points="8860,27278 8643,27278 8643,26072 8860,26072 "/>
  <polygon class="fil2 str1" points="8860,27278 8643,27278 8643,26073 8860,26073 "/>
  <polygon class="fil11" points="10402,27278 10185,27278 10185,26072 10402,26072 "/>
  <polygon class="fil2 str1" points="10402,27278 10185,27278 10185,26073 10402,26073 "/>
  <polygon class="fil11" points="11174,27278 10957,27278 10957,26072 11174,26072 "/>
  <polygon class="fil2 str1" points="11173,27278 10957,27278 10957,26073 11173,26073 "/>
  <path class="fil12" d="M3820 26788l-135 0c-49,0 -91,37 -116,93 -23,-65 -69,-109 -123,-109l-134 0c-54,0 -100,44 -123,109 -25,-56 -67,-93 -116,-93l-135 0c-48,0 -91,37 -115,93 -23,-65 -70,-109 -123,-109l-135 0c-53,0 -99,44 -122,109 -25,-56 -67,-93 -116,-93l-135 0c-48,0 -91,37 -116,93 -23,-65 -69,-109 -122,-109l-135 0c-53,0 -99,44 -122,109 -25,-56 -68,-93 -116,-93l-135 0c-48,0 -91,37 -116,93 -23,-65 -69,-109 -122,-109l-135 0c-76,0 -138,90 -138,201l0 24c0,110 62,201 138,201l135 0c48,0 91,-37 116,-92 23,64 69,109 122,109l135 0c53,0 99,-45 122,-109 25,55 68,92 116,92l135 0c48,0 91,-37 116,-92 23,64 69,109 122,109l135 0c53,0 100,-45 123,-109 24,55 67,92 115,92l135 0c49,0 91,-37 116,-92 23,64 69,109 122,109l135 0c54,0 100,-45 123,-109 24,55 67,92 116,92l134 0c49,0 92,-37 116,-92 23,64 70,109 123,109l135 0c75,0 138,-91 138,-201l0 -24c0,-111 -63,-202 -138,-202z"/>
  <path class="fil2 str0" d="M3820 26788l-135 0c-49,0 -91,37 -116,93 -23,-65 -69,-109 -123,-109l-134 0c-54,0 -100,44 -123,109 -25,-56 -67,-93 -116,-93l-135 0c-48,0 -91,37 -115,93 -23,-65 -70,-109 -123,-109l-135 0c-53,0 -99,44 -122,109 -25,-56 -67,-93 -116,-93l-135 0c-48,0 -91,37 -116,93 -23,-65 -69,-109 -122,-109l-135 0c-53,0 -99,44 -122,109 -25,-56 -68,-93 -116,-93l-135 0c-48,0 -91,37 -116,93 -23,-65 -69,-109 -122,-109l-135 0c-76,0 -138,90 -138,201l0 24c0,110 62,201 138,201l135 0c48,0 91,-37 116,-92 23,64 69,109 122,109l135 0c53,0 99,-45 122,-109 25,55 68,92 116,92l135 0c48,0 91,-37 116,-92 23,64 69,109 122,109l135 0c53,0 100,-45 123,-109 24,55 67,92 115,92l135 0c49,0 91,-37 116,-92 23,64 69,109 122,109l135 0c54,0 100,-45 123,-109 24,55 67,92 116,92l134 0c49,0 92,-37 116,-92 23,64 70,109 123,109l135 0c75,0 138,-91 138,-201l0 -24c0,-111 -63,-202 -138,-202z"/>
  <polygon class="fil10" points="4656,26076 4025,25445 4112,25358 4743,25989 "/>
  <polygon class="fil2 str0" points="4656,26076 4025,25445 4112,25358 4743,25989 "/>
  <polygon class="fil10" points="4025,25989 4656,25358 4743,25445 4112,26076 "/>
  <polygon class="fil2 str0" points="4025,25989 4656,25358 4743,25445 4112,26076 "/>
  <polygon class="fil10" points="5330,26076 4699,25445 4786,25358 5418,25989 "/>
  <polygon class="fil2 str0" points="5330,26076 4699,25445 4786,25358 5418,25989 "/>
  <polygon class="fil10" points="4699,25989 5330,25358 5418,25445 4786,26076 "/>
  <polygon class="fil2 str0" points="4699,25989 5330,25358 5418,25445 4786,26076 "/>
  <polygon class="fil10" points="6005,26076 5374,25445 5461,25358 6092,25989 "/>
  <polygon class="fil2 str0" points="6005,26076 5374,25445 5461,25358 6092,25989 "/>
  <polygon class="fil10" points="5374,25989 6005,25358 6092,25445 5461,26076 "/>
  <polygon class="fil2 str0" points="5374,25989 6005,25358 6092,25445 5461,26076 "/>
  <polygon class="fil10" points="6679,26076 6048,25445 6135,25358 6767,25989 "/>
  <polygon class="fil2 str0" points="6679,26076 6048,25445 6135,25358 6767,25989 "/>
  <polygon class="fil10" points="6048,25989 6679,25358 6767,25445 6136,26076 "/>
  <polygon class="fil2 str0" points="6048,25989 6679,25358 6767,25445 6136,26076 "/>
  <polygon class="fil10" points="7354,26076 6723,25445 6810,25358 7441,25989 "/>
  <polygon class="fil2 str0" points="7354,26076 6723,25445 6810,25358 7441,25989 "/>
  <polygon class="fil10" points="6723,25989 7354,25358 7441,25445 6810,26076 "/>
  <polygon class="fil2 str0" points="6723,25989 7354,25358 7441,25445 6810,26076 "/>
  <polygon class="fil10" points="8028,26076 7397,25445 7484,25358 8116,25989 "/>
  <polygon class="fil2 str0" points="8028,26076 7397,25445 7484,25358 8116,25989 "/>
  <polygon class="fil10" points="7397,25989 8028,25358 8116,25445 7485,26076 "/>
  <polygon class="fil2 str0" points="7397,25989 8028,25358 8116,25445 7485,26076 "/>
  <path class="fil11" d="M8573 24320c5,-16 8,-32 9,-49l0 -4 0 0c0,-96 -78,-173 -173,-173 -96,0 -173,77 -173,173 0,19 3,38 9,56l164 561 164 -564z"/>
  <path class="fil2 str0" d="M8573 24320c5,-16 8,-32 9,-49l0 -4 0 0c0,-96 -78,-173 -173,-173 -96,0 -173,77 -173,173 0,19 3,38 9,56l164 561 164 -564z"/>
  <path class="fil13" d="M8518 24152c0,31 -49,56 -109,56 -60,0 -108,-25 -108,-56 0,-31 48,-56 108,-56 60,0 109,25 109,56z"/>
  <path class="fil2 str0" d="M8518 24152c0,31 -49,56 -109,56 -60,0 -108,-25 -108,-56 0,-31 48,-56 108,-56 60,0 109,25 109,56z"/>
  <path class="fil11" d="M9763 23376c5,-16 8,-32 8,-50l1 -4 0 0c-1,-95 -78,-173 -173,-173 -96,0 -173,78 -173,173 0,20 3,39 9,56l164 562 164 -564z"/>
  <path class="fil2 str0" d="M9763 23376c5,-16 8,-32 8,-50l1 -4 0 0c-1,-95 -78,-173 -173,-173 -96,0 -173,78 -173,173 0,20 3,39 9,56l164 562 164 -564z"/>
  <path class="fil13" d="M9707 23207c0,31 -48,56 -108,56 -60,0 -109,-25 -109,-56 0,-31 49,-56 109,-56 60,0 108,25 108,56z"/>
  <path class="fil2 str0" d="M9707 23207c0,31 -48,56 -108,56 -60,0 -109,-25 -109,-56 0,-31 49,-56 109,-56 60,0 108,25 108,56z"/>
  <polygon class="fil14 str0" points="8116,26082 4000,26082 4000,25959 8116,25959 "/>
  <path class="fil11" d="M11742 24343c5,-15 7,-32 8,-49l0 -4 0 0c0,-95 -77,-173 -173,-173 -95,0 -173,78 -173,173 0,20 4,38 9,56l164 561 165 -564z"/>
  <path class="fil2 str0" d="M11742 24343c5,-15 7,-32 8,-49l0 -4 0 0c0,-95 -77,-173 -173,-173 -95,0 -173,78 -173,173 0,20 4,38 9,56l164 561 165 -564z"/>
  <path class="fil13" d="M11686 24175c0,31 -49,56 -109,56 -60,0 -108,-25 -108,-56 0,-31 48,-56 108,-56 60,0 109,25 109,56z"/>
  <path class="fil2 str0" d="M11686 24175c0,31 -49,56 -109,56 -60,0 -108,-25 -108,-56 0,-31 48,-56 108,-56 60,0 109,25 109,56z"/>
  <polygon class="fil14 str0" points="8116,25481 4000,25481 4000,25358 8116,25358 "/>
  <path class="fil15" d="M9648 25845c0,50 -28,91 -63,91 -36,0 -64,-41 -64,-91l0 -941c0,-50 28,-91 64,-91 35,0 63,41 63,91l0 941z"/>
  <path class="fil2 str1" d="M9648 25845c0,50 -28,91 -63,91 -36,0 -64,-41 -64,-91"/>
  <line class="fil2 str1" x1="9521" y1="25845" x2="9521" y2= "24904" />
  <path class="fil2 str1" d="M9521 24904c0,-50 28,-91 63,-91 36,0 64,41 64,91"/>
  <line class="fil2 str1" x1="9648" y1="24904" x2="9648" y2= "25845" />
  <path class="fil12" d="M9643 24795c0,-7 -1,-15 -2,-24 3,-17 6,-34 10,-51l185 -81 -31 -72 69 54 104 -51 -16 -49 72 65c155,9 389,-22 389,-22 -365,-268 -622,-97 -726,1 21,-56 45,-114 73,-171 157,-79 363,-187 363,-187l-67 -101 95 70 44 -35 -66 -88 91 69c246,-129 404,-426 404,-426 -262,44 -533,246 -699,390 104,-175 194,-301 194,-301l-82 -67 127 19c116,-195 107,-445 107,-445 -446,310 -608,892 -666,1246 -66,-484 -251,-1350 -743,-1525 0,0 34,360 128,554 95,194 521,800 521,800l31 149c-134,-133 -540,-475 -1252,-558 0,0 81,123 232,185l90 -38 -23 75c0,0 260,157 352,180l116 -75 -52 80c0,0 20,28 69,71 -186,-21 -438,20 -776,186 0,0 105,99 599,52l0 -156 44 151c0,0 185,-47 285,0l0 -104 38 118c0,0 78,54 181,109 -211,-52 -559,-60 -843,308 0,0 391,-98 420,-133l19 -80 25 46c0,0 182,35 527,-58 16,10 32,-8 32,-8l13 1c0,0 0,-7 -1,-20 256,4 482,151 482,151l60 -121 -19 137 161 47 44 -72 -3 110c63,63 262,88 262,88 -364,-550 -787,-475 -991,-393z"/>
  <path class="fil2 str0" d="M9643 24795c0,-7 -1,-15 -2,-24 3,-17 6,-34 10,-51l185 -81 -31 -72 69 54 104 -51 -16 -49 72 65c155,9 389,-22 389,-22 -365,-268 -622,-97 -726,1 21,-56 45,-114 73,-171 157,-79 363,-187 363,-187l-67 -101 95 70 44 -35 -66 -88 91 69c246,-129 404,-426 404,-426 -262,44 -533,246 -699,390 104,-175 194,-301 194,-301l-82 -67 127 19c116,-195 107,-445 107,-445 -446,310 -608,892 -666,1246 -66,-484 -251,-1350 -743,-1525 0,0 34,360 128,554 95,194 521,800 521,800l31 149c-134,-133 -540,-475 -1252,-558 0,0 81,123 232,185l90 -38 -23 75c0,0 260,157 352,180l116 -75 -52 80c0,0 20,28 69,71 -186,-21 -438,20 -776,186 0,0 105,99 599,52l0 -156 44 151c0,0 185,-47 285,0l0 -104 38 118c0,0 78,54 181,109 -211,-52 -559,-60 -843,308 0,0 391,-98 420,-133l19 -80 25 46c0,0 182,35 527,-58 16,10 32,-8 32,-8l13 1c0,0 0,-7 -1,-20 256,4 482,151 482,151l60 -121 -19 137 161 47 44 -72 -3 110c63,63 262,88 262,88 -364,-550 -787,-475 -991,-393z"/>
  <path class="fil15" d="M12648 25544c0,50 -29,91 -64,91 -36,0 -64,-41 -64,-91l0 -941c0,-50 28,-91 64,-91 35,0 64,41 64,91l0 941z"/>
  <path class="fil2 str1" d="M12647 25544c0,50 -28,91 -63,91 -36,0 -64,-41 -64,-91"/>
  <line class="fil2 str1" x1="12520" y1="25544" x2="12520" y2= "24603" />
  <path class="fil2 str1" d="M12520 24603c0,-50 28,-91 64,-91 35,0 63,41 63,91"/>
  <line class="fil2 str1" x1="12647" y1="24603" x2="12647" y2= "25544" />
  <path class="fil12" d="M12642 24495c0,-8 -1,-16 -2,-25 3,-16 6,-33 10,-51l185 -80 -31 -73 69 55 104 -52 -16 -49 73 65c154,10 388,-22 388,-22 -365,-267 -622,-97 -726,2 21,-57 46,-115 73,-172 157,-79 363,-186 363,-186l-67 -101 95 69 44 -35 -66 -88 91 69c246,-129 404,-425 404,-425 -262,43 -533,245 -699,389 104,-174 194,-301 194,-301l-82 -66 127 19c116,-196 107,-445 107,-445 -446,309 -608,892 -666,1245 -66,-484 -251,-1349 -743,-1524 0,0 34,359 128,553 95,194 521,800 521,800l31 149c-134,-133 -540,-474 -1251,-558 0,0 80,123 231,185l90 -38 -23 76c0,0 260,156 352,180l116 -76 -52 80c0,0 20,28 69,72 -186,-22 -438,20 -776,185 0,0 105,99 599,52l0 -156 44 151c0,0 186,-47 285,0l0 -104 38 119c0,0 78,54 181,109 -211,-53 -559,-61 -843,307 0,0 391,-97 420,-132l19 -81 25 46c0,0 182,35 527,-57 16,9 32,-9 32,-9l13 1c0,0 0,-7 -1,-20 256,4 482,151 482,151l60 -121 -19 137 161 47 45 -72 -4 110c63,63 262,89 262,89 -364,-550 -787,-475 -991,-393z"/>
  <path class="fil2 str0" d="M12642 24495c0,-8 -1,-16 -2,-25 3,-16 6,-33 10,-51l185 -80 -31 -73 69 55 104 -52 -16 -49 73 65c154,10 388,-22 388,-22 -365,-267 -622,-97 -726,2 21,-57 46,-115 73,-172 157,-79 363,-186 363,-186l-67 -101 95 69 44 -35 -66 -88 91 69c246,-129 404,-425 404,-425 -262,43 -533,245 -699,389 104,-174 194,-301 194,-301l-82 -66 127 19c116,-196 107,-445 107,-445 -446,309 -608,892 -666,1245 -66,-484 -251,-1349 -743,-1524 0,0 34,359 128,553 95,194 521,800 521,800l31 149c-134,-133 -540,-474 -1251,-558 0,0 80,123 231,185l90 -38 -23 76c0,0 260,156 352,180l116 -76 -52 80c0,0 20,28 69,72 -186,-22 -438,20 -776,185 0,0 105,99 599,52l0 -156 44 151c0,0 186,-47 285,0l0 -104 38 119c0,0 78,54 181,109 -211,-53 -559,-61 -843,307 0,0 391,-97 420,-132l19 -81 25 46c0,0 182,35 527,-57 16,9 32,-9 32,-9l13 1c0,0 0,-7 -1,-20 256,4 482,151 482,151l60 -121 -19 137 161 47 45 -72 -4 110c63,63 262,89 262,89 -364,-550 -787,-475 -991,-393z"/>
  <path class="fil15" d="M10815 24217c0,50 -28,90 -64,90 -35,0 -63,-40 -63,-90l0 -942c0,-50 28,-91 63,-91 36,0 64,41 64,91l0 942z"/>
  <path class="fil2 str1" d="M10815 24217c0,50 -29,91 -64,91 -35,0 -64,-41 -64,-91"/>
  <line class="fil2 str1" x1="10687" y1="24217" x2="10687" y2= "23275" />
  <path class="fil2 str1" d="M10687 23275c0,-50 29,-90 64,-90 35,0 64,40 64,90"/>
  <line class="fil2 str1" x1="10815" y1="23275" x2="10815" y2= "24217" />
  <path class="fil12" d="M10810 23167c-1,-8 -1,-16 -2,-24 2,-17 6,-34 9,-51l186 -81 -32 -73 70 55 104 -51 -16 -50 72 65c155,10 389,-22 389,-22 -365,-267 -623,-97 -726,2 21,-57 45,-114 72,-172 157,-79 363,-186 363,-186l-66 -101 95 69 44 -34 -66 -89 91 70c246,-130 404,-426 404,-426 -262,44 -534,246 -699,390 103,-175 194,-302 194,-302l-82 -66 126 19c117,-196 108,-445 108,-445 -446,309 -608,892 -666,1246 -66,-484 -251,-1350 -743,-1525 0,0 33,360 128,554 95,194 520,799 520,799l32 149c-134,-133 -540,-474 -1252,-557 0,0 81,123 232,184l90 -38 -24 76c0,0 261,156 353,180l116 -76 -52 81c0,0 20,27 69,71 -186,-22 -438,20 -776,185 0,0 104,100 599,52l0 -156 44 152c0,0 185,-48 285,0l0 -104 37 118c0,0 79,54 182,109 -211,-52 -559,-61 -843,308 0,0 391,-98 420,-133l18 -81 26 47c0,0 182,34 527,-58 16,10 32,-9 32,-9l13 1c0,0 0,-7 -1,-20 256,4 482,152 482,152l60 -121 -19 136 161 48 44 -73 -3 111c63,63 262,88 262,88 -364,-550 -787,-475 -991,-393z"/>
  <path class="fil2 str0" d="M10810 23167c-1,-8 -1,-16 -2,-24 2,-17 6,-34 9,-51l186 -81 -32 -73 70 55 104 -51 -16 -50 72 65c155,10 389,-22 389,-22 -365,-267 -623,-97 -726,2 21,-57 45,-114 72,-172 157,-79 363,-186 363,-186l-66 -101 95 69 44 -34 -66 -89 91 70c246,-130 404,-426 404,-426 -262,44 -534,246 -699,390 103,-175 194,-302 194,-302l-82 -66 126 19c117,-196 108,-445 108,-445 -446,309 -608,892 -666,1246 -66,-484 -251,-1350 -743,-1525 0,0 33,360 128,554 95,194 520,799 520,799l32 149c-134,-133 -540,-474 -1252,-557 0,0 81,123 232,184l90 -38 -24 76c0,0 261,156 353,180l116 -76 -52 81c0,0 20,27 69,71 -186,-22 -438,20 -776,185 0,0 104,100 599,52l0 -156 44 152c0,0 185,-48 285,0l0 -104 37 118c0,0 79,54 182,109 -211,-52 -559,-61 -843,308 0,0 391,-98 420,-133l18 -81 26 47c0,0 182,34 527,-58 16,10 32,-9 32,-9l13 1c0,0 0,-7 -1,-20 256,4 482,152 482,152l60 -121 -19 136 161 48 44 -73 -3 111c63,63 262,88 262,88 -364,-550 -787,-475 -991,-393z"/>
  <path class="fil11" d="M11229 25312c5,-15 8,-32 8,-49l1 -4 0 0c0,-95 -78,-173 -173,-173 -96,0 -173,78 -173,173 0,20 3,38 9,56l164 561 164 -564z"/>
  <path class="fil2 str0" d="M11229 25312c5,-15 8,-32 8,-49l1 -4 0 0c0,-95 -78,-173 -173,-173 -96,0 -173,78 -173,173 0,20 3,38 9,56l164 561 164 -564z"/>
  <path class="fil13" d="M11173 25144c0,31 -48,56 -108,56 -60,0 -108,-25 -108,-56 0,-31 48,-56 108,-56 60,0 108,25 108,56z"/>
  <path class="fil2 str0" d="M11173 25144c0,31 -48,56 -108,56 -60,0 -108,-25 -108,-56 0,-31 48,-56 108,-56 60,0 108,25 108,56z"/>
  <path class="fil11" d="M14206 25206c5,-16 8,-33 8,-50l1 -4 -1 0c0,-95 -77,-173 -173,-173 -95,0 -172,78 -172,173 0,20 3,39 9,56l164 562 164 -564z"/>
  <path class="fil2 str0" d="M14206 25206c5,-16 8,-33 8,-50l1 -4 -1 0c0,-95 -77,-173 -173,-173 -95,0 -172,78 -172,173 0,20 3,39 9,56l164 562 164 -564z"/>
  <path class="fil13" d="M14150 25037c0,31 -48,56 -108,56 -60,0 -109,-25 -109,-56 0,-31 49,-56 109,-56 60,0 108,25 108,56z"/>
  <path class="fil2 str0" d="M14150 25037c0,31 -48,56 -108,56 -60,0 -109,-25 -109,-56 0,-31 49,-56 109,-56 60,0 108,25 108,56z"/>
  <path class="fil16" d="M6615 12157c16,-3271 49,-6557 49,-9746 0,-65 -16,-82 -49,-82 -99,0 -2285,1003 -4240,1709 49,247 115,477 164,707 1118,-296 1972,-542 2843,-772 0,2646 0,5357 0,8118 0,33 -33,66 -82,66l-2662 49c-17,247 -33,510 -17,756 1184,0 2268,-16 3336,-16 987,0 2137,0 3205,0 17,-230 33,-510 17,-740l-2564 -49z"/>
  <path class="fil17" d="M6350 10273c-2,34 -2,69 -2,104 47,0 102,-2 153,-2 82,0 162,0 227,0 2,-33 2,-70 2,-103l-125 -4c18,-60 43,-136 63,-198l361 -1c5,0 9,1 10,6 20,52 45,130 64,183 3,5 0,9 -4,9l-110 5c-1,35 -1,70 -1,105 70,0 160,-2 240,-2 56,0 125,0 175,0 1,-33 1,-70 1,-103l-95 -5c-101,-288 -240,-697 -345,-988 -73,0 -126,2 -149,3 -109,287 -260,692 -370,978 -2,5 -5,7 -10,8l-85 5zm511 -754c47,143 102,311 147,445l-302 0c-5,0 -5,-4 -3,-10 47,-134 102,-297 150,-435l8 0zm628 545c0,208 150,328 328,328 70,0 185,-24 283,-74 -5,-31 -15,-68 -23,-98 -53,20 -135,47 -200,47 -45,0 -100,-10 -135,-52 -36,-43 -56,-97 -56,-185 0,-91 25,-155 58,-198 30,-38 68,-57 122,-57 66,0 141,39 158,45 26,-15 68,-101 68,-138 -32,-18 -100,-37 -166,-37 -262,0 -437,182 -437,419zm701 0c0,208 150,328 328,328 70,0 185,-24 284,-74 -5,-31 -15,-68 -24,-98 -53,20 -135,47 -200,47 -45,0 -99,-10 -134,-52 -37,-43 -57,-97 -57,-185 0,-91 25,-155 58,-198 30,-38 68,-57 122,-57 66,0 141,39 158,45 27,-15 68,-101 68,-138 -31,-18 -100,-37 -166,-37 -262,0 -437,182 -437,419zm707 -12c0,213 139,340 358,340 75,0 195,-29 289,-74 -4,-31 -14,-70 -24,-101 -55,21 -152,50 -225,50 -59,0 -109,-7 -154,-55 -31,-35 -50,-89 -50,-165 124,0 324,0 397,-5 17,-2 66,-55 71,-77 0,-88 -21,-171 -73,-233 -43,-53 -113,-87 -208,-87 -230,0 -381,182 -381,407zm356 -303c43,0 73,20 95,50 18,28 33,78 33,125 0,11 -6,18 -18,18 -77,3 -188,5 -268,5 1,-77 31,-122 53,-150 27,-33 60,-48 105,-48zm545 386c-37,5 -77,12 -112,20 8,68 17,138 25,207 45,16 123,30 208,30 92,0 173,-15 222,-42 78,-43 123,-112 123,-193 0,-130 -88,-172 -208,-205 -130,-38 -160,-50 -160,-103 0,-39 17,-62 37,-75 20,-15 53,-24 85,-24 31,0 63,7 84,22 5,5 9,12 10,18l25 99c39,-5 79,-12 112,-17 -5,-67 -12,-133 -20,-200 -22,-10 -88,-27 -178,-27 -92,0 -163,19 -213,45 -62,32 -122,99 -122,185 0,99 62,160 203,202 127,36 163,48 163,115 0,38 -19,61 -43,75 -28,18 -60,20 -98,20 -38,0 -78,-12 -105,-30 -8,-7 -10,-12 -13,-20l-25 -102zm979 257c92,0 168,-22 232,-67 91,-67 158,-183 158,-321 0,-139 -55,-237 -138,-297 -62,-43 -134,-62 -217,-62 -88,0 -178,25 -246,77 -99,78 -149,190 -149,313 0,122 42,212 117,277 60,55 148,80 243,80zm17 -99c-45,0 -84,-16 -110,-50 -42,-46 -62,-113 -62,-226 0,-102 22,-175 63,-223 30,-37 74,-50 112,-50 47,0 85,16 115,56 35,47 52,114 52,210 0,112 -15,183 -60,235 -30,37 -70,48 -110,48zm1612 -529c2,-34 2,-70 2,-102 -39,0 -89,0 -134,0 -58,0 -126,2 -178,2 -1,30 -1,68 -1,101l81 4c7,0 7,3 7,8 -17,65 -37,133 -67,223 -26,82 -48,142 -73,208l-10 0c-27,-75 -53,-146 -82,-234 -33,-97 -55,-165 -66,-205l100 -5c1,-34 1,-70 1,-102 -66,0 -145,0 -216,0 -59,0 -120,0 -167,0 -1,32 -1,68 -3,102l75 5c3,0 8,1 8,5 27,68 60,158 100,265 48,126 88,224 142,356 -27,65 -77,130 -124,182 -43,44 -91,83 -138,113 0,30 105,101 145,101 42,-25 88,-86 137,-160 88,-134 206,-404 254,-521 59,-138 119,-290 139,-343l68 -3z"/>
  <polygon class="fil17 str4" points="6368,10542 6368,10542 12841,10542 "/>
  <path class="fil17" d="M3396 11859c0,213 140,339 358,339 75,0 195,-28 290,-73 -5,-32 -15,-70 -25,-101 -55,21 -152,49 -225,49 -58,0 -108,-6 -153,-54 -32,-35 -50,-89 -50,-165 123,0 323,0 396,-5 17,-2 67,-55 72,-77 0,-88 -22,-172 -73,-233 -44,-53 -114,-87 -209,-87 -229,0 -381,182 -381,407zm356 -304c44,0 74,20 95,50 19,29 34,79 34,125 0,12 -7,19 -19,19 -76,3 -188,5 -268,5 2,-77 32,-122 54,-150 26,-34 59,-49 104,-49zm502 -394c0,274 0,634 0,911 0,3 -4,6 -7,6l-101 5c0,32 -2,69 -2,100 62,0 136,-1 201,-1 72,0 150,0 210,0 0,-32 0,-67 0,-100l-115 -4c2,-323 5,-765 7,-1056 0,-5 -2,-6 -5,-6 -15,0 -230,33 -310,42 -1,31 -3,66 -3,100l125 3zm1292 951c24,41 44,70 64,86 88,0 204,-20 223,-28 1,-32 1,-67 1,-98l-103 3c-6,0 -10,-7 -10,-18 0,-193 4,-402 4,-583 0,-3 0,-7 -2,-7 -23,0 -222,4 -283,5 0,34 -2,70 -2,105l97 3c0,115 1,297 0,424 -54,39 -110,63 -157,63 -37,0 -68,-10 -93,-50 -25,-38 -23,-92 -23,-152 0,-131 3,-270 4,-393 0,-1 -1,-5 -4,-5 -20,0 -209,7 -272,9 -2,33 -3,69 -3,101l90 3c0,115 -2,250 -2,389 0,106 112,229 220,229 66,0 100,-5 243,-86l8 0zm478 -170c-36,5 -76,12 -111,20 8,68 16,138 25,206 45,17 123,30 208,30 92,0 173,-15 221,-41 79,-44 124,-112 124,-193 0,-130 -89,-172 -208,-205 -130,-39 -160,-50 -160,-104 0,-38 16,-61 36,-75 20,-15 54,-23 85,-23 32,0 63,7 85,22 5,5 8,11 10,18l25 98c38,-5 78,-11 112,-16 -5,-67 -12,-134 -20,-200 -22,-10 -89,-27 -178,-27 -92,0 -164,19 -214,45 -61,32 -121,98 -121,185 0,98 61,160 203,202 127,36 163,48 163,115 0,38 -20,61 -43,74 -28,19 -60,20 -98,20 -39,0 -79,-11 -105,-30 -9,-6 -10,-11 -14,-20l-25 -101zm963 256c92,0 168,-21 232,-66 91,-67 158,-183 158,-322 0,-138 -55,-236 -138,-296 -62,-43 -134,-62 -217,-62 -88,0 -178,25 -246,77 -99,78 -149,190 -149,313 0,122 42,211 117,276 60,55 148,80 243,80zm17 -98c-45,0 -84,-17 -110,-50 -42,-46 -62,-113 -62,-226 0,-102 22,-175 63,-224 30,-36 74,-50 112,-50 47,0 85,17 115,57 35,47 52,113 52,210 0,112 -15,183 -60,235 -30,36 -70,48 -110,48zm1400 23c17,37 34,60 55,75 85,0 205,-20 230,-30 0,-31 0,-68 0,-98l-101 5c-12,0 -15,-10 -15,-26 0,-316 5,-744 5,-1028 0,-4 -2,-5 -4,-5 -18,0 -229,33 -319,43 -2,32 -2,66 -2,100l133 3c2,104 4,206 4,310l-9 5c-41,-11 -96,-25 -156,-25 -94,0 -182,39 -240,103 -77,84 -118,192 -118,309 0,108 36,193 98,254 55,55 126,80 200,80 50,0 86,-5 229,-75l10 0zm-18 -124c0,15 -1,21 -8,26 -50,32 -98,50 -153,50 -44,0 -87,-22 -114,-58 -31,-45 -45,-98 -45,-175 0,-97 19,-158 52,-207 30,-43 80,-65 132,-65 51,0 98,15 136,35 0,119 0,262 0,394zm380 -140c0,213 140,339 358,339 75,0 195,-28 290,-73 -5,-32 -15,-70 -25,-101 -55,21 -152,49 -225,49 -58,0 -108,-6 -153,-54 -32,-35 -50,-89 -50,-165 123,0 323,0 396,-5 17,-2 67,-55 72,-77 0,-88 -22,-172 -73,-233 -44,-53 -114,-87 -209,-87 -230,0 -381,182 -381,407zm356 -304c44,0 74,20 95,50 19,29 34,79 34,125 0,12 -7,19 -19,19 -76,3 -188,5 -268,5 2,-77 32,-122 53,-150 27,-34 60,-49 105,-49zm871 -394c0,274 0,634 0,911 0,3 -3,6 -6,6l-102 5c0,32 -1,69 -1,100 61,0 136,-1 201,-1 72,0 150,0 210,0 0,-32 0,-67 0,-100l-115 -4c2,-323 5,-765 7,-1056 0,-5 -2,-6 -5,-6 -15,0 -230,33 -310,42 -2,31 -3,66 -3,100l124 3zm827 962c23,34 41,60 58,75 100,0 203,-18 228,-26 2,-32 0,-69 0,-99l-102 4c-8,1 -11,-5 -11,-20 0,-70 3,-252 3,-343 0,-167 -111,-262 -238,-262 -143,0 -250,72 -341,153 21,30 46,62 69,87 62,-55 140,-103 205,-103 90,0 129,61 124,198 -17,0 -52,0 -102,0 -240,0 -345,142 -345,235 0,100 115,176 200,176 60,0 130,-16 243,-75l9 0zm-262 -121c0,-65 55,-122 187,-122 33,0 60,2 68,2 0,45 0,97 0,132 0,5 0,8 -3,11 -49,33 -109,55 -155,55 -52,0 -97,-31 -97,-78zm1269 196c89,0 195,-15 288,-50 -3,-31 -8,-68 -15,-101 -54,15 -118,26 -168,26 -50,0 -95,-30 -95,-90 0,-80 0,-162 2,-230 0,-71 0,-148 0,-168 87,0 182,2 256,2 2,-37 5,-78 5,-116 -81,1 -174,1 -259,1 1,-60 3,-176 3,-225 0,-3 -2,-5 -3,-5 -5,0 -114,37 -174,70 -3,45 -6,102 -8,149 0,6 -7,11 -12,11 -33,2 -71,5 -106,7 -4,33 -4,71 -4,106 39,0 84,0 115,0 0,30 -1,159 -1,204 0,34 -2,144 -2,233 0,50 2,88 52,130 43,40 88,46 126,46zm558 -1102c-75,0 -120,53 -120,110 0,63 54,111 114,111 65,0 116,-46 116,-115 0,-50 -33,-106 -110,-106zm-83 505l0 471c0,3 -2,6 -7,6l-101 5c-2,32 -2,67 -2,100 62,0 135,-1 197,-1 66,0 146,0 203,0 1,-32 1,-67 1,-100l-106 -4c0,-173 3,-439 3,-621 0,-3 0,-5 -1,-5 -15,0 -225,35 -305,44 0,31 -2,68 0,100l118 5zm380 258c0,213 140,339 358,339 75,0 195,-28 290,-73 -5,-32 -15,-70 -25,-101 -55,21 -152,49 -225,49 -58,0 -108,-6 -153,-54 -32,-35 -50,-89 -50,-165 123,0 323,0 396,-5 17,-2 67,-55 72,-77 0,-88 -22,-172 -74,-233 -43,-53 -113,-87 -208,-87 -230,0 -381,182 -381,407zm356 -304c44,0 73,20 95,50 18,29 33,79 33,125 0,12 -6,19 -18,19 -76,3 -188,5 -268,5 2,-77 32,-122 53,-150 27,-34 60,-49 105,-49zm522 41c0,147 0,325 0,477 0,3 -4,7 -7,7l-88 5c-2,30 -2,66 -2,98 60,0 135,-2 198,-2 77,0 165,0 230,0 2,-31 2,-66 2,-98l-149 -5c0,-42 0,-97 2,-142 0,-52 7,-108 27,-147 38,-74 68,-115 100,-140 20,-17 35,-20 51,-20 35,0 80,11 95,15 24,-20 60,-119 60,-172 -28,-13 -70,-21 -108,-21 -77,0 -127,35 -225,227l-10 -2c-3,-82 -7,-164 -10,-219 0,-3 -2,-5 -3,-5 -9,0 -202,34 -273,44 -2,31 -2,65 -2,96l112 4zm701 0c0,147 0,325 0,477 0,3 -4,7 -7,7l-88 5c-2,30 -2,66 -2,98 60,0 135,-2 198,-2 77,0 165,0 230,0 2,-31 2,-66 2,-98l-148 -5c0,-42 0,-97 1,-142 0,-52 7,-108 27,-147 38,-74 68,-115 100,-140 20,-17 35,-20 52,-20 35,0 79,11 94,15 24,-20 60,-119 60,-172 -28,-13 -70,-21 -108,-21 -76,0 -126,35 -225,227l-10 -2c-3,-82 -6,-164 -10,-219 0,-3 -1,-5 -3,-5 -8,0 -202,34 -273,44 -2,31 -2,65 -2,96l112 4zm996 527c23,34 41,60 58,75 100,0 203,-18 228,-26 2,-32 0,-69 0,-99l-101 4c-9,1 -12,-5 -12,-20 0,-70 3,-252 3,-343 0,-167 -111,-262 -238,-262 -143,0 -250,72 -341,153 21,30 46,62 70,87 61,-55 140,-103 205,-103 89,0 128,61 123,198 -17,0 -52,0 -102,0 -240,0 -345,142 -345,235 0,100 115,176 200,176 60,0 130,-16 243,-75l9 0zm-262 -121c0,-65 55,-122 187,-122 33,0 60,2 68,2 0,45 0,97 0,132 0,5 0,8 -3,11 -49,33 -108,55 -155,55 -52,0 -97,-31 -97,-78z"/>
  <polygon class="fil17 str4" points="3336,12348 3336,12348 15873,12348 "/>
  <path class="fil18" d="M1203 14102l184 0 0 331c0,49 2,84 4,105 3,21 7,39 13,53 7,17 19,31 37,40 18,9 39,14 65,14 25,0 46,-5 64,-14 17,-9 30,-23 37,-40 6,-14 10,-32 13,-53 2,-21 4,-56 4,-105l0 -46 0 -285 184 0 0 360c0,75 -4,130 -13,165 -9,36 -24,66 -46,91 -23,28 -55,48 -95,62 -41,14 -90,21 -148,21 -59,0 -108,-7 -148,-21 -41,-14 -73,-34 -96,-62 -21,-25 -37,-55 -46,-91 -9,-35 -13,-90 -13,-165l0 -71 0 -289z"/>
  <path id="1" class="fil18" d="M1938 14783l0 -470 152 0 0 95c21,-38 47,-66 76,-84 28,-17 63,-26 103,-26 31,0 58,5 81,15 24,9 43,23 58,42 13,16 21,35 27,57 5,23 8,57 8,102l0 269 -166 0 0 -252c0,-37 -6,-65 -19,-82 -12,-17 -31,-25 -58,-25 -35,0 -60,12 -76,38 -15,25 -23,66 -23,124l0 197 -163 0z"/>
  <path id="2" class="fil18" d="M2874 14783l0 -353 -71 0 0 -117 71 0 0 -96c0,-55 15,-96 45,-123 29,-28 74,-42 133,-42 9,0 19,1 30,3 12,1 24,3 38,6l0 126c-8,-2 -15,-5 -21,-6 -6,-1 -12,-2 -17,-2 -16,0 -27,5 -35,14 -7,9 -10,24 -10,45l0 75 83 0 0 117 -83 0 0 353 -163 0z"/>
  <path id="3" class="fil18" d="M3525 14549c0,-35 -8,-62 -26,-83 -18,-20 -42,-30 -72,-30 -30,0 -54,10 -72,30 -17,21 -26,48 -26,83 0,35 9,63 26,83 18,20 42,30 72,30 31,0 55,-10 72,-30 18,-20 26,-48 26,-83zm165 0c0,34 -6,66 -20,96 -13,31 -32,58 -57,82 -25,25 -54,43 -85,55 -32,13 -65,19 -101,19 -36,0 -69,-6 -101,-19 -31,-12 -59,-30 -84,-55 -25,-23 -44,-50 -57,-81 -13,-30 -20,-63 -20,-97 0,-34 7,-67 20,-97 13,-30 32,-58 57,-82 24,-24 52,-42 84,-54 31,-12 65,-18 101,-18 37,0 70,6 102,18 31,12 59,30 84,54 25,25 45,52 58,82 13,31 19,63 19,97z"/>
  <path id="4" class="fil18" d="M3785 14783l0 -470 152 0 0 95c22,-38 48,-66 76,-84 29,-17 64,-26 104,-26 30,0 57,5 81,15 24,9 43,23 58,42 12,16 21,35 26,57 6,23 8,57 8,102l0 269 -165 0 0 -252c0,-37 -7,-65 -19,-82 -12,-17 -32,-25 -59,-25 -34,0 -59,12 -75,38 -16,25 -24,66 -24,124l0 197 -163 0z"/>
  <path id="5" class="fil18" d="M4766 14548c0,-36 -10,-65 -29,-86 -19,-21 -46,-32 -79,-32 -34,0 -60,11 -79,32 -19,21 -29,50 -29,86 0,37 10,66 29,87 19,21 45,32 79,32 33,0 60,-11 79,-32 19,-21 29,-50 29,-87zm147 -486l0 721 -152 0 0 -76c-22,31 -45,55 -72,70 -26,16 -55,24 -87,24 -66,0 -119,-23 -158,-69 -39,-45 -59,-107 -59,-184 0,-74 20,-135 59,-181 39,-46 89,-69 152,-69 40,0 72,7 97,21 25,15 47,39 67,72 -2,-11 -4,-24 -5,-38 -1,-14 -1,-29 -1,-46l0 -245 159 0z"/>
  <path id="6" class="fil18" d="M5369 14549c0,-35 -8,-62 -26,-83 -18,-20 -42,-30 -72,-30 -30,0 -54,10 -72,30 -17,21 -26,48 -26,83 0,35 9,63 26,83 18,20 42,30 72,30 31,0 55,-10 72,-30 18,-20 26,-48 26,-83zm165 0c0,34 -6,66 -20,96 -13,31 -32,58 -57,82 -25,25 -54,43 -85,55 -32,13 -65,19 -101,19 -36,0 -69,-6 -101,-19 -31,-12 -59,-30 -84,-55 -25,-23 -44,-50 -57,-81 -13,-30 -20,-63 -20,-97 0,-34 7,-67 20,-97 13,-30 32,-58 57,-82 24,-24 52,-42 84,-54 31,-12 65,-18 101,-18 37,0 71,6 102,18 31,12 59,30 84,54 26,25 45,52 58,82 13,31 19,63 19,97z"/>
  <path id="7" class="fil18" d="M6286 14548c0,-36 -9,-65 -29,-86 -19,-21 -45,-32 -79,-32 -33,0 -60,11 -79,32 -19,21 -28,50 -28,86 0,37 9,66 28,87 19,21 45,32 79,32 34,0 60,-11 79,-32 20,-21 29,-50 29,-87zm147 -486l0 721 -152 0 0 -76c-21,31 -45,55 -71,70 -27,16 -56,24 -88,24 -66,0 -119,-23 -158,-69 -39,-45 -58,-107 -58,-184 0,-74 19,-135 58,-181 39,-46 90,-69 152,-69 40,0 72,7 97,21 25,15 47,39 67,72 -2,-11 -3,-24 -4,-38 -1,-14 -2,-29 -2,-46l0 -245 159 0z"/>
  <path id="8" class="fil18" d="M6880 14488c-3,-27 -13,-49 -30,-65 -17,-16 -39,-24 -64,-24 -27,0 -48,7 -64,22 -16,15 -27,37 -32,67l190 0zm163 93l-357 0c0,36 10,64 28,84 18,19 44,29 78,29 25,0 46,-5 63,-14 18,-9 31,-23 40,-42l124 50c-15,36 -41,64 -79,84 -38,19 -84,29 -139,29 -82,0 -148,-23 -197,-68 -49,-46 -74,-106 -74,-180 0,-73 25,-134 74,-182 49,-49 112,-73 188,-73 77,0 139,24 184,73 45,50 67,117 67,202l0 8z"/>
  <polygon id="9" class="fil18" points="7462,14783 7462,14430 7392,14430 7392,14313 7462,14313 7462,14173 7625,14173 7625,14313 7695,14313 7695,14430 7625,14430 7625,14783 "/>
  <path id="10" class="fil18" d="M7769 14167c0,-26 9,-47 27,-64 17,-18 39,-27 64,-27 26,0 48,9 65,26 18,17 27,39 27,65 0,25 -9,47 -27,65 -18,18 -40,27 -65,27 -25,0 -46,-9 -64,-28 -18,-18 -27,-39 -27,-64zm8 616l0 -470 166 0 0 470 -166 0z"/>
  <path id="11" class="fil18" d="M8394 14488c-4,-27 -14,-49 -31,-65 -17,-16 -38,-24 -63,-24 -27,0 -49,7 -65,22 -16,15 -27,37 -32,67l191 0zm163 93l-358 0c1,36 10,64 28,84 19,19 45,29 78,29 25,0 46,-5 64,-14 17,-9 30,-23 39,-42l125 50c-15,36 -42,64 -79,84 -38,19 -85,29 -140,29 -81,0 -147,-23 -197,-68 -49,-46 -74,-106 -74,-180 0,-73 25,-134 74,-182 50,-49 112,-73 188,-73 78,0 139,24 184,73 45,50 68,117 68,202l0 8z"/>
  <path id="12" class="fil18" d="M8653 14783l0 -470 156 0 0 111c16,-41 38,-71 66,-91 28,-20 62,-30 101,-30 7,0 14,0 20,0 7,1 14,2 20,3l-16 150c-10,-3 -19,-6 -29,-7 -10,-2 -19,-2 -28,-2 -40,0 -71,12 -93,37 -22,24 -33,59 -33,104l0 195 -164 0z"/>
  <path id="13" class="fil18" d="M9078 14783l0 -470 157 0 0 111c16,-41 38,-71 66,-91 28,-20 61,-30 101,-30 7,0 13,0 20,0 7,1 13,2 20,3l-16 150c-10,-3 -20,-6 -29,-7 -10,-2 -19,-2 -28,-2 -40,0 -71,12 -93,37 -22,24 -33,59 -33,104l0 195 -165 0z"/>
  <path id="14" class="fil18" d="M9861 14548c0,-37 -10,-66 -29,-87 -20,-22 -47,-33 -80,-33 -34,0 -61,11 -80,32 -19,21 -29,51 -29,88 0,36 10,65 29,86 20,21 46,32 80,32 33,0 60,-11 80,-32 19,-21 29,-50 29,-86zm146 -235l0 470 -153 0 0 -76c-21,32 -46,56 -73,71 -27,15 -59,23 -95,23 -63,0 -113,-23 -151,-69 -37,-45 -56,-107 -56,-184 0,-76 20,-137 59,-182 39,-45 92,-68 158,-68 36,0 66,8 92,23 25,15 47,38 65,69l0 -77 154 0z"/>
  <path id="15" class="fil18" d="M10088 14744l34 -127c25,21 51,37 80,49 29,11 58,17 88,17 21,0 36,-4 47,-10 11,-7 17,-17 17,-29 0,-21 -22,-37 -66,-47 -14,-3 -26,-6 -35,-9 -49,-13 -85,-31 -108,-54 -22,-22 -33,-50 -33,-86 0,-45 17,-82 51,-109 34,-27 81,-41 139,-41 30,0 61,3 92,10 31,7 63,18 96,33l-35 114c-22,-15 -44,-26 -67,-34 -22,-8 -45,-12 -68,-12 -18,0 -33,3 -42,9 -10,6 -15,15 -15,26 0,17 22,31 65,42 10,3 18,5 23,6 57,17 97,36 119,58 23,22 34,52 34,90 0,48 -18,87 -55,116 -37,30 -86,45 -147,45 -41,0 -79,-5 -115,-14 -35,-10 -68,-24 -99,-43z"/>
  <path id="16" class="fil18" d="M11249 14548c0,-36 -9,-65 -29,-86 -19,-21 -45,-32 -79,-32 -33,0 -60,11 -79,32 -19,21 -28,50 -28,86 0,37 9,66 28,87 19,21 45,32 79,32 34,0 60,-11 79,-32 20,-21 29,-50 29,-87zm147 -486l0 721 -152 0 0 -76c-21,31 -45,55 -71,70 -27,16 -56,24 -88,24 -66,0 -119,-23 -158,-69 -39,-45 -58,-107 -58,-184 0,-74 19,-135 58,-181 39,-46 90,-69 152,-69 40,0 72,7 97,21 25,15 47,39 67,72 -2,-11 -3,-24 -4,-38 -1,-14 -2,-29 -2,-46l0 -245 159 0z"/>
  <path id="17" class="fil18" d="M11843 14488c-3,-27 -13,-49 -30,-65 -17,-16 -39,-24 -64,-24 -27,0 -48,7 -64,22 -16,15 -27,37 -32,67l190 0zm163 93l-357 0c0,36 10,64 28,84 18,19 44,29 78,29 25,0 46,-5 63,-14 18,-9 31,-23 40,-42l124 50c-15,36 -41,64 -79,84 -38,19 -84,29 -139,29 -82,0 -148,-23 -197,-68 -49,-46 -74,-106 -74,-180 0,-73 25,-134 74,-182 49,-49 112,-73 188,-73 77,0 139,24 184,73 45,50 67,117 67,202l0 8z"/>
  <path id="18" class="fil18" d="M12758 14548c0,-36 -10,-65 -29,-86 -19,-21 -46,-32 -79,-32 -33,0 -60,11 -79,32 -19,21 -29,50 -29,86 0,37 10,66 29,87 19,21 45,32 79,32 33,0 60,-11 79,-32 19,-21 29,-50 29,-87zm147 -486l0 721 -152 0 0 -76c-21,31 -45,55 -72,70 -26,16 -55,24 -87,24 -66,0 -119,-23 -158,-69 -39,-45 -59,-107 -59,-184 0,-74 20,-135 59,-181 39,-46 89,-69 152,-69 40,0 72,7 97,21 25,15 47,39 67,72 -2,-11 -4,-24 -4,-38 -1,-14 -2,-29 -2,-46l0 -245 159 0z"/>
  <path id="19" class="fil18" d="M13024 14167c0,-26 9,-47 27,-64 18,-18 39,-27 65,-27 26,0 47,9 65,26 18,17 26,39 26,65 0,25 -9,47 -27,65 -17,18 -39,27 -64,27 -25,0 -47,-9 -65,-28 -18,-18 -27,-39 -27,-64zm9 616l0 -470 166 0 0 470 -166 0z"/>
  <path id="20" class="fil18" d="M13282 14744l34 -127c24,21 51,37 80,49 29,11 58,17 88,17 20,0 36,-4 47,-10 11,-7 16,-17 16,-29 0,-21 -22,-37 -65,-47 -15,-3 -26,-6 -35,-9 -50,-13 -85,-31 -108,-54 -22,-22 -34,-50 -34,-86 0,-45 18,-82 52,-109 34,-27 80,-41 139,-41 30,0 61,3 92,10 31,7 63,18 96,33l-35 114c-22,-15 -44,-26 -67,-34 -23,-8 -45,-12 -68,-12 -19,0 -33,3 -43,9 -9,6 -14,15 -14,26 0,17 22,31 65,42 10,3 18,5 22,6 58,17 98,36 120,58 23,22 34,52 34,90 0,48 -19,87 -56,116 -36,30 -85,45 -146,45 -41,0 -79,-5 -115,-14 -35,-10 -68,-24 -99,-43z"/>
  <polygon id="21" class="fil18" points="13812,14783 13812,14430 13741,14430 13741,14313 13812,14313 13812,14173 13975,14173 13975,14313 14045,14313 14045,14430 13975,14430 13975,14783 "/>
  <path id="22" class="fil18" d="M14123 14783l0 -470 157 0 0 111c16,-41 38,-71 66,-91 28,-20 62,-30 101,-30 7,0 13,0 20,0 7,1 13,2 20,3l-16 150c-10,-3 -20,-6 -29,-7 -10,-2 -19,-2 -28,-2 -40,0 -71,12 -93,37 -22,24 -33,59 -33,104l0 195 -165 0z"/>
  <path id="23" class="fil18" d="M14544 14167c0,-26 9,-47 27,-64 18,-18 39,-27 65,-27 26,0 47,9 65,26 17,17 26,39 26,65 0,25 -9,47 -27,65 -17,18 -39,27 -64,27 -25,0 -47,-9 -65,-28 -18,-18 -27,-39 -27,-64zm9 616l0 -470 166 0 0 470 -166 0z"/>
  <path id="24" class="fil18" d="M14993 14548c0,37 10,66 29,87 19,21 45,32 79,32 33,0 60,-11 79,-32 19,-21 29,-50 29,-87 0,-36 -10,-65 -29,-86 -19,-21 -46,-32 -79,-32 -34,0 -60,11 -79,32 -19,21 -29,50 -29,86zm-147 -486l158 0 0 245c0,20 0,37 -1,50 -1,13 -2,25 -3,34 19,-33 41,-57 66,-72 25,-14 57,-21 97,-21 63,0 114,23 153,69 39,46 58,107 58,181 0,77 -20,139 -59,184 -39,46 -92,69 -157,69 -33,0 -62,-8 -88,-24 -26,-15 -50,-39 -71,-70l0 76 -153 0 0 -721z"/>
  <path id="25" class="fil18" d="M15956 14313l0 240c0,53 -4,92 -13,118 -8,25 -23,48 -43,68 -21,21 -47,36 -77,46 -32,11 -68,16 -110,16 -41,0 -78,-5 -108,-16 -31,-10 -58,-25 -79,-46 -21,-19 -35,-42 -43,-68 -9,-26 -13,-65 -13,-118l0 -240 158 0 0 251c0,39 7,67 20,85 13,17 34,26 63,26 30,0 51,-8 64,-26 13,-17 19,-45 19,-85l0 -251 162 0z"/>
  <path id="26" class="fil18" d="M16412 14468c-16,-15 -31,-25 -46,-32 -15,-6 -31,-9 -47,-9 -33,0 -59,10 -79,32 -19,22 -29,51 -29,89 0,35 10,64 30,86 21,21 48,32 82,32 17,0 32,-4 47,-10 15,-7 29,-17 42,-31l0 143c-20,11 -40,20 -59,25 -20,5 -41,8 -62,8 -72,0 -131,-23 -175,-70 -45,-46 -68,-107 -68,-183 0,-73 23,-133 69,-180 46,-47 104,-70 176,-70 24,0 45,2 65,7 19,5 37,12 54,22l0 141z"/>
  <path id="27" class="fil18" d="M16510 14167c0,-26 9,-47 27,-64 18,-18 39,-27 65,-27 26,0 47,9 65,26 17,17 26,39 26,65 0,25 -9,47 -27,65 -18,18 -39,27 -64,27 -25,0 -47,-9 -65,-28 -18,-18 -27,-39 -27,-64zm9 616l0 -470 166 0 0 470 -166 0z"/>
  <path id="28" class="fil18" d="M17145 14549c0,-35 -9,-62 -27,-83 -18,-20 -42,-30 -72,-30 -30,0 -54,10 -71,30 -18,21 -27,48 -27,83 0,35 9,63 26,83 18,20 42,30 72,30 31,0 55,-10 72,-30 18,-20 27,-48 27,-83zm164 0c0,34 -6,66 -19,96 -14,31 -33,58 -58,82 -25,25 -54,43 -85,55 -32,13 -65,19 -101,19 -36,0 -69,-6 -101,-19 -31,-12 -59,-30 -84,-55 -25,-23 -44,-50 -57,-81 -13,-30 -19,-63 -19,-97 0,-34 6,-67 19,-97 13,-30 32,-58 57,-82 24,-24 52,-42 84,-54 31,-12 65,-18 101,-18 37,0 71,6 102,18 31,12 59,30 84,54 26,25 45,52 58,82 13,31 19,63 19,97zm-127 -462l-144 162 -72 0 85 -162 131 0z"/>
  <path id="29" class="fil18" d="M17405 14783l0 -470 151 0 0 95c22,-38 48,-66 77,-84 28,-17 63,-26 103,-26 31,0 58,5 81,15 24,9 43,23 58,42 13,16 21,35 27,57 5,23 7,57 7,102l0 269 -165 0 0 -252c0,-37 -6,-65 -19,-82 -12,-17 -31,-25 -58,-25 -35,0 -60,12 -76,38 -16,25 -23,66 -23,124l0 197 -163 0z"/>
  <path id="30" class="fil18" d="M1553 15689c0,-36 -10,-64 -29,-85 -19,-21 -46,-31 -80,-31 -35,0 -62,10 -81,31 -20,21 -30,49 -30,85 0,36 10,65 30,85 19,21 46,31 81,31 34,0 60,-10 80,-31 19,-20 29,-49 29,-85zm146 -233l0 469c0,71 -22,123 -65,157 -43,34 -110,51 -201,51 -73,0 -130,-14 -172,-41 -42,-27 -63,-65 -66,-115l171 0c3,15 11,26 25,34 14,8 32,13 54,13 36,0 61,-9 74,-26 14,-17 20,-53 20,-109l0 -43c-17,30 -39,52 -66,66 -27,15 -59,22 -96,22 -62,0 -112,-22 -150,-67 -37,-45 -56,-105 -56,-180 0,-75 20,-135 59,-180 39,-44 92,-66 158,-66 35,0 66,7 91,22 26,14 48,37 67,68l0 -75 153 0z"/>
  <path id="31" class="fil18" d="M1825 15925l0 -469 156 0 0 111c16,-41 38,-71 66,-91 28,-20 62,-31 102,-31 6,0 13,1 19,1 7,1 14,1 21,2l-17 151c-9,-4 -19,-6 -29,-8 -9,-1 -19,-2 -28,-2 -40,0 -71,13 -93,37 -22,25 -32,60 -32,105l0 194 -165 0z"/>
  <path id="32" class="fil18" d="M2607 15690c0,-36 -9,-65 -29,-87 -19,-21 -46,-32 -80,-32 -34,0 -60,11 -80,32 -19,21 -29,50 -29,87 0,37 10,66 30,87 19,21 46,31 79,31 34,0 61,-10 80,-31 20,-21 29,-50 29,-87zm146 -234l0 469 -152 0 0 -76c-22,33 -46,57 -73,72 -27,15 -59,23 -96,23 -63,0 -113,-23 -150,-69 -38,-46 -56,-107 -56,-184 0,-77 19,-137 58,-183 40,-45 92,-67 159,-67 35,0 66,7 91,22 26,15 48,39 66,70l0 -77 153 0z"/>
  <polygon id="33" class="fil18" points="2904,15925 2904,15573 2833,15573 2833,15456 2904,15456 2904,15316 3067,15316 3067,15456 3137,15456 3137,15573 3067,15573 3067,15925 "/>
  <path id="34" class="fil18" d="M3696 15456l0 240c0,53 -4,92 -12,118 -9,25 -23,48 -43,68 -21,20 -47,36 -78,46 -31,10 -68,16 -109,16 -42,0 -78,-6 -109,-16 -31,-10 -57,-26 -79,-46 -20,-20 -34,-42 -43,-68 -8,-26 -12,-65 -12,-118l0 -240 158 0 0 250c0,40 6,68 19,86 13,17 34,26 64,26 29,0 50,-9 63,-26 13,-17 19,-46 19,-86l0 -250 162 0z"/>
  <path id="35" class="fil18" d="M3812 15309c0,-25 8,-46 26,-64 18,-17 40,-26 65,-26 26,0 48,8 65,26 18,17 26,38 26,64 0,26 -9,48 -26,66 -18,18 -40,27 -65,27 -25,0 -47,-10 -65,-28 -17,-18 -26,-40 -26,-65zm8 616l0 -469 166 0 0 469 -166 0z"/>
  <polygon id="36" class="fil18" points="4138,15925 4138,15573 4068,15573 4068,15456 4138,15456 4138,15316 4301,15316 4301,15456 4372,15456 4372,15573 4301,15573 4301,15925 "/>
  <path id="37" class="fil18" d="M4807 15690c0,-36 -10,-65 -30,-87 -19,-21 -46,-32 -80,-32 -33,0 -60,11 -79,32 -20,21 -29,50 -29,87 0,37 9,66 29,87 19,21 46,31 79,31 34,0 61,-10 80,-31 20,-21 30,-50 30,-87zm146 -234l0 469 -153 0 0 -76c-22,33 -46,57 -73,72 -27,15 -59,23 -96,23 -62,0 -112,-23 -150,-69 -37,-46 -56,-107 -56,-184 0,-77 20,-137 59,-183 39,-45 92,-67 158,-67 35,0 66,7 92,22 25,15 47,39 65,70l0 -77 154 0z"/>
  <path id="38" class="fil18" d="M5471 15704c0,45 12,82 35,109 22,27 52,41 90,41 38,0 67,-13 88,-38 21,-26 32,-62 32,-109 0,-46 -11,-83 -33,-109 -22,-26 -52,-39 -90,-39 -38,0 -68,12 -90,38 -21,25 -32,61 -32,107zm-97 429l0 -649 101 0 0 72c11,-27 30,-49 56,-64 26,-15 57,-23 93,-23 59,0 106,22 143,65 36,43 54,100 54,170 0,75 -18,133 -54,176 -35,42 -84,64 -147,64 -31,0 -58,-7 -82,-19 -24,-12 -45,-31 -63,-57l0 265 -101 0z"/>
  <path id="39" class="fil18" d="M6343 15925l-101 0 0 -57c-18,26 -39,45 -63,57 -24,12 -51,19 -82,19 -63,0 -112,-22 -148,-64 -35,-43 -53,-101 -53,-176 0,-70 18,-127 55,-170 36,-43 84,-65 143,-65 36,0 67,8 92,23 26,15 45,36 56,64l0 -72 101 0 0 441zm-98 -221c0,-46 -10,-82 -32,-107 -21,-26 -51,-38 -89,-38 -38,0 -68,13 -90,39 -22,26 -33,63 -33,109 0,47 11,83 32,109 21,25 51,38 89,38 37,0 66,-14 89,-41 23,-28 34,-64 34,-109z"/>
  <path id="40" class="fil18" d="M6583 15555c11,-29 26,-51 43,-65 18,-14 40,-21 67,-21 14,0 28,2 42,5 14,4 27,9 41,15l-37 86c-8,-6 -18,-11 -28,-14 -10,-3 -21,-4 -34,-4 -33,0 -57,13 -72,40 -14,27 -22,72 -22,135l0 193 -101 0 0 -441 101 0 0 71z"/>
  <path id="41" class="fil18" d="M7248 15925l-101 0 0 -57c-18,26 -39,45 -63,57 -24,12 -51,19 -82,19 -63,0 -112,-22 -148,-64 -35,-43 -53,-101 -53,-176 0,-70 18,-127 55,-170 36,-43 84,-65 143,-65 36,0 67,8 92,23 26,15 45,36 56,64l0 -72 101 0 0 441zm-98 -221c0,-46 -10,-82 -32,-107 -21,-26 -51,-38 -89,-38 -38,0 -68,13 -90,39 -22,26 -33,63 -33,109 0,47 11,83 32,109 21,25 51,38 89,38 37,0 66,-14 89,-41 23,-28 34,-64 34,-109z"/>
  <path id="42" class="fil18" d="M8004 15610c-15,-17 -33,-30 -54,-39 -20,-9 -43,-13 -67,-13 -41,0 -74,13 -99,40 -24,26 -37,62 -37,106 0,46 13,82 38,108 25,26 59,39 103,39 25,0 47,-4 66,-13 19,-10 36,-24 50,-42l0 116c-18,11 -38,18 -59,24 -22,5 -44,8 -68,8 -69,0 -126,-23 -169,-66 -44,-44 -66,-102 -66,-172 0,-71 23,-128 68,-171 45,-44 104,-66 177,-66 23,0 44,2 63,7 20,4 38,11 54,21l0 113z"/>
  <path id="43" class="fil18" d="M8523 15925l-101 0 0 -57c-18,26 -39,45 -63,57 -24,12 -52,19 -83,19 -62,0 -111,-22 -147,-64 -36,-43 -54,-101 -54,-176 0,-70 18,-127 55,-170 37,-43 84,-65 143,-65 36,0 67,8 93,23 25,15 44,36 56,64l0 -72 101 0 0 441zm-98 -221c0,-46 -11,-82 -32,-107 -22,-26 -51,-38 -89,-38 -39,0 -69,13 -90,39 -22,26 -33,63 -33,109 0,47 10,83 31,109 22,25 51,38 90,38 36,0 66,-14 88,-41 23,-28 35,-64 35,-109z"/>
  <path id="44" class="fil18" d="M8763 15925l-101 0 0 -441 95 0 0 73c20,-31 43,-53 68,-68 26,-14 56,-21 91,-21 34,0 63,7 85,22 23,14 40,36 52,66 23,-31 48,-53 74,-67 26,-14 56,-21 90,-21 29,0 54,6 76,16 22,11 39,27 51,47 5,10 9,21 12,35 3,13 4,32 4,57l0 35 0 267 -101 0 0 -226c0,-59 -6,-98 -19,-117 -12,-19 -35,-28 -67,-28 -40,0 -68,13 -85,38 -17,25 -25,69 -25,133l0 200 -102 0 0 -226c0,-55 -7,-92 -20,-113 -13,-22 -36,-32 -68,-32 -20,0 -38,4 -54,13 -17,10 -30,22 -40,38 -6,10 -10,22 -13,37 -2,15 -3,43 -3,83l0 200z"/>
  <path id="45" class="fil18" d="M9593 15704c0,45 11,82 34,109 23,27 53,41 90,41 38,0 68,-13 89,-38 21,-26 31,-62 31,-109 0,-46 -11,-83 -33,-109 -21,-26 -51,-39 -90,-39 -38,0 -67,12 -89,38 -21,25 -32,61 -32,107zm-98 429l0 -649 101 0 0 72c12,-27 31,-49 57,-64 26,-15 57,-23 93,-23 58,0 106,22 142,65 37,43 55,100 55,170 0,75 -18,133 -54,176 -36,42 -85,64 -147,64 -31,0 -59,-7 -83,-19 -24,-12 -45,-31 -63,-57l0 265 -101 0z"/>
  <path id="46" class="fil18" d="M10474 15720l-352 0c3,41 15,73 37,96 22,24 51,35 88,35 32,0 59,-7 81,-20 22,-14 41,-36 57,-67l85 48c-25,44 -56,77 -92,99 -37,22 -80,33 -129,33 -71,0 -127,-22 -169,-65 -42,-43 -63,-101 -63,-173 0,-69 22,-125 65,-170 43,-45 99,-67 167,-67 71,0 126,21 166,61 40,41 59,98 59,171l0 19zm-104 -68c-4,-31 -16,-56 -37,-72 -20,-17 -47,-25 -82,-25 -33,0 -60,8 -80,24 -20,16 -34,41 -42,73l241 0z"/>
  <path id="47" class="fil18" d="M10529 15845l84 -45c6,22 17,39 34,50 17,12 38,17 65,17 22,0 40,-5 53,-15 13,-11 19,-25 19,-43 0,-24 -23,-44 -69,-61 -15,-6 -27,-10 -35,-14 -47,-20 -80,-40 -99,-60 -19,-20 -28,-44 -28,-73 0,-40 15,-71 46,-96 31,-25 72,-37 122,-37 35,0 64,7 88,19 24,13 42,30 53,54l-71 49c-6,-14 -15,-25 -28,-33 -13,-8 -28,-13 -46,-13 -19,0 -34,5 -46,14 -11,9 -17,22 -17,37 0,23 26,44 78,62 16,6 29,11 38,15 40,16 69,34 87,55 17,20 26,45 26,76 0,44 -16,78 -48,103 -32,25 -76,38 -132,38 -43,0 -79,-9 -107,-25 -29,-16 -51,-40 -67,-74z"/>
  <path id="48" class="fil18" d="M10976 15294c0,-17 7,-32 19,-44 13,-13 28,-19 45,-19 18,0 33,6 45,18 12,12 18,27 18,45 0,18 -6,33 -18,45 -12,13 -27,19 -45,19 -17,0 -32,-7 -45,-19 -12,-13 -19,-28 -19,-45zm14 631l0 -441 101 0 0 441 -101 0z"/>
  <path id="49" class="fil18" d="M11235 15925l0 -441 95 0 0 73c20,-31 43,-53 71,-67 27,-14 60,-21 99,-21 33,0 61,5 84,16 23,10 42,26 55,46 7,12 13,26 16,43 4,16 5,44 5,84l0 267 -101 0 0 -226c0,-58 -7,-96 -22,-115 -14,-20 -39,-29 -75,-29 -23,0 -44,4 -63,13 -18,9 -33,21 -43,37 -8,10 -13,24 -16,40 -3,17 -4,43 -4,80l0 200 -101 0z"/>
  <path id="50" class="fil18" d="M12141 15706c0,-41 -13,-75 -39,-104 -27,-28 -59,-42 -97,-42 -38,0 -70,14 -96,42 -27,29 -40,63 -40,104 0,41 13,76 40,105 26,28 58,42 96,42 38,0 70,-14 97,-42 26,-29 39,-64 39,-105zm-379 -1c0,-32 6,-62 19,-91 12,-29 29,-54 52,-76 23,-22 49,-39 79,-51 29,-12 60,-18 92,-18 33,0 65,6 94,18 29,12 56,29 79,52 23,23 41,48 53,77 12,28 18,58 18,89 0,33 -6,64 -18,92 -12,29 -29,54 -52,76 -24,23 -51,41 -81,53 -29,12 -60,18 -93,18 -32,0 -63,-6 -92,-18 -29,-12 -56,-30 -79,-52 -23,-23 -40,-49 -53,-77 -12,-29 -18,-59 -18,-92z"/>
  <path id="51" class="fil18" d="M12304 15845l84 -45c6,22 17,39 34,50 17,12 39,17 65,17 22,0 40,-5 53,-15 13,-11 19,-25 19,-43 0,-24 -23,-44 -68,-61 -16,-6 -28,-10 -36,-14 -47,-20 -80,-40 -99,-60 -19,-20 -28,-44 -28,-73 0,-40 15,-71 46,-96 31,-25 72,-37 123,-37 34,0 63,7 87,19 25,13 42,30 53,54l-71 49c-5,-14 -15,-25 -28,-33 -13,-8 -28,-13 -46,-13 -19,0 -34,5 -46,14 -11,9 -17,22 -17,37 0,23 26,44 78,62 16,6 29,11 38,15 40,16 70,34 87,55 18,20 26,45 26,76 0,44 -16,78 -48,103 -31,25 -75,38 -132,38 -43,0 -79,-9 -107,-25 -29,-16 -51,-40 -67,-74z"/>
  <path id="52" class="fil18" d="M12997 15845l84 -45c6,22 18,39 34,50 17,12 39,17 65,17 23,0 40,-5 53,-15 13,-11 19,-25 19,-43 0,-24 -22,-44 -68,-61 -16,-6 -28,-10 -36,-14 -47,-20 -80,-40 -99,-60 -19,-20 -28,-44 -28,-73 0,-40 15,-71 46,-96 31,-25 72,-37 123,-37 34,0 63,7 87,19 25,13 42,30 54,54l-72 49c-5,-14 -15,-25 -28,-33 -13,-8 -28,-13 -45,-13 -20,0 -35,5 -47,14 -11,9 -17,22 -17,37 0,23 26,44 78,62 16,6 29,11 38,15 41,16 70,34 87,55 18,20 26,45 26,76 0,44 -16,78 -47,103 -32,25 -76,38 -133,38 -43,0 -78,-9 -107,-25 -28,-16 -51,-40 -67,-74z"/>
  <path id="53" class="fil18" d="M13445 15294c0,-17 6,-32 19,-44 12,-13 27,-19 44,-19 18,0 33,6 45,18 12,12 18,27 18,45 0,18 -6,33 -18,45 -12,13 -27,19 -45,19 -17,0 -32,-7 -44,-19 -13,-13 -19,-28 -19,-45zm13 631l0 -441 101 0 0 441 -101 0z"/>
  <path id="54" class="fil18" d="M13703 15925l0 -441 95 0 0 73c20,-31 44,-53 71,-67 27,-14 60,-21 100,-21 33,0 60,5 84,16 23,10 41,26 54,46 8,12 13,26 17,43 3,16 5,44 5,84l0 267 -102 0 0 -226c0,-58 -7,-96 -21,-115 -14,-20 -40,-29 -76,-29 -23,0 -44,4 -63,13 -18,9 -33,21 -43,37 -8,10 -13,24 -16,40 -3,17 -4,43 -4,80l0 200 -101 0z"/>
  <polygon id="55" class="fil18" points="14574,15925 14574,15573 14497,15573 14497,15484 14574,15484 14574,15318 14675,15318 14675,15484 14752,15484 14752,15573 14675,15573 14675,15925 "/>
  <path id="56" class="fil18" d="M14831 15294c0,-17 6,-32 18,-44 13,-13 28,-19 45,-19 18,0 33,6 45,18 12,12 18,27 18,45 0,18 -6,33 -18,45 -12,13 -27,19 -45,19 -17,0 -32,-7 -45,-19 -12,-13 -18,-28 -18,-45zm13 631l0 -441 101 0 0 441 -101 0z"/>
  <path id="57" class="fil18" d="M15514 15720l-353 0c3,41 15,73 37,96 22,24 51,35 88,35 33,0 60,-7 81,-20 22,-14 41,-36 57,-67l85 48c-25,44 -56,77 -92,99 -37,22 -80,33 -129,33 -71,0 -127,-22 -169,-65 -42,-43 -63,-101 -63,-173 0,-69 22,-125 65,-170 44,-45 99,-67 167,-67 71,0 126,21 166,61 40,41 60,98 60,171l0 19zm-105 -68c-4,-31 -16,-56 -36,-72 -20,-17 -48,-25 -83,-25 -33,0 -60,8 -80,24 -20,16 -34,41 -42,73l241 0z"/>
  <path id="58" class="fil18" d="M15720 15555c10,-29 25,-51 43,-65 18,-14 40,-21 66,-21 14,0 28,2 42,5 14,4 28,9 41,15l-36 86c-9,-6 -19,-11 -29,-14 -10,-3 -21,-4 -33,-4 -34,0 -58,13 -73,40 -14,27 -21,72 -21,135l0 193 -101 0 0 -441 101 0 0 71z"/>
  <path id="59" class="fil18" d="M16070 15555c11,-29 25,-51 43,-65 18,-14 40,-21 67,-21 14,0 28,2 42,5 14,4 27,9 41,15l-37 86c-8,-6 -18,-11 -28,-14 -10,-3 -21,-4 -34,-4 -33,0 -57,13 -72,40 -14,27 -22,72 -22,135l0 193 -101 0 0 -441 101 0 0 71z"/>
  <path id="60" class="fil18" d="M16735 15925l-101 0 0 -57c-18,26 -39,45 -63,57 -24,12 -51,19 -82,19 -63,0 -112,-22 -148,-64 -36,-43 -53,-101 -53,-176 0,-70 18,-127 54,-170 37,-43 85,-65 144,-65 36,0 67,8 92,23 26,15 45,36 56,64l0 -72 101 0 0 441zm-98 -221c0,-46 -11,-82 -32,-107 -21,-26 -51,-38 -89,-38 -38,0 -68,13 -90,39 -22,26 -33,63 -33,109 0,47 11,83 32,109 21,25 51,38 89,38 37,0 66,-14 89,-41 23,-28 34,-64 34,-109z"/>
  <path id="61" class="fil18" d="M17509 15706c0,-41 -14,-75 -40,-104 -26,-28 -59,-42 -97,-42 -37,0 -70,14 -96,42 -27,29 -40,63 -40,104 0,41 13,76 40,105 26,28 59,42 96,42 38,0 70,-14 97,-42 26,-29 40,-64 40,-105zm-380 -1c0,-32 7,-62 19,-91 12,-29 30,-54 53,-76 22,-22 48,-39 78,-51 29,-12 60,-18 92,-18 34,0 65,6 94,18 29,12 56,29 79,52 23,23 41,48 53,77 12,28 18,58 18,89 0,33 -6,64 -18,92 -12,29 -29,54 -52,76 -24,23 -51,41 -81,53 -29,12 -60,18 -93,18 -32,0 -62,-6 -92,-18 -29,-12 -55,-30 -78,-52 -24,-23 -41,-49 -53,-77 -13,-29 -19,-59 -19,-92z"/>
  <path id="62" class="fil18" d="M1533 16753c-15,-17 -33,-30 -54,-39 -21,-9 -43,-14 -67,-14 -41,0 -74,14 -99,40 -25,27 -37,62 -37,107 0,45 12,81 37,108 25,26 60,39 104,39 24,0 46,-5 65,-14 20,-9 37,-23 51,-41l0 116c-18,10 -38,18 -60,23 -21,6 -44,8 -67,8 -70,0 -126,-22 -169,-66 -44,-44 -66,-101 -66,-171 0,-71 23,-128 68,-172 45,-43 104,-65 177,-65 23,0 44,2 63,7 19,4 37,11 54,21l0 113z"/>
  <path id="63" class="fil18" d="M1983 16849c0,-41 -13,-76 -40,-104 -26,-28 -58,-43 -96,-43 -38,0 -70,15 -97,43 -26,28 -40,63 -40,104 0,41 14,76 40,104 27,29 59,43 97,43 37,0 70,-14 96,-43 27,-28 40,-63 40,-104zm-379 -1c0,-32 6,-63 18,-91 12,-29 30,-54 53,-77 23,-22 49,-39 78,-50 30,-12 60,-18 93,-18 33,0 64,6 94,18 29,11 55,29 78,52 24,22 41,48 53,76 13,29 19,59 19,90 0,33 -6,63 -18,92 -12,28 -30,54 -53,76 -24,23 -51,40 -80,52 -30,12 -61,18 -93,18 -32,0 -63,-6 -92,-18 -30,-12 -56,-29 -79,-51 -23,-23 -41,-49 -53,-78 -12,-28 -18,-59 -18,-91z"/>
  <path id="64" class="fil18" d="M2196 17068l0 -441 95 0 0 73c20,-31 44,-53 71,-67 27,-14 61,-21 100,-21 33,0 61,5 84,15 23,11 41,26 54,47 8,12 13,26 17,42 3,16 5,44 5,85l0 267 -102 0 0 -226c0,-58 -7,-97 -21,-116 -14,-19 -39,-28 -75,-28 -24,0 -45,4 -63,13 -19,8 -33,21 -44,36 -7,11 -13,24 -16,41 -3,17 -4,43 -4,79l0 201 -101 0z"/>
  <polygon id="65" class="fil18" points="3067,17068 3067,16716 2990,16716 2990,16627 3067,16627 3067,16460 3168,16460 3168,16627 3245,16627 3245,16716 3168,16716 3168,17068 "/>
  <path id="66" class="fil18" d="M3324 16437c0,-17 6,-32 19,-45 12,-12 27,-18 44,-18 18,0 34,6 45,18 12,12 18,27 18,45 0,18 -6,33 -18,45 -12,12 -27,18 -45,18 -17,0 -32,-6 -44,-18 -13,-13 -19,-28 -19,-45zm13 631l0 -441 101 0 0 441 -101 0z"/>
  <path id="67" class="fil18" d="M4007 16862l-353 0c3,42 15,74 37,97 22,23 51,35 88,35 33,0 60,-7 81,-21 22,-13 41,-35 57,-66l85 48c-25,44 -55,77 -92,99 -37,21 -80,32 -129,32 -71,0 -127,-21 -169,-64 -41,-44 -62,-101 -62,-173 0,-69 21,-126 64,-170 44,-45 99,-67 167,-67 71,0 127,20 166,61 40,40 60,97 60,170l0 19zm-105 -67c-4,-32 -16,-56 -36,-72 -20,-17 -48,-25 -83,-25 -33,0 -60,8 -80,24 -20,16 -34,40 -42,73l241 0z"/>
  <path id="68" class="fil18" d="M4213 16698c11,-30 25,-51 43,-65 18,-14 40,-21 66,-21 14,0 28,2 42,5 14,3 28,8 41,15l-36 86c-9,-7 -18,-11 -28,-14 -11,-3 -22,-4 -34,-4 -34,0 -58,13 -72,40 -15,27 -22,72 -22,135l0 193 -101 0 0 -442 101 0 0 72z"/>
  <path id="69" class="fil18" d="M4563 16698c11,-30 26,-51 43,-65 18,-14 40,-21 67,-21 14,0 28,2 42,5 14,3 27,8 41,15l-37 86c-8,-7 -18,-11 -28,-14 -10,-3 -21,-4 -34,-4 -33,0 -57,13 -72,40 -14,27 -22,72 -22,135l0 193 -101 0 0 -442 101 0 0 72z"/>
  <path id="70" class="fil18" d="M5228 17068l-101 0 0 -57c-18,25 -39,44 -63,57 -24,12 -51,18 -82,18 -63,0 -112,-21 -148,-64 -35,-42 -53,-101 -53,-175 0,-70 18,-127 55,-170 36,-44 84,-65 143,-65 36,0 67,7 92,22 26,15 45,37 56,65l0 -72 101 0 0 441zm-98 -222c0,-45 -10,-81 -32,-106 -21,-26 -51,-39 -89,-39 -38,0 -68,14 -90,40 -22,26 -33,63 -33,109 0,47 11,83 32,108 21,26 51,39 89,39 37,0 66,-14 89,-42 23,-27 34,-64 34,-109z"/>
  <path id="71" class="fil18" d="M5646 16437c0,-17 7,-32 19,-45 13,-12 28,-18 45,-18 18,0 33,6 45,18 12,12 18,27 18,45 0,18 -6,33 -18,45 -12,12 -27,18 -45,18 -17,0 -32,-6 -45,-18 -12,-13 -19,-28 -19,-45zm14 631l0 -441 101 0 0 441 -101 0z"/>
  <path id="72" class="fil18" d="M5905 17068l0 -441 95 0 0 73c20,-31 43,-53 71,-67 27,-14 60,-21 99,-21 33,0 61,5 84,15 23,11 41,26 54,47 8,12 14,26 17,42 4,16 5,44 5,85l0 267 -102 0 0 -226c0,-58 -7,-97 -21,-116 -14,-19 -39,-28 -75,-28 -23,0 -44,4 -63,13 -18,8 -33,21 -43,36 -8,11 -13,24 -16,41 -3,17 -4,43 -4,79l0 201 -101 0z"/>
  <path id="73" class="fil18" d="M6414 16988l84 -46c6,22 17,39 34,51 17,11 39,17 65,17 22,0 40,-5 53,-16 13,-10 19,-24 19,-42 0,-24 -23,-45 -68,-62 -16,-5 -28,-10 -36,-14 -47,-19 -80,-39 -99,-59 -19,-20 -28,-45 -28,-73 0,-40 15,-72 46,-96 31,-25 72,-37 123,-37 34,0 63,6 87,19 25,12 42,30 53,54l-71 49c-5,-14 -15,-25 -28,-33 -13,-9 -28,-13 -46,-13 -19,0 -34,5 -46,14 -11,9 -17,21 -17,36 0,23 26,44 78,63 16,6 29,11 38,15 41,16 70,34 87,54 18,21 26,46 26,76 0,44 -16,79 -48,104 -31,25 -75,37 -132,37 -43,0 -79,-8 -107,-24 -29,-16 -51,-41 -67,-74z"/>
  <path id="74" class="fil18" d="M6968 16627l0 249c0,42 9,73 27,92 17,18 46,28 86,28 39,0 68,-10 86,-28 17,-19 26,-50 26,-92l0 -249 101 0 0 218c0,85 -17,146 -51,184 -33,38 -87,57 -161,57 -76,0 -130,-19 -164,-56 -34,-38 -51,-100 -51,-185l0 -218 101 0z"/>
  <path id="75" class="fil18" d="M7444 17068l0 -352 -77 0 0 -89 77 0 0 -118c0,-59 13,-102 37,-130 24,-27 62,-41 113,-41 11,0 22,0 34,2 11,1 23,4 34,7l0 91c-8,-4 -16,-8 -24,-10 -8,-3 -16,-4 -25,-4 -24,0 -41,8 -52,23 -10,15 -16,40 -16,75l0 105 106 0 0 89 -106 0 0 352 -101 0z"/>
  <path id="76" class="fil18" d="M7713 16437c0,-17 6,-32 19,-45 13,-12 27,-18 45,-18 18,0 33,6 45,18 12,12 18,27 18,45 0,18 -6,33 -18,45 -13,12 -27,18 -45,18 -18,0 -32,-6 -45,-18 -13,-13 -19,-28 -19,-45zm13 631l0 -441 101 0 0 441 -101 0z"/>
  <path id="77" class="fil18" d="M8301 16753c-16,-17 -34,-30 -54,-39 -21,-9 -43,-14 -67,-14 -41,0 -74,14 -99,40 -25,27 -37,62 -37,107 0,45 12,81 37,108 25,26 60,39 104,39 24,0 46,-5 65,-14 20,-9 36,-23 51,-41l0 116c-19,10 -39,18 -60,23 -21,6 -44,8 -68,8 -69,0 -125,-22 -169,-66 -43,-44 -65,-101 -65,-171 0,-71 23,-128 68,-172 45,-43 104,-65 177,-65 23,0 44,2 63,7 19,4 37,11 54,21l0 113z"/>
  <path id="78" class="fil18" d="M8395 16437c0,-17 7,-32 19,-45 13,-12 28,-18 45,-18 18,0 33,6 45,18 12,12 18,27 18,45 0,18 -6,33 -18,45 -12,12 -27,18 -45,18 -17,0 -32,-6 -45,-18 -12,-13 -19,-28 -19,-45zm14 631l0 -441 101 0 0 441 -101 0z"/>
  <path id="79" class="fil18" d="M9079 16862l-353 0c3,42 15,74 37,97 22,23 51,35 88,35 32,0 60,-7 81,-21 22,-13 41,-35 57,-66l85 48c-25,44 -56,77 -92,99 -37,21 -80,32 -129,32 -71,0 -127,-21 -169,-64 -42,-44 -63,-101 -63,-173 0,-69 22,-126 65,-170 43,-45 99,-67 167,-67 71,0 126,20 166,61 40,40 60,97 60,170l0 19zm-105 -67c-4,-32 -16,-56 -36,-72 -21,-17 -48,-25 -83,-25 -33,0 -60,8 -80,24 -20,16 -34,40 -42,73l241 0z"/>
  <path id="80" class="fil18" d="M9183 17068l0 -441 95 0 0 73c21,-31 44,-53 71,-67 28,-14 61,-21 100,-21 33,0 61,5 84,15 23,11 41,26 54,47 8,12 14,26 17,42 3,16 5,44 5,85l0 267 -102 0 0 -226c0,-58 -7,-97 -21,-116 -14,-19 -39,-28 -75,-28 -24,0 -45,4 -63,13 -19,8 -33,21 -44,36 -7,11 -12,24 -15,41 -3,17 -5,43 -5,79l0 201 -101 0z"/>
  <polygon id="81" class="fil18" points="9767,17068 9767,16716 9690,16716 9690,16627 9767,16627 9767,16460 9868,16460 9868,16627 9945,16627 9945,16716 9868,16716 9868,17068 "/>
  <path id="82" class="fil18" d="M10457 16862l-352 0c2,42 14,74 36,97 22,23 52,35 88,35 33,0 60,-7 82,-21 21,-13 40,-35 56,-66l85 48c-25,44 -55,77 -92,99 -36,21 -79,32 -129,32 -70,0 -127,-21 -169,-64 -41,-44 -62,-101 -62,-173 0,-69 21,-126 65,-170 43,-45 98,-67 166,-67 71,0 127,20 166,61 40,40 60,97 60,170l0 19zm-105 -67c-4,-32 -16,-56 -36,-72 -20,-17 -48,-25 -83,-25 -33,0 -60,8 -80,24 -20,16 -34,40 -42,73l241 0z"/>
  <polygon id="83" class="fil18" points="10636,16953 10727,16986 10606,17236 10546,17212 "/>
  <path id="84" class="fil18" d="M11234 16846c0,46 12,82 35,110 22,27 52,41 90,41 38,0 67,-13 88,-39 21,-25 32,-61 32,-108 0,-46 -11,-83 -33,-109 -22,-26 -52,-40 -90,-40 -38,0 -68,13 -89,39 -22,25 -33,61 -33,106zm-97 430l0 -649 101 0 0 72c12,-28 30,-49 56,-64 26,-15 57,-23 93,-23 59,0 106,21 143,65 36,43 55,100 55,170 0,74 -18,133 -54,175 -36,43 -85,64 -147,64 -32,0 -59,-6 -83,-18 -24,-13 -45,-32 -63,-57l0 265 -101 0z"/>
  <path id="85" class="fil18" d="M12107 17068l-101 0 0 -57c-18,25 -39,44 -63,57 -25,12 -52,18 -83,18 -62,0 -112,-21 -147,-64 -36,-42 -54,-101 -54,-175 0,-70 18,-127 55,-170 36,-44 84,-65 143,-65 36,0 67,7 93,22 25,15 44,37 56,65l0 -72 101 0 0 441zm-99 -222c0,-45 -10,-81 -31,-106 -22,-26 -51,-39 -90,-39 -38,0 -68,14 -90,40 -21,26 -32,63 -32,109 0,47 10,83 31,108 21,26 51,39 90,39 36,0 65,-14 88,-42 23,-27 34,-64 34,-109z"/>
  <path id="86" class="fil18" d="M12347 16698c11,-30 25,-51 43,-65 18,-14 40,-21 66,-21 14,0 28,2 42,5 14,3 28,8 41,15l-36 86c-9,-7 -18,-11 -28,-14 -11,-3 -22,-4 -34,-4 -34,0 -58,13 -73,40 -14,27 -21,72 -21,135l0 193 -101 0 0 -442 101 0 0 72z"/>
  <path id="87" class="fil18" d="M13012 17068l-101 0 0 -57c-18,25 -39,44 -63,57 -25,12 -52,18 -83,18 -62,0 -112,-21 -147,-64 -36,-42 -54,-101 -54,-175 0,-70 18,-127 55,-170 36,-44 84,-65 143,-65 36,0 67,7 93,22 25,15 44,37 56,65l0 -72 101 0 0 441zm-99 -222c0,-45 -10,-81 -31,-106 -22,-26 -51,-39 -90,-39 -38,0 -68,14 -90,40 -21,26 -32,63 -32,109 0,47 10,83 31,108 21,26 51,39 90,39 36,0 65,-14 88,-42 23,-27 34,-64 34,-109z"/>
  <polygon id="88" class="fil18" points="13443,17068 13443,16347 13544,16347 13544,17068 "/>
  <path id="89" class="fil18" d="M14035 16849c0,-41 -14,-76 -40,-104 -26,-28 -59,-43 -97,-43 -37,0 -70,15 -96,43 -27,28 -40,63 -40,104 0,41 13,76 40,104 26,29 59,43 96,43 38,0 70,-14 97,-43 26,-28 40,-63 40,-104zm-380 -1c0,-32 7,-63 19,-91 12,-29 30,-54 53,-77 22,-22 48,-39 78,-50 29,-12 60,-18 92,-18 34,0 65,6 94,18 29,11 56,29 79,52 23,22 41,48 53,76 12,29 18,59 18,90 0,33 -6,63 -18,92 -12,28 -29,54 -52,76 -24,23 -51,40 -81,52 -29,12 -60,18 -93,18 -32,0 -62,-6 -92,-18 -29,-12 -55,-29 -78,-51 -24,-23 -41,-49 -53,-78 -13,-28 -19,-59 -19,-91z"/>
  <path id="90" class="fil18" d="M14852 16846c0,-45 -10,-81 -31,-106 -22,-26 -51,-39 -90,-39 -38,0 -68,14 -90,40 -21,26 -32,63 -32,109 0,47 10,83 31,108 21,26 51,39 90,39 36,0 66,-14 89,-41 22,-28 33,-64 33,-110zm99 430l-101 0 0 -265c-18,25 -39,44 -63,57 -25,12 -52,18 -83,18 -62,0 -112,-21 -147,-64 -36,-42 -54,-101 -54,-175 0,-70 18,-127 55,-170 36,-44 84,-65 143,-65 36,0 67,7 93,22 25,15 44,37 56,65l0 -72 101 0 0 649z"/>
  <path id="91" class="fil18" d="M15188 16627l0 249c0,42 9,73 26,92 18,18 46,28 86,28 40,0 68,-10 86,-28 18,-19 27,-50 27,-92l0 -249 100 0 0 218c0,85 -16,146 -50,184 -34,38 -88,57 -162,57 -75,0 -130,-19 -164,-56 -33,-38 -50,-100 -50,-185l0 -218 101 0z"/>
  <path id="92" class="fil18" d="M16074 16862l-352 0c2,42 15,74 37,97 22,23 51,35 88,35 32,0 59,-7 81,-21 22,-13 41,-35 57,-66l85 48c-25,44 -56,77 -93,99 -36,21 -79,32 -128,32 -71,0 -127,-21 -169,-64 -42,-44 -63,-101 -63,-173 0,-69 22,-126 65,-170 43,-45 99,-67 167,-67 71,0 126,20 166,61 39,40 59,97 59,170l0 19zm-104 -67c-4,-32 -16,-56 -37,-72 -20,-17 -47,-25 -82,-25 -34,0 -60,8 -80,24 -20,16 -34,40 -43,73l242 0z"/>
  <path id="93" class="fil18" d="M16416 16988l84 -46c6,22 18,39 35,51 16,11 38,17 64,17 23,0 40,-5 53,-16 13,-10 20,-24 20,-42 0,-24 -23,-45 -69,-62 -16,-5 -28,-10 -36,-14 -47,-19 -80,-39 -99,-59 -19,-20 -28,-45 -28,-73 0,-40 15,-72 46,-96 31,-25 72,-37 123,-37 34,0 63,6 87,19 25,12 43,30 54,54l-72 49c-5,-14 -14,-25 -28,-33 -13,-9 -28,-13 -45,-13 -19,0 -35,5 -46,14 -12,9 -18,21 -18,36 0,23 26,44 78,63 17,6 29,11 38,15 41,16 70,34 87,54 18,21 27,46 27,76 0,44 -16,79 -48,104 -32,25 -76,37 -132,37 -43,0 -79,-8 -108,-24 -28,-16 -51,-41 -67,-74z"/>
  <path id="94" class="fil18" d="M17297 16862l-352 0c2,42 15,74 37,97 22,23 51,35 88,35 32,0 59,-7 81,-21 22,-13 40,-35 57,-66l84 48c-24,44 -55,77 -92,99 -36,21 -79,32 -128,32 -71,0 -127,-21 -169,-64 -42,-44 -63,-101 -63,-173 0,-69 22,-126 65,-170 43,-45 99,-67 167,-67 71,0 126,20 166,61 39,40 59,97 59,170l0 19zm-105 -67c-4,-32 -16,-56 -36,-72 -20,-17 -48,-25 -82,-25 -34,0 -60,8 -80,24 -20,16 -35,40 -43,73l241 0z"/>
  <path id="95" class="fil18" d="M1218 18210l0 -353 -77 0 0 -88 77 0 0 -118c0,-59 12,-102 36,-130 25,-28 62,-42 114,-42 11,0 22,1 33,3 12,1 23,4 35,7l0 91c-8,-5 -16,-8 -24,-11 -9,-2 -17,-3 -25,-3 -25,0 -42,7 -52,22 -11,15 -16,40 -16,76l0 105 106 0 0 88 -106 0 0 353 -101 0z"/>
  <path id="96" class="fil18" d="M1842 17991c0,-41 -13,-76 -40,-104 -26,-29 -58,-43 -96,-43 -38,0 -70,14 -97,43 -26,28 -40,63 -40,104 0,41 14,76 40,104 27,28 59,42 97,42 37,0 70,-14 96,-42 27,-28 40,-63 40,-104zm-379 -1c0,-32 6,-63 18,-91 12,-29 30,-55 53,-77 23,-22 49,-39 78,-51 30,-11 61,-17 93,-17 33,0 64,6 94,17 29,12 55,29 78,52 24,23 41,49 53,77 13,29 19,59 19,90 0,32 -6,63 -18,91 -12,29 -30,54 -53,76 -24,24 -51,41 -80,53 -30,12 -61,18 -93,18 -32,0 -63,-6 -92,-18 -30,-12 -56,-29 -79,-52 -23,-23 -41,-48 -53,-77 -12,-28 -18,-59 -18,-91z"/>
  <path id="97" class="fil18" d="M2156 17839c11,-29 25,-50 43,-64 18,-14 40,-21 67,-21 14,0 28,1 42,5 13,3 27,8 40,14l-36 86c-9,-6 -18,-10 -28,-13 -10,-3 -21,-5 -34,-5 -33,0 -57,14 -72,40 -15,27 -22,72 -22,136l0 193 -101 0 0 -442 101 0 0 71z"/>
  <polygon id="98" class="fil18" points="2430,18210 2430,17857 2352,17857 2352,17769 2430,17769 2430,17602 2531,17602 2531,17769 2608,17769 2608,17857 2531,17857 2531,18210 "/>
  <path id="99" class="fil18" d="M3110 18210l-101 0 0 -57c-18,25 -39,44 -63,56 -24,13 -52,19 -83,19 -62,0 -111,-21 -147,-64 -36,-43 -54,-101 -54,-175 0,-70 18,-127 55,-170 37,-44 85,-65 143,-65 36,0 67,7 93,22 25,15 44,37 56,65l0 -72 101 0 0 441zm-98 -222c0,-46 -11,-81 -32,-107 -21,-25 -51,-38 -89,-38 -39,0 -69,13 -90,40 -22,26 -33,62 -33,109 0,47 10,83 31,108 22,26 51,38 90,38 36,0 66,-13 88,-41 23,-28 35,-64 35,-109z"/>
  <polygon id="100" class="fil18" points="3254,18210 3254,17489 3355,17489 3355,18210 "/>
  <path id="101" class="fil18" d="M3923 18004l-352 0c3,41 15,74 37,97 22,23 51,35 88,35 32,0 59,-7 81,-21 22,-14 41,-36 57,-66l85 47c-25,45 -56,78 -92,99 -37,22 -80,33 -129,33 -71,0 -127,-22 -169,-65 -42,-43 -63,-100 -63,-172 0,-69 22,-126 65,-171 43,-44 99,-66 167,-66 71,0 126,20 166,61 40,40 59,97 59,170l0 19zm-104 -67c-4,-32 -16,-56 -37,-73 -20,-16 -47,-25 -82,-25 -33,0 -60,8 -80,24 -20,17 -34,41 -42,74l241 0z"/>
  <path id="102" class="fil18" d="M4358 17895c-16,-17 -34,-30 -54,-39 -21,-9 -43,-14 -67,-14 -41,0 -74,14 -99,40 -25,27 -37,62 -37,106 0,46 12,82 37,108 25,27 60,40 104,40 24,0 46,-5 65,-14 19,-9 36,-23 51,-42l0 117c-19,10 -39,18 -60,23 -21,5 -44,8 -68,8 -69,0 -125,-22 -169,-66 -43,-44 -65,-101 -65,-171 0,-71 23,-128 68,-172 45,-44 104,-65 177,-65 23,0 44,2 63,6 19,5 37,12 54,21l0 114z"/>
  <path id="103" class="fil18" d="M4886 18004l-353 0c3,41 15,74 37,97 22,23 51,35 88,35 33,0 60,-7 81,-21 22,-14 41,-36 57,-66l85 47c-25,45 -55,78 -92,99 -37,22 -80,33 -129,33 -71,0 -127,-22 -169,-65 -41,-43 -62,-100 -62,-172 0,-69 21,-126 64,-171 44,-44 99,-66 167,-66 71,0 127,20 166,61 40,40 60,97 60,170l0 19zm-105 -67c-4,-32 -16,-56 -36,-73 -20,-16 -48,-25 -83,-25 -33,0 -60,8 -80,24 -20,17 -34,41 -42,74l241 0z"/>
  <path id="104" class="fil18" d="M5092 17839c11,-29 25,-50 43,-64 18,-14 40,-21 66,-21 14,0 28,1 42,5 14,3 28,8 41,14l-36 86c-9,-6 -18,-10 -28,-13 -11,-3 -22,-5 -34,-5 -34,0 -58,14 -72,40 -15,27 -22,72 -22,136l0 193 -101 0 0 -442 101 0 0 71z"/>
  <path id="105" class="fil18" d="M5757 18210l-101 0 0 -57c-18,25 -39,44 -63,56 -24,13 -52,19 -83,19 -62,0 -111,-21 -147,-64 -36,-43 -54,-101 -54,-175 0,-70 18,-127 55,-170 37,-44 84,-65 143,-65 36,0 67,7 93,22 25,15 44,37 56,65l0 -72 101 0 0 441zm-98 -222c0,-46 -11,-81 -32,-107 -22,-25 -51,-38 -89,-38 -39,0 -69,13 -90,40 -22,26 -33,62 -33,109 0,47 10,83 31,108 21,26 51,38 90,38 36,0 66,-13 88,-41 23,-28 35,-64 35,-109zm-171 -286l89 -126 104 0 -136 126 -57 0z"/>
  <path id="106" class="fil18" d="M5896 18210l0 -441 95 0 0 72c20,-30 43,-52 71,-66 27,-14 60,-21 99,-21 33,0 61,5 84,15 23,11 42,26 55,47 7,12 13,26 16,42 4,16 6,44 6,85l0 267 -102 0 0 -226c0,-58 -7,-97 -22,-116 -14,-19 -39,-29 -75,-29 -23,0 -44,5 -63,13 -18,9 -33,21 -43,37 -8,11 -13,24 -16,41 -3,16 -4,43 -4,79l0 201 -101 0z"/>
  <polygon id="107" class="fil18" points="6748,18210 6748,17489 6849,17489 6849,18210 "/>
  <path id="108" class="fil18" d="M7340 17991c0,-41 -14,-76 -40,-104 -26,-29 -59,-43 -97,-43 -37,0 -70,14 -96,43 -27,28 -40,63 -40,104 0,41 13,76 40,104 26,28 59,42 96,42 38,0 70,-14 97,-42 26,-28 40,-63 40,-104zm-380 -1c0,-32 7,-63 19,-91 12,-29 30,-55 53,-77 22,-22 48,-39 78,-51 29,-11 60,-17 92,-17 34,0 65,6 94,17 29,12 56,29 79,52 23,23 41,49 53,77 12,29 18,59 18,90 0,32 -6,63 -18,91 -12,29 -29,54 -52,76 -24,24 -51,41 -81,53 -29,12 -60,18 -93,18 -32,0 -62,-6 -92,-18 -29,-12 -55,-29 -78,-52 -24,-23 -41,-48 -53,-77 -12,-28 -19,-59 -19,-91z"/>
  <path id="109" class="fil18" d="M7502 18130l84 -46c6,22 18,39 35,50 16,12 38,18 64,18 23,0 40,-5 53,-16 13,-10 20,-24 20,-42 0,-24 -23,-45 -69,-62 -16,-5 -28,-10 -36,-14 -47,-19 -80,-39 -99,-59 -19,-20 -28,-45 -28,-74 0,-39 15,-71 46,-96 31,-24 72,-36 123,-36 34,0 63,6 87,19 25,12 43,30 54,53l-72 50c-5,-14 -14,-25 -28,-34 -13,-8 -28,-12 -45,-12 -19,0 -35,4 -46,14 -12,9 -18,21 -18,36 0,23 26,44 78,63 17,6 29,11 38,14 41,17 70,35 87,55 18,20 27,46 27,76 0,44 -16,79 -48,104 -32,24 -76,37 -132,37 -43,0 -79,-8 -108,-24 -28,-16 -51,-41 -67,-74z"/>
  <path id="110" class="fil18" d="M8563 17988c0,-46 -11,-81 -32,-107 -21,-25 -51,-38 -89,-38 -38,0 -68,13 -90,40 -22,26 -33,62 -33,109 0,47 11,83 32,108 21,26 51,38 89,38 37,0 66,-13 89,-41 23,-27 34,-64 34,-109zm-3 -499l101 0 0 721 -101 0 0 -57c-18,25 -39,44 -63,56 -24,13 -51,19 -83,19 -62,0 -111,-21 -147,-64 -36,-43 -54,-101 -54,-175 0,-70 19,-127 55,-170 37,-44 85,-65 144,-65 36,0 67,7 92,22 26,15 44,37 56,65l0 -352z"/>
  <path id="111" class="fil18" d="M8792 17578c0,-17 6,-31 19,-44 12,-12 27,-18 44,-18 18,0 34,6 45,17 12,12 18,27 18,45 0,18 -6,34 -18,46 -12,12 -27,18 -45,18 -17,0 -32,-6 -44,-19 -13,-12 -19,-27 -19,-45zm13 632l0 -441 101 0 0 441 -101 0z"/>
  <path id="112" class="fil18" d="M9064 18210l0 -353 -77 0 0 -88 77 0 0 -118c0,-59 12,-102 37,-130 24,-28 62,-42 113,-42 11,0 22,1 33,3 12,1 24,4 35,7l0 91c-8,-5 -16,-8 -24,-11 -8,-2 -17,-3 -25,-3 -24,0 -41,7 -52,22 -11,15 -16,40 -16,76l0 105 106 0 0 88 -106 0 0 353 -101 0z"/>
  <path id="113" class="fil18" d="M9766 18004l-352 0c2,41 15,74 37,97 22,23 51,35 88,35 32,0 59,-7 81,-21 22,-14 41,-36 57,-66l85 47c-25,45 -56,78 -92,99 -37,22 -80,33 -129,33 -71,0 -127,-22 -169,-65 -42,-43 -63,-100 -63,-172 0,-69 22,-126 65,-171 43,-44 99,-66 167,-66 71,0 126,20 166,61 40,40 59,97 59,170l0 19zm-104 -67c-4,-32 -16,-56 -37,-73 -20,-16 -47,-25 -82,-25 -33,0 -60,8 -80,24 -20,17 -34,41 -43,74l242 0z"/>
  <path id="114" class="fil18" d="M9972 17839c11,-29 26,-50 43,-64 18,-14 40,-21 67,-21 14,0 28,1 42,5 14,3 27,8 41,14l-37 86c-8,-6 -18,-10 -28,-13 -10,-3 -21,-5 -34,-5 -33,0 -57,14 -72,40 -14,27 -22,72 -22,136l0 193 -101 0 0 -442 101 0 0 71z"/>
  <path id="115" class="fil18" d="M10647 18004l-353 0c3,41 15,74 37,97 22,23 51,35 88,35 33,0 60,-7 81,-21 22,-14 41,-36 57,-66l85 47c-25,45 -55,78 -92,99 -37,22 -80,33 -129,33 -71,0 -127,-22 -169,-65 -41,-43 -62,-100 -62,-172 0,-69 21,-126 65,-171 43,-44 98,-66 166,-66 71,0 127,20 166,61 40,40 60,97 60,170l0 19zm-105 -67c-4,-32 -16,-56 -36,-73 -20,-16 -48,-25 -83,-25 -33,0 -60,8 -80,24 -20,17 -34,41 -42,74l241 0z"/>
  <path id="116" class="fil18" d="M10752 18210l0 -441 95 0 0 72c20,-30 43,-52 71,-66 27,-14 60,-21 99,-21 33,0 61,5 84,15 23,11 42,26 55,47 7,12 13,26 16,42 4,16 6,44 6,85l0 267 -102 0 0 -226c0,-58 -7,-97 -22,-116 -14,-19 -39,-29 -75,-29 -23,0 -44,5 -63,13 -18,9 -33,21 -43,37 -8,11 -13,24 -16,41 -3,16 -4,43 -4,79l0 201 -101 0z"/>
  <polygon id="117" class="fil18" points="11335,18210 11335,17857 11258,17857 11258,17769 11335,17769 11335,17602 11436,17602 11436,17769 11514,17769 11514,17857 11436,17857 11436,18210 "/>
  <path id="118" class="fil18" d="M12025 18004l-352 0c2,41 15,74 37,97 22,23 51,35 88,35 32,0 59,-7 81,-21 22,-14 41,-36 57,-66l84 47c-24,45 -55,78 -92,99 -36,22 -79,33 -128,33 -71,0 -127,-22 -169,-65 -42,-43 -63,-100 -63,-172 0,-69 22,-126 65,-171 43,-44 99,-66 167,-66 71,0 126,20 166,61 39,40 59,97 59,170l0 19zm-105 -67c-4,-32 -16,-56 -36,-73 -20,-16 -48,-25 -82,-25 -34,0 -60,8 -80,24 -20,17 -35,41 -43,74l241 0z"/>
  <path id="119" class="fil18" d="M12080 18130l84 -46c6,22 17,39 34,50 17,12 38,18 64,18 23,0 41,-5 54,-16 13,-10 19,-24 19,-42 0,-24 -23,-45 -69,-62 -15,-5 -27,-10 -35,-14 -48,-19 -81,-39 -99,-59 -19,-20 -28,-45 -28,-74 0,-39 15,-71 46,-96 31,-24 71,-36 122,-36 34,0 64,6 88,19 24,12 42,30 53,53l-72 50c-5,-14 -14,-25 -27,-34 -13,-8 -29,-12 -46,-12 -19,0 -34,4 -46,14 -12,9 -18,21 -18,36 0,23 27,44 78,63 17,6 30,11 39,14 40,17 69,35 87,55 17,20 26,46 26,76 0,44 -16,79 -48,104 -32,24 -76,37 -132,37 -43,0 -79,-8 -107,-24 -29,-16 -51,-41 -67,-74z"/>
  <path id="120" class="fil18" d="M12921 17988c0,46 11,82 34,109 23,28 53,41 90,41 38,0 68,-12 89,-38 21,-25 31,-61 31,-108 0,-47 -11,-83 -33,-109 -21,-27 -51,-40 -90,-40 -38,0 -67,13 -89,38 -21,26 -32,61 -32,107zm-98 430l0 -649 101 0 0 72c12,-28 31,-49 57,-65 26,-15 57,-22 93,-22 58,0 106,21 142,65 37,43 55,100 55,170 0,74 -18,132 -54,175 -36,43 -85,64 -147,64 -31,0 -59,-6 -83,-19 -24,-12 -45,-31 -63,-56l0 265 -101 0z"/>
  <path id="121" class="fil18" d="M13479 17839c11,-29 25,-50 43,-64 18,-14 40,-21 66,-21 14,0 28,1 42,5 14,3 28,8 41,14l-36 86c-9,-6 -18,-10 -28,-13 -11,-3 -22,-5 -34,-5 -34,0 -58,14 -72,40 -15,27 -22,72 -22,136l0 193 -101 0 0 -442 101 0 0 71z"/>
  <path id="122" class="fil18" d="M14075 17991c0,-41 -13,-76 -39,-104 -27,-29 -59,-43 -97,-43 -38,0 -70,14 -97,43 -26,28 -39,63 -39,104 0,41 13,76 39,104 27,28 59,42 97,42 38,0 70,-14 96,-42 27,-28 40,-63 40,-104zm-379 -1c0,-32 6,-63 18,-91 13,-29 30,-55 53,-77 23,-22 49,-39 78,-51 30,-11 61,-17 93,-17 33,0 64,6 94,17 29,12 55,29 79,52 23,23 40,49 53,77 12,29 18,59 18,90 0,32 -6,63 -18,91 -12,29 -30,54 -53,76 -24,24 -51,41 -80,53 -29,12 -61,18 -93,18 -32,0 -63,-6 -92,-18 -30,-12 -56,-29 -79,-52 -23,-23 -41,-48 -53,-77 -12,-28 -18,-59 -18,-91z"/>
  <path id="123" class="fil18" d="M14618 17895c-16,-17 -34,-30 -54,-39 -21,-9 -43,-14 -67,-14 -41,0 -74,14 -99,40 -25,27 -37,62 -37,106 0,46 12,82 37,108 25,27 59,40 104,40 24,0 46,-5 65,-14 19,-9 36,-23 51,-42l0 117c-19,10 -39,18 -60,23 -21,5 -44,8 -68,8 -69,0 -125,-22 -169,-66 -43,-44 -65,-101 -65,-171 0,-71 22,-128 67,-172 46,-44 105,-65 178,-65 23,0 44,2 63,6 19,5 37,12 54,21l0 114z"/>
  <path id="124" class="fil18" d="M15146 18004l-353 0c3,41 15,74 37,97 22,23 51,35 88,35 33,0 60,-7 81,-21 22,-14 41,-36 57,-66l85 47c-25,45 -56,78 -92,99 -37,22 -80,33 -129,33 -71,0 -127,-22 -169,-65 -42,-43 -63,-100 -63,-172 0,-69 22,-126 65,-171 44,-44 99,-66 167,-66 71,0 126,20 166,61 40,40 60,97 60,170l0 19zm-105 -67c-4,-32 -16,-56 -36,-73 -20,-16 -48,-25 -83,-25 -33,0 -60,8 -80,24 -20,17 -34,41 -42,74l241 0z"/>
  <path id="125" class="fil18" d="M15200 18130l84 -46c6,22 18,39 34,50 17,12 39,18 65,18 23,0 40,-5 53,-16 13,-10 19,-24 19,-42 0,-24 -22,-45 -68,-62 -16,-5 -28,-10 -36,-14 -47,-19 -80,-39 -99,-59 -19,-20 -28,-45 -28,-74 0,-39 15,-71 46,-96 31,-24 72,-36 123,-36 34,0 63,6 87,19 25,12 42,30 53,53l-71 50c-5,-14 -15,-25 -28,-34 -13,-8 -28,-12 -45,-12 -20,0 -35,4 -47,14 -11,9 -17,21 -17,36 0,23 26,44 78,63 16,6 29,11 38,14 41,17 70,35 87,55 18,20 26,46 26,76 0,44 -16,79 -48,104 -31,24 -75,37 -132,37 -43,0 -78,-8 -107,-24 -28,-16 -51,-41 -67,-74z"/>
  <path id="126" class="fil18" d="M16003 17991c0,-41 -13,-76 -40,-104 -26,-29 -58,-43 -96,-43 -38,0 -70,14 -97,43 -26,28 -40,63 -40,104 0,41 14,76 40,104 27,28 59,42 97,42 37,0 70,-14 96,-42 27,-28 40,-63 40,-104zm-379 -1c0,-32 6,-63 18,-91 12,-29 30,-55 53,-77 23,-22 49,-39 78,-51 30,-11 61,-17 93,-17 33,0 64,6 94,17 29,12 55,29 78,52 24,23 41,49 53,77 13,29 19,59 19,90 0,32 -6,63 -18,91 -12,29 -30,54 -53,76 -24,24 -51,41 -80,53 -30,12 -61,18 -93,18 -32,0 -63,-6 -92,-18 -30,-12 -56,-29 -79,-52 -23,-23 -41,-48 -53,-77 -12,-28 -18,-59 -18,-91z"/>
  <path id="127" class="fil18" d="M16166 18130l83 -46c7,22 18,39 35,50 17,12 38,18 64,18 23,0 41,-5 54,-16 13,-10 19,-24 19,-42 0,-24 -23,-45 -69,-62 -15,-5 -27,-10 -36,-14 -47,-19 -80,-39 -98,-59 -19,-20 -29,-45 -29,-74 0,-39 16,-71 47,-96 31,-24 71,-36 122,-36 34,0 64,6 88,19 24,12 42,30 53,53l-72 50c-5,-14 -14,-25 -27,-34 -13,-8 -29,-12 -46,-12 -19,0 -35,4 -46,14 -12,9 -18,21 -18,36 0,23 26,44 78,63 17,6 30,11 38,14 41,17 70,35 88,55 17,20 26,46 26,76 0,44 -16,79 -48,104 -32,24 -76,37 -132,37 -43,0 -79,-8 -107,-24 -29,-16 -51,-41 -67,-74z"/>
  <path id="128" class="fil18" d="M1301 19130c0,45 12,82 34,109 23,28 53,41 90,41 39,0 68,-13 89,-38 21,-25 32,-62 32,-109 0,-46 -11,-83 -33,-109 -22,-26 -52,-39 -90,-39 -38,0 -68,13 -90,38 -21,26 -32,61 -32,107zm-97 429l0 -648 101 0 0 72c11,-28 30,-50 56,-65 26,-15 57,-23 93,-23 58,0 106,22 143,65 36,43 54,100 54,171 0,74 -18,132 -54,175 -35,42 -85,64 -147,64 -31,0 -58,-6 -82,-19 -24,-12 -46,-31 -63,-56l0 264 -101 0z"/>
  <path id="129" class="fil18" d="M2173 19352l-101 0 0 -57c-18,25 -39,44 -63,56 -24,13 -51,19 -82,19 -63,0 -112,-22 -148,-64 -36,-43 -53,-101 -53,-175 0,-71 18,-128 54,-171 37,-43 85,-65 144,-65 36,0 67,8 92,23 26,15 44,36 56,65l0 -72 101 0 0 441zm-98 -222c0,-46 -11,-81 -32,-107 -21,-25 -51,-38 -89,-38 -38,0 -68,13 -90,39 -22,26 -33,63 -33,109 0,47 11,84 32,109 21,25 51,38 89,38 37,0 66,-14 89,-41 23,-28 34,-64 34,-109z"/>
  <path id="130" class="fil18" d="M2413 18981c11,-29 25,-51 43,-65 18,-14 40,-21 67,-21 14,0 28,2 42,5 14,4 27,9 41,15l-37 86c-8,-6 -18,-11 -28,-14 -10,-3 -21,-4 -34,-4 -33,0 -57,13 -72,40 -14,27 -22,72 -22,135l0 194 -101 0 0 -442 101 0 0 71z"/>
  <path id="131" class="fil18" d="M3078 19352l-101 0 0 -57c-18,25 -39,44 -63,56 -24,13 -51,19 -82,19 -63,0 -112,-22 -148,-64 -35,-43 -53,-101 -53,-175 0,-71 18,-128 55,-171 36,-43 84,-65 143,-65 36,0 67,8 92,23 26,15 45,36 56,65l0 -72 101 0 0 441zm-98 -222c0,-46 -10,-81 -32,-107 -21,-25 -51,-38 -89,-38 -38,0 -68,13 -90,39 -22,26 -33,63 -33,109 0,47 11,84 32,109 21,25 51,38 89,38 37,0 66,-14 89,-41 23,-28 34,-64 34,-109z"/>
  <path id="132" class="fil18" d="M3606 18981c11,-29 25,-51 43,-65 18,-14 40,-21 66,-21 15,0 29,2 42,5 14,4 28,9 41,15l-36 86c-9,-6 -18,-11 -28,-14 -10,-3 -22,-4 -34,-4 -34,0 -58,13 -72,40 -15,27 -22,72 -22,135l0 194 -101 0 0 -442 101 0 0 71z"/>
  <path id="133" class="fil18" d="M4280 19146l-352 0c2,41 15,73 37,97 22,23 51,34 88,34 32,0 59,-7 81,-20 22,-14 41,-36 57,-66l85 47c-25,45 -56,77 -93,99 -36,22 -79,33 -128,33 -71,0 -127,-22 -169,-65 -42,-43 -63,-101 -63,-172 0,-70 22,-126 65,-171 43,-44 99,-67 167,-67 71,0 126,21 166,61 39,41 59,98 59,171l0 19zm-104 -68c-4,-31 -16,-55 -37,-72 -20,-17 -47,-25 -82,-25 -34,0 -60,8 -80,24 -20,16 -35,41 -43,73l242 0z"/>
  <path id="134" class="fil18" d="M4715 19036c-16,-17 -34,-30 -54,-39 -21,-9 -43,-13 -67,-13 -41,0 -74,13 -99,40 -25,27 -37,62 -37,106 0,46 12,82 37,108 25,26 59,39 104,39 24,0 46,-4 65,-13 19,-10 36,-23 51,-42l0 116c-19,11 -39,19 -60,24 -21,5 -44,8 -68,8 -69,0 -125,-22 -169,-66 -43,-44 -65,-101 -65,-171 0,-71 22,-129 67,-172 46,-44 105,-66 178,-66 23,0 44,3 63,7 19,5 37,12 54,21l0 113z"/>
  <path id="135" class="fil18" d="M4916 18911l0 248c0,43 9,74 26,92 18,19 47,28 86,28 40,0 69,-9 86,-28 18,-18 27,-49 27,-92l0 -248 101 0 0 218c0,84 -17,145 -51,184 -34,38 -88,57 -162,57 -75,0 -130,-19 -163,-57 -34,-38 -51,-99 -51,-184l0 -218 101 0z"/>
  <path id="136" class="fil18" d="M5475 19130c0,45 12,82 35,109 22,28 52,41 90,41 38,0 67,-13 88,-38 21,-25 32,-62 32,-109 0,-46 -11,-83 -33,-109 -22,-26 -52,-39 -90,-39 -38,0 -68,13 -89,38 -22,26 -33,61 -33,107zm-97 429l0 -648 101 0 0 72c11,-28 30,-50 56,-65 26,-15 57,-23 93,-23 59,0 106,22 143,65 36,43 54,100 54,171 0,74 -18,132 -53,175 -36,42 -85,64 -148,64 -31,0 -58,-6 -82,-19 -24,-12 -45,-31 -63,-56l0 264 -101 0z"/>
  <path id="137" class="fil18" d="M6357 19146l-353 0c3,41 15,73 37,97 22,23 52,34 88,34 33,0 60,-7 82,-20 21,-14 40,-36 56,-66l85 47c-25,45 -55,77 -92,99 -36,22 -79,33 -129,33 -70,0 -127,-22 -169,-65 -41,-43 -62,-101 -62,-172 0,-70 21,-126 65,-171 43,-44 98,-67 166,-67 71,0 127,21 166,61 40,41 60,98 60,171l0 19zm-105 -68c-4,-31 -16,-55 -36,-72 -20,-17 -48,-25 -83,-25 -33,0 -60,8 -80,24 -20,16 -34,41 -42,73l241 0z"/>
  <path id="138" class="fil18" d="M6563 18981c11,-29 25,-51 43,-65 18,-14 40,-21 66,-21 15,0 29,2 42,5 14,4 28,9 41,15l-36 86c-9,-6 -18,-11 -28,-14 -10,-3 -22,-4 -34,-4 -34,0 -58,13 -72,40 -15,27 -22,72 -22,135l0 194 -101 0 0 -442 101 0 0 71z"/>
  <path id="139" class="fil18" d="M7228 19352l-101 0 0 -57c-18,25 -39,44 -63,56 -24,13 -52,19 -83,19 -62,0 -111,-22 -147,-64 -36,-43 -54,-101 -54,-175 0,-71 18,-128 55,-171 37,-43 85,-65 143,-65 36,0 67,8 93,23 25,15 44,36 56,65l0 -72 101 0 0 441zm-98 -222c0,-46 -11,-81 -32,-107 -21,-25 -51,-38 -89,-38 -39,0 -69,13 -90,39 -22,26 -33,63 -33,109 0,47 10,84 31,109 22,25 51,38 90,38 36,0 66,-14 88,-41 23,-28 35,-64 35,-109z"/>
  <path id="140" class="fil18" d="M7696 19036c-15,-17 -33,-30 -54,-39 -20,-9 -43,-13 -67,-13 -41,0 -74,13 -99,40 -24,27 -37,62 -37,106 0,46 13,82 38,108 25,26 59,39 103,39 25,0 47,-4 66,-13 19,-10 36,-23 50,-42l0 116c-18,11 -38,19 -59,24 -21,5 -44,8 -68,8 -69,0 -126,-22 -169,-66 -44,-44 -65,-101 -65,-171 0,-71 22,-129 67,-172 45,-44 104,-66 177,-66 23,0 44,3 63,7 20,5 38,12 54,21l0 113z"/>
  <path id="141" class="fil18" d="M7791 18720c0,-17 6,-32 19,-44 12,-13 27,-19 45,-19 18,0 33,6 45,18 12,12 18,27 18,45 0,18 -6,33 -18,46 -13,12 -28,18 -45,18 -18,0 -33,-6 -45,-19 -13,-13 -19,-27 -19,-45zm13 632l0 -441 101 0 0 441 -101 0z"/>
  <path id="142" class="fil18" d="M8396 19133c0,-41 -13,-76 -40,-105 -26,-28 -58,-42 -96,-42 -38,0 -70,14 -97,42 -26,29 -40,64 -40,105 0,40 14,75 40,104 27,28 59,42 97,42 37,0 70,-14 96,-42 27,-29 40,-64 40,-104zm-379 -1c0,-33 6,-63 18,-92 12,-28 30,-54 53,-76 23,-22 49,-39 78,-51 30,-12 61,-18 93,-18 33,0 64,6 94,18 29,12 55,29 78,52 24,23 41,48 53,77 13,28 19,58 19,90 0,32 -6,63 -18,91 -12,29 -30,54 -53,76 -24,23 -51,41 -80,53 -30,12 -61,18 -93,18 -32,0 -63,-6 -92,-18 -30,-12 -56,-29 -79,-52 -23,-23 -41,-49 -53,-77 -12,-29 -18,-59 -18,-91zm177 -288l89 -127 104 0 -136 127 -57 0z"/>
  <path id="143" class="fil18" d="M8609 19352l0 -441 95 0 0 72c20,-30 44,-53 71,-67 27,-14 61,-21 100,-21 33,0 61,6 84,16 23,10 41,26 54,46 8,12 13,26 17,43 3,16 5,44 5,84l0 268 -102 0 0 -227c0,-58 -7,-96 -21,-115 -14,-19 -39,-29 -75,-29 -24,0 -45,4 -63,13 -19,9 -33,21 -44,37 -7,10 -13,24 -15,41 -3,16 -5,42 -5,79l0 201 -101 0z"/>
  <path id="144" class="fil18" d="M9774 19130c0,-46 -11,-81 -32,-107 -21,-25 -51,-38 -89,-38 -39,0 -69,13 -90,39 -22,26 -33,63 -33,109 0,47 10,84 31,109 22,25 51,38 90,38 36,0 66,-14 89,-41 22,-28 34,-64 34,-109zm-3 -499l101 0 0 721 -101 0 0 -57c-18,25 -39,44 -63,56 -24,13 -52,19 -83,19 -62,0 -111,-22 -147,-64 -36,-43 -54,-101 -54,-175 0,-71 18,-128 55,-171 37,-43 85,-65 143,-65 36,0 67,8 93,23 25,15 44,36 56,65l0 -352z"/>
  <path id="145" class="fil18" d="M10436 19146l-353 0c3,41 15,73 37,97 22,23 51,34 88,34 33,0 60,-7 81,-20 22,-14 41,-36 57,-66l85 47c-25,45 -55,77 -92,99 -37,22 -80,33 -129,33 -71,0 -127,-22 -169,-65 -42,-43 -63,-101 -63,-172 0,-70 22,-126 65,-171 44,-44 99,-67 167,-67 71,0 126,21 166,61 40,41 60,98 60,171l0 19zm-105 -68c-4,-31 -16,-55 -36,-72 -20,-17 -48,-25 -83,-25 -33,0 -60,8 -80,24 -20,16 -34,41 -42,73l241 0z"/>
  <polygon id="146" class="fil18" points="10852,19352 10852,18999 10775,18999 10775,18911 10852,18911 10852,18744 10953,18744 10953,18911 11030,18911 11030,18999 10953,18999 10953,19352 "/>
  <path id="147" class="fil18" d="M11108 18720c0,-17 7,-32 19,-44 13,-13 28,-19 45,-19 18,0 33,6 45,18 12,12 18,27 18,45 0,18 -6,33 -18,46 -12,12 -27,18 -45,18 -17,0 -32,-6 -45,-19 -12,-13 -19,-27 -19,-45zm14 632l0 -441 101 0 0 441 -101 0z"/>
  <path id="148" class="fil18" d="M11791 19146l-352 0c3,41 15,73 37,97 22,23 51,34 88,34 32,0 59,-7 81,-20 22,-14 41,-36 57,-66l85 47c-25,45 -56,77 -92,99 -37,22 -80,33 -129,33 -71,0 -127,-22 -169,-65 -42,-43 -63,-101 -63,-172 0,-70 22,-126 65,-171 43,-44 99,-67 167,-67 71,0 126,21 166,61 40,41 59,98 59,171l0 19zm-104 -68c-4,-31 -16,-55 -37,-72 -20,-17 -47,-25 -82,-25 -33,0 -60,8 -80,24 -20,16 -34,41 -42,73l241 0z"/>
  <path id="149" class="fil18" d="M11997 18981c11,-29 26,-51 43,-65 18,-14 40,-21 67,-21 14,0 28,2 42,5 14,4 27,9 41,15l-37 86c-8,-6 -18,-11 -28,-14 -10,-3 -21,-4 -34,-4 -33,0 -57,13 -72,40 -14,27 -22,72 -22,135l0 194 -101 0 0 -442 101 0 0 71z"/>
  <path id="150" class="fil18" d="M12348 18981c11,-29 25,-51 43,-65 18,-14 40,-21 67,-21 14,0 28,2 42,5 13,4 27,9 40,15l-36 86c-9,-6 -18,-11 -28,-14 -10,-3 -21,-4 -34,-4 -34,0 -57,13 -72,40 -15,27 -22,72 -22,135l0 194 -101 0 0 -442 101 0 0 71z"/>
  <path id="151" class="fil18" d="M13013 19352l-101 0 0 -57c-18,25 -39,44 -63,56 -24,13 -52,19 -83,19 -62,0 -111,-22 -147,-64 -36,-43 -54,-101 -54,-175 0,-71 19,-128 55,-171 37,-43 85,-65 144,-65 36,0 66,8 92,23 26,15 44,36 56,65l0 -72 101 0 0 441zm-98 -222c0,-46 -11,-81 -32,-107 -21,-25 -51,-38 -89,-38 -38,0 -68,13 -90,39 -22,26 -33,63 -33,109 0,47 11,84 32,109 21,25 51,38 89,38 36,0 66,-14 89,-41 22,-28 34,-64 34,-109z"/>
  <path id="152" class="fil18" d="M13102 19272l83 -46c7,22 18,39 35,50 17,12 38,18 64,18 23,0 41,-6 54,-16 13,-11 19,-25 19,-43 0,-24 -23,-44 -69,-61 -15,-6 -27,-10 -36,-14 -47,-20 -80,-40 -98,-60 -19,-20 -29,-44 -29,-73 0,-39 16,-71 47,-96 31,-24 71,-37 122,-37 34,0 64,7 88,19 24,13 42,31 53,54l-72 49c-5,-14 -14,-25 -27,-33 -13,-8 -29,-12 -46,-12 -19,0 -35,4 -46,13 -12,9 -18,22 -18,37 0,23 26,44 78,63 17,6 30,10 38,14 41,16 70,34 88,55 17,20 26,45 26,76 0,44 -16,78 -48,103 -32,25 -76,38 -132,38 -43,0 -79,-8 -107,-24 -29,-17 -51,-41 -67,-74z"/>
  <path id="153" class="fil18" d="M14162 19130c0,-46 -10,-81 -32,-107 -21,-25 -50,-38 -89,-38 -38,0 -68,13 -90,39 -22,26 -32,63 -32,109 0,47 10,84 31,109 21,25 51,38 89,38 37,0 67,-13 90,-41 22,-27 33,-64 33,-109zm98 429l-100 0 0 -264c-18,25 -40,44 -64,56 -24,13 -51,19 -82,19 -62,0 -112,-22 -147,-64 -36,-43 -54,-101 -54,-175 0,-71 18,-128 55,-171 36,-43 84,-65 143,-65 36,0 67,8 92,23 26,15 45,36 57,65l0 -72 100 0 0 648z"/>
  <path id="154" class="fil18" d="M14498 18911l0 248c0,43 9,74 26,92 18,19 46,28 86,28 40,0 68,-9 86,-28 18,-18 26,-49 26,-92l0 -248 101 0 0 218c0,84 -16,145 -50,184 -34,38 -88,57 -162,57 -75,0 -130,-19 -164,-57 -33,-38 -50,-99 -50,-184l0 -218 101 0z"/>
  <path id="155" class="fil18" d="M15384 19146l-352 0c2,41 15,73 37,97 22,23 51,34 88,34 32,0 59,-7 81,-20 22,-14 41,-36 57,-66l85 47c-25,45 -56,77 -93,99 -36,22 -79,33 -128,33 -71,0 -127,-22 -169,-65 -42,-43 -63,-101 -63,-172 0,-70 22,-126 65,-171 43,-44 99,-67 167,-67 71,0 126,21 166,61 39,41 59,98 59,171l0 19zm-105 -68c-3,-31 -16,-55 -36,-72 -20,-17 -47,-25 -82,-25 -34,0 -60,8 -80,24 -20,16 -35,41 -43,73l241 0z"/>
  <path id="156" class="fil18" d="M1628 20288l-352 0c2,41 15,73 37,96 22,23 51,35 88,35 32,0 59,-7 81,-20 22,-14 41,-36 57,-67l85 48c-25,44 -56,77 -92,99 -37,22 -80,32 -129,32 -71,0 -127,-21 -169,-64 -42,-43 -63,-101 -63,-173 0,-69 22,-126 65,-170 43,-45 99,-67 167,-67 71,0 126,20 166,61 40,41 59,98 59,171l0 19zm-104 -68c-4,-32 -16,-56 -37,-72 -20,-17 -47,-25 -82,-25 -33,0 -60,8 -80,24 -20,16 -34,40 -43,73l242 0z"/>
  <path id="157" class="fil18" d="M1764 20493l-112 0 167 -237 -143 -204 111 0 62 91c7,10 13,19 17,27 5,9 10,18 14,27 4,-8 8,-15 13,-24 5,-8 11,-18 18,-30l62 -91 110 0 -143 205 166 236 -111 0 -82 -116 -3 -5c-16,-24 -26,-42 -31,-55 -6,12 -12,23 -18,33 -6,10 -11,19 -17,28l-80 115z"/>
  <path id="158" class="fil18" d="M2156 19862c0,-17 7,-32 19,-44 13,-13 28,-19 45,-19 18,0 33,6 45,18 12,12 18,27 18,45 0,18 -6,33 -18,45 -12,12 -27,19 -45,19 -17,0 -32,-7 -45,-19 -12,-13 -19,-28 -19,-45zm14 631l0 -441 101 0 0 441 -101 0z"/>
  <path id="159" class="fil18" d="M2364 20413l84 -45c6,22 18,39 34,50 17,12 39,17 65,17 23,0 40,-5 53,-15 13,-11 19,-25 19,-43 0,-24 -22,-44 -68,-61 -16,-6 -28,-11 -36,-14 -47,-20 -80,-40 -99,-60 -19,-20 -28,-45 -28,-73 0,-40 15,-72 46,-96 31,-25 72,-37 123,-37 34,0 63,6 87,19 25,13 42,30 54,54l-72 49c-5,-14 -14,-25 -28,-33 -13,-9 -28,-13 -45,-13 -20,0 -35,5 -47,14 -11,9 -17,21 -17,37 0,23 26,43 78,62 16,6 29,11 38,15 41,16 70,34 87,54 18,21 27,46 27,76 0,45 -17,79 -48,104 -32,25 -76,37 -133,37 -43,0 -78,-8 -107,-24 -28,-16 -51,-40 -67,-74z"/>
  <polygon id="160" class="fil18" points="2844,20493 2844,20141 2767,20141 2767,20052 2844,20052 2844,19886 2945,19886 2945,20052 3022,20052 3022,20141 2945,20141 2945,20493 "/>
  <path id="161" class="fil18" d="M3534 20288l-353 0c3,41 15,73 37,96 22,23 52,35 88,35 33,0 60,-7 81,-20 22,-14 41,-36 57,-67l85 48c-25,44 -55,77 -92,99 -36,22 -80,32 -129,32 -71,0 -127,-21 -169,-64 -41,-43 -62,-101 -62,-173 0,-69 21,-126 65,-170 43,-45 98,-67 166,-67 71,0 127,20 166,61 40,41 60,98 60,171l0 19zm-105 -68c-4,-32 -16,-56 -36,-72 -20,-17 -48,-25 -83,-25 -33,0 -60,8 -80,24 -20,16 -34,40 -42,73l241 0z"/>
  <path id="162" class="fil18" d="M3639 20493l0 -441 95 0 0 73c20,-31 44,-53 71,-67 27,-14 60,-21 100,-21 32,0 60,5 84,16 23,10 41,26 54,46 7,12 13,26 16,42 4,16 6,45 6,85l0 267 -102 0 0 -226c0,-58 -7,-97 -21,-116 -15,-19 -40,-28 -76,-28 -23,0 -44,4 -63,13 -18,9 -33,21 -43,37 -8,10 -13,24 -16,40 -3,17 -4,43 -4,80l0 200 -101 0z"/>
  <path id="163" class="fil18" d="M4911 20288l-352 0c2,41 14,73 36,96 22,23 52,35 88,35 33,0 60,-7 82,-20 21,-14 40,-36 56,-67l85 48c-25,44 -55,77 -92,99 -36,22 -79,32 -129,32 -70,0 -127,-21 -168,-64 -42,-43 -63,-101 -63,-173 0,-69 21,-126 65,-170 43,-45 98,-67 166,-67 71,0 127,20 166,61 40,41 60,98 60,171l0 19zm-105 -68c-4,-32 -16,-56 -36,-72 -20,-17 -48,-25 -83,-25 -33,0 -60,8 -80,24 -20,16 -34,40 -42,73l241 0z"/>
  <path id="164" class="fil18" d="M5016 20493l0 -441 95 0 0 73c20,-31 44,-53 71,-67 27,-14 60,-21 100,-21 33,0 60,5 84,16 23,10 41,26 54,46 8,12 13,26 17,42 3,16 5,45 5,85l0 267 -102 0 0 -226c0,-58 -7,-97 -21,-116 -14,-19 -40,-28 -76,-28 -23,0 -44,4 -63,13 -18,9 -33,21 -43,37 -8,10 -13,24 -16,40 -3,17 -4,43 -4,80l0 200 -101 0z"/>
  <polygon id="165" class="fil18" points="5868,20493 5868,19772 5969,19772 5969,20493 "/>
  <path id="166" class="fil18" d="M6528 20493l-101 0 0 -57c-18,26 -39,44 -63,57 -24,12 -51,18 -82,18 -63,0 -112,-21 -148,-64 -35,-42 -53,-100 -53,-175 0,-70 18,-127 55,-170 36,-43 84,-65 143,-65 36,0 67,8 92,23 26,15 45,36 56,64l0 -72 101 0 0 441zm-98 -222c0,-45 -10,-81 -32,-106 -21,-26 -51,-38 -89,-38 -38,0 -68,13 -90,39 -22,26 -33,63 -33,109 0,47 11,83 32,109 21,25 51,38 89,38 37,0 66,-14 89,-42 23,-27 34,-64 34,-109z"/>
  <polygon id="167" class="fil18" points="6960,20493 6960,19772 7061,19772 7061,20493 "/>
  <path id="168" class="fil18" d="M7629 20288l-352 0c3,41 15,73 37,96 22,23 51,35 88,35 32,0 59,-7 81,-20 22,-14 41,-36 57,-67l85 48c-25,44 -56,77 -92,99 -37,22 -80,32 -129,32 -71,0 -127,-21 -169,-64 -42,-43 -63,-101 -63,-173 0,-69 22,-126 65,-170 43,-45 99,-67 167,-67 71,0 126,20 166,61 40,41 59,98 59,171l0 19zm-104 -68c-4,-32 -16,-56 -37,-72 -20,-17 -47,-25 -82,-25 -33,0 -60,8 -80,24 -20,16 -34,40 -42,73l241 0z"/>
  <path id="169" class="fil18" d="M7810 20701l-103 0 121 -246 -162 -403 111 0 81 229c5,14 9,28 13,42 3,15 6,29 8,44 4,-15 14,-40 29,-74l3 -5 108 -236 110 0 -319 649z"/>
  <path id="170" class="fil18" d="M8114 20442c0,-17 6,-32 17,-44 12,-12 27,-18 44,-18 17,0 31,6 43,18 12,12 18,27 18,44 0,17 -6,31 -18,42 -12,12 -26,18 -43,18 -17,0 -32,-6 -44,-18 -11,-11 -17,-25 -17,-42z"/>
 </g>
</svg>
