<?xml version="1.0" encoding="UTF-8"?>
<!DOCTYPE svg PUBLIC "-//W3C//DTD SVG 1.1//EN" "http://www.w3.org/Graphics/SVG/1.1/DTD/svg11.dtd">
<!-- Creator: CorelDRAW X7 -->
<svg xmlns="http://www.w3.org/2000/svg" xml:space="preserve" width="190.5mm" height="338.667mm" version="1.1" style="shape-rendering:geometricPrecision; text-rendering:geometricPrecision; image-rendering:optimizeQuality; fill-rule:evenodd; clip-rule:evenodd"
viewBox="0 0 19050 33867"
 xmlns:xlink="http://www.w3.org/1999/xlink">
 <defs>
  <style type="text/css">
   <![CDATA[
    .str4 {stroke:#5A2431;stroke-width:28.19}
    .str0 {stroke:#5A2431;stroke-width:84.53;stroke-linejoin:round}
    .str1 {stroke:#5A2431;stroke-width:84.53;stroke-linecap:round;stroke-linejoin:round}
    .str2 {stroke:#5B3C41;stroke-width:84.53;stroke-linecap:round;stroke-linejoin:round}
    .str3 {stroke:#FEFEFE;stroke-width:84.53;stroke-linecap:round;stroke-linejoin:round}
    .fil2 {fill:none;fill-rule:nonzero}
    .fil4 {fill:#277776;fill-rule:nonzero}
    .fil12 {fill:#58BEBE;fill-rule:nonzero}
    .fil16 {fill:#5A2431;fill-rule:nonzero}
    .fil3 {fill:#5CAF94;fill-rule:nonzero}
    .fil13 {fill:#6E6553;fill-rule:nonzero}
    .fil1 {fill:#71BB70;fill-rule:nonzero}
    .fil0 {fill:#75D1B0;fill-rule:nonzero}
    .fil17 {fill:#7EC1A2;fill-rule:nonzero}
    .fil7 {fill:#9AC65F;fill-rule:nonzero}
    .fil11 {fill:#B3B4B4;fill-rule:nonzero}
    .fil19 {fill:#BEC3B0;fill-rule:nonzero}
    .fil6 {fill:#C6DDA1;fill-rule:nonzero}
    .fil10 {fill:#D46736;fill-rule:nonzero}
    .fil9 {fill:#DFA726;fill-rule:nonzero}
    .fil15 {fill:#E2E7C7;fill-rule:nonzero}
    .fil5 {fill:#E8EFC9;fill-rule:nonzero}
    .fil8 {fill:#F39662;fill-rule:nonzero}
    .fil14 {fill:#FEFEFE;fill-rule:nonzero}
    .fil18 {fill:#FFFAD9;fill-rule:nonzero}
   ]]>
  </style>
 </defs>
 <g id="Capa_x0020_1">
  <metadata id="CorelCorpID_0Corel-Layer"/>
  <polygon class="fil0" points="0,33867 19050,33867 19050,0 0,0 "/>
  <g id="_56098921376">
   <path class="fil1" d="M5608 4861c-36,0 -65,-29 -65,-64l0 -1081c0,-36 29,-65 65,-65 36,0 65,29 65,65l0 1081c0,35 -29,64 -65,64z"/>
   <path class="fil2 str0" d="M5608 4861c-36,0 -65,-29 -65,-64l0 -1081c0,-36 29,-65 65,-65 36,0 65,29 65,65l0 1081c0,35 -29,64 -65,64z"/>
   <path class="fil1" d="M6267 4144c0,336 -323,426 -659,426 -335,0 -650,-90 -650,-426 0,-335 315,-995 650,-995 336,0 659,660 659,995z"/>
   <path class="fil2 str0" d="M6267 4144c0,336 -323,426 -659,426 -335,0 -650,-90 -650,-426 0,-335 315,-995 650,-995 336,0 659,660 659,995z"/>
   <path class="fil1" d="M11781 7875l-7998 -48c13,-2209 1814,-3988 4023,-3975 2209,13 3989,1815 3975,4023z"/>
   <path class="fil2 str1" d="M3783 7827c13,-2209 1814,-3988 4023,-3975 2209,13 3989,1815 3975,4023"/>
   <path class="fil3" d="M4477 7850c12,-2071 1597,-3765 3616,-3957 -117,-11 -236,-17 -356,-18 -2209,-13 -4010,1767 -4023,3975l7998 49 0 -5 -7235 -44z"/>
   <path class="fil3" d="M11781 7884l-5573 -34c10,-1777 1179,-3277 2787,-3788 -125,-39 -252,-73 -382,-100 -1800,380 -3157,1973 -3169,3888l6337 39 0 -5z"/>
   <path class="fil3" d="M7687 7850c9,-1490 833,-2786 2046,-3466 -123,-69 -250,-132 -381,-188 -1419,607 -2418,2012 -2428,3654l763 0z"/>
   <path class="fil3" d="M10485 4903c-120,-109 -246,-212 -378,-306 -1026,718 -1700,1906 -1708,3253l763 0c7,-1170 517,-2220 1323,-2947z"/>
   <path class="fil2 str1" d="M11781 7875c14,-2208 -1766,-4010 -3975,-4023 -2209,-13 -4010,1766 -4023,3975"/>
   <line class="fil2 str1" x1="3783" y1="7827" x2="11781" y2= "7875" />
   <path class="fil4" d="M15850 8217l-7998 -49c13,-2209 1814,-3988 4023,-3975 2209,13 3989,1815 3975,4024z"/>
   <path class="fil2 str1" d="M7852 8168c13,-2209 1814,-3988 4023,-3975 2209,13 3989,1815 3975,4024"/>
   <path class="fil3" d="M8546 8191c12,-2071 1597,-3765 3616,-3957 -117,-11 -236,-17 -356,-18 -2209,-13 -4010,1767 -4023,3975l7998 49c0,-2 0,-3 0,-5l-7235 -44z"/>
   <path class="fil3" d="M15850 8225l-5573 -34c10,-1777 1179,-3277 2787,-3788 -125,-39 -252,-73 -382,-100 -1800,380 -3157,1973 -3169,3888l6337 39c0,-2 0,-3 0,-5z"/>
   <path class="fil3" d="M11756 8191c9,-1490 833,-2786 2046,-3466 -123,-69 -250,-132 -381,-188 -1419,607 -2418,2012 -2428,3654l763 0z"/>
   <path class="fil3" d="M14554 5244c-120,-109 -246,-212 -378,-306 -1026,718 -1700,1906 -1708,3253l763 0c7,-1170 517,-2220 1323,-2947z"/>
   <path class="fil2 str1" d="M15850 8217c14,-2209 -1766,-4011 -3975,-4024 -2209,-13 -4010,1766 -4023,3975"/>
   <line class="fil2 str1" x1="7852" y1="8168" x2="15850" y2= "8217" />
   <path class="fil5" d="M8480 7395c0,31 43,55 95,55 53,0 96,-24 96,-55l0 -2295c0,-31 -43,-55 -96,-55 -52,0 -95,24 -95,55l0 2295z"/>
   <path class="fil2 str0" d="M8480 7395c0,31 43,55 95,55 53,0 96,-24 96,-55l0 -2295c0,-31 -43,-55 -96,-55 -52,0 -95,24 -95,55l0 2295z"/>
   <path class="fil3" d="M9400 4162c-31,-84 -108,-160 -217,-222 50,-47 78,-101 78,-158 0,-188 -307,-340 -686,-340 -378,0 -685,152 -685,340 0,33 9,64 26,94 -186,70 -318,174 -358,294 -304,35 -531,170 -531,332 0,104 95,197 245,260 -61,61 -95,130 -95,203 0,257 418,464 935,464 14,0 27,0 41,0 124,63 298,102 489,102 379,0 686,-152 686,-340 0,-36 -11,-70 -31,-102 14,0 28,0 42,0 516,0 935,-208 935,-464 0,-246 -386,-447 -874,-463z"/>
   <path class="fil2 str0" d="M9400 4162c-31,-84 -108,-160 -217,-222 50,-47 78,-101 78,-158 0,-188 -307,-340 -686,-340 -378,0 -685,152 -685,340 0,33 9,64 26,94 -186,70 -318,174 -358,294 -304,35 -531,170 -531,332 0,104 95,197 245,260 -61,61 -95,130 -95,203 0,257 418,464 935,464 14,0 27,0 41,0 124,63 298,102 489,102 379,0 686,-152 686,-340 0,-36 -11,-70 -31,-102 14,0 28,0 42,0 516,0 935,-208 935,-464 0,-246 -386,-447 -874,-463z"/>
   <path class="fil2 str1" d="M8480 5531c0,0 -326,1030 -767,-146"/>
   <path class="fil6" d="M12013 10029l-7999 -48c14,-2209 1815,-3989 4024,-3975 2209,13 3988,1814 3975,4023z"/>
   <path class="fil2 str1" d="M4014 9981c14,-2209 1815,-3989 4024,-3975 2209,13 3988,1814 3975,4023"/>
   <path class="fil3" d="M4709 10004c12,-2071 1597,-3765 3615,-3957 -117,-11 -235,-18 -355,-18 -2209,-14 -4010,1766 -4024,3975l7999 48 0 -4 -7235 -44z"/>
   <path class="fil3" d="M12013 10038l-5574 -34c11,-1778 1180,-3277 2787,-3788 -124,-40 -251,-73 -381,-101 -1801,381 -3157,1973 -3169,3889l6337 -4c0,-1 0,39 0,38z"/>
   <path class="fil3" d="M7919 10004c9,-1491 833,-2786 2046,-3466 -123,-69 -250,-132 -381,-188 -1420,607 -2418,2012 -2428,3654l763 0z"/>
   <path class="fil3" d="M10716 7057c-119,-110 -245,-212 -378,-307 -1025,719 -1699,1906 -1708,3254l764 0c7,-1171 516,-2220 1322,-2947z"/>
   <path class="fil7" d="M11059 7412c-602,695 -969,1600 -975,2592l763 0c5,-758 221,-1465 591,-2067 -113,-185 -239,-361 -379,-525z"/>
   <path class="fil2 str1" d="M12013 10012c13,-2209 -1766,-3993 -3975,-4006 -2209,-14 -4010,1766 -4024,3975"/>
   <line class="fil2 str1" x1="4014" y1="9981" x2="12013" y2= "10011" />
   <path class="fil1" d="M7315 6045c1,-9 2,-18 2,-27 0,-76 -45,-141 -110,-169 -9,-63 -64,-112 -130,-112 -16,0 -31,2 -45,8 -22,-22 -52,-36 -86,-36 -33,0 -63,13 -85,35 -14,-5 -29,-8 -46,-8 -66,0 -121,49 -130,114 -63,29 -106,92 -106,165 0,10 0,19 2,28 -55,11 -96,59 -96,117 0,66 53,120 120,120 13,0 27,-2 39,-6 8,59 58,104 119,104 35,0 68,-15 90,-40 22,26 54,43 91,43 43,0 80,-21 101,-55 22,32 58,53 99,53 60,0 110,-43 119,-100 10,2 19,4 29,4 67,0 121,-54 121,-120 0,-59 -42,-108 -98,-118z"/>
   <path class="fil2 str0" d="M7315 6045c1,-9 2,-18 2,-27 0,-76 -45,-141 -110,-169 -9,-63 -64,-112 -130,-112 -16,0 -31,2 -45,8 -22,-22 -52,-36 -86,-36 -33,0 -63,13 -85,35 -14,-5 -29,-8 -46,-8 -66,0 -121,49 -130,114 -63,29 -106,92 -106,165 0,10 0,19 2,28 -55,11 -96,59 -96,117 0,66 53,120 120,120 13,0 27,-2 39,-6 8,59 58,104 119,104 35,0 68,-15 90,-40 22,26 54,43 91,43 43,0 80,-21 101,-55 22,32 58,53 99,53 60,0 110,-43 119,-100 10,2 19,4 29,4 67,0 121,-54 121,-120 0,-59 -42,-108 -98,-118z"/>
   <path class="fil1" d="M5393 7601c1,-9 2,-18 2,-27 0,-76 -45,-140 -110,-169 -9,-63 -64,-112 -130,-112 -16,0 -31,3 -45,8 -22,-22 -52,-36 -85,-36 -34,0 -64,14 -86,36 -14,-6 -29,-9 -46,-9 -66,0 -121,50 -130,114 -63,29 -106,92 -106,166 0,9 0,18 2,27 -55,12 -96,60 -96,117 0,67 53,121 120,121 14,0 27,-3 39,-7 8,59 58,104 119,104 36,1 68,-15 90,-40 22,27 55,43 91,44 43,0 80,-22 102,-55 21,32 57,52 99,53 59,0 109,-44 118,-101 10,3 19,4 29,4 67,0 121,-53 121,-120 0,-58 -42,-107 -98,-118z"/>
   <path class="fil2 str0" d="M5393 7601c1,-9 2,-18 2,-27 0,-76 -45,-140 -110,-169 -9,-63 -64,-112 -130,-112 -16,0 -31,3 -45,8 -22,-22 -52,-36 -85,-36 -34,0 -64,14 -86,36 -14,-6 -29,-9 -46,-9 -66,0 -121,50 -130,114 -63,29 -106,92 -106,166 0,9 0,18 2,27 -55,12 -96,60 -96,117 0,67 53,121 120,121 14,0 27,-3 39,-7 8,59 58,104 119,104 36,1 68,-15 90,-40 22,27 55,43 91,44 43,0 80,-22 102,-55 21,32 57,52 99,53 59,0 109,-44 118,-101 10,3 19,4 29,4 67,0 121,-53 121,-120 0,-58 -42,-107 -98,-118z"/>
   <path class="fil1" d="M9475 6586c1,-9 2,-18 2,-27 0,-76 -46,-141 -111,-169 -9,-64 -63,-112 -129,-113 -16,0 -32,3 -46,9 -22,-22 -52,-36 -85,-36 -33,0 -64,13 -85,35 -15,-5 -30,-8 -46,-8 -67,-1 -122,49 -130,113 -63,29 -107,93 -107,166 0,10 1,19 2,28 -54,11 -95,59 -96,117 0,66 54,120 120,120 14,0 27,-2 40,-6 7,58 57,104 118,104 36,0 68,-15 90,-40 22,26 55,43 92,43 42,0 79,-22 101,-55 21,32 58,53 99,53 60,0 109,-43 119,-100 9,2 19,3 29,3 66,1 120,-53 120,-119 0,-59 -42,-108 -97,-118z"/>
   <path class="fil2 str0" d="M9475 6586c1,-9 2,-18 2,-27 0,-76 -46,-141 -111,-169 -9,-64 -63,-112 -129,-113 -16,0 -32,3 -46,9 -22,-22 -52,-36 -85,-36 -33,0 -64,13 -85,35 -15,-5 -30,-8 -46,-8 -67,-1 -122,49 -130,113 -63,29 -107,93 -107,166 0,10 1,19 2,28 -54,11 -95,59 -96,117 0,66 54,120 120,120 14,0 27,-2 40,-6 7,58 57,104 118,104 36,0 68,-15 90,-40 22,26 55,43 92,43 42,0 79,-22 101,-55 21,32 58,53 99,53 60,0 109,-43 119,-100 9,2 19,3 29,3 66,1 120,-53 120,-119 0,-59 -42,-108 -97,-118z"/>
   <path class="fil3" d="M8787 7412c1,-9 2,-18 2,-27 0,-76 -45,-141 -111,-169 -9,-63 -63,-112 -129,-112 -16,-1 -31,2 -46,8 -21,-22 -51,-36 -85,-36 -33,0 -63,13 -85,35 -14,-5 -30,-8 -46,-8 -67,-1 -122,49 -130,114 -63,29 -106,92 -107,165 0,10 1,19 2,28 -54,11 -95,59 -95,117 0,66 53,120 119,120 14,0 28,-2 40,-6 8,58 58,104 119,104 35,0 67,-15 89,-40 22,26 55,43 92,43 42,0 80,-21 101,-55 22,32 58,53 99,53 60,0 110,-43 119,-100 9,2 19,4 29,4 66,0 120,-54 120,-120 1,-59 -41,-108 -97,-118z"/>
   <path class="fil2 str0" d="M8787 7412c1,-9 2,-18 2,-27 0,-76 -45,-141 -111,-169 -9,-63 -63,-112 -129,-112 -16,-1 -31,2 -46,8 -21,-22 -51,-36 -85,-36 -33,0 -63,13 -85,35 -14,-5 -30,-8 -46,-8 -67,-1 -122,49 -130,114 -63,29 -106,92 -107,165 0,10 1,19 2,28 -54,11 -95,59 -95,117 0,66 53,120 119,120 14,0 28,-2 40,-6 8,58 58,104 119,104 35,0 67,-15 89,-40 22,26 55,43 92,43 42,0 80,-21 101,-55 22,32 58,53 99,53 60,0 110,-43 119,-100 9,2 19,4 29,4 66,0 120,-54 120,-120 1,-59 -41,-108 -97,-118z"/>
   <path class="fil3" d="M7911 9388c2,-8 2,-17 2,-27 1,-75 -45,-140 -110,-168 -9,-64 -63,-113 -129,-113 -16,0 -32,3 -46,8 -22,-22 -52,-35 -85,-35 -34,-1 -64,13 -86,35 -14,-6 -29,-9 -45,-9 -67,0 -122,50 -131,114 -62,29 -106,92 -106,166 0,9 1,19 2,28 -55,11 -96,59 -96,117 0,66 54,120 120,120 14,0 27,-2 40,-7 7,59 57,105 118,105 36,0 68,-16 90,-40 22,26 55,43 92,43 42,0 79,-22 101,-55 21,32 57,53 99,53 59,0 109,-43 118,-100 10,2 20,3 30,3 66,0 120,-53 120,-119 0,-59 -42,-108 -98,-119z"/>
   <path class="fil2 str0" d="M7911 9388c2,-8 2,-17 2,-27 1,-75 -45,-140 -110,-168 -9,-64 -63,-113 -129,-113 -16,0 -32,3 -46,8 -22,-22 -52,-35 -85,-35 -34,-1 -64,13 -86,35 -14,-6 -29,-9 -45,-9 -67,0 -122,50 -131,114 -62,29 -106,92 -106,166 0,9 1,19 2,28 -55,11 -96,59 -96,117 0,66 54,120 120,120 14,0 27,-2 40,-7 7,59 57,105 118,105 36,0 68,-16 90,-40 22,26 55,43 92,43 42,0 79,-22 101,-55 21,32 57,53 99,53 59,0 109,-43 118,-100 10,2 20,3 30,3 66,0 120,-53 120,-119 0,-59 -42,-108 -98,-119z"/>
   <path class="fil1" d="M8191 8429c2,-9 2,-18 2,-27 1,-76 -45,-141 -110,-169 -9,-63 -63,-112 -129,-112 -16,0 -32,3 -46,8 -22,-22 -52,-36 -85,-36 -34,0 -64,14 -86,35 -14,-5 -29,-8 -45,-8 -67,0 -122,49 -131,114 -62,29 -106,92 -106,166 0,9 1,18 2,27 -55,11 -96,60 -96,117 0,67 54,120 120,121 14,0 27,-3 40,-7 7,59 57,104 118,104 36,0 68,-15 90,-40 22,27 55,43 92,43 42,1 79,-21 101,-54 21,31 57,52 99,52 59,1 109,-43 118,-100 10,2 20,4 30,4 66,0 120,-54 120,-120 0,-58 -42,-107 -98,-118z"/>
   <path class="fil2 str0" d="M8191 8429c2,-9 2,-18 2,-27 1,-76 -45,-141 -110,-169 -9,-63 -63,-112 -129,-112 -16,0 -32,3 -46,8 -22,-22 -52,-36 -85,-36 -34,0 -64,14 -86,35 -14,-5 -29,-8 -45,-8 -67,0 -122,49 -131,114 -62,29 -106,92 -106,166 0,9 1,18 2,27 -55,11 -96,60 -96,117 0,67 54,120 120,121 14,0 27,-3 40,-7 7,59 57,104 118,104 36,0 68,-15 90,-40 22,27 55,43 92,43 42,1 79,-21 101,-54 21,31 57,52 99,52 59,1 109,-43 118,-100 10,2 20,4 30,4 66,0 120,-54 120,-120 0,-58 -42,-107 -98,-118z"/>
   <path class="fil8" d="M11340 7890c1,-8 2,-18 2,-27 0,-75 -45,-140 -110,-168 -9,-64 -64,-113 -130,-113 -16,0 -31,3 -46,8 -21,-22 -51,-35 -85,-35 -33,-1 -63,13 -85,35 -14,-6 -30,-9 -46,-9 -67,0 -122,50 -130,114 -63,29 -106,92 -107,166 0,9 1,19 2,28 -54,11 -95,59 -95,117 0,66 53,120 119,120 14,0 28,-2 40,-7 8,59 58,104 119,105 35,0 67,-16 89,-40 22,26 55,43 92,43 43,0 80,-22 101,-55 22,32 58,53 99,53 60,0 110,-43 119,-101 9,3 19,4 29,4 66,0 120,-53 120,-119 1,-59 -41,-108 -97,-119z"/>
   <path class="fil2 str0" d="M11340 7890c1,-8 2,-18 2,-27 0,-75 -45,-140 -110,-168 -9,-64 -64,-113 -130,-113 -16,0 -31,3 -46,8 -21,-22 -51,-35 -85,-35 -33,-1 -63,13 -85,35 -14,-6 -30,-9 -46,-9 -67,0 -122,50 -130,114 -63,29 -106,92 -107,166 0,9 1,19 2,28 -54,11 -95,59 -95,117 0,66 53,120 119,120 14,0 28,-2 40,-7 8,59 58,104 119,105 35,0 67,-16 89,-40 22,26 55,43 92,43 43,0 80,-22 101,-55 22,32 58,53 99,53 60,0 110,-43 119,-101 9,3 19,4 29,4 66,0 120,-53 120,-119 1,-59 -41,-108 -97,-119z"/>
   <path class="fil1" d="M10876 8659c1,-8 2,-18 2,-27 0,-75 -45,-140 -110,-168 -9,-64 -64,-113 -130,-113 -16,0 -31,3 -46,8 -21,-22 -51,-35 -85,-36 -33,0 -63,14 -85,36 -14,-6 -30,-9 -46,-9 -66,0 -122,50 -130,114 -63,29 -106,92 -106,166 0,9 0,19 2,28 -55,11 -96,59 -96,117 0,66 53,120 119,120 14,0 28,-2 40,-7 8,59 58,104 119,105 35,0 67,-16 89,-40 22,26 55,43 92,43 43,0 80,-22 101,-55 22,32 58,53 99,53 60,0 110,-43 119,-101 9,3 19,4 29,4 67,0 120,-53 121,-119 0,-59 -42,-108 -98,-119z"/>
   <path class="fil2 str0" d="M10876 8659c1,-8 2,-18 2,-27 0,-75 -45,-140 -110,-168 -9,-64 -64,-113 -130,-113 -16,0 -31,3 -46,8 -21,-22 -51,-35 -85,-36 -33,0 -63,14 -85,36 -14,-6 -30,-9 -46,-9 -66,0 -122,50 -130,114 -63,29 -106,92 -106,166 0,9 0,19 2,28 -55,11 -96,59 -96,117 0,66 53,120 119,120 14,0 28,-2 40,-7 8,59 58,104 119,105 35,0 67,-16 89,-40 22,26 55,43 92,43 43,0 80,-22 101,-55 22,32 58,53 99,53 60,0 110,-43 119,-101 9,3 19,4 29,4 67,0 120,-53 121,-119 0,-59 -42,-108 -98,-119z"/>
   <polygon class="fil1" points="9529,7486 9478,7433 9534,7433 9509,7344 9554,7363 9580,7267 9606,7363 9650,7344 9626,7433 9682,7433 9631,7486 "/>
   <polygon class="fil2 str0" points="9529,7486 9478,7433 9534,7433 9509,7344 9554,7363 9580,7267 9606,7363 9650,7344 9626,7433 9682,7433 9631,7486 "/>
   <path class="fil2 str2" d="M9578 7484c-96,0 -174,78 -174,175"/>
   <line class="fil2 str2" x1="9404" y1="7659" x2="9404" y2= "7833" />
   <path class="fil2 str2" d="M9404 7833c0,96 78,174 174,174 97,0 175,-78 175,-174"/>
   <line class="fil2 str2" x1="9753" y1="7833" x2="9753" y2= "7659" />
   <path class="fil2 str2" d="M9753 7659c0,-97 -78,-175 -175,-175"/>
   <path class="fil9" d="M9578 7484c-96,0 -174,78 -174,175l0 174c0,96 78,174 174,174 97,0 175,-78 175,-174l0 -174c0,-97 -78,-175 -175,-175z"/>
   <path class="fil2 str0" d="M9578 7484c-96,0 -174,78 -174,175l0 174c0,96 78,174 174,174 97,0 175,-78 175,-174l0 -174c0,-97 -78,-175 -175,-175z"/>
   <path class="fil2 str0" d="M9578 7484c-96,0 -174,78 -174,175l0 174c0,96 78,174 174,174 97,0 175,-78 175,-174l0 -174c0,-97 -78,-175 -175,-175z"/>
   <path class="fil4" d="M9115 7877c-71,71 -95,170 -72,260 12,-46 35,-90 72,-126 106,-106 279,-106 385,0 36,36 60,80 72,126 22,-90 -1,-189 -72,-260 -106,-106 -279,-106 -385,0z"/>
   <path class="fil2 str0" d="M9115 7877c-71,71 -95,170 -72,260 12,-46 35,-90 72,-126 106,-106 279,-106 385,0 36,36 60,80 72,126 22,-90 -1,-189 -72,-260 -106,-106 -279,-106 -385,0z"/>
   <path class="fil1" d="M8797 7927c-119,119 -160,288 -121,440 19,-78 60,-152 121,-214 181,-180 473,-180 654,0 61,62 102,136 122,214 38,-152 -3,-321 -122,-440 -181,-181 -473,-181 -654,0z"/>
   <path class="fil2 str0" d="M8797 7927c-119,119 -160,288 -121,440 19,-78 60,-152 121,-214 181,-180 473,-180 654,0 61,62 102,136 122,214 38,-152 -3,-321 -122,-440 -181,-181 -473,-181 -654,0z"/>
   <path class="fil4" d="M9115 8104c-71,71 -95,170 -72,260 12,-46 35,-90 72,-126 106,-106 279,-106 385,0 36,36 60,80 72,126 22,-90 -1,-189 -72,-260 -106,-106 -279,-106 -385,0z"/>
   <path class="fil2 str0" d="M9115 8104c-71,71 -95,170 -72,260 12,-46 35,-90 72,-126 106,-106 279,-106 385,0 36,36 60,80 72,126 22,-90 -1,-189 -72,-260 -106,-106 -279,-106 -385,0z"/>
   <path class="fil4" d="M9640 8104c-70,71 -94,170 -72,260 12,-46 36,-90 72,-126 107,-106 279,-106 386,0 36,36 60,80 71,126 23,-90 -1,-189 -71,-260 -107,-106 -279,-106 -386,0z"/>
   <path class="fil2 str0" d="M9640 8104c-70,71 -94,170 -72,260 12,-46 36,-90 72,-126 107,-106 279,-106 386,0 36,36 60,80 71,126 23,-90 -1,-189 -71,-260 -107,-106 -279,-106 -386,0z"/>
   <path class="fil1" d="M9696 7927c-120,119 -160,288 -122,440 20,-78 60,-152 122,-214 180,-180 473,-180 654,0 61,62 102,136 121,214 39,-152 -2,-321 -121,-440 -181,-181 -474,-181 -654,0z"/>
   <path class="fil2 str0" d="M9696 7927c-120,119 -160,288 -122,440 20,-78 60,-152 122,-214 180,-180 473,-180 654,0 61,62 102,136 121,214 39,-152 -2,-321 -121,-440 -181,-181 -474,-181 -654,0z"/>
   <path class="fil4" d="M9640 7900c-70,70 -94,169 -72,259 12,-46 36,-90 72,-126 107,-106 279,-106 386,0 36,36 60,80 71,126 23,-90 -1,-189 -71,-259 -107,-107 -279,-107 -386,0z"/>
   <path class="fil2 str0" d="M9640 7900c-70,70 -94,169 -72,259 12,-46 36,-90 72,-126 107,-106 279,-106 386,0 36,36 60,80 71,126 23,-90 -1,-189 -71,-259 -107,-107 -279,-107 -386,0z"/>
   <polygon class="fil1" points="9064,8802 9012,8749 9069,8749 9044,8660 9089,8679 9115,8583 9141,8679 9185,8660 9161,8749 9217,8749 9166,8802 "/>
   <polygon class="fil2 str0" points="9064,8802 9012,8749 9069,8749 9044,8660 9089,8679 9115,8583 9141,8679 9185,8660 9161,8749 9217,8749 9166,8802 "/>
   <path class="fil2 str2" d="M9113 8801c-96,0 -174,78 -174,174"/>
   <line class="fil2 str2" x1="8939" y1="8975" x2="8939" y2= "9149" />
   <path class="fil2 str2" d="M8939 9149c0,97 78,175 174,175 97,0 175,-78 175,-175"/>
   <line class="fil2 str2" x1="9288" y1="9149" x2="9288" y2= "8975" />
   <path class="fil2 str2" d="M9288 8975c0,-96 -78,-174 -175,-174"/>
   <path class="fil9" d="M9113 8801c-96,0 -174,78 -174,174l0 174c0,97 78,175 174,175 97,0 175,-78 175,-175l0 -174c0,-96 -78,-174 -175,-174z"/>
   <path class="fil2 str0" d="M9113 8801c-96,0 -174,78 -174,174l0 174c0,97 78,175 174,175 97,0 175,-78 175,-175l0 -174c0,-96 -78,-174 -175,-174z"/>
   <path class="fil2 str0" d="M9113 8801c-96,0 -174,78 -174,174l0 174c0,97 78,175 174,175 97,0 175,-78 175,-175l0 -174c0,-96 -78,-174 -175,-174z"/>
   <path class="fil4" d="M8649 9194c-70,70 -94,169 -71,259 12,-46 35,-89 71,-126 107,-106 280,-106 386,0 36,37 60,80 72,126 22,-90 -1,-189 -72,-259 -106,-107 -279,-107 -386,0z"/>
   <path class="fil2 str0" d="M8649 9194c-70,70 -94,169 -71,259 12,-46 35,-89 71,-126 107,-106 280,-106 386,0 36,37 60,80 72,126 22,-90 -1,-189 -72,-259 -106,-107 -279,-107 -386,0z"/>
   <path class="fil1" d="M8332 9243c-119,119 -160,288 -121,440 19,-78 60,-152 121,-213 181,-181 473,-181 654,0 61,61 102,135 122,213 38,-152 -3,-321 -122,-440 -181,-181 -473,-181 -654,0z"/>
   <path class="fil2 str0" d="M8332 9243c-119,119 -160,288 -121,440 19,-78 60,-152 121,-213 181,-181 473,-181 654,0 61,61 102,135 122,213 38,-152 -3,-321 -122,-440 -181,-181 -473,-181 -654,0z"/>
   <path class="fil4" d="M8649 9421c-70,70 -94,169 -71,259 12,-46 35,-90 71,-126 107,-106 280,-106 386,0 36,36 60,80 72,126 22,-90 -1,-189 -72,-259 -106,-107 -279,-107 -386,0z"/>
   <path class="fil2 str0" d="M8649 9421c-70,70 -94,169 -71,259 12,-46 35,-90 71,-126 107,-106 280,-106 386,0 36,36 60,80 72,126 22,-90 -1,-189 -72,-259 -106,-107 -279,-107 -386,0z"/>
   <path class="fil4" d="M9175 9421c-70,70 -94,169 -72,259 12,-46 36,-90 72,-126 107,-106 279,-106 386,0 36,36 60,80 71,126 23,-90 -1,-189 -71,-259 -107,-107 -279,-107 -386,0z"/>
   <path class="fil2 str0" d="M9175 9421c-70,70 -94,169 -72,259 12,-46 36,-90 72,-126 107,-106 279,-106 386,0 36,36 60,80 71,126 23,-90 -1,-189 -71,-259 -107,-107 -279,-107 -386,0z"/>
   <path class="fil1" d="M9231 9243c-120,119 -160,288 -122,440 20,-78 60,-152 122,-213 180,-181 473,-181 654,0 61,61 101,135 121,213 39,-152 -2,-321 -121,-440 -181,-181 -474,-181 -654,0z"/>
   <path class="fil2 str0" d="M9231 9243c-120,119 -160,288 -122,440 20,-78 60,-152 122,-213 180,-181 473,-181 654,0 61,61 101,135 121,213 39,-152 -2,-321 -121,-440 -181,-181 -474,-181 -654,0z"/>
   <path class="fil4" d="M9175 9216c-70,70 -94,170 -72,260 12,-47 36,-90 72,-126 107,-107 279,-107 386,0 36,36 60,79 71,126 23,-90 -1,-190 -71,-260 -107,-107 -279,-107 -386,0z"/>
   <path class="fil2 str0" d="M9175 9216c-70,70 -94,170 -72,260 12,-47 36,-90 72,-126 107,-107 279,-107 386,0 36,36 60,79 71,126 23,-90 -1,-190 -71,-260 -107,-107 -279,-107 -386,0z"/>
   <path class="fil3" d="M6456 6654c2,-9 2,-18 2,-27 1,-76 -45,-141 -110,-169 -9,-63 -63,-112 -129,-113 -16,0 -32,3 -46,9 -22,-22 -52,-36 -85,-36 -34,0 -64,13 -85,35 -15,-5 -30,-8 -46,-8 -67,-1 -122,49 -131,114 -62,28 -106,92 -106,165 0,10 1,19 2,28 -54,11 -96,59 -96,117 0,66 54,120 120,120 14,0 27,-2 40,-6 7,58 57,104 118,104 36,0 68,-15 90,-40 22,26 55,43 92,43 42,0 79,-22 101,-55 21,32 58,53 99,53 59,0 109,-43 118,-100 10,2 20,3 30,3 66,1 120,-53 120,-119 0,-59 -42,-108 -98,-118z"/>
   <path class="fil2 str0" d="M6456 6654c2,-9 2,-18 2,-27 1,-76 -45,-141 -110,-169 -9,-63 -63,-112 -129,-113 -16,0 -32,3 -46,9 -22,-22 -52,-36 -85,-36 -34,0 -64,13 -85,35 -15,-5 -30,-8 -46,-8 -67,-1 -122,49 -131,114 -62,28 -106,92 -106,165 0,10 1,19 2,28 -54,11 -96,59 -96,117 0,66 54,120 120,120 14,0 27,-2 40,-6 7,58 57,104 118,104 36,0 68,-15 90,-40 22,26 55,43 92,43 42,0 79,-22 101,-55 21,32 58,53 99,53 59,0 109,-43 118,-100 10,2 20,3 30,3 66,1 120,-53 120,-119 0,-59 -42,-108 -98,-118z"/>
   <path class="fil3" d="M4923 8629c1,-9 2,-18 2,-27 0,-76 -46,-140 -111,-169 -9,-63 -63,-112 -129,-112 -16,0 -32,3 -46,8 -22,-22 -52,-36 -85,-36 -33,0 -63,14 -85,35 -15,-5 -30,-8 -46,-8 -67,0 -122,49 -130,114 -63,29 -107,92 -107,166 0,9 1,18 2,27 -54,12 -95,60 -95,117 -1,67 53,121 119,121 14,0 27,-3 40,-7 7,59 58,104 118,104 36,1 68,-15 90,-40 22,27 55,43 92,44 42,0 80,-22 101,-55 21,32 58,52 99,53 60,0 109,-44 119,-101 9,3 19,4 29,4 66,0 120,-53 120,-120 0,-58 -42,-107 -97,-118z"/>
   <path class="fil2 str0" d="M4923 8629c1,-9 2,-18 2,-27 0,-76 -46,-140 -111,-169 -9,-63 -63,-112 -129,-112 -16,0 -32,3 -46,8 -22,-22 -52,-36 -85,-36 -33,0 -63,14 -85,35 -15,-5 -30,-8 -46,-8 -67,0 -122,49 -130,114 -63,29 -107,92 -107,166 0,9 1,18 2,27 -54,12 -95,60 -95,117 -1,67 53,121 119,121 14,0 27,-3 40,-7 7,59 58,104 118,104 36,1 68,-15 90,-40 22,27 55,43 92,44 42,0 80,-22 101,-55 21,32 58,52 99,53 60,0 109,-44 119,-101 9,3 19,4 29,4 66,0 120,-53 120,-120 0,-58 -42,-107 -97,-118z"/>
   <path class="fil3" d="M17027 10007c13,-2036 -1628,-3697 -3665,-3710 -2036,-12 -3697,1681 -3709,3718l7374 -8z"/>
   <path class="fil2 str0" d="M17027 10007c13,-2036 -1628,-3697 -3665,-3710 -2036,-12 -3697,1681 -3709,3718l7374 -8z"/>
   <path class="fil5" d="M13961 9919c0,43 -60,78 -135,78 -75,0 -135,-35 -135,-78l0 -3259c0,-44 60,-79 135,-79 75,0 135,35 135,79l0 3259z"/>
   <path class="fil2 str0" d="M13961 9919c0,43 -60,78 -135,78 -75,0 -135,-35 -135,-78l0 -3259c0,-44 60,-79 135,-79 75,0 135,35 135,79l0 3259z"/>
   <path class="fil4" d="M16944 5729c0,-363 -594,-658 -1328,-658 -313,0 -600,53 -827,143 -227,-90 -515,-143 -828,-143 -394,0 -748,85 -991,220 -225,-87 -509,-139 -817,-139 -733,0 -1327,295 -1327,659 0,309 429,568 1007,639 -24,42 -37,86 -37,132 0,267 436,483 974,483 28,0 55,-1 83,-2 0,1 -1,2 -1,2 0,267 436,483 974,483 507,0 924,-192 969,-438 583,-70 1017,-330 1017,-641 0,-29 -4,-59 -12,-87 646,-45 1144,-320 1144,-653z"/>
   <path class="fil2 str0" d="M16944 5729c0,-363 -594,-658 -1328,-658 -313,0 -600,53 -827,143 -227,-90 -515,-143 -828,-143 -394,0 -748,85 -991,220 -225,-87 -509,-139 -817,-139 -733,0 -1327,295 -1327,659 0,309 429,568 1007,639 -24,42 -37,86 -37,132 0,267 436,483 974,483 28,0 55,-1 83,-2 0,1 -1,2 -1,2 0,267 436,483 974,483 507,0 924,-192 969,-438 583,-70 1017,-330 1017,-641 0,-29 -4,-59 -12,-87 646,-45 1144,-320 1144,-653z"/>
   <path class="fil2 str1" d="M11796 6469c0,0 231,2353 974,596"/>
   <path class="fil2 str1" d="M14799 7065c0,0 602,3153 1013,-684"/>
   <polygon class="fil10 str0" points="14502,8262 10627,8262 10627,10005 14502,10005 "/>
   <polygon class="fil11" points="14015,7487 10986,7487 10264,8262 14780,8262 "/>
   <polygon class="fil2 str0" points="14015,7487 10986,7487 10264,8262 14780,8262 "/>
   <polygon class="fil12 str1" points="13885,9332 12581,9332 12581,8500 13885,8500 "/>
   <path class="fil8" d="M12798 9288c0,60 -48,109 -108,109 -60,0 -109,-49 -109,-109 0,-60 49,-109 109,-109 60,0 108,49 108,109z"/>
   <path class="fil2 str1" d="M12798 9288c0,60 -48,109 -108,109 -60,0 -109,-49 -109,-109 0,-60 49,-109 109,-109 60,0 108,49 108,109z"/>
   <path class="fil10" d="M13016 9288c0,60 -49,109 -109,109 -60,0 -109,-49 -109,-109 0,-60 49,-109 109,-109 60,0 109,49 109,109z"/>
   <path class="fil2 str1" d="M13016 9288c0,60 -49,109 -109,109 -60,0 -109,-49 -109,-109 0,-60 49,-109 109,-109 60,0 109,49 109,109z"/>
   <path class="fil8 str1" d="M13233 9288c0,60 -49,109 -109,109 -60,0 -108,-49 -108,-109 0,-60 48,-109 108,-109 60,0 109,49 109,109z"/>
   <path class="fil10 str1" d="M13450 9288c0,60 -48,109 -108,109 -60,0 -109,-49 -109,-109 0,-60 49,-109 109,-109 60,0 108,49 108,109z"/>
   <path class="fil8 str1" d="M13668 9288c0,60 -49,109 -109,109 -60,0 -109,-49 -109,-109 0,-60 49,-109 109,-109 60,0 109,49 109,109z"/>
   <path class="fil10" d="M13885 9288c0,60 -49,109 -109,109 -60,0 -108,-49 -108,-109 0,-60 48,-109 108,-109 60,0 109,49 109,109z"/>
   <path class="fil2 str1" d="M13885 9288c0,60 -49,109 -109,109 -60,0 -108,-49 -108,-109 0,-60 48,-109 108,-109 60,0 109,49 109,109z"/>
   <polygon class="fil9 str0" points="13885,9524 12581,9524 12581,9332 13885,9332 "/>
   <g>
    <line class="fil2 str3" x1="12683" y1="8712" x2="12786" y2= "8608" />
   </g>
   <g>
    <line class="fil2 str3" x1="12650" y1="8635" x2="12710" y2= "8575" />
   </g>
   <polygon class="fil13 str0" points="10992,10004 11513,10004 11513,8652 10992,8652 "/>
   <polygon class="fil12 str0" points="11127,9297 11376,9297 11376,8762 11127,8762 "/>
   <g>
    <line class="fil2 str3" x1="11219" y1="8984" x2="11301" y2= "8902" />
   </g>
   <g>
    <line class="fil2 str3" x1="11193" y1="8923" x2="11240" y2= "8875" />
   </g>
   <polygon class="fil12 str0" points="11127,9924 11376,9924 11376,9389 11127,9389 "/>
   <g>
    <line class="fil2 str3" x1="11219" y1="9611" x2="11301" y2= "9528" />
   </g>
   <g>
    <line class="fil2 str3" x1="11193" y1="9550" x2="11240" y2= "9502" />
   </g>
   <polygon class="fil13 str0" points="11500,10004 12021,10004 12021,8652 11500,8652 "/>
   <polygon class="fil12 str0" points="11635,9297 11884,9297 11884,8762 11635,8762 "/>
   <g>
    <line class="fil2 str3" x1="11727" y1="8984" x2="11809" y2= "8902" />
   </g>
   <g>
    <line class="fil2 str3" x1="11701" y1="8923" x2="11748" y2= "8875" />
   </g>
   <polygon class="fil12 str0" points="11635,9924 11884,9924 11884,9389 11635,9389 "/>
   <g>
    <line class="fil2 str3" x1="11727" y1="9611" x2="11809" y2= "9528" />
   </g>
   <g>
    <line class="fil2 str3" x1="11701" y1="9550" x2="11748" y2= "9502" />
   </g>
   <path class="fil5" d="M3997 9952c0,31 43,55 95,55 53,0 96,-24 96,-55l0 -2296c0,-30 -43,-55 -96,-55 -52,0 -95,25 -95,55l0 2296z"/>
   <path class="fil2 str0" d="M3997 9952c0,31 43,55 95,55 53,0 96,-24 96,-55l0 -2296c0,-30 -43,-55 -96,-55 -52,0 -95,25 -95,55l0 2296z"/>
   <path class="fil6" d="M4916 6719c-30,-84 -107,-160 -217,-222 50,-47 79,-101 79,-158 0,-188 -307,-340 -686,-340 -378,0 -685,152 -685,340 0,33 9,64 26,94 -187,70 -319,174 -358,294 -304,35 -531,170 -531,331 0,105 95,198 244,261 -60,61 -94,130 -94,203 0,257 418,464 935,464 13,0 27,0 41,0 124,63 298,102 489,102 379,0 686,-153 686,-340 0,-36 -11,-70 -32,-102 15,0 29,0 43,0 516,0 935,-208 935,-464 0,-246 -386,-447 -875,-463z"/>
   <path class="fil2 str0" d="M4916 6719c-30,-84 -107,-160 -217,-222 50,-47 79,-101 79,-158 0,-188 -307,-340 -686,-340 -378,0 -685,152 -685,340 0,33 9,64 26,94 -187,70 -319,174 -358,294 -304,35 -531,170 -531,331 0,105 95,198 244,261 -60,61 -94,130 -94,203 0,257 418,464 935,464 13,0 27,0 41,0 124,63 298,102 489,102 379,0 686,-153 686,-340 0,-36 -11,-70 -32,-102 15,0 29,0 43,0 516,0 935,-208 935,-464 0,-246 -386,-447 -875,-463z"/>
   <path class="fil2 str1" d="M3997 8088c0,0 -326,1030 -767,-146"/>
   <polygon class="fil1" points="5995,8848 5944,8795 6001,8795 5976,8706 6020,8725 6046,8629 6072,8725 6117,8706 6092,8795 6149,8795 6098,8848 "/>
   <polygon class="fil2 str0" points="5995,8848 5944,8795 6001,8795 5976,8706 6020,8725 6046,8629 6072,8725 6117,8706 6092,8795 6149,8795 6098,8848 "/>
   <path class="fil2 str2" d="M6045 8846c-96,0 -174,79 -174,175"/>
   <line class="fil2 str2" x1="5871" y1="9021" x2="5871" y2= "9195" />
   <path class="fil2 str2" d="M5871 9195c0,97 78,175 174,175 96,0 174,-78 174,-175"/>
   <line class="fil2 str2" x1="6219" y1="9195" x2="6219" y2= "9021" />
   <path class="fil2 str2" d="M6219 9021c0,-96 -78,-175 -174,-175"/>
   <path class="fil9" d="M6045 8846c-96,0 -174,79 -174,175l0 174c0,97 78,175 174,175 96,0 174,-78 174,-175l0 -174c0,-96 -78,-175 -174,-175z"/>
   <path class="fil2 str0" d="M6045 8846c-96,0 -174,79 -174,175l0 174c0,97 78,175 174,175 96,0 174,-78 174,-175l0 -174c0,-96 -78,-175 -174,-175z"/>
   <path class="fil2 str0" d="M6045 8846c-96,0 -174,79 -174,175l0 174c0,97 78,175 174,175 96,0 174,-78 174,-175l0 -174c0,-96 -78,-175 -174,-175z"/>
   <path class="fil4" d="M5581 9240c-70,70 -94,169 -71,259 11,-46 35,-90 71,-126 107,-106 279,-106 386,0 36,36 60,80 71,126 23,-90 -1,-189 -71,-259 -107,-107 -279,-107 -386,0z"/>
   <path class="fil2 str0" d="M5581 9240c-70,70 -94,169 -71,259 11,-46 35,-90 71,-126 107,-106 279,-106 386,0 36,36 60,80 71,126 23,-90 -1,-189 -71,-259 -107,-107 -279,-107 -386,0z"/>
   <path class="fil1" d="M5264 9289c-120,119 -160,288 -122,440 20,-78 60,-152 122,-213 180,-181 473,-181 654,0 61,61 101,135 121,213 39,-152 -2,-321 -121,-440 -181,-181 -474,-181 -654,0z"/>
   <path class="fil2 str0" d="M5264 9289c-120,119 -160,288 -122,440 20,-78 60,-152 122,-213 180,-181 473,-181 654,0 61,61 101,135 121,213 39,-152 -2,-321 -121,-440 -181,-181 -474,-181 -654,0z"/>
   <path class="fil4" d="M5581 9467c-70,70 -94,169 -71,259 11,-46 35,-90 71,-126 107,-106 279,-106 386,0 36,36 60,80 71,126 23,-90 -1,-189 -71,-259 -107,-107 -279,-107 -386,0z"/>
   <path class="fil2 str0" d="M5581 9467c-70,70 -94,169 -71,259 11,-46 35,-90 71,-126 107,-106 279,-106 386,0 36,36 60,80 71,126 23,-90 -1,-189 -71,-259 -107,-107 -279,-107 -386,0z"/>
   <path class="fil4" d="M6107 9467c-71,70 -95,169 -72,259 12,-46 36,-90 72,-126 106,-106 279,-106 385,0 36,36 60,80 72,126 23,-90 -1,-189 -72,-259 -106,-107 -279,-107 -385,0z"/>
   <path class="fil2 str0" d="M6107 9467c-71,70 -95,169 -72,259 12,-46 36,-90 72,-126 106,-106 279,-106 385,0 36,36 60,80 72,126 23,-90 -1,-189 -72,-259 -106,-107 -279,-107 -385,0z"/>
   <path class="fil1" d="M6162 9289c-119,119 -160,288 -121,440 19,-78 60,-152 121,-213 181,-181 474,-181 654,0 62,61 102,135 122,213 38,-152 -2,-321 -122,-440 -180,-181 -473,-181 -654,0z"/>
   <path class="fil2 str0" d="M6162 9289c-119,119 -160,288 -121,440 19,-78 60,-152 121,-213 181,-181 474,-181 654,0 62,61 102,135 122,213 38,-152 -2,-321 -122,-440 -180,-181 -473,-181 -654,0z"/>
   <path class="fil4" d="M6107 9262c-71,70 -95,170 -72,260 12,-47 36,-90 72,-126 106,-107 279,-107 385,0 36,36 60,79 72,126 23,-90 -1,-190 -72,-260 -106,-107 -279,-107 -385,0z"/>
   <path class="fil2 str0" d="M6107 9262c-71,70 -95,170 -72,260 12,-47 36,-90 72,-126 106,-107 279,-107 385,0 36,36 60,79 72,126 23,-90 -1,-190 -72,-260 -106,-107 -279,-107 -385,0z"/>
   <polygon class="fil1" points="6527,7557 6476,7504 6533,7504 6508,7415 6553,7434 6579,7339 6605,7434 6649,7415 6624,7504 6681,7504 6630,7557 "/>
   <polygon class="fil2 str0" points="6527,7557 6476,7504 6533,7504 6508,7415 6553,7434 6579,7339 6605,7434 6649,7415 6624,7504 6681,7504 6630,7557 "/>
   <path class="fil2 str2" d="M6577 7556c-96,0 -174,78 -174,174"/>
   <line class="fil2 str2" x1="6403" y1="7730" x2="6403" y2= "7904" />
   <path class="fil2 str2" d="M6403 7904c0,97 78,175 174,175 96,0 175,-78 175,-175"/>
   <line class="fil2 str2" x1="6752" y1="7904" x2="6752" y2= "7730" />
   <path class="fil2 str2" d="M6752 7730c0,-96 -79,-174 -175,-174"/>
   <path class="fil9" d="M6577 7556c-96,0 -174,78 -174,174l0 174c0,97 78,175 174,175 96,0 175,-78 175,-175l0 -174c0,-96 -79,-174 -175,-174z"/>
   <path class="fil2 str0" d="M6577 7556c-96,0 -174,78 -174,174l0 174c0,97 78,175 174,175 96,0 175,-78 175,-175l0 -174c0,-96 -79,-174 -175,-174z"/>
   <path class="fil2 str0" d="M6577 7556c-96,0 -174,78 -174,174l0 174c0,97 78,175 174,175 96,0 175,-78 175,-175l0 -174c0,-96 -79,-174 -175,-174z"/>
   <path class="fil4" d="M6113 7949c-70,70 -94,169 -71,259 11,-46 35,-89 71,-126 107,-106 280,-106 386,0 36,37 60,80 72,126 22,-90 -2,-189 -72,-259 -106,-107 -279,-107 -386,0z"/>
   <path class="fil2 str0" d="M6113 7949c-70,70 -94,169 -71,259 11,-46 35,-89 71,-126 107,-106 280,-106 386,0 36,37 60,80 72,126 22,-90 -2,-189 -72,-259 -106,-107 -279,-107 -386,0z"/>
   <path class="fil1" d="M5796 7998c-120,120 -160,288 -122,440 20,-78 61,-152 122,-213 180,-181 473,-181 654,0 61,61 102,135 121,213 39,-152 -2,-320 -121,-440 -181,-180 -474,-180 -654,0z"/>
   <path class="fil2 str0" d="M5796 7998c-120,120 -160,288 -122,440 20,-78 61,-152 122,-213 180,-181 473,-181 654,0 61,61 102,135 121,213 39,-152 -2,-320 -121,-440 -181,-180 -474,-180 -654,0z"/>
   <path class="fil4" d="M6113 8176c-70,70 -94,169 -71,259 11,-46 35,-89 71,-126 107,-106 280,-106 386,0 36,37 60,80 72,126 22,-90 -2,-189 -72,-259 -106,-107 -279,-107 -386,0z"/>
   <path class="fil2 str0" d="M6113 8176c-70,70 -94,169 -71,259 11,-46 35,-89 71,-126 107,-106 280,-106 386,0 36,37 60,80 72,126 22,-90 -2,-189 -72,-259 -106,-107 -279,-107 -386,0z"/>
   <path class="fil4" d="M6639 8176c-71,70 -94,169 -72,259 12,-46 36,-89 72,-126 106,-106 279,-106 386,0 36,37 60,80 71,126 23,-90 -1,-189 -71,-259 -107,-107 -280,-107 -386,0z"/>
   <path class="fil2 str0" d="M6639 8176c-71,70 -94,169 -72,259 12,-46 36,-89 72,-126 106,-106 279,-106 386,0 36,37 60,80 71,126 23,-90 -1,-189 -71,-259 -107,-107 -280,-107 -386,0z"/>
   <path class="fil1" d="M6694 7998c-119,120 -159,288 -121,440 20,-78 60,-152 121,-213 181,-181 474,-181 655,0 61,61 101,135 121,213 38,-152 -2,-320 -121,-440 -181,-180 -474,-180 -655,0z"/>
   <path class="fil2 str0" d="M6694 7998c-119,120 -159,288 -121,440 20,-78 60,-152 121,-213 181,-181 474,-181 655,0 61,61 101,135 121,213 38,-152 -2,-320 -121,-440 -181,-180 -474,-180 -655,0z"/>
   <path class="fil4" d="M6639 7971c-71,70 -94,170 -72,260 12,-46 36,-90 72,-126 106,-107 279,-107 386,0 36,36 60,80 71,126 23,-90 -1,-190 -71,-260 -107,-106 -280,-106 -386,0z"/>
   <path class="fil2 str0" d="M6639 7971c-71,70 -94,170 -72,260 12,-46 36,-90 72,-126 106,-107 279,-107 386,0 36,36 60,80 71,126 23,-90 -1,-190 -71,-260 -107,-106 -280,-106 -386,0z"/>
   <polygon class="fil1" points="7368,6323 7317,6270 7374,6270 7349,6180 7393,6199 7419,6104 7445,6199 7490,6180 7465,6270 7521,6270 7471,6323 "/>
   <polygon class="fil2 str0" points="7368,6323 7317,6270 7374,6270 7349,6180 7393,6199 7419,6104 7445,6199 7490,6180 7465,6270 7521,6270 7471,6323 "/>
   <path class="fil2 str2" d="M7418 6321c-97,0 -175,78 -175,174"/>
   <line class="fil2 str2" x1="7243" y1="6495" x2="7243" y2= "6670" />
   <path class="fil2 str2" d="M7243 6670c0,96 78,174 175,174 96,0 174,-78 174,-174"/>
   <line class="fil2 str2" x1="7592" y1="6670" x2="7592" y2= "6495" />
   <path class="fil2 str2" d="M7592 6495c0,-96 -78,-174 -174,-174"/>
   <path class="fil9" d="M7418 6321c-97,0 -175,78 -175,174l0 175c0,96 78,174 175,174 96,0 174,-78 174,-174l0 -175c0,-96 -78,-174 -174,-174z"/>
   <path class="fil2 str0" d="M7418 6321c-97,0 -175,78 -175,174l0 175c0,96 78,174 175,174 96,0 174,-78 174,-174l0 -175c0,-96 -78,-174 -174,-174z"/>
   <path class="fil2 str0" d="M7418 6321c-97,0 -175,78 -175,174l0 175c0,96 78,174 175,174 96,0 174,-78 174,-174l0 -175c0,-96 -78,-174 -174,-174z"/>
   <path class="fil4" d="M6954 6714c-71,71 -94,170 -72,260 12,-46 36,-90 72,-126 106,-107 279,-107 386,0 36,36 60,80 71,126 23,-90 -1,-189 -71,-260 -107,-106 -280,-106 -386,0z"/>
   <path class="fil2 str0" d="M6954 6714c-71,71 -94,170 -72,260 12,-46 36,-90 72,-126 106,-107 279,-107 386,0 36,36 60,80 71,126 23,-90 -1,-189 -71,-260 -107,-106 -280,-106 -386,0z"/>
   <path class="fil1" d="M6636 6764c-119,119 -159,287 -121,440 20,-78 60,-153 121,-214 181,-180 474,-180 654,0 62,61 102,136 122,214 38,-153 -2,-321 -122,-440 -180,-181 -473,-181 -654,0z"/>
   <path class="fil2 str0" d="M6636 6764c-119,119 -159,287 -121,440 20,-78 60,-153 121,-214 181,-180 474,-180 654,0 62,61 102,136 122,214 38,-153 -2,-321 -122,-440 -180,-181 -473,-181 -654,0z"/>
   <path class="fil4" d="M6954 6941c-71,71 -94,170 -72,260 12,-46 36,-90 72,-126 106,-107 279,-107 386,0 36,36 60,80 71,126 23,-90 -1,-189 -71,-260 -107,-106 -280,-106 -386,0z"/>
   <path class="fil2 str0" d="M6954 6941c-71,71 -94,170 -72,260 12,-46 36,-90 72,-126 106,-107 279,-107 386,0 36,36 60,80 71,126 23,-90 -1,-189 -71,-260 -107,-106 -280,-106 -386,0z"/>
   <path class="fil4" d="M7479 6941c-70,71 -94,170 -71,260 11,-46 35,-90 71,-126 107,-107 280,-107 386,0 36,36 60,80 72,126 22,-90 -2,-189 -72,-260 -106,-106 -279,-106 -386,0z"/>
   <path class="fil2 str0" d="M7479 6941c-70,71 -94,170 -71,260 11,-46 35,-90 71,-126 107,-107 280,-107 386,0 36,36 60,80 72,126 22,-90 -2,-189 -72,-260 -106,-106 -279,-106 -386,0z"/>
   <path class="fil1" d="M7535 6764c-119,119 -160,287 -121,440 19,-78 60,-153 121,-214 181,-180 473,-180 654,0 61,61 102,136 122,214 38,-153 -3,-321 -122,-440 -181,-181 -473,-181 -654,0z"/>
   <path class="fil2 str0" d="M7535 6764c-119,119 -160,287 -121,440 19,-78 60,-153 121,-214 181,-180 473,-180 654,0 61,61 102,136 122,214 38,-153 -3,-321 -122,-440 -181,-181 -473,-181 -654,0z"/>
   <path class="fil4" d="M7479 6737c-70,70 -94,169 -71,259 11,-46 35,-90 71,-126 107,-106 280,-106 386,0 36,36 60,80 72,126 22,-90 -2,-189 -72,-259 -106,-107 -279,-107 -386,0z"/>
   <path class="fil2 str0" d="M7479 6737c-70,70 -94,169 -71,259 11,-46 35,-90 71,-126 107,-106 280,-106 386,0 36,36 60,80 72,126 22,-90 -2,-189 -72,-259 -106,-107 -279,-107 -386,0z"/>
   <polygon class="fil9" points="2580,14722 2445,14722 2366,12843 2644,12843 "/>
   <polygon class="fil2 str0" points="2580,14722 2445,14722 2366,12843 2644,12843 "/>
   <polygon class="fil9" points="2642,12903 2042,12740 2042,12612 2642,12612 "/>
   <polygon class="fil2 str0" points="2642,12903 2042,12740 2042,12612 2642,12612 "/>
   <path class="fil14" d="M4167 11414c0,-103 84,-186 186,-186 103,0 186,83 186,186 0,151 123,274 275,274 151,0 274,-123 274,-274l372 0c0,356 -290,646 -646,646 -357,0 -647,-290 -647,-646z"/>
   <path class="fil2 str0" d="M4167 11414c0,-103 84,-186 186,-186 103,0 186,83 186,186 0,151 123,274 275,274 151,0 274,-123 274,-274l372 0c0,356 -290,646 -646,646 -357,0 -647,-290 -647,-646z"/>
   <path class="fil14" d="M5276 11522c137,0 248,-111 248,-249 0,-137 -111,-249 -248,-249 -138,0 -249,112 -249,249 0,138 111,249 249,249z"/>
   <path class="fil2 str0" d="M5276 11522c137,0 248,-111 248,-249 0,-137 -111,-249 -248,-249 -138,0 -249,112 -249,249 0,138 111,249 249,249z"/>
   <path class="fil14" d="M3052 11499c73,73 73,190 0,263 -72,72 -190,72 -262,0 -108,-107 -281,-108 -389,0 -107,107 -107,281 0,388l-262 263c-253,-252 -253,-662 0,-914 252,-252 661,-252 913,0z"/>
   <path class="fil2 str0" d="M3052 11499c73,73 73,190 0,263 -72,72 -190,72 -262,0 -108,-107 -281,-108 -389,0 -107,107 -107,281 0,388l-262 263c-253,-252 -253,-662 0,-914 252,-252 661,-252 913,0z"/>
   <path class="fil14" d="M2208 12222c-99,98 -99,257 0,356 98,98 257,98 356,0 98,-99 98,-258 0,-356 -99,-99 -258,-99 -356,0z"/>
   <path class="fil2 str0" d="M2208 12222c-99,98 -99,257 0,356 98,98 257,98 356,0 98,-99 98,-258 0,-356 -99,-99 -258,-99 -356,0z"/>
   <path class="fil15" d="M3701 10996c472,0 855,191 855,428l0 1839 -1711 0 0 -1839c0,-237 383,-428 856,-428z"/>
   <path class="fil2 str0" d="M3701 10996c472,0 855,191 855,428l0 1839 -1711 0 0 -1839c0,-237 383,-428 856,-428z"/>
   <path class="fil14" d="M3135 10691c0,312 253,566 566,566 312,0 566,-254 566,-566 0,-313 -254,-566 -566,-566 -313,0 -566,253 -566,566z"/>
   <path class="fil2 str0" d="M3135 10691c0,312 253,566 566,566 312,0 566,-254 566,-566 0,-313 -254,-566 -566,-566 -313,0 -566,253 -566,566z"/>
   <path class="fil15" d="M3701 10596c44,0 80,36 80,80l0 160c0,44 -36,80 -80,80 -44,0 -80,-36 -80,-80l0 -160c0,-44 36,-80 80,-80z"/>
   <path class="fil2 str1" d="M3701 10596c44,0 80,36 80,80"/>
   <line class="fil2 str1" x1="3781" y1="10676" x2="3781" y2= "10836" />
   <path class="fil2 str1" d="M3781 10836c0,44 -36,80 -80,80 -44,0 -80,-36 -80,-80"/>
   <path class="fil2 str1" d="M3543 10955c0,87 71,157 158,157 87,0 157,-70 157,-157"/>
   <path class="fil16" d="M3952 10596c0,27 22,49 48,49 27,0 49,-22 49,-49 0,-26 -22,-48 -49,-48 -26,0 -48,22 -48,48z"/>
   <path class="fil16" d="M3410 10596c0,27 21,49 48,49 26,0 48,-22 48,-49 0,-26 -22,-48 -48,-48 -27,0 -48,22 -48,48z"/>
   <path class="fil2 str1" d="M3843 10839c0,87 71,158 157,158"/>
   <path class="fil2 str1" d="M3427 10997c87,0 158,-71 158,-158"/>
   <line class="fil2 str1" x1="3904" y1="10435" x2="3543" y2= "10435" />
   <line class="fil2 str1" x1="3904" y1="10314" x2="3543" y2= "10314" />
   <polygon class="fil17 str0" points="3816,13791 4365,13791 4365,13263 3816,13263 "/>
   <polygon class="fil14 str0" points="3816,14418 4174,14418 4174,13791 3816,13791 "/>
   <polygon class="fil9" points="4218,14418 4533,14734 3816,14734 3816,14418 "/>
   <polygon class="fil2 str0" points="4218,14418 4533,14734 3816,14734 3816,14418 "/>
   <polygon class="fil17 str0" points="3023,13791 3571,13791 3571,13263 3023,13263 "/>
   <polygon class="fil14 str0" points="3023,14418 3381,14418 3381,13791 3023,13791 "/>
   <polygon class="fil9" points="3424,14418 3739,14734 3023,14734 3023,14418 "/>
   <polygon class="fil2 str0" points="3424,14418 3739,14734 3023,14734 3023,14418 "/>
   <polygon class="fil14" points="3701,11706 3357,11706 3357,11502 3135,11407 3267,11055 3701,11706 3992,11706 3992,11514 4267,11491 4134,11055 3701,11706 3701,13263 "/>
   <polygon class="fil2 str0" points="3701,11706 3357,11706 3357,11502 3135,11407 3267,11055 3701,11706 3992,11706 3992,11514 4267,11491 4134,11055 3701,11706 3701,13263 "/>
   <polygon class="fil14" points="3338,12104 3107,12104 "/>
   <polygon class="fil2 str0" points="3338,12104 3107,12104 "/>
   <polygon class="fil15" points="5003,14176 4579,14600 5543,14600 5543,14354 5543,14176 5543,13448 5003,13448 "/>
   <polygon class="fil2 str0" points="5003,14176 4579,14600 5543,14600 5543,14354 5543,14176 5543,13448 5003,13448 "/>
   <polygon class="fil9" points="4916,14600 5543,14600 5003,14176 4732,14447 "/>
   <polygon class="fil2 str0" points="4916,14600 5543,14600 5003,14176 4732,14447 "/>
   <polygon class="fil9 str0" points="5543,14720 4579,14720 4579,14600 5543,14600 "/>
   <polygon class="fil15" points="6170,14176 5747,14600 6710,14600 6710,14354 6710,14176 6710,13448 6170,13448 "/>
   <polygon class="fil2 str0" points="6170,14176 5747,14600 6710,14600 6710,14354 6710,14176 6710,13448 6170,13448 "/>
   <polygon class="fil9" points="6084,14600 6710,14600 6170,14176 5899,14447 "/>
   <polygon class="fil2 str0" points="6084,14600 6710,14600 6170,14176 5899,14447 "/>
   <polygon class="fil9 str0" points="6710,14720 5747,14720 5747,14600 6710,14600 "/>
   <path class="fil16" d="M6923 10569c0,618 -501,1118 -1118,1118 -617,0 -1118,-500 -1118,-1118 0,-617 501,-1118 1118,-1118 617,0 1118,501 1118,1118z"/>
   <path class="fil2 str4" d="M6923 10569c0,618 -501,1118 -1118,1118 -617,0 -1118,-500 -1118,-1118 0,-617 501,-1118 1118,-1118 617,0 1118,501 1118,1118z"/>
   <path class="fil18" d="M5760 10259c154,0 280,-125 280,-280 0,-155 -126,-280 -280,-280 -155,0 -281,125 -281,280 0,155 126,280 281,280z"/>
   <path class="fil2 str0" d="M5760 10259c154,0 280,-125 280,-280 0,-155 -126,-280 -280,-280 -155,0 -281,125 -281,280 0,155 126,280 281,280z"/>
   <path class="fil15" d="M6285 11014c0,-138 112,-249 249,-249 138,0 250,111 250,249 0,204 165,369 369,369 204,0 369,-165 369,-369l499 0c0,480 -389,868 -868,868 -480,0 -868,-388 -868,-868z"/>
   <path class="fil2 str0" d="M6285 11014c0,-138 112,-249 249,-249 138,0 250,111 250,249 0,204 165,369 369,369 204,0 369,-165 369,-369l499 0c0,480 -389,868 -868,868 -480,0 -868,-388 -868,-868z"/>
   <path class="fil3" d="M6805 12305l0 -1291c0,-276 -448,-500 -1000,-500 -552,0 -1000,224 -1000,500l0 1291c-396,301 -652,778 -652,1314l3304 0c0,-536 -256,-1013 -652,-1314z"/>
   <path class="fil2 str0" d="M6805 12305l0 -1291c0,-276 -448,-500 -1000,-500 -552,0 -1000,224 -1000,500l0 1291c-396,301 -652,778 -652,1314l3304 0c0,-536 -256,-1013 -652,-1314z"/>
   <path class="fil15" d="M6522 10855c0,171 -321,310 -717,310 -396,0 -717,-139 -717,-310 0,-170 321,-309 717,-309 396,0 717,139 717,309z"/>
   <path class="fil2 str0" d="M6522 10855c0,171 -321,310 -717,310 -396,0 -717,-139 -717,-310 0,-170 321,-309 717,-309 396,0 717,139 717,309z"/>
   <path class="fil15" d="M6466 10157c0,365 -296,662 -661,662 -365,0 -662,-297 -662,-662 0,-365 297,-661 662,-661 365,0 661,296 661,661z"/>
   <path class="fil2 str0" d="M6466 10157c0,365 -296,662 -661,662 -365,0 -662,-297 -662,-662 0,-365 297,-661 662,-661 365,0 661,296 661,661z"/>
   <path class="fil2 str1" d="M5805 10100c-52,0 -94,41 -94,93"/>
   <line class="fil2 str1" x1="5711" y1="10193" x2="5711" y2= "10275" />
   <path class="fil2 str1" d="M5711 10275c0,51 42,93 94,93 52,0 93,-42 93,-93"/>
   <path class="fil16" d="M5516 10067c0,29 -23,52 -51,52 -29,0 -52,-23 -52,-52 0,-28 23,-51 52,-51 28,0 51,23 51,51z"/>
   <path class="fil16" d="M6157 10067c0,29 -23,52 -51,52 -29,0 -52,-23 -52,-52 0,-28 23,-51 52,-51 28,0 51,23 51,51z"/>
   <path class="fil16" d="M6163 9628c0,0 -320,215 -977,347 0,0 279,-767 977,-347z"/>
   <path class="fil2 str4" d="M6163 9628c0,0 -320,215 -977,347 0,0 279,-767 977,-347z"/>
   <path class="fil2 str1" d="M5965 10466c0,88 -71,160 -160,160 -89,0 -160,-72 -160,-160"/>
   <path class="fil15" d="M7770 11129c177,0 321,-144 321,-321 0,-177 -144,-321 -321,-321 -177,0 -321,144 -321,321 0,177 144,321 321,321z"/>
   <path class="fil2 str0" d="M7770 11129c177,0 321,-144 321,-321 0,-177 -144,-321 -321,-321 -177,0 -321,144 -321,321 0,177 144,321 321,321z"/>
   <polygon class="fil16 str4" points="6805,12120 4805,12120 4805,12305 6805,12305 "/>
   <path class="fil19" d="M8539 10308c0,-136 110,-246 245,-246 136,0 246,110 246,246 0,200 162,363 363,363 201,0 363,-163 363,-363l492 0c0,472 -383,854 -855,854 -472,0 -854,-382 -854,-854z"/>
   <path class="fil2 str0" d="M8539 10308c0,-136 110,-246 245,-246 136,0 246,110 246,246 0,200 162,363 363,363 201,0 363,-163 363,-363l492 0c0,472 -383,854 -855,854 -472,0 -854,-382 -854,-854z"/>
   <path class="fil19" d="M10001 10410c168,0 304,-136 304,-304 0,-168 -136,-304 -304,-304 -168,0 -305,136 -305,304 0,168 137,304 305,304z"/>
   <path class="fil2 str0" d="M10001 10410c168,0 304,-136 304,-304 0,-168 -136,-304 -304,-304 -168,0 -305,136 -305,304 0,168 137,304 305,304z"/>
   <path class="fil15" d="M7921 9755c625,0 1132,254 1132,566l0 2433 -2263 0 0 -2433c0,-312 506,-566 1131,-566z"/>
   <path class="fil2 str0" d="M7921 9755c625,0 1132,254 1132,566l0 2433 -2263 0 0 -2433c0,-312 506,-566 1131,-566z"/>
   <path class="fil19" d="M7173 9352c0,413 335,748 748,748 414,0 749,-335 749,-748 0,-414 -335,-749 -749,-749 -413,0 -748,335 -748,749z"/>
   <path class="fil2 str0" d="M7173 9352c0,413 335,748 748,748 414,0 749,-335 749,-748 0,-414 -335,-749 -749,-749 -413,0 -748,335 -748,749z"/>
   <path class="fil15" d="M7921 9227c59,0 106,47 106,106l0 211c0,58 -47,106 -106,106 -58,0 -105,-48 -105,-106l0 -211c0,-59 47,-106 105,-106z"/>
   <path class="fil2 str1" d="M7921 9227c59,0 106,47 106,106"/>
   <line class="fil2 str1" x1="8027" y1="9333" x2="8027" y2= "9544" />
   <path class="fil2 str1" d="M8027 9544c0,58 -47,106 -106,106 -58,0 -105,-48 -105,-106"/>
   <path class="fil16" d="M8204 9286c0,28 22,51 50,51 28,0 51,-23 51,-51 0,-28 -23,-50 -51,-50 -28,0 -50,22 -50,50z"/>
   <path class="fil16" d="M7573 9286c0,28 22,51 50,51 28,0 51,-23 51,-51 0,-28 -23,-50 -51,-50 -28,0 -50,22 -50,50z"/>
   <path class="fil16" d="M8631 9113l-1419 0c100,-296 380,-510 709,-510 330,0 610,214 710,510z"/>
   <path class="fil2 str4" d="M8631 9113l-1419 0c100,-296 380,-510 709,-510 330,0 610,214 710,510z"/>
   <path class="fil14" d="M8013 9833c0,51 -41,92 -92,92 -51,0 -92,-41 -92,-92 0,-51 41,-92 92,-92 51,0 92,41 92,92z"/>
   <path class="fil2 str0" d="M8013 9833c0,51 -41,92 -92,92 -51,0 -92,-41 -92,-92 0,-51 41,-92 92,-92 51,0 92,41 92,92z"/>
   <polygon class="fil9 str0" points="8131,13538 8857,13538 8857,12754 8131,12754 "/>
   <polygon class="fil9 str0" points="6986,13538 7711,13538 7711,12754 6986,12754 "/>
   <polygon class="fil19 str0" points="6986,13538 7499,13538 7499,14282 6986,14282 "/>
   <polygon class="fil19 str0" points="8131,13538 8645,13538 8645,14282 8131,14282 "/>
   <polygon class="fil17" points="8662,14282 9079,14698 8131,14698 8131,14282 "/>
   <polygon class="fil2 str0" points="8662,14282 9079,14698 8131,14698 8131,14282 "/>
   <polygon class="fil17" points="7516,14282 7933,14698 6986,14698 6986,14282 "/>
   <polygon class="fil2 str0" points="7516,14282 7933,14698 6986,14698 6986,14282 "/>
   <polyline class="fil2 str1" points="8494,9833 7921,10768 7348,9833 "/>
   <polygon class="fil15 str0" points="10011,14388 9564,14388 9564,13571 10011,13571 "/>
   <polygon class="fil15 str0" points="11005,14388 10558,14388 10558,13571 11005,13571 "/>
   <polygon class="fil11 str0" points="10011,13793 9391,13793 9391,12976 10011,12976 "/>
   <polygon class="fil11 str0" points="11005,13793 10385,13793 10385,12976 11005,12976 "/>
   <polygon class="fil14" points="9564,14372 9212,14724 10011,14724 10011,14372 "/>
   <polygon class="fil2 str0" points="9564,14372 9212,14724 10011,14724 10011,14372 "/>
   <polygon class="fil14" points="10558,14372 10206,14724 11005,14724 11005,14372 "/>
   <polygon class="fil2 str0" points="10558,14372 10206,14724 11005,14724 11005,14372 "/>
   <path class="fil10" d="M10206 11016c-528,0 -957,266 -957,595l0 1816 1914 0 0 -1816c0,-329 -429,-595 -957,-595z"/>
   <path class="fil2 str0" d="M10206 11016c-528,0 -957,266 -957,595l0 1816 1914 0 0 -1816c0,-329 -429,-595 -957,-595z"/>
   <path class="fil15 str1" d="M10593 11172c0,209 -170,379 -379,379 -210,0 -379,-170 -379,-379 0,-210 169,-379 379,-379 209,0 379,169 379,379z"/>
   <path class="fil15" d="M10839 10675c0,349 -283,632 -633,632 -349,0 -633,-283 -633,-632 0,-350 284,-633 633,-633 350,0 633,283 633,633z"/>
   <path class="fil2 str0" d="M10839 10675c0,349 -283,632 -633,632 -349,0 -633,-283 -633,-632 0,-350 284,-633 633,-633 350,0 633,283 633,633z"/>
   <path class="fil2 str1" d="M10206 10620c-49,0 -89,40 -89,89"/>
   <line class="fil2 str1" x1="10117" y1="10709" x2="10117" y2= "10787" />
   <path class="fil2 str1" d="M10117 10787c0,49 40,89 89,89 49,0 90,-40 90,-89"/>
   <path class="fil16" d="M9930 10589c0,27 -22,49 -49,49 -28,0 -50,-22 -50,-49 0,-28 22,-50 50,-50 27,0 49,22 49,50z"/>
   <path class="fil16" d="M10543 10589c0,27 -22,49 -49,49 -27,0 -50,-22 -50,-49 0,-28 23,-50 50,-50 27,0 49,22 49,50z"/>
   <path class="fil2 str1" d="M10360 10970c0,84 -69,153 -154,153 -85,0 -153,-69 -153,-153"/>
   <path class="fil19" d="M9881 10140c0,0 113,180 345,199l0 -148c0,0 110,136 317,148 207,12 250,100 250,100 0,0 -116,-362 -587,-397 -471,-36 -325,98 -325,98z"/>
   <path class="fil2 str0" d="M9881 10140c0,0 113,180 345,199l0 -148c0,0 110,136 317,148 207,12 250,100 250,100 0,0 -116,-362 -587,-397 -471,-36 -325,98 -325,98z"/>
   <path class="fil10" d="M10944 11307c-138,0 -249,112 -249,249 0,138 111,249 249,249 203,0 368,165 368,368 0,203 -165,368 -368,368l0 498c478,0 866,-388 866,-866 0,-478 -388,-866 -866,-866z"/>
   <path class="fil2 str0" d="M10944 11307c-138,0 -249,112 -249,249 0,138 111,249 249,249 203,0 368,165 368,368 0,203 -165,368 -368,368l0 498c478,0 866,-388 866,-866 0,-478 -388,-866 -866,-866z"/>
   <path class="fil15" d="M10944 12792c0,155 -125,280 -280,280 -154,0 -279,-125 -279,-280 0,-154 125,-279 279,-279 155,0 280,125 280,279z"/>
   <path class="fil2 str0" d="M10944 12792c0,155 -125,280 -280,280 -154,0 -279,-125 -279,-280 0,-154 125,-279 279,-279 155,0 280,125 280,279z"/>
  </g>
 </g>
</svg>
