<?xml version="1.0" encoding="UTF-8"?>
<!DOCTYPE svg PUBLIC "-//W3C//DTD SVG 1.1//EN" "http://www.w3.org/Graphics/SVG/1.1/DTD/svg11.dtd">
<!-- Creator: CorelDRAW X7 -->
<svg xmlns="http://www.w3.org/2000/svg" xml:space="preserve" width="190.5mm" height="153.077mm" version="1.1" style="shape-rendering:geometricPrecision; text-rendering:geometricPrecision; image-rendering:optimizeQuality; fill-rule:evenodd; clip-rule:evenodd"
viewBox="0 0 19050 15308"
 xmlns:xlink="http://www.w3.org/1999/xlink">
 <defs>
  <style type="text/css">
   <![CDATA[
    .fil1 {fill:#2B2A29;fill-rule:nonzero}
    .fil0 {fill:#75D1B0;fill-rule:nonzero}
    .fil2 {fill:white;fill-rule:nonzero}
   ]]>
  </style>
 </defs>
 <g id="Capa_x0020_1">
  <metadata id="CorelCorpID_0Corel-Layer"/>
  <polygon class="fil0" points="0,0 19050,0 19050,15308 0,15308 "/>
  <path class="fil1" d="M1318 2485l88 -40c8,30 24,53 46,69 22,16 51,24 86,24 33,0 59,-9 78,-28 20,-18 29,-42 29,-73 0,-40 -33,-76 -99,-107 -10,-4 -17,-8 -22,-10 -75,-37 -125,-70 -150,-99 -25,-30 -37,-66 -37,-109 0,-56 19,-100 56,-135 38,-34 88,-52 149,-52 50,0 92,10 126,30 33,19 57,47 70,83l-87 45c-13,-22 -28,-37 -44,-47 -17,-10 -36,-15 -57,-15 -29,0 -53,8 -71,23 -17,15 -26,36 -26,62 0,41 39,80 116,115 5,3 10,5 14,6 67,31 113,62 138,91 25,30 38,67 38,111 0,65 -21,116 -61,154 -41,38 -96,57 -165,57 -58,0 -105,-13 -143,-40 -36,-27 -61,-65 -72,-115z"/>
  <path id="1" class="fil1" d="M2296 2416l-353 0c3,41 15,74 37,97 22,23 52,34 88,34 33,0 60,-6 81,-20 22,-14 41,-36 57,-66l85 47c-25,45 -55,78 -92,99 -37,22 -80,33 -129,33 -71,0 -127,-22 -169,-65 -41,-43 -62,-100 -62,-172 0,-70 21,-126 65,-171 43,-44 98,-66 166,-66 71,0 127,20 166,60 40,41 60,98 60,171l0 19zm-105 -68c-4,-31 -16,-55 -36,-72 -20,-17 -48,-25 -83,-25 -33,0 -60,8 -80,24 -20,17 -34,41 -42,73l241 0z"/>
  <polygon id="2" class="fil1" points="2712,2622 2712,2269 2635,2269 2635,2181 2712,2181 2712,2014 2813,2014 2813,2181 2890,2181 2890,2269 2813,2269 2813,2622 "/>
  <path id="3" class="fil1" d="M3078 2251c11,-29 25,-51 43,-65 18,-13 40,-20 67,-20 14,0 28,1 42,5 13,3 27,8 40,14l-36 86c-9,-6 -18,-11 -28,-13 -10,-3 -21,-5 -34,-5 -34,0 -57,13 -72,40 -15,27 -22,72 -22,135l0 194 -101 0 0 -442 101 0 0 71z"/>
  <path id="4" class="fil1" d="M3743 2622l-101 0 0 -57c-18,25 -39,44 -63,56 -24,13 -52,19 -83,19 -62,0 -111,-21 -147,-64 -36,-43 -54,-101 -54,-175 0,-71 19,-127 55,-171 37,-43 85,-64 144,-64 36,0 66,7 92,22 26,15 44,37 56,65l0 -72 101 0 0 441zm-98 -222c0,-46 -11,-81 -32,-107 -21,-25 -51,-38 -89,-38 -38,0 -68,13 -90,39 -22,27 -33,63 -33,110 0,46 11,83 32,108 21,26 51,38 89,38 36,0 66,-13 89,-41 22,-28 34,-64 34,-109z"/>
  <polygon id="5" class="fil1" points="3906,2622 3906,2269 3829,2269 3829,2181 3906,2181 3906,2014 4007,2014 4007,2181 4084,2181 4084,2269 4007,2269 4007,2622 "/>
  <path id="6" class="fil1" d="M4586 2622l-101 0 0 -57c-18,25 -39,44 -63,56 -24,13 -51,19 -83,19 -62,0 -111,-21 -147,-64 -36,-43 -54,-101 -54,-175 0,-71 19,-127 55,-171 37,-43 85,-64 144,-64 36,0 67,7 92,22 26,15 44,37 56,65l0 -72 101 0 0 441zm-98 -222c0,-46 -11,-81 -32,-107 -21,-25 -51,-38 -89,-38 -38,0 -68,13 -90,39 -22,27 -33,63 -33,110 0,46 11,83 32,108 21,26 51,38 89,38 37,0 66,-13 89,-41 23,-28 34,-64 34,-109z"/>
  <path id="7" class="fil1" d="M5330 2400c0,-46 -11,-81 -32,-107 -21,-25 -51,-38 -89,-38 -38,0 -68,13 -90,39 -22,27 -33,63 -33,110 0,46 11,83 32,108 21,26 51,38 89,38 37,0 66,-13 89,-41 22,-27 34,-64 34,-109zm-3 -499l101 0 0 721 -101 0 0 -57c-18,25 -39,44 -63,56 -24,13 -52,19 -83,19 -62,0 -111,-21 -147,-64 -36,-43 -54,-101 -54,-175 0,-71 19,-127 55,-171 37,-43 85,-64 144,-64 36,0 66,7 92,22 26,15 44,37 56,65l0 -352z"/>
  <path id="8" class="fil1" d="M5992 2416l-353 0c3,41 15,74 37,97 22,23 52,34 88,34 33,0 60,-6 82,-20 21,-14 40,-36 56,-66l85 47c-25,45 -55,78 -92,99 -36,22 -79,33 -129,33 -70,0 -127,-22 -169,-65 -41,-43 -62,-100 -62,-172 0,-70 21,-126 65,-171 43,-44 98,-66 166,-66 71,0 127,20 166,60 40,41 60,98 60,171l0 19zm-105 -68c-4,-31 -16,-55 -36,-72 -20,-17 -48,-25 -83,-25 -33,0 -60,8 -80,24 -20,17 -34,41 -42,73l241 0z"/>
  <path id="9" class="fil1" d="M6702 2400c0,-46 -11,-81 -32,-107 -22,-25 -51,-38 -89,-38 -39,0 -69,13 -90,39 -22,27 -33,63 -33,110 0,46 10,83 31,108 21,26 51,38 90,38 36,0 66,-13 88,-41 23,-28 35,-64 35,-109zm98 194c0,87 -18,147 -52,183 -34,35 -93,52 -174,52 -61,0 -110,-12 -146,-38 -36,-26 -54,-60 -55,-103l108 0c2,19 11,34 27,44 16,10 39,15 68,15 43,0 74,-10 93,-29 19,-19 28,-51 29,-95l1 -58c-18,25 -39,44 -63,56 -25,13 -52,19 -83,19 -62,0 -112,-21 -147,-64 -36,-43 -54,-101 -54,-175 0,-71 18,-127 55,-171 37,-43 84,-64 143,-64 36,0 67,7 93,22 25,15 44,37 56,65l0 -72 101 0 0 413z"/>
  <path id="10" class="fil1" d="M7354 2622l-101 0 0 -57c-18,25 -39,44 -63,56 -24,13 -52,19 -83,19 -62,0 -111,-21 -147,-64 -36,-43 -54,-101 -54,-175 0,-71 19,-127 55,-171 37,-43 85,-64 144,-64 36,0 66,7 92,22 26,15 44,37 56,65l0 -72 101 0 0 441zm-98 -222c0,-46 -11,-81 -32,-107 -21,-25 -51,-38 -89,-38 -38,0 -68,13 -90,39 -22,27 -33,63 -33,110 0,46 11,83 32,108 21,26 51,38 89,38 36,0 66,-13 89,-41 22,-28 34,-64 34,-109z"/>
  <path id="11" class="fil1" d="M7594 2251c11,-29 25,-51 43,-65 18,-13 40,-20 67,-20 14,0 28,1 42,5 13,3 27,8 40,14l-36 86c-9,-6 -18,-11 -28,-13 -10,-3 -21,-5 -34,-5 -34,0 -57,13 -72,40 -15,27 -22,72 -22,135l0 194 -101 0 0 -442 101 0 0 71z"/>
  <path id="12" class="fil1" d="M8259 2622l-101 0 0 -57c-18,25 -39,44 -63,56 -24,13 -52,19 -83,19 -62,0 -111,-21 -147,-64 -36,-43 -54,-101 -54,-175 0,-71 19,-127 55,-171 37,-43 85,-64 144,-64 36,0 66,7 92,22 26,15 44,37 56,65l0 -72 101 0 0 441zm-98 -222c0,-46 -11,-81 -32,-107 -21,-25 -51,-38 -89,-38 -38,0 -68,13 -90,39 -22,27 -33,63 -33,110 0,46 11,83 32,108 21,26 51,38 89,38 36,0 66,-13 89,-41 22,-28 34,-64 34,-109z"/>
  <path id="13" class="fil1" d="M8398 2622l0 -441 95 0 0 72c20,-30 44,-53 71,-67 27,-13 61,-20 100,-20 33,0 61,5 84,15 23,11 41,26 54,46 8,12 13,27 17,43 3,16 5,44 5,84l0 268 -102 0 0 -227c0,-58 -7,-96 -21,-115 -14,-19 -39,-29 -75,-29 -24,0 -45,5 -63,13 -19,9 -33,21 -44,37 -7,11 -13,24 -16,41 -3,16 -4,43 -4,79l0 201 -101 0z"/>
  <polygon id="14" class="fil1" points="8982,2622 8982,2269 8905,2269 8905,2181 8982,2181 8982,2014 9083,2014 9083,2181 9160,2181 9160,2269 9083,2269 9083,2622 "/>
  <path id="15" class="fil1" d="M9238 1990c0,-17 7,-31 19,-44 13,-12 28,-19 45,-19 18,0 33,6 45,18 12,12 18,27 18,45 0,18 -6,33 -18,46 -12,12 -27,18 -45,18 -17,0 -32,-6 -45,-19 -12,-12 -19,-27 -19,-45zm14 632l0 -441 100 0 0 441 -100 0z"/>
  <polygon id="16" class="fil1" points="9836,2622 9426,2622 9671,2269 9451,2269 9451,2181 9836,2181 9595,2533 9836,2533 "/>
  <path id="17" class="fil1" d="M10340 2622l-101 0 0 -57c-18,25 -39,44 -63,56 -25,13 -52,19 -83,19 -62,0 -112,-21 -147,-64 -36,-43 -54,-101 -54,-175 0,-71 18,-127 55,-171 37,-43 84,-64 143,-64 36,0 67,7 93,22 25,15 44,37 56,65l0 -72 101 0 0 441zm-99 -222c0,-46 -10,-81 -31,-107 -22,-25 -51,-38 -89,-38 -39,0 -69,13 -90,39 -22,27 -33,63 -33,110 0,46 10,83 31,108 21,26 51,38 90,38 36,0 65,-13 88,-41 23,-28 34,-64 34,-109z"/>
  <path id="18" class="fil1" d="M10580 2251c11,-29 25,-51 43,-65 18,-13 40,-20 66,-20 14,0 28,1 42,5 14,3 28,8 41,14l-36 86c-9,-6 -18,-11 -28,-13 -11,-3 -22,-5 -34,-5 -34,0 -58,13 -72,40 -15,27 -22,72 -22,135l0 194 -101 0 0 -442 101 0 0 71z"/>
  <path id="19" class="fil1" d="M11542 2416l-353 0c3,41 15,74 37,97 22,23 51,34 88,34 33,0 60,-6 81,-20 22,-14 41,-36 57,-66l85 47c-25,45 -56,78 -92,99 -37,22 -80,33 -129,33 -71,0 -127,-22 -169,-65 -42,-43 -63,-100 -63,-172 0,-70 22,-126 65,-171 44,-44 99,-66 167,-66 71,0 126,20 166,60 40,41 60,98 60,171l0 19zm-105 -68c-4,-31 -16,-55 -36,-72 -20,-17 -48,-25 -83,-25 -33,0 -60,8 -80,24 -20,17 -34,41 -42,73l241 0z"/>
  <polygon id="20" class="fil1" points="11651,2622 11651,1901 11752,1901 11752,2622 "/>
  <path id="21" class="fil1" d="M12541 2232l-173 0 143 -291 129 0 -99 291zm-240 0l-174 0 144 -291 128 0 -98 291z"/>
  <path id="22" class="fil1" d="M13071 2386c0,-36 -9,-65 -29,-86 -19,-22 -46,-33 -80,-33 -34,0 -60,11 -80,32 -19,21 -29,51 -29,87 0,37 10,66 30,87 19,21 46,32 79,32 34,0 61,-11 80,-32 20,-21 29,-50 29,-87zm146 -234l0 470 -152 0 0 -76c-22,32 -46,56 -73,71 -27,15 -59,23 -96,23 -63,0 -113,-23 -150,-69 -38,-45 -56,-107 -56,-184 0,-76 19,-137 58,-182 40,-46 92,-68 159,-68 35,0 66,8 91,23 26,15 48,38 66,69l0 -77 153 0z"/>
  <path id="23" class="fil1" d="M13679 2306c-16,-14 -31,-24 -46,-31 -15,-6 -31,-9 -47,-9 -33,0 -59,10 -79,32 -19,22 -29,51 -29,88 0,36 11,65 31,87 20,21 47,32 81,32 17,0 33,-4 47,-10 15,-7 29,-17 42,-31l0 143c-19,11 -39,20 -59,25 -20,5 -40,8 -62,8 -72,0 -130,-23 -175,-70 -45,-46 -67,-107 -67,-183 0,-73 22,-133 68,-180 46,-47 105,-70 176,-70 24,0 46,2 65,7 19,5 37,12 54,22l0 140z"/>
  <path id="24" class="fil1" d="M14118 2306c-16,-14 -31,-24 -46,-31 -15,-6 -31,-9 -47,-9 -33,0 -59,10 -78,32 -20,22 -29,51 -29,88 0,36 10,65 30,87 20,21 47,32 81,32 17,0 33,-4 47,-10 15,-7 29,-17 42,-31l0 143c-19,11 -39,20 -59,25 -20,5 -40,8 -61,8 -73,0 -131,-23 -176,-70 -45,-46 -67,-107 -67,-183 0,-73 22,-133 68,-180 46,-47 105,-70 176,-70 24,0 46,2 65,7 19,5 38,12 54,22l0 140z"/>
  <path id="25" class="fil1" d="M14544 2326c-3,-26 -13,-48 -30,-64 -18,-16 -39,-24 -64,-24 -27,0 -48,7 -64,22 -16,15 -27,37 -32,66l190 0zm163 94l-357 0c0,36 10,64 28,84 18,19 44,29 78,29 25,0 46,-5 63,-14 17,-9 31,-23 40,-42l124 50c-15,36 -41,64 -79,83 -38,20 -84,30 -139,30 -82,0 -148,-23 -197,-68 -49,-46 -74,-106 -74,-180 0,-73 25,-134 74,-183 49,-48 112,-72 188,-72 77,0 139,24 184,73 45,49 67,117 67,202l0 8z"/>
  <path id="26" class="fil1" d="M14758 2583l35 -127c24,21 51,37 80,49 29,11 58,17 87,17 21,0 37,-4 48,-10 11,-7 16,-17 16,-29 0,-21 -22,-37 -66,-47 -14,-3 -25,-6 -34,-9 -50,-13 -86,-31 -108,-54 -23,-22 -34,-50 -34,-86 0,-45 17,-82 52,-109 34,-27 80,-41 139,-41 30,0 61,3 92,10 31,7 63,18 95,33l-34 114c-22,-15 -44,-26 -67,-34 -23,-8 -45,-12 -68,-12 -19,0 -33,3 -43,9 -10,6 -14,15 -14,26 0,17 21,31 65,42 10,3 17,5 22,6 58,17 97,36 120,58 22,22 34,52 34,90 0,48 -19,87 -56,116 -37,30 -85,45 -146,45 -41,0 -80,-5 -115,-14 -35,-10 -69,-24 -100,-43z"/>
  <path id="27" class="fil1" d="M15596 2388c0,-35 -8,-62 -26,-83 -18,-20 -42,-30 -72,-30 -30,0 -54,10 -72,30 -17,21 -26,48 -26,83 0,35 9,63 26,83 18,20 42,30 72,30 31,0 55,-10 72,-30 18,-20 26,-48 26,-83zm165 0c0,34 -6,66 -20,96 -13,31 -32,58 -57,82 -25,24 -54,43 -85,55 -32,13 -65,19 -101,19 -36,0 -69,-6 -101,-19 -31,-12 -59,-31 -84,-55 -25,-23 -44,-50 -57,-81 -13,-30 -20,-63 -20,-97 0,-34 7,-67 20,-97 13,-30 32,-58 57,-82 24,-24 52,-42 84,-54 31,-12 65,-18 101,-18 37,0 71,6 102,18 31,12 59,30 84,54 25,25 45,52 58,82 13,31 19,63 19,97z"/>
  <path id="28" class="fil1" d="M1336 3148c0,-25 9,-46 27,-64 17,-17 39,-26 64,-26 26,0 48,8 65,26 18,17 27,38 27,64 0,26 -9,48 -27,66 -18,18 -39,27 -65,27 -25,0 -46,-10 -64,-28 -18,-18 -27,-40 -27,-65zm8 616l0 -469 166 0 0 469 -166 0z"/>
  <path id="29" class="fil1" d="M1637 3764l0 -469 152 0 0 95c22,-38 47,-66 76,-84 29,-17 63,-26 103,-26 31,0 58,5 81,14 24,10 43,24 58,42 13,16 22,36 27,58 5,23 8,57 8,102l0 268 -166 0 0 -251c0,-38 -6,-65 -18,-82 -13,-17 -32,-26 -59,-26 -35,0 -60,13 -76,38 -15,26 -23,67 -23,124l0 197 -163 0z"/>
  <polygon id="30" class="fil1" points="2284,3764 2284,3412 2214,3412 2214,3295 2284,3295 2284,3155 2447,3155 2447,3295 2518,3295 2518,3412 2447,3412 2447,3764 "/>
  <path id="31" class="fil1" d="M2919 3469c-3,-27 -14,-48 -31,-64 -17,-16 -38,-24 -63,-24 -27,0 -49,7 -65,22 -16,14 -26,37 -32,66l191 0zm163 94l-358 0c1,36 10,64 28,83 19,20 45,30 78,30 25,0 47,-5 64,-14 17,-10 30,-24 39,-42l125 50c-15,36 -41,64 -79,83 -38,20 -85,30 -139,30 -82,0 -148,-23 -197,-69 -50,-45 -75,-105 -75,-179 0,-74 25,-134 74,-183 50,-48 112,-72 188,-72 78,0 139,24 184,73 45,49 68,116 68,202l0 8z"/>
  <path id="32" class="fil1" d="M3535 3528c0,-36 -10,-64 -29,-85 -20,-21 -46,-31 -80,-31 -35,0 -62,10 -82,31 -19,21 -29,49 -29,85 0,36 10,65 29,85 20,21 47,31 82,31 33,0 60,-10 80,-31 19,-20 29,-49 29,-85zm146 -233l0 469c0,71 -22,123 -65,157 -43,34 -110,51 -201,51 -73,0 -131,-14 -172,-41 -42,-27 -64,-65 -66,-115l171 0c3,14 11,26 25,34 13,8 32,13 54,13 36,0 61,-9 74,-26 13,-17 20,-54 20,-109l0 -43c-17,30 -39,52 -66,66 -27,15 -59,22 -96,22 -63,0 -112,-22 -150,-67 -37,-45 -56,-105 -56,-180 0,-75 20,-135 59,-180 39,-44 92,-66 158,-66 35,0 65,7 91,22 26,14 48,37 66,68l0 -75 154 0z"/>
  <path id="33" class="fil1" d="M3807 3764l0 -469 156 0 0 111c16,-41 38,-71 66,-91 28,-20 62,-31 101,-31 7,0 14,1 20,1 7,0 14,1 20,2l-16 151c-10,-4 -20,-6 -29,-8 -10,-1 -19,-2 -28,-2 -40,0 -71,13 -93,37 -22,25 -33,60 -33,105l0 194 -164 0z"/>
  <path id="34" class="fil1" d="M4589 3529c0,-36 -10,-65 -29,-87 -20,-21 -46,-32 -80,-32 -34,0 -60,11 -80,32 -19,21 -29,50 -29,87 0,37 10,66 29,87 20,21 46,31 80,31 34,0 60,-10 80,-31 19,-21 29,-50 29,-87zm146 -234l0 469 -152 0 0 -76c-22,33 -46,57 -74,72 -27,15 -59,23 -95,23 -63,0 -113,-23 -150,-69 -38,-46 -57,-107 -57,-184 0,-77 20,-138 59,-183 39,-45 92,-67 159,-67 35,0 65,7 91,22 26,15 47,39 66,70l0 -77 153 0z"/>
  <polygon id="35" class="fil1" points="4865,3764 4865,3043 5030,3043 5030,3764 "/>
  <path id="36" class="fil1" d="M5208 3083l173 0 -144 292 -128 0 99 -292zm240 0l174 0 -144 292 -128 0 98 -292z"/>
  <path id="37" class="fil1" d="M5730 3395c0,-16 6,-31 18,-43 11,-11 26,-17 43,-17 17,0 31,6 43,17 12,12 18,26 18,43 0,17 -6,31 -18,43 -12,12 -26,18 -43,18 -17,0 -32,-6 -44,-18 -12,-12 -17,-26 -17,-43zm0 318c0,-17 6,-31 18,-43 11,-12 26,-18 43,-18 17,0 31,6 43,18 12,12 18,26 18,43 0,17 -6,31 -18,43 -12,11 -26,17 -43,17 -17,0 -32,-6 -44,-17 -12,-12 -17,-26 -17,-43z"/>
  <path id="38" class="fil1" d="M6622 3543c0,-46 -11,-82 -32,-107 -21,-26 -51,-38 -89,-38 -38,0 -68,13 -90,39 -22,26 -33,63 -33,109 0,47 11,83 32,109 21,25 51,38 89,38 37,0 67,-14 89,-41 23,-27 34,-64 34,-109zm98 429l-101 0 0 -265c-18,26 -39,45 -63,57 -24,12 -51,19 -82,19 -63,0 -112,-22 -148,-64 -36,-43 -53,-101 -53,-176 0,-70 18,-127 54,-170 37,-43 85,-65 144,-65 36,0 67,8 92,23 26,15 44,36 56,64l0 -72 101 0 0 649z"/>
  <path id="39" class="fil1" d="M6957 3323l0 249c0,43 9,74 27,92 18,19 46,28 86,28 39,0 68,-9 86,-28 17,-18 26,-49 26,-92l0 -249 101 0 0 219c0,84 -17,145 -51,183 -33,38 -87,58 -161,58 -76,0 -130,-19 -164,-57 -34,-38 -51,-99 -51,-184l0 -219 101 0z"/>
  <path id="40" class="fil1" d="M7844 3559l-352 0c2,41 14,73 36,96 22,24 52,35 88,35 33,0 60,-7 82,-20 21,-14 40,-36 56,-67l85 48c-25,44 -55,77 -92,99 -36,22 -79,33 -129,33 -70,0 -127,-22 -168,-65 -42,-43 -63,-101 -63,-173 0,-69 21,-126 65,-170 43,-45 98,-67 166,-67 71,0 127,21 166,61 40,41 60,98 60,171l0 19zm-105 -68c-4,-32 -16,-56 -36,-72 -20,-17 -48,-25 -83,-25 -33,0 -60,8 -80,24 -20,16 -34,41 -42,73l241 0z"/>
  <polygon id="41" class="fil1" points="8241,3764 8241,3043 8342,3043 8342,3764 "/>
  <path id="42" class="fil1" d="M8901 3764l-101 0 0 -57c-17,26 -39,45 -63,57 -24,12 -51,19 -82,19 -62,0 -112,-22 -147,-64 -36,-43 -54,-101 -54,-176 0,-70 18,-127 55,-170 36,-43 84,-65 143,-65 36,0 67,8 92,23 26,15 45,36 56,64l0 -72 101 0 0 441zm-98 -221c0,-46 -10,-82 -32,-107 -21,-26 -51,-38 -89,-38 -38,0 -68,13 -90,39 -22,26 -33,63 -33,109 0,47 11,83 32,109 21,25 51,38 89,38 37,0 66,-14 89,-41 23,-28 34,-64 34,-109z"/>
  <polygon id="43" class="fil1" points="9352,3764 9352,3412 9275,3412 9275,3323 9352,3323 9352,3157 9453,3157 9453,3323 9530,3323 9530,3412 9453,3412 9453,3764 "/>
  <path id="44" class="fil1" d="M9608 3133c0,-17 7,-32 19,-44 13,-13 28,-19 45,-19 18,0 33,6 45,18 12,12 18,27 18,45 0,18 -6,33 -18,45 -12,13 -27,19 -45,19 -17,0 -32,-7 -45,-19 -12,-13 -19,-28 -19,-45zm14 631l0 -441 101 0 0 441 -101 0z"/>
  <path id="45" class="fil1" d="M10291 3559l-352 0c2,41 15,73 37,96 22,24 51,35 88,35 32,0 59,-7 81,-20 22,-14 41,-36 57,-67l85 48c-25,44 -56,77 -93,99 -36,22 -79,33 -128,33 -71,0 -127,-22 -169,-65 -42,-43 -63,-101 -63,-173 0,-69 22,-126 65,-170 43,-45 99,-67 167,-67 71,0 126,21 166,61 39,41 59,98 59,171l0 19zm-104 -68c-4,-32 -17,-56 -37,-72 -20,-17 -47,-25 -82,-25 -34,0 -60,8 -80,24 -20,16 -35,41 -43,73l242 0z"/>
  <path id="46" class="fil1" d="M10497 3394c11,-29 25,-51 43,-65 18,-14 40,-21 67,-21 14,0 28,2 42,5 14,4 27,9 41,15l-37 86c-8,-6 -18,-11 -28,-14 -10,-3 -21,-4 -34,-4 -33,0 -57,13 -72,40 -14,27 -22,72 -22,135l0 193 -101 0 0 -442 101 0 0 72z"/>
  <path id="47" class="fil1" d="M10848 3394c11,-29 25,-51 43,-65 18,-14 40,-21 66,-21 15,0 29,2 42,5 14,4 28,9 41,15l-36 86c-9,-6 -18,-11 -28,-14 -10,-3 -22,-4 -34,-4 -34,0 -58,13 -72,40 -15,27 -22,72 -22,135l0 193 -101 0 0 -442 101 0 0 72z"/>
  <path id="48" class="fil1" d="M11513 3764l-101 0 0 -57c-18,26 -39,45 -63,57 -24,12 -52,19 -83,19 -62,0 -111,-22 -147,-64 -36,-43 -54,-101 -54,-176 0,-70 18,-127 55,-170 37,-43 85,-65 143,-65 37,0 67,8 93,23 25,15 44,36 56,64l0 -72 101 0 0 441zm-98 -221c0,-46 -11,-82 -32,-107 -21,-26 -51,-38 -89,-38 -38,0 -68,13 -90,39 -22,26 -33,63 -33,109 0,47 10,83 32,109 21,25 50,38 89,38 36,0 66,-14 88,-41 23,-28 35,-64 35,-109z"/>
  <path id="49" class="fil1" d="M12364 3559l-352 0c2,41 15,73 37,96 22,24 51,35 88,35 32,0 59,-7 81,-20 22,-14 41,-36 57,-67l85 48c-25,44 -56,77 -93,99 -36,22 -79,33 -128,33 -71,0 -127,-22 -169,-65 -42,-43 -63,-101 -63,-173 0,-69 22,-126 65,-170 43,-45 99,-67 167,-67 71,0 126,21 166,61 39,41 59,98 59,171l0 19zm-105 -68c-3,-32 -16,-56 -36,-72 -20,-17 -47,-25 -82,-25 -34,0 -60,8 -80,24 -20,16 -35,41 -43,73l241 0z"/>
  <path id="50" class="fil1" d="M12419 3684l84 -45c6,22 17,39 34,50 17,12 38,17 64,17 23,0 41,-5 54,-15 13,-11 19,-25 19,-43 0,-24 -23,-44 -69,-61 -15,-6 -27,-11 -35,-14 -48,-20 -81,-40 -99,-60 -19,-20 -28,-44 -28,-73 0,-40 15,-71 46,-96 31,-25 71,-37 122,-37 34,0 64,7 88,19 24,13 42,30 53,54l-71 49c-6,-14 -15,-25 -28,-33 -13,-8 -29,-13 -46,-13 -19,0 -34,5 -46,14 -12,9 -17,22 -17,37 0,23 26,44 77,62 17,6 30,11 39,15 40,16 69,34 87,55 17,20 26,45 26,76 0,44 -16,78 -48,103 -32,25 -76,38 -132,38 -43,0 -79,-9 -107,-25 -29,-16 -51,-40 -67,-74z"/>
  <polygon id="51" class="fil1" points="12899,3764 12899,3412 12821,3412 12821,3323 12899,3323 12899,3157 13000,3157 13000,3323 13077,3323 13077,3412 13000,3412 13000,3764 "/>
  <path id="52" class="fil1" d="M13588 3559l-352 0c3,41 15,73 37,96 22,24 51,35 88,35 32,0 59,-7 81,-20 22,-14 41,-36 57,-67l85 48c-25,44 -56,77 -92,99 -37,22 -80,33 -129,33 -71,0 -127,-22 -169,-65 -42,-43 -63,-101 -63,-173 0,-69 22,-126 65,-170 43,-45 99,-67 167,-67 71,0 126,21 166,61 40,41 59,98 59,171l0 19zm-104 -68c-4,-32 -16,-56 -37,-72 -20,-17 -47,-25 -82,-25 -33,0 -60,8 -80,24 -20,16 -34,41 -43,73l242 0zm-187 -234l89 -127 104 0 -136 127 -57 0z"/>
  <path id="53" class="fil1" d="M1764 4907l-101 0 0 -57c-18,25 -39,44 -63,57 -25,12 -52,18 -83,18 -62,0 -112,-21 -147,-64 -36,-42 -54,-101 -54,-175 0,-70 18,-127 55,-170 36,-44 84,-65 143,-65 36,0 67,7 93,22 25,15 44,37 56,65l0 -72 101 0 0 441zm-99 -222c0,-45 -10,-81 -31,-106 -22,-26 -51,-39 -90,-39 -38,0 -68,14 -90,40 -21,26 -32,62 -32,109 0,47 10,83 31,108 21,26 51,39 90,39 36,0 65,-14 88,-42 23,-27 34,-64 34,-109z"/>
  <path id="54" class="fil1" d="M2232 4592c-15,-17 -33,-30 -54,-39 -21,-9 -43,-14 -67,-14 -41,0 -74,14 -99,40 -25,27 -37,62 -37,107 0,45 13,81 37,108 25,26 60,39 104,39 24,0 46,-5 66,-14 19,-9 36,-23 50,-41l0 116c-18,10 -38,18 -60,23 -21,6 -43,8 -67,8 -69,0 -126,-22 -169,-66 -44,-44 -66,-101 -66,-171 0,-71 23,-128 68,-172 45,-43 104,-65 177,-65 23,0 44,2 63,7 19,4 38,11 54,20l0 114z"/>
  <path id="55" class="fil1" d="M2682 4688c0,-41 -13,-76 -40,-104 -26,-29 -58,-43 -96,-43 -38,0 -70,14 -97,43 -26,28 -39,63 -39,104 0,41 13,76 39,104 27,29 59,43 97,43 38,0 70,-14 96,-43 27,-28 40,-63 40,-104zm-379 -1c0,-32 6,-63 18,-91 12,-29 30,-54 53,-77 23,-22 49,-39 78,-51 30,-11 61,-17 93,-17 33,0 64,6 94,17 29,12 55,30 78,53 24,22 41,48 54,76 12,29 18,59 18,90 0,33 -6,63 -18,92 -12,28 -30,54 -53,76 -24,23 -51,40 -80,52 -30,12 -61,18 -93,18 -32,0 -63,-6 -92,-18 -30,-12 -56,-29 -79,-51 -23,-23 -41,-49 -53,-78 -12,-28 -18,-59 -18,-91z"/>
  <path id="56" class="fil1" d="M2996 4907l-101 0 0 -441 95 0 0 73c20,-31 43,-54 69,-68 25,-14 55,-21 90,-21 35,0 63,7 86,22 22,14 40,36 51,66 24,-31 48,-53 75,-67 26,-14 56,-21 89,-21 29,0 55,5 76,16 22,11 39,26 51,47 6,9 10,21 12,34 3,14 4,33 4,57l0 36 0 267 -101 0 0 -226c0,-59 -6,-99 -19,-117 -12,-19 -34,-28 -67,-28 -39,0 -68,12 -84,38 -17,25 -26,69 -26,132l0 201 -102 0 0 -226c0,-55 -6,-93 -19,-114 -14,-21 -37,-31 -69,-31 -20,0 -38,4 -54,13 -17,9 -30,22 -39,37 -6,11 -11,23 -13,38 -3,15 -4,42 -4,82l0 201z"/>
  <path id="57" class="fil1" d="M3826 4685c0,46 12,82 34,110 23,27 53,41 91,41 38,0 67,-13 88,-39 21,-25 32,-61 32,-108 0,-47 -11,-83 -33,-109 -22,-26 -52,-40 -90,-40 -38,0 -68,13 -90,39 -21,25 -32,61 -32,106zm-97 430l0 -649 101 0 0 72c11,-28 30,-49 56,-64 26,-16 57,-23 93,-23 58,0 106,21 143,65 36,43 54,100 54,170 0,74 -18,133 -54,175 -35,43 -85,64 -147,64 -31,0 -58,-6 -82,-18 -24,-13 -46,-32 -63,-57l0 265 -101 0z"/>
  <path id="58" class="fil1" d="M4698 4907l-101 0 0 -57c-18,25 -39,44 -63,57 -24,12 -51,18 -82,18 -63,0 -112,-21 -148,-64 -36,-42 -53,-101 -53,-175 0,-70 18,-127 54,-170 37,-44 85,-65 144,-65 36,0 67,7 92,22 26,15 45,37 56,65l0 -72 101 0 0 441zm-98 -222c0,-45 -11,-81 -32,-106 -21,-26 -51,-39 -89,-39 -38,0 -68,14 -90,40 -22,26 -33,62 -33,109 0,47 11,83 32,108 21,26 51,39 89,39 37,0 66,-14 89,-42 23,-27 34,-64 34,-109z"/>
  <path id="59" class="fil1" d="M4837 4907l0 -441 95 0 0 73c20,-31 44,-53 71,-67 28,-14 61,-21 100,-21 33,0 61,5 84,15 23,11 41,26 54,47 8,12 13,26 17,42 3,16 5,44 5,85l0 267 -102 0 0 -226c0,-58 -7,-97 -21,-116 -14,-19 -39,-28 -75,-28 -24,0 -45,4 -63,13 -19,8 -33,21 -44,36 -7,11 -12,24 -15,41 -3,17 -5,43 -5,79l0 201 -101 0zm355 -624c-6,31 -17,55 -33,72 -16,17 -35,25 -58,25 -4,0 -8,0 -12,0 -4,-1 -8,-2 -13,-2l-57 -15c-5,-1 -9,-2 -12,-2 -2,0 -4,-1 -6,-1 -11,0 -19,3 -26,8 -6,5 -11,13 -14,24l-42 0c7,-33 18,-57 32,-73 15,-16 33,-24 56,-24 5,0 10,0 14,1 5,0 10,1 14,2l55 15c2,0 5,1 8,1 3,1 8,1 14,1 9,0 17,-3 24,-9 6,-5 11,-13 14,-23l42 0z"/>
  <path id="60" class="fil1" d="M5812 4907l-100 0 0 -57c-18,25 -40,44 -64,57 -24,12 -51,18 -82,18 -62,0 -112,-21 -147,-64 -36,-42 -54,-101 -54,-175 0,-70 18,-127 55,-170 36,-44 84,-65 143,-65 36,0 67,7 92,22 26,15 45,37 57,65l0 -72 100 0 0 441zm-98 -222c0,-45 -10,-81 -32,-106 -21,-26 -50,-39 -89,-39 -38,0 -68,14 -90,40 -22,26 -32,62 -32,109 0,47 10,83 31,108 21,26 51,39 90,39 36,0 65,-14 88,-42 23,-27 34,-64 34,-109z"/>
  <path id="61" class="fil1" d="M6269 4685c0,-45 -11,-81 -32,-106 -21,-26 -51,-39 -89,-39 -38,0 -68,14 -90,40 -22,26 -33,62 -33,109 0,47 10,83 31,108 22,26 51,39 90,39 36,0 66,-14 89,-42 22,-27 34,-63 34,-109zm-3 -499l101 0 0 721 -101 0 0 -57c-18,25 -39,44 -63,57 -24,12 -52,18 -83,18 -62,0 -111,-21 -147,-64 -36,-42 -54,-101 -54,-175 0,-70 18,-127 55,-170 37,-44 85,-65 143,-65 36,0 67,7 93,22 25,15 44,37 56,65l0 -352z"/>
  <path id="62" class="fil1" d="M6921 4907l-101 0 0 -57c-18,25 -39,44 -63,57 -24,12 -51,18 -82,18 -63,0 -112,-21 -148,-64 -36,-42 -53,-101 -53,-175 0,-70 18,-127 54,-170 37,-44 85,-65 144,-65 36,0 67,7 92,22 26,15 44,37 56,65l0 -72 101 0 0 441zm-98 -222c0,-45 -11,-81 -32,-106 -21,-26 -51,-39 -89,-39 -38,0 -68,14 -90,40 -22,26 -33,62 -33,109 0,47 11,83 32,108 21,26 51,39 89,39 37,0 66,-14 89,-42 23,-27 34,-64 34,-109z"/>
  <path id="63" class="fil1" d="M7665 4685c0,-45 -11,-81 -32,-106 -21,-26 -51,-39 -89,-39 -38,0 -68,14 -90,40 -22,26 -33,62 -33,109 0,47 11,83 32,108 21,26 51,39 89,39 37,0 66,-14 89,-42 23,-27 34,-63 34,-109zm-3 -499l101 0 0 721 -101 0 0 -57c-18,25 -39,44 -63,57 -24,12 -52,18 -83,18 -62,0 -111,-21 -147,-64 -36,-42 -54,-101 -54,-175 0,-70 19,-127 55,-170 37,-44 85,-65 144,-65 36,0 67,7 92,22 26,15 44,37 56,65l0 -352z"/>
  <path id="64" class="fil1" d="M8327 4701l-352 0c2,42 14,74 36,97 22,23 52,35 88,35 33,0 60,-7 82,-21 21,-13 40,-35 56,-66l85 48c-25,44 -55,77 -92,99 -36,21 -79,32 -129,32 -70,0 -127,-21 -169,-64 -41,-44 -62,-101 -62,-173 0,-69 21,-126 65,-170 43,-45 98,-67 166,-67 71,0 127,20 166,61 40,40 60,97 60,170l0 19zm-105 -67c-4,-32 -16,-56 -36,-72 -20,-17 -48,-25 -83,-25 -33,0 -60,8 -80,24 -20,16 -34,40 -42,73l241 0z"/>
  <path id="65" class="fil1" d="M8820 4537c11,-30 26,-51 43,-65 18,-14 40,-21 67,-21 14,0 28,2 42,5 14,3 27,8 41,15l-37 86c-8,-7 -18,-11 -28,-14 -10,-3 -21,-4 -34,-4 -33,0 -57,13 -72,40 -14,26 -22,72 -22,135l0 193 -101 0 0 -442 101 0 0 72z"/>
  <path id="66" class="fil1" d="M9061 4276c0,-17 7,-32 19,-45 13,-12 28,-18 45,-18 18,0 33,6 45,18 12,12 18,27 18,45 0,18 -6,33 -18,45 -12,12 -27,18 -45,18 -17,0 -32,-6 -45,-18 -12,-13 -19,-28 -19,-45zm14 631l0 -441 101 0 0 441 -101 0z"/>
  <path id="67" class="fil1" d="M9745 4701l-353 0c3,42 15,74 37,97 22,23 51,35 88,35 32,0 60,-7 81,-21 22,-13 41,-35 57,-66l85 48c-25,44 -56,77 -92,99 -37,21 -80,32 -129,32 -71,0 -127,-21 -169,-64 -42,-44 -63,-101 -63,-173 0,-69 22,-126 65,-170 44,-45 99,-67 167,-67 71,0 126,20 166,61 40,40 60,97 60,170l0 19zm-105 -67c-4,-32 -16,-56 -36,-72 -21,-17 -48,-25 -83,-25 -33,0 -60,8 -80,24 -20,16 -34,40 -42,73l241 0z"/>
  <path id="68" class="fil1" d="M10167 4685c0,-45 -11,-81 -32,-106 -21,-26 -51,-39 -89,-39 -39,0 -69,14 -90,40 -22,26 -33,62 -33,109 0,47 10,83 31,108 22,26 51,39 90,39 36,0 66,-14 88,-42 23,-27 35,-64 35,-109zm98 195c0,86 -17,147 -52,182 -34,35 -92,53 -174,53 -61,0 -109,-13 -145,-39 -37,-25 -55,-59 -56,-102l109 -1c1,19 10,34 26,44 16,10 39,15 68,15 43,0 74,-10 93,-29 19,-18 29,-50 29,-94l1 -59c-18,25 -39,44 -63,57 -24,12 -52,18 -83,18 -62,0 -111,-21 -147,-64 -36,-42 -54,-101 -54,-175 0,-70 18,-127 55,-170 37,-44 85,-65 143,-65 36,0 67,7 93,22 25,15 44,37 56,65l0 -72 101 0 0 414z"/>
  <path id="69" class="fil1" d="M10751 4688c0,-41 -14,-76 -40,-104 -26,-29 -59,-43 -97,-43 -37,0 -70,14 -96,43 -27,28 -40,63 -40,104 0,41 13,76 40,104 26,29 59,43 96,43 38,0 70,-14 97,-43 26,-28 40,-63 40,-104zm-379 -1c0,-32 6,-63 18,-91 12,-29 30,-54 53,-77 22,-22 48,-39 78,-51 29,-11 60,-17 92,-17 34,0 65,6 94,17 29,12 56,30 79,53 23,22 41,48 53,76 12,29 18,59 18,90 0,33 -6,63 -18,92 -12,28 -29,54 -52,76 -24,23 -51,40 -81,52 -29,12 -60,18 -93,18 -31,0 -62,-6 -92,-18 -29,-12 -55,-29 -78,-51 -24,-23 -41,-49 -53,-78 -12,-28 -18,-59 -18,-91z"/>
  <polygon id="70" class="fil1" points="11038,4792 11129,4825 11008,5075 10948,5051 "/>
  <path id="71" class="fil1" d="M11868 4592c-15,-17 -33,-30 -54,-39 -20,-9 -43,-14 -67,-14 -41,0 -74,14 -99,40 -24,27 -37,62 -37,107 0,45 13,81 38,108 25,26 59,39 103,39 25,0 47,-5 66,-14 19,-9 36,-23 50,-41l0 116c-18,10 -38,18 -59,23 -22,6 -44,8 -68,8 -69,0 -126,-22 -169,-66 -44,-44 -66,-101 -66,-171 0,-71 23,-128 68,-172 45,-43 104,-65 177,-65 23,0 44,2 63,7 20,4 38,11 54,20l0 114z"/>
  <path id="72" class="fil1" d="M12072 4537c11,-30 26,-51 43,-65 18,-14 40,-21 67,-21 14,0 28,2 42,5 14,3 27,8 41,15l-37 86c-8,-7 -18,-11 -28,-14 -10,-3 -21,-4 -34,-4 -33,0 -57,13 -72,40 -14,26 -22,72 -22,135l0 193 -101 0 0 -442 101 0 0 72z"/>
  <path id="73" class="fil1" d="M12747 4701l-353 0c3,42 15,74 37,97 22,23 52,35 88,35 33,0 60,-7 82,-21 21,-13 40,-35 56,-66l85 48c-25,44 -55,77 -92,99 -36,21 -79,32 -129,32 -71,0 -127,-21 -169,-64 -41,-44 -62,-101 -62,-173 0,-69 21,-126 65,-170 43,-45 98,-67 166,-67 71,0 127,20 166,61 40,40 60,97 60,170l0 19zm-105 -67c-4,-32 -16,-56 -36,-72 -20,-17 -48,-25 -83,-25 -33,0 -60,8 -80,24 -20,16 -34,40 -42,73l241 0zm-187 -235l89 -126 105 0 -136 126 -58 0z"/>
  <path id="74" class="fil1" d="M13169 4685c0,-45 -11,-81 -32,-106 -21,-26 -51,-39 -89,-39 -38,0 -68,14 -90,40 -22,26 -33,62 -33,109 0,47 11,83 32,108 21,26 51,39 89,39 37,0 66,-14 89,-42 23,-27 34,-63 34,-109zm-3 -499l101 0 0 721 -101 0 0 -57c-18,25 -39,44 -63,57 -24,12 -51,18 -83,18 -62,0 -111,-21 -147,-64 -36,-42 -54,-101 -54,-175 0,-70 19,-127 55,-170 37,-44 85,-65 144,-65 36,0 67,7 92,22 26,15 44,37 56,65l0 -352z"/>
  <path id="75" class="fil1" d="M13398 4276c0,-17 6,-32 18,-45 13,-12 28,-18 45,-18 18,0 33,6 45,18 12,12 18,27 18,45 0,18 -6,33 -18,45 -12,12 -27,18 -45,18 -17,0 -32,-6 -45,-18 -12,-13 -18,-28 -18,-45zm13 631l0 -441 101 0 0 441 -101 0z"/>
  <polygon id="76" class="fil1" points="13680,4907 13680,4555 13603,4555 13603,4466 13680,4466 13680,4299 13781,4299 13781,4466 13858,4466 13858,4555 13781,4555 13781,4907 "/>
  <path id="77" class="fil1" d="M14291 4688c0,-41 -13,-76 -39,-104 -27,-29 -59,-43 -97,-43 -38,0 -70,14 -96,43 -27,28 -40,63 -40,104 0,41 13,76 40,104 26,29 58,43 96,43 38,0 70,-14 97,-43 26,-28 39,-63 39,-104zm-379 -1c0,-32 6,-63 19,-91 12,-29 30,-54 52,-77 23,-22 49,-39 79,-51 29,-11 60,-17 92,-17 33,0 65,6 94,17 29,12 56,30 79,53 23,22 41,48 53,76 12,29 18,59 18,90 0,33 -6,63 -18,92 -12,28 -29,54 -52,76 -24,23 -51,40 -81,52 -29,12 -60,18 -93,18 -32,0 -62,-6 -92,-18 -29,-12 -56,-29 -79,-51 -23,-23 -40,-49 -53,-78 -12,-28 -18,-59 -18,-91z"/>
  <polygon id="78" class="fil1" points="14579,4792 14669,4825 14548,5075 14488,5051 "/>
  <path id="79" class="fil1" d="M1764 6049l-101 0 0 -57c-18,25 -39,44 -63,56 -25,13 -52,19 -83,19 -62,0 -112,-21 -147,-64 -36,-43 -54,-101 -54,-175 0,-70 18,-127 55,-170 36,-44 84,-65 143,-65 36,0 67,7 93,22 25,15 44,37 56,65l0 -72 101 0 0 441zm-99 -222c0,-46 -10,-81 -31,-107 -22,-25 -51,-38 -90,-38 -38,0 -68,13 -90,40 -21,26 -32,62 -32,109 0,47 10,83 31,108 21,26 51,38 90,38 36,0 65,-13 88,-41 23,-28 34,-64 34,-109z"/>
  <path id="80" class="fil1" d="M1852 5969l84 -46c6,22 18,39 34,50 17,12 39,18 65,18 23,0 40,-5 53,-16 13,-10 19,-24 19,-43 0,-23 -22,-44 -68,-61 -16,-6 -28,-10 -36,-14 -47,-19 -80,-39 -99,-59 -19,-20 -28,-45 -28,-74 0,-39 15,-71 46,-96 31,-24 72,-36 123,-36 34,0 63,6 87,19 25,12 42,30 54,53l-72 50c-5,-14 -15,-26 -28,-34 -13,-8 -28,-12 -45,-12 -20,0 -35,4 -47,14 -11,9 -17,21 -17,36 0,23 26,44 78,63 16,6 29,11 38,14 41,17 70,35 87,55 18,20 26,46 26,76 0,44 -16,79 -47,103 -32,25 -76,38 -133,38 -43,0 -78,-8 -107,-24 -28,-16 -51,-41 -67,-74z"/>
  <path id="81" class="fil1" d="M2300 5417c0,-17 6,-31 19,-44 12,-12 27,-19 44,-19 18,0 34,7 45,18 12,12 18,27 18,45 0,18 -6,34 -18,46 -12,12 -27,18 -45,18 -17,0 -32,-6 -44,-19 -13,-12 -19,-27 -19,-45zm13 632l0 -441 101 0 0 441 -101 0z"/>
  <path id="82" class="fil1" d="M2507 5969l84 -46c6,22 18,39 35,50 16,12 38,18 64,18 23,0 41,-5 54,-16 12,-10 19,-24 19,-43 0,-23 -23,-44 -69,-61 -15,-6 -27,-10 -36,-14 -47,-19 -80,-39 -99,-59 -18,-20 -28,-45 -28,-74 0,-39 16,-71 46,-96 31,-24 72,-36 123,-36 34,0 63,6 88,19 24,12 42,30 53,53l-72 50c-5,-14 -14,-26 -27,-34 -14,-8 -29,-12 -46,-12 -19,0 -35,4 -46,14 -12,9 -18,21 -18,36 0,23 26,44 78,63 17,6 29,11 38,14 41,17 70,35 88,55 17,20 26,46 26,76 0,44 -16,79 -48,103 -32,25 -76,38 -132,38 -43,0 -79,-8 -108,-24 -28,-16 -50,-41 -67,-74z"/>
  <polygon id="83" class="fil1" points="2987,6049 2987,5696 2910,5696 2910,5608 2987,5608 2987,5441 3088,5441 3088,5608 3165,5608 3165,5696 3088,5696 3088,6049 "/>
  <path id="84" class="fil1" d="M3677 5843l-352 0c2,41 14,74 37,97 21,23 51,35 87,35 33,0 60,-7 82,-21 22,-14 40,-36 57,-66l84 47c-24,45 -55,78 -92,99 -36,22 -79,33 -128,33 -71,0 -127,-22 -169,-65 -42,-43 -63,-100 -63,-172 0,-69 22,-126 65,-171 43,-44 99,-66 167,-66 71,0 126,20 166,61 39,40 59,97 59,170l0 19zm-105 -68c-4,-31 -16,-55 -36,-72 -20,-16 -48,-25 -83,-25 -33,0 -59,8 -80,24 -20,17 -34,41 -42,73l241 0z"/>
  <path id="85" class="fil1" d="M3782 6049l0 -441 95 0 0 72c20,-30 44,-52 71,-66 27,-14 61,-21 100,-21 33,0 61,5 84,15 23,11 41,26 54,47 8,12 13,26 17,42 3,16 5,44 5,85l0 267 -102 0 0 -227c0,-57 -7,-96 -21,-115 -14,-19 -39,-29 -75,-29 -24,0 -45,5 -63,13 -19,9 -33,21 -44,37 -7,11 -13,24 -16,41 -3,16 -4,43 -4,79l0 201 -101 0z"/>
  <path id="86" class="fil1" d="M4672 5734c-16,-17 -34,-30 -55,-39 -20,-9 -42,-14 -66,-14 -42,0 -75,14 -99,40 -25,27 -38,62 -38,106 0,46 13,82 38,108 25,27 59,40 103,40 25,0 47,-5 66,-14 19,-9 36,-23 51,-42l0 117c-19,10 -39,18 -60,23 -21,5 -44,8 -68,8 -69,0 -125,-22 -169,-66 -44,-44 -65,-101 -65,-171 0,-71 22,-128 67,-172 45,-44 104,-65 177,-65 23,0 44,2 64,6 19,5 37,12 54,21l0 114z"/>
  <path id="87" class="fil1" d="M4766 5417c0,-17 6,-31 19,-44 12,-12 27,-19 45,-19 18,0 33,7 45,18 12,12 18,27 18,45 0,18 -6,34 -18,46 -13,12 -28,18 -45,18 -18,0 -33,-6 -45,-19 -13,-12 -19,-27 -19,-45zm13 632l0 -441 101 0 0 441 -101 0z"/>
  <path id="88" class="fil1" d="M5440 6049l-101 0 0 -57c-18,25 -39,44 -63,56 -25,13 -52,19 -83,19 -62,0 -112,-21 -147,-64 -36,-43 -54,-101 -54,-175 0,-70 18,-127 55,-170 37,-44 84,-65 143,-65 36,0 67,7 93,22 25,15 44,37 56,65l0 -72 101 0 0 441zm-99 -222c0,-46 -10,-81 -31,-107 -22,-25 -51,-38 -89,-38 -39,0 -69,13 -91,40 -21,26 -32,62 -32,109 0,47 10,83 31,108 21,26 51,38 90,38 36,0 65,-13 88,-41 23,-28 34,-64 34,-109z"/>
  <polygon id="89" class="fil1" points="5890,6049 5890,5696 5813,5696 5813,5608 5890,5608 5890,5441 5991,5441 5991,5608 6068,5608 6068,5696 5991,5696 5991,6049 "/>
  <path id="90" class="fil1" d="M6580 5843l-353 0c3,41 15,74 37,97 22,23 51,35 88,35 33,0 60,-7 81,-21 22,-14 41,-36 57,-66l85 47c-25,45 -55,78 -92,99 -37,22 -80,33 -129,33 -71,0 -127,-22 -169,-65 -42,-43 -62,-100 -62,-172 0,-69 21,-126 64,-171 44,-44 99,-66 167,-66 71,0 127,20 166,61 40,40 60,97 60,170l0 19zm-105 -68c-4,-31 -16,-55 -36,-72 -20,-16 -48,-25 -83,-25 -33,0 -60,8 -80,24 -20,17 -34,41 -42,73l241 0zm-187 -234l89 -127 105 0 -136 127 -58 0z"/>
  <path id="91" class="fil1" d="M7014 5734c-15,-17 -33,-30 -54,-39 -21,-9 -43,-14 -67,-14 -41,0 -74,14 -99,40 -25,27 -37,62 -37,106 0,46 13,82 38,108 24,27 59,40 103,40 24,0 46,-5 66,-14 19,-9 36,-23 50,-42l0 117c-18,10 -38,18 -60,23 -21,5 -43,8 -67,8 -69,0 -126,-22 -169,-66 -44,-44 -66,-101 -66,-171 0,-71 23,-128 68,-172 45,-44 104,-65 177,-65 23,0 44,2 63,6 19,5 38,12 54,21l0 114z"/>
  <path id="92" class="fil1" d="M7117 6049l0 -441 95 0 0 72c20,-30 44,-52 71,-66 28,-14 61,-21 100,-21 33,0 61,5 84,15 23,11 41,26 54,47 8,12 13,26 17,42 3,16 5,44 5,85l0 267 -102 0 0 -227c0,-57 -7,-96 -21,-115 -14,-19 -39,-29 -75,-29 -24,0 -45,5 -63,13 -19,9 -33,21 -44,37 -7,11 -12,24 -15,41 -3,16 -5,43 -5,79l0 201 -101 0z"/>
  <path id="93" class="fil1" d="M7669 5417c0,-17 6,-31 18,-44 13,-12 28,-19 45,-19 18,0 33,7 45,18 12,12 18,27 18,45 0,18 -6,34 -18,46 -12,12 -27,18 -45,18 -17,0 -32,-6 -45,-19 -12,-12 -18,-27 -18,-45zm13 632l0 -441 101 0 0 441 -101 0z"/>
  <path id="94" class="fil1" d="M8256 5734c-15,-17 -33,-30 -54,-39 -20,-9 -43,-14 -67,-14 -41,0 -74,14 -99,40 -24,27 -37,62 -37,106 0,46 13,82 38,108 25,27 59,40 103,40 25,0 47,-5 66,-14 19,-9 36,-23 50,-42l0 117c-18,10 -38,18 -59,23 -22,5 -44,8 -68,8 -69,0 -126,-22 -169,-66 -44,-44 -66,-101 -66,-171 0,-71 23,-128 68,-172 45,-44 104,-65 177,-65 23,0 44,2 63,6 20,5 38,12 54,21l0 114z"/>
  <path id="95" class="fil1" d="M8775 6049l-101 0 0 -57c-18,25 -39,44 -63,56 -24,13 -52,19 -83,19 -62,0 -111,-21 -147,-64 -36,-43 -54,-101 -54,-175 0,-70 18,-127 55,-170 37,-44 84,-65 143,-65 36,0 67,7 93,22 25,15 44,37 56,65l0 -72 101 0 0 441zm-98 -222c0,-46 -11,-81 -32,-107 -22,-25 -51,-38 -89,-38 -39,0 -69,13 -90,40 -22,26 -33,62 -33,109 0,47 10,83 31,108 22,26 51,38 90,38 36,0 66,-13 88,-41 23,-28 35,-64 35,-109z"/>
  <polygon id="96" class="fil1" points="8988,5934 9079,5967 8958,6216 8898,6193 "/>
  <path id="97" class="fil1" d="M9565 6257l-104 0 121 -246 -162 -403 112 0 81 228c5,14 9,28 12,43 4,14 7,29 9,44 4,-16 13,-40 29,-74l2 -6 109 -235 109 0 -318 649z"/>
  <path id="98" class="fil1" d="M10640 6049l-101 0 0 -57c-17,25 -39,44 -63,56 -24,13 -51,19 -82,19 -63,0 -112,-21 -147,-64 -36,-43 -54,-101 -54,-175 0,-70 18,-127 55,-170 36,-44 84,-65 143,-65 36,0 67,7 92,22 26,15 45,37 56,65l0 -72 101 0 0 441zm-98 -222c0,-46 -10,-81 -32,-107 -21,-25 -51,-38 -89,-38 -38,0 -68,13 -90,40 -22,26 -33,62 -33,109 0,47 11,83 32,108 21,26 51,38 89,38 37,0 66,-13 89,-41 23,-28 34,-64 34,-109z"/>
  <path id="99" class="fil1" d="M10877 5827c0,46 12,82 34,109 23,28 53,41 90,41 39,0 68,-12 89,-38 21,-25 31,-61 31,-108 0,-47 -11,-83 -32,-109 -22,-27 -52,-40 -90,-40 -39,0 -68,13 -90,38 -21,26 -32,61 -32,107zm-98 430l0 -649 101 0 0 72c12,-28 31,-49 57,-65 26,-15 57,-22 93,-22 58,0 106,21 143,65 36,43 54,100 54,170 0,74 -18,132 -54,175 -35,43 -85,64 -147,64 -31,0 -58,-6 -83,-19 -24,-12 -45,-31 -63,-56l0 265 -101 0z"/>
  <path id="100" class="fil1" d="M11681 5830c0,-41 -14,-76 -40,-104 -26,-29 -59,-43 -97,-43 -37,0 -70,14 -96,43 -27,28 -40,63 -40,104 0,41 13,76 40,104 26,28 59,42 96,42 38,0 70,-14 97,-42 26,-28 40,-63 40,-104zm-380 -1c0,-32 7,-63 19,-91 12,-29 30,-55 53,-77 22,-22 48,-39 78,-51 29,-12 60,-17 92,-17 34,0 65,5 94,17 29,12 56,29 79,52 23,23 41,49 53,77 12,29 18,59 18,90 0,32 -6,63 -18,91 -12,29 -29,54 -52,76 -24,23 -51,41 -81,53 -29,12 -60,18 -93,18 -32,0 -62,-6 -92,-18 -29,-12 -55,-29 -78,-52 -24,-23 -41,-48 -53,-77 -13,-28 -19,-59 -19,-91z"/>
  <path id="101" class="fil1" d="M11970 6257l-104 0 121 -246 -162 -403 112 0 81 228c4,14 9,28 12,43 4,14 6,29 9,44 4,-16 13,-40 29,-74l2 -6 109 -235 109 0 -318 649z"/>
  <path id="102" class="fil1" d="M12689 5830c0,-41 -13,-76 -39,-104 -27,-29 -59,-43 -97,-43 -38,0 -70,14 -96,43 -27,28 -40,63 -40,104 0,41 13,76 40,104 26,28 58,42 96,42 38,0 70,-14 97,-42 26,-28 39,-63 39,-104zm-379 -1c0,-32 6,-63 19,-91 12,-29 29,-55 52,-77 23,-22 49,-39 79,-51 29,-12 60,-17 92,-17 33,0 65,5 94,17 29,12 55,29 79,52 23,23 41,49 53,77 12,29 18,59 18,90 0,32 -6,63 -18,91 -12,29 -29,54 -52,76 -25,23 -51,41 -81,53 -29,12 -60,18 -93,18 -32,0 -63,-6 -92,-18 -30,-12 -56,-29 -79,-52 -23,-23 -41,-48 -53,-77 -12,-28 -18,-59 -18,-91z"/>
  <path id="103" class="fil1" d="M13288 5827c0,46 11,82 34,109 23,28 53,41 90,41 38,0 68,-12 88,-38 21,-25 32,-61 32,-108 0,-47 -11,-83 -33,-109 -22,-27 -52,-40 -90,-40 -38,0 -68,13 -89,38 -22,26 -32,61 -32,107zm-98 430l0 -649 101 0 0 72c12,-28 31,-49 56,-65 26,-15 57,-22 93,-22 59,0 107,21 143,65 36,43 55,100 55,170 0,74 -18,132 -54,175 -36,43 -85,64 -147,64 -31,0 -59,-6 -83,-19 -24,-12 -45,-31 -63,-56l0 265 -101 0z"/>
  <path id="104" class="fil1" d="M14160 6049l-101 0 0 -57c-18,25 -39,44 -63,56 -25,13 -52,19 -83,19 -62,0 -112,-21 -147,-64 -36,-43 -54,-101 -54,-175 0,-70 18,-127 55,-170 37,-44 84,-65 143,-65 36,0 67,7 93,22 25,15 44,37 56,65l0 -72 101 0 0 441zm-99 -222c0,-46 -10,-81 -31,-107 -22,-25 -51,-38 -89,-38 -39,0 -69,13 -90,40 -22,26 -33,62 -33,109 0,47 10,83 31,108 21,26 51,38 90,38 36,0 65,-13 88,-41 23,-28 34,-64 34,-109z"/>
  <path id="105" class="fil1" d="M14400 5678c11,-29 25,-50 43,-64 18,-14 40,-21 66,-21 14,0 28,1 42,5 14,3 28,8 41,14l-36 86c-9,-6 -18,-10 -28,-13 -11,-3 -22,-5 -34,-5 -34,0 -58,14 -72,40 -15,27 -22,72 -22,135l0 194 -101 0 0 -442 101 0 0 71z"/>
  <path id="106" class="fil1" d="M15065 6049l-101 0 0 -57c-18,25 -39,44 -63,56 -24,13 -52,19 -83,19 -62,0 -112,-21 -147,-64 -36,-43 -54,-101 -54,-175 0,-70 18,-127 55,-170 37,-44 84,-65 143,-65 36,0 67,7 93,22 25,15 44,37 56,65l0 -72 101 0 0 441zm-98 -222c0,-46 -11,-81 -32,-107 -22,-25 -51,-38 -89,-38 -39,0 -69,13 -90,40 -22,26 -33,62 -33,109 0,47 10,83 31,108 21,26 51,38 90,38 36,0 66,-13 88,-41 23,-28 35,-64 35,-109z"/>
  <polygon id="107" class="fil1" points="15496,6049 15496,5328 15597,5328 15597,6049 "/>
  <path id="108" class="fil1" d="M16156 6049l-101 0 0 -57c-18,25 -39,44 -63,56 -24,13 -51,19 -82,19 -63,0 -112,-21 -148,-64 -36,-43 -53,-101 -53,-175 0,-70 18,-127 54,-170 37,-44 85,-65 144,-65 36,0 67,7 92,22 26,15 44,37 56,65l0 -72 101 0 0 441zm-98 -222c0,-46 -11,-81 -32,-107 -21,-25 -51,-38 -89,-38 -38,0 -68,13 -90,40 -22,26 -33,62 -33,109 0,47 11,83 32,108 21,26 51,38 89,38 37,0 66,-13 89,-41 23,-28 34,-64 34,-109z"/>
  <path id="109" class="fil1" d="M1678 6875c-16,-17 -34,-30 -54,-39 -21,-9 -43,-13 -67,-13 -41,0 -74,13 -99,40 -25,27 -37,62 -37,106 0,46 12,82 37,108 25,26 59,39 104,39 24,0 46,-4 65,-13 19,-10 36,-23 51,-42l0 116c-19,11 -39,19 -60,24 -21,5 -44,8 -68,8 -69,0 -125,-22 -169,-66 -43,-44 -65,-101 -65,-171 0,-71 22,-129 68,-172 45,-44 104,-66 177,-66 23,0 44,3 63,7 19,5 37,12 54,21l0 113z"/>
  <path id="110" class="fil1" d="M2128 6972c0,-41 -14,-76 -40,-105 -26,-28 -59,-42 -97,-42 -37,0 -70,14 -96,42 -27,29 -40,64 -40,105 0,40 13,75 40,104 26,28 59,42 96,42 38,0 70,-14 97,-42 26,-29 40,-64 40,-104zm-380 -1c0,-33 7,-63 19,-92 12,-28 30,-54 53,-76 22,-22 48,-39 78,-51 29,-12 60,-18 92,-18 34,0 65,6 94,18 29,12 56,29 79,52 23,23 41,48 53,77 12,28 18,58 18,90 0,32 -6,63 -18,91 -12,29 -29,54 -52,76 -24,23 -51,41 -81,53 -29,12 -60,18 -93,18 -32,0 -62,-6 -92,-18 -29,-12 -55,-29 -78,-52 -24,-23 -41,-49 -53,-77 -12,-29 -19,-59 -19,-91z"/>
  <path id="111" class="fil1" d="M2442 7191l-101 0 0 -441 95 0 0 72c20,-31 43,-53 68,-68 26,-14 56,-21 91,-21 34,0 63,8 85,22 23,14 40,36 52,66 23,-30 48,-53 74,-67 26,-14 56,-21 90,-21 29,0 54,6 76,16 22,11 39,27 51,47 5,10 9,21 12,35 3,13 4,32 4,57l0 35 0 268 -101 0 0 -227c0,-59 -6,-98 -19,-117 -12,-19 -35,-28 -67,-28 -40,0 -68,13 -85,38 -17,25 -25,70 -25,133l0 201 -102 0 0 -227c0,-54 -7,-92 -20,-113 -13,-21 -36,-32 -68,-32 -20,0 -38,5 -54,14 -17,9 -30,21 -40,37 -6,10 -10,23 -13,37 -2,15 -3,43 -3,83l0 201z"/>
  <path id="112" class="fil1" d="M3599 6985l-352 0c2,41 14,73 36,97 22,23 52,34 88,34 33,0 60,-7 82,-20 21,-14 40,-36 56,-66l85 47c-25,45 -55,77 -92,99 -36,22 -79,33 -129,33 -70,0 -127,-22 -168,-65 -42,-43 -63,-101 -63,-172 0,-70 21,-126 65,-171 43,-44 98,-67 166,-67 71,0 127,21 166,61 40,41 60,98 60,171l0 19zm-105 -68c-4,-31 -16,-56 -36,-72 -20,-17 -48,-25 -83,-25 -33,0 -60,8 -80,24 -20,16 -34,41 -42,73l241 0z"/>
  <path id="113" class="fil1" d="M3805 6820c11,-29 25,-51 43,-65 18,-14 40,-21 66,-21 15,0 29,2 43,5 13,4 27,9 40,15l-36 86c-9,-6 -18,-11 -28,-14 -10,-3 -22,-4 -34,-4 -34,0 -58,13 -72,40 -15,27 -22,72 -22,135l0 194 -101 0 0 -442 101 0 0 71z"/>
  <path id="114" class="fil1" d="M4384 6875c-15,-17 -33,-30 -54,-39 -21,-9 -43,-13 -67,-13 -41,0 -74,13 -99,40 -25,27 -37,62 -37,106 0,46 13,82 37,108 25,26 60,39 104,39 24,0 46,-4 66,-13 19,-10 36,-23 50,-42l0 116c-18,11 -38,19 -60,24 -21,5 -43,8 -67,8 -69,0 -126,-22 -169,-66 -44,-44 -66,-101 -66,-171 0,-71 23,-129 68,-172 45,-44 104,-66 177,-66 23,0 44,3 63,7 19,5 38,12 54,21l0 113z"/>
  <path id="115" class="fil1" d="M4479 6559c0,-17 6,-32 19,-44 12,-13 27,-19 44,-19 18,0 33,6 45,18 12,12 18,27 18,45 0,18 -6,33 -18,45 -12,13 -27,19 -45,19 -17,0 -32,-6 -44,-19 -13,-13 -19,-27 -19,-45zm13 632l0 -441 101 0 0 441 -101 0z"/>
  <path id="116" class="fil1" d="M5152 7191l-101 0 0 -57c-18,25 -39,44 -63,56 -24,12 -51,19 -82,19 -63,0 -112,-22 -148,-64 -36,-43 -53,-101 -53,-175 0,-71 18,-128 54,-171 37,-43 85,-65 144,-65 36,0 67,8 92,23 26,15 45,36 56,64l0 -71 101 0 0 441zm-98 -222c0,-46 -11,-81 -32,-107 -21,-25 -51,-38 -89,-38 -38,0 -68,13 -90,39 -22,26 -33,63 -33,109 0,47 11,83 32,109 21,25 51,38 89,38 37,0 66,-14 89,-41 23,-28 34,-64 34,-109z"/>
  <polygon id="117" class="fil1" points="5296,7191 5296,6470 5397,6470 5397,7191 "/>
  <path id="118" class="fil1" d="M5532 6559c0,-17 7,-32 19,-44 13,-13 28,-19 45,-19 18,0 33,6 45,18 12,12 18,27 18,45 0,18 -6,33 -18,45 -12,13 -27,19 -45,19 -17,0 -32,-6 -45,-19 -12,-13 -19,-27 -19,-45zm14 632l0 -441 101 0 0 441 -101 0z"/>
  <polygon id="119" class="fil1" points="6130,7191 5720,7191 5966,6838 5745,6838 5745,6750 6130,6750 5889,7102 6130,7102 "/>
  <path id="120" class="fil1" d="M6634 7191l-101 0 0 -57c-18,25 -39,44 -63,56 -24,12 -52,19 -83,19 -62,0 -111,-22 -147,-64 -36,-43 -54,-101 -54,-175 0,-71 18,-128 55,-171 37,-43 85,-65 143,-65 36,0 67,8 93,23 25,15 44,36 56,64l0 -71 101 0 0 441zm-98 -222c0,-46 -11,-81 -32,-107 -21,-25 -51,-38 -89,-38 -38,0 -68,13 -90,39 -22,26 -33,63 -33,109 0,47 10,83 31,109 22,25 51,38 90,38 36,0 66,-14 88,-41 23,-28 35,-64 35,-109z"/>
  <path id="121" class="fil1" d="M7102 6875c-15,-17 -33,-30 -54,-39 -20,-9 -43,-13 -66,-13 -42,0 -75,13 -100,40 -24,27 -37,62 -37,106 0,46 13,82 38,108 25,26 59,39 103,39 25,0 47,-4 66,-13 19,-10 36,-23 50,-42l0 116c-18,11 -38,19 -59,24 -21,5 -44,8 -68,8 -69,0 -126,-22 -169,-66 -44,-44 -65,-101 -65,-171 0,-71 22,-129 67,-172 45,-44 104,-66 177,-66 23,0 44,3 63,7 20,5 38,12 54,21l0 113z"/>
  <path id="122" class="fil1" d="M7197 6559c0,-17 6,-32 19,-44 12,-13 27,-19 45,-19 18,0 33,6 45,18 12,12 18,27 18,45 0,18 -6,33 -18,45 -13,13 -28,19 -45,19 -18,0 -33,-6 -45,-19 -13,-13 -19,-27 -19,-45zm13 632l0 -441 101 0 0 441 -101 0z"/>
  <path id="123" class="fil1" d="M7802 6972c0,-41 -13,-76 -40,-105 -26,-28 -58,-42 -96,-42 -38,0 -70,14 -97,42 -26,29 -39,64 -39,105 0,40 13,75 39,104 27,28 59,42 97,42 37,0 70,-14 96,-42 27,-29 40,-64 40,-104zm-379 -1c0,-33 6,-63 18,-92 12,-28 30,-54 53,-76 23,-22 49,-39 78,-51 30,-12 61,-18 93,-18 33,0 64,6 94,18 29,12 55,29 78,52 24,23 41,48 54,77 12,28 18,58 18,90 0,32 -6,63 -18,91 -12,29 -30,54 -53,76 -24,23 -51,41 -80,53 -30,12 -61,18 -93,18 -32,0 -63,-6 -92,-18 -30,-12 -56,-29 -79,-52 -23,-23 -41,-49 -53,-77 -12,-29 -18,-59 -18,-91zm177 -288l89 -127 104 0 -136 127 -57 0z"/>
  <path id="124" class="fil1" d="M8015 7191l0 -441 95 0 0 72c20,-31 44,-53 71,-67 27,-14 61,-21 100,-21 33,0 61,6 84,16 23,10 41,26 54,46 8,12 13,26 17,43 3,16 5,44 5,84l0 268 -102 0 0 -227c0,-58 -7,-96 -21,-115 -14,-19 -39,-29 -75,-29 -24,0 -45,4 -63,13 -19,9 -33,21 -44,37 -7,10 -13,24 -15,41 -3,16 -5,42 -5,79l0 201 -101 0z"/>
  <path id="125" class="fil1" d="M9287 6985l-352 0c2,41 15,73 37,97 22,23 51,34 88,34 32,0 59,-7 81,-20 22,-14 41,-36 57,-66l85 47c-25,45 -56,77 -92,99 -37,22 -80,33 -129,33 -71,0 -127,-22 -169,-65 -42,-43 -63,-101 -63,-172 0,-70 22,-126 65,-171 43,-44 99,-67 167,-67 71,0 126,21 166,61 39,41 59,98 59,171l0 19zm-104 -68c-4,-31 -16,-56 -37,-72 -20,-17 -47,-25 -82,-25 -34,0 -60,8 -80,24 -20,16 -34,41 -43,73l242 0z"/>
  <path id="126" class="fil1" d="M9392 7191l0 -441 95 0 0 72c20,-31 44,-53 71,-67 28,-14 61,-21 100,-21 33,0 61,6 84,16 23,10 41,26 54,46 8,12 13,26 17,43 3,16 5,44 5,84l0 268 -102 0 0 -227c0,-58 -7,-96 -21,-115 -14,-19 -39,-29 -75,-29 -24,0 -45,4 -63,13 -19,9 -33,21 -44,37 -7,10 -12,24 -15,41 -3,16 -5,42 -5,79l0 201 -101 0z"/>
  <polygon id="127" class="fil1" points="9976,7191 9976,6838 9899,6838 9899,6750 9976,6750 9976,6583 10077,6583 10077,6750 10154,6750 10154,6838 10077,6838 10077,7191 "/>
  <path id="128" class="fil1" d="M10342 6820c11,-29 25,-51 43,-65 18,-14 40,-21 66,-21 15,0 29,2 43,5 13,4 27,9 40,15l-36 86c-9,-6 -18,-11 -28,-14 -10,-3 -22,-4 -34,-4 -34,0 -58,13 -72,40 -15,27 -22,72 -22,135l0 194 -101 0 0 -442 101 0 0 71z"/>
  <path id="129" class="fil1" d="M11016 6985l-352 0c3,41 15,73 37,97 22,23 51,34 88,34 32,0 59,-7 81,-20 22,-14 41,-36 57,-66l85 47c-25,45 -56,77 -92,99 -37,22 -80,33 -129,33 -71,0 -127,-22 -169,-65 -42,-43 -63,-101 -63,-172 0,-70 22,-126 65,-171 43,-44 99,-67 167,-67 71,0 126,21 166,61 40,41 59,98 59,171l0 19zm-104 -68c-4,-31 -16,-56 -37,-72 -20,-17 -47,-25 -82,-25 -33,0 -60,8 -80,24 -20,16 -34,41 -42,73l241 0z"/>
  <path id="130" class="fil1" d="M11756 6972c0,-41 -14,-76 -40,-105 -26,-28 -59,-42 -97,-42 -37,0 -70,14 -96,42 -27,29 -40,64 -40,105 0,40 13,75 40,104 26,28 59,42 96,42 38,0 70,-14 97,-42 26,-29 40,-64 40,-104zm-379 -1c0,-33 6,-63 18,-92 12,-28 30,-54 53,-76 22,-22 48,-39 78,-51 29,-12 60,-18 92,-18 34,0 65,6 94,18 29,12 56,29 79,52 23,23 41,48 53,77 12,28 18,58 18,90 0,32 -6,63 -18,91 -12,29 -29,54 -52,76 -24,23 -51,41 -81,53 -29,12 -60,18 -93,18 -31,0 -62,-6 -92,-18 -29,-12 -55,-29 -78,-52 -24,-23 -41,-49 -53,-77 -12,-29 -18,-59 -18,-91z"/>
  <polygon id="131" class="fil1" points="11993,7191 11993,6838 11915,6838 11915,6750 11993,6750 11993,6583 12094,6583 12094,6750 12171,6750 12171,6838 12094,6838 12094,7191 "/>
  <path id="132" class="fil1" d="M12359 6820c10,-29 25,-51 43,-65 17,-14 40,-21 66,-21 14,0 28,2 42,5 14,4 28,9 41,15l-36 86c-9,-6 -19,-11 -29,-14 -10,-3 -21,-4 -33,-4 -34,0 -58,13 -73,40 -14,27 -21,72 -21,135l0 194 -101 0 0 -442 101 0 0 71z"/>
  <path id="133" class="fil1" d="M12955 6972c0,-41 -13,-76 -40,-105 -26,-28 -58,-42 -96,-42 -38,0 -70,14 -97,42 -26,29 -39,64 -39,105 0,40 13,75 39,104 27,28 59,42 97,42 38,0 70,-14 96,-42 27,-29 40,-64 40,-104zm-379 -1c0,-33 6,-63 18,-92 13,-28 30,-54 53,-76 23,-22 49,-39 78,-51 30,-12 61,-18 93,-18 33,0 64,6 94,18 29,12 55,29 79,52 23,23 40,48 53,77 12,28 18,58 18,90 0,32 -6,63 -18,91 -12,29 -30,54 -53,76 -24,23 -51,41 -80,53 -30,12 -61,18 -93,18 -32,0 -63,-6 -92,-18 -30,-12 -56,-29 -79,-52 -23,-23 -41,-49 -53,-77 -12,-29 -18,-59 -18,-91z"/>
  <path id="134" class="fil1" d="M13118 7111l83 -46c7,22 18,39 35,50 17,12 38,17 64,17 23,0 41,-5 54,-15 13,-11 19,-25 19,-43 0,-24 -23,-44 -69,-61 -15,-6 -27,-10 -36,-14 -47,-20 -80,-40 -98,-60 -19,-20 -29,-44 -29,-73 0,-39 16,-71 47,-96 31,-24 71,-37 122,-37 34,0 64,7 88,19 24,13 42,31 53,54l-72 49c-5,-14 -14,-25 -27,-33 -13,-8 -29,-12 -46,-12 -19,0 -34,4 -46,13 -12,9 -18,22 -18,37 0,23 26,44 78,63 17,5 30,10 38,14 41,16 70,34 88,55 17,20 26,45 26,76 0,44 -16,78 -48,103 -32,25 -76,38 -132,38 -43,0 -79,-8 -107,-24 -29,-17 -51,-41 -67,-74z"/>
  <path id="135" class="fil1" d="M13587 7139c0,-17 6,-31 18,-44 12,-12 26,-18 43,-18 17,0 31,6 43,18 12,13 18,27 18,44 0,17 -6,31 -18,43 -12,11 -26,17 -43,17 -17,0 -31,-6 -43,-17 -12,-12 -18,-26 -18,-43z"/>
  <polygon id="136" class="fil1" points="14377,6604 14377,7191 14267,7191 14267,6604 14086,6604 14086,6510 14557,6510 14557,6604 "/>
  <path id="137" class="fil1" d="M14953 7191l-101 0 0 -57c-18,25 -39,44 -63,56 -24,12 -52,19 -83,19 -62,0 -111,-22 -147,-64 -36,-43 -54,-101 -54,-175 0,-71 18,-128 55,-171 37,-43 85,-65 143,-65 36,0 67,8 93,23 25,15 44,36 56,64l0 -71 101 0 0 441zm-98 -222c0,-46 -11,-81 -32,-107 -21,-25 -51,-38 -89,-38 -39,0 -69,13 -90,39 -22,26 -33,63 -33,109 0,47 10,83 31,109 22,25 51,38 90,38 36,0 66,-14 88,-41 23,-28 35,-64 35,-109z"/>
  <path id="138" class="fil1" d="M15193 7191l-101 0 0 -441 95 0 0 72c20,-31 43,-53 68,-68 26,-14 56,-21 91,-21 34,0 63,8 85,22 23,14 40,36 52,66 23,-30 48,-53 74,-67 27,-14 56,-21 90,-21 29,0 54,6 76,16 22,11 39,27 51,47 5,10 10,21 12,35 3,13 4,32 4,57l0 35 0 268 -101 0 0 -227c0,-59 -6,-98 -19,-117 -12,-19 -35,-28 -67,-28 -40,0 -68,13 -85,38 -17,25 -25,70 -25,133l0 201 -102 0 0 -227c0,-54 -7,-92 -20,-113 -13,-21 -36,-32 -68,-32 -20,0 -38,5 -54,14 -17,9 -30,21 -39,37 -7,10 -11,23 -13,37 -3,15 -4,43 -4,83l0 201z"/>
  <path id="139" class="fil1" d="M16023 6969c0,45 12,81 35,109 23,27 53,41 89,41 38,0 68,-13 89,-38 21,-26 31,-62 31,-109 0,-46 -11,-83 -33,-109 -21,-26 -51,-39 -90,-39 -38,0 -67,13 -89,38 -21,26 -32,61 -32,107zm3 -499l0 351c12,-27 31,-49 57,-64 26,-15 57,-23 93,-23 58,0 106,22 142,65 37,43 55,100 55,171 0,74 -18,132 -54,175 -36,42 -85,64 -147,64 -31,0 -59,-7 -83,-19 -24,-12 -45,-31 -63,-56l0 57 -101 0 0 -721 101 0z"/>
  <path id="140" class="fil1" d="M16471 6559c0,-17 6,-32 19,-44 13,-13 27,-19 45,-19 18,0 33,6 45,18 12,12 18,27 18,45 0,18 -6,33 -18,45 -13,13 -27,19 -45,19 -18,0 -32,-6 -45,-19 -13,-13 -19,-27 -19,-45zm13 632l0 -441 101 0 0 441 -101 0z"/>
  <path id="141" class="fil1" d="M17154 6985l-352 0c2,41 15,73 37,97 22,23 51,34 88,34 32,0 59,-7 81,-20 22,-14 40,-36 57,-66l84 47c-24,45 -55,77 -92,99 -36,22 -79,33 -128,33 -71,0 -127,-22 -169,-65 -42,-43 -63,-101 -63,-172 0,-70 22,-126 65,-171 43,-44 99,-67 167,-67 71,0 126,21 166,61 39,41 59,98 59,171l0 19zm-105 -68c-4,-31 -16,-56 -36,-72 -20,-17 -48,-25 -82,-25 -34,0 -60,8 -80,24 -20,16 -35,41 -43,73l241 0zm-186 -234l88 -127 105 0 -136 127 -57 0z"/>
  <path id="142" class="fil1" d="M17259 7191l0 -441 95 0 0 72c20,-31 44,-53 71,-67 28,-14 61,-21 100,-21 33,0 61,6 84,16 23,10 41,26 54,46 8,12 13,26 17,43 3,16 5,44 5,84l0 268 -102 0 0 -227c0,-58 -7,-96 -21,-115 -14,-19 -39,-29 -75,-29 -24,0 -45,4 -63,13 -19,9 -33,21 -44,37 -7,10 -13,24 -15,41 -3,16 -5,42 -5,79l0 201 -101 0z"/>
  <path id="143" class="fil1" d="M1695 8113c0,-41 -13,-75 -40,-104 -26,-28 -58,-42 -96,-42 -38,0 -70,14 -97,42 -26,29 -39,63 -39,104 0,41 13,76 39,104 27,29 59,43 97,43 38,0 70,-14 96,-43 27,-28 40,-63 40,-104zm-379 -1c0,-32 6,-62 18,-91 13,-29 30,-54 53,-77 23,-22 49,-38 78,-50 30,-12 61,-18 93,-18 33,0 64,6 94,18 29,12 55,29 79,52 23,22 40,48 53,77 12,28 18,58 18,89 0,33 -6,63 -18,92 -12,28 -30,54 -53,76 -24,23 -51,41 -80,52 -30,12 -61,18 -93,18 -32,0 -63,-6 -92,-18 -30,-11 -56,-29 -79,-51 -23,-23 -41,-49 -53,-78 -12,-28 -18,-58 -18,-91z"/>
  <polygon id="144" class="fil1" points="1932,8332 1932,7980 1855,7980 1855,7891 1932,7891 1932,7725 2033,7725 2033,7891 2110,7891 2110,7980 2033,7980 2033,8332 "/>
  <path id="145" class="fil1" d="M2298 7962c11,-29 25,-51 43,-65 18,-14 40,-21 66,-21 15,0 29,2 43,5 13,3 27,9 40,15l-36 86c-9,-6 -18,-11 -28,-14 -10,-3 -22,-4 -34,-4 -34,0 -58,13 -72,40 -15,27 -22,72 -22,135l0 193 -101 0 0 -442 101 0 0 72z"/>
  <path id="146" class="fil1" d="M2894 8113c0,-41 -13,-75 -39,-104 -27,-28 -59,-42 -97,-42 -38,0 -70,14 -96,42 -27,29 -40,63 -40,104 0,41 13,76 40,104 26,29 58,43 96,43 38,0 70,-14 97,-43 26,-28 39,-63 39,-104zm-379 -1c0,-32 6,-62 19,-91 12,-29 30,-54 52,-77 23,-22 49,-38 79,-50 29,-12 60,-18 92,-18 33,0 65,6 94,18 29,12 56,29 79,52 23,22 41,48 53,77 12,28 18,58 18,89 0,33 -6,63 -18,92 -12,28 -29,54 -52,76 -24,23 -51,41 -81,52 -29,12 -60,18 -93,18 -32,0 -63,-6 -92,-18 -29,-11 -56,-29 -79,-51 -23,-23 -40,-49 -53,-78 -12,-28 -18,-58 -18,-91z"/>
  <path id="147" class="fil1" d="M3057 8252l84 -45c6,22 17,38 34,50 17,11 39,17 65,17 22,0 40,-5 53,-15 13,-11 19,-25 19,-43 0,-24 -23,-44 -68,-61 -16,-6 -28,-11 -36,-14 -47,-20 -80,-40 -99,-60 -19,-20 -28,-45 -28,-73 0,-40 15,-72 46,-96 31,-25 72,-37 123,-37 34,0 63,6 87,19 25,13 42,30 53,54l-71 49c-5,-14 -15,-25 -28,-33 -13,-9 -28,-13 -46,-13 -19,0 -34,5 -46,14 -11,9 -17,21 -17,37 0,22 26,43 78,62 16,6 29,11 38,15 41,16 70,34 87,54 18,21 26,46 26,76 0,45 -16,79 -48,104 -31,25 -75,37 -132,37 -43,0 -79,-8 -107,-24 -29,-16 -51,-41 -67,-74z"/>
  <path id="148" class="fil1" d="M3902 8332l-101 0 0 -441 95 0 0 73c20,-31 43,-54 68,-68 26,-14 56,-21 91,-21 34,0 63,7 85,22 23,14 40,36 52,66 23,-31 48,-53 74,-67 26,-14 56,-21 90,-21 29,0 54,6 76,16 22,11 38,27 50,47 6,10 10,21 13,34 3,14 4,33 4,58l0 35 0 267 -101 0 0 -226c0,-59 -6,-98 -19,-117 -13,-19 -35,-28 -67,-28 -40,0 -68,13 -85,38 -17,25 -25,69 -25,132l0 201 -102 0 0 -226c0,-55 -7,-92 -20,-114 -13,-21 -36,-31 -68,-31 -20,0 -38,4 -55,13 -16,9 -29,22 -39,37 -6,11 -10,23 -13,38 -2,15 -3,42 -3,82l0 201z"/>
  <path id="149" class="fil1" d="M5059 8127l-353 0c3,41 15,73 37,96 22,23 52,35 88,35 33,0 60,-7 82,-20 21,-14 40,-36 56,-67l85 48c-25,44 -55,77 -92,99 -36,22 -79,32 -129,32 -70,0 -127,-21 -169,-64 -41,-43 -62,-101 -62,-173 0,-69 21,-126 65,-170 43,-45 98,-67 166,-67 71,0 127,20 166,61 40,41 60,97 60,171l0 19zm-105 -68c-4,-32 -16,-56 -36,-72 -20,-17 -48,-25 -83,-25 -33,0 -60,8 -80,24 -20,16 -34,40 -42,73l241 0z"/>
  <path id="150" class="fil1" d="M5493 8017c-15,-17 -33,-30 -54,-39 -20,-9 -43,-13 -67,-13 -41,0 -74,13 -99,40 -24,26 -37,62 -37,106 0,46 13,82 38,108 25,26 59,39 103,39 25,0 47,-5 66,-14 19,-9 36,-23 50,-41l0 116c-18,10 -38,18 -59,23 -22,6 -44,8 -68,8 -69,0 -126,-22 -169,-66 -44,-44 -66,-101 -66,-171 0,-71 23,-128 68,-172 45,-43 104,-65 177,-65 23,0 44,2 63,7 20,4 38,11 54,21l0 113z"/>
  <path id="151" class="fil1" d="M6012 8332l-101 0 0 -57c-18,26 -39,44 -63,57 -24,12 -52,18 -83,18 -62,0 -111,-21 -147,-64 -36,-42 -54,-101 -54,-175 0,-70 18,-127 55,-170 37,-43 84,-65 143,-65 36,0 67,8 93,23 25,15 44,36 56,64l0 -72 101 0 0 441zm-98 -222c0,-45 -11,-81 -32,-106 -22,-26 -51,-38 -89,-38 -39,0 -69,13 -90,39 -22,26 -33,63 -33,109 0,47 10,83 31,109 21,25 51,38 90,38 36,0 66,-14 88,-42 23,-27 35,-64 35,-109z"/>
  <path id="152" class="fil1" d="M6151 8332l0 -441 95 0 0 73c20,-31 44,-53 71,-67 27,-14 60,-21 100,-21 32,0 60,5 84,16 23,10 41,26 54,46 7,12 13,26 16,42 4,16 6,45 6,85l0 267 -102 0 0 -226c0,-58 -7,-97 -21,-116 -15,-19 -40,-28 -76,-28 -23,0 -44,4 -63,13 -18,9 -33,21 -43,36 -8,11 -13,25 -16,41 -3,17 -4,43 -4,79l0 201 -101 0z"/>
  <path id="153" class="fil1" d="M6702 7701c0,-17 6,-32 19,-44 13,-13 27,-19 45,-19 18,0 33,6 45,18 12,12 18,27 18,45 0,18 -6,33 -18,45 -13,12 -27,19 -45,19 -18,0 -32,-7 -45,-19 -13,-13 -19,-28 -19,-45zm13 631l0 -441 101 0 0 441 -101 0z"/>
  <path id="154" class="fil1" d="M6910 8252l84 -45c6,22 17,38 34,50 17,11 38,17 65,17 22,0 40,-5 53,-15 13,-11 19,-25 19,-43 0,-24 -23,-44 -69,-61 -15,-6 -27,-11 -35,-14 -47,-20 -80,-40 -99,-60 -19,-20 -28,-45 -28,-73 0,-40 15,-72 46,-96 31,-25 72,-37 122,-37 35,0 64,6 88,19 24,13 42,30 53,54l-71 49c-6,-14 -15,-25 -28,-33 -13,-9 -28,-13 -46,-13 -19,0 -34,5 -46,14 -11,9 -17,21 -17,37 0,22 26,43 78,62 16,6 29,11 38,15 40,16 69,34 87,54 18,21 26,46 26,76 0,45 -16,79 -48,104 -32,25 -76,37 -132,37 -43,0 -79,-8 -107,-24 -29,-16 -51,-41 -67,-74z"/>
  <path id="155" class="fil1" d="M7467 8332l-101 0 0 -441 95 0 0 73c20,-31 43,-54 69,-68 25,-14 55,-21 90,-21 34,0 63,7 86,22 22,14 39,36 51,66 24,-31 48,-53 74,-67 27,-14 57,-21 90,-21 29,0 54,6 76,16 22,11 39,27 51,47 6,10 10,21 12,34 3,14 4,33 4,58l0 35 0 267 -101 0 0 -226c0,-59 -6,-98 -19,-117 -12,-19 -35,-28 -67,-28 -39,0 -68,13 -85,38 -17,25 -25,69 -25,132l0 201 -102 0 0 -226c0,-55 -6,-92 -20,-114 -13,-21 -36,-31 -68,-31 -20,0 -38,4 -54,13 -17,9 -30,22 -39,37 -7,11 -11,23 -13,38 -3,15 -4,42 -4,82l0 201z"/>
  <path id="156" class="fil1" d="M8546 8113c0,-41 -13,-75 -39,-104 -27,-28 -59,-42 -97,-42 -38,0 -70,14 -97,42 -26,29 -39,63 -39,104 0,41 13,76 39,104 27,29 59,43 97,43 38,0 70,-14 96,-43 27,-28 40,-63 40,-104zm-379 -1c0,-32 6,-62 18,-91 13,-29 30,-54 53,-77 23,-22 49,-38 78,-50 30,-12 61,-18 93,-18 33,0 64,6 94,18 29,12 55,29 79,52 23,22 41,48 53,77 12,28 18,58 18,89 0,33 -6,63 -18,92 -12,28 -29,54 -52,76 -25,23 -51,41 -81,52 -29,12 -60,18 -93,18 -32,0 -63,-6 -92,-18 -30,-11 -56,-29 -79,-51 -23,-23 -41,-49 -53,-78 -12,-28 -18,-58 -18,-91z"/>
  <path id="157" class="fil1" d="M8709 8252l84 -45c6,22 17,38 34,50 17,11 38,17 65,17 22,0 40,-5 53,-15 13,-11 19,-25 19,-43 0,-24 -23,-44 -69,-61 -15,-6 -27,-11 -35,-14 -47,-20 -80,-40 -99,-60 -19,-20 -28,-45 -28,-73 0,-40 15,-72 46,-96 31,-25 72,-37 122,-37 35,0 64,6 88,19 24,13 42,30 53,54l-71 49c-6,-14 -15,-25 -28,-33 -13,-9 -28,-13 -46,-13 -19,0 -34,5 -46,14 -11,9 -17,21 -17,37 0,22 26,43 78,62 16,6 29,11 38,15 40,16 69,34 87,54 17,21 26,46 26,76 0,45 -16,79 -48,104 -32,25 -76,37 -132,37 -43,0 -79,-8 -107,-24 -29,-16 -51,-41 -67,-74z"/>
  <path id="158" class="fil1" d="M9770 8110c0,-45 -11,-81 -32,-106 -22,-26 -51,-38 -89,-38 -39,0 -69,13 -90,39 -22,26 -33,63 -33,109 0,47 10,83 31,109 22,25 51,38 90,38 36,0 66,-14 89,-41 22,-28 34,-64 34,-110zm-3 -499l101 0 0 721 -101 0 0 -57c-18,26 -39,44 -63,57 -24,12 -52,18 -83,18 -62,0 -111,-21 -147,-64 -36,-42 -54,-101 -54,-175 0,-70 18,-127 55,-170 37,-43 84,-65 143,-65 36,0 67,8 93,23 25,15 44,36 56,64l0 -352z"/>
  <path id="159" class="fil1" d="M10432 8127l-353 0c3,41 15,73 37,96 22,23 51,35 88,35 33,0 60,-7 81,-20 22,-14 41,-36 57,-67l85 48c-25,44 -56,77 -92,99 -37,22 -80,32 -129,32 -71,0 -127,-21 -169,-64 -42,-43 -63,-101 -63,-173 0,-69 22,-126 65,-170 44,-45 99,-67 167,-67 71,0 126,20 166,61 40,41 60,97 60,171l0 19zm-105 -68c-4,-32 -16,-56 -36,-72 -20,-17 -48,-25 -83,-25 -33,0 -60,8 -80,24 -20,16 -34,40 -42,73l241 0z"/>
  <path id="160" class="fil1" d="M11239 8332l-101 0 0 -57c-18,26 -39,44 -63,57 -24,12 -51,18 -82,18 -63,0 -112,-21 -147,-64 -36,-42 -54,-101 -54,-175 0,-70 18,-127 55,-170 36,-43 84,-65 143,-65 36,0 67,8 92,23 26,15 45,36 56,64l0 -72 101 0 0 441zm-98 -222c0,-45 -10,-81 -32,-106 -21,-26 -51,-38 -89,-38 -38,0 -68,13 -90,39 -22,26 -33,63 -33,109 0,47 11,83 32,109 21,25 51,38 89,38 37,0 66,-14 89,-42 23,-27 34,-64 34,-109z"/>
  <path id="161" class="fil1" d="M11708 8017c-16,-17 -33,-30 -54,-39 -21,-9 -43,-13 -67,-13 -41,0 -74,13 -99,40 -25,26 -37,62 -37,106 0,46 12,82 37,108 25,26 60,39 104,39 24,0 46,-5 65,-14 20,-9 36,-23 51,-41l0 116c-19,10 -39,18 -60,23 -21,6 -44,8 -67,8 -70,0 -126,-22 -170,-66 -43,-44 -65,-101 -65,-171 0,-71 23,-128 68,-172 45,-43 104,-65 177,-65 23,0 44,2 63,7 19,4 37,11 54,21l0 113z"/>
  <path id="162" class="fil1" d="M12141 8017c-16,-17 -34,-30 -55,-39 -20,-9 -42,-13 -66,-13 -41,0 -75,13 -99,40 -25,26 -38,62 -38,106 0,46 13,82 38,108 25,26 59,39 103,39 25,0 47,-5 66,-14 19,-9 36,-23 51,-41l0 116c-19,10 -39,18 -60,23 -21,6 -44,8 -68,8 -69,0 -125,-22 -169,-66 -44,-44 -65,-101 -65,-171 0,-71 22,-128 67,-172 46,-43 104,-65 177,-65 23,0 44,2 64,7 19,4 37,11 54,21l0 113z"/>
  <path id="163" class="fil1" d="M12668 8127l-352 0c3,41 15,73 37,96 22,23 51,35 88,35 32,0 59,-7 81,-20 22,-14 41,-36 57,-67l85 48c-25,44 -56,77 -92,99 -37,22 -80,32 -129,32 -71,0 -127,-21 -169,-64 -42,-43 -63,-101 -63,-173 0,-69 22,-126 65,-170 43,-45 99,-67 167,-67 71,0 126,20 166,61 40,41 59,97 59,171l0 19zm-104 -68c-4,-32 -16,-56 -37,-72 -20,-17 -47,-25 -82,-25 -33,0 -60,8 -80,24 -20,16 -34,40 -42,73l241 0z"/>
  <path id="164" class="fil1" d="M12723 8252l84 -45c6,22 17,38 34,50 17,11 38,17 65,17 22,0 40,-5 53,-15 13,-11 19,-25 19,-43 0,-24 -23,-44 -69,-61 -15,-6 -27,-11 -35,-14 -47,-20 -80,-40 -99,-60 -19,-20 -28,-45 -28,-73 0,-40 15,-72 46,-96 31,-25 72,-37 122,-37 35,0 64,6 88,19 24,13 42,30 53,54l-71 49c-6,-14 -15,-25 -28,-33 -13,-9 -28,-13 -46,-13 -19,0 -34,5 -46,14 -11,9 -17,21 -17,37 0,22 26,43 78,62 16,6 29,11 38,15 40,16 69,34 87,54 17,21 26,46 26,76 0,45 -16,79 -48,104 -32,25 -76,37 -132,37 -43,0 -79,-8 -107,-24 -29,-16 -51,-41 -67,-74z"/>
  <path id="165" class="fil1" d="M13526 8113c0,-41 -13,-75 -40,-104 -26,-28 -58,-42 -97,-42 -37,0 -70,14 -96,42 -27,29 -40,63 -40,104 0,41 13,76 40,104 26,29 59,43 96,43 38,0 70,-14 97,-43 27,-28 40,-63 40,-104zm-379 -1c0,-32 6,-62 18,-91 12,-29 30,-54 53,-77 22,-22 48,-38 78,-50 30,-12 60,-18 93,-18 33,0 64,6 93,18 30,12 56,29 79,52 23,22 41,48 53,77 12,28 18,58 18,89 0,33 -6,63 -18,92 -11,28 -29,54 -52,76 -24,23 -51,41 -80,52 -30,12 -61,18 -93,18 -32,0 -63,-6 -93,-18 -29,-11 -55,-29 -78,-51 -23,-23 -41,-49 -53,-78 -12,-28 -18,-58 -18,-91z"/>
  <path id="166" class="fil1" d="M14356 8017c-16,-17 -34,-30 -54,-39 -21,-9 -43,-13 -67,-13 -41,0 -74,13 -99,40 -25,26 -37,62 -37,106 0,46 12,82 37,108 25,26 60,39 104,39 24,0 46,-5 65,-14 20,-9 36,-23 51,-41l0 116c-19,10 -39,18 -60,23 -21,6 -44,8 -68,8 -69,0 -125,-22 -169,-66 -43,-44 -65,-101 -65,-171 0,-71 23,-128 68,-172 45,-43 104,-65 177,-65 23,0 44,2 63,7 19,4 37,11 54,21l0 113z"/>
  <path id="167" class="fil1" d="M14806 8113c0,-41 -13,-75 -40,-104 -26,-28 -58,-42 -97,-42 -37,0 -70,14 -96,42 -27,29 -40,63 -40,104 0,41 13,76 40,104 26,29 59,43 96,43 38,0 70,-14 97,-43 27,-28 40,-63 40,-104zm-379 -1c0,-32 6,-62 18,-91 12,-29 30,-54 53,-77 22,-22 48,-38 78,-50 30,-12 60,-18 93,-18 33,0 64,6 93,18 30,12 56,29 79,52 23,22 41,48 53,77 12,28 18,58 18,89 0,33 -6,63 -18,92 -11,28 -29,54 -52,76 -24,23 -51,41 -80,52 -30,12 -61,18 -93,18 -32,0 -63,-6 -93,-18 -29,-11 -55,-29 -78,-51 -23,-23 -41,-49 -53,-78 -12,-28 -18,-58 -18,-91z"/>
  <path id="168" class="fil1" d="M15120 8332l-101 0 0 -441 95 0 0 73c20,-31 43,-54 68,-68 26,-14 56,-21 91,-21 34,0 63,7 85,22 23,14 40,36 52,66 23,-31 48,-53 74,-67 27,-14 56,-21 90,-21 29,0 54,6 76,16 22,11 39,27 51,47 5,10 10,21 12,34 3,14 4,33 4,58l0 35 0 267 -101 0 0 -226c0,-59 -6,-98 -19,-117 -12,-19 -35,-28 -67,-28 -40,0 -68,13 -85,38 -17,25 -25,69 -25,132l0 201 -102 0 0 -226c0,-55 -7,-92 -20,-114 -13,-21 -36,-31 -68,-31 -20,0 -38,4 -54,13 -17,9 -30,22 -39,37 -7,11 -11,23 -13,38 -3,15 -4,42 -4,82l0 201z"/>
  <path id="169" class="fil1" d="M16199 8113c0,-41 -13,-75 -39,-104 -27,-28 -59,-42 -97,-42 -38,0 -70,14 -97,42 -26,29 -39,63 -39,104 0,41 13,76 39,104 27,29 59,43 97,43 38,0 70,-14 96,-43 27,-28 40,-63 40,-104zm-379 -1c0,-32 6,-62 18,-91 13,-29 30,-54 53,-77 23,-22 49,-38 78,-50 30,-12 61,-18 93,-18 33,0 64,6 94,18 29,12 55,29 79,52 23,22 40,48 53,77 12,28 18,58 18,89 0,33 -6,63 -18,92 -12,28 -30,54 -53,76 -24,23 -51,41 -80,52 -29,12 -61,18 -93,18 -32,0 -63,-6 -92,-18 -30,-11 -56,-29 -79,-51 -23,-23 -41,-49 -53,-78 -12,-28 -18,-58 -18,-91z"/>
  <path id="170" class="fil1" d="M1298 9394l84 -46c6,22 17,39 34,51 17,11 38,17 65,17 22,0 40,-5 53,-16 13,-10 19,-24 19,-42 0,-24 -23,-45 -69,-62 -15,-5 -27,-10 -35,-14 -48,-19 -81,-39 -99,-59 -19,-20 -28,-45 -28,-74 0,-39 15,-71 46,-95 31,-25 72,-37 122,-37 34,0 64,6 88,19 24,12 42,30 53,53l-71 50c-6,-14 -15,-25 -28,-34 -13,-8 -28,-12 -46,-12 -19,0 -34,5 -46,14 -12,9 -17,21 -17,36 0,23 26,44 78,63 16,6 29,11 38,15 40,16 69,34 87,54 17,20 26,46 26,76 0,44 -16,79 -48,104 -32,25 -76,37 -132,37 -43,0 -79,-8 -107,-24 -29,-16 -51,-41 -67,-74z"/>
  <path id="171" class="fil1" d="M1852 9033l0 249c0,42 9,73 26,92 18,18 47,28 86,28 40,0 69,-10 86,-28 18,-19 27,-50 27,-92l0 -249 101 0 0 218c0,85 -17,146 -51,184 -34,38 -88,57 -162,57 -75,0 -130,-19 -163,-57 -34,-37 -51,-99 -51,-184l0 -218 101 0z"/>
  <path id="172" class="fil1" d="M2411 9252c0,45 12,82 35,109 23,28 53,42 90,42 38,0 67,-13 88,-39 21,-25 32,-61 32,-108 0,-47 -11,-83 -33,-109 -22,-26 -52,-40 -90,-40 -38,0 -68,13 -89,39 -22,25 -33,61 -33,106zm4 -499l0 352c12,-28 30,-49 56,-65 26,-15 57,-22 93,-22 59,0 106,21 143,65 36,43 54,100 54,170 0,74 -17,133 -53,175 -36,43 -85,64 -148,64 -31,0 -58,-6 -82,-18 -24,-13 -45,-32 -63,-57l0 57 -101 0 0 -721 101 0z"/>
  <path id="173" class="fil1" d="M2818 9394l83 -46c7,22 18,39 35,51 17,11 38,17 64,17 23,0 41,-5 54,-16 13,-10 19,-24 19,-42 0,-24 -23,-45 -69,-62 -15,-5 -27,-10 -36,-14 -47,-19 -80,-39 -98,-59 -19,-20 -29,-45 -29,-74 0,-39 16,-71 47,-95 31,-25 71,-37 122,-37 34,0 64,6 88,19 24,12 42,30 53,53l-72 50c-5,-14 -14,-25 -27,-34 -13,-8 -29,-12 -46,-12 -19,0 -35,5 -46,14 -12,9 -18,21 -18,36 0,23 26,44 78,63 17,6 30,11 38,15 41,16 70,34 88,54 17,20 26,46 26,76 0,44 -16,79 -48,104 -32,25 -76,37 -132,37 -43,0 -79,-8 -107,-24 -29,-16 -51,-41 -67,-74z"/>
  <path id="174" class="fil1" d="M3265 8843c0,-17 7,-32 19,-45 13,-12 28,-18 45,-18 18,0 33,6 45,18 12,12 18,27 18,45 0,18 -6,33 -18,45 -12,12 -27,18 -45,18 -17,0 -32,-6 -45,-19 -12,-12 -19,-27 -19,-44zm14 631l0 -441 100 0 0 441 -100 0z"/>
  <path id="175" class="fil1" d="M3841 9252c0,-45 -11,-81 -32,-106 -22,-26 -51,-39 -89,-39 -39,0 -69,14 -90,40 -22,26 -33,62 -33,109 0,47 10,83 31,108 22,26 51,39 90,39 36,0 66,-14 89,-42 22,-27 34,-63 34,-109zm-3 -499l101 0 0 721 -101 0 0 -57c-18,25 -39,44 -63,57 -24,12 -52,18 -83,18 -62,0 -111,-21 -147,-64 -36,-42 -54,-101 -54,-175 0,-70 18,-127 55,-170 37,-44 84,-65 143,-65 36,0 67,7 93,22 25,15 44,37 56,65l0 -352z"/>
  <path id="176" class="fil1" d="M4069 8843c0,-17 7,-32 19,-45 13,-12 28,-18 45,-18 18,0 33,6 45,18 12,12 18,27 18,45 0,18 -6,33 -18,45 -12,12 -27,18 -45,18 -17,0 -32,-6 -45,-19 -12,-12 -19,-27 -19,-44zm14 631l0 -441 101 0 0 441 -101 0z"/>
  <path id="177" class="fil1" d="M4674 9255c0,-41 -13,-76 -39,-104 -27,-29 -59,-43 -97,-43 -38,0 -70,14 -96,43 -27,28 -40,63 -40,104 0,41 13,76 40,104 26,29 58,43 96,43 38,0 70,-14 97,-43 26,-28 39,-63 39,-104zm-379 -1c0,-32 6,-63 19,-91 12,-29 29,-55 52,-77 23,-22 49,-39 79,-51 29,-11 60,-17 92,-17 33,0 65,6 94,17 29,12 55,30 79,52 23,23 41,49 53,77 12,29 18,59 18,90 0,33 -6,63 -18,92 -12,28 -29,53 -52,75 -25,24 -51,41 -81,53 -29,12 -60,18 -93,18 -32,0 -63,-6 -92,-18 -30,-12 -56,-29 -79,-52 -23,-23 -41,-48 -53,-77 -12,-28 -18,-59 -18,-91z"/>
  <path id="178" class="fil1" d="M5166 8843c0,-17 7,-32 19,-45 13,-12 28,-18 45,-18 18,0 33,6 45,18 12,12 18,27 18,45 0,18 -6,33 -18,45 -12,12 -27,18 -45,18 -17,0 -32,-6 -45,-19 -12,-12 -19,-27 -19,-44zm14 631l0 -441 101 0 0 441 -101 0z"/>
  <path id="179" class="fil1" d="M5425 9474l0 -441 95 0 0 72c20,-30 43,-52 71,-66 27,-14 60,-21 99,-21 33,0 61,5 84,15 23,11 42,26 55,47 7,12 13,26 16,42 4,16 5,44 5,85l0 267 -101 0 0 -226c0,-58 -7,-97 -22,-116 -14,-19 -39,-28 -75,-28 -23,0 -44,4 -63,13 -18,8 -33,20 -43,36 -8,11 -13,24 -16,41 -3,17 -4,43 -4,79l0 201 -101 0z"/>
  <polygon id="180" class="fil1" points="6008,9474 6008,9122 5931,9122 5931,9033 6008,9033 6008,8866 6109,8866 6109,9033 6186,9033 6186,9122 6109,9122 6109,9474 "/>
  <path id="181" class="fil1" d="M6698 9268l-352 0c2,42 14,74 37,97 21,23 51,35 88,35 32,0 59,-7 81,-21 22,-13 40,-35 57,-66l84 48c-24,44 -55,77 -92,99 -36,21 -79,32 -128,32 -71,0 -127,-21 -169,-64 -42,-44 -63,-101 -63,-173 0,-69 22,-126 65,-171 43,-44 99,-66 167,-66 71,0 126,20 166,61 39,40 59,97 59,170l0 19zm-105 -67c-4,-32 -16,-56 -36,-73 -20,-16 -48,-24 -83,-24 -33,0 -59,8 -80,24 -20,16 -34,40 -42,73l241 0z"/>
  <path id="182" class="fil1" d="M7120 9252c0,-45 -10,-81 -32,-106 -21,-26 -51,-39 -89,-39 -38,0 -68,14 -90,40 -22,26 -33,62 -33,109 0,47 11,83 32,108 21,26 51,39 89,39 37,0 66,-14 89,-42 23,-27 34,-64 34,-109zm98 195c0,86 -17,147 -51,182 -35,35 -93,53 -174,53 -61,0 -110,-13 -146,-39 -36,-25 -55,-60 -55,-102l108 -1c2,19 11,34 27,44 16,10 38,15 68,15 43,0 74,-10 93,-29 19,-18 28,-50 28,-95l1 -58c-18,25 -39,44 -63,57 -24,12 -51,18 -82,18 -63,0 -112,-21 -147,-64 -36,-42 -54,-101 -54,-175 0,-70 18,-127 55,-170 36,-44 84,-65 143,-65 36,0 67,7 92,22 26,15 45,37 56,65l0 -72 101 0 0 414z"/>
  <path id="183" class="fil1" d="M7458 9104c11,-30 26,-51 43,-65 18,-14 40,-21 67,-21 14,0 28,2 42,5 14,3 27,8 41,15l-37 86c-8,-7 -18,-11 -28,-14 -10,-3 -21,-5 -33,-5 -34,0 -58,14 -73,41 -14,26 -22,72 -22,135l0 193 -101 0 0 -442 101 0 0 72z"/>
  <path id="184" class="fil1" d="M8123 9474l-101 0 0 -57c-17,25 -39,44 -63,57 -24,12 -51,18 -82,18 -63,0 -112,-21 -147,-64 -36,-42 -54,-101 -54,-175 0,-70 18,-127 55,-170 36,-44 84,-65 143,-65 36,0 67,7 92,22 26,15 45,37 56,65l0 -72 101 0 0 441zm-98 -222c0,-45 -10,-81 -32,-106 -21,-26 -51,-39 -89,-39 -38,0 -68,14 -90,40 -22,26 -33,62 -33,109 0,47 11,83 32,108 21,26 51,39 89,39 37,0 66,-14 89,-42 23,-27 34,-64 34,-109z"/>
  <polygon id="185" class="fil1" points="8267,9474 8267,8753 8368,8753 8368,9474 "/>
  <path id="186" class="fil1" d="M8876 9682l-104 0 121 -246 -162 -403 112 0 81 228c4,14 9,29 12,43 4,14 6,29 9,44 4,-16 13,-40 29,-74l2 -6 109 -235 109 0 -318 649z"/>
  <path id="187" class="fil1" d="M9866 9159c-16,-17 -34,-30 -55,-39 -20,-9 -42,-14 -66,-14 -42,0 -75,14 -99,40 -25,27 -38,62 -38,106 0,46 13,82 38,109 25,26 59,39 103,39 25,0 47,-5 66,-14 19,-9 36,-23 51,-41l0 116c-19,10 -39,18 -60,23 -21,5 -44,8 -68,8 -69,0 -125,-22 -169,-66 -44,-44 -65,-101 -65,-171 0,-71 22,-128 67,-172 45,-43 104,-65 177,-65 23,0 44,2 64,7 19,4 37,11 54,20l0 114z"/>
  <path id="188" class="fil1" d="M10070 9104c10,-30 25,-51 43,-65 18,-14 40,-21 66,-21 14,0 28,2 42,5 14,3 28,8 41,15l-36 86c-9,-7 -19,-11 -29,-14 -10,-3 -21,-5 -33,-5 -34,0 -58,14 -73,41 -14,26 -21,72 -21,135l0 193 -101 0 0 -442 101 0 0 72z"/>
  <path id="189" class="fil1" d="M10744 9268l-352 0c2,42 14,74 36,97 22,23 52,35 88,35 33,0 60,-7 82,-21 21,-13 40,-35 57,-66l84 48c-24,44 -55,77 -92,99 -36,21 -79,32 -129,32 -70,0 -127,-21 -168,-64 -42,-44 -63,-101 -63,-173 0,-69 21,-126 65,-171 43,-44 99,-66 166,-66 71,0 127,20 167,61 39,40 59,97 59,170l0 19zm-105 -67c-4,-32 -16,-56 -36,-73 -20,-16 -48,-24 -83,-24 -33,0 -59,8 -80,24 -20,16 -34,40 -42,73l241 0zm-186 -235l88 -126 105 0 -136 126 -57 0z"/>
  <path id="190" class="fil1" d="M11166 9252c0,-45 -10,-81 -32,-106 -21,-26 -51,-39 -89,-39 -38,0 -68,14 -90,40 -22,26 -33,62 -33,109 0,47 11,83 32,108 21,26 51,39 89,39 37,0 67,-14 89,-42 23,-27 34,-63 34,-109zm-3 -499l101 0 0 721 -101 0 0 -57c-18,25 -39,44 -63,57 -24,12 -51,18 -82,18 -63,0 -112,-21 -148,-64 -35,-42 -53,-101 -53,-175 0,-70 18,-127 55,-170 36,-44 84,-65 143,-65 36,0 67,7 92,22 26,15 45,37 56,65l0 -352z"/>
  <path id="191" class="fil1" d="M11395 8843c0,-17 6,-32 19,-45 12,-12 27,-18 45,-18 18,0 33,6 45,18 11,12 17,27 17,45 0,18 -6,33 -18,45 -12,12 -27,18 -44,18 -18,0 -33,-6 -45,-19 -13,-12 -19,-27 -19,-44zm13 631l0 -441 101 0 0 441 -101 0z"/>
  <polygon id="192" class="fil1" points="11677,9474 11677,9122 11600,9122 11600,9033 11677,9033 11677,8866 11778,8866 11778,9033 11855,9033 11855,9122 11778,9122 11778,9474 "/>
  <path id="193" class="fil1" d="M12289 9255c0,-41 -14,-76 -40,-104 -26,-29 -59,-43 -97,-43 -37,0 -70,14 -96,43 -27,28 -40,63 -40,104 0,41 13,76 40,104 26,29 59,43 96,43 38,0 70,-14 97,-43 26,-28 40,-63 40,-104zm-380 -1c0,-32 7,-63 19,-91 12,-29 30,-55 53,-77 22,-22 48,-39 78,-51 29,-11 60,-17 92,-17 34,0 65,6 94,17 29,12 56,30 79,52 23,23 41,49 53,77 12,29 18,59 18,90 0,33 -6,63 -18,92 -12,28 -29,53 -52,75 -24,24 -51,41 -81,53 -29,12 -60,18 -93,18 -32,0 -62,-6 -92,-18 -29,-12 -55,-29 -78,-52 -24,-23 -41,-48 -53,-77 -13,-28 -19,-59 -19,-91z"/>
  <path id="194" class="fil1" d="M13214 9268l-352 0c2,42 14,74 36,97 22,23 52,35 88,35 33,0 60,-7 82,-21 21,-13 40,-35 57,-66l84 48c-24,44 -55,77 -92,99 -36,21 -79,32 -129,32 -70,0 -127,-21 -168,-64 -42,-44 -63,-101 -63,-173 0,-69 21,-126 65,-171 43,-44 99,-66 166,-66 71,0 127,20 167,61 39,40 59,97 59,170l0 19zm-105 -67c-4,-32 -16,-56 -36,-73 -20,-16 -48,-24 -83,-24 -33,0 -59,8 -80,24 -20,16 -34,40 -42,73l241 0z"/>
  <path id="195" class="fil1" d="M13269 9394l83 -46c7,22 18,39 35,51 16,11 38,17 64,17 23,0 41,-5 54,-16 12,-10 19,-24 19,-42 0,-24 -23,-45 -69,-62 -15,-5 -27,-10 -36,-14 -47,-19 -80,-39 -99,-59 -18,-20 -28,-45 -28,-74 0,-39 16,-71 47,-95 30,-25 71,-37 122,-37 34,0 63,6 88,19 24,12 42,30 53,53l-72 50c-5,-14 -14,-25 -27,-34 -13,-8 -29,-12 -46,-12 -19,0 -35,5 -46,14 -12,9 -18,21 -18,36 0,23 26,44 78,63 17,6 29,11 38,15 41,16 70,34 88,54 17,20 26,46 26,76 0,44 -16,79 -48,104 -32,25 -76,37 -132,37 -43,0 -79,-8 -107,-24 -29,-16 -51,-41 -67,-74z"/>
  <path id="196" class="fil1" d="M13822 9252c0,46 12,82 35,110 22,27 52,41 90,41 38,0 67,-13 88,-39 21,-25 32,-61 32,-108 0,-47 -11,-83 -33,-109 -22,-26 -52,-40 -90,-40 -38,0 -68,13 -90,39 -21,25 -32,61 -32,106zm-97 430l0 -649 101 0 0 72c11,-28 30,-49 56,-65 26,-15 57,-22 93,-22 59,0 106,21 143,65 36,43 54,100 54,170 0,74 -18,133 -54,175 -35,43 -84,64 -147,64 -31,0 -58,-6 -82,-18 -24,-13 -45,-32 -63,-57l0 265 -101 0z"/>
  <path id="197" class="fil1" d="M14704 9268l-353 0c3,42 15,74 37,97 22,23 51,35 88,35 33,0 60,-7 81,-21 22,-13 41,-35 57,-66l85 48c-25,44 -55,77 -92,99 -37,21 -80,32 -129,32 -71,0 -127,-21 -169,-64 -41,-44 -62,-101 -62,-173 0,-69 21,-126 65,-171 43,-44 98,-66 166,-66 71,0 127,20 166,61 40,40 60,97 60,170l0 19zm-105 -67c-4,-32 -16,-56 -36,-73 -20,-16 -48,-24 -83,-24 -33,0 -60,8 -80,24 -20,16 -34,40 -42,73l241 0z"/>
  <path id="198" class="fil1" d="M15138 9159c-15,-17 -33,-30 -54,-39 -20,-9 -43,-14 -67,-14 -41,0 -74,14 -99,40 -24,27 -37,62 -37,106 0,46 13,82 38,109 25,26 59,39 103,39 25,0 46,-5 66,-14 19,-9 36,-23 50,-41l0 116c-18,10 -38,18 -60,23 -21,5 -43,8 -67,8 -69,0 -126,-22 -169,-66 -44,-44 -66,-101 -66,-171 0,-71 23,-128 68,-172 45,-43 104,-65 177,-65 23,0 44,2 63,7 20,4 38,11 54,20l0 114z"/>
  <path id="199" class="fil1" d="M15233 8843c0,-17 6,-32 19,-45 12,-12 27,-18 45,-18 18,0 33,6 44,18 12,12 18,27 18,45 0,18 -6,33 -18,45 -12,12 -27,18 -44,18 -18,0 -33,-6 -45,-19 -13,-12 -19,-27 -19,-44zm13 631l0 -441 101 0 0 441 -101 0z"/>
  <path id="200" class="fil1" d="M15906 9474l-101 0 0 -57c-18,25 -39,44 -63,57 -24,12 -51,18 -82,18 -63,0 -112,-21 -148,-64 -35,-42 -53,-101 -53,-175 0,-70 18,-127 55,-170 36,-44 84,-65 143,-65 36,0 67,7 92,22 26,15 45,37 56,65l0 -72 101 0 0 441zm-98 -222c0,-45 -10,-81 -32,-106 -21,-26 -51,-39 -89,-39 -38,0 -68,14 -90,40 -22,26 -33,62 -33,109 0,47 11,83 32,108 21,26 51,39 89,39 37,0 66,-14 89,-42 23,-27 34,-64 34,-109z"/>
  <polygon id="201" class="fil1" points="16050,9474 16050,8753 16151,8753 16151,9474 "/>
  <path id="202" class="fil1" d="M1446 10394c0,46 11,82 34,109 23,28 53,41 90,41 38,0 68,-12 89,-38 21,-25 31,-62 31,-108 0,-47 -11,-83 -33,-110 -21,-26 -51,-39 -90,-39 -38,0 -67,13 -89,38 -21,26 -32,61 -32,107zm-98 429l0 -648 101 0 0 72c12,-28 31,-50 57,-65 26,-15 57,-22 93,-22 58,0 106,21 142,64 37,44 55,100 55,171 0,74 -18,132 -54,175 -36,43 -85,64 -147,64 -31,0 -59,-6 -83,-19 -24,-12 -45,-31 -63,-56l0 264 -101 0z"/>
  <path id="203" class="fil1" d="M2318 10616l-101 0 0 -57c-18,25 -39,44 -63,56 -24,13 -52,19 -83,19 -62,0 -111,-21 -147,-64 -36,-43 -54,-101 -54,-175 0,-71 18,-127 55,-171 37,-43 85,-64 144,-64 36,0 66,7 92,22 25,15 44,37 56,65l0 -72 101 0 0 441zm-98 -222c0,-46 -11,-81 -32,-107 -21,-25 -51,-38 -89,-38 -38,0 -68,13 -90,39 -22,27 -33,63 -33,110 0,46 10,83 32,108 21,26 51,38 89,38 36,0 66,-13 89,-41 22,-28 34,-64 34,-109z"/>
  <path id="204" class="fil1" d="M2558 10245c11,-29 25,-51 43,-65 18,-13 40,-20 66,-20 15,0 29,1 43,5 13,3 27,8 40,14l-36 86c-9,-6 -18,-11 -28,-13 -10,-3 -22,-5 -34,-5 -34,0 -58,13 -72,40 -15,27 -22,72 -22,135l0 194 -101 0 0 -442 101 0 0 71z"/>
  <path id="205" class="fil1" d="M3223 10616l-101 0 0 -57c-18,25 -39,44 -63,56 -24,13 -52,19 -83,19 -62,0 -111,-21 -147,-64 -36,-43 -54,-101 -54,-175 0,-71 19,-127 55,-171 37,-43 85,-64 144,-64 36,0 66,7 92,22 26,15 44,37 56,65l0 -72 101 0 0 441zm-98 -222c0,-46 -11,-81 -32,-107 -21,-25 -51,-38 -89,-38 -38,0 -68,13 -90,39 -22,27 -33,63 -33,110 0,46 10,83 32,108 21,26 51,38 89,38 36,0 66,-13 89,-41 22,-28 34,-64 34,-109z"/>
  <path id="206" class="fil1" d="M3979 10300c-15,-16 -33,-30 -54,-38 -21,-9 -43,-14 -67,-14 -41,0 -74,13 -99,40 -25,27 -37,62 -37,106 0,46 12,82 37,108 25,26 60,39 104,39 24,0 46,-4 65,-13 20,-9 36,-23 51,-42l0 116c-18,11 -38,19 -60,24 -21,5 -44,8 -67,8 -70,0 -126,-22 -169,-66 -44,-44 -66,-101 -66,-171 0,-71 23,-129 68,-172 45,-44 104,-65 177,-65 23,0 44,2 63,6 19,5 37,12 54,21l0 113z"/>
  <path id="207" class="fil1" d="M4429 10397c0,-41 -13,-76 -40,-104 -26,-29 -58,-43 -96,-43 -38,0 -70,14 -97,43 -26,28 -40,63 -40,104 0,41 14,75 40,104 27,28 59,42 97,42 37,0 70,-14 96,-42 27,-29 40,-63 40,-104zm-379 -1c0,-32 6,-63 18,-92 12,-28 30,-54 53,-76 23,-22 49,-39 78,-51 30,-12 60,-17 93,-17 33,0 64,5 93,17 30,12 56,29 79,52 24,23 41,48 53,77 12,28 19,58 19,90 0,32 -7,63 -18,91 -12,29 -30,54 -53,76 -24,23 -51,41 -80,53 -30,12 -61,18 -93,18 -32,0 -63,-6 -92,-18 -30,-12 -56,-29 -79,-52 -23,-23 -41,-49 -53,-77 -12,-29 -18,-59 -18,-91z"/>
  <path id="208" class="fil1" d="M4743 10616l-101 0 0 -441 95 0 0 72c20,-31 43,-53 69,-67 25,-14 55,-21 90,-21 34,0 63,7 86,21 22,15 39,37 51,66 24,-30 48,-53 74,-66 27,-14 57,-21 90,-21 29,0 54,5 76,16 22,10 39,26 51,46 6,10 10,22 12,35 3,13 4,32 4,57l0 35 0 268 -101 0 0 -227c0,-59 -6,-98 -19,-117 -12,-18 -35,-28 -67,-28 -39,0 -68,13 -85,38 -17,25 -25,70 -25,133l0 201 -102 0 0 -227c0,-54 -6,-92 -20,-113 -13,-21 -36,-32 -68,-32 -20,0 -38,5 -54,14 -17,9 -30,21 -39,37 -7,10 -11,23 -13,38 -3,14 -4,42 -4,82l0 201z"/>
  <path id="209" class="fil1" d="M5573 10394c0,46 12,82 34,109 23,28 53,41 90,41 39,0 68,-12 89,-38 21,-25 31,-62 31,-108 0,-47 -11,-83 -32,-110 -22,-26 -52,-39 -90,-39 -39,0 -68,13 -90,38 -21,26 -32,61 -32,107zm-98 429l0 -648 101 0 0 72c12,-28 31,-50 57,-65 26,-15 57,-22 93,-22 58,0 106,21 143,64 36,44 54,100 54,171 0,74 -18,132 -54,175 -35,43 -85,64 -147,64 -31,0 -58,-6 -83,-19 -24,-12 -45,-31 -63,-56l0 264 -101 0z"/>
  <path id="210" class="fil1" d="M6131 10245c11,-29 25,-51 43,-65 18,-13 40,-20 66,-20 15,0 29,1 42,5 14,3 28,8 41,14l-36 86c-9,-6 -18,-11 -28,-13 -10,-3 -22,-5 -34,-5 -34,0 -58,13 -72,40 -15,27 -22,72 -22,135l0 194 -101 0 0 -442 101 0 0 71z"/>
  <path id="211" class="fil1" d="M6796 10616l-101 0 0 -57c-18,25 -39,44 -63,56 -24,13 -52,19 -83,19 -62,0 -111,-21 -147,-64 -36,-43 -54,-101 -54,-175 0,-71 18,-127 55,-171 37,-43 85,-64 143,-64 36,0 67,7 93,22 25,15 44,37 56,65l0 -72 101 0 0 441zm-98 -222c0,-46 -11,-81 -32,-107 -21,-25 -51,-38 -89,-38 -39,0 -69,13 -90,39 -22,27 -33,63 -33,110 0,46 10,83 31,108 22,26 51,38 90,38 36,0 66,-13 88,-41 23,-28 35,-64 35,-109z"/>
  <path id="212" class="fil1" d="M7540 10394c0,-46 -11,-81 -32,-107 -22,-25 -51,-38 -89,-38 -39,0 -69,13 -90,39 -22,27 -33,63 -33,110 0,46 10,83 31,108 21,26 51,38 90,38 36,0 66,-13 89,-41 22,-27 34,-64 34,-109zm-3 -499l101 0 0 721 -101 0 0 -57c-18,25 -39,44 -63,56 -24,13 -52,19 -83,19 -62,0 -111,-21 -147,-64 -36,-43 -54,-101 -54,-175 0,-71 18,-127 55,-171 37,-43 84,-64 143,-64 36,0 67,7 93,22 25,15 44,37 56,65l0 -352z"/>
  <path id="213" class="fil1" d="M8202 10410l-353 0c3,41 15,74 37,97 22,23 51,34 88,34 32,0 60,-6 81,-20 22,-14 41,-36 57,-66l85 47c-25,45 -56,78 -92,99 -37,22 -80,33 -129,33 -71,0 -127,-22 -169,-65 -42,-43 -63,-100 -63,-172 0,-70 22,-126 65,-171 43,-44 99,-66 167,-66 71,0 126,20 166,60 40,41 60,98 60,171l0 19zm-105 -68c-4,-31 -16,-55 -36,-72 -21,-16 -48,-25 -83,-25 -33,0 -60,8 -80,24 -20,17 -34,41 -42,73l241 0z"/>
  <polygon id="214" class="fil1" points="8618,10616 8618,10263 8541,10263 8541,10175 8618,10175 8618,10008 8719,10008 8719,10175 8796,10175 8796,10263 8719,10263 8719,10616 "/>
  <path id="215" class="fil1" d="M8874 9984c0,-17 7,-31 19,-44 13,-12 28,-19 45,-19 18,0 33,6 45,18 12,12 18,27 18,45 0,18 -6,33 -18,46 -12,12 -27,18 -45,18 -17,0 -32,-6 -45,-19 -12,-12 -19,-27 -19,-45zm14 632l0 -441 100 0 0 441 -100 0z"/>
  <path id="216" class="fil1" d="M9557 10410l-352 0c2,41 15,74 37,97 22,23 51,34 88,34 32,0 59,-6 81,-20 22,-14 41,-36 57,-66l85 47c-25,45 -56,78 -93,99 -36,22 -79,33 -128,33 -71,0 -127,-22 -169,-65 -42,-43 -63,-100 -63,-172 0,-70 22,-126 65,-171 43,-44 99,-66 167,-66 71,0 126,20 166,60 39,41 59,98 59,171l0 19zm-105 -68c-3,-31 -16,-55 -36,-72 -20,-16 -47,-25 -82,-25 -34,0 -60,8 -80,24 -20,17 -35,41 -43,73l241 0z"/>
  <path id="217" class="fil1" d="M9763 10245c11,-29 25,-51 43,-65 18,-13 40,-20 67,-20 14,0 28,1 42,5 14,3 27,8 41,14l-37 86c-9,-6 -18,-11 -28,-13 -10,-3 -21,-5 -34,-5 -33,0 -57,13 -72,40 -15,27 -22,72 -22,135l0 194 -101 0 0 -442 101 0 0 71z"/>
  <path id="218" class="fil1" d="M10114 10245c11,-29 25,-51 43,-65 18,-13 40,-20 66,-20 15,0 29,1 42,5 14,3 28,8 41,14l-36 86c-9,-6 -18,-11 -28,-13 -10,-3 -22,-5 -34,-5 -34,0 -58,13 -72,40 -15,27 -22,72 -22,135l0 194 -101 0 0 -442 101 0 0 71z"/>
  <path id="219" class="fil1" d="M10779 10616l-101 0 0 -57c-18,25 -39,44 -63,56 -24,13 -52,19 -83,19 -62,0 -111,-21 -147,-64 -36,-43 -54,-101 -54,-175 0,-71 18,-127 55,-171 37,-43 85,-64 143,-64 36,0 67,7 93,22 25,15 44,37 56,65l0 -72 101 0 0 441zm-98 -222c0,-46 -11,-81 -32,-107 -21,-25 -51,-38 -89,-38 -38,0 -68,13 -90,39 -22,27 -33,63 -33,110 0,46 10,83 32,108 21,26 50,38 89,38 36,0 66,-13 88,-41 23,-28 35,-64 35,-109z"/>
  <path id="220" class="fil1" d="M10931 10564c0,-17 6,-31 18,-43 12,-13 26,-19 43,-19 17,0 32,6 44,19 11,12 17,26 17,43 0,17 -6,31 -17,43 -12,11 -27,17 -44,17 -17,0 -31,-6 -43,-17 -12,-12 -18,-26 -18,-43z"/>
  <path class="fil2" d="M1387 1094c36,41 71,71 106,91 35,20 69,30 104,30 32,0 59,-9 79,-26 21,-17 31,-39 31,-66 0,-29 -9,-51 -27,-67 -17,-16 -58,-33 -121,-49 -86,-24 -148,-54 -183,-91 -36,-38 -54,-89 -54,-154 0,-85 28,-153 85,-207 56,-53 130,-80 220,-80 48,0 94,7 138,20 44,13 85,33 124,59l-75 173c-28,-23 -56,-40 -85,-52 -28,-12 -57,-18 -85,-18 -29,0 -52,7 -70,21 -18,13 -27,31 -27,53 0,22 7,40 23,53 16,13 47,26 92,38l11 3c98,27 163,56 194,88 21,21 37,47 47,77 11,31 17,64 17,102 0,93 -31,168 -93,225 -61,57 -143,86 -246,86 -61,0 -117,-11 -168,-32 -50,-21 -99,-53 -145,-98l108 -179z"/>
  <path id="1" class="fil2" d="M2675 771l0 310c0,69 -5,120 -16,153 -11,33 -30,63 -56,88 -27,27 -61,48 -101,61 -40,13 -87,20 -142,20 -54,0 -100,-7 -140,-20 -41,-13 -74,-34 -103,-61 -26,-24 -44,-54 -55,-87 -11,-34 -17,-85 -17,-154l0 -310 205 0 0 324c0,51 9,88 26,111 17,22 44,34 82,34 38,0 66,-11 82,-34 17,-22 25,-59 25,-111l0 -324 210 0z"/>
  <path id="2" class="fil2" d="M3021 1075c0,48 12,85 37,113 25,27 59,41 102,41 44,0 79,-14 104,-41 24,-27 37,-65 37,-113 0,-47 -13,-84 -38,-112 -25,-27 -59,-41 -103,-41 -43,0 -77,14 -102,41 -25,28 -37,65 -37,112zm-190 -630l205 0 0 318c0,26 -1,47 -2,64 -1,17 -2,32 -4,45 24,-44 53,-75 85,-93 33,-19 75,-28 127,-28 81,0 147,30 197,89 51,60 76,138 76,235 0,100 -26,180 -77,239 -50,59 -118,89 -204,89 -41,0 -79,-10 -113,-31 -35,-20 -65,-51 -93,-92l0 99 -197 0 0 -934z"/>
  <path id="3" class="fil2" d="M3588 1329l44 -165c32,28 66,49 104,64 37,14 75,22 113,22 27,0 48,-5 62,-13 14,-9 21,-22 21,-38 0,-27 -28,-47 -85,-61 -19,-4 -34,-8 -45,-11 -64,-18 -111,-41 -140,-70 -29,-28 -43,-66 -43,-111 0,-60 22,-107 66,-142 45,-36 105,-53 181,-53 39,0 78,4 119,13 40,9 82,23 124,42l-45 148c-28,-19 -57,-34 -87,-44 -29,-10 -58,-15 -88,-15 -24,0 -43,4 -55,12 -13,7 -19,18 -19,33 0,21 28,40 84,55 13,3 23,6 29,8 75,21 126,46 156,75 29,28 43,67 43,116 0,62 -24,113 -72,151 -47,39 -111,58 -189,58 -54,0 -103,-6 -149,-19 -46,-12 -89,-30 -129,-55z"/>
  <path id="4" class="fil2" d="M4237 580c0,-32 11,-60 35,-83 23,-22 51,-34 83,-34 34,0 62,11 85,34 23,22 34,50 34,83 0,34 -12,62 -35,85 -23,23 -51,35 -84,35 -32,0 -60,-12 -83,-35 -23,-24 -35,-52 -35,-85zm11 799l0 -608 215 0 0 608 -215 0z"/>
  <path id="5" class="fil2" d="M5092 1075c0,-47 -12,-84 -37,-112 -25,-27 -60,-41 -103,-41 -43,0 -78,14 -102,41 -25,28 -38,65 -38,112 0,48 13,86 37,113 25,27 59,41 103,41 43,0 78,-14 103,-41 25,-28 37,-65 37,-113zm191 -630l0 934 -198 0 0 -99c-27,41 -58,72 -92,92 -34,21 -72,31 -114,31 -86,0 -154,-30 -204,-89 -51,-59 -76,-139 -76,-239 0,-97 25,-175 75,-235 51,-59 116,-89 198,-89 51,0 93,9 125,28 33,18 61,49 87,93 -3,-15 -4,-31 -6,-50 -1,-18 -1,-38 -1,-59l0 -318 206 0z"/>
  <path id="6" class="fil2" d="M5437 580c0,-32 12,-60 35,-83 23,-22 51,-34 84,-34 33,0 62,11 84,34 23,22 34,50 34,83 0,34 -11,62 -34,85 -23,23 -51,35 -84,35 -33,0 -60,-12 -84,-35 -23,-24 -35,-52 -35,-85zm11 799l0 -608 215 0 0 608 -215 0z"/>
  <path id="7" class="fil2" d="M6260 1076c0,-45 -12,-81 -35,-107 -23,-26 -54,-39 -93,-39 -39,0 -70,13 -93,39 -22,26 -34,62 -34,107 0,46 12,82 34,108 22,25 54,38 93,38 40,0 71,-13 94,-38 22,-26 34,-62 34,-108zm213 0c0,44 -8,86 -26,125 -17,40 -41,75 -74,106 -33,32 -70,56 -111,72 -40,16 -84,24 -130,24 -46,0 -90,-8 -131,-24 -41,-16 -77,-40 -109,-72 -32,-30 -57,-65 -74,-105 -17,-39 -25,-81 -25,-126 0,-44 8,-86 25,-126 17,-39 41,-74 74,-106 32,-31 68,-54 109,-70 40,-15 84,-23 131,-23 48,0 91,8 132,23 40,16 77,39 109,70 33,32 58,68 75,107 17,39 25,81 25,125z"/>
  <path id="8" class="fil2" d="M6540 1329l45 -165c31,28 65,49 103,64 38,14 76,22 114,22 27,0 47,-5 61,-13 14,-9 21,-22 21,-38 0,-27 -28,-47 -85,-61 -18,-4 -33,-8 -44,-11 -65,-18 -111,-41 -141,-70 -29,-28 -43,-66 -43,-111 0,-60 22,-107 66,-142 45,-36 105,-53 181,-53 39,0 79,4 119,13 40,9 82,23 124,42l-45 148c-28,-19 -57,-34 -87,-44 -29,-10 -58,-15 -88,-15 -24,0 -43,4 -55,12 -13,7 -19,18 -19,33 0,21 28,40 85,55 13,3 22,6 29,8 74,21 126,46 155,75 29,28 43,67 43,116 0,62 -23,113 -71,151 -48,39 -112,58 -190,58 -54,0 -103,-6 -149,-19 -46,-12 -89,-30 -129,-55z"/>
  <path id="9" class="fil2" d="M7547 1648l172 -361 -246 -516 238 0 85 219c8,19 14,36 19,52 4,16 8,31 10,44 3,-14 6,-29 11,-45 4,-15 10,-32 18,-51l86 -219 229 0 -382 877 -240 0z"/>
  <path id="10" class="fil2" d="M9278 531l0 263c-32,-37 -65,-63 -98,-80 -33,-18 -68,-26 -105,-26 -69,0 -125,23 -168,71 -43,47 -64,108 -64,184 0,71 21,130 65,176 44,47 99,70 167,70 37,0 72,-8 105,-25 33,-17 66,-44 98,-81l0 263c-38,18 -76,32 -113,42 -38,9 -76,13 -115,13 -48,0 -93,-5 -133,-17 -41,-11 -78,-29 -113,-52 -65,-44 -116,-100 -150,-167 -35,-67 -52,-143 -52,-227 0,-67 11,-128 33,-184 22,-55 55,-105 99,-150 42,-43 89,-75 141,-97 53,-21 111,-32 175,-32 39,0 77,5 115,14 37,9 75,23 113,42z"/>
  <path id="11" class="fil2" d="M9401 1379l0 -608 202 0 0 143c21,-53 50,-92 86,-118 36,-26 80,-39 132,-39 8,0 17,0 25,1 9,0 18,1 26,3l-21 195c-12,-5 -25,-8 -37,-10 -13,-2 -25,-3 -37,-3 -52,0 -92,16 -120,48 -28,32 -43,77 -43,136l0 252 -213 0z"/>
  <path id="12" class="fil2" d="M10371 996c-4,-34 -17,-62 -40,-83 -22,-21 -49,-31 -82,-31 -35,0 -63,9 -84,28 -20,19 -34,48 -41,86l247 0zm211 121l-463 0c1,47 13,84 36,109 24,26 58,38 101,38 33,0 60,-6 83,-18 22,-12 39,-30 51,-54l161 65c-19,46 -53,82 -102,108 -49,25 -109,38 -181,38 -106,0 -191,-30 -255,-89 -64,-59 -96,-136 -96,-233 0,-95 32,-173 96,-236 64,-63 145,-94 243,-94 101,0 180,31 239,95 58,64 87,151 87,261l0 10zm-158 -640l-186 211 -93 0 110 -211 169 0z"/>
  <path id="13" class="fil2" d="M11170 1075c0,-47 -12,-84 -37,-112 -25,-27 -59,-41 -103,-41 -43,0 -77,14 -102,41 -25,28 -37,65 -37,112 0,48 12,86 37,113 24,27 59,41 102,41 44,0 78,-14 103,-41 25,-28 37,-65 37,-113zm191 -630l0 934 -198 0 0 -99c-27,41 -58,72 -92,92 -34,21 -72,31 -114,31 -85,0 -153,-30 -204,-89 -51,-59 -76,-139 -76,-239 0,-97 25,-175 76,-235 50,-59 116,-89 197,-89 51,0 93,9 126,28 32,18 61,49 86,93 -2,-15 -4,-31 -5,-50 -2,-18 -2,-38 -2,-59l0 -318 206 0z"/>
  <path id="14" class="fil2" d="M11516 580c0,-32 11,-60 34,-83 23,-22 51,-34 84,-34 34,0 62,11 84,34 23,22 35,50 35,83 0,34 -12,62 -35,85 -23,23 -51,35 -84,35 -32,0 -60,-12 -83,-35 -24,-24 -35,-52 -35,-85zm11 799l0 -608 215 0 0 608 -215 0z"/>
  <polygon id="15" class="fil2" points="11939,1379 11939,922 11848,922 11848,771 11939,771 11939,589 12150,589 12150,771 12242,771 12242,922 12150,922 12150,1379 "/>
  <path id="16" class="fil2" d="M12774 1076c0,-45 -12,-81 -35,-107 -22,-26 -54,-39 -92,-39 -40,0 -71,13 -94,39 -22,26 -34,62 -34,107 0,46 12,82 34,108 23,25 54,38 94,38 39,0 70,-13 93,-38 22,-26 34,-62 34,-108zm213 0c0,44 -8,86 -25,125 -17,40 -42,75 -75,106 -33,32 -70,56 -110,72 -41,16 -85,24 -130,24 -47,0 -91,-8 -131,-24 -41,-16 -78,-40 -110,-72 -32,-30 -57,-65 -74,-105 -17,-39 -25,-81 -25,-126 0,-44 8,-86 25,-126 17,-39 41,-74 74,-106 32,-31 68,-54 109,-70 41,-15 84,-23 132,-23 47,0 91,8 131,23 41,16 77,39 109,70 33,32 58,68 75,107 17,39 25,81 25,125z"/>
  <path id="17" class="fil2" d="M13054 1329l45 -165c31,28 66,49 103,64 38,14 76,22 114,22 27,0 47,-5 61,-13 15,-9 22,-22 22,-38 0,-27 -29,-47 -86,-61 -18,-4 -33,-8 -44,-11 -65,-18 -111,-41 -140,-70 -29,-28 -44,-66 -44,-111 0,-60 22,-107 67,-142 44,-36 104,-53 180,-53 39,0 79,4 119,13 41,9 82,23 124,42l-45 148c-28,-19 -57,-34 -86,-44 -30,-10 -59,-15 -88,-15 -25,0 -43,4 -56,12 -13,7 -19,18 -19,33 0,21 28,40 85,55 13,3 22,6 29,8 74,21 126,46 155,75 29,28 44,67 44,116 0,62 -24,113 -72,151 -48,39 -111,58 -190,58 -53,0 -103,-6 -149,-19 -46,-12 -89,-30 -129,-55z"/>
 </g>
</svg>
