<?xml version="1.0" encoding="UTF-8"?>
<!DOCTYPE svg PUBLIC "-//W3C//DTD SVG 1.1//EN" "http://www.w3.org/Graphics/SVG/1.1/DTD/svg11.dtd">
<!-- Creator: CorelDRAW X7 -->
<svg xmlns="http://www.w3.org/2000/svg" xml:space="preserve" width="190.5mm" height="153.077mm" version="1.1" style="shape-rendering:geometricPrecision; text-rendering:geometricPrecision; image-rendering:optimizeQuality; fill-rule:evenodd; clip-rule:evenodd"
viewBox="0 0 19050 15308"
 xmlns:xlink="http://www.w3.org/1999/xlink">
 <defs>
  <style type="text/css">
   <![CDATA[
    .fil1 {fill:#2B2A29;fill-rule:nonzero}
    .fil0 {fill:#75D1B0;fill-rule:nonzero}
    .fil2 {fill:white;fill-rule:nonzero}
   ]]>
  </style>
 </defs>
 <g id="Capa_x0020_1">
  <metadata id="CorelCorpID_0Corel-Layer"/>
  <polygon class="fil0" points="0,0 19050,0 19050,15308 0,15308 "/>
  <path class="fil1" d="M1467 2226l29 0c61,0 102,-7 123,-20 20,-14 30,-37 30,-71 0,-36 -11,-62 -33,-77 -21,-15 -62,-22 -120,-22l-29 0 0 190zm-6 90l0 306 -104 0 0 -681 167 0c50,0 86,2 110,8 23,5 44,14 61,27 22,15 38,37 50,63 13,27 19,57 19,89 0,32 -6,62 -19,89 -12,28 -28,49 -50,65 -17,12 -38,21 -61,26 -24,5 -60,8 -110,8l-22 0 -41 0z"/>
  <path id="1" class="fil1" d="M2236 2622l-100 0 0 -57c-18,25 -40,44 -64,56 -24,13 -51,19 -82,19 -62,0 -112,-21 -147,-64 -36,-43 -54,-101 -54,-175 0,-71 18,-127 55,-171 36,-43 84,-64 143,-64 36,0 67,7 92,22 26,15 45,37 57,65l0 -72 100 0 0 441zm-98 -222c0,-46 -10,-81 -32,-107 -21,-25 -50,-38 -89,-38 -38,0 -68,13 -90,39 -22,27 -32,63 -32,110 0,46 10,83 31,108 21,26 51,38 89,38 37,0 66,-13 89,-41 23,-28 34,-64 34,-109z"/>
  <path id="2" class="fil1" d="M2477 2251c10,-29 25,-51 43,-65 17,-13 40,-20 66,-20 14,0 28,1 42,5 14,3 28,8 41,14l-36 86c-9,-6 -19,-11 -29,-13 -10,-3 -21,-5 -33,-5 -34,0 -58,13 -73,40 -14,27 -21,72 -21,135l0 194 -101 0 0 -442 101 0 0 71z"/>
  <path id="3" class="fil1" d="M3142 2622l-101 0 0 -57c-18,25 -39,44 -63,56 -25,13 -52,19 -83,19 -62,0 -112,-21 -147,-64 -36,-43 -54,-101 -54,-175 0,-71 18,-127 55,-171 36,-43 84,-64 143,-64 36,0 67,7 93,22 25,15 44,37 56,65l0 -72 101 0 0 441zm-99 -222c0,-46 -10,-81 -31,-107 -22,-25 -51,-38 -90,-38 -38,0 -68,13 -90,39 -21,27 -32,63 -32,110 0,46 10,83 31,108 21,26 51,38 90,38 36,0 65,-13 88,-41 23,-28 34,-64 34,-109z"/>
  <path id="4" class="fil1" d="M3983 2622l-101 0 0 -57c-18,25 -39,44 -63,56 -24,13 -51,19 -82,19 -63,0 -112,-21 -147,-64 -36,-43 -54,-101 -54,-175 0,-71 18,-127 55,-171 36,-43 84,-64 143,-64 36,0 67,7 92,22 26,15 45,37 56,65l0 -72 101 0 0 441zm-98 -222c0,-46 -10,-81 -32,-107 -21,-25 -51,-38 -89,-38 -38,0 -68,13 -90,39 -22,27 -33,63 -33,110 0,46 11,83 32,108 21,26 51,38 89,38 37,0 66,-13 89,-41 23,-28 34,-64 34,-109z"/>
  <path id="5" class="fil1" d="M4452 2306c-16,-16 -33,-30 -54,-38 -21,-9 -43,-14 -67,-14 -41,0 -74,13 -99,40 -25,27 -37,62 -37,106 0,46 12,82 37,108 25,26 60,39 104,39 24,0 46,-4 65,-13 20,-9 36,-23 51,-42l0 116c-19,11 -39,19 -60,24 -21,5 -44,8 -67,8 -70,0 -126,-22 -170,-66 -43,-44 -65,-101 -65,-171 0,-71 23,-129 68,-172 45,-44 104,-65 177,-65 23,0 44,2 63,6 19,5 37,12 54,21l0 113z"/>
  <path id="6" class="fil1" d="M4980 2416l-353 0c3,41 15,74 37,97 22,23 52,34 88,34 33,0 60,-6 81,-20 22,-14 41,-36 57,-66l85 47c-25,45 -55,78 -92,99 -36,22 -80,33 -129,33 -71,0 -127,-22 -169,-65 -41,-43 -62,-100 -62,-172 0,-70 21,-126 65,-171 43,-44 98,-66 166,-66 71,0 127,20 166,60 40,41 60,98 60,171l0 19zm-105 -68c-4,-31 -16,-55 -36,-72 -20,-17 -48,-25 -83,-25 -33,0 -60,8 -80,24 -20,17 -34,41 -42,73l241 0z"/>
  <path id="7" class="fil1" d="M5186 2251c11,-29 25,-51 43,-65 18,-13 40,-20 66,-20 15,0 29,1 42,5 14,3 28,8 41,14l-36 86c-9,-6 -18,-11 -28,-13 -10,-3 -22,-5 -34,-5 -34,0 -58,13 -72,40 -15,27 -22,72 -22,135l0 194 -101 0 0 -442 101 0 0 71z"/>
  <path id="8" class="fil1" d="M5765 2306c-16,-16 -33,-30 -54,-38 -21,-9 -43,-14 -67,-14 -41,0 -74,13 -99,40 -25,27 -37,62 -37,106 0,46 12,82 37,108 25,26 60,39 104,39 24,0 46,-4 65,-13 20,-9 36,-23 51,-42l0 116c-19,11 -39,19 -60,24 -21,5 -44,8 -67,8 -70,0 -126,-22 -170,-66 -43,-44 -65,-101 -65,-171 0,-71 23,-129 68,-172 45,-44 104,-65 177,-65 23,0 44,2 63,6 19,5 37,12 54,21l0 113z"/>
  <path id="9" class="fil1" d="M6283 2622l-101 0 0 -57c-18,25 -39,44 -63,56 -24,13 -51,19 -82,19 -63,0 -112,-21 -148,-64 -35,-43 -53,-101 -53,-175 0,-71 18,-127 55,-171 36,-43 84,-64 143,-64 36,0 67,7 92,22 26,15 45,37 56,65l0 -72 101 0 0 441zm-98 -222c0,-46 -10,-81 -32,-107 -21,-25 -51,-38 -89,-38 -38,0 -68,13 -90,39 -22,27 -33,63 -33,110 0,46 11,83 32,108 21,26 51,38 89,38 37,0 66,-13 89,-41 23,-28 34,-64 34,-109z"/>
  <path id="10" class="fil1" d="M6523 2251c11,-29 26,-51 43,-65 18,-13 40,-20 67,-20 14,0 28,1 42,5 14,3 27,8 41,14l-37 86c-8,-6 -18,-11 -28,-13 -10,-3 -21,-5 -33,-5 -34,0 -58,13 -73,40 -14,27 -22,72 -22,135l0 194 -101 0 0 -442 101 0 0 71z"/>
  <path id="11" class="fil1" d="M7485 2416l-352 0c3,41 15,74 37,97 22,23 51,34 88,34 32,0 59,-6 81,-20 22,-14 41,-36 57,-66l85 47c-25,45 -56,78 -92,99 -37,22 -80,33 -129,33 -71,0 -127,-22 -169,-65 -42,-43 -63,-100 -63,-172 0,-70 22,-126 65,-171 43,-44 99,-66 167,-66 71,0 126,20 166,60 40,41 59,98 59,171l0 19zm-104 -68c-4,-31 -16,-55 -37,-72 -20,-17 -47,-25 -82,-25 -33,0 -60,8 -80,24 -20,17 -34,41 -43,73l242 0z"/>
  <polygon id="12" class="fil1" points="7595,2622 7595,1901 7696,1901 7696,2622 "/>
  <path id="13" class="fil1" d="M8226 2181l0 248c0,43 9,74 26,92 18,19 46,28 86,28 40,0 68,-9 86,-28 18,-18 26,-49 26,-92l0 -248 101 0 0 218c0,84 -16,146 -50,184 -34,38 -88,57 -162,57 -75,0 -130,-19 -164,-57 -33,-38 -50,-99 -50,-184l0 -218 101 0z"/>
  <path id="14" class="fil1" d="M8637 2542l84 -46c6,22 17,39 34,50 17,12 39,18 65,18 22,0 40,-6 53,-16 13,-10 19,-25 19,-43 0,-23 -23,-44 -68,-61 -16,-6 -28,-10 -36,-14 -47,-20 -80,-39 -99,-60 -19,-20 -28,-44 -28,-73 0,-39 15,-71 46,-96 31,-24 72,-36 123,-36 34,0 63,6 87,18 24,13 42,31 53,54l-71 49c-5,-13 -15,-25 -28,-33 -13,-8 -28,-12 -46,-12 -19,0 -34,4 -46,13 -11,10 -17,22 -17,37 0,23 26,44 78,63 16,6 29,11 38,14 40,16 70,35 87,55 18,20 26,46 26,76 0,44 -16,78 -48,103 -32,25 -76,38 -132,38 -43,0 -79,-8 -107,-24 -29,-16 -51,-41 -67,-74z"/>
  <path id="15" class="fil1" d="M9440 2403c0,-41 -13,-76 -40,-104 -26,-29 -58,-43 -96,-43 -38,0 -70,14 -97,43 -26,28 -40,63 -40,104 0,41 14,75 40,104 27,28 59,42 97,42 37,0 70,-14 96,-42 27,-29 40,-63 40,-104zm-379 -1c0,-32 6,-63 18,-92 12,-28 30,-54 53,-76 23,-22 49,-39 78,-51 30,-12 60,-17 93,-17 33,0 64,5 93,17 30,12 56,29 79,52 24,23 41,48 53,77 12,28 18,58 18,90 0,32 -6,63 -17,91 -12,29 -30,54 -53,76 -24,23 -51,41 -80,53 -30,12 -61,18 -93,18 -32,0 -63,-6 -92,-18 -30,-12 -56,-29 -79,-52 -23,-23 -41,-49 -53,-77 -12,-29 -18,-59 -18,-91z"/>
  <path id="16" class="fil1" d="M10258 2400c0,-46 -11,-81 -32,-107 -22,-25 -51,-38 -89,-38 -39,0 -69,13 -90,39 -22,27 -33,63 -33,110 0,46 10,83 31,108 22,26 51,38 90,38 36,0 66,-13 89,-41 22,-27 34,-64 34,-109zm-3 -499l101 0 0 721 -101 0 0 -57c-18,25 -39,44 -63,56 -24,13 -52,19 -83,19 -62,0 -111,-21 -147,-64 -36,-43 -54,-101 -54,-175 0,-71 18,-127 55,-171 37,-43 84,-64 143,-64 36,0 67,7 93,22 25,15 44,37 56,65l0 -352z"/>
  <path id="17" class="fil1" d="M10920 2416l-353 0c3,41 15,74 37,97 22,23 51,34 88,34 33,0 60,-6 81,-20 22,-14 41,-36 57,-66l85 47c-25,45 -56,78 -92,99 -37,22 -80,33 -129,33 -71,0 -127,-22 -169,-65 -42,-43 -63,-100 -63,-172 0,-70 22,-126 65,-171 44,-44 99,-66 167,-66 71,0 126,20 166,60 40,41 60,98 60,171l0 19zm-105 -68c-4,-31 -16,-55 -36,-72 -20,-17 -48,-25 -83,-25 -33,0 -60,8 -80,24 -20,17 -34,41 -42,73l241 0z"/>
  <polygon id="18" class="fil1" points="11317,2622 11317,1901 11418,1901 11418,2622 "/>
  <path id="19" class="fil1" d="M11977 2622l-101 0 0 -57c-18,25 -39,44 -63,56 -24,13 -51,19 -83,19 -62,0 -111,-21 -147,-64 -36,-43 -54,-101 -54,-175 0,-71 19,-127 55,-171 37,-43 85,-64 144,-64 36,0 67,7 92,22 26,15 44,37 56,65l0 -72 101 0 0 441zm-98 -222c0,-46 -11,-81 -32,-107 -21,-25 -51,-38 -89,-38 -38,0 -68,13 -90,39 -22,27 -33,63 -33,110 0,46 11,83 32,108 21,26 51,38 89,38 36,0 66,-13 89,-41 23,-28 34,-64 34,-109z"/>
  <polygon id="20" class="fil1" points="12427,2622 12427,2269 12350,2269 12350,2181 12427,2181 12427,2014 12528,2014 12528,2181 12606,2181 12606,2269 12528,2269 12528,2622 "/>
  <path id="21" class="fil1" d="M12684 1990c0,-17 6,-31 19,-44 12,-12 27,-19 45,-19 18,0 33,6 45,18 12,12 18,27 18,45 0,18 -6,33 -19,46 -12,12 -27,18 -44,18 -18,0 -33,-6 -45,-19 -13,-12 -19,-27 -19,-45zm13 632l0 -441 101 0 0 441 -101 0z"/>
  <path id="22" class="fil1" d="M13367 2416l-352 0c2,41 14,74 36,97 22,23 52,34 88,34 33,0 60,-6 82,-20 21,-14 40,-36 56,-66l85 47c-25,45 -55,78 -92,99 -36,22 -79,33 -129,33 -70,0 -127,-22 -169,-65 -41,-43 -62,-100 -62,-172 0,-70 21,-126 65,-171 43,-44 98,-66 166,-66 71,0 127,20 166,60 40,41 60,98 60,171l0 19zm-105 -68c-4,-31 -16,-55 -36,-72 -20,-17 -48,-25 -83,-25 -33,0 -60,8 -80,24 -20,17 -34,41 -42,73l241 0z"/>
  <path id="23" class="fil1" d="M13573 2251c11,-29 25,-51 43,-65 18,-13 40,-20 66,-20 15,0 29,1 42,5 14,3 28,8 41,14l-36 86c-9,-6 -18,-11 -28,-13 -10,-3 -22,-5 -34,-5 -34,0 -58,13 -72,40 -15,27 -22,72 -22,135l0 194 -101 0 0 -442 101 0 0 71z"/>
  <path id="24" class="fil1" d="M13924 2251c10,-29 25,-51 43,-65 18,-13 40,-20 66,-20 14,0 28,1 42,5 14,3 28,8 41,14l-36 86c-9,-6 -19,-11 -29,-13 -10,-3 -21,-5 -33,-5 -34,0 -58,13 -73,40 -14,27 -21,72 -21,135l0 194 -101 0 0 -442 101 0 0 71z"/>
  <path id="25" class="fil1" d="M14589 2622l-101 0 0 -57c-18,25 -39,44 -63,56 -25,13 -52,19 -83,19 -62,0 -112,-21 -147,-64 -36,-43 -54,-101 -54,-175 0,-71 18,-127 55,-171 36,-43 84,-64 143,-64 36,0 67,7 93,22 25,15 44,37 56,65l0 -72 101 0 0 441zm-99 -222c0,-46 -10,-81 -31,-107 -22,-25 -51,-38 -90,-38 -38,0 -68,13 -90,39 -21,27 -32,63 -32,110 0,46 10,83 31,108 21,26 51,38 90,38 36,0 65,-13 88,-41 23,-28 34,-64 34,-109z"/>
  <path id="26" class="fil1" d="M15430 2622l-101 0 0 -57c-17,25 -39,44 -63,56 -24,13 -51,19 -82,19 -63,0 -112,-21 -147,-64 -36,-43 -54,-101 -54,-175 0,-71 18,-127 55,-171 36,-43 84,-64 143,-64 36,0 67,7 92,22 26,15 45,37 56,65l0 -72 101 0 0 441zm-98 -222c0,-46 -10,-81 -32,-107 -21,-25 -51,-38 -89,-38 -38,0 -68,13 -90,39 -22,27 -33,63 -33,110 0,46 11,83 32,108 21,26 51,38 89,38 37,0 66,-13 89,-41 23,-28 34,-64 34,-109z"/>
  <path id="27" class="fil1" d="M15806 2542l84 -46c7,22 18,39 35,50 16,12 38,18 64,18 23,0 41,-6 54,-16 12,-10 19,-25 19,-43 0,-23 -23,-44 -69,-61 -15,-6 -27,-10 -36,-14 -47,-20 -80,-39 -99,-60 -18,-20 -28,-44 -28,-73 0,-39 16,-71 47,-96 30,-24 71,-36 122,-36 34,0 63,6 88,18 24,13 42,31 53,54l-72 49c-5,-13 -14,-25 -27,-33 -14,-8 -29,-12 -46,-12 -19,0 -35,4 -46,13 -12,10 -18,22 -18,37 0,23 26,44 78,63 17,6 29,11 38,14 41,16 70,35 88,55 17,20 26,46 26,76 0,44 -16,78 -48,103 -32,25 -76,38 -132,38 -43,0 -79,-8 -108,-24 -28,-16 -50,-41 -67,-74z"/>
  <path id="28" class="fil1" d="M16361 2181l0 248c0,43 9,74 26,92 18,19 46,28 86,28 40,0 68,-9 86,-28 18,-18 26,-49 26,-92l0 -248 101 0 0 218c0,84 -16,146 -50,184 -34,38 -88,57 -162,57 -75,0 -130,-19 -164,-57 -33,-38 -50,-99 -50,-184l0 -218 101 0z"/>
  <path id="29" class="fil1" d="M1503 3790l-231 -468 110 0 97 222c3,7 7,17 11,31 4,14 9,30 13,49 4,-13 7,-27 11,-40 4,-13 10,-26 15,-40l96 -222 110 0 -232 468z"/>
  <path id="30" class="fil1" d="M2145 3544c0,-41 -13,-75 -40,-104 -26,-28 -58,-42 -96,-42 -38,0 -70,14 -97,42 -27,29 -40,63 -40,104 0,41 13,76 40,105 27,28 59,42 97,42 37,0 70,-14 96,-42 27,-29 40,-64 40,-105zm-379 -1c0,-32 6,-62 18,-91 12,-29 30,-54 53,-76 22,-22 48,-39 78,-51 30,-12 60,-18 93,-18 33,0 64,6 93,18 30,12 56,29 79,52 23,23 41,48 53,77 12,28 18,58 18,89 0,33 -6,64 -18,92 -11,29 -29,54 -52,76 -24,23 -51,41 -80,53 -30,12 -61,18 -93,18 -32,0 -63,-6 -93,-18 -29,-12 -55,-30 -78,-52 -23,-23 -41,-49 -53,-77 -12,-29 -18,-59 -18,-92z"/>
  <path id="31" class="fil1" d="M2687 3448c-15,-17 -33,-30 -54,-39 -20,-9 -43,-13 -66,-13 -42,0 -75,13 -100,40 -24,27 -37,62 -37,106 0,46 13,82 38,108 25,26 59,39 103,39 25,0 47,-4 66,-13 19,-10 36,-23 50,-42l0 116c-18,11 -38,18 -59,24 -21,5 -44,8 -68,8 -69,0 -126,-22 -169,-66 -44,-44 -65,-102 -65,-172 0,-71 22,-128 67,-171 45,-44 104,-66 177,-66 23,0 44,2 64,7 19,5 37,12 53,21l0 113z"/>
  <path id="32" class="fil1" d="M3206 3763l-101 0 0 -56c-18,25 -39,44 -63,56 -24,12 -52,19 -83,19 -62,0 -111,-22 -147,-64 -36,-43 -54,-101 -54,-175 0,-71 18,-128 55,-171 37,-43 85,-65 143,-65 36,0 67,8 93,23 25,15 44,36 56,64l0 -72 101 0 0 441zm-98 -221c0,-46 -11,-82 -32,-107 -21,-26 -51,-38 -89,-38 -39,0 -69,13 -90,39 -22,26 -33,63 -33,109 0,47 10,83 31,109 22,25 51,38 90,38 36,0 66,-14 88,-41 23,-28 35,-64 35,-109z"/>
  <path id="33" class="fil1" d="M3674 3448c-15,-17 -33,-30 -54,-39 -20,-9 -43,-13 -67,-13 -41,0 -74,13 -99,40 -24,27 -37,62 -37,106 0,46 13,82 38,108 25,26 59,39 103,39 25,0 47,-4 66,-13 19,-10 36,-23 50,-42l0 116c-18,11 -38,18 -59,24 -22,5 -44,8 -68,8 -69,0 -126,-22 -169,-66 -44,-44 -66,-102 -66,-172 0,-71 23,-128 68,-171 45,-44 104,-66 177,-66 23,0 44,2 63,7 20,5 38,12 54,21l0 113z"/>
  <path id="34" class="fil1" d="M3769 3132c0,-17 6,-32 19,-44 12,-13 27,-19 45,-19 18,0 33,6 45,18 12,12 18,27 18,45 0,18 -6,33 -19,45 -12,13 -27,19 -44,19 -18,0 -33,-7 -45,-19 -13,-13 -19,-28 -19,-45zm13 631l0 -441 101 0 0 441 -101 0z"/>
  <path id="35" class="fil1" d="M4374 3544c0,-41 -13,-75 -40,-104 -26,-28 -58,-42 -96,-42 -38,0 -70,14 -97,42 -26,29 -40,63 -40,104 0,41 14,76 40,105 27,28 59,42 97,42 37,0 70,-14 96,-42 27,-29 40,-64 40,-105zm-379 -1c0,-32 6,-62 18,-91 12,-29 30,-54 53,-76 23,-22 49,-39 78,-51 30,-12 60,-18 93,-18 33,0 64,6 94,18 29,12 55,29 78,52 24,23 41,48 53,77 13,28 19,58 19,89 0,33 -6,64 -18,92 -12,29 -30,54 -53,76 -24,23 -51,41 -80,53 -30,12 -61,18 -93,18 -32,0 -63,-6 -92,-18 -30,-12 -56,-30 -79,-52 -23,-23 -41,-49 -53,-77 -12,-29 -18,-59 -18,-92zm177 -287l89 -127 104 0 -136 127 -57 0z"/>
  <path id="36" class="fil1" d="M4587 3763l0 -441 95 0 0 73c20,-31 44,-53 71,-67 27,-14 61,-21 100,-21 33,0 61,5 84,16 23,10 41,26 54,46 8,12 13,26 17,43 3,16 5,44 5,84l0 267 -102 0 0 -226c0,-58 -7,-96 -21,-115 -14,-20 -39,-29 -75,-29 -24,0 -45,4 -63,13 -19,9 -33,21 -44,37 -7,10 -13,24 -16,40 -3,17 -4,43 -4,80l0 200 -101 0z"/>
  <path id="37" class="fil1" d="M5859 3558l-352 0c2,41 15,73 37,96 22,24 51,35 88,35 32,0 59,-7 81,-20 22,-14 41,-36 57,-66l85 47c-25,44 -56,77 -93,99 -36,22 -79,33 -128,33 -71,0 -127,-22 -169,-65 -42,-43 -63,-101 -63,-173 0,-69 22,-125 65,-170 43,-45 99,-67 167,-67 71,0 126,21 166,61 39,41 59,98 59,171l0 19zm-104 -68c-4,-31 -17,-56 -37,-72 -20,-17 -47,-25 -82,-25 -34,0 -60,8 -80,24 -20,16 -35,41 -43,73l242 0z"/>
  <polygon id="38" class="fil1" points="5969,3763 5969,3042 6070,3042 6070,3763 "/>
  <path id="39" class="fil1" d="M6819 3542c0,-46 -11,-82 -32,-107 -22,-26 -51,-38 -89,-38 -39,0 -69,13 -90,39 -22,26 -33,63 -33,109 0,47 10,83 31,109 21,25 51,38 90,38 36,0 66,-14 88,-41 23,-28 35,-64 35,-109zm98 194c0,86 -17,147 -52,182 -34,36 -92,53 -174,53 -61,0 -109,-13 -146,-38 -36,-26 -54,-60 -55,-103l108 0c2,19 11,33 27,43 16,10 39,15 68,15 43,0 74,-9 93,-28 19,-19 29,-51 29,-95l1 -58c-18,25 -39,44 -63,56 -24,12 -52,19 -83,19 -62,0 -111,-22 -147,-64 -36,-43 -54,-101 -54,-175 0,-71 18,-128 55,-171 37,-43 84,-65 143,-65 36,0 67,8 93,23 25,15 44,36 56,64l0 -72 101 0 0 414z"/>
  <path id="40" class="fil1" d="M7403 3544c0,-41 -14,-75 -40,-104 -26,-28 -59,-42 -97,-42 -37,0 -70,14 -96,42 -27,29 -40,63 -40,104 0,41 13,76 40,105 26,28 59,42 96,42 38,0 70,-14 97,-42 26,-29 40,-64 40,-105zm-380 -1c0,-32 7,-62 19,-91 12,-29 30,-54 53,-76 22,-22 48,-39 78,-51 29,-12 60,-18 92,-18 34,0 65,6 94,18 29,12 56,29 79,52 23,23 41,48 53,77 12,28 18,58 18,89 0,33 -6,64 -18,92 -12,29 -29,54 -52,76 -24,23 -51,41 -81,53 -29,12 -60,18 -93,18 -32,0 -62,-6 -92,-18 -29,-12 -55,-30 -78,-52 -24,-23 -41,-49 -53,-77 -13,-29 -19,-59 -19,-92z"/>
  <path id="41" class="fil1" d="M7713 3542c0,45 12,81 35,109 23,27 53,41 90,41 38,0 67,-13 88,-38 21,-26 32,-62 32,-109 0,-46 -11,-83 -33,-109 -22,-26 -52,-39 -90,-39 -38,0 -68,12 -89,38 -22,25 -33,61 -33,107zm4 -500l0 352c11,-27 30,-49 56,-64 26,-15 57,-23 93,-23 59,0 106,22 143,65 36,43 54,100 54,171 0,74 -18,132 -53,175 -36,42 -85,64 -148,64 -31,0 -58,-7 -82,-19 -24,-12 -45,-31 -63,-56l0 56 -101 0 0 -721 101 0z"/>
  <path id="42" class="fil1" d="M8162 3132c0,-17 6,-32 18,-44 13,-13 28,-19 45,-19 18,0 33,6 45,18 12,12 18,27 18,45 0,18 -6,33 -18,45 -12,13 -27,19 -45,19 -17,0 -32,-7 -45,-19 -12,-13 -18,-28 -18,-45zm13 631l0 -441 101 0 0 441 -101 0z"/>
  <path id="43" class="fil1" d="M8845 3558l-353 0c3,41 15,73 37,96 22,24 51,35 88,35 32,0 60,-7 81,-20 22,-14 41,-36 57,-66l85 47c-25,44 -56,77 -92,99 -37,22 -80,33 -129,33 -71,0 -127,-22 -169,-65 -42,-43 -63,-101 -63,-173 0,-69 22,-125 65,-170 44,-45 99,-67 167,-67 71,0 126,21 166,61 40,41 60,98 60,171l0 19zm-105 -68c-4,-31 -16,-56 -36,-72 -21,-17 -48,-25 -83,-25 -33,0 -60,8 -80,24 -20,16 -34,41 -42,73l241 0z"/>
  <path id="44" class="fil1" d="M9051 3393c10,-29 25,-51 43,-65 17,-14 40,-21 66,-21 14,0 28,2 42,5 14,4 28,9 41,15l-36 86c-9,-6 -19,-11 -29,-14 -10,-3 -21,-4 -33,-4 -34,0 -58,13 -73,40 -14,27 -21,72 -21,135l0 193 -101 0 0 -441 101 0 0 71z"/>
  <path id="45" class="fil1" d="M9300 3763l0 -441 95 0 0 73c20,-31 44,-53 71,-67 28,-14 61,-21 100,-21 33,0 61,5 84,16 23,10 41,26 54,46 8,12 13,26 17,43 3,16 5,44 5,84l0 267 -102 0 0 -226c0,-58 -7,-96 -21,-115 -14,-20 -39,-29 -75,-29 -24,0 -45,4 -63,13 -19,9 -33,21 -44,37 -7,10 -13,24 -15,40 -3,17 -5,43 -5,80l0 200 -101 0z"/>
  <path id="46" class="fil1" d="M10207 3544c0,-41 -13,-75 -40,-104 -26,-28 -58,-42 -96,-42 -38,0 -70,14 -97,42 -26,29 -40,63 -40,104 0,41 14,76 40,105 27,28 59,42 97,42 37,0 70,-14 96,-42 27,-29 40,-64 40,-105zm-379 -1c0,-32 6,-62 18,-91 12,-29 30,-54 53,-76 23,-22 49,-39 78,-51 30,-12 60,-18 93,-18 33,0 64,6 93,18 30,12 56,29 79,52 24,23 41,48 53,77 12,28 19,58 19,89 0,33 -7,64 -18,92 -12,29 -30,54 -53,76 -24,23 -51,41 -80,53 -30,12 -61,18 -93,18 -32,0 -63,-6 -92,-18 -30,-12 -56,-30 -79,-52 -23,-23 -41,-49 -53,-77 -12,-29 -18,-59 -18,-92z"/>
  <path id="47" class="fil1" d="M11025 3542c0,-46 -11,-82 -32,-107 -21,-26 -51,-38 -89,-38 -39,0 -69,13 -90,39 -22,26 -33,63 -33,109 0,47 10,83 31,109 22,25 51,38 90,38 36,0 66,-14 89,-41 22,-28 34,-64 34,-109zm-3 -500l101 0 0 721 -101 0 0 -56c-18,25 -39,44 -63,56 -24,12 -52,19 -83,19 -62,0 -111,-22 -147,-64 -36,-43 -54,-101 -54,-175 0,-71 18,-128 55,-171 37,-43 85,-65 143,-65 36,0 67,8 93,23 25,15 44,36 56,64l0 -352z"/>
  <path id="48" class="fil1" d="M11677 3763l-101 0 0 -56c-18,25 -39,44 -63,56 -24,12 -51,19 -83,19 -62,0 -111,-22 -147,-64 -36,-43 -53,-101 -53,-175 0,-71 18,-128 54,-171 37,-43 85,-65 144,-65 36,0 67,8 92,23 26,15 44,36 56,64l0 -72 101 0 0 441zm-98 -221c0,-46 -11,-82 -32,-107 -21,-26 -51,-38 -89,-38 -38,0 -68,13 -90,39 -22,26 -33,63 -33,109 0,47 11,83 32,109 21,25 51,38 89,38 37,0 66,-14 89,-41 23,-28 34,-64 34,-109z"/>
  <path id="49" class="fil1" d="M11917 3393c11,-29 25,-51 43,-65 18,-14 40,-21 67,-21 14,0 28,2 42,5 14,4 27,9 41,15l-37 86c-8,-6 -18,-11 -28,-14 -10,-3 -21,-4 -34,-4 -33,0 -57,13 -72,40 -14,27 -22,72 -22,135l0 193 -101 0 0 -441 101 0 0 71z"/>
  <path id="50" class="fil1" d="M12582 3763l-101 0 0 -56c-18,25 -39,44 -63,56 -24,12 -51,19 -82,19 -63,0 -112,-22 -148,-64 -36,-43 -53,-101 -53,-175 0,-71 18,-128 54,-171 37,-43 85,-65 144,-65 36,0 67,8 92,23 26,15 45,36 56,64l0 -72 101 0 0 441zm-98 -221c0,-46 -11,-82 -32,-107 -21,-26 -51,-38 -89,-38 -38,0 -68,13 -90,39 -22,26 -33,63 -33,109 0,47 11,83 32,109 21,25 51,38 89,38 37,0 66,-14 89,-41 23,-28 34,-64 34,-109zm-170 -286l88 -127 105 0 -136 127 -57 0z"/>
  <polygon id="51" class="fil1" points="1353,4905 1353,4184 1454,4184 1454,4905 "/>
  <path id="52" class="fil1" d="M1589 4274c0,-17 7,-32 19,-45 13,-12 28,-18 45,-18 18,0 33,6 45,18 12,12 18,27 18,45 0,18 -6,33 -18,45 -12,12 -27,19 -45,19 -17,0 -32,-7 -45,-19 -12,-13 -19,-28 -19,-45zm14 631l0 -441 101 0 0 441 -101 0z"/>
  <path id="53" class="fil1" d="M1848 4905l0 -441 95 0 0 73c20,-31 43,-53 71,-67 27,-14 60,-21 99,-21 33,0 61,5 84,16 23,10 42,25 55,46 7,12 13,26 16,42 4,16 5,45 5,85l0 267 -101 0 0 -226c0,-58 -7,-97 -22,-116 -14,-19 -39,-28 -75,-28 -23,0 -44,4 -63,13 -18,8 -33,21 -43,36 -8,11 -13,25 -16,41 -3,17 -4,43 -4,79l0 201 -101 0z"/>
  <path id="54" class="fil1" d="M2832 4699l-352 0c3,42 15,74 37,97 22,23 51,35 88,35 32,0 59,-7 81,-21 22,-13 41,-35 57,-66l85 48c-25,44 -56,77 -92,99 -37,22 -80,32 -129,32 -71,0 -127,-21 -169,-64 -42,-43 -63,-101 -63,-173 0,-69 22,-126 65,-170 43,-45 99,-67 167,-67 71,0 126,20 166,61 40,40 59,97 59,170l0 19zm-104 -67c-4,-32 -16,-56 -37,-72 -20,-17 -47,-25 -82,-25 -33,0 -60,8 -80,24 -20,16 -34,40 -43,73l242 0z"/>
  <path id="55" class="fil1" d="M3353 4905l-101 0 0 -57c-18,25 -39,44 -63,57 -24,12 -52,18 -83,18 -62,0 -112,-21 -147,-64 -36,-42 -54,-101 -54,-175 0,-70 18,-127 55,-170 37,-43 84,-65 143,-65 36,0 67,7 93,23 25,14 44,36 56,64l0 -72 101 0 0 441zm-98 -222c0,-45 -11,-81 -32,-106 -22,-26 -51,-38 -89,-38 -39,0 -69,13 -90,39 -22,26 -33,63 -33,109 0,47 10,83 31,109 21,25 51,38 90,38 36,0 66,-14 88,-42 23,-27 35,-64 35,-109z"/>
  <path id="56" class="fil1" d="M3593 4905l-101 0 0 -441 95 0 0 73c20,-31 43,-54 68,-68 26,-14 56,-21 91,-21 34,0 63,7 85,22 23,14 40,36 52,66 23,-31 48,-53 74,-67 26,-14 56,-21 90,-21 29,0 54,5 76,16 22,11 38,26 51,47 5,9 9,21 12,34 3,14 4,33 4,57l0 36 0 267 -101 0 0 -226c0,-59 -6,-98 -19,-117 -13,-19 -35,-28 -67,-28 -40,0 -68,12 -85,38 -17,25 -25,69 -25,132l0 201 -102 0 0 -226c0,-55 -7,-93 -20,-114 -13,-21 -36,-31 -68,-31 -20,0 -38,4 -54,13 -17,9 -30,22 -40,37 -6,11 -10,23 -13,38 -2,15 -3,42 -3,82l0 201z"/>
  <path id="57" class="fil1" d="M4317 4274c0,-17 6,-32 18,-45 13,-12 28,-18 45,-18 18,0 33,6 45,18 12,12 18,27 18,45 0,18 -6,33 -18,45 -12,12 -27,19 -45,19 -17,0 -32,-7 -45,-19 -12,-13 -18,-28 -18,-45zm13 631l0 -441 101 0 0 441 -101 0z"/>
  <path id="58" class="fil1" d="M5000 4699l-353 0c3,42 15,74 37,97 22,23 51,35 88,35 33,0 60,-7 81,-21 22,-13 41,-35 57,-66l85 48c-25,44 -55,77 -92,99 -37,22 -80,32 -129,32 -71,0 -127,-21 -169,-64 -42,-43 -63,-101 -63,-173 0,-69 22,-126 65,-170 44,-45 99,-67 167,-67 71,0 126,20 166,61 40,40 60,97 60,170l0 19zm-105 -67c-4,-32 -16,-56 -36,-72 -20,-17 -48,-25 -83,-25 -33,0 -60,8 -80,24 -20,16 -34,40 -42,73l241 0z"/>
  <path id="59" class="fil1" d="M5105 4905l0 -441 95 0 0 73c20,-31 43,-53 71,-67 27,-14 60,-21 99,-21 33,0 61,5 84,16 23,10 41,25 54,46 8,12 14,26 17,42 4,16 5,45 5,85l0 267 -102 0 0 -226c0,-58 -7,-97 -21,-116 -14,-19 -39,-28 -75,-28 -23,0 -45,4 -63,13 -18,8 -33,21 -43,36 -8,11 -13,25 -16,41 -3,17 -4,43 -4,79l0 201 -101 0z"/>
  <polygon id="60" class="fil1" points="5688,4905 5688,4553 5611,4553 5611,4464 5688,4464 5688,4298 5789,4298 5789,4464 5866,4464 5866,4553 5789,4553 5789,4905 "/>
  <path id="61" class="fil1" d="M6300 4686c0,-41 -13,-76 -40,-104 -26,-28 -58,-43 -96,-43 -38,0 -70,15 -97,43 -26,28 -39,63 -39,104 0,41 13,76 39,104 27,29 59,43 97,43 38,0 70,-14 96,-43 27,-28 40,-63 40,-104zm-379 -1c0,-32 6,-63 18,-91 13,-29 30,-54 53,-77 23,-22 49,-38 78,-50 30,-12 61,-18 93,-18 33,0 64,6 94,18 29,12 55,29 79,52 23,22 40,48 53,77 12,28 18,58 18,89 0,33 -6,63 -18,92 -12,28 -30,54 -53,76 -24,23 -51,40 -80,52 -30,12 -61,18 -93,18 -32,0 -63,-6 -92,-18 -30,-12 -56,-29 -79,-51 -23,-23 -41,-49 -53,-78 -12,-28 -18,-59 -18,-91z"/>
  <path id="62" class="fil1" d="M6463 4825l84 -46c6,23 17,39 34,51 17,11 38,17 64,17 23,0 41,-5 54,-15 13,-11 19,-25 19,-43 0,-24 -23,-44 -69,-62 -15,-5 -27,-10 -35,-14 -48,-19 -81,-39 -99,-59 -19,-20 -28,-45 -28,-73 0,-40 15,-72 46,-96 31,-25 71,-37 122,-37 34,0 64,6 88,19 24,12 42,30 53,54l-72 49c-5,-14 -14,-25 -27,-33 -13,-9 -29,-13 -46,-13 -19,0 -34,5 -46,14 -12,9 -18,21 -18,37 0,22 27,43 78,62 17,6 30,11 39,15 40,16 69,34 87,54 17,21 26,46 26,76 0,44 -16,79 -48,104 -32,25 -76,37 -132,37 -43,0 -79,-8 -107,-24 -29,-16 -51,-41 -67,-74z"/>
  <path id="63" class="fil1" d="M7523 4683c0,-45 -10,-81 -31,-106 -22,-26 -51,-38 -89,-38 -39,0 -69,13 -90,39 -22,26 -33,63 -33,109 0,47 10,83 31,109 21,25 51,38 90,38 36,0 65,-14 88,-42 23,-27 34,-64 34,-109zm99 195c0,86 -18,147 -52,182 -34,35 -93,53 -174,53 -61,0 -110,-13 -146,-39 -36,-25 -54,-59 -55,-102l108 -1c2,19 11,34 27,44 16,10 39,15 68,15 43,0 74,-10 93,-28 19,-19 28,-51 29,-95l1 -59c-18,25 -39,44 -63,57 -25,12 -52,18 -83,18 -62,0 -112,-21 -147,-64 -36,-42 -54,-101 -54,-175 0,-70 18,-127 55,-170 37,-43 84,-65 143,-65 36,0 67,7 93,23 25,14 44,36 56,64l0 -72 101 0 0 414z"/>
  <path id="64" class="fil1" d="M8185 4699l-352 0c3,42 15,74 37,97 22,23 51,35 88,35 32,0 60,-7 81,-21 22,-13 41,-35 57,-66l85 48c-25,44 -56,77 -92,99 -37,22 -80,32 -129,32 -71,0 -127,-21 -169,-64 -42,-43 -63,-101 -63,-173 0,-69 22,-126 65,-170 43,-45 99,-67 167,-67 71,0 126,20 166,61 40,40 59,97 59,170l0 19zm-104 -67c-4,-32 -16,-56 -36,-72 -21,-17 -48,-25 -83,-25 -33,0 -60,8 -80,24 -20,16 -34,40 -42,73l241 0z"/>
  <path id="65" class="fil1" d="M8290 4905l0 -441 95 0 0 73c21,-31 44,-53 71,-67 28,-14 61,-21 100,-21 33,0 61,5 84,16 23,10 41,25 54,46 8,12 14,26 17,42 3,16 5,45 5,85l0 267 -102 0 0 -226c0,-58 -7,-97 -21,-116 -14,-19 -39,-28 -75,-28 -24,0 -45,4 -63,13 -19,8 -33,21 -44,36 -7,11 -12,25 -15,41 -3,17 -5,43 -5,79l0 201 -101 0z"/>
  <path id="66" class="fil1" d="M9275 4699l-352 0c2,42 14,74 37,97 21,23 51,35 87,35 33,0 60,-7 82,-21 22,-13 40,-35 57,-66l84 48c-24,44 -55,77 -92,99 -36,22 -79,32 -128,32 -71,0 -127,-21 -169,-64 -42,-43 -63,-101 -63,-173 0,-69 22,-126 65,-170 43,-45 99,-67 167,-67 71,0 126,20 166,61 39,40 59,97 59,170l0 19zm-105 -67c-4,-32 -16,-56 -36,-72 -20,-17 -48,-25 -83,-25 -33,0 -59,8 -80,24 -20,16 -34,40 -42,73l241 0z"/>
  <path id="67" class="fil1" d="M9481 4535c11,-30 25,-51 43,-65 18,-14 40,-21 67,-21 14,0 28,2 42,5 13,3 27,8 40,15l-36 86c-9,-6 -18,-11 -28,-14 -10,-3 -21,-4 -34,-4 -33,0 -57,13 -72,40 -15,27 -22,72 -22,135l0 193 -101 0 0 -442 101 0 0 72z"/>
  <path id="68" class="fil1" d="M10146 4905l-101 0 0 -57c-18,25 -39,44 -63,57 -24,12 -52,18 -83,18 -62,0 -111,-21 -147,-64 -36,-42 -54,-101 -54,-175 0,-70 19,-127 55,-170 37,-43 85,-65 144,-65 36,0 66,7 92,23 26,14 44,36 56,64l0 -72 101 0 0 441zm-98 -222c0,-45 -11,-81 -32,-106 -21,-26 -51,-38 -89,-38 -38,0 -68,13 -90,39 -22,26 -33,63 -33,109 0,47 11,83 32,109 21,25 51,38 89,38 36,0 66,-14 89,-42 23,-27 34,-64 34,-109z"/>
  <polygon id="69" class="fil1" points="10290,4905 10290,4184 10391,4184 10391,4905 "/>
  <path id="70" class="fil1" d="M10960 4699l-353 0c3,42 15,74 37,97 22,23 51,35 88,35 33,0 60,-7 81,-21 22,-13 41,-35 57,-66l85 48c-25,44 -56,77 -92,99 -37,22 -80,32 -129,32 -71,0 -127,-21 -169,-64 -42,-43 -63,-101 -63,-173 0,-69 22,-126 65,-170 44,-45 99,-67 167,-67 71,0 126,20 166,61 40,40 60,97 60,170l0 19zm-105 -67c-4,-32 -16,-56 -36,-72 -20,-17 -48,-25 -83,-25 -33,0 -60,8 -80,24 -20,16 -34,40 -42,73l241 0z"/>
  <path id="71" class="fil1" d="M11014 4825l84 -46c6,23 18,39 34,51 17,11 39,17 65,17 23,0 40,-5 53,-15 13,-11 19,-25 19,-43 0,-24 -22,-44 -68,-62 -16,-5 -28,-10 -36,-14 -47,-19 -80,-39 -99,-59 -19,-20 -28,-45 -28,-73 0,-40 15,-72 46,-96 31,-25 72,-37 123,-37 34,0 63,6 87,19 25,12 42,30 53,54l-71 49c-5,-14 -15,-25 -28,-33 -13,-9 -28,-13 -45,-13 -20,0 -35,5 -47,14 -11,9 -17,21 -17,37 0,22 26,43 78,62 16,6 29,11 38,15 41,16 70,34 87,54 18,21 26,46 26,76 0,44 -16,79 -48,104 -31,25 -75,37 -132,37 -43,0 -78,-8 -107,-24 -28,-16 -51,-41 -67,-74z"/>
  <path id="72" class="fil1" d="M12075 4683c0,-45 -11,-81 -32,-106 -21,-26 -51,-38 -89,-38 -38,0 -68,13 -90,39 -22,26 -33,63 -33,109 0,47 11,83 32,109 21,25 51,38 89,38 37,0 66,-14 89,-41 22,-28 34,-64 34,-110zm-3 -499l101 0 0 721 -101 0 0 -57c-18,25 -39,44 -63,57 -24,12 -52,18 -83,18 -62,0 -111,-21 -147,-64 -36,-42 -54,-101 -54,-175 0,-70 19,-127 55,-170 37,-43 85,-65 144,-65 36,0 66,7 92,23 26,14 44,36 56,64l0 -352z"/>
  <path id="73" class="fil1" d="M12737 4699l-353 0c3,42 15,74 37,97 22,23 52,35 88,35 33,0 60,-7 81,-21 22,-13 41,-35 57,-66l85 48c-25,44 -55,77 -92,99 -36,22 -80,32 -129,32 -71,0 -127,-21 -169,-64 -41,-43 -62,-101 -62,-173 0,-69 21,-126 65,-170 43,-45 98,-67 166,-67 71,0 127,20 166,61 40,40 60,97 60,170l0 19zm-105 -67c-4,-32 -16,-56 -36,-72 -20,-17 -48,-25 -83,-25 -33,0 -60,8 -80,24 -20,16 -34,40 -42,73l241 0z"/>
  <path id="74" class="fil1" d="M13227 4464l0 249c0,43 9,73 27,92 18,18 46,28 86,28 39,0 68,-10 86,-28 17,-19 26,-49 26,-92l0 -249 101 0 0 218c0,85 -17,146 -50,184 -34,38 -88,57 -162,57 -75,0 -130,-19 -164,-56 -34,-38 -51,-100 -51,-185l0 -218 101 0z"/>
  <path id="75" class="fil1" d="M13639 4825l84 -46c6,23 17,39 34,51 17,11 38,17 64,17 23,0 41,-5 54,-15 13,-11 19,-25 19,-43 0,-24 -23,-44 -69,-62 -15,-5 -27,-10 -35,-14 -48,-19 -81,-39 -99,-59 -19,-20 -28,-45 -28,-73 0,-40 15,-72 46,-96 31,-25 71,-37 122,-37 34,0 64,6 88,19 24,12 42,30 53,54l-71 49c-6,-14 -15,-25 -28,-33 -13,-9 -29,-13 -46,-13 -19,0 -34,5 -46,14 -12,9 -17,21 -17,37 0,22 26,43 77,62 17,6 30,11 39,15 40,16 69,34 87,54 17,21 26,46 26,76 0,44 -16,79 -48,104 -32,25 -76,37 -132,37 -43,0 -79,-8 -107,-24 -29,-16 -51,-41 -67,-74z"/>
  <path id="76" class="fil1" d="M14442 4686c0,-41 -14,-76 -40,-104 -26,-28 -59,-43 -97,-43 -37,0 -70,15 -96,43 -27,28 -40,63 -40,104 0,41 13,76 40,104 26,29 59,43 96,43 38,0 70,-14 97,-43 26,-28 40,-63 40,-104zm-380 -1c0,-32 7,-63 19,-91 12,-29 30,-54 53,-77 22,-22 48,-38 78,-50 29,-12 60,-18 92,-18 34,0 65,6 94,18 29,12 56,29 79,52 23,22 41,48 53,77 12,28 18,58 18,89 0,33 -6,63 -18,92 -12,28 -29,54 -52,76 -24,23 -51,40 -81,52 -29,12 -60,18 -93,18 -32,0 -62,-6 -92,-18 -29,-12 -55,-29 -78,-51 -24,-23 -41,-49 -53,-78 -13,-28 -19,-59 -19,-91z"/>
  <path id="77" class="fil1" d="M15259 4683c0,-45 -10,-81 -31,-106 -22,-26 -51,-38 -90,-38 -38,0 -68,13 -90,39 -21,26 -32,63 -32,109 0,47 10,83 31,109 21,25 51,38 90,38 36,0 66,-14 88,-41 23,-28 34,-64 34,-110zm-2 -499l101 0 0 721 -101 0 0 -57c-18,25 -39,44 -63,57 -25,12 -52,18 -83,18 -62,0 -112,-21 -147,-64 -36,-42 -54,-101 -54,-175 0,-70 18,-127 55,-170 36,-43 84,-65 143,-65 36,0 67,7 93,23 25,14 44,36 56,64l0 -352z"/>
  <path id="78" class="fil1" d="M15921 4699l-352 0c3,42 15,74 37,97 22,23 51,35 88,35 32,0 59,-7 81,-21 22,-13 41,-35 57,-66l85 48c-25,44 -56,77 -92,99 -37,22 -80,32 -129,32 -71,0 -127,-21 -169,-64 -42,-43 -63,-101 -63,-173 0,-69 22,-126 65,-170 43,-45 99,-67 167,-67 71,0 126,20 166,61 40,40 59,97 59,170l0 19zm-104 -67c-4,-32 -16,-56 -37,-72 -20,-17 -47,-25 -82,-25 -33,0 -60,8 -80,24 -20,16 -34,40 -43,73l242 0z"/>
  <polygon id="79" class="fil1" points="16031,4905 16031,4184 16132,4184 16132,4905 "/>
  <path id="80" class="fil1" d="M1298 5967l84 -46c6,22 17,39 34,51 17,11 38,17 65,17 22,0 40,-5 53,-16 13,-10 19,-24 19,-42 0,-24 -23,-45 -69,-62 -15,-5 -27,-10 -35,-14 -48,-19 -81,-39 -99,-59 -19,-20 -28,-45 -28,-74 0,-39 15,-71 46,-96 31,-24 72,-36 122,-36 34,0 64,6 88,19 24,12 42,30 53,53l-71 50c-6,-14 -15,-25 -28,-34 -13,-8 -28,-12 -46,-12 -19,0 -34,5 -46,14 -12,9 -17,21 -17,36 0,23 26,44 78,63 16,6 29,11 38,14 40,17 69,35 87,55 17,20 26,46 26,76 0,44 -16,79 -48,104 -32,25 -76,37 -132,37 -43,0 -79,-8 -107,-24 -29,-16 -51,-41 -67,-74z"/>
  <path id="81" class="fil1" d="M1852 5606l0 249c0,42 9,73 26,92 18,18 47,28 86,28 40,0 69,-10 86,-28 18,-19 27,-50 27,-92l0 -249 101 0 0 218c0,85 -17,146 -51,184 -34,38 -88,57 -162,57 -75,0 -130,-19 -163,-57 -34,-37 -51,-99 -51,-184l0 -218 101 0z"/>
  <path id="82" class="fil1" d="M2739 5841l-353 0c3,41 15,74 37,97 22,23 51,35 88,35 32,0 60,-7 81,-21 22,-13 41,-36 57,-66l85 47c-25,45 -56,78 -92,100 -37,21 -80,32 -129,32 -71,0 -127,-22 -169,-65 -42,-43 -63,-100 -63,-172 0,-69 22,-126 65,-171 44,-44 99,-66 167,-66 71,0 126,20 166,61 40,40 60,97 60,170l0 19zm-105 -67c-4,-32 -16,-56 -36,-73 -21,-16 -48,-25 -83,-25 -33,0 -60,9 -80,25 -20,16 -34,40 -42,73l241 0z"/>
  <polygon id="83" class="fil1" points="2848,6047 2848,5326 2949,5326 2949,6047 "/>
  <path id="84" class="fil1" d="M3440 5828c0,-41 -13,-76 -40,-104 -26,-29 -58,-43 -96,-43 -38,0 -70,14 -97,43 -26,28 -39,63 -39,104 0,41 13,76 39,104 27,28 59,43 97,43 38,0 70,-15 96,-43 27,-28 40,-63 40,-104zm-379 -1c0,-32 6,-63 18,-91 13,-29 30,-55 53,-77 23,-22 49,-39 78,-51 30,-11 61,-17 93,-17 33,0 64,6 94,17 29,12 55,30 79,52 23,23 40,49 53,77 12,29 18,59 18,90 0,32 -6,63 -18,92 -12,28 -30,53 -53,75 -24,24 -51,41 -80,53 -30,12 -61,18 -93,18 -32,0 -63,-6 -92,-18 -30,-12 -56,-29 -79,-52 -23,-23 -41,-48 -53,-77 -12,-28 -18,-59 -18,-91z"/>
  <path id="85" class="fil1" d="M4258 5825c0,-46 -11,-81 -32,-106 -21,-26 -51,-39 -89,-39 -38,0 -68,13 -90,40 -22,26 -33,62 -33,109 0,47 10,83 32,108 21,26 51,39 89,39 37,0 66,-14 89,-41 23,-28 34,-64 34,-110zm98 430l-101 0 0 -265c-18,25 -39,44 -63,56 -24,13 -52,19 -83,19 -62,0 -111,-21 -147,-64 -36,-42 -54,-101 -54,-175 0,-70 19,-127 55,-170 37,-44 85,-65 144,-65 36,0 66,7 92,22 26,15 44,37 56,65l0 -72 101 0 0 649z"/>
  <path id="86" class="fil1" d="M4593 5606l0 249c0,42 9,73 27,92 17,18 46,28 86,28 39,0 68,-10 85,-28 18,-19 27,-50 27,-92l0 -249 101 0 0 218c0,85 -17,146 -51,184 -34,38 -88,57 -162,57 -75,0 -129,-19 -163,-57 -34,-37 -51,-99 -51,-184l0 -218 101 0z"/>
  <path id="87" class="fil1" d="M5480 5841l-353 0c3,41 15,74 37,97 22,23 51,35 88,35 33,0 60,-7 81,-21 22,-13 41,-36 57,-66l85 47c-25,45 -55,78 -92,100 -37,21 -80,32 -129,32 -71,0 -127,-22 -169,-65 -42,-43 -62,-100 -62,-172 0,-69 21,-126 64,-171 44,-44 99,-66 167,-66 71,0 127,20 166,61 40,40 60,97 60,170l0 19zm-105 -67c-4,-32 -16,-56 -36,-73 -20,-16 -48,-25 -83,-25 -33,0 -60,9 -80,25 -20,16 -34,40 -42,73l241 0z"/>
  <polygon id="88" class="fil1" points="5896,6047 5896,5695 5819,5695 5819,5606 5896,5606 5896,5439 5997,5439 5997,5606 6074,5606 6074,5695 5997,5695 5997,6047 "/>
  <path id="89" class="fil1" d="M6586 5841l-353 0c3,41 15,74 37,97 22,23 51,35 88,35 33,0 60,-7 81,-21 22,-13 41,-36 57,-66l85 47c-25,45 -55,78 -92,100 -37,21 -80,32 -129,32 -71,0 -127,-22 -169,-65 -41,-43 -62,-100 -62,-172 0,-69 21,-126 64,-171 44,-44 99,-66 167,-66 71,0 127,20 166,61 40,40 60,97 60,170l0 19zm-105 -67c-4,-32 -16,-56 -36,-73 -20,-16 -48,-25 -83,-25 -33,0 -60,9 -80,25 -20,16 -34,40 -42,73l241 0z"/>
  <path id="90" class="fil1" d="M6691 6047l0 -441 95 0 0 72c20,-30 43,-52 71,-66 27,-14 60,-21 99,-21 33,0 61,5 84,15 23,11 42,26 55,47 7,12 13,26 16,42 4,16 5,44 5,85l0 267 -101 0 0 -226c0,-58 -7,-97 -22,-116 -14,-19 -39,-29 -75,-29 -23,0 -44,5 -63,13 -18,9 -33,21 -43,37 -8,11 -13,24 -16,41 -3,16 -4,43 -4,79l0 201 -101 0z"/>
  <path id="91" class="fil1" d="M7568 5825c0,-46 -11,-81 -32,-106 -21,-26 -51,-39 -89,-39 -38,0 -68,13 -90,40 -22,26 -33,62 -33,109 0,47 10,83 32,108 21,26 51,39 89,39 36,0 66,-14 89,-42 22,-28 34,-64 34,-109zm98 195c0,86 -17,146 -52,182 -34,35 -92,53 -174,53 -61,0 -109,-13 -145,-39 -37,-26 -55,-60 -56,-102l109 -1c1,19 10,34 26,44 16,10 39,15 68,15 43,0 74,-10 93,-29 19,-19 29,-50 29,-95l1 -58c-18,25 -39,44 -63,56 -24,13 -52,19 -83,19 -62,0 -111,-21 -147,-64 -36,-42 -54,-101 -54,-175 0,-70 18,-127 55,-170 37,-44 85,-65 144,-65 36,0 66,7 92,22 25,15 44,37 56,65l0 -72 101 0 0 414z"/>
  <path id="92" class="fil1" d="M8220 6047l-101 0 0 -57c-18,25 -39,44 -63,56 -24,13 -51,19 -82,19 -63,0 -112,-21 -148,-64 -35,-42 -53,-101 -53,-175 0,-70 18,-127 55,-170 36,-44 84,-65 143,-65 36,0 67,7 92,22 26,15 45,37 56,65l0 -72 101 0 0 441zm-98 -222c0,-46 -10,-81 -32,-106 -21,-26 -51,-39 -89,-39 -38,0 -68,13 -90,40 -22,26 -33,62 -33,109 0,47 11,83 32,108 21,26 51,39 89,39 37,0 66,-14 89,-42 23,-28 34,-64 34,-109z"/>
  <path id="93" class="fil1" d="M8359 6047l0 -441 95 0 0 72c20,-30 44,-52 71,-66 28,-14 61,-21 100,-21 33,0 61,5 84,15 23,11 41,26 54,47 8,12 14,26 17,42 3,16 5,44 5,85l0 267 -102 0 0 -226c0,-58 -7,-97 -21,-116 -14,-19 -39,-29 -75,-29 -24,0 -45,5 -63,13 -19,9 -33,21 -44,37 -7,11 -12,24 -15,41 -3,16 -5,43 -5,79l0 201 -101 0z"/>
  <path id="94" class="fil1" d="M9344 5841l-352 0c2,41 14,74 36,97 22,23 52,35 88,35 33,0 60,-7 82,-21 21,-13 40,-36 57,-66l84 47c-24,45 -55,78 -92,100 -36,21 -79,32 -129,32 -70,0 -127,-22 -168,-65 -42,-43 -63,-100 -63,-172 0,-69 21,-126 65,-171 43,-44 99,-66 166,-66 71,0 127,20 167,61 39,40 59,97 59,170l0 19zm-105 -67c-4,-32 -16,-56 -36,-73 -20,-16 -48,-25 -83,-25 -33,0 -59,9 -80,25 -20,16 -34,40 -42,73l241 0z"/>
  <path id="95" class="fil1" d="M9449 6047l0 -441 95 0 0 72c20,-30 44,-52 71,-66 27,-14 61,-21 100,-21 33,0 61,5 84,15 23,11 41,26 54,47 8,12 13,26 17,42 3,16 5,44 5,85l0 267 -102 0 0 -226c0,-58 -7,-97 -21,-116 -14,-19 -39,-29 -76,-29 -23,0 -44,5 -63,13 -18,9 -33,21 -43,37 -8,11 -13,24 -16,41 -3,16 -4,43 -4,79l0 201 -101 0z"/>
  <path id="96" class="fil1" d="M10626 5732c-16,-17 -34,-30 -54,-39 -21,-9 -43,-14 -67,-14 -41,0 -74,14 -99,40 -25,27 -37,62 -37,106 0,46 12,82 37,108 25,27 60,40 104,40 24,0 46,-5 65,-14 20,-9 36,-23 51,-42l0 117c-19,10 -39,18 -60,23 -21,5 -44,8 -68,8 -69,0 -125,-22 -169,-66 -43,-44 -65,-101 -65,-171 0,-71 23,-128 68,-172 45,-44 104,-65 177,-65 23,0 44,2 63,7 19,4 37,11 54,20l0 114z"/>
  <path id="97" class="fil1" d="M10827 5606l0 249c0,42 9,73 27,92 17,18 46,28 85,28 40,0 69,-10 86,-28 18,-19 27,-50 27,-92l0 -249 101 0 0 218c0,85 -17,146 -51,184 -34,38 -88,57 -162,57 -75,0 -129,-19 -163,-57 -34,-37 -51,-99 -51,-184l0 -218 101 0z"/>
  <path id="98" class="fil1" d="M11714 5841l-353 0c3,41 15,74 37,97 22,23 51,35 88,35 33,0 60,-7 81,-21 22,-13 41,-36 57,-66l85 47c-25,45 -55,78 -92,100 -37,21 -80,32 -129,32 -71,0 -127,-22 -169,-65 -42,-43 -62,-100 -62,-172 0,-69 21,-126 64,-171 44,-44 99,-66 167,-66 71,0 126,20 166,61 40,40 60,97 60,170l0 19zm-105 -67c-4,-32 -16,-56 -36,-73 -20,-16 -48,-25 -83,-25 -33,0 -60,9 -80,25 -20,16 -34,40 -42,73l241 0z"/>
  <path id="99" class="fil1" d="M11819 6047l0 -441 95 0 0 72c20,-30 43,-52 71,-66 27,-14 60,-21 99,-21 33,0 61,5 84,15 23,11 41,26 55,47 7,12 13,26 16,42 4,16 5,44 5,85l0 267 -102 0 0 -226c0,-58 -6,-97 -21,-116 -14,-19 -39,-29 -75,-29 -23,0 -44,5 -63,13 -18,9 -33,21 -43,37 -8,11 -13,24 -16,41 -3,16 -4,43 -4,79l0 201 -101 0z"/>
  <polygon id="100" class="fil1" points="12402,6047 12402,5695 12325,5695 12325,5606 12402,5606 12402,5439 12503,5439 12503,5606 12580,5606 12580,5695 12503,5695 12503,6047 "/>
  <path id="101" class="fil1" d="M13083 6047l-101 0 0 -57c-18,25 -39,44 -63,56 -25,13 -52,19 -83,19 -62,0 -112,-21 -147,-64 -36,-42 -54,-101 -54,-175 0,-70 18,-127 55,-170 37,-44 84,-65 143,-65 36,0 67,7 93,22 25,15 44,37 56,65l0 -72 101 0 0 441zm-98 -222c0,-46 -11,-81 -32,-106 -22,-26 -51,-39 -89,-39 -39,0 -69,13 -90,40 -22,26 -33,62 -33,109 0,47 10,83 31,108 21,26 51,39 90,39 36,0 66,-14 88,-42 23,-28 35,-64 35,-109z"/>
  <path id="102" class="fil1" d="M13459 5967l84 -46c6,22 17,39 34,51 17,11 38,17 64,17 23,0 41,-5 54,-16 13,-10 19,-24 19,-42 0,-24 -23,-45 -69,-62 -15,-5 -27,-10 -35,-14 -48,-19 -81,-39 -99,-59 -19,-20 -28,-45 -28,-74 0,-39 15,-71 46,-96 31,-24 71,-36 122,-36 34,0 64,6 88,19 24,12 42,30 53,53l-72 50c-5,-14 -14,-25 -27,-34 -13,-8 -29,-12 -46,-12 -19,0 -34,5 -46,14 -12,9 -18,21 -18,36 0,23 27,44 78,63 17,6 30,11 39,14 40,17 69,35 87,55 17,20 26,46 26,76 0,44 -16,79 -48,104 -32,25 -76,37 -132,37 -43,0 -79,-8 -107,-24 -29,-16 -51,-41 -67,-74z"/>
  <path id="103" class="fil1" d="M14013 5606l0 249c0,42 9,73 26,92 18,18 47,28 86,28 40,0 69,-10 86,-28 18,-19 27,-50 27,-92l0 -249 101 0 0 218c0,85 -17,146 -51,184 -34,38 -88,57 -162,57 -75,0 -130,-19 -163,-57 -34,-37 -51,-99 -51,-184l0 -218 101 0z"/>
  <path id="104" class="fil1" d="M1503 7215l-231 -467 110 0 97 222c3,6 7,17 11,30 4,14 9,30 13,49 4,-13 7,-27 11,-40 4,-13 10,-26 15,-39l96 -222 110 0 -232 467z"/>
  <path id="105" class="fil1" d="M2145 6970c0,-41 -13,-76 -40,-105 -26,-28 -58,-42 -96,-42 -38,0 -70,14 -97,42 -27,29 -40,64 -40,105 0,41 13,75 40,104 27,28 59,42 97,42 37,0 70,-14 96,-42 27,-29 40,-63 40,-104zm-379 -1c0,-33 6,-63 18,-92 12,-28 30,-54 53,-76 22,-22 48,-39 78,-51 30,-12 60,-18 93,-18 33,0 64,6 93,18 30,12 56,29 79,52 23,23 41,48 53,77 12,28 18,58 18,90 0,32 -6,63 -18,91 -11,29 -29,54 -52,76 -24,23 -51,41 -80,53 -30,12 -61,18 -93,18 -32,0 -63,-6 -93,-18 -29,-12 -55,-29 -78,-52 -23,-23 -41,-49 -53,-77 -12,-29 -18,-59 -18,-91z"/>
  <path id="106" class="fil1" d="M2687 6873c-15,-17 -33,-30 -54,-38 -20,-10 -43,-14 -66,-14 -42,0 -75,13 -100,40 -24,27 -37,62 -37,106 0,46 13,82 38,108 25,26 59,39 103,39 25,0 47,-4 66,-13 19,-9 36,-23 50,-42l0 116c-18,11 -38,19 -59,24 -21,5 -44,8 -68,8 -69,0 -126,-22 -169,-66 -44,-44 -65,-101 -65,-171 0,-71 22,-129 67,-172 45,-44 104,-66 177,-66 23,0 44,3 64,7 19,5 37,12 53,21l0 113z"/>
  <path id="107" class="fil1" d="M3206 7189l-101 0 0 -57c-18,25 -39,44 -63,56 -24,13 -52,19 -83,19 -62,0 -111,-21 -147,-64 -36,-43 -54,-101 -54,-175 0,-71 18,-127 55,-171 37,-43 85,-65 143,-65 36,0 67,8 93,23 25,15 44,36 56,65l0 -72 101 0 0 441zm-98 -222c0,-46 -11,-81 -32,-107 -21,-25 -51,-38 -89,-38 -39,0 -69,13 -90,39 -22,27 -33,63 -33,110 0,46 10,83 31,108 22,26 51,38 90,38 36,0 66,-14 88,-41 23,-28 35,-64 35,-109z"/>
  <path id="108" class="fil1" d="M3674 6873c-15,-17 -33,-30 -54,-38 -20,-10 -43,-14 -67,-14 -41,0 -74,13 -99,40 -24,27 -37,62 -37,106 0,46 13,82 38,108 25,26 59,39 103,39 25,0 47,-4 66,-13 19,-9 36,-23 50,-42l0 116c-18,11 -38,19 -59,24 -22,5 -44,8 -68,8 -69,0 -126,-22 -169,-66 -44,-44 -66,-101 -66,-171 0,-71 23,-129 68,-172 45,-44 104,-66 177,-66 23,0 44,3 63,7 20,5 38,12 54,21l0 113z"/>
  <path id="109" class="fil1" d="M3769 6557c0,-17 6,-32 19,-44 12,-12 27,-19 45,-19 18,0 33,6 45,18 12,12 18,27 18,45 0,18 -6,33 -19,46 -12,12 -27,18 -44,18 -18,0 -33,-6 -45,-19 -13,-12 -19,-27 -19,-45zm13 632l0 -441 101 0 0 441 -101 0z"/>
  <path id="110" class="fil1" d="M4374 6970c0,-41 -13,-76 -40,-105 -26,-28 -58,-42 -96,-42 -38,0 -70,14 -97,42 -26,29 -40,64 -40,105 0,41 14,75 40,104 27,28 59,42 97,42 37,0 70,-14 96,-42 27,-29 40,-63 40,-104zm-379 -1c0,-33 6,-63 18,-92 12,-28 30,-54 53,-76 23,-22 49,-39 78,-51 30,-12 60,-18 93,-18 33,0 64,6 94,18 29,12 55,29 78,52 24,23 41,48 53,77 13,28 19,58 19,90 0,32 -6,63 -18,91 -12,29 -30,54 -53,76 -24,23 -51,41 -80,53 -30,12 -61,18 -93,18 -32,0 -63,-6 -92,-18 -30,-12 -56,-29 -79,-52 -23,-23 -41,-49 -53,-77 -12,-29 -18,-59 -18,-91zm177 -288l89 -127 104 0 -136 127 -57 0z"/>
  <path id="111" class="fil1" d="M4587 7189l0 -441 95 0 0 72c20,-30 44,-53 71,-67 27,-14 61,-21 100,-21 33,0 61,6 84,16 23,10 41,26 54,46 8,12 13,27 17,43 3,16 5,44 5,84l0 268 -102 0 0 -227c0,-58 -7,-96 -21,-115 -14,-19 -39,-29 -75,-29 -24,0 -45,4 -63,13 -19,9 -33,21 -44,37 -7,10 -13,24 -16,41 -3,16 -4,43 -4,79l0 201 -101 0z"/>
  <path id="112" class="fil1" d="M5511 7396l-104 0 121 -245 -162 -403 112 0 80 228c5,14 9,28 13,43 3,14 6,29 8,44 5,-16 14,-41 29,-74l3 -6 108 -235 110 0 -318 648z"/>
  <polygon id="113" class="fil1" points="6176,7189 6176,6468 6277,6468 6277,7189 "/>
  <path id="114" class="fil1" d="M6836 7189l-101 0 0 -57c-18,25 -39,44 -63,56 -24,13 -52,19 -83,19 -62,0 -111,-21 -147,-64 -36,-43 -54,-101 -54,-175 0,-71 18,-127 55,-171 37,-43 84,-65 143,-65 36,0 67,8 93,23 25,15 44,36 56,65l0 -72 101 0 0 441zm-98 -222c0,-46 -11,-81 -32,-107 -22,-25 -51,-38 -89,-38 -39,0 -69,13 -90,39 -22,27 -33,63 -33,110 0,46 10,83 31,108 22,26 51,38 90,38 36,0 66,-14 88,-41 23,-28 35,-64 35,-109z"/>
  <path id="115" class="fil1" d="M6924 7109l84 -46c6,22 18,39 35,50 16,12 38,18 64,18 23,0 41,-6 53,-16 13,-10 20,-25 20,-43 0,-23 -23,-44 -69,-61 -16,-6 -28,-10 -36,-14 -47,-20 -80,-39 -99,-60 -18,-20 -28,-44 -28,-73 0,-39 16,-71 46,-96 31,-24 72,-37 123,-37 34,0 63,7 88,19 24,13 42,31 53,54l-72 49c-5,-14 -14,-25 -27,-33 -14,-8 -29,-12 -46,-12 -19,0 -35,4 -46,13 -12,10 -18,22 -18,37 0,23 26,44 78,63 17,6 29,11 38,14 41,16 70,34 88,55 17,20 26,45 26,76 0,44 -16,78 -48,103 -32,25 -76,38 -132,38 -43,0 -79,-8 -108,-24 -28,-17 -50,-41 -67,-74z"/>
  <path id="116" class="fil1" d="M7823 7215l-231 -467 110 0 96 222c3,6 7,17 12,30 4,14 8,30 13,49 3,-13 7,-27 11,-40 4,-13 9,-26 15,-39l96 -222 110 0 -232 467z"/>
  <path id="117" class="fil1" d="M8109 6557c0,-17 6,-32 19,-44 13,-12 27,-19 45,-19 18,0 33,6 45,18 12,12 18,27 18,45 0,18 -6,33 -18,46 -13,12 -27,18 -45,18 -18,0 -32,-6 -45,-19 -13,-12 -19,-27 -19,-45zm13 632l0 -441 101 0 0 441 -101 0z"/>
  <path id="118" class="fil1" d="M8317 7109l84 -46c6,22 17,39 34,50 17,12 38,18 65,18 22,0 40,-6 53,-16 13,-10 19,-25 19,-43 0,-23 -23,-44 -69,-61 -15,-6 -27,-10 -35,-14 -47,-20 -80,-39 -99,-60 -19,-20 -28,-44 -28,-73 0,-39 15,-71 46,-96 31,-24 72,-37 122,-37 35,0 64,7 88,19 24,13 42,31 53,54l-71 49c-6,-14 -15,-25 -28,-33 -13,-8 -28,-12 -46,-12 -19,0 -34,4 -46,13 -11,10 -17,22 -17,37 0,23 26,44 78,63 16,6 29,11 38,14 40,16 69,34 87,55 18,20 26,45 26,76 0,44 -16,78 -48,103 -32,25 -76,38 -132,38 -43,0 -79,-8 -107,-24 -29,-17 -51,-41 -67,-74z"/>
  <path id="119" class="fil1" d="M8764 6557c0,-17 7,-32 19,-44 13,-12 28,-19 45,-19 18,0 33,6 45,18 12,12 18,27 18,45 0,18 -6,33 -18,46 -12,12 -27,18 -45,18 -17,0 -32,-6 -45,-19 -12,-12 -19,-27 -19,-45zm14 632l0 -441 101 0 0 441 -101 0z"/>
  <path id="120" class="fil1" d="M9369 6970c0,-41 -13,-76 -39,-105 -26,-28 -59,-42 -97,-42 -38,0 -70,14 -96,42 -27,29 -40,64 -40,105 0,41 13,75 40,104 26,28 58,42 96,42 38,0 70,-14 97,-42 26,-29 39,-63 39,-104zm-379 -1c0,-33 7,-63 19,-92 12,-28 30,-54 52,-76 23,-22 49,-39 79,-51 29,-12 60,-18 92,-18 33,0 65,6 94,18 29,12 56,29 79,52 23,23 41,48 53,77 12,28 18,58 18,90 0,32 -6,63 -18,91 -12,29 -29,54 -52,76 -24,23 -51,41 -81,53 -29,12 -60,18 -93,18 -32,0 -62,-6 -92,-18 -29,-12 -56,-29 -79,-52 -23,-23 -40,-49 -53,-77 -12,-29 -18,-59 -18,-91z"/>
  <path id="121" class="fil1" d="M9583 7189l0 -441 95 0 0 72c20,-30 43,-53 71,-67 27,-14 60,-21 99,-21 33,0 61,6 84,16 23,10 41,26 54,46 8,12 14,27 17,43 4,16 5,44 5,84l0 268 -102 0 0 -227c0,-58 -6,-96 -21,-115 -14,-19 -39,-29 -75,-29 -23,0 -44,4 -63,13 -18,9 -33,21 -43,37 -8,10 -13,24 -16,41 -3,16 -4,43 -4,79l0 201 -101 0z"/>
  <path id="122" class="fil1" d="M10567 6983l-352 0c2,41 15,73 37,97 22,23 51,34 88,34 32,0 59,-6 81,-20 22,-14 41,-36 57,-66l85 47c-25,45 -56,77 -92,99 -37,22 -80,33 -129,33 -71,0 -127,-22 -169,-65 -42,-43 -63,-100 -63,-172 0,-70 22,-126 65,-171 43,-44 99,-67 167,-67 71,0 126,21 166,61 40,41 59,98 59,171l0 19zm-104 -68c-4,-31 -16,-55 -37,-72 -20,-17 -47,-25 -82,-25 -33,0 -60,8 -80,24 -20,16 -34,41 -43,73l242 0z"/>
  <path id="123" class="fil1" d="M10622 7109l84 -46c6,22 17,39 34,50 17,12 38,18 65,18 22,0 40,-6 53,-16 13,-10 19,-25 19,-43 0,-23 -23,-44 -69,-61 -15,-6 -27,-10 -35,-14 -48,-20 -81,-39 -99,-60 -19,-20 -28,-44 -28,-73 0,-39 15,-71 46,-96 31,-24 72,-37 122,-37 35,0 64,7 88,19 24,13 42,31 53,54l-71 49c-6,-14 -15,-25 -28,-33 -13,-8 -28,-12 -46,-12 -19,0 -34,4 -46,13 -12,10 -17,22 -17,37 0,23 26,44 78,63 16,6 29,11 38,14 40,16 69,34 87,55 17,20 26,45 26,76 0,44 -16,78 -48,103 -32,25 -76,38 -132,38 -43,0 -79,-8 -107,-24 -29,-17 -51,-41 -67,-74z"/>
  <polygon id="124" class="fil1" points="11389,7189 11389,6836 11312,6836 11312,6748 11389,6748 11389,6581 11490,6581 11490,6748 11567,6748 11567,6836 11490,6836 11490,7189 "/>
  <path id="125" class="fil1" d="M12079 6983l-352 0c2,41 14,73 36,97 22,23 52,34 88,34 33,0 60,-6 82,-20 21,-14 40,-36 56,-66l85 47c-25,45 -55,77 -92,99 -36,22 -79,33 -129,33 -70,0 -127,-22 -169,-65 -41,-43 -62,-100 -62,-172 0,-70 21,-126 65,-171 43,-44 98,-67 166,-67 71,0 127,21 166,61 40,41 60,98 60,171l0 19zm-105 -68c-4,-31 -16,-55 -36,-72 -20,-17 -48,-25 -83,-25 -33,0 -60,8 -80,24 -20,16 -34,41 -42,73l241 0z"/>
  <path id="126" class="fil1" d="M12285 6818c11,-29 25,-51 43,-65 18,-14 40,-21 66,-21 15,0 29,2 42,6 14,3 28,8 41,14l-36 86c-9,-6 -18,-11 -28,-13 -10,-4 -22,-5 -34,-5 -34,0 -58,13 -72,40 -15,27 -22,72 -22,135l0 194 -101 0 0 -442 101 0 0 71z"/>
  <path id="127" class="fil1" d="M12636 6818c11,-29 25,-51 43,-65 18,-14 40,-21 66,-21 14,0 28,2 42,6 14,3 28,8 41,14l-36 86c-9,-6 -18,-11 -28,-13 -11,-4 -22,-5 -34,-5 -34,0 -58,13 -73,40 -14,27 -21,72 -21,135l0 194 -101 0 0 -442 101 0 0 71z"/>
  <path id="128" class="fil1" d="M12877 6557c0,-17 6,-32 19,-44 12,-12 27,-19 45,-19 17,0 33,6 44,18 12,12 18,27 18,45 0,18 -6,33 -18,46 -12,12 -27,18 -44,18 -18,0 -33,-6 -45,-19 -13,-12 -19,-27 -19,-45zm13 632l0 -441 101 0 0 441 -101 0z"/>
  <polygon id="129" class="fil1" points="13159,7189 13159,6836 13082,6836 13082,6748 13159,6748 13159,6581 13260,6581 13260,6748 13337,6748 13337,6836 13260,6836 13260,7189 "/>
  <path id="130" class="fil1" d="M13770 6970c0,-41 -13,-76 -39,-105 -26,-28 -59,-42 -97,-42 -38,0 -70,14 -96,42 -27,29 -40,64 -40,105 0,41 13,75 40,104 26,28 58,42 96,42 38,0 70,-14 97,-42 26,-29 39,-63 39,-104zm-379 -1c0,-33 7,-63 19,-92 12,-28 30,-54 53,-76 22,-22 48,-39 78,-51 29,-12 60,-18 92,-18 33,0 65,6 94,18 29,12 56,29 79,52 23,23 41,48 53,77 12,28 18,58 18,90 0,32 -6,63 -18,91 -12,29 -29,54 -52,76 -24,23 -51,41 -81,53 -29,12 -60,18 -93,18 -32,0 -62,-6 -92,-18 -29,-12 -55,-29 -78,-52 -24,-23 -41,-49 -54,-77 -12,-29 -18,-59 -18,-91z"/>
  <path id="131" class="fil1" d="M14085 6818c11,-29 25,-51 43,-65 18,-14 40,-21 66,-21 14,0 28,2 42,6 14,3 28,8 41,14l-36 86c-9,-6 -18,-11 -28,-13 -11,-4 -22,-5 -34,-5 -34,0 -58,13 -72,40 -15,27 -22,72 -22,135l0 194 -101 0 0 -442 101 0 0 71z"/>
  <path id="132" class="fil1" d="M14326 6557c0,-17 6,-32 19,-44 12,-12 27,-19 45,-19 18,0 33,6 45,18 11,12 17,27 17,45 0,18 -6,33 -18,46 -12,12 -27,18 -44,18 -18,0 -33,-6 -45,-19 -13,-12 -19,-27 -19,-45zm13 632l0 -441 101 0 0 441 -101 0z"/>
  <path id="133" class="fil1" d="M14999 7189l-101 0 0 -57c-18,25 -39,44 -63,56 -24,13 -51,19 -82,19 -63,0 -112,-21 -148,-64 -35,-43 -53,-101 -53,-175 0,-71 18,-127 55,-171 36,-43 84,-65 143,-65 36,0 67,8 92,23 26,15 45,36 56,65l0 -72 101 0 0 441zm-98 -222c0,-46 -10,-81 -32,-107 -21,-25 -51,-38 -89,-38 -38,0 -68,13 -90,39 -22,27 -33,63 -33,110 0,46 11,83 32,108 21,26 51,38 89,38 37,0 66,-14 89,-41 23,-28 34,-64 34,-109z"/>
  <polygon id="134" class="fil1" points="15143,7189 15143,6468 15244,6468 15244,7189 "/>
  <path id="135" class="fil1" d="M15813 6983l-352 0c2,41 14,73 36,97 22,23 52,34 88,34 33,0 60,-6 82,-20 21,-14 40,-36 56,-66l85 47c-25,45 -55,77 -92,99 -36,22 -79,33 -129,33 -70,0 -127,-22 -169,-65 -41,-43 -62,-100 -62,-172 0,-70 21,-126 65,-171 43,-44 98,-67 166,-67 71,0 127,21 166,61 40,41 60,98 60,171l0 19zm-105 -68c-4,-31 -16,-55 -36,-72 -20,-17 -48,-25 -83,-25 -33,0 -60,8 -80,24 -20,16 -34,41 -42,73l241 0z"/>
  <path id="136" class="fil1" d="M15867 7109l84 -46c6,22 18,39 35,50 16,12 38,18 64,18 23,0 41,-6 53,-16 13,-10 20,-25 20,-43 0,-23 -23,-44 -69,-61 -15,-6 -28,-10 -36,-14 -47,-20 -80,-39 -99,-60 -18,-20 -28,-44 -28,-73 0,-39 16,-71 46,-96 31,-24 72,-37 123,-37 34,0 63,7 88,19 24,13 42,31 53,54l-72 49c-5,-14 -14,-25 -27,-33 -14,-8 -29,-12 -46,-12 -19,0 -35,4 -46,13 -12,10 -18,22 -18,37 0,23 26,44 78,63 17,6 29,11 38,14 41,16 70,34 88,55 17,20 26,45 26,76 0,44 -16,78 -48,103 -32,25 -76,38 -132,38 -43,0 -79,-8 -108,-24 -28,-17 -50,-41 -67,-74z"/>
  <path id="137" class="fil1" d="M1678 8015c-16,-17 -34,-30 -54,-39 -21,-9 -43,-13 -67,-13 -41,0 -74,13 -99,40 -25,26 -37,62 -37,106 0,46 12,82 37,108 25,26 59,39 104,39 24,0 46,-4 65,-14 19,-9 36,-23 51,-41l0 116c-19,11 -39,18 -60,24 -21,5 -44,8 -68,8 -69,0 -125,-23 -169,-67 -43,-44 -65,-101 -65,-171 0,-71 22,-128 68,-171 45,-44 104,-66 177,-66 23,0 44,2 63,7 19,4 37,11 54,21l0 113z"/>
  <path id="138" class="fil1" d="M2128 8111c0,-41 -14,-75 -40,-104 -26,-28 -59,-42 -97,-42 -37,0 -70,14 -96,42 -27,29 -40,63 -40,104 0,41 13,76 40,104 26,29 59,43 96,43 38,0 70,-14 97,-43 26,-28 40,-63 40,-104zm-380 -1c0,-32 7,-62 19,-91 12,-29 30,-54 53,-76 22,-22 48,-39 78,-51 29,-12 60,-18 92,-18 34,0 65,6 94,18 29,12 56,29 79,52 23,23 41,48 53,77 12,28 18,58 18,89 0,33 -6,64 -18,92 -12,29 -29,54 -52,76 -24,23 -51,41 -81,53 -29,11 -60,18 -93,18 -32,0 -62,-7 -92,-18 -29,-12 -55,-30 -78,-52 -24,-23 -41,-49 -53,-77 -12,-29 -19,-59 -19,-92z"/>
  <path id="139" class="fil1" d="M2341 8330l0 -441 95 0 0 73c20,-31 44,-53 71,-67 27,-14 60,-21 100,-21 32,0 60,5 83,16 24,10 42,26 55,46 7,12 13,26 16,42 4,16 6,45 6,85l0 267 -102 0 0 -226c0,-58 -7,-96 -21,-116 -15,-19 -40,-28 -76,-28 -23,0 -44,4 -63,13 -18,9 -33,21 -43,37 -8,10 -13,24 -16,40 -3,17 -4,43 -4,80l0 200 -101 0z"/>
  <path id="140" class="fil1" d="M2850 8250l84 -45c6,22 18,39 34,50 17,12 39,17 65,17 23,0 40,-5 53,-15 13,-11 19,-25 19,-43 0,-24 -22,-44 -68,-61 -16,-6 -28,-11 -36,-14 -47,-20 -80,-40 -99,-60 -19,-20 -28,-44 -28,-73 0,-40 15,-72 46,-96 31,-25 72,-37 123,-37 34,0 63,7 87,19 25,13 42,30 54,54l-72 49c-5,-14 -14,-25 -28,-33 -13,-8 -28,-13 -45,-13 -20,0 -35,5 -47,14 -11,9 -17,21 -17,37 0,23 26,44 78,62 16,6 29,11 38,15 41,16 70,34 87,55 18,20 27,45 27,76 0,44 -17,78 -48,103 -32,25 -76,38 -132,38 -44,0 -79,-9 -108,-25 -28,-16 -51,-40 -67,-74z"/>
  <polygon id="141" class="fil1" points="3330,8330 3330,7978 3253,7978 3253,7889 3330,7889 3330,7723 3431,7723 3431,7889 3508,7889 3508,7978 3431,7978 3431,8330 "/>
  <path id="142" class="fil1" d="M3696 7960c11,-29 25,-51 43,-65 18,-14 40,-21 67,-21 14,0 28,2 42,5 13,4 27,9 40,15l-36 86c-9,-6 -18,-11 -28,-14 -10,-3 -21,-4 -34,-4 -33,0 -57,13 -72,40 -15,27 -22,72 -22,135l0 193 -101 0 0 -442 101 0 0 72z"/>
  <path id="143" class="fil1" d="M4044 7889l0 249c0,43 9,74 26,92 18,19 47,28 86,28 40,0 69,-9 86,-28 18,-18 27,-49 27,-92l0 -249 101 0 0 219c0,84 -17,145 -51,183 -34,38 -88,58 -162,58 -75,0 -130,-19 -163,-57 -34,-38 -51,-99 -51,-184l0 -219 101 0z"/>
  <path id="144" class="fil1" d="M4497 7699c0,-17 6,-32 19,-44 13,-13 27,-19 45,-19 18,0 33,6 45,18 12,12 18,27 18,45 0,18 -6,33 -18,45 -13,13 -27,19 -45,19 -18,0 -32,-7 -45,-19 -13,-13 -19,-28 -19,-45zm13 631l0 -441 101 0 0 441 -101 0z"/>
  <path id="145" class="fil1" d="M5073 8108c0,-45 -11,-81 -32,-106 -22,-26 -51,-38 -89,-38 -39,0 -69,13 -90,39 -22,26 -33,63 -33,109 0,47 10,83 31,109 21,25 51,38 90,38 36,0 66,-14 89,-41 22,-28 34,-64 34,-110zm-3 -499l101 0 0 721 -101 0 0 -57c-18,26 -39,45 -63,57 -24,12 -52,19 -83,19 -62,0 -111,-22 -147,-64 -36,-43 -54,-101 -54,-176 0,-70 18,-127 55,-170 37,-43 84,-65 143,-65 36,0 67,8 93,23 25,15 44,36 56,64l0 -352z"/>
  <path id="146" class="fil1" d="M5725 8330l-101 0 0 -57c-18,26 -39,45 -63,57 -24,12 -52,19 -83,19 -62,0 -111,-22 -147,-64 -36,-43 -54,-101 -54,-176 0,-70 19,-127 55,-170 37,-43 85,-65 144,-65 36,0 66,8 92,23 26,15 44,36 56,64l0 -72 101 0 0 441zm-98 -222c0,-45 -11,-81 -32,-106 -21,-26 -51,-38 -89,-38 -38,0 -68,13 -90,39 -22,26 -33,63 -33,109 0,47 11,83 32,109 21,25 51,38 89,38 36,0 66,-14 89,-41 22,-28 34,-64 34,-110z"/>
  <path id="147" class="fil1" d="M5814 8250l83 -45c7,22 18,39 35,50 17,12 38,17 64,17 23,0 41,-5 54,-15 13,-11 19,-25 19,-43 0,-24 -23,-44 -69,-61 -15,-6 -27,-11 -36,-14 -47,-20 -80,-40 -98,-60 -19,-20 -29,-44 -29,-73 0,-40 16,-72 47,-96 31,-25 71,-37 122,-37 34,0 64,7 88,19 24,13 42,30 53,54l-72 49c-5,-14 -14,-25 -27,-33 -13,-8 -29,-13 -46,-13 -19,0 -35,5 -46,14 -12,9 -18,21 -18,37 0,23 26,44 78,62 17,6 30,11 38,15 41,16 70,34 88,55 17,20 26,45 26,76 0,44 -16,78 -48,103 -32,25 -76,38 -132,38 -43,0 -79,-9 -107,-25 -29,-16 -51,-40 -67,-74z"/>
  <path id="148" class="fil1" d="M6887 8015c-16,-17 -34,-30 -54,-39 -21,-9 -43,-13 -67,-13 -41,0 -74,13 -99,40 -25,26 -37,62 -37,106 0,46 12,82 37,108 25,26 59,39 104,39 24,0 46,-4 65,-14 19,-9 36,-23 51,-41l0 116c-19,11 -39,18 -60,24 -21,5 -44,8 -68,8 -69,0 -125,-23 -169,-67 -43,-44 -65,-101 -65,-171 0,-71 22,-128 67,-171 46,-44 105,-66 178,-66 22,0 44,2 63,7 19,4 37,11 54,21l0 113z"/>
  <path id="149" class="fil1" d="M7336 8111c0,-41 -13,-75 -39,-104 -26,-28 -59,-42 -97,-42 -38,0 -70,14 -96,42 -27,29 -40,63 -40,104 0,41 13,76 40,104 26,29 58,43 96,43 38,0 70,-14 97,-43 26,-28 39,-63 39,-104zm-379 -1c0,-32 7,-62 19,-91 12,-29 30,-54 53,-76 22,-22 48,-39 78,-51 29,-12 60,-18 92,-18 34,0 65,6 94,18 29,12 56,29 79,52 23,23 41,48 53,77 12,28 18,58 18,89 0,33 -6,64 -18,92 -12,29 -29,54 -52,76 -24,23 -51,41 -81,53 -29,11 -60,18 -93,18 -32,0 -62,-7 -92,-18 -29,-12 -55,-30 -78,-52 -24,-23 -41,-49 -54,-77 -12,-29 -18,-59 -18,-92z"/>
  <path id="150" class="fil1" d="M7550 8330l0 -441 95 0 0 73c20,-31 43,-53 71,-67 27,-14 60,-21 99,-21 33,0 61,5 84,16 23,10 42,26 55,46 7,12 13,26 16,42 4,16 5,45 5,85l0 267 -101 0 0 -226c0,-58 -7,-96 -22,-116 -14,-19 -39,-28 -75,-28 -23,0 -44,4 -63,13 -18,9 -33,21 -43,37 -8,10 -13,24 -16,40 -3,17 -4,43 -4,80l0 200 -101 0z"/>
  <polygon id="151" class="fil1" points="8402,8330 8402,7609 8503,7609 8503,8330 "/>
  <path id="152" class="fil1" d="M9062 8330l-101 0 0 -57c-18,26 -39,45 -63,57 -24,12 -51,19 -83,19 -62,0 -111,-22 -147,-64 -36,-43 -54,-101 -54,-176 0,-70 19,-127 55,-170 37,-43 85,-65 144,-65 36,0 67,8 92,23 26,15 44,36 56,64l0 -72 101 0 0 441zm-98 -222c0,-45 -11,-81 -32,-106 -21,-26 -51,-38 -89,-38 -38,0 -68,13 -90,39 -22,26 -33,63 -33,109 0,47 11,83 32,109 21,25 51,38 89,38 36,0 66,-14 89,-41 23,-28 34,-64 34,-110z"/>
  <path id="153" class="fil1" d="M9151 8250l84 -45c6,22 17,39 34,50 17,12 38,17 64,17 23,0 41,-5 54,-15 13,-11 19,-25 19,-43 0,-24 -23,-44 -69,-61 -15,-6 -27,-11 -36,-14 -47,-20 -80,-40 -98,-60 -19,-20 -29,-44 -29,-73 0,-40 16,-72 47,-96 31,-25 71,-37 122,-37 34,0 64,7 88,19 24,13 42,30 53,54l-72 49c-5,-14 -14,-25 -27,-33 -13,-8 -29,-13 -46,-13 -19,0 -34,5 -46,14 -12,9 -18,21 -18,37 0,23 26,44 78,62 17,6 30,11 39,15 40,16 69,34 87,55 17,20 26,45 26,76 0,44 -16,78 -48,103 -32,25 -76,38 -132,38 -43,0 -79,-9 -107,-25 -29,-16 -51,-40 -67,-74z"/>
  <path id="154" class="fil1" d="M10224 8015c-16,-17 -34,-30 -54,-39 -21,-9 -43,-13 -67,-13 -41,0 -74,13 -99,40 -25,26 -37,62 -37,106 0,46 12,82 37,108 25,26 60,39 104,39 24,0 46,-4 65,-14 19,-9 36,-23 51,-41l0 116c-19,11 -39,18 -60,24 -21,5 -44,8 -68,8 -69,0 -125,-23 -169,-67 -43,-44 -65,-101 -65,-171 0,-71 22,-128 68,-171 45,-44 104,-66 177,-66 23,0 44,2 63,7 19,4 37,11 54,21l0 113z"/>
  <path id="155" class="fil1" d="M10674 8111c0,-41 -14,-75 -40,-104 -26,-28 -59,-42 -97,-42 -37,0 -70,14 -96,42 -27,29 -40,63 -40,104 0,41 13,76 40,104 26,29 59,43 96,43 38,0 70,-14 97,-43 26,-28 40,-63 40,-104zm-380 -1c0,-32 7,-62 19,-91 12,-29 30,-54 53,-76 22,-22 48,-39 78,-51 29,-12 60,-18 92,-18 34,0 65,6 94,18 29,12 56,29 79,52 23,23 41,48 53,77 12,28 18,58 18,89 0,33 -6,64 -18,92 -12,29 -29,54 -52,76 -24,23 -51,41 -81,53 -29,11 -60,18 -93,18 -31,0 -62,-7 -92,-18 -29,-12 -55,-30 -78,-52 -24,-23 -41,-49 -53,-77 -12,-29 -19,-59 -19,-92z"/>
  <path id="156" class="fil1" d="M10988 8330l-101 0 0 -441 95 0 0 73c20,-31 43,-54 68,-68 26,-14 56,-21 91,-21 34,0 63,7 85,22 23,14 40,36 52,66 23,-31 48,-53 74,-67 26,-14 56,-21 90,-21 29,0 54,6 76,16 22,11 39,27 51,47 5,10 9,21 12,35 3,13 4,32 4,57l0 35 0 267 -101 0 0 -226c0,-59 -6,-98 -19,-117 -12,-19 -35,-28 -67,-28 -40,0 -68,13 -85,38 -17,25 -25,69 -25,133l0 200 -102 0 0 -226c0,-55 -7,-92 -20,-113 -13,-22 -36,-32 -68,-32 -20,0 -38,4 -54,13 -17,9 -30,22 -40,38 -6,10 -10,22 -13,37 -2,15 -3,43 -3,83l0 200z"/>
  <path id="157" class="fil1" d="M11818 7889l0 249c0,43 9,74 27,92 17,19 46,28 86,28 39,0 68,-9 86,-28 17,-18 26,-49 26,-92l0 -249 101 0 0 219c0,84 -17,145 -51,183 -33,38 -87,58 -161,58 -76,0 -130,-19 -164,-57 -34,-38 -51,-99 -51,-184l0 -219 101 0z"/>
  <path id="158" class="fil1" d="M12280 8330l0 -441 95 0 0 73c20,-31 44,-53 71,-67 27,-14 61,-21 100,-21 33,0 61,5 84,16 23,10 41,26 54,46 8,12 13,26 17,42 3,16 5,45 5,85l0 267 -102 0 0 -226c0,-58 -7,-96 -21,-116 -14,-19 -39,-28 -75,-28 -24,0 -45,4 -63,13 -19,9 -33,21 -44,37 -7,10 -13,24 -15,40 -3,17 -5,43 -5,80l0 200 -101 0z"/>
  <path id="159" class="fil1" d="M12831 7699c0,-17 7,-32 19,-44 13,-13 28,-19 45,-19 18,0 33,6 45,18 12,12 18,27 18,45 0,18 -6,33 -18,45 -12,13 -27,19 -45,19 -17,0 -32,-7 -45,-19 -12,-13 -19,-28 -19,-45zm14 631l0 -441 101 0 0 441 -101 0z"/>
  <path id="160" class="fil1" d="M13407 8108c0,-45 -11,-81 -32,-106 -21,-26 -51,-38 -89,-38 -38,0 -68,13 -90,39 -22,26 -33,63 -33,109 0,47 11,83 32,109 21,25 51,38 89,38 37,0 66,-14 89,-41 23,-28 34,-64 34,-110zm-3 -499l101 0 0 721 -101 0 0 -57c-18,26 -39,45 -63,57 -24,12 -52,19 -83,19 -62,0 -111,-22 -147,-64 -36,-43 -54,-101 -54,-176 0,-70 19,-127 55,-170 37,-43 85,-65 144,-65 36,0 66,8 92,23 26,15 44,36 56,64l0 -352z"/>
  <path id="161" class="fil1" d="M14059 8330l-101 0 0 -57c-18,26 -39,45 -63,57 -24,12 -51,19 -82,19 -63,0 -112,-22 -147,-64 -36,-43 -54,-101 -54,-176 0,-70 18,-127 55,-170 36,-43 84,-65 143,-65 36,0 67,8 92,23 26,15 45,36 56,64l0 -72 101 0 0 441zm-98 -222c0,-45 -10,-81 -32,-106 -21,-26 -51,-38 -89,-38 -38,0 -68,13 -90,39 -22,26 -33,63 -33,109 0,47 11,83 32,109 21,25 51,38 89,38 37,0 66,-14 89,-41 23,-28 34,-64 34,-110z"/>
  <path id="162" class="fil1" d="M14516 8108c0,-45 -11,-81 -32,-106 -22,-26 -51,-38 -89,-38 -39,0 -69,13 -90,39 -22,26 -33,63 -33,109 0,47 10,83 31,109 22,25 51,38 90,38 36,0 66,-14 89,-41 22,-28 34,-64 34,-110zm-3 -499l101 0 0 721 -101 0 0 -57c-18,26 -39,45 -63,57 -24,12 -52,19 -83,19 -62,0 -111,-22 -147,-64 -36,-43 -54,-101 -54,-176 0,-70 18,-127 55,-170 37,-43 84,-65 143,-65 36,0 67,8 93,23 25,15 44,36 56,64l0 -352z"/>
  <path id="163" class="fil1" d="M15178 8125l-353 0c3,41 15,73 37,96 22,24 51,35 88,35 33,0 60,-7 81,-20 22,-14 41,-36 57,-67l85 48c-25,44 -56,77 -92,99 -37,22 -80,33 -129,33 -71,0 -127,-22 -169,-65 -42,-43 -63,-101 -63,-173 0,-69 22,-126 65,-170 44,-45 99,-67 167,-67 71,0 126,20 166,61 40,41 60,98 60,171l0 19zm-105 -68c-4,-32 -16,-56 -36,-72 -20,-17 -48,-25 -83,-25 -33,0 -60,8 -80,24 -20,16 -34,41 -42,73l241 0z"/>
  <path id="164" class="fil1" d="M15232 8250l84 -45c6,22 18,39 34,50 17,12 39,17 65,17 23,0 40,-5 53,-15 13,-11 19,-25 19,-43 0,-24 -22,-44 -68,-61 -16,-6 -28,-11 -36,-14 -47,-20 -80,-40 -99,-60 -19,-20 -28,-44 -28,-73 0,-40 15,-72 46,-96 31,-25 72,-37 123,-37 34,0 63,7 87,19 25,13 42,30 53,54l-71 49c-5,-14 -15,-25 -28,-33 -13,-8 -28,-13 -45,-13 -20,0 -35,5 -47,14 -11,9 -17,21 -17,37 0,23 26,44 78,62 16,6 29,11 38,15 41,16 70,34 87,55 18,20 26,45 26,76 0,44 -16,78 -48,103 -31,25 -75,38 -132,38 -43,0 -78,-9 -107,-25 -28,-16 -51,-40 -67,-74z"/>
  <path id="165" class="fil1" d="M16052 8538l-104 0 121 -246 -162 -403 112 0 81 229c4,14 9,28 12,42 4,15 6,29 9,44 4,-15 13,-40 29,-74l2 -5 109 -236 109 0 -318 649z"/>
  <path id="166" class="fil1" d="M1446 9250c0,46 11,82 34,110 23,27 53,41 90,41 38,0 68,-13 89,-39 21,-25 31,-61 31,-108 0,-46 -11,-83 -33,-109 -21,-26 -51,-40 -90,-40 -38,0 -67,13 -89,39 -21,25 -32,61 -32,106zm-98 430l0 -649 101 0 0 72c12,-28 31,-49 57,-64 26,-15 57,-23 93,-23 58,0 106,21 142,65 37,43 55,100 55,170 0,74 -18,133 -54,175 -36,43 -85,64 -147,64 -31,0 -59,-6 -83,-18 -24,-13 -45,-32 -63,-57l0 265 -101 0z"/>
  <path id="167" class="fil1" d="M2249 9253c0,-41 -13,-76 -39,-104 -27,-28 -59,-43 -97,-43 -38,0 -70,15 -96,43 -27,28 -40,63 -40,104 0,41 13,76 40,104 26,29 58,43 96,43 38,0 70,-14 97,-43 26,-28 39,-63 39,-104zm-379 -1c0,-32 6,-63 19,-91 12,-29 30,-54 52,-77 23,-22 49,-39 79,-50 29,-12 60,-18 92,-18 33,0 65,6 94,18 29,11 56,29 79,52 23,22 41,48 53,76 12,29 18,59 18,90 0,33 -6,63 -18,92 -12,28 -29,54 -52,76 -24,23 -51,40 -81,52 -29,12 -60,18 -93,18 -32,0 -63,-6 -92,-18 -29,-12 -56,-29 -79,-51 -23,-23 -40,-49 -53,-78 -12,-28 -18,-59 -18,-91z"/>
  <path id="168" class="fil1" d="M2463 9472l0 -441 94 0 0 73c21,-31 44,-53 72,-67 27,-14 60,-21 99,-21 33,0 61,5 84,15 23,11 41,26 54,47 8,12 14,26 17,42 4,16 5,44 5,85l0 267 -102 0 0 -226c0,-58 -7,-97 -21,-116 -14,-19 -39,-28 -75,-28 -23,0 -45,4 -63,13 -18,8 -33,21 -43,36 -8,11 -13,24 -16,41 -3,17 -4,43 -4,79l0 201 -101 0z"/>
  <path id="169" class="fil1" d="M3340 9250c0,-45 -11,-81 -32,-106 -22,-26 -51,-39 -89,-39 -39,0 -69,14 -90,40 -22,26 -33,63 -33,109 0,47 10,83 31,108 21,26 51,39 90,39 36,0 66,-14 89,-42 22,-27 34,-63 34,-109zm-3 -499l101 0 0 721 -101 0 0 -57c-18,25 -39,44 -63,57 -24,12 -52,18 -83,18 -62,0 -111,-21 -147,-64 -36,-42 -54,-101 -54,-175 0,-70 18,-127 55,-170 37,-44 84,-65 143,-65 36,0 67,7 93,22 25,15 44,37 56,65l0 -352z"/>
  <path id="170" class="fil1" d="M3678 9102c11,-30 25,-51 43,-65 18,-14 40,-21 66,-21 15,0 29,2 42,5 14,3 28,8 41,15l-36 86c-9,-7 -18,-11 -28,-14 -10,-3 -22,-4 -34,-4 -34,0 -58,13 -72,40 -15,27 -22,72 -22,135l0 193 -101 0 0 -442 101 0 0 72z"/>
  <path id="171" class="fil1" d="M4343 9472l-101 0 0 -57c-18,25 -39,44 -63,57 -24,12 -52,18 -83,18 -62,0 -111,-21 -147,-64 -36,-42 -54,-101 -54,-175 0,-70 18,-127 55,-170 37,-44 84,-65 143,-65 36,0 67,7 93,22 25,15 44,37 56,65l0 -72 101 0 0 441zm-98 -222c0,-45 -11,-81 -32,-106 -22,-26 -51,-39 -89,-39 -39,0 -69,14 -90,40 -22,26 -33,63 -33,109 0,47 10,83 31,108 22,26 51,39 90,39 36,0 66,-14 88,-42 23,-27 35,-64 35,-109zm-171 -286l89 -126 105 0 -137 126 -57 0z"/>
  <path id="172" class="fil1" d="M5194 9266l-352 0c2,42 15,74 37,97 21,23 51,35 88,35 32,0 59,-7 81,-21 22,-13 40,-35 57,-66l84 48c-24,44 -55,77 -92,99 -36,21 -79,32 -128,32 -71,0 -127,-21 -169,-64 -42,-44 -63,-101 -63,-173 0,-69 22,-126 65,-170 43,-45 99,-67 167,-67 71,0 126,20 166,61 39,40 59,97 59,170l0 19zm-105 -67c-4,-32 -16,-56 -36,-72 -20,-17 -48,-25 -83,-25 -33,0 -59,8 -80,24 -20,16 -34,40 -42,73l241 0z"/>
  <path id="173" class="fil1" d="M5299 9472l0 -441 95 0 0 73c20,-31 44,-53 71,-67 27,-14 61,-21 100,-21 33,0 61,5 84,15 23,11 41,26 54,47 8,12 13,26 17,42 3,16 5,44 5,85l0 267 -102 0 0 -226c0,-58 -7,-97 -21,-116 -14,-19 -39,-28 -75,-28 -24,0 -45,4 -63,13 -19,8 -33,21 -44,36 -7,11 -13,24 -15,41 -4,17 -5,43 -5,79l0 201 -101 0z"/>
  <path id="174" class="fil1" d="M6247 9472l-100 0 0 -441 94 0 0 73c21,-31 43,-54 69,-68 26,-14 56,-21 91,-21 34,0 63,7 85,22 23,14 40,36 52,66 23,-31 48,-53 74,-67 26,-14 56,-21 89,-21 30,0 55,5 77,16 21,11 38,26 50,47 6,9 10,21 13,34 2,14 4,33 4,57l0 36 0 267 -101 0 0 -226c0,-59 -7,-98 -19,-117 -13,-19 -35,-28 -67,-28 -40,0 -68,12 -85,38 -17,25 -25,69 -25,132l0 201 -102 0 0 -226c0,-55 -7,-93 -20,-114 -13,-21 -36,-31 -68,-31 -20,0 -38,4 -55,13 -16,9 -29,22 -39,37 -6,11 -10,23 -13,38 -2,15 -4,42 -4,82l0 201z"/>
  <path id="175" class="fil1" d="M7395 9472l-101 0 0 -57c-18,25 -39,44 -63,57 -24,12 -51,18 -82,18 -63,0 -112,-21 -148,-64 -35,-42 -53,-101 -53,-175 0,-70 18,-127 54,-170 37,-44 85,-65 144,-65 36,0 67,7 92,22 26,15 45,37 56,65l0 -72 101 0 0 441zm-98 -222c0,-45 -11,-81 -32,-106 -21,-26 -51,-39 -89,-39 -38,0 -68,14 -90,40 -22,26 -33,63 -33,109 0,47 11,83 32,108 21,26 51,39 89,39 37,0 66,-14 89,-42 23,-27 34,-64 34,-109z"/>
  <path id="176" class="fil1" d="M7635 9102c11,-30 26,-51 43,-65 18,-14 40,-21 67,-21 14,0 28,2 42,5 14,3 27,8 41,15l-37 86c-8,-7 -18,-11 -28,-14 -10,-3 -21,-4 -34,-4 -33,0 -57,13 -72,40 -14,27 -22,72 -22,135l0 193 -101 0 0 -442 101 0 0 72z"/>
  <path id="177" class="fil1" d="M8215 9157c-16,-17 -34,-30 -55,-39 -20,-9 -42,-14 -66,-14 -42,0 -75,14 -99,40 -25,27 -38,62 -38,107 0,45 13,81 38,108 25,26 59,39 103,39 25,0 47,-5 66,-14 19,-9 36,-23 51,-41l0 116c-19,10 -39,18 -60,23 -21,6 -44,8 -68,8 -69,0 -125,-22 -169,-66 -44,-44 -65,-101 -65,-171 0,-71 22,-128 67,-172 45,-43 104,-65 177,-65 23,0 44,2 64,7 19,4 37,11 54,21l0 113z"/>
  <path id="178" class="fil1" d="M8318 9472l0 -721 95 0 0 353c20,-31 43,-53 71,-67 27,-14 60,-21 99,-21 33,0 61,5 84,15 23,11 41,26 54,47 8,12 14,26 17,42 4,16 5,44 5,85l0 267 -102 0 0 -226c0,-58 -7,-97 -21,-116 -14,-19 -39,-28 -75,-28 -23,0 -45,4 -63,13 -18,8 -33,21 -43,36 -8,11 -13,24 -16,41 -3,17 -4,43 -4,79l0 201 -101 0z"/>
  <path id="179" class="fil1" d="M9293 9472l-101 0 0 -57c-18,25 -39,44 -63,57 -24,12 -52,18 -83,18 -62,0 -111,-21 -147,-64 -36,-42 -54,-101 -54,-175 0,-70 18,-127 55,-170 37,-44 84,-65 143,-65 36,0 67,7 93,22 25,15 44,37 56,65l0 -72 101 0 0 441zm-98 -222c0,-45 -11,-81 -32,-106 -22,-26 -51,-39 -89,-39 -39,0 -69,14 -90,40 -22,26 -33,63 -33,109 0,47 10,83 31,108 22,26 51,39 90,39 36,0 66,-14 88,-42 23,-27 35,-64 35,-109z"/>
  <path id="180" class="fil1" d="M9817 9250c0,46 11,82 34,110 23,27 53,41 90,41 38,0 68,-13 89,-39 21,-25 31,-61 31,-108 0,-46 -11,-83 -33,-109 -21,-26 -51,-40 -90,-40 -38,0 -67,13 -89,39 -21,25 -32,61 -32,106zm-98 430l0 -649 101 0 0 72c12,-28 31,-49 57,-64 26,-15 57,-23 93,-23 58,0 106,21 142,65 37,43 55,100 55,170 0,74 -18,133 -54,175 -36,43 -85,64 -147,64 -31,0 -59,-6 -83,-18 -24,-13 -45,-32 -63,-57l0 265 -101 0z"/>
  <path id="181" class="fil1" d="M10375 9102c11,-30 25,-51 43,-65 18,-14 40,-21 66,-21 14,0 28,2 42,5 14,3 28,8 41,15l-36 86c-9,-7 -18,-11 -28,-14 -11,-3 -22,-4 -34,-4 -34,0 -58,13 -72,40 -15,27 -22,72 -22,135l0 193 -101 0 0 -442 101 0 0 72z"/>
  <path id="182" class="fil1" d="M10971 9253c0,-41 -13,-76 -39,-104 -27,-28 -59,-43 -97,-43 -38,0 -70,15 -97,43 -26,28 -39,63 -39,104 0,41 13,76 39,104 27,29 59,43 97,43 38,0 70,-14 96,-43 27,-28 40,-63 40,-104zm-379 -1c0,-32 6,-63 18,-91 13,-29 30,-54 53,-77 23,-22 49,-39 78,-50 30,-12 61,-18 93,-18 33,0 64,6 94,18 29,11 55,29 79,52 23,22 40,48 53,76 12,29 18,59 18,90 0,33 -6,63 -18,92 -12,28 -30,54 -53,76 -24,23 -51,40 -80,52 -29,12 -61,18 -93,18 -32,0 -63,-6 -92,-18 -30,-12 -56,-29 -79,-51 -23,-23 -41,-49 -53,-78 -12,-28 -18,-59 -18,-91z"/>
  <path id="183" class="fil1" d="M11501 9250c0,-45 -10,-81 -31,-106 -22,-26 -51,-39 -89,-39 -39,0 -69,14 -90,40 -22,26 -33,63 -33,109 0,47 10,83 31,108 21,26 51,39 90,39 36,0 65,-14 88,-42 23,-27 34,-64 34,-109zm99 195c0,86 -18,147 -52,182 -34,35 -93,53 -174,53 -61,0 -110,-13 -146,-39 -36,-25 -54,-59 -55,-102l108 -1c2,19 11,34 27,44 16,10 39,15 68,15 43,0 74,-10 93,-28 19,-19 28,-51 29,-95l1 -59c-18,25 -39,44 -63,57 -25,12 -52,18 -83,18 -62,0 -112,-21 -147,-64 -36,-42 -54,-101 -54,-175 0,-70 18,-127 55,-170 37,-44 84,-65 143,-65 36,0 67,7 93,22 25,15 44,37 56,65l0 -72 101 0 0 414z"/>
  <path id="184" class="fil1" d="M11840 9102c11,-30 25,-51 43,-65 18,-14 40,-21 66,-21 14,0 28,2 42,5 14,3 28,8 41,15l-36 86c-9,-7 -18,-11 -28,-14 -11,-3 -22,-4 -34,-4 -34,0 -58,13 -72,40 -15,27 -22,72 -22,135l0 193 -101 0 0 -442 101 0 0 72z"/>
  <path id="185" class="fil1" d="M12505 9472l-101 0 0 -57c-18,25 -39,44 -63,57 -24,12 -52,18 -83,18 -62,0 -112,-21 -147,-64 -36,-42 -54,-101 -54,-175 0,-70 18,-127 55,-170 37,-44 84,-65 143,-65 36,0 67,7 93,22 25,15 44,37 56,65l0 -72 101 0 0 441zm-98 -222c0,-45 -11,-81 -32,-106 -22,-26 -51,-39 -89,-39 -39,0 -69,14 -90,40 -22,26 -33,63 -33,109 0,47 10,83 31,108 21,26 51,39 90,39 36,0 66,-14 88,-42 23,-27 35,-64 35,-109z"/>
  <path id="186" class="fil1" d="M12745 9472l-101 0 0 -441 95 0 0 73c20,-31 43,-54 68,-68 26,-14 56,-21 91,-21 34,0 63,7 85,22 23,14 40,36 52,66 23,-31 48,-53 74,-67 26,-14 56,-21 90,-21 29,0 54,5 76,16 22,11 38,26 51,47 5,9 9,21 12,34 3,14 4,33 4,57l0 36 0 267 -101 0 0 -226c0,-59 -6,-98 -19,-117 -13,-19 -35,-28 -67,-28 -40,0 -68,12 -85,38 -17,25 -25,69 -25,132l0 201 -102 0 0 -226c0,-55 -7,-93 -20,-114 -13,-21 -36,-31 -68,-31 -20,0 -38,4 -54,13 -17,9 -30,22 -40,37 -6,11 -10,23 -13,38 -2,15 -3,42 -3,82l0 201z"/>
  <path id="187" class="fil1" d="M13892 9472l-101 0 0 -57c-17,25 -39,44 -63,57 -24,12 -51,18 -82,18 -62,0 -112,-21 -147,-64 -36,-42 -54,-101 -54,-175 0,-70 18,-127 55,-170 36,-44 84,-65 143,-65 36,0 67,7 92,22 26,15 45,37 56,65l0 -72 101 0 0 441zm-98 -222c0,-45 -10,-81 -32,-106 -21,-26 -51,-39 -89,-39 -38,0 -68,14 -90,40 -22,26 -33,63 -33,109 0,47 11,83 32,108 21,26 51,39 89,39 37,0 66,-14 89,-42 23,-27 34,-64 34,-109z"/>
  <path id="188" class="fil1" d="M13981 9392l84 -46c6,22 17,39 34,51 17,11 39,17 65,17 22,0 40,-5 53,-16 13,-10 19,-24 19,-42 0,-24 -23,-45 -68,-62 -16,-5 -28,-10 -36,-14 -47,-19 -80,-39 -99,-59 -19,-20 -28,-45 -28,-73 0,-40 15,-72 46,-96 31,-25 72,-37 123,-37 34,0 63,6 87,19 24,12 42,30 53,53l-71 50c-5,-14 -15,-25 -28,-33 -13,-9 -28,-13 -46,-13 -19,0 -34,5 -46,14 -11,9 -17,21 -17,36 0,23 26,44 78,63 16,6 29,11 38,15 40,16 70,34 87,54 18,21 26,46 26,76 0,44 -16,79 -48,104 -32,25 -75,37 -132,37 -43,0 -79,-8 -107,-24 -29,-16 -51,-41 -67,-74z"/>
  <path id="189" class="fil1" d="M15042 9250c0,-45 -11,-81 -32,-106 -21,-26 -51,-39 -89,-39 -38,0 -68,14 -90,40 -22,26 -33,63 -33,109 0,47 10,83 32,108 21,26 51,39 89,39 36,0 66,-14 89,-42 22,-27 34,-63 34,-109zm-3 -499l101 0 0 721 -101 0 0 -57c-18,25 -39,44 -63,57 -24,12 -52,18 -83,18 -62,0 -111,-21 -147,-64 -36,-42 -54,-101 -54,-175 0,-70 18,-127 55,-170 37,-44 85,-65 144,-65 36,0 66,7 92,22 25,15 44,37 56,65l0 -352z"/>
  <path id="190" class="fil1" d="M15704 9266l-353 0c3,42 15,74 37,97 22,23 51,35 88,35 33,0 60,-7 81,-21 22,-13 41,-35 57,-66l85 48c-25,44 -55,77 -92,99 -37,21 -80,32 -129,32 -71,0 -127,-21 -169,-64 -41,-44 -62,-101 -62,-173 0,-69 21,-126 65,-170 43,-45 98,-67 166,-67 71,0 127,20 166,61 40,40 60,97 60,170l0 19zm-105 -67c-4,-32 -16,-56 -36,-72 -20,-17 -48,-25 -83,-25 -33,0 -60,8 -80,24 -20,16 -34,40 -42,73l241 0z"/>
  <path id="191" class="fil1" d="M1449 10243c11,-29 25,-50 43,-64 18,-14 40,-21 67,-21 14,0 28,1 42,5 14,3 27,8 41,14l-37 86c-8,-6 -18,-10 -28,-13 -10,-3 -21,-5 -34,-5 -33,0 -57,14 -72,40 -14,27 -22,72 -22,136l0 193 -101 0 0 -442 101 0 0 71z"/>
  <path id="192" class="fil1" d="M2124 10408l-353 0c3,41 15,74 37,97 22,23 51,35 88,35 33,0 60,-7 81,-21 22,-14 41,-36 57,-66l85 47c-25,45 -55,78 -92,99 -37,22 -80,33 -129,33 -71,0 -127,-22 -169,-65 -41,-43 -62,-100 -62,-172 0,-69 21,-126 64,-171 44,-44 99,-66 167,-66 71,0 127,20 166,61 40,40 60,97 60,170l0 19zm-105 -67c-4,-32 -16,-56 -36,-73 -20,-16 -48,-25 -83,-25 -33,0 -60,8 -80,24 -20,17 -34,41 -42,74l241 0z"/>
  <path id="193" class="fil1" d="M2558 10299c-15,-17 -33,-30 -54,-39 -21,-9 -43,-14 -67,-14 -41,0 -74,14 -99,40 -25,27 -37,62 -37,106 0,46 13,82 38,108 24,27 59,40 103,40 25,0 46,-5 66,-14 19,-9 36,-23 50,-42l0 117c-18,10 -38,18 -60,23 -21,5 -43,8 -67,8 -69,0 -126,-22 -169,-66 -44,-44 -66,-101 -66,-171 0,-71 23,-128 68,-172 45,-44 104,-65 177,-65 23,0 44,2 63,6 19,5 38,12 54,21l0 114z"/>
  <path id="194" class="fil1" d="M3008 10395c0,-41 -13,-76 -40,-104 -26,-29 -58,-43 -96,-43 -38,0 -70,14 -97,43 -26,28 -39,63 -39,104 0,41 13,76 39,104 27,28 59,42 97,42 38,0 70,-14 96,-42 27,-28 40,-63 40,-104zm-379 -1c0,-32 6,-63 18,-91 13,-29 30,-55 53,-77 23,-22 49,-39 78,-51 30,-11 61,-17 93,-17 33,0 64,6 94,17 29,12 55,29 79,52 23,23 40,49 53,77 12,29 18,59 18,90 0,32 -6,63 -18,91 -12,29 -30,54 -53,76 -24,24 -51,41 -80,53 -30,12 -61,18 -93,18 -32,0 -63,-6 -92,-18 -30,-12 -56,-29 -79,-52 -23,-23 -41,-48 -53,-77 -12,-28 -18,-59 -18,-91z"/>
  <path id="195" class="fil1" d="M3221 10614l0 -441 95 0 0 72c20,-30 44,-52 71,-66 28,-14 61,-21 100,-21 33,0 61,5 84,15 23,11 41,26 54,47 8,12 13,26 17,42 3,16 5,44 5,85l0 267 -102 0 0 -227c0,-57 -7,-96 -21,-115 -14,-19 -39,-29 -75,-29 -24,0 -45,5 -63,13 -19,9 -33,21 -44,37 -7,11 -13,24 -15,41 -3,16 -5,43 -5,79l0 201 -101 0z"/>
  <path id="196" class="fil1" d="M3936 10641l-231 -468 110 0 97 222c3,7 6,17 11,30 4,14 9,30 13,49 3,-13 7,-26 11,-40 4,-13 9,-26 15,-39l96 -222 110 0 -232 468z"/>
  <path id="197" class="fil1" d="M4656 10408l-353 0c3,41 15,74 37,97 22,23 51,35 88,35 33,0 60,-7 81,-21 22,-14 41,-36 57,-66l85 47c-25,45 -56,78 -92,99 -37,22 -80,33 -129,33 -71,0 -127,-22 -169,-65 -42,-43 -63,-100 -63,-172 0,-69 22,-126 65,-171 44,-44 99,-66 167,-66 71,0 126,20 166,61 40,40 60,97 60,170l0 19zm-105 -67c-4,-32 -16,-56 -36,-73 -20,-16 -48,-25 -83,-25 -33,0 -60,8 -80,24 -20,17 -34,41 -42,74l241 0z"/>
  <path id="198" class="fil1" d="M4862 10243c11,-29 25,-50 43,-64 18,-14 40,-21 66,-21 14,0 28,1 42,5 14,3 28,8 41,14l-36 86c-9,-6 -18,-10 -28,-13 -11,-3 -22,-5 -34,-5 -34,0 -58,14 -73,40 -14,27 -21,72 -21,136l0 193 -101 0 0 -442 101 0 0 71z"/>
  <path id="199" class="fil1" d="M5061 10534l84 -46c6,22 17,39 34,50 17,12 38,18 65,18 22,0 40,-5 53,-16 13,-10 19,-24 19,-42 0,-24 -23,-45 -69,-62 -15,-5 -27,-10 -35,-14 -48,-19 -81,-39 -99,-59 -19,-20 -28,-45 -28,-74 0,-39 15,-71 46,-96 31,-24 72,-36 122,-36 34,0 64,6 88,19 24,12 42,30 53,53l-71 50c-6,-14 -15,-25 -28,-34 -13,-8 -28,-12 -46,-12 -19,0 -34,4 -46,14 -12,9 -17,21 -17,36 0,23 26,44 78,63 16,6 29,11 38,14 40,17 69,35 87,55 17,20 26,46 26,76 0,44 -16,79 -48,104 -32,24 -76,37 -132,37 -43,0 -79,-8 -107,-24 -29,-16 -51,-41 -67,-74z"/>
  <path id="200" class="fil1" d="M5508 9982c0,-17 7,-31 19,-44 13,-12 28,-18 45,-18 18,0 33,6 45,17 12,12 18,27 18,45 0,18 -6,34 -18,46 -12,12 -27,18 -45,18 -17,0 -32,-6 -45,-19 -12,-12 -19,-27 -19,-45zm14 632l0 -441 101 0 0 441 -101 0z"/>
  <path id="201" class="fil1" d="M6113 10395c0,-41 -13,-76 -39,-104 -27,-29 -59,-43 -97,-43 -38,0 -70,14 -96,43 -27,28 -40,63 -40,104 0,41 13,76 40,104 26,28 58,42 96,42 38,0 70,-14 97,-42 26,-28 39,-63 39,-104zm-379 -1c0,-32 6,-63 19,-91 12,-29 29,-55 52,-77 23,-22 49,-39 79,-51 29,-11 60,-17 92,-17 33,0 65,6 94,17 29,12 56,29 79,52 23,23 41,49 53,77 12,29 18,59 18,90 0,32 -6,63 -18,91 -12,29 -29,54 -52,76 -24,24 -51,41 -81,53 -29,12 -60,18 -93,18 -32,0 -63,-6 -92,-18 -29,-12 -56,-29 -79,-52 -23,-23 -40,-48 -53,-77 -12,-28 -18,-59 -18,-91zm177 -288l89 -126 105 0 -136 126 -58 0z"/>
  <path id="202" class="fil1" d="M6327 10614l0 -441 94 0 0 72c21,-30 44,-52 72,-66 27,-14 60,-21 99,-21 33,0 61,5 84,15 23,11 41,26 54,47 8,12 14,26 17,42 4,16 5,44 5,85l0 267 -102 0 0 -227c0,-57 -7,-96 -21,-115 -14,-19 -39,-29 -75,-29 -23,0 -45,5 -63,13 -18,9 -33,21 -44,37 -7,11 -12,24 -15,41 -3,16 -5,43 -5,79l0 201 -100 0z"/>
  <path id="203" class="fil1" d="M6900 10562c0,-17 6,-31 17,-43 12,-12 27,-18 44,-18 17,0 31,6 43,18 12,12 18,26 18,43 0,17 -6,31 -18,43 -12,12 -26,17 -43,17 -17,0 -32,-5 -44,-17 -11,-12 -17,-26 -17,-43z"/>
  <path class="fil2" d="M1387 1094c36,41 71,71 106,91 35,20 69,30 104,30 32,0 59,-9 79,-26 21,-17 31,-39 31,-66 0,-29 -9,-51 -27,-67 -17,-16 -58,-33 -121,-49 -86,-24 -148,-54 -183,-91 -36,-38 -54,-89 -54,-154 0,-85 28,-153 85,-207 56,-53 130,-80 220,-80 48,0 94,7 138,20 44,13 85,33 124,59l-75 173c-28,-23 -56,-40 -85,-52 -28,-12 -57,-18 -85,-18 -29,0 -52,7 -70,21 -18,13 -27,31 -27,53 0,22 7,40 23,53 16,13 47,26 92,38l11 3c98,27 163,56 194,88 21,21 37,47 47,77 11,31 17,64 17,102 0,93 -31,168 -93,225 -61,57 -143,86 -246,86 -61,0 -117,-11 -168,-32 -50,-21 -99,-53 -145,-98l108 -179z"/>
  <path id="1" class="fil2" d="M2675 771l0 310c0,69 -5,120 -16,153 -11,33 -30,63 -56,88 -27,27 -61,48 -101,61 -40,13 -87,20 -142,20 -54,0 -100,-7 -140,-20 -41,-13 -74,-34 -103,-61 -26,-24 -44,-54 -55,-87 -11,-34 -17,-85 -17,-154l0 -310 205 0 0 324c0,51 9,88 26,111 17,22 44,34 82,34 38,0 66,-11 82,-34 17,-22 25,-59 25,-111l0 -324 210 0z"/>
  <path id="2" class="fil2" d="M3021 1075c0,48 12,85 37,113 25,27 59,41 102,41 44,0 79,-14 104,-41 24,-27 37,-65 37,-113 0,-47 -13,-84 -38,-112 -25,-27 -59,-41 -103,-41 -43,0 -77,14 -102,41 -25,28 -37,65 -37,112zm-190 -630l205 0 0 318c0,26 -1,47 -2,64 -1,17 -2,32 -4,45 24,-44 53,-75 85,-93 33,-19 75,-28 127,-28 81,0 147,30 197,89 51,60 76,138 76,235 0,100 -26,180 -77,239 -50,59 -118,89 -204,89 -41,0 -79,-10 -113,-31 -35,-20 -65,-51 -93,-92l0 99 -197 0 0 -934z"/>
  <path id="3" class="fil2" d="M3588 1329l44 -165c32,28 66,49 104,64 37,14 75,22 113,22 27,0 48,-5 62,-13 14,-9 21,-22 21,-38 0,-27 -28,-47 -85,-61 -19,-4 -34,-8 -45,-11 -64,-18 -111,-41 -140,-70 -29,-28 -43,-66 -43,-111 0,-60 22,-107 66,-142 45,-36 105,-53 181,-53 39,0 78,4 119,13 40,9 82,23 124,42l-45 148c-28,-19 -57,-34 -87,-44 -29,-10 -58,-15 -88,-15 -24,0 -43,4 -55,12 -13,7 -19,18 -19,33 0,21 28,40 84,55 13,3 23,6 29,8 75,21 126,46 156,75 29,28 43,67 43,116 0,62 -24,113 -72,151 -47,39 -111,58 -189,58 -54,0 -103,-6 -149,-19 -46,-12 -89,-30 -129,-55z"/>
  <path id="4" class="fil2" d="M4237 580c0,-32 11,-60 35,-83 23,-22 51,-34 83,-34 34,0 62,11 85,34 23,22 34,50 34,83 0,34 -12,62 -35,85 -23,23 -51,35 -84,35 -32,0 -60,-12 -83,-35 -23,-24 -35,-52 -35,-85zm11 799l0 -608 215 0 0 608 -215 0z"/>
  <path id="5" class="fil2" d="M5092 1075c0,-47 -12,-84 -37,-112 -25,-27 -60,-41 -103,-41 -43,0 -78,14 -102,41 -25,28 -38,65 -38,112 0,48 13,86 37,113 25,27 59,41 103,41 43,0 78,-14 103,-41 25,-28 37,-65 37,-113zm191 -630l0 934 -198 0 0 -99c-27,41 -58,72 -92,92 -34,21 -72,31 -114,31 -86,0 -154,-30 -204,-89 -51,-59 -76,-139 -76,-239 0,-97 25,-175 75,-235 51,-59 116,-89 198,-89 51,0 93,9 125,28 33,18 61,49 87,93 -3,-15 -4,-31 -6,-50 -1,-18 -1,-38 -1,-59l0 -318 206 0z"/>
  <path id="6" class="fil2" d="M5437 580c0,-32 12,-60 35,-83 23,-22 51,-34 84,-34 33,0 62,11 84,34 23,22 34,50 34,83 0,34 -11,62 -34,85 -23,23 -51,35 -84,35 -33,0 -60,-12 -84,-35 -23,-24 -35,-52 -35,-85zm11 799l0 -608 215 0 0 608 -215 0z"/>
  <path id="7" class="fil2" d="M6260 1076c0,-45 -12,-81 -35,-107 -23,-26 -54,-39 -93,-39 -39,0 -70,13 -93,39 -22,26 -34,62 -34,107 0,46 12,82 34,108 22,25 54,38 93,38 40,0 71,-13 94,-38 22,-26 34,-62 34,-108zm213 0c0,44 -8,86 -26,125 -17,40 -41,75 -74,106 -33,32 -70,56 -111,72 -40,16 -84,24 -130,24 -46,0 -90,-8 -131,-24 -41,-16 -77,-40 -109,-72 -32,-30 -57,-65 -74,-105 -17,-39 -25,-81 -25,-126 0,-44 8,-86 25,-126 17,-39 41,-74 74,-106 32,-31 68,-54 109,-70 40,-15 84,-23 131,-23 48,0 91,8 132,23 40,16 77,39 109,70 33,32 58,68 75,107 17,39 25,81 25,125z"/>
  <path id="8" class="fil2" d="M6540 1329l45 -165c31,28 65,49 103,64 38,14 76,22 114,22 27,0 47,-5 61,-13 14,-9 21,-22 21,-38 0,-27 -28,-47 -85,-61 -18,-4 -33,-8 -44,-11 -65,-18 -111,-41 -141,-70 -29,-28 -43,-66 -43,-111 0,-60 22,-107 66,-142 45,-36 105,-53 181,-53 39,0 79,4 119,13 40,9 82,23 124,42l-45 148c-28,-19 -57,-34 -87,-44 -29,-10 -58,-15 -88,-15 -24,0 -43,4 -55,12 -13,7 -19,18 -19,33 0,21 28,40 85,55 13,3 22,6 29,8 74,21 126,46 155,75 29,28 43,67 43,116 0,62 -23,113 -71,151 -48,39 -112,58 -190,58 -54,0 -103,-6 -149,-19 -46,-12 -89,-30 -129,-55z"/>
  <path id="9" class="fil2" d="M7547 1648l172 -361 -246 -516 238 0 85 219c8,19 14,36 19,52 4,16 8,31 10,44 3,-14 6,-29 11,-45 4,-15 10,-32 18,-51l86 -219 229 0 -382 877 -240 0z"/>
  <path id="10" class="fil2" d="M9278 531l0 263c-32,-37 -65,-63 -98,-80 -33,-18 -68,-26 -105,-26 -69,0 -125,23 -168,71 -43,47 -64,108 -64,184 0,71 21,130 65,176 44,47 99,70 167,70 37,0 72,-8 105,-25 33,-17 66,-44 98,-81l0 263c-38,18 -76,32 -113,42 -38,9 -76,13 -115,13 -48,0 -93,-5 -133,-17 -41,-11 -78,-29 -113,-52 -65,-44 -116,-100 -150,-167 -35,-67 -52,-143 -52,-227 0,-67 11,-128 33,-184 22,-55 55,-105 99,-150 42,-43 89,-75 141,-97 53,-21 111,-32 175,-32 39,0 77,5 115,14 37,9 75,23 113,42z"/>
  <path id="11" class="fil2" d="M9401 1379l0 -608 202 0 0 143c21,-53 50,-92 86,-118 36,-26 80,-39 132,-39 8,0 17,0 25,1 9,0 18,1 26,3l-21 195c-12,-5 -25,-8 -37,-10 -13,-2 -25,-3 -37,-3 -52,0 -92,16 -120,48 -28,32 -43,77 -43,136l0 252 -213 0z"/>
  <path id="12" class="fil2" d="M10371 996c-4,-34 -17,-62 -40,-83 -22,-21 -49,-31 -82,-31 -35,0 -63,9 -84,28 -20,19 -34,48 -41,86l247 0zm211 121l-463 0c1,47 13,84 36,109 24,26 58,38 101,38 33,0 60,-6 83,-18 22,-12 39,-30 51,-54l161 65c-19,46 -53,82 -102,108 -49,25 -109,38 -181,38 -106,0 -191,-30 -255,-89 -64,-59 -96,-136 -96,-233 0,-95 32,-173 96,-236 64,-63 145,-94 243,-94 101,0 180,31 239,95 58,64 87,151 87,261l0 10zm-158 -640l-186 211 -93 0 110 -211 169 0z"/>
  <path id="13" class="fil2" d="M11170 1075c0,-47 -12,-84 -37,-112 -25,-27 -59,-41 -103,-41 -43,0 -77,14 -102,41 -25,28 -37,65 -37,112 0,48 12,86 37,113 24,27 59,41 102,41 44,0 78,-14 103,-41 25,-28 37,-65 37,-113zm191 -630l0 934 -198 0 0 -99c-27,41 -58,72 -92,92 -34,21 -72,31 -114,31 -85,0 -153,-30 -204,-89 -51,-59 -76,-139 -76,-239 0,-97 25,-175 76,-235 50,-59 116,-89 197,-89 51,0 93,9 126,28 32,18 61,49 86,93 -2,-15 -4,-31 -5,-50 -2,-18 -2,-38 -2,-59l0 -318 206 0z"/>
  <path id="14" class="fil2" d="M11516 580c0,-32 11,-60 34,-83 23,-22 51,-34 84,-34 34,0 62,11 84,34 23,22 35,50 35,83 0,34 -12,62 -35,85 -23,23 -51,35 -84,35 -32,0 -60,-12 -83,-35 -24,-24 -35,-52 -35,-85zm11 799l0 -608 215 0 0 608 -215 0z"/>
  <polygon id="15" class="fil2" points="11939,1379 11939,922 11848,922 11848,771 11939,771 11939,589 12150,589 12150,771 12242,771 12242,922 12150,922 12150,1379 "/>
  <path id="16" class="fil2" d="M12774 1076c0,-45 -12,-81 -35,-107 -22,-26 -54,-39 -92,-39 -40,0 -71,13 -94,39 -22,26 -34,62 -34,107 0,46 12,82 34,108 23,25 54,38 94,38 39,0 70,-13 93,-38 22,-26 34,-62 34,-108zm213 0c0,44 -8,86 -25,125 -17,40 -42,75 -75,106 -33,32 -70,56 -110,72 -41,16 -85,24 -130,24 -47,0 -91,-8 -131,-24 -41,-16 -78,-40 -110,-72 -32,-30 -57,-65 -74,-105 -17,-39 -25,-81 -25,-126 0,-44 8,-86 25,-126 17,-39 41,-74 74,-106 32,-31 68,-54 109,-70 41,-15 84,-23 132,-23 47,0 91,8 131,23 41,16 77,39 109,70 33,32 58,68 75,107 17,39 25,81 25,125z"/>
  <path id="17" class="fil2" d="M13054 1329l45 -165c31,28 66,49 103,64 38,14 76,22 114,22 27,0 47,-5 61,-13 15,-9 22,-22 22,-38 0,-27 -29,-47 -86,-61 -18,-4 -33,-8 -44,-11 -65,-18 -111,-41 -140,-70 -29,-28 -44,-66 -44,-111 0,-60 22,-107 67,-142 44,-36 104,-53 180,-53 39,0 79,4 119,13 41,9 82,23 124,42l-45 148c-28,-19 -57,-34 -86,-44 -30,-10 -59,-15 -88,-15 -25,0 -43,4 -56,12 -13,7 -19,18 -19,33 0,21 28,40 85,55 13,3 22,6 29,8 74,21 126,46 155,75 29,28 44,67 44,116 0,62 -24,113 -72,151 -48,39 -111,58 -190,58 -53,0 -103,-6 -149,-19 -46,-12 -89,-30 -129,-55z"/>
 </g>
</svg>
