<?xml version="1.0" encoding="UTF-8"?>
<!DOCTYPE svg PUBLIC "-//W3C//DTD SVG 1.1//EN" "http://www.w3.org/Graphics/SVG/1.1/DTD/svg11.dtd">
<!-- Creator: CorelDRAW X7 -->
<svg xmlns="http://www.w3.org/2000/svg" xml:space="preserve" width="190.5mm" height="338.667mm" version="1.1" style="shape-rendering:geometricPrecision; text-rendering:geometricPrecision; image-rendering:optimizeQuality; fill-rule:evenodd; clip-rule:evenodd"
viewBox="0 0 19050 33867"
 xmlns:xlink="http://www.w3.org/1999/xlink">
 <defs>
  <style type="text/css">
   <![CDATA[
    .fil14 {fill:#2B2A29;fill-rule:nonzero}
    .fil2 {fill:#541124;fill-rule:nonzero}
    .fil6 {fill:#54BDBE;fill-rule:nonzero}
    .fil9 {fill:#5AAE92;fill-rule:nonzero}
    .fil5 {fill:#6B604E;fill-rule:nonzero}
    .fil3 {fill:#6EBA6D;fill-rule:nonzero}
    .fil0 {fill:#75D1B0;fill-rule:nonzero}
    .fil1 {fill:#A6B25B;fill-rule:nonzero}
    .fil8 {fill:#B3B2B2;fill-rule:nonzero}
    .fil7 {fill:#C3585C;fill-rule:nonzero}
    .fil13 {fill:#CFAE2D;fill-rule:nonzero}
    .fil12 {fill:#DF1B53;fill-rule:nonzero}
    .fil10 {fill:#F3955E;fill-rule:nonzero}
    .fil11 {fill:#F7F4E6;fill-rule:nonzero}
    .fil4 {fill:#FFFDEE;fill-rule:nonzero}
    .fil15 {fill:white;fill-rule:nonzero}
   ]]>
  </style>
 </defs>
 <g id="Capa_x0020_1">
  <metadata id="CorelCorpID_0Corel-Layer"/>
  <polygon class="fil0" points="0,33867 19050,33867 19050,0 0,0 "/>
  <g id="_56171913440">
   <path class="fil1" d="M5668 10894c-44,0 -80,-36 -80,-80 0,-2800 703,-4122 733,-4176 21,-39 70,-53 109,-32 38,21 53,69 32,108 -8,13 -714,1346 -714,4100 0,44 -36,80 -80,80z"/>
   <path class="fil2" d="M5668 10929c-63,0 -114,-52 -114,-115 0,-2809 707,-4138 737,-4193 20,-37 59,-59 100,-59 19,0 38,5 55,14 55,30 76,99 46,154 -8,14 -710,1344 -710,4084 0,63 -51,115 -114,115zm723 -4299c-16,0 -32,9 -40,24 -30,55 -729,1369 -729,4160 0,26 21,46 46,46 25,0 46,-20 46,-46 0,-2763 710,-4103 717,-4116 13,-22 4,-50 -18,-62 -7,-4 -14,-6 -22,-6z"/>
   <path class="fil3" d="M8593 4497c0,-217 -157,-393 -350,-393 -113,0 -213,60 -277,154 -26,-5 -53,-8 -80,-8 -230,0 -421,188 -460,434 -9,0 -19,-1 -28,-1 -321,0 -584,279 -608,632 -236,51 -423,253 -479,513 -362,45 -643,390 -643,809 0,449 324,814 723,814 400,0 724,-365 724,-814 0,-1 0,-2 0,-3 219,-90 379,-318 398,-590 282,-61 495,-339 495,-674 0,-29 -2,-57 -5,-84 175,-51 310,-212 343,-413 143,-50 247,-199 247,-376z"/>
   <path class="fil2" d="M6391 7485c-417,0 -757,-381 -757,-848 0,-424 277,-780 649,-840 63,-253 246,-449 475,-509 36,-360 313,-639 640,-639l0 0c52,-253 253,-433 488,-433 21,0 42,2 65,5 73,-97 178,-152 292,-152 212,0 384,192 384,428 0,181 -100,339 -251,401 -38,194 -167,351 -336,412 1,20 2,40 2,60 0,335 -208,626 -497,701 -27,261 -179,486 -396,585 -10,459 -346,829 -758,829zm1007 -2767c-299,0 -551,263 -574,600 -1,15 -12,28 -27,31 -222,47 -399,238 -452,486 -3,14 -15,25 -29,27 -350,43 -614,376 -614,775 0,430 309,779 689,779 380,0 690,-349 690,-779 -1,-14 8,-29 21,-35 211,-87 359,-307 376,-561 1,-15 12,-27 27,-31 272,-58 469,-327 469,-640 0,-26 -2,-52 -5,-80 -2,-17 9,-32 24,-37 164,-47 289,-199 319,-386 2,-12 11,-23 23,-27 132,-45 224,-187 224,-343 0,-198 -142,-359 -316,-359 -98,0 -189,51 -249,140 -8,11 -21,17 -35,14 -26,-5 -50,-8 -73,-8 -210,0 -389,171 -426,405 -3,18 -18,30 -36,29 -9,0 -17,0 -26,0z"/>
   <path class="fil1" d="M5362 10934c45,0 80,-35 80,-80 0,-2800 -341,-2434 -371,-2489 -21,-38 -70,-53 -109,-31 -38,21 -53,69 -32,108 8,13 352,-342 352,2412 0,45 36,80 80,80z"/>
   <path class="fil2" d="M5362 10969c-63,0 -114,-52 -114,-115 0,-956 -41,-1642 -123,-2038 -68,-332 -143,-348 -158,-348 -6,0 -12,2 -17,4 -5,2 -11,4 -19,4 -12,0 -25,-7 -31,-18 -30,-55 -9,-124 46,-155 17,-9 36,-13 55,-13 37,0 73,18 94,49 0,0 1,0 1,0 80,5 165,50 237,345 95,389 144,1119 144,2170 0,63 -52,115 -115,115zm-395 -2570c232,0 350,826 350,2455 0,26 20,46 45,46 26,0 46,-20 46,-46 0,-1046 -47,-1770 -141,-2153 -71,-288 -144,-292 -175,-294 -14,-1 -38,-2 -51,-25 -12,-22 -41,-30 -62,-18 -14,7 -23,21 -24,36 4,-1 8,-1 12,-1z"/>
   <path class="fil3" d="M2799 6225c0,-218 157,-394 350,-394 113,0 213,61 277,155 26,-5 53,-8 80,-8 230,0 421,187 460,434 9,-1 19,-1 28,-1 321,0 584,279 608,632 236,51 423,253 479,513 362,44 643,389 643,809 0,449 -324,813 -723,813 -400,0 -724,-364 -724,-813 0,-1 0,-2 0,-3 -219,-91 -379,-318 -398,-590 -282,-61 -495,-340 -495,-674 0,-29 2,-57 5,-84 -175,-51 -310,-212 -343,-414 -143,-49 -247,-199 -247,-375z"/>
   <path class="fil2" d="M5001 9213c-412,0 -748,-370 -758,-829 -217,-99 -369,-325 -395,-585 -290,-75 -498,-366 -498,-701 0,-20 1,-40 2,-60 -169,-61 -298,-219 -336,-413 -151,-61 -251,-220 -251,-400 0,-236 172,-428 384,-428 114,0 219,55 292,152 23,-4 44,-5 65,-5 235,0 436,180 488,433l0 0c327,0 604,278 640,639 229,59 412,255 475,509 372,59 649,416 649,840 0,467 -340,848 -757,848zm-1852 -3347c-174,0 -316,161 -316,359 0,156 92,297 224,343 12,4 21,14 23,27 30,187 155,339 318,386 16,4 27,20 25,36 -3,28 -5,55 -5,81 0,313 197,582 469,640 15,3 26,16 27,31 17,254 165,474 376,561 13,6 22,18 22,32 0,0 -1,3 -1,3 0,429 310,779 690,779 380,0 689,-350 689,-779 0,-399 -264,-732 -614,-775 -14,-2 -26,-13 -29,-27 -53,-248 -230,-439 -452,-486 -15,-4 -26,-16 -27,-31 -23,-337 -275,-601 -574,-601 -9,0 -17,1 -26,1 -18,1 -33,-11 -36,-29 -37,-234 -216,-405 -426,-405 -23,0 -47,3 -73,8 -14,2 -27,-3 -35,-15 -61,-88 -151,-139 -249,-139z"/>
   <path class="fil1" d="M6607 10891c-44,0 -79,-35 -79,-80 0,-2754 -707,-4087 -714,-4100 -21,-39 -7,-87 32,-108 39,-21 87,-7 108,32 30,55 733,1376 733,4176 0,45 -35,80 -80,80z"/>
   <path class="fil2" d="M6607 10926c-63,0 -114,-52 -114,-115 0,-2742 -702,-4070 -709,-4083 -30,-56 -10,-125 45,-155 17,-9 36,-14 55,-14 42,0 80,23 100,59 30,56 738,1384 738,4193 0,63 -52,115 -115,115zm-723 -4299c-8,0 -15,2 -22,6 -22,12 -30,40 -18,62 7,13 718,1349 718,4116 0,26 20,46 45,46 26,0 46,-20 46,-46 0,-2792 -699,-4105 -729,-4160 -8,-15 -23,-24 -40,-24z"/>
   <path class="fil3" d="M6216 6040c1,-17 2,-35 2,-53 0,-334 -211,-612 -492,-674 -82,-268 -309,-461 -576,-461 -143,0 -274,55 -378,147 -78,-67 -176,-107 -282,-107 -27,0 -54,4 -80,9 -61,-62 -142,-99 -231,-99 -193,0 -350,176 -350,393 0,161 86,299 210,360 53,224 235,390 451,390 53,0 104,-10 151,-28 89,150 228,258 390,294 9,29 20,58 32,85 -42,103 -65,217 -65,338 0,449 324,814 723,814 400,0 724,-365 724,-814 0,-234 -88,-445 -229,-594z"/>
   <path class="fil2" d="M5721 7482c-418,0 -757,-380 -757,-848 0,-117 21,-231 62,-338 -8,-18 -15,-37 -21,-56 -152,-39 -287,-140 -379,-282 -44,14 -90,21 -136,21 -222,0 -418,-164 -481,-401 -130,-72 -214,-220 -214,-383 0,-236 172,-428 384,-428 88,0 174,35 242,97 24,-4 47,-6 69,-6 101,0 198,33 281,97 111,-90 241,-138 379,-138 269,0 509,187 603,467 290,75 499,367 499,703 0,13 0,26 -1,41 147,161 228,375 228,606 0,468 -340,848 -758,848zm-1080 -1599c12,0 23,6 30,16 84,144 219,246 368,279 12,3 21,12 25,23 9,28 19,55 30,81 4,8 4,18 1,27 -42,102 -63,212 -63,325 0,430 309,780 689,780 380,0 689,-350 689,-780 0,-215 -80,-423 -219,-570 -6,-7 -10,-16 -9,-26 1,-19 2,-36 2,-51 0,-312 -196,-581 -465,-640 -12,-3 -22,-12 -25,-24 -81,-261 -299,-437 -544,-437 -130,0 -253,48 -355,139 -13,11 -32,11 -45,0 -76,-64 -166,-98 -260,-98 -23,0 -47,2 -73,7 -11,2 -23,-1 -31,-9 -58,-58 -131,-89 -207,-89 -174,0 -315,161 -315,359 0,143 74,272 190,329 9,5 15,13 18,23 51,214 223,364 418,364 47,0 93,-9 139,-26 4,-2 8,-2 12,-2z"/>
   <path class="fil1" d="M6779 11018c27,0 50,-22 50,-50 0,-1722 442,-2556 446,-2564 13,-24 4,-55 -20,-68 -24,-13 -54,-4 -68,20 -19,34 -458,861 -458,2612 0,28 22,50 50,50z"/>
   <path class="fil2" d="M6779 11052c-47,0 -84,-37 -84,-84 0,-1760 443,-2594 462,-2628 15,-27 43,-44 74,-44 14,0 28,3 40,10 41,22 56,74 34,114 -4,9 -442,841 -442,2548 0,47 -38,84 -84,84zm452 -2688c-4,0 -10,3 -14,9 -18,34 -454,852 -454,2595 0,9 7,16 16,16 8,0 16,-7 16,-16 0,-1731 446,-2572 450,-2580 4,-8 1,-18 -6,-22 -3,-1 -5,-2 -8,-2z"/>
   <path class="fil3" d="M7024 7985c-1,-12 -2,-23 -2,-34 0,-209 133,-382 308,-421 52,-168 193,-289 360,-289 90,0 172,35 237,92 49,-41 110,-66 176,-66 17,0 34,2 50,5 38,-39 89,-62 145,-62 120,0 218,110 218,246 0,100 -54,187 -131,225 -33,140 -147,244 -282,244 -33,0 -65,-6 -95,-18 -55,94 -142,162 -244,184 -5,19 -12,36 -20,53 27,65 41,136 41,212 0,281 -202,509 -452,509 -250,0 -452,-228 -452,-509 0,-147 55,-279 143,-371z"/>
   <path class="fil2" d="M7333 8899c-268,0 -487,-244 -487,-543 0,-146 51,-281 143,-384 -1,-7 -1,-14 -1,-21 0,-213 131,-399 315,-450 62,-177 216,-294 387,-294 86,0 168,28 237,82 53,-37 113,-57 176,-57 13,0 25,1 39,3 44,-38 99,-59 156,-59 139,0 252,125 252,280 0,104 -52,200 -135,248 -43,151 -169,255 -312,255 -27,0 -54,-4 -80,-11 -57,85 -140,146 -232,172 -3,8 -6,17 -9,25 25,67 38,138 38,211 0,299 -219,543 -487,543zm357 -1624c-147,0 -279,107 -328,265 -3,12 -13,21 -25,23 -162,36 -280,199 -280,388 0,10 0,21 1,31 0,10 -3,19 -10,26 -85,90 -133,216 -133,348 0,261 187,474 418,474 231,0 418,-213 418,-474 0,-70 -13,-136 -38,-199 -4,-9 -4,-18 0,-27 7,-16 14,-32 19,-49 3,-11 13,-20 25,-23 90,-20 171,-81 222,-168 8,-15 26,-21 42,-15 27,11 54,16 82,16 116,0 219,-90 249,-218 2,-10 9,-18 18,-23 68,-33 112,-110 112,-194 0,-117 -83,-212 -184,-212 -45,0 -87,18 -121,52 -8,8 -20,11 -31,9 -15,-3 -30,-4 -43,-4 -56,0 -109,20 -154,58 -13,11 -32,11 -45,0 -62,-55 -136,-84 -214,-84z"/>
   <path class="fil1" d="M6052 10894c-44,0 -80,-36 -80,-80 0,-2800 703,-4122 733,-4176 22,-39 70,-53 109,-32 39,21 53,69 32,108 -7,13 -714,1346 -714,4100 0,44 -36,80 -80,80z"/>
   <path class="fil2" d="M6052 10929c-63,0 -114,-52 -114,-115 0,-2809 707,-4138 737,-4193 20,-36 59,-59 101,-59 19,0 38,5 54,14 55,30 76,99 46,155 -7,13 -710,1344 -710,4083 0,63 -51,115 -114,115zm724 -4299c-17,0 -33,9 -41,24 -29,55 -729,1369 -729,4160 0,26 21,46 46,46 25,0 46,-20 46,-46 0,-2761 711,-4103 718,-4116 12,-22 4,-50 -18,-62 -7,-4 -15,-6 -22,-6z"/>
   <path class="fil3" d="M9327 5911c-57,0 -110,16 -157,42 -86,-107 -209,-175 -348,-175 -110,0 -211,43 -291,114 -108,-108 -250,-174 -406,-174 -166,0 -316,74 -426,195 -89,-57 -192,-90 -301,-90 -299,0 -547,241 -600,559 -7,0 -15,0 -22,0 -400,0 -724,364 -724,814 0,449 324,814 724,814 399,0 723,-365 723,-814 0,-4 0,-7 0,-10 125,-23 237,-90 324,-185 89,57 192,89 302,89 211,0 398,-121 507,-305 58,29 122,46 190,46 139,0 262,-68 348,-175 47,26 100,42 157,42 193,0 349,-176 349,-394 0,-217 -156,-393 -349,-393z"/>
   <path class="fil2" d="M6776 8044c-418,0 -758,-381 -758,-848 0,-466 337,-845 752,-848 66,-326 326,-559 628,-559 103,0 204,27 295,80 119,-120 271,-186 432,-186 149,0 293,58 408,163 85,-67 184,-102 289,-102 134,0 263,60 357,166 47,-22 96,-33 148,-33 211,0 383,192 383,427 0,236 -172,428 -383,428 -52,0 -101,-11 -148,-33 -94,106 -223,166 -357,166 -61,0 -120,-12 -177,-36 -121,186 -314,296 -520,296 -103,0 -205,-28 -296,-81 -84,85 -185,143 -296,170 -9,459 -345,830 -757,830zm0 -1628c-381,0 -690,350 -690,780 0,430 309,779 690,779 380,0 689,-349 689,-779l0 -10c-1,-16 11,-30 27,-34 116,-21 222,-82 306,-174 11,-13 30,-15 44,-6 86,55 184,84 283,84 192,0 370,-108 478,-288 9,-16 28,-21 44,-13 56,27 115,42 175,42 122,0 239,-60 321,-163 11,-13 29,-16 44,-8 44,25 91,37 140,37 173,0 315,-161 315,-359 0,-198 -142,-359 -315,-359 -49,0 -96,13 -140,38 -15,8 -33,5 -44,-9 -82,-103 -199,-162 -321,-162 -98,0 -190,37 -268,106 -13,12 -34,11 -47,-1 -105,-107 -241,-165 -382,-165 -150,0 -293,65 -401,184 -11,12 -29,14 -43,5 -87,-55 -184,-84 -283,-84 -277,0 -515,223 -566,531 -3,17 -18,30 -35,29l-7 -1c-5,0 -10,0 -14,0z"/>
   <path class="fil1" d="M6297 10877c-44,0 -80,-36 -80,-80 0,-2358 -602,-3490 -609,-3502 -21,-38 -6,-87 32,-108 39,-21 88,-7 109,32 26,47 628,1180 628,3578 0,44 -35,80 -80,80z"/>
   <path class="fil2" d="M6297 10911c-63,0 -114,-51 -114,-114 0,-2342 -599,-3474 -605,-3485 -30,-55 -9,-125 46,-155 17,-9 36,-14 55,-14 41,0 80,23 100,59 26,48 633,1188 633,3595 0,63 -52,114 -115,114zm-618 -3700c-8,0 -15,2 -22,6 -22,12 -31,40 -19,62 7,11 614,1153 614,3518 0,25 20,46 45,46 26,0 46,-21 46,-46 0,-2390 -599,-3515 -624,-3562 -8,-14 -24,-24 -40,-24z"/>
   <path class="fil3" d="M5679 7006c-7,0 -13,0 -20,0 -45,-272 -257,-479 -512,-479 -94,0 -182,28 -258,77 -94,-103 -223,-167 -364,-167 -134,0 -256,57 -348,150 -69,-61 -155,-98 -249,-98 -118,0 -224,58 -298,150 -40,-23 -85,-36 -133,-36 -165,0 -299,151 -299,336 0,186 134,337 299,337 48,0 93,-13 133,-36 74,92 180,150 298,150 58,0 113,-15 163,-39 93,157 253,261 434,261 93,0 181,-28 257,-77 75,82 171,138 278,159 0,2 0,5 0,8 0,384 277,696 619,696 341,0 619,-312 619,-696 0,-385 -278,-696 -619,-696z"/>
   <path class="fil2" d="M5679 8432c-355,0 -644,-317 -653,-711 -93,-23 -178,-72 -249,-143 -78,45 -165,68 -252,68 -178,0 -343,-94 -447,-252 -49,20 -99,30 -150,30 -115,0 -225,-51 -306,-142 -40,19 -82,28 -125,28 -184,0 -334,-166 -334,-371 0,-204 150,-370 334,-370 43,0 85,9 125,27 81,-90 191,-141 306,-141 90,0 174,29 247,86 99,-89 222,-138 350,-138 137,0 268,56 370,158 77,-45 164,-68 252,-68 259,0 482,200 541,478 356,6 644,331 644,731 0,402 -293,730 -653,730zm-897 -931c10,0 19,4 26,11 71,78 161,130 258,148 17,3 28,17 28,34l0 8c0,365 262,662 585,662 322,0 584,-297 584,-662 0,-365 -262,-662 -584,-662 -5,0 -9,0 -13,0l-5 0c-18,2 -32,-11 -35,-28 -44,-261 -245,-450 -479,-450 -84,0 -167,24 -240,71 -14,9 -32,7 -43,-6 -92,-100 -212,-155 -339,-155 -120,0 -235,49 -324,139 -13,13 -33,14 -47,1 -65,-58 -143,-89 -226,-89 -103,0 -201,50 -271,137 -10,13 -29,17 -43,9 -37,-21 -77,-32 -117,-32 -146,0 -265,136 -265,302 0,167 119,302 265,302 40,0 80,-10 117,-31 14,-8 33,-5 43,8 70,87 168,137 271,137 51,0 100,-12 147,-35 16,-8 36,-2 45,13 91,153 242,245 405,245 83,0 166,-25 239,-72 6,-3 12,-5 18,-5z"/>
   <path class="fil1" d="M7252 10754c-30,0 -53,-24 -53,-53 0,-1571 -402,-2326 -406,-2333 -14,-26 -5,-58 21,-73 26,-14 58,-4 72,22 17,31 419,786 419,2384 0,29 -24,53 -53,53z"/>
   <path class="fil2" d="M7252 10788c-48,0 -88,-39 -88,-87 0,-1555 -397,-2310 -401,-2317 -23,-42 -8,-95 35,-119 12,-7 27,-10 41,-10 32,0 62,17 77,45 18,32 423,794 423,2401 0,48 -39,87 -87,87zm-413 -2465c-3,0 -6,1 -9,2 -9,5 -12,17 -7,26 4,8 410,771 410,2350 0,10 8,19 19,19 10,0 19,-9 19,-19 0,-1590 -398,-2337 -415,-2368 -3,-6 -10,-10 -17,-10z"/>
   <path class="fil3" d="M6840 8175c-5,0 -9,0 -13,0 -30,-182 -172,-319 -342,-319 -63,0 -121,19 -172,51 -62,-69 -148,-111 -242,-111 -89,0 -171,38 -232,100 -46,-41 -103,-66 -166,-66 -79,0 -149,39 -198,100 -27,-15 -57,-24 -89,-24 -110,0 -200,101 -200,224 0,124 90,225 200,225 32,0 62,-9 89,-24 49,61 119,99 198,99 39,0 75,-9 108,-25 63,104 169,173 290,173 62,0 121,-18 171,-51 50,55 114,93 185,106 0,2 0,4 0,5 0,257 185,464 413,464 227,0 412,-207 412,-464 0,-256 -185,-463 -412,-463z"/>
   <path class="fil2" d="M6840 9136c-240,0 -436,-211 -447,-476 -58,-16 -111,-46 -156,-90 -52,28 -109,43 -166,43 -120,0 -230,-62 -303,-166 -30,12 -62,18 -95,18 -77,0 -151,-33 -207,-92 -26,10 -53,16 -80,16 -129,0 -234,-116 -234,-259 0,-142 105,-258 234,-258 27,0 54,5 80,16 56,-59 130,-92 207,-92 58,0 115,19 164,54 67,-57 149,-88 234,-88 92,0 179,36 248,102 52,-28 108,-42 166,-42 175,0 327,132 370,319 239,9 431,229 431,497 0,275 -200,498 -446,498zm-598 -643c10,0 19,4 26,11 46,51 103,84 166,95 16,3 28,18 28,34l0 3c-1,239 169,432 378,432 208,0 378,-193 378,-430 0,-236 -170,-429 -378,-429 -3,0 -6,0 -8,0l-4 0c-1,0 -1,0 -1,0 -17,0 -31,-12 -34,-28 -28,-169 -157,-291 -308,-291 -54,0 -107,16 -153,46 -14,9 -33,6 -44,-6 -59,-64 -136,-100 -217,-100 -77,0 -151,32 -208,90 -13,13 -33,13 -47,1 -41,-37 -91,-56 -143,-56 -65,0 -127,31 -171,87 -11,13 -29,16 -44,8 -23,-13 -47,-19 -72,-19 -91,0 -165,85 -165,189 0,105 74,190 165,190 25,0 49,-6 72,-19 15,-8 33,-5 44,8 44,56 106,87 171,87 32,0 63,-7 93,-22 16,-8 36,-2 45,13 58,98 155,157 260,157 53,0 106,-16 153,-45 6,-4 12,-6 18,-6z"/>
   <path class="fil1" d="M4694 10754c-29,0 -53,-24 -53,-53 0,-1571 -402,-2326 -406,-2333 -14,-26 -4,-58 21,-73 26,-14 59,-4 73,22 17,31 419,786 419,2384 0,29 -24,53 -54,53z"/>
   <path class="fil2" d="M4694 10788c-48,0 -87,-39 -87,-87 0,-1555 -398,-2310 -402,-2317 -23,-42 -7,-95 35,-119 13,-7 27,-10 42,-10 32,0 61,17 77,45 17,32 423,794 423,2401 0,48 -40,87 -88,87zm-412 -2465c-3,0 -6,1 -9,2 -9,5 -13,17 -8,26 4,8 410,771 410,2350 0,10 9,19 19,19 11,0 19,-9 19,-19 0,-1590 -397,-2337 -414,-2368 -4,-6 -10,-10 -17,-10z"/>
   <path class="fil3" d="M4282 8175c-4,0 -9,0 -13,0 -30,-182 -171,-319 -342,-319 -62,0 -121,19 -171,51 -63,-69 -149,-111 -243,-111 -89,0 -170,38 -232,100 -45,-41 -103,-66 -165,-66 -79,0 -150,39 -199,100 -27,-15 -57,-24 -89,-24 -110,0 -199,101 -199,224 0,124 89,225 199,225 32,0 62,-9 89,-24 49,61 120,99 199,99 38,0 75,-9 108,-25 62,104 168,173 289,173 63,0 121,-18 172,-51 49,55 113,93 185,106 0,2 0,4 0,5 0,257 184,464 412,464 228,0 412,-207 412,-464 0,-256 -184,-463 -412,-463z"/>
   <path class="fil2" d="M4282 9136c-240,0 -436,-211 -446,-476 -58,-16 -111,-46 -157,-90 -52,28 -108,43 -166,43 -119,0 -230,-62 -302,-166 -31,12 -63,18 -95,18 -78,0 -152,-33 -207,-92 -26,10 -53,16 -81,16 -129,0 -233,-116 -233,-259 0,-142 104,-258 233,-258 28,0 55,5 81,16 55,-59 129,-92 207,-92 58,0 115,19 164,54 66,-57 148,-88 233,-88 92,0 179,36 248,102 52,-28 109,-42 166,-42 176,0 327,132 370,319 239,9 432,229 432,497 0,275 -201,498 -447,498zm-597 -643c9,0 18,4 25,11 46,51 104,84 166,95 16,3 28,18 28,34l0 3c0,239 170,432 378,432 209,0 378,-193 378,-430 0,-236 -169,-429 -378,-429 -3,0 -5,0 -8,0l-4 0c0,0 0,0 -1,0 -16,0 -31,-12 -33,-28 -28,-169 -158,-291 -309,-291 -53,0 -106,16 -153,46 -14,9 -32,6 -44,-6 -58,-64 -135,-100 -217,-100 -76,0 -150,32 -207,90 -13,13 -34,13 -48,1 -41,-37 -90,-56 -142,-56 -65,0 -128,31 -172,87 -10,13 -29,16 -44,8 -22,-13 -47,-19 -72,-19 -91,0 -165,85 -165,189 0,105 74,190 165,190 25,0 50,-6 72,-19 15,-8 34,-5 44,8 44,56 107,87 172,87 32,0 63,-7 93,-22 16,-8 35,-2 44,13 59,98 156,157 260,157 54,0 107,-16 153,-45 6,-4 12,-6 19,-6z"/>
   <path class="fil1" d="M7419 10754c29,0 53,-24 53,-53 0,-1571 402,-2326 406,-2333 14,-26 5,-58 -21,-73 -26,-14 -59,-4 -73,22 -17,31 -418,786 -418,2384 0,29 23,53 53,53z"/>
   <path class="fil2" d="M7419 10788c-48,0 -88,-39 -88,-87 0,-1607 406,-2369 423,-2401 16,-28 45,-45 77,-45 15,0 29,3 42,10 42,24 58,77 35,119 -4,7 -402,762 -402,2317 0,48 -39,87 -87,87zm412 -2465c-7,0 -13,4 -17,10 -16,31 -414,778 -414,2368 0,10 8,19 19,19 10,0 19,-9 19,-19 0,-1579 406,-2342 410,-2350 5,-9 1,-21 -8,-26 -3,-1 -6,-2 -9,-2z"/>
   <path class="fil3" d="M7831 8175c4,0 9,0 13,0 30,-182 172,-319 342,-319 62,0 121,19 171,51 63,-69 149,-111 243,-111 89,0 170,38 232,100 45,-41 103,-66 166,-66 78,0 149,39 198,100 27,-15 57,-24 89,-24 110,0 199,101 199,224 0,124 -89,225 -199,225 -32,0 -62,-9 -89,-24 -49,61 -120,99 -198,99 -39,0 -76,-9 -109,-25 -62,104 -168,173 -289,173 -62,0 -121,-18 -172,-51 -49,55 -113,93 -185,106 0,2 0,4 0,5 0,257 -184,464 -412,464 -228,0 -412,-207 -412,-464 0,-256 184,-463 412,-463z"/>
   <path class="fil2" d="M7831 9136c-246,0 -446,-223 -446,-498 0,-268 192,-488 431,-497 43,-187 194,-319 370,-319 57,0 114,14 166,42 69,-66 156,-102 248,-102 85,0 167,31 233,88 49,-35 106,-54 165,-54 77,0 151,33 206,92 26,-11 53,-16 81,-16 129,0 233,116 233,258 0,143 -104,259 -233,259 -28,0 -55,-6 -81,-16 -55,59 -129,92 -206,92 -33,0 -65,-6 -96,-18 -72,104 -183,166 -302,166 -57,0 -114,-15 -166,-43 -45,44 -99,74 -157,90 -10,265 -206,476 -446,476zm0 -927c-208,0 -378,193 -378,429 0,237 170,430 378,430 209,0 378,-193 378,-430l0 -5c0,-16 12,-31 28,-34 63,-11 120,-44 166,-95 11,-12 30,-14 44,-5 46,29 99,45 153,45 104,0 201,-59 260,-157 9,-15 29,-21 45,-13 29,15 61,22 93,22 65,0 127,-31 171,-87 11,-13 29,-16 44,-8 23,13 47,19 72,19 91,0 165,-85 165,-190 0,-104 -74,-189 -165,-189 -25,0 -49,6 -72,19 -15,8 -33,5 -44,-8 -44,-56 -106,-87 -171,-87 -53,0 -102,19 -143,56 -14,12 -35,12 -47,-1 -58,-58 -131,-90 -208,-90 -81,0 -158,36 -217,100 -12,12 -30,15 -44,6 -47,-30 -100,-46 -153,-46 -151,0 -280,122 -308,291 -3,16 -17,28 -34,28 0,0 -1,0 -1,0l-4 0c-3,0 -5,0 -8,0z"/>
   <polygon class="fil4" points="15731,7476 8597,7476 8597,11074 15731,11074 "/>
   <path class="fil2" d="M15731 11109l-7134 0c-19,0 -35,-16 -35,-35l0 -3598c0,-19 16,-34 35,-34l7134 0c19,0 34,15 34,34l0 3598c0,19 -15,35 -34,35zm-7100 -69l7066 0 0 -3530 -7066 0 0 3530z"/>
   <polygon class="fil5" points="14960,5835 9286,5835 7934,7476 16393,7476 "/>
   <path class="fil2" d="M16393 7510l-8459 0c-13,0 -25,-8 -30,-20 -6,-12 -4,-26 4,-36l1352 -1641c6,-8 16,-12 26,-12l5674 0c10,0 19,4 26,11l1433 1641c9,10 11,25 5,37 -5,12 -17,20 -31,20zm-8386 -68l8311 0 -1374 -1573 -5642 0 -1295 1573z"/>
   <polygon class="fil6" points="13131,9778 12196,9778 12196,8453 13131,8453 "/>
   <path class="fil2" d="M13131 9812l-935 0c-19,0 -34,-15 -34,-34l0 -1325c0,-18 15,-34 34,-34l935 0c19,0 34,16 34,34l0 1325c0,19 -15,34 -34,34zm-901 -68l867 0 0 -1256 -867 0 0 1256z"/>
   <polygon class="fil6" points="14853,9778 13918,9778 13918,8453 14853,8453 "/>
   <path class="fil2" d="M14853 9812l-935 0c-19,0 -34,-15 -34,-34l0 -1325c0,-18 15,-34 34,-34l935 0c19,0 34,16 34,34l0 1325c0,19 -15,34 -34,34zm-901 -68l867 0 0 -1256 -867 0 0 1256z"/>
   <polygon class="fil7" points="15731,11074 8597,11074 8597,9766 15731,9766 "/>
   <path class="fil2" d="M15731 11109l-7134 0c-19,0 -35,-16 -35,-35l0 -1308c0,-18 16,-34 35,-34l7134 0c19,0 34,16 34,34l0 1308c0,19 -15,35 -34,35zm-7100 -69l7066 0 0 -1239 -7066 0 0 1239z"/>
   <polygon class="fil8" points="11284,11074 10102,11074 10102,8453 11284,8453 "/>
   <path class="fil2" d="M11284 11109l-1182 0c-19,0 -34,-16 -34,-35l0 -2621c0,-18 15,-34 34,-34l1182 0c19,0 34,16 34,34l0 2621c0,19 -15,35 -34,35zm-1148 -69l1113 0 0 -2552 -1113 0 0 2552z"/>
   <path class="fil9" d="M8820 10288l-250 0c-90,0 -169,68 -215,171 -43,-120 -129,-203 -227,-203l-251 0c-98,0 -184,83 -227,203 -46,-103 -125,-171 -215,-171l-250 0c-90,0 -169,68 -215,171 -42,-120 -128,-203 -227,-203l-250 0c-99,0 -185,83 -228,203 -45,-103 -125,-171 -214,-171l-251 0c-90,0 -169,68 -215,171 -42,-120 -128,-203 -227,-203l-250 0c-99,0 -185,83 -227,203 -46,-103 -125,-171 -215,-171l-251 0c-89,0 -169,68 -214,171 -43,-120 -129,-203 -228,-203l-250 0c-141,0 -256,169 -256,374l0 44c0,206 115,374 256,374l250 0c90,0 169,-68 215,-171 43,120 129,203 227,203l251 0c98,0 184,-83 227,-203 46,103 125,171 215,171l250 0c90,0 169,-68 215,-171 43,120 129,203 227,203l251 0c98,0 184,-83 227,-203 46,103 125,171 215,171l250 0c90,0 169,-68 215,-171 42,120 128,203 227,203l250 0c99,0 185,-83 228,-203 45,103 125,171 214,171l251 0c90,0 169,-68 214,-171 43,120 129,203 228,203l250 0c141,0 256,-169 256,-374l0 -44c0,-206 -115,-374 -256,-374z"/>
   <path class="fil2" d="M8820 11114l-250 0c-92,0 -176,-60 -231,-160 -54,81 -130,128 -211,128l-251 0c-81,0 -157,-47 -211,-128 -54,100 -139,160 -231,160l-250 0c-92,0 -176,-60 -231,-160 -54,81 -130,128 -211,128l-250 0c-82,0 -158,-47 -212,-128 -54,100 -138,160 -230,160l-251 0c-92,0 -176,-60 -230,-160 -54,81 -130,128 -212,128l-250 0c-82,0 -157,-47 -212,-128 -54,100 -138,160 -230,160l-251 0c-92,0 -176,-60 -230,-160 -54,81 -130,128 -212,128l-250 0c-160,0 -290,-183 -290,-408l0 -44c0,-225 130,-408 290,-408l250 0c92,0 177,60 231,160 54,-81 130,-128 211,-128l251 0c81,0 157,47 211,128 55,-100 139,-160 231,-160l250 0c92,0 176,60 231,160 54,-81 130,-128 211,-128l251 0c81,0 157,47 211,128 54,-100 139,-160 231,-160l250 0c92,0 176,60 230,160 55,-81 131,-128 212,-128l250 0c82,0 158,47 212,128 54,-100 138,-160 230,-160l251 0c92,0 176,60 230,160 55,-81 130,-128 212,-128l250 0c160,0 290,183 290,408l0 44c0,225 -130,408 -290,408zm-478 -271l2 0c14,0 26,9 31,22 39,111 114,180 195,180l250 0c120,0 222,-155 222,-339l0 -44c0,-184 -102,-340 -222,-340l-250 0c-73,0 -142,57 -184,151 -5,13 -18,21 -32,20 -14,0 -27,-9 -31,-22 -40,-111 -115,-180 -195,-180l-251 0c-80,0 -155,69 -195,180 -4,13 -17,22 -31,22 -13,1 -26,-7 -32,-20 -42,-94 -111,-151 -184,-151l-250 0c-73,0 -141,57 -184,151 -5,13 -18,21 -32,20 -14,0 -26,-9 -31,-22 -40,-111 -114,-180 -195,-180l-250 0c-81,0 -156,69 -195,180 -5,13 -17,22 -31,22 -14,1 -27,-7 -33,-20 -42,-94 -111,-151 -183,-151l-251 0c-73,0 -141,57 -183,151 -6,13 -19,21 -33,20 -14,0 -26,-9 -31,-22 -39,-111 -114,-180 -195,-180l-250 0c-81,0 -156,69 -195,180 -5,13 -17,22 -31,22 -14,1 -27,-7 -33,-20 -42,-94 -110,-151 -183,-151l-251 0c-72,0 -141,57 -183,151 -6,13 -19,21 -33,20 -14,0 -26,-9 -30,-22 -40,-111 -115,-180 -196,-180l-250 0c-120,0 -222,155 -222,339l0 44c0,184 102,340 222,340l250 0c73,0 142,-57 184,-151 6,-13 19,-21 32,-20 14,0 27,9 31,22 40,111 115,180 195,180l251 0c81,0 155,-69 195,-180 5,-13 17,-22 31,-22 14,-1 27,7 32,20 42,94 111,151 184,151l250 0c73,0 142,-57 184,-151 5,-13 18,-21 32,-20 14,0 26,9 31,22 40,111 114,180 195,180l251 0c80,0 155,-69 195,-180 4,-13 16,-22 31,-22 14,-1 26,7 32,20 42,94 111,151 184,151l250 0c73,0 141,-57 183,-151 6,-13 19,-21 33,-20 14,0 26,9 31,22 39,111 114,180 195,180l250 0c81,0 156,-69 195,-180 5,-13 17,-22 31,-22 14,-1 27,7 33,20 42,94 111,151 183,151l251 0c73,0 141,-57 183,-151 6,-13 18,-20 31,-20z"/>
   <polygon class="fil3" points="13131,9555 12196,9555 12196,9766 13131,9766 "/>
   <path class="fil2" d="M13131 9801l-935 0c-19,0 -34,-16 -34,-35l0 -211c0,-19 15,-34 34,-34l935 0c19,0 34,15 34,34l0 211c0,19 -15,35 -34,35zm-901 -69l867 0 0 -143 -867 0 0 143z"/>
   <polygon class="fil3" points="14853,9555 13918,9555 13918,9766 14853,9766 "/>
   <path class="fil2" d="M14853 9801l-935 0c-19,0 -34,-16 -34,-35l0 -211c0,-19 15,-34 34,-34l935 0c19,0 34,15 34,34l0 211c0,19 -15,35 -34,35zm-901 -69l867 0 0 -143 -867 0 0 143z"/>
   <polygon class="fil10" points="11591,11074 11852,11074 11852,7474 11591,7474 "/>
   <path class="fil2" d="M11852 11109l-261 0c-19,0 -34,-16 -34,-35l0 -3600c0,-19 15,-34 34,-34l261 0c19,0 34,15 34,34l0 3600c0,19 -15,35 -34,35zm-227 -69l193 0 0 -3532 -193 0 0 3532z"/>
   <polygon class="fil10" points="9279,11074 9541,11074 9541,7474 9279,7474 "/>
   <path class="fil2" d="M9541 11109l-262 0c-19,0 -34,-16 -34,-35l0 -3600c0,-19 15,-34 34,-34l262 0c18,0 34,15 34,34l0 3600c0,19 -16,35 -34,35zm-228 -69l193 0 0 -3532 -193 0 0 3532z"/>
   <polygon class="fil10" points="13393,11074 13654,11074 13654,7474 13393,7474 "/>
   <path class="fil2" d="M13654 11109l-261 0c-19,0 -35,-16 -35,-35l0 -3600c0,-19 16,-34 35,-34l261 0c19,0 34,15 34,34l0 3600c0,19 -15,35 -34,35zm-227 -69l193 0 0 -3532 -193 0 0 3532z"/>
   <path class="fil11" d="M12302 3379l-2153 0 634 634 0 2850c0,351 284,634 634,634l1519 0 0 -3484c0,-351 -284,-634 -634,-634z"/>
   <path class="fil2" d="M12936 7532l-1519 0c-368,0 -668,-300 -668,-669l0 -2836 -624 -624c-10,-10 -13,-25 -7,-38 5,-12 18,-21 31,-21l2153 0c368,0 668,300 668,669l0 3484c0,19 -15,35 -34,35zm-2704 -4119l576 575c6,7 10,16 10,25l0 2850c0,331 269,600 599,600l1485 0 0 -3450c0,-331 -270,-600 -600,-600l-2070 0z"/>
   <path class="fil11" d="M10783 4013c0,350 -284,634 -634,634 -350,0 -634,-284 -634,-634 0,-351 284,-634 634,-634 350,0 634,283 634,634z"/>
   <path class="fil2" d="M10149 4681c-368,0 -668,-300 -668,-668 0,-369 300,-669 668,-669 369,0 669,300 669,669 0,368 -300,668 -669,668zm0 -1268c-330,0 -599,269 -599,600 0,330 269,599 599,599 331,0 600,-269 600,-599 0,-331 -269,-600 -600,-600z"/>
   <path class="fil11" d="M13488 6232l0 -3 -2071 0c350,0 634,284 634,634 0,350 -284,634 -634,634l2071 0 0 -2c328,-24 587,-298 587,-632 0,-334 -259,-607 -587,-631z"/>
   <path class="fil2" d="M13488 7532l-2071 0c-19,0 -34,-16 -34,-35 0,-19 15,-34 34,-34 331,0 600,-269 600,-600 0,-330 -269,-599 -600,-599 -19,0 -34,-16 -34,-35 0,-19 15,-34 34,-34l2071 0c6,0 11,1 15,4 341,31 606,321 606,664 0,344 -265,633 -606,665 -4,2 -9,4 -15,4zm-1776 -69l1763 0c4,-1 7,-2 11,-2 311,-23 554,-286 554,-598 0,-312 -243,-574 -554,-597 -4,0 -7,-1 -11,-2l-1763 0c221,109 374,337 374,599 0,263 -153,491 -374,600z"/>
   <path class="fil2" d="M11077 4081l0 18 0 0c8,0 14,0 19,0l58 0c0,6 -1,11 -1,14 -2,13 -11,19 -26,19l-66 0c-8,0 -13,-2 -17,-6 -4,-4 -7,-10 -7,-17l0 -147 2 -2 108 0c1,5 2,10 2,16 0,6 -1,12 -4,18l-68 0 0 18 0 17c5,0 10,0 17,0l39 0c1,5 2,10 2,16 0,6 -1,12 -2,17l-56 0 0 19z"/>
   <path class="fil2" d="M11216 4117c1,-6 3,-11 5,-17 3,-5 7,-10 11,-13 18,10 35,16 51,16 7,0 12,-2 15,-5 3,-3 5,-7 5,-12 0,-8 -5,-14 -16,-18l-29 -13c-12,-5 -21,-11 -27,-18 -6,-8 -9,-17 -9,-28 0,-8 1,-15 4,-21 4,-7 8,-12 14,-17 5,-4 12,-8 19,-11 8,-2 17,-4 26,-4 19,0 38,5 57,15 -1,13 -6,23 -14,30 -17,-8 -32,-13 -45,-13 -7,0 -12,2 -15,5 -3,3 -5,6 -5,10 0,7 5,12 15,16l30 13c13,5 22,12 28,20 7,9 10,18 10,30 0,7 -2,15 -5,21 -2,7 -7,12 -12,17 -6,5 -13,9 -21,11 -8,3 -18,4 -29,4 -22,0 -43,-6 -63,-18z"/>
   <path class="fil2" d="M11511 4028l0 -3c0,-24 -9,-37 -28,-37 -10,0 -18,5 -22,15 -5,9 -7,23 -7,42 0,19 2,33 8,42 6,9 15,13 26,13 6,0 12,-1 19,-4 7,-3 15,-7 23,-13 5,3 9,7 12,11 4,5 6,10 7,15 -4,3 -9,7 -14,10 -5,3 -10,6 -16,8 -6,3 -12,5 -19,6 -6,1 -13,2 -19,2 -13,0 -24,-2 -33,-7 -9,-5 -16,-12 -21,-20 -6,-8 -10,-18 -12,-28 -2,-11 -4,-22 -4,-34 0,-15 2,-28 6,-39 4,-11 9,-21 15,-28 7,-8 14,-13 23,-17 9,-4 18,-6 28,-6 10,0 19,1 27,4 8,3 15,7 21,11 6,5 10,10 13,17 3,6 5,13 5,20 0,15 -8,23 -23,23 -4,0 -9,-1 -15,-3z"/>
   <path class="fil2" d="M11747 4013c0,6 -1,11 -2,16 -2,5 -4,9 -7,13 -3,4 -6,7 -10,10 -4,3 -7,5 -11,7 8,3 15,11 19,23l7 21c3,9 7,15 13,19 -3,3 -6,6 -11,8 -5,3 -11,4 -17,4 -6,0 -11,-2 -14,-5 -3,-4 -6,-10 -9,-18l-9 -27c-2,-5 -5,-9 -8,-11 -3,-3 -7,-4 -14,-4l-10 0 0 62c-5,1 -12,2 -20,2 -8,0 -15,-1 -20,-2l0 -170 2 -1c15,-1 27,-1 37,-1 10,0 18,0 23,0 9,0 18,1 25,3 8,2 14,6 19,10 6,5 10,10 13,17 3,7 4,15 4,24zm-83 -24l0 49c8,0 14,0 19,0 6,-1 10,-2 13,-4 4,-1 6,-4 8,-7 1,-3 2,-8 2,-14 0,-16 -8,-24 -23,-24l-11 0c-3,0 -6,0 -8,0z"/>
   <path class="fil2" d="M11829 4131l0 -171c5,-1 12,-1 20,-1 8,0 15,0 20,1l0 171c-5,1 -12,2 -20,2 -8,0 -15,-1 -20,-2z"/>
   <path class="fil2" d="M12023 3994l0 18 0 119c-5,1 -12,2 -20,2 -8,0 -14,-1 -20,-2l0 -137 -16 0 -26 0c-1,-5 -1,-11 -1,-17 0,-6 0,-12 1,-17l124 0c2,5 2,10 2,16 0,6 -1,11 -5,14 -3,2 -8,4 -16,4l-7 0 -16 0 0 0z"/>
   <path class="fil2" d="M12269 3960l0 108c0,22 -6,38 -17,50 -12,11 -29,17 -50,17 -22,0 -39,-6 -51,-17 -11,-12 -17,-28 -17,-50l0 -108 2 -2 14 0c16,0 24,9 24,26l0 85c0,11 2,20 6,26 5,6 12,8 22,8 10,0 17,-2 21,-8 4,-6 6,-15 6,-26l0 -109c5,-1 12,-1 20,-1 8,0 15,0 20,1z"/>
   <path class="fil2" d="M12478 4013c0,6 -1,11 -2,16 -2,5 -4,9 -7,13 -3,4 -6,7 -10,10 -4,3 -8,5 -12,7 9,3 16,11 20,23l7 21c3,9 7,15 13,19 -3,3 -6,6 -11,8 -6,3 -11,4 -17,4 -6,0 -11,-2 -14,-5 -3,-4 -6,-10 -9,-18l-9 -27c-2,-5 -5,-9 -8,-11 -3,-3 -7,-4 -14,-4l-10 0 0 62c-5,1 -12,2 -20,2 -8,0 -15,-1 -20,-2l0 -170 2 -1c14,-1 27,-1 37,-1 10,0 17,0 23,0 9,0 18,1 25,3 8,2 14,6 19,10 6,5 10,10 13,17 3,7 4,15 4,24zm-83 -24l0 49c8,0 14,0 19,0 6,-1 10,-2 13,-4 4,-1 6,-4 8,-7 1,-3 2,-8 2,-14 0,-16 -8,-24 -23,-24l-11 0c-3,0 -6,0 -8,0z"/>
   <path class="fil2" d="M12601 4096c-4,0 -8,0 -10,-1l-11 37c-4,1 -9,1 -17,1 -8,0 -14,-1 -19,-3l-1 -2 55 -168c6,-1 14,-1 23,-1 10,0 17,0 23,1l55 169c-6,3 -13,5 -20,5 -9,0 -15,-2 -19,-5 -3,-3 -6,-9 -9,-17l-4 -17c-3,1 -6,1 -10,1l-36 0zm-1 -32l10 0 19 0c1,0 2,0 4,0 2,0 4,0 5,0l-5 -16c-4,-14 -8,-31 -13,-51l-2 0c-1,7 -5,23 -12,48l-6 19z"/>
   <path class="fil2" d="M11291 4393l-20 0 0 54c-5,1 -12,1 -20,1 -8,0 -15,0 -20,-1l0 -170 2 -2c15,0 27,-1 36,-1 10,0 17,0 22,0 9,0 18,1 26,4 7,2 14,6 19,11 5,5 9,11 12,19 3,7 5,16 5,25 0,10 -2,19 -5,26 -3,7 -7,14 -12,19 -6,5 -12,9 -20,11 -7,3 -16,4 -25,4zm-20 -88l0 58c5,0 9,0 11,0 3,-1 5,-1 6,-1 4,0 8,0 11,-2 3,-2 6,-4 8,-6 1,-3 3,-6 4,-9 0,-4 1,-8 1,-11 0,-4 -1,-8 -1,-11 -1,-4 -3,-7 -4,-10 -2,-2 -4,-4 -7,-6 -3,-1 -6,-2 -10,-2l-11 0c-3,0 -5,0 -8,0z"/>
   <path class="fil2" d="M11562 4275l0 108c0,22 -6,38 -17,50 -12,12 -29,17 -50,17 -22,0 -39,-5 -51,-17 -11,-12 -17,-28 -17,-50l0 -108 1 -1 15 0c16,0 24,8 24,25l0 85c0,12 2,20 6,26 5,6 12,9 22,9 10,0 17,-3 21,-9 4,-6 6,-14 6,-26l0 -109c5,-1 12,-1 20,-1 8,0 15,0 20,1zm-99 -29l56 -35c3,3 7,7 10,13 3,6 5,11 5,17l-60 23c-3,-1 -5,-4 -7,-7 -2,-4 -4,-8 -4,-11z"/>
   <path class="fil2" d="M11650 4275c13,0 25,-1 35,-1 9,0 17,0 23,0 18,0 32,4 43,11 10,8 16,19 16,35 0,7 -3,14 -7,20 -4,6 -9,11 -16,14 4,1 8,3 12,6 4,3 7,7 10,11 2,3 5,8 6,12 2,5 2,10 2,15 0,17 -5,30 -16,38 -11,8 -26,12 -46,12 -7,0 -15,0 -25,0 -10,0 -23,-1 -37,-1l-2 -2 0 -168 2 -2zm38 27l0 41 18 0c8,0 13,-2 16,-6 4,-4 5,-9 5,-15 0,-5 -1,-10 -5,-14 -3,-4 -8,-5 -16,-5l-10 0c-3,0 -6,-1 -8,-1zm21 69l-21 0 0 49c4,0 9,0 15,0 5,0 10,0 15,-1 4,-1 8,-4 11,-7 4,-4 5,-10 5,-16 0,-7 -2,-13 -6,-18 -4,-4 -11,-7 -19,-7z"/>
   <path class="fil2" d="M11916 4413l43 0c0,7 0,12 -1,17 -1,5 -4,9 -8,12 -4,4 -10,5 -18,5l-56 0c-8,0 -13,-2 -18,-6 -4,-4 -6,-10 -6,-17l0 -149 2 -1 15 0c15,0 23,8 23,25l0 115c7,-1 15,-1 24,-1z"/>
   <path class="fil2" d="M12034 4447l0 -172c5,-1 12,-1 20,-1 8,0 15,0 20,1l0 172c-5,1 -12,1 -20,1 -8,0 -15,0 -20,-1z"/>
   <path class="fil2" d="M12253 4344l0 -3c0,-25 -10,-38 -28,-38 -10,0 -18,5 -23,15 -4,10 -7,24 -7,42 0,19 3,33 9,42 6,9 14,13 26,13 5,0 12,-1 19,-4 7,-3 15,-7 23,-13 4,3 8,7 12,12 3,5 6,9 6,14 -3,4 -8,7 -13,10 -5,4 -11,6 -16,9 -6,2 -13,4 -19,5 -6,2 -13,2 -19,2 -13,0 -24,-2 -33,-7 -9,-5 -16,-11 -22,-20 -5,-8 -9,-17 -11,-28 -3,-11 -4,-22 -4,-33 0,-15 2,-29 6,-40 4,-11 9,-21 15,-28 6,-8 14,-13 23,-17 8,-4 18,-6 28,-6 10,0 19,2 27,4 8,3 15,7 21,11 6,5 10,11 13,17 3,6 5,13 5,21 0,14 -8,22 -23,22 -5,0 -10,-1 -15,-2z"/>
   <path class="fil2" d="M12408 4411c-5,0 -8,0 -10,0l-11 36c-4,1 -10,1 -17,1 -8,0 -15,-1 -20,-2l-1 -2 55 -169c7,-1 14,-1 23,-1 10,0 18,0 24,2l54 168c-6,3 -13,5 -20,5 -9,0 -15,-2 -18,-5 -4,-3 -7,-8 -9,-17l-5 -16c-2,0 -5,0 -10,0l-35 0zm-1 -32l10 0 18 0c1,0 2,0 5,0 2,0 3,0 4,0l-4 -15c-4,-14 -9,-32 -14,-52l-1 0c-2,7 -6,23 -12,48l-6 19z"/>
   <path class="fil2" d="M12705 4993l-1605 0c-19,0 -34,-15 -34,-34 0,-19 15,-34 34,-34l1605 0c19,0 34,15 34,34 0,19 -15,34 -34,34z"/>
   <path class="fil2" d="M12705 5376l-1605 0c-19,0 -34,-15 -34,-34 0,-19 15,-34 34,-34l1605 0c19,0 34,15 34,34 0,19 -15,34 -34,34z"/>
   <path class="fil2" d="M12705 5760l-1605 0c-19,0 -34,-16 -34,-34 0,-19 15,-35 34,-35l1605 0c19,0 34,16 34,35 0,18 -15,34 -34,34z"/>
   <path class="fil2" d="M8876 8066c-9,0 -18,-4 -25,-10 -13,-14 -13,-35 0,-49l535 -534c13,-13 35,-13 48,0 13,14 13,35 0,49l-534 534c-7,6 -16,10 -24,10z"/>
   <path class="fil2" d="M9944 8066c-9,0 -17,-4 -24,-10l-534 -534c-14,-14 -14,-35 0,-49 13,-13 35,-13 48,0l534 534c14,14 14,35 0,49 -6,6 -15,10 -24,10z"/>
   <path class="fil3" d="M9714 7980c0,160 -129,289 -289,289 -160,0 -289,-129 -289,-289 0,-159 129,-289 289,-289 160,0 289,130 289,289z"/>
   <path class="fil2" d="M9425 8303c-178,0 -323,-145 -323,-323 0,-178 145,-323 323,-323 178,0 323,145 323,323 0,178 -145,323 -323,323zm0 -578c-140,0 -255,115 -255,255 0,141 115,255 255,255 140,0 255,-114 255,-255 0,-140 -115,-255 -255,-255z"/>
   <path class="fil12" d="M9296 7851c0,71 -58,129 -129,129 -72,0 -130,-58 -130,-129 0,-72 58,-129 130,-129 71,0 129,57 129,129z"/>
   <path class="fil2" d="M9167 8014c-91,0 -164,-73 -164,-163 0,-90 73,-164 164,-164 90,0 163,74 163,164 0,90 -73,163 -163,163zm0 -258c-53,0 -95,42 -95,95 0,52 42,95 95,95 52,0 95,-43 95,-95 0,-53 -43,-95 -95,-95z"/>
   <path class="fil12" d="M9737 7781c0,71 -58,129 -129,129 -72,0 -130,-58 -130,-129 0,-72 58,-130 130,-130 71,0 129,58 129,130z"/>
   <path class="fil2" d="M9608 7944c-91,0 -164,-73 -164,-163 0,-91 73,-164 164,-164 90,0 163,73 163,164 0,90 -73,163 -163,163zm0 -258c-53,0 -95,42 -95,95 0,52 42,95 95,95 52,0 95,-43 95,-95 0,-53 -43,-95 -95,-95z"/>
   <path class="fil12" d="M9478 7651c0,72 -58,130 -129,130 -71,0 -129,-58 -129,-130 0,-71 58,-129 129,-129 71,0 129,58 129,129z"/>
   <path class="fil2" d="M9349 7815c-90,0 -163,-74 -163,-164 0,-90 73,-163 163,-163 90,0 164,73 164,163 0,90 -74,164 -164,164zm0 -259c-52,0 -95,43 -95,95 0,53 43,95 95,95 52,0 95,-42 95,-95 0,-52 -43,-95 -95,-95z"/>
   <path class="fil13" d="M9944 8031c0,295 -239,535 -534,535 -295,0 -534,-240 -534,-535l1068 0z"/>
   <path class="fil2" d="M9410 8600c-314,0 -569,-255 -569,-568 0,-19 16,-35 35,-35l1068 0c19,0 34,16 34,35 0,313 -255,568 -568,568zm-499 -534c18,259 235,465 499,465 264,0 481,-206 499,-465l-998 0z"/>
   <path class="fil2" d="M11187 8066c-8,0 -17,-4 -24,-10 -13,-14 -13,-35 0,-49l534 -534c14,-13 35,-13 49,0 13,14 13,35 0,49l-534 534c-7,6 -16,10 -25,10z"/>
   <path class="fil2" d="M12256 8066c-9,0 -18,-4 -25,-10l-534 -534c-13,-14 -13,-35 0,-49 14,-13 35,-13 49,0l534 534c13,14 13,35 0,49 -7,6 -16,10 -24,10z"/>
   <path class="fil3" d="M12026 7980c0,160 -130,289 -289,289 -160,0 -289,-129 -289,-289 0,-159 129,-289 289,-289 159,0 289,130 289,289z"/>
   <path class="fil2" d="M11737 8303c-178,0 -323,-145 -323,-323 0,-178 145,-323 323,-323 178,0 323,145 323,323 0,178 -145,323 -323,323zm0 -578c-141,0 -255,115 -255,255 0,141 114,255 255,255 140,0 254,-114 254,-255 0,-140 -114,-255 -254,-255z"/>
   <path class="fil12" d="M11607 7851c0,71 -57,129 -129,129 -71,0 -129,-58 -129,-129 0,-72 58,-129 129,-129 72,0 129,57 129,129z"/>
   <path class="fil2" d="M11478 8014c-90,0 -163,-73 -163,-163 0,-90 73,-164 163,-164 90,0 164,74 164,164 0,90 -74,163 -164,163zm0 -258c-52,0 -95,42 -95,95 0,52 43,95 95,95 53,0 95,-43 95,-95 0,-53 -42,-95 -95,-95z"/>
   <path class="fil12" d="M12048 7781c0,71 -57,129 -129,129 -71,0 -129,-58 -129,-129 0,-72 58,-130 129,-130 72,0 129,58 129,130z"/>
   <path class="fil2" d="M11919 7944c-90,0 -163,-73 -163,-163 0,-91 73,-164 163,-164 90,0 164,73 164,164 0,90 -74,163 -164,163zm0 -258c-52,0 -95,42 -95,95 0,52 43,95 95,95 53,0 95,-43 95,-95 0,-53 -42,-95 -95,-95z"/>
   <path class="fil12" d="M11790 7651c0,72 -58,130 -129,130 -72,0 -130,-58 -130,-130 0,-71 58,-129 130,-129 71,0 129,58 129,129z"/>
   <path class="fil2" d="M11661 7815c-90,0 -164,-74 -164,-164 0,-90 74,-163 164,-163 90,0 163,73 163,163 0,90 -73,164 -163,164zm0 -259c-53,0 -95,43 -95,95 0,53 42,95 95,95 52,0 95,-42 95,-95 0,-52 -43,-95 -95,-95z"/>
   <path class="fil13" d="M12256 8031c0,295 -239,535 -535,535 -295,0 -534,-240 -534,-535l1069 0z"/>
   <path class="fil2" d="M11722 8600c-314,0 -569,-255 -569,-568 0,-19 15,-35 34,-35l1069 0c19,0 34,16 34,35 0,313 -255,568 -568,568zm-499 -534c17,259 234,465 499,465 264,0 481,-206 498,-465l-997 0z"/>
   <path class="fil2" d="M12989 8066c-9,0 -17,-4 -24,-10 -13,-14 -13,-35 0,-49l534 -534c14,-13 35,-13 49,0 13,14 13,35 0,49l-535 534c-6,6 -15,10 -24,10z"/>
   <path class="fil2" d="M14058 8066c-9,0 -18,-4 -25,-10l-534 -534c-13,-14 -13,-35 0,-49 14,-13 35,-13 49,0l534 534c13,14 13,35 0,49 -7,6 -16,10 -24,10z"/>
   <path class="fil3" d="M13827 7980c0,160 -129,289 -288,289 -160,0 -289,-129 -289,-289 0,-159 129,-289 289,-289 159,0 288,130 288,289z"/>
   <path class="fil2" d="M13539 8303c-179,0 -323,-145 -323,-323 0,-178 144,-323 323,-323 178,0 323,145 323,323 0,178 -145,323 -323,323zm0 -578c-141,0 -255,115 -255,255 0,141 114,255 255,255 140,0 254,-114 254,-255 0,-140 -114,-255 -254,-255z"/>
   <path class="fil12" d="M13409 7851c0,71 -58,129 -129,129 -71,0 -129,-58 -129,-129 0,-72 58,-129 129,-129 71,0 129,57 129,129z"/>
   <path class="fil2" d="M13280 8014c-90,0 -163,-73 -163,-163 0,-90 73,-164 163,-164 90,0 164,74 164,164 0,90 -74,163 -164,163zm0 -258c-52,0 -95,42 -95,95 0,52 43,95 95,95 52,0 95,-43 95,-95 0,-53 -43,-95 -95,-95z"/>
   <path class="fil12" d="M13850 7781c0,71 -58,129 -129,129 -71,0 -129,-58 -129,-129 0,-72 58,-130 129,-130 71,0 129,58 129,130z"/>
   <path class="fil2" d="M13721 7944c-90,0 -163,-73 -163,-163 0,-91 73,-164 163,-164 90,0 163,73 163,164 0,90 -73,163 -163,163zm0 -258c-52,0 -95,42 -95,95 0,52 43,95 95,95 52,0 95,-43 95,-95 0,-53 -43,-95 -95,-95z"/>
   <path class="fil12" d="M13592 7651c0,72 -58,130 -129,130 -72,0 -130,-58 -130,-130 0,-71 58,-129 130,-129 71,0 129,58 129,129z"/>
   <path class="fil2" d="M13463 7815c-91,0 -164,-74 -164,-164 0,-90 73,-163 164,-163 90,0 163,73 163,163 0,90 -73,164 -163,164zm0 -259c-53,0 -95,43 -95,95 0,53 42,95 95,95 52,0 95,-42 95,-95 0,-52 -43,-95 -95,-95z"/>
   <path class="fil13" d="M14058 8031c0,295 -240,535 -535,535 -295,0 -534,-240 -534,-535l1069 0z"/>
   <path class="fil2" d="M13523 8600c-313,0 -568,-255 -568,-568 0,-19 15,-35 34,-35l1069 0c18,0 34,16 34,35 0,313 -255,568 -569,568zm-498 -534c17,259 234,465 498,465 265,0 482,-206 499,-465l-997 0z"/>
  </g>
  <polygon class="fil14" points="1750,15666 1750,16253 1639,16253 1639,15666 1458,15666 1458,15572 1930,15572 1930,15666 "/>
  <path id="1" class="fil14" d="M2325 16253l-101 0 0 -57c-18,25 -39,44 -63,57 -24,12 -51,18 -82,18 -63,0 -112,-21 -148,-64 -35,-42 -53,-101 -53,-175 0,-70 18,-127 55,-170 36,-44 84,-65 143,-65 36,0 67,7 92,22 26,15 45,37 56,65l0 -72 101 0 0 441zm-98 -222c0,-45 -10,-81 -32,-106 -21,-26 -51,-39 -89,-39 -38,0 -68,14 -90,40 -22,26 -33,62 -33,109 0,47 11,83 32,108 21,26 51,39 89,39 37,0 66,-14 89,-42 23,-27 34,-64 34,-109z"/>
  <path id="2" class="fil14" d="M2565 16253l-101 0 0 -441 95 0 0 73c21,-31 43,-54 69,-68 25,-14 56,-21 90,-21 35,0 63,7 86,22 23,14 40,36 52,66 23,-31 48,-53 74,-67 26,-14 56,-21 89,-21 29,0 55,5 77,16 21,11 38,26 50,47 6,9 10,21 13,34 2,14 4,33 4,57l0 36 0 267 -101 0 0 -226c0,-59 -7,-99 -19,-117 -13,-19 -35,-28 -67,-28 -40,0 -68,12 -85,38 -17,25 -26,69 -26,132l0 201 -102 0 0 -226c0,-55 -6,-93 -19,-114 -13,-21 -36,-31 -68,-31 -20,0 -38,4 -55,13 -16,9 -29,22 -39,37 -6,11 -10,23 -13,38 -2,15 -4,42 -4,82l0 201z"/>
  <path id="3" class="fil14" d="M3395 16031c0,45 12,82 35,109 23,28 53,42 90,42 38,0 67,-13 88,-39 21,-25 32,-61 32,-108 0,-47 -11,-83 -33,-109 -22,-26 -52,-40 -90,-40 -38,0 -68,13 -89,39 -22,25 -33,61 -33,106zm4 -499l0 352c12,-28 30,-49 56,-64 26,-16 57,-23 93,-23 59,0 106,21 143,65 36,43 55,100 55,170 0,74 -18,133 -54,175 -36,43 -85,64 -147,64 -32,0 -59,-6 -83,-18 -24,-13 -45,-32 -63,-57l0 57 -101 0 0 -721 101 0z"/>
  <path id="4" class="fil14" d="M3844 15622c0,-17 6,-32 19,-45 12,-12 27,-18 44,-18 18,0 33,6 45,18 12,12 18,27 18,45 0,18 -6,33 -18,45 -12,12 -27,18 -45,18 -17,0 -32,-6 -44,-18 -13,-13 -19,-28 -19,-45zm13 631l0 -441 101 0 0 441 -101 0z"/>
  <path id="5" class="fil14" d="M4527 16047l-353 0c3,42 15,74 37,97 22,23 51,35 88,35 33,0 60,-7 81,-21 22,-13 41,-35 57,-66l85 48c-25,44 -55,77 -92,99 -37,21 -80,32 -129,32 -71,0 -127,-21 -169,-64 -42,-44 -62,-101 -62,-173 0,-69 21,-126 64,-170 44,-45 99,-67 167,-67 71,0 127,20 166,61 40,40 60,97 60,170l0 19zm-105 -67c-4,-32 -16,-56 -36,-72 -20,-17 -48,-25 -83,-25 -33,0 -60,8 -80,24 -20,16 -34,40 -42,73l241 0zm-187 -235l89 -126 105 0 -136 126 -58 0z"/>
  <path id="6" class="fil14" d="M4632 16253l0 -441 95 0 0 73c20,-31 43,-53 71,-67 27,-14 60,-21 99,-21 33,0 61,5 84,15 23,11 42,26 55,47 7,12 13,26 16,42 4,16 5,44 5,85l0 267 -101 0 0 -226c0,-58 -7,-97 -22,-116 -14,-19 -39,-28 -75,-28 -23,0 -44,4 -63,13 -18,8 -33,21 -43,36 -8,11 -13,24 -16,41 -3,17 -4,43 -4,79l0 201 -101 0z"/>
  <polygon id="7" class="fil14" points="5484,16253 5484,15532 5585,15532 5585,16253 "/>
  <path id="8" class="fil14" d="M6144 16253l-101 0 0 -57c-18,25 -39,44 -63,57 -24,12 -52,18 -83,18 -62,0 -111,-21 -147,-64 -36,-42 -54,-101 -54,-175 0,-70 19,-127 55,-170 37,-44 85,-65 144,-65 36,0 67,7 92,22 26,15 44,37 56,65l0 -72 101 0 0 441zm-98 -222c0,-45 -11,-81 -32,-106 -21,-26 -51,-39 -89,-39 -38,0 -68,14 -90,40 -22,26 -33,62 -33,109 0,47 11,83 32,108 21,26 51,39 89,39 36,0 66,-14 89,-42 23,-27 34,-64 34,-109z"/>
  <path id="9" class="fil14" d="M6585 16253l0 -352 -77 0 0 -89 77 0 0 -118c0,-59 12,-102 36,-130 25,-27 63,-41 114,-41 11,0 22,0 33,2 12,1 23,4 35,7l0 91c-8,-4 -16,-8 -24,-10 -8,-3 -17,-4 -25,-4 -24,0 -42,8 -52,23 -11,15 -16,40 -16,75l0 105 106 0 0 89 -106 0 0 352 -101 0z"/>
  <path id="10" class="fil14" d="M7209 16034c0,-41 -13,-76 -40,-104 -26,-29 -58,-43 -96,-43 -38,0 -70,14 -97,43 -26,28 -39,63 -39,104 0,41 13,76 39,104 27,29 59,43 97,43 38,0 70,-14 96,-43 27,-28 40,-63 40,-104zm-379 -1c0,-32 6,-63 18,-91 13,-29 30,-54 53,-77 23,-22 49,-39 78,-51 30,-11 61,-17 93,-17 33,0 64,6 94,17 29,12 55,30 79,53 23,22 40,48 53,76 12,29 18,59 18,90 0,33 -6,63 -18,92 -12,28 -30,54 -53,76 -24,23 -51,40 -80,52 -30,12 -61,18 -93,18 -32,0 -63,-6 -92,-18 -30,-12 -56,-29 -79,-51 -23,-23 -41,-49 -53,-78 -12,-28 -18,-59 -18,-91z"/>
  <path id="11" class="fil14" d="M7523 15883c11,-30 25,-51 43,-65 18,-14 40,-21 67,-21 14,0 28,2 42,5 14,3 27,8 41,15l-37 86c-9,-7 -18,-11 -28,-14 -10,-3 -21,-4 -34,-4 -33,0 -57,13 -72,40 -15,26 -22,72 -22,135l0 193 -101 0 0 -442 101 0 0 72z"/>
  <path id="12" class="fil14" d="M7874 16253l-101 0 0 -441 95 0 0 73c20,-31 43,-54 68,-68 26,-14 56,-21 91,-21 34,0 63,7 85,22 23,14 40,36 52,66 23,-31 48,-53 74,-67 27,-14 56,-21 90,-21 29,0 54,5 76,16 22,11 39,26 51,47 5,9 10,21 12,34 3,14 4,33 4,57l0 36 0 267 -101 0 0 -226c0,-59 -6,-99 -19,-117 -12,-19 -35,-28 -67,-28 -40,0 -68,12 -85,38 -17,25 -25,69 -25,132l0 201 -102 0 0 -226c0,-55 -7,-93 -20,-114 -13,-21 -36,-31 -68,-31 -20,0 -38,4 -54,13 -17,9 -30,22 -40,37 -6,11 -10,23 -13,38 -2,15 -3,42 -3,82l0 201z"/>
  <path id="13" class="fil14" d="M9022 16253l-101 0 0 -57c-18,25 -39,44 -63,57 -25,12 -52,18 -83,18 -62,0 -112,-21 -147,-64 -36,-42 -54,-101 -54,-175 0,-70 18,-127 55,-170 37,-44 84,-65 143,-65 36,0 67,7 93,22 25,15 44,37 56,65l0 -72 101 0 0 441zm-99 -222c0,-45 -10,-81 -31,-106 -22,-26 -51,-39 -89,-39 -39,0 -69,14 -90,40 -22,26 -33,62 -33,109 0,47 10,83 31,108 21,26 51,39 90,39 36,0 65,-14 88,-42 23,-27 34,-64 34,-109z"/>
  <path id="14" class="fil14" d="M9490 15938c-15,-17 -33,-30 -54,-39 -21,-9 -43,-14 -67,-14 -41,0 -74,14 -99,40 -25,27 -37,62 -37,107 0,45 13,81 38,108 24,26 59,39 103,39 24,0 46,-5 66,-14 19,-9 36,-23 50,-41l0 116c-18,10 -38,18 -60,23 -21,6 -43,8 -67,8 -69,0 -126,-22 -169,-66 -44,-44 -66,-101 -66,-171 0,-71 23,-128 68,-172 45,-43 104,-65 177,-65 23,0 44,2 63,7 19,4 38,11 54,20l0 114z"/>
  <path id="15" class="fil14" d="M9585 15622c0,-17 6,-32 19,-45 12,-12 27,-18 44,-18 18,0 34,6 45,18 12,12 18,27 18,45 0,18 -6,33 -18,45 -12,12 -27,18 -45,18 -17,0 -32,-6 -44,-18 -13,-13 -19,-28 -19,-45zm13 631l0 -441 101 0 0 441 -101 0z"/>
  <path id="16" class="fil14" d="M10190 16034c0,-41 -14,-76 -40,-104 -26,-29 -58,-43 -97,-43 -37,0 -70,14 -96,43 -27,28 -40,63 -40,104 0,41 13,76 40,104 26,29 59,43 96,43 38,0 70,-14 97,-43 26,-28 40,-63 40,-104zm-379 -1c0,-32 6,-63 18,-91 12,-29 30,-54 53,-77 22,-22 48,-39 78,-51 29,-11 60,-17 93,-17 33,0 64,6 93,17 30,12 56,30 79,53 23,22 41,48 53,76 12,29 18,59 18,90 0,33 -6,63 -18,92 -11,28 -29,54 -52,76 -24,23 -51,40 -80,52 -30,12 -61,18 -93,18 -32,0 -63,-6 -93,-18 -29,-12 -55,-29 -78,-51 -23,-23 -41,-49 -53,-78 -12,-28 -18,-59 -18,-91zm177 -288l88 -126 105 0 -136 126 -57 0z"/>
  <path id="17" class="fil14" d="M10403 16253l0 -441 95 0 0 73c20,-31 44,-53 71,-67 27,-14 60,-21 100,-21 32,0 60,5 84,15 23,11 41,26 54,47 8,12 13,26 17,42 3,16 5,44 5,85l0 267 -102 0 0 -226c0,-58 -7,-97 -21,-116 -15,-19 -40,-28 -76,-28 -23,0 -44,4 -63,13 -18,8 -33,21 -43,36 -8,11 -13,24 -16,41 -3,17 -4,43 -4,79l0 201 -101 0z"/>
  <path id="18" class="fil14" d="M11326 16461l-103 0 121 -246 -162 -403 111 0 81 229c5,14 9,28 13,42 3,15 6,29 8,44 4,-15 14,-40 29,-74l2 -5 109 -236 110 0 -319 649z"/>
  <path id="19" class="fil14" d="M12402 16253l-101 0 0 -57c-18,25 -39,44 -63,57 -24,12 -52,18 -83,18 -62,0 -111,-21 -147,-64 -36,-42 -54,-101 -54,-175 0,-70 18,-127 55,-170 37,-44 85,-65 143,-65 36,0 67,7 93,22 25,15 44,37 56,65l0 -72 101 0 0 441zm-98 -222c0,-45 -11,-81 -32,-106 -21,-26 -51,-39 -89,-39 -38,0 -68,14 -90,40 -22,26 -33,62 -33,109 0,47 10,83 32,108 21,26 50,39 89,39 36,0 66,-14 88,-42 23,-27 35,-64 35,-109z"/>
  <path id="20" class="fil14" d="M12870 15938c-15,-17 -33,-30 -54,-39 -20,-9 -43,-14 -66,-14 -42,0 -75,14 -100,40 -24,27 -37,62 -37,107 0,45 13,81 38,108 25,26 59,39 103,39 25,0 47,-5 66,-14 19,-9 36,-23 50,-41l0 116c-18,10 -38,18 -59,23 -21,6 -44,8 -68,8 -69,0 -126,-22 -169,-66 -44,-44 -65,-101 -65,-171 0,-71 22,-128 67,-172 45,-43 104,-65 177,-65 23,0 44,2 64,7 19,4 37,11 53,20l0 114z"/>
  <polygon id="21" class="fil14" points="12997,16253 12997,15901 12920,15901 12920,15812 12997,15812 12997,15645 13098,15645 13098,15812 13175,15812 13175,15901 13098,15901 13098,16253 "/>
  <path id="22" class="fil14" d="M13360 15812l0 249c0,42 9,73 27,92 18,18 46,28 86,28 39,0 68,-10 86,-28 17,-19 26,-50 26,-92l0 -249 101 0 0 218c0,85 -17,146 -50,184 -34,38 -88,57 -162,57 -76,0 -130,-19 -164,-56 -34,-38 -51,-100 -51,-185l0 -218 101 0z"/>
  <path id="23" class="fil14" d="M14237 16253l-100 0 0 -57c-18,25 -40,44 -64,57 -24,12 -51,18 -82,18 -62,0 -112,-21 -147,-64 -36,-42 -54,-101 -54,-175 0,-70 18,-127 55,-170 36,-44 84,-65 143,-65 36,0 67,7 92,22 26,15 45,37 57,65l0 -72 100 0 0 441zm-98 -222c0,-45 -10,-81 -32,-106 -21,-26 -50,-39 -89,-39 -38,0 -68,14 -90,40 -22,26 -32,62 -32,109 0,47 10,83 31,108 21,26 51,39 90,39 36,0 65,-14 88,-42 23,-27 34,-64 34,-109z"/>
  <polygon id="24" class="fil14" points="14381,16253 14381,15532 14482,15532 14482,16253 "/>
  <path id="25" class="fil14" d="M14618 15622c0,-17 6,-32 19,-45 12,-12 27,-18 45,-18 17,0 33,6 44,18 12,12 18,27 18,45 0,18 -6,33 -18,45 -12,12 -27,18 -44,18 -18,0 -33,-6 -45,-18 -13,-13 -19,-28 -19,-45zm13 631l0 -441 101 0 0 441 -101 0z"/>
  <polygon id="26" class="fil14" points="15215,16253 14805,16253 15051,15901 14830,15901 14830,15812 15215,15812 14975,16165 15215,16165 "/>
  <path id="27" class="fil14" d="M15719 16253l-101 0 0 -57c-18,25 -39,44 -63,57 -24,12 -51,18 -83,18 -62,0 -111,-21 -147,-64 -36,-42 -54,-101 -54,-175 0,-70 19,-127 55,-170 37,-44 85,-65 144,-65 36,0 67,7 92,22 26,15 44,37 56,65l0 -72 101 0 0 441zm-98 -222c0,-45 -11,-81 -32,-106 -21,-26 -51,-39 -89,-39 -38,0 -68,14 -90,40 -22,26 -33,62 -33,109 0,47 11,83 32,108 21,26 51,39 89,39 36,0 66,-14 89,-42 23,-27 34,-64 34,-109z"/>
  <path id="28" class="fil14" d="M16188 15938c-16,-17 -34,-30 -54,-39 -21,-9 -43,-14 -67,-14 -41,0 -74,14 -99,40 -25,27 -37,62 -37,107 0,45 12,81 37,108 25,26 59,39 104,39 24,0 46,-5 65,-14 19,-9 36,-23 51,-41l0 116c-19,10 -39,18 -60,23 -21,6 -44,8 -68,8 -69,0 -125,-22 -169,-66 -43,-44 -65,-101 -65,-171 0,-71 22,-128 67,-172 46,-43 105,-65 178,-65 22,0 44,2 63,7 19,4 37,11 54,20l0 114z"/>
  <path id="29" class="fil14" d="M16282 15622c0,-17 7,-32 19,-45 13,-12 28,-18 45,-18 18,0 33,6 45,18 12,12 18,27 18,45 0,18 -6,33 -18,45 -12,12 -27,18 -45,18 -17,0 -32,-6 -45,-18 -12,-13 -19,-28 -19,-45zm14 631l0 -441 100 0 0 441 -100 0z"/>
  <path id="30" class="fil14" d="M16887 16034c0,-41 -13,-76 -39,-104 -27,-29 -59,-43 -97,-43 -38,0 -70,14 -97,43 -26,28 -39,63 -39,104 0,41 13,76 39,104 27,29 59,43 97,43 38,0 70,-14 96,-43 27,-28 40,-63 40,-104zm-379 -1c0,-32 6,-63 18,-91 13,-29 30,-54 53,-77 23,-22 49,-39 78,-51 30,-11 61,-17 93,-17 33,0 64,6 94,17 29,12 55,30 79,53 23,22 41,48 53,76 12,29 18,59 18,90 0,33 -6,63 -18,92 -12,28 -29,54 -52,76 -25,23 -51,40 -81,52 -29,12 -60,18 -93,18 -32,0 -63,-6 -92,-18 -30,-12 -56,-29 -79,-51 -23,-23 -41,-49 -53,-78 -12,-28 -18,-59 -18,-91zm177 -288l89 -126 105 0 -136 126 -58 0z"/>
  <path id="31" class="fil14" d="M17100 16253l0 -441 95 0 0 73c20,-31 44,-53 71,-67 28,-14 61,-21 100,-21 33,0 61,5 84,15 23,11 41,26 54,47 8,12 14,26 17,42 3,16 5,44 5,85l0 267 -102 0 0 -226c0,-58 -7,-97 -21,-116 -14,-19 -39,-28 -75,-28 -24,0 -45,4 -63,13 -19,8 -33,21 -44,36 -7,11 -12,24 -15,41 -3,17 -5,43 -5,79l0 201 -101 0z"/>
  <path id="32" class="fil14" d="M1838 17173c0,-46 -10,-81 -31,-107 -22,-25 -51,-38 -90,-38 -38,0 -68,13 -90,40 -21,26 -32,62 -32,109 0,47 10,83 31,108 21,26 51,38 90,38 36,0 66,-13 88,-41 23,-27 34,-64 34,-109zm-2 -499l101 0 0 721 -101 0 0 -57c-18,25 -39,44 -63,56 -25,13 -52,19 -83,19 -62,0 -112,-21 -147,-64 -36,-43 -54,-101 -54,-175 0,-70 18,-127 55,-170 36,-44 84,-65 143,-65 36,0 67,7 93,22 25,15 44,37 56,65l0 -352z"/>
  <path id="33" class="fil14" d="M2500 17189l-352 0c3,41 15,74 37,97 22,23 51,35 88,35 32,0 59,-7 81,-21 22,-14 41,-36 57,-66l85 47c-25,45 -56,78 -92,99 -37,22 -80,33 -129,33 -71,0 -127,-22 -169,-65 -42,-43 -63,-100 -63,-172 0,-69 22,-126 65,-171 43,-44 99,-66 167,-66 71,0 126,20 166,61 40,40 59,97 59,170l0 19zm-104 -68c-4,-31 -16,-55 -37,-72 -20,-16 -47,-25 -82,-25 -33,0 -60,8 -80,24 -20,17 -34,41 -42,73l241 0z"/>
  <polygon id="34" class="fil14" points="2610,17395 2610,16674 2711,16674 2711,17395 "/>
  <path id="35" class="fil14" d="M3472 17080c-15,-17 -33,-30 -54,-39 -21,-9 -43,-14 -67,-14 -41,0 -74,14 -99,40 -25,27 -37,62 -37,106 0,46 13,82 37,108 25,27 60,40 104,40 24,0 46,-5 66,-14 19,-9 36,-23 50,-42l0 117c-18,10 -38,18 -60,23 -21,5 -44,8 -67,8 -70,0 -126,-22 -169,-66 -44,-44 -66,-101 -66,-171 0,-71 23,-128 68,-172 45,-44 104,-65 177,-65 23,0 44,2 63,6 19,5 37,12 54,21l0 114z"/>
  <path id="36" class="fil14" d="M3990 17395l-100 0 0 -57c-18,25 -40,44 -64,56 -24,13 -51,19 -82,19 -62,0 -112,-21 -147,-64 -36,-43 -54,-101 -54,-175 0,-70 18,-127 55,-170 36,-44 84,-65 143,-65 36,0 67,7 92,22 26,15 45,37 57,65l0 -72 100 0 0 441zm-98 -222c0,-46 -10,-81 -32,-107 -21,-25 -50,-38 -89,-38 -38,0 -68,13 -90,40 -22,26 -32,62 -32,109 0,47 10,83 31,108 21,26 51,38 89,38 37,0 66,-13 89,-41 23,-28 34,-64 34,-109z"/>
  <polygon id="37" class="fil14" points="4153,17395 4153,17042 4076,17042 4076,16954 4153,16954 4153,16787 4254,16787 4254,16954 4331,16954 4331,17042 4254,17042 4254,17395 "/>
  <path id="38" class="fil14" d="M4834 17395l-101 0 0 -57c-18,25 -39,44 -63,56 -25,13 -52,19 -83,19 -62,0 -112,-21 -147,-64 -36,-43 -54,-101 -54,-175 0,-70 18,-127 55,-170 37,-44 84,-65 143,-65 36,0 67,7 93,22 25,15 44,37 56,65l0 -72 101 0 0 441zm-98 -222c0,-46 -11,-81 -32,-107 -22,-25 -51,-38 -89,-38 -39,0 -69,13 -90,40 -22,26 -33,62 -33,109 0,47 10,83 31,108 21,26 51,38 90,38 36,0 66,-13 88,-41 23,-28 35,-64 35,-109z"/>
  <path id="39" class="fil14" d="M4922 17315l84 -46c6,22 18,39 34,50 17,12 39,18 65,18 23,0 40,-5 53,-16 13,-10 19,-24 19,-43 0,-23 -22,-44 -68,-61 -16,-6 -28,-10 -36,-14 -47,-19 -80,-39 -99,-59 -19,-20 -28,-45 -28,-74 0,-39 15,-71 46,-96 31,-24 72,-36 123,-36 34,0 63,6 87,19 25,12 42,30 54,53l-72 50c-5,-14 -14,-26 -28,-34 -13,-8 -28,-12 -45,-12 -20,0 -35,4 -47,14 -11,9 -17,21 -17,36 0,23 26,44 78,63 16,6 29,11 38,14 41,17 70,35 87,55 18,20 27,46 27,76 0,44 -17,79 -48,103 -32,25 -76,38 -132,38 -44,0 -79,-8 -108,-24 -28,-16 -51,-41 -67,-74z"/>
  <polygon id="40" class="fil14" points="5402,17395 5402,17042 5325,17042 5325,16954 5402,16954 5402,16787 5503,16787 5503,16954 5580,16954 5580,17042 5503,17042 5503,17395 "/>
  <path id="41" class="fil14" d="M5768 17024c11,-29 25,-50 43,-64 18,-14 40,-21 67,-21 14,0 28,1 42,5 13,3 27,8 40,14l-36 86c-9,-6 -18,-10 -28,-13 -10,-3 -21,-5 -34,-5 -33,0 -57,14 -72,40 -15,27 -22,72 -22,135l0 194 -101 0 0 -442 101 0 0 71z"/>
  <path id="42" class="fil14" d="M6364 17176c0,-41 -13,-76 -39,-104 -26,-29 -59,-43 -97,-43 -38,0 -70,14 -96,43 -27,28 -40,63 -40,104 0,41 13,76 40,104 26,28 58,42 96,42 38,0 70,-14 97,-42 26,-28 39,-63 39,-104zm-379 -1c0,-32 7,-63 19,-91 12,-29 30,-55 52,-77 23,-22 49,-39 79,-51 29,-12 60,-17 92,-17 33,0 65,5 94,17 29,12 56,29 79,52 23,23 41,49 53,77 12,29 18,59 18,90 0,32 -6,63 -18,91 -12,29 -29,54 -52,76 -24,23 -51,41 -81,53 -29,12 -60,18 -93,18 -32,0 -62,-6 -92,-18 -29,-12 -56,-29 -79,-52 -23,-23 -40,-48 -53,-77 -12,-28 -18,-59 -18,-91z"/>
  <path id="43" class="fil14" d="M6966 17024c11,-29 25,-50 43,-64 18,-14 40,-21 67,-21 14,0 28,1 42,5 14,3 27,8 41,14l-37 86c-9,-6 -18,-10 -28,-13 -10,-3 -21,-5 -34,-5 -33,0 -57,14 -72,40 -15,27 -22,72 -22,135l0 194 -101 0 0 -442 101 0 0 71z"/>
  <path id="44" class="fil14" d="M7314 16954l0 248c0,43 9,74 26,93 18,18 47,27 86,27 40,0 69,-9 86,-27 18,-19 27,-50 27,-93l0 -248 101 0 0 218c0,84 -17,146 -51,184 -34,38 -88,57 -162,57 -75,0 -130,-19 -163,-57 -34,-38 -51,-99 -51,-184l0 -218 101 0z"/>
  <path id="45" class="fil14" d="M7877 17024c11,-29 25,-50 43,-64 18,-14 40,-21 66,-21 15,0 28,1 42,5 14,3 28,8 41,14l-36 86c-9,-6 -18,-10 -28,-13 -11,-3 -22,-5 -34,-5 -34,0 -58,14 -72,40 -15,27 -22,72 -22,135l0 194 -101 0 0 -442 101 0 0 71z"/>
  <path id="46" class="fil14" d="M8542 17395l-101 0 0 -57c-18,25 -39,44 -63,56 -24,13 -52,19 -83,19 -62,0 -111,-21 -147,-64 -36,-43 -54,-101 -54,-175 0,-70 18,-127 55,-170 37,-44 84,-65 143,-65 36,0 67,7 93,22 25,15 44,37 56,65l0 -72 101 0 0 441zm-98 -222c0,-46 -11,-81 -32,-107 -22,-25 -51,-38 -89,-38 -39,0 -69,13 -90,40 -22,26 -33,62 -33,109 0,47 10,83 31,108 21,26 51,38 90,38 36,0 66,-13 88,-41 23,-28 35,-64 35,-109z"/>
  <polygon id="47" class="fil14" points="8686,17395 8686,16674 8787,16674 8787,17395 "/>
  <path id="48" class="fil14" d="M9294 17603l-104 0 121 -246 -162 -403 112 0 81 228c5,14 9,28 12,43 4,14 7,29 9,44 4,-16 14,-40 29,-74l2 -6 109 -235 109 0 -318 649z"/>
  <polygon id="49" class="fil14" points="9959,17395 9959,16674 10060,16674 10060,17395 "/>
  <path id="50" class="fil14" d="M10619 17395l-101 0 0 -57c-18,25 -39,44 -63,56 -24,13 -51,19 -82,19 -63,0 -112,-21 -148,-64 -35,-43 -53,-101 -53,-175 0,-70 18,-127 55,-170 36,-44 84,-65 143,-65 36,0 67,7 92,22 26,15 45,37 56,65l0 -72 101 0 0 441zm-98 -222c0,-46 -10,-81 -32,-107 -21,-25 -51,-38 -89,-38 -38,0 -68,13 -90,40 -22,26 -33,62 -33,109 0,47 11,83 32,108 21,26 51,38 89,38 37,0 66,-13 89,-41 23,-28 34,-64 34,-109z"/>
  <path id="51" class="fil14" d="M11143 17173c0,46 12,82 35,109 22,28 52,41 90,41 38,0 67,-12 88,-38 21,-25 32,-61 32,-108 0,-47 -11,-83 -33,-109 -22,-27 -52,-40 -90,-40 -38,0 -68,13 -89,38 -22,26 -33,61 -33,107zm-97 430l0 -649 101 0 0 72c12,-28 30,-49 56,-65 26,-15 57,-22 93,-22 59,0 106,21 143,65 36,43 55,100 55,170 0,74 -18,132 -54,175 -36,43 -85,64 -147,64 -32,0 -59,-6 -83,-19 -24,-12 -45,-31 -63,-56l0 265 -101 0z"/>
  <path id="52" class="fil14" d="M11698 16954l0 248c0,43 9,74 27,93 17,18 46,27 86,27 39,0 68,-9 86,-27 17,-19 26,-50 26,-93l0 -248 101 0 0 218c0,84 -17,146 -51,184 -33,38 -87,57 -161,57 -76,0 -130,-19 -164,-57 -34,-38 -51,-99 -51,-184l0 -218 101 0z"/>
  <path id="53" class="fil14" d="M12585 17189l-352 0c2,41 14,74 36,97 22,23 52,35 88,35 33,0 60,-7 82,-21 21,-14 40,-36 56,-66l85 47c-25,45 -55,78 -92,99 -36,22 -79,33 -129,33 -70,0 -127,-22 -169,-65 -41,-43 -62,-100 -62,-172 0,-69 21,-126 65,-171 43,-44 98,-66 166,-66 71,0 127,20 166,61 40,40 60,97 60,170l0 19zm-105 -68c-4,-31 -16,-55 -36,-72 -20,-16 -48,-25 -83,-25 -33,0 -60,8 -80,24 -20,17 -34,41 -42,73l241 0z"/>
  <path id="54" class="fil14" d="M12639 17315l84 -46c6,22 18,39 35,50 16,12 38,18 64,18 23,0 41,-5 53,-16 13,-10 20,-24 20,-43 0,-23 -23,-44 -69,-61 -15,-6 -28,-10 -36,-14 -47,-19 -80,-39 -99,-59 -18,-20 -28,-45 -28,-74 0,-39 16,-71 46,-96 31,-24 72,-36 123,-36 34,0 63,6 88,19 24,12 42,30 53,53l-72 50c-5,-14 -14,-26 -27,-34 -14,-8 -29,-12 -46,-12 -19,0 -35,4 -46,14 -12,9 -18,21 -18,36 0,23 26,44 78,63 17,6 29,11 38,14 41,17 70,35 88,55 17,20 26,46 26,76 0,44 -16,79 -48,103 -32,25 -76,38 -132,38 -43,0 -79,-8 -108,-24 -28,-16 -50,-41 -67,-74z"/>
  <polygon id="55" class="fil14" points="13119,17395 13119,17042 13042,17042 13042,16954 13119,16954 13119,16787 13220,16787 13220,16954 13297,16954 13297,17042 13220,17042 13220,17395 "/>
  <path id="56" class="fil14" d="M13800 17395l-101 0 0 -57c-18,25 -39,44 -63,56 -25,13 -52,19 -83,19 -62,0 -112,-21 -147,-64 -36,-43 -54,-101 -54,-175 0,-70 18,-127 55,-170 36,-44 84,-65 143,-65 36,0 67,7 93,22 25,15 44,37 56,65l0 -72 101 0 0 441zm-99 -222c0,-46 -10,-81 -31,-107 -22,-25 -51,-38 -90,-38 -38,0 -68,13 -90,40 -21,26 -32,62 -32,109 0,47 10,83 31,108 21,26 51,38 90,38 36,0 65,-13 88,-41 23,-28 34,-64 34,-109z"/>
  <path id="57" class="fil14" d="M14641 17395l-101 0 0 -57c-18,25 -39,44 -63,56 -24,13 -51,19 -82,19 -63,0 -112,-21 -147,-64 -36,-43 -54,-101 -54,-175 0,-70 18,-127 55,-170 36,-44 84,-65 143,-65 36,0 67,7 92,22 26,15 45,37 56,65l0 -72 101 0 0 441zm-98 -222c0,-46 -10,-81 -32,-107 -21,-25 -51,-38 -89,-38 -38,0 -68,13 -90,40 -22,26 -33,62 -33,109 0,47 11,83 32,108 21,26 51,38 89,38 37,0 66,-13 89,-41 23,-28 34,-64 34,-109z"/>
  <polygon id="58" class="fil14" points="14785,17395 14785,16674 14886,16674 14886,17395 "/>
  <path id="59" class="fil14" d="M15635 17173c0,-46 -11,-81 -32,-107 -21,-25 -51,-38 -89,-38 -38,0 -68,13 -90,40 -22,26 -33,62 -33,109 0,47 10,83 32,108 21,26 51,38 89,38 37,0 66,-13 89,-41 22,-27 34,-64 34,-109zm-3 -499l101 0 0 721 -101 0 0 -57c-18,25 -39,44 -63,56 -24,13 -52,19 -83,19 -62,0 -111,-21 -147,-64 -36,-43 -54,-101 -54,-175 0,-70 19,-127 55,-170 37,-44 85,-65 144,-65 36,0 66,7 92,22 26,15 44,37 56,65l0 -352z"/>
  <path id="60" class="fil14" d="M15877 17395l0 -441 101 0 0 441 -101 0zm-15 -508l88 -127 105 0 -136 127 -57 0z"/>
  <path id="61" class="fil14" d="M16537 17395l-101 0 0 -57c-18,25 -39,44 -63,56 -24,13 -52,19 -83,19 -62,0 -111,-21 -147,-64 -36,-43 -54,-101 -54,-175 0,-70 19,-127 55,-170 37,-44 85,-65 144,-65 36,0 66,7 92,22 26,15 44,37 56,65l0 -72 101 0 0 441zm-98 -222c0,-46 -11,-81 -32,-107 -21,-25 -51,-38 -89,-38 -38,0 -68,13 -90,40 -22,26 -33,62 -33,109 0,47 11,83 32,108 21,26 51,38 89,38 36,0 66,-13 89,-41 23,-28 34,-64 34,-109z"/>
  <path id="62" class="fil14" d="M1838 18315c0,-46 -10,-81 -31,-107 -22,-25 -51,-38 -90,-38 -38,0 -68,13 -90,39 -21,26 -32,63 -32,109 0,47 10,83 31,109 21,25 51,38 90,38 36,0 66,-14 88,-41 23,-28 34,-64 34,-109zm-2 -499l101 0 0 721 -101 0 0 -57c-18,25 -39,44 -63,56 -25,12 -52,19 -83,19 -62,0 -112,-22 -147,-64 -36,-43 -54,-101 -54,-175 0,-71 18,-128 55,-171 36,-43 84,-65 143,-65 36,0 67,8 93,23 25,15 44,36 56,64l0 -351z"/>
  <path id="63" class="fil14" d="M2500 18331l-352 0c3,41 15,73 37,97 22,23 51,34 88,34 32,0 59,-7 81,-20 22,-14 41,-36 57,-66l85 47c-25,45 -56,77 -92,99 -37,22 -80,33 -129,33 -71,0 -127,-22 -169,-65 -42,-43 -63,-101 -63,-172 0,-70 22,-126 65,-171 43,-44 99,-67 167,-67 71,0 126,21 166,61 40,41 59,98 59,171l0 19zm-104 -68c-4,-31 -16,-56 -37,-72 -20,-17 -47,-25 -82,-25 -33,0 -60,8 -80,24 -20,16 -34,41 -42,73l241 0z"/>
  <polygon id="64" class="fil14" points="2610,18537 2610,17816 2711,17816 2711,18537 "/>
  <path id="65" class="fil14" d="M3240 18315c0,45 12,82 35,109 22,27 52,41 90,41 38,0 67,-13 88,-38 21,-26 32,-62 32,-109 0,-46 -11,-83 -33,-109 -22,-26 -52,-39 -90,-39 -38,0 -68,13 -90,38 -21,26 -32,61 -32,107zm-97 429l0 -648 101 0 0 71c11,-27 30,-49 56,-64 26,-15 57,-23 93,-23 59,0 106,22 143,65 36,43 54,100 54,171 0,74 -18,132 -54,175 -35,42 -84,64 -147,64 -31,0 -58,-7 -82,-19 -24,-12 -45,-31 -63,-56l0 264 -101 0z"/>
  <path id="66" class="fil14" d="M3798 18166c11,-29 25,-51 43,-65 18,-14 40,-21 66,-21 15,0 29,2 43,5 13,4 27,9 40,15l-36 86c-9,-6 -18,-11 -28,-14 -10,-3 -22,-4 -34,-4 -34,0 -58,13 -72,40 -15,27 -22,72 -22,135l0 194 -101 0 0 -442 101 0 0 71z"/>
  <path id="67" class="fil14" d="M4472 18331l-352 0c3,41 15,73 37,97 22,23 51,34 88,34 32,0 59,-7 81,-20 22,-14 41,-36 57,-66l85 47c-25,45 -56,77 -92,99 -37,22 -80,33 -129,33 -71,0 -127,-22 -169,-65 -42,-43 -63,-101 -63,-172 0,-70 22,-126 65,-171 43,-44 99,-67 167,-67 71,0 126,21 166,61 40,41 59,98 59,171l0 19zm-104 -68c-4,-31 -16,-56 -37,-72 -20,-17 -47,-25 -82,-25 -33,0 -60,8 -80,24 -20,16 -34,41 -42,73l241 0z"/>
  <path id="68" class="fil14" d="M4895 18315c0,-46 -11,-81 -32,-107 -22,-25 -51,-38 -89,-38 -39,0 -69,13 -90,39 -22,26 -33,63 -33,109 0,47 10,83 31,109 21,25 51,38 90,38 36,0 66,-14 89,-41 22,-28 34,-64 34,-109zm-3 -499l101 0 0 721 -101 0 0 -57c-18,25 -39,44 -63,56 -24,12 -52,19 -83,19 -62,0 -111,-22 -147,-64 -36,-43 -54,-101 -54,-175 0,-71 18,-128 55,-171 37,-43 84,-65 143,-65 36,0 67,8 93,23 25,15 44,36 56,64l0 -351z"/>
  <path id="69" class="fil14" d="M5123 17905c0,-17 7,-32 19,-44 13,-13 28,-19 45,-19 18,0 33,6 45,18 12,12 18,27 18,45 0,18 -6,33 -18,45 -12,13 -27,19 -45,19 -17,0 -32,-6 -45,-19 -12,-13 -19,-27 -19,-45zm14 632l0 -441 100 0 0 441 -100 0z"/>
  <path id="70" class="fil14" d="M5797 18537l-101 0 0 -57c-18,25 -39,44 -63,56 -24,12 -52,19 -83,19 -62,0 -111,-22 -147,-64 -36,-43 -54,-101 -54,-175 0,-71 18,-128 55,-171 37,-43 84,-65 143,-65 36,0 67,8 93,23 25,15 44,36 56,64l0 -71 101 0 0 441zm-98 -222c0,-46 -11,-81 -32,-107 -22,-25 -51,-38 -89,-38 -39,0 -69,13 -90,39 -22,26 -33,63 -33,109 0,47 10,83 31,109 22,25 51,38 90,38 36,0 66,-14 88,-41 23,-28 35,-64 35,-109z"/>
  <polygon id="71" class="fil14" points="5941,18537 5941,17816 6042,17816 6042,18537 "/>
  <path id="72" class="fil14" d="M6616 17861l-88 254 -85 -29 114 -246 59 21zm169 0l-88 254 -85 -29 114 -246 59 21z"/>
  <path id="73" class="fil14" d="M7319 18331l-353 0c3,41 15,73 37,97 22,23 51,34 88,34 33,0 60,-7 81,-20 22,-14 41,-36 57,-66l85 47c-25,45 -55,77 -92,99 -37,22 -80,33 -129,33 -71,0 -127,-22 -169,-65 -42,-43 -63,-101 -63,-172 0,-70 22,-126 65,-171 44,-44 99,-67 167,-67 71,0 126,21 166,61 40,41 60,98 60,171l0 19zm-105 -68c-4,-31 -16,-56 -36,-72 -20,-17 -48,-25 -83,-25 -33,0 -60,8 -80,24 -20,16 -34,41 -42,73l241 0z"/>
  <polygon id="74" class="fil14" points="7428,18537 7428,17816 7529,17816 7529,18537 "/>
  <path id="75" class="fil14" d="M8278 18315c0,-46 -11,-81 -32,-107 -21,-25 -51,-38 -89,-38 -38,0 -68,13 -90,39 -22,26 -33,63 -33,109 0,47 11,83 32,109 21,25 51,38 89,38 37,0 67,-14 89,-41 23,-27 34,-64 34,-109zm98 429l-101 0 0 -264c-18,25 -39,44 -63,56 -24,12 -51,19 -83,19 -62,0 -111,-22 -147,-64 -36,-43 -54,-101 -54,-175 0,-71 19,-128 55,-171 37,-43 85,-65 144,-65 36,0 67,8 92,23 26,15 44,36 56,64l0 -71 101 0 0 648z"/>
  <path id="76" class="fil14" d="M8613 18096l0 248c0,43 9,74 27,92 17,19 46,28 86,28 39,0 68,-9 86,-28 17,-18 26,-49 26,-92l0 -248 101 0 0 218c0,84 -17,145 -51,184 -33,38 -87,57 -161,57 -76,0 -130,-19 -164,-57 -34,-38 -51,-99 -51,-184l0 -218 101 0z"/>
  <path id="77" class="fil14" d="M9500 18331l-353 0c3,41 15,73 37,97 22,23 52,34 88,34 33,0 60,-7 82,-20 21,-14 40,-36 56,-66l85 47c-25,45 -55,77 -92,99 -36,22 -79,33 -129,33 -70,0 -127,-22 -169,-65 -41,-43 -62,-101 -62,-172 0,-70 21,-126 65,-171 43,-44 98,-67 166,-67 71,0 127,21 166,61 40,41 60,98 60,171l0 19zm-105 -68c-4,-31 -16,-56 -36,-72 -20,-17 -48,-25 -83,-25 -33,0 -60,8 -80,24 -20,16 -34,41 -42,73l241 0z"/>
  <path id="78" class="fil14" d="M9993 18537l-101 0 0 -441 95 0 0 72c20,-31 43,-53 69,-68 25,-14 56,-21 90,-21 35,0 63,8 86,22 23,14 40,36 52,66 23,-30 48,-53 74,-67 26,-14 56,-21 89,-21 29,0 55,6 77,16 21,11 38,27 50,47 6,10 10,21 13,35 2,13 4,32 4,57l0 35 0 268 -101 0 0 -227c0,-59 -7,-98 -19,-117 -13,-19 -35,-28 -67,-28 -40,0 -68,13 -85,38 -17,25 -26,70 -26,133l0 201 -102 0 0 -227c0,-54 -6,-92 -19,-113 -13,-21 -36,-32 -69,-32 -19,0 -37,5 -54,14 -16,9 -29,21 -39,37 -6,10 -10,23 -13,37 -2,15 -4,43 -4,83l0 201z"/>
  <path id="79" class="fil14" d="M11141 18537l-101 0 0 -57c-18,25 -39,44 -63,56 -24,12 -51,19 -83,19 -62,0 -111,-22 -147,-64 -36,-43 -54,-101 -54,-175 0,-71 19,-128 55,-171 37,-43 85,-65 144,-65 36,0 67,8 92,23 26,15 44,36 56,64l0 -71 101 0 0 441zm-98 -222c0,-46 -11,-81 -32,-107 -21,-25 -51,-38 -89,-38 -38,0 -68,13 -90,39 -22,26 -33,63 -33,109 0,47 11,83 32,109 21,25 51,38 89,38 36,0 66,-14 89,-41 23,-28 34,-64 34,-109zm-171 -286l89 -127 105 0 -136 127 -58 0z"/>
  <path id="80" class="fil14" d="M11230 18457l83 -46c7,22 18,39 35,50 17,12 38,17 64,17 23,0 41,-5 54,-15 13,-11 19,-25 19,-43 0,-24 -23,-44 -69,-61 -15,-6 -27,-10 -36,-14 -47,-20 -80,-40 -98,-60 -19,-20 -29,-44 -29,-73 0,-39 16,-71 47,-96 31,-24 71,-37 122,-37 34,0 64,7 88,19 24,13 42,31 53,54l-72 49c-5,-14 -14,-25 -27,-33 -13,-8 -29,-12 -46,-12 -19,0 -34,4 -46,13 -12,9 -18,22 -18,37 0,23 26,44 78,63 17,5 30,10 38,14 41,16 70,34 88,55 17,20 26,45 26,76 0,44 -16,78 -48,103 -32,25 -76,38 -132,38 -43,0 -79,-8 -107,-24 -29,-17 -51,-41 -67,-74z"/>
  <polygon id="81" class="fil14" points="11997,18537 11997,18184 11920,18184 11920,18096 11997,18096 11997,17929 12098,17929 12098,18096 12175,18096 12175,18184 12098,18184 12098,18537 "/>
  <path id="82" class="fil14" d="M12253 17905c0,-17 7,-32 19,-44 13,-13 28,-19 45,-19 18,0 33,6 45,18 12,12 18,27 18,45 0,18 -6,33 -18,45 -12,13 -27,19 -45,19 -17,0 -32,-6 -45,-19 -12,-13 -19,-27 -19,-45zm14 632l0 -441 101 0 0 441 -101 0z"/>
  <path id="83" class="fil14" d="M12937 18331l-353 0c3,41 15,73 37,97 22,23 51,34 88,34 32,0 60,-7 81,-20 22,-14 41,-36 57,-66l85 47c-25,45 -56,77 -92,99 -37,22 -80,33 -129,33 -71,0 -127,-22 -169,-65 -42,-43 -63,-101 -63,-172 0,-70 22,-126 65,-171 43,-44 99,-67 167,-67 71,0 126,21 166,61 40,41 60,98 60,171l0 19zm-105 -68c-4,-31 -16,-56 -36,-72 -21,-17 -48,-25 -83,-25 -33,0 -60,8 -80,24 -20,16 -34,41 -42,73l241 0z"/>
  <path id="84" class="fil14" d="M13041 18537l0 -441 95 0 0 72c21,-31 44,-53 72,-67 27,-14 60,-21 99,-21 33,0 61,6 84,16 23,10 41,26 54,46 8,12 14,26 17,43 4,16 5,44 5,84l0 268 -102 0 0 -227c0,-58 -7,-96 -21,-115 -14,-19 -39,-29 -75,-29 -24,0 -45,4 -63,13 -18,9 -33,21 -44,37 -7,10 -12,24 -15,41 -3,16 -5,42 -5,79l0 201 -101 0z"/>
  <path id="85" class="fil14" d="M14026 18331l-352 0c2,41 15,73 37,97 22,23 51,34 88,34 32,0 59,-7 81,-20 22,-14 40,-36 57,-66l84 47c-24,45 -55,77 -92,99 -36,22 -79,33 -128,33 -71,0 -127,-22 -169,-65 -42,-43 -63,-101 -63,-172 0,-70 22,-126 65,-171 43,-44 99,-67 167,-67 71,0 126,21 166,61 39,41 59,98 59,171l0 19zm-105 -68c-4,-31 -16,-56 -36,-72 -20,-17 -48,-25 -82,-25 -34,0 -60,8 -80,24 -20,16 -35,41 -43,73l241 0z"/>
  <polygon id="86" class="fil14" points="14205,18421 14296,18455 14175,18704 14115,18680 "/>
  <path id="87" class="fil14" d="M14807 18537l-101 0 0 -441 95 0 0 72c20,-31 43,-53 69,-68 25,-14 55,-21 90,-21 35,0 63,8 86,22 22,14 40,36 51,66 24,-30 48,-53 75,-67 26,-14 56,-21 89,-21 29,0 55,6 76,16 22,11 39,27 51,47 6,10 10,21 12,35 3,13 4,32 4,57l0 35 0 268 -101 0 0 -227c0,-59 -6,-98 -19,-117 -12,-19 -34,-28 -67,-28 -39,0 -68,13 -84,38 -17,25 -26,70 -26,133l0 201 -102 0 0 -227c0,-54 -6,-92 -19,-113 -14,-21 -36,-32 -69,-32 -20,0 -38,5 -54,14 -17,9 -30,21 -39,37 -6,10 -11,23 -13,37 -3,15 -4,43 -4,83l0 201z"/>
  <path id="88" class="fil14" d="M15955 18537l-101 0 0 -57c-18,25 -39,44 -63,56 -24,12 -52,19 -83,19 -62,0 -111,-22 -147,-64 -36,-43 -54,-101 -54,-175 0,-71 18,-128 55,-171 37,-43 85,-65 143,-65 37,0 67,8 93,23 25,15 44,36 56,64l0 -71 101 0 0 441zm-98 -222c0,-46 -11,-81 -32,-107 -21,-25 -51,-38 -89,-38 -38,0 -68,13 -90,39 -22,26 -33,63 -33,109 0,47 10,83 32,109 21,25 50,38 89,38 36,0 66,-14 88,-41 23,-28 35,-64 35,-109zm-171 -286l89 -127 105 0 -136 127 -58 0z"/>
  <path id="89" class="fil14" d="M16043 18457l84 -46c6,22 18,39 35,50 16,12 38,17 64,17 23,0 41,-5 54,-15 12,-11 19,-25 19,-43 0,-24 -23,-44 -69,-61 -15,-6 -27,-10 -36,-14 -47,-20 -80,-40 -99,-60 -18,-20 -28,-44 -28,-73 0,-39 16,-71 46,-96 31,-24 72,-37 123,-37 34,0 63,7 88,19 24,13 42,31 53,54l-72 49c-5,-14 -14,-25 -27,-33 -14,-8 -29,-12 -46,-12 -19,0 -35,4 -46,13 -12,9 -18,22 -18,37 0,23 26,44 78,63 17,5 29,10 38,14 41,16 70,34 88,55 17,20 26,45 26,76 0,44 -16,78 -48,103 -32,25 -76,38 -132,38 -43,0 -79,-8 -108,-24 -28,-17 -50,-41 -67,-74z"/>
  <path id="90" class="fil14" d="M1619 19456c0,46 11,83 34,110 23,27 53,41 90,41 38,0 68,-13 89,-38 21,-26 31,-62 31,-109 0,-46 -11,-83 -33,-109 -21,-26 -51,-39 -90,-39 -38,0 -67,12 -89,38 -21,25 -32,61 -32,106zm-98 430l0 -649 101 0 0 72c12,-28 31,-49 57,-64 26,-15 57,-23 93,-23 58,0 106,22 142,65 37,43 55,100 55,170 0,74 -18,133 -54,175 -36,43 -85,64 -147,64 -31,0 -59,-6 -83,-18 -24,-13 -45,-31 -63,-57l0 265 -101 0z"/>
  <path id="91" class="fil14" d="M2491 19678l-101 0 0 -57c-18,26 -39,44 -63,57 -24,12 -52,18 -83,18 -62,0 -111,-21 -147,-64 -36,-42 -54,-101 -54,-175 0,-70 19,-127 55,-170 37,-43 85,-65 144,-65 36,0 66,8 92,23 25,15 44,36 56,64l0 -72 101 0 0 441zm-98 -222c0,-45 -11,-81 -32,-106 -21,-26 -51,-38 -89,-38 -38,0 -68,13 -90,39 -22,26 -33,63 -33,109 0,47 10,83 32,109 21,25 51,38 89,38 36,0 66,-14 89,-42 22,-27 34,-64 34,-109z"/>
  <path id="92" class="fil14" d="M2947 19456c0,-45 -10,-81 -32,-106 -21,-26 -51,-38 -89,-38 -38,0 -68,13 -90,39 -22,26 -33,63 -33,109 0,47 11,83 32,109 21,25 51,38 89,38 37,0 66,-14 89,-42 23,-27 34,-64 34,-109zm98 195c0,86 -17,147 -51,182 -35,35 -93,53 -174,53 -61,0 -110,-13 -146,-39 -36,-25 -55,-59 -55,-102l108 0c2,19 10,33 27,43 16,10 38,15 67,15 44,0 75,-9 93,-28 20,-19 29,-51 29,-95l1 -59c-18,26 -39,44 -63,57 -24,12 -51,18 -82,18 -63,0 -112,-21 -148,-64 -35,-42 -53,-101 -53,-175 0,-70 18,-127 55,-170 36,-43 84,-65 143,-65 36,0 67,8 92,23 26,15 45,36 56,64l0 -72 101 0 0 414z"/>
  <path id="93" class="fil14" d="M3600 19678l-101 0 0 -57c-18,26 -39,44 -63,57 -24,12 -52,18 -83,18 -62,0 -111,-21 -147,-64 -36,-42 -54,-101 -54,-175 0,-70 18,-127 55,-170 37,-43 84,-65 143,-65 36,0 67,8 93,23 25,15 44,36 56,64l0 -72 101 0 0 441zm-98 -222c0,-45 -11,-81 -32,-106 -22,-26 -51,-38 -89,-38 -39,0 -69,13 -90,39 -22,26 -33,63 -33,109 0,47 10,83 31,109 21,25 51,38 90,38 36,0 66,-14 88,-42 23,-27 35,-64 35,-109z"/>
  <path id="94" class="fil14" d="M3674 19234l89 -252 85 28 -115 246 -59 -22zm170 0l89 -252 84 28 -114 246 -59 -22z"/>
  <path id="95" class="fil14" d="M4743 19363c-16,-17 -34,-30 -54,-39 -21,-9 -43,-13 -67,-13 -41,0 -74,13 -99,40 -25,26 -38,62 -38,106 0,46 13,82 38,108 25,26 59,39 103,39 25,0 47,-5 66,-14 19,-9 36,-23 51,-41l0 116c-19,10 -39,18 -60,23 -21,6 -44,8 -68,8 -69,0 -125,-22 -169,-66 -44,-44 -65,-101 -65,-171 0,-71 22,-128 67,-172 46,-43 104,-65 178,-65 22,0 43,2 63,7 19,4 37,11 54,21l0 113z"/>
  <path id="96" class="fil14" d="M4947 19308c11,-29 25,-51 43,-65 18,-14 40,-21 66,-21 14,0 28,2 42,5 14,3 28,9 41,15l-36 86c-9,-6 -18,-11 -28,-14 -11,-3 -22,-4 -34,-4 -34,0 -58,13 -72,40 -15,27 -22,72 -22,135l0 193 -101 0 0 -442 101 0 0 72z"/>
  <path id="97" class="fil14" d="M5621 19473l-352 0c2,41 15,73 37,96 21,23 51,35 88,35 32,0 59,-7 81,-20 22,-14 40,-36 57,-67l84 48c-24,44 -55,77 -92,99 -36,22 -79,32 -128,32 -71,0 -127,-21 -169,-64 -42,-43 -63,-101 -63,-173 0,-69 22,-126 65,-170 43,-45 99,-67 167,-67 71,0 126,20 166,61 39,41 59,97 59,171l0 19zm-105 -68c-4,-32 -16,-56 -36,-72 -20,-17 -48,-25 -82,-25 -34,0 -60,8 -81,24 -20,16 -34,40 -42,73l241 0z"/>
  <path id="98" class="fil14" d="M6141 19678l-101 0 0 -57c-17,26 -39,44 -63,57 -24,12 -51,18 -82,18 -63,0 -112,-21 -147,-64 -36,-42 -54,-101 -54,-175 0,-70 18,-127 55,-170 36,-43 84,-65 143,-65 36,0 67,8 92,23 26,15 45,36 56,64l0 -72 101 0 0 441zm-98 -222c0,-45 -10,-81 -32,-106 -21,-26 -51,-38 -89,-38 -38,0 -68,13 -90,39 -22,26 -33,63 -33,109 0,47 11,83 32,109 21,25 51,38 89,38 37,0 66,-14 89,-42 23,-27 34,-64 34,-109z"/>
  <path id="99" class="fil14" d="M6381 19308c11,-29 26,-51 43,-65 18,-14 40,-21 67,-21 14,0 28,2 42,5 14,3 28,9 41,15l-37 86c-8,-6 -18,-11 -28,-14 -10,-3 -21,-4 -33,-4 -34,0 -58,13 -73,40 -14,27 -22,72 -22,135l0 193 -101 0 0 -442 101 0 0 72z"/>
  <path id="100" class="fil14" d="M7046 19678l-101 0 0 -57c-17,26 -39,44 -63,57 -24,12 -51,18 -82,18 -62,0 -112,-21 -147,-64 -36,-42 -54,-101 -54,-175 0,-70 18,-127 55,-170 36,-43 84,-65 143,-65 36,0 67,8 92,23 26,15 45,36 56,64l0 -72 101 0 0 441zm-98 -222c0,-45 -10,-81 -32,-106 -21,-26 -51,-38 -89,-38 -38,0 -68,13 -90,39 -22,26 -32,63 -32,109 0,47 10,83 31,109 21,25 51,38 89,38 37,0 66,-14 89,-42 23,-27 34,-64 34,-109zm-170 -285l88 -127 105 0 -136 127 -57 0z"/>
  <path id="101" class="fil14" d="M7464 19047c0,-17 7,-32 19,-44 13,-13 28,-19 45,-19 18,0 33,6 45,18 12,12 18,27 18,45 0,18 -6,33 -18,45 -12,12 -27,19 -45,19 -17,0 -32,-7 -45,-19 -12,-13 -19,-28 -19,-45zm14 631l0 -441 101 0 0 441 -101 0z"/>
  <path id="102" class="fil14" d="M7723 19678l0 -441 95 0 0 73c20,-31 43,-53 71,-67 27,-14 60,-21 99,-21 33,0 61,5 84,16 23,10 42,26 55,46 7,12 13,26 16,42 4,16 5,45 5,85l0 267 -101 0 0 -226c0,-58 -7,-97 -22,-116 -14,-19 -39,-28 -75,-28 -23,0 -44,4 -63,13 -18,9 -33,21 -43,36 -8,11 -13,25 -16,41 -3,17 -4,43 -4,79l0 201 -101 0z"/>
  <path id="103" class="fil14" d="M8612 19363c-15,-17 -33,-30 -54,-39 -21,-9 -43,-13 -67,-13 -41,0 -74,13 -99,40 -25,26 -37,62 -37,106 0,46 13,82 37,108 25,26 60,39 104,39 24,0 46,-5 66,-14 19,-9 36,-23 50,-41l0 116c-18,10 -38,18 -60,23 -21,6 -43,8 -67,8 -69,0 -126,-22 -169,-66 -44,-44 -66,-101 -66,-171 0,-71 23,-128 68,-172 45,-43 104,-65 177,-65 23,0 44,2 63,7 19,4 38,11 54,21l0 113z"/>
  <path id="104" class="fil14" d="M9140 19473l-352 0c2,41 14,73 36,96 22,23 52,35 88,35 33,0 60,-7 82,-20 21,-14 40,-36 57,-67l84 48c-24,44 -55,77 -92,99 -36,22 -79,32 -129,32 -70,0 -127,-21 -168,-64 -42,-43 -63,-101 -63,-173 0,-69 21,-126 65,-170 43,-45 99,-67 166,-67 71,0 127,20 167,61 39,41 59,97 59,171l0 19zm-105 -68c-4,-32 -16,-56 -36,-72 -20,-17 -48,-25 -83,-25 -33,0 -59,8 -80,24 -20,16 -34,40 -42,73l241 0z"/>
  <path id="105" class="fil14" d="M9245 19678l0 -441 95 0 0 73c20,-31 44,-53 71,-67 27,-14 61,-21 100,-21 33,0 61,5 84,16 23,10 41,26 54,46 8,12 13,26 17,42 3,16 5,45 5,85l0 267 -102 0 0 -226c0,-58 -7,-97 -21,-116 -14,-19 -39,-28 -76,-28 -23,0 -44,4 -63,13 -18,9 -33,21 -43,36 -8,11 -13,25 -16,41 -3,17 -4,43 -4,79l0 201 -101 0z"/>
  <polygon id="106" class="fil14" points="9829,19678 9829,19326 9752,19326 9752,19237 9829,19237 9829,19071 9930,19071 9930,19237 10007,19237 10007,19326 9930,19326 9930,19678 "/>
  <path id="107" class="fil14" d="M10085 19047c0,-17 6,-32 19,-44 13,-13 27,-19 45,-19 18,0 33,6 45,18 12,12 18,27 18,45 0,18 -6,33 -18,45 -13,12 -27,19 -45,19 -18,0 -32,-7 -45,-19 -13,-13 -19,-28 -19,-45zm13 631l0 -441 101 0 0 441 -101 0z"/>
  <path id="108" class="fil14" d="M10498 19705l-231 -468 110 0 97 222c3,7 7,17 11,31 4,14 9,30 13,49 4,-14 7,-27 11,-40 5,-13 10,-26 16,-40l95 -222 110 0 -232 468z"/>
  <path id="109" class="fil14" d="M11140 19459c0,-41 -13,-75 -40,-104 -26,-28 -58,-42 -96,-42 -38,0 -70,14 -97,42 -26,29 -40,63 -40,104 0,41 14,76 40,104 27,29 59,43 97,43 37,0 70,-14 96,-43 27,-28 40,-63 40,-104zm-379 -1c0,-32 6,-62 18,-91 12,-29 30,-54 53,-77 23,-22 49,-38 78,-50 30,-12 60,-18 93,-18 33,0 64,6 93,18 30,12 56,29 79,52 24,22 41,48 53,77 12,28 18,58 18,89 0,33 -6,63 -17,92 -12,28 -30,54 -53,76 -24,23 -51,41 -80,52 -30,12 -61,18 -93,18 -32,0 -63,-6 -92,-18 -30,-11 -56,-29 -79,-51 -23,-23 -41,-49 -53,-78 -12,-28 -18,-58 -18,-91z"/>
  <path id="110" class="fil14" d="M11303 19598l83 -45c7,22 18,38 35,50 16,11 38,17 64,17 23,0 41,-5 54,-15 12,-11 19,-25 19,-43 0,-24 -23,-44 -69,-61 -15,-6 -27,-11 -36,-14 -47,-20 -80,-40 -99,-60 -18,-20 -28,-45 -28,-73 0,-40 16,-72 47,-96 31,-25 71,-37 122,-37 34,0 63,6 88,19 24,13 42,30 53,54l-72 49c-5,-14 -14,-25 -27,-33 -13,-9 -29,-13 -46,-13 -19,0 -35,5 -46,14 -12,9 -18,21 -18,37 0,22 26,43 78,62 17,6 29,11 38,15 41,16 70,34 88,54 17,21 26,46 26,76 0,45 -16,79 -48,104 -32,25 -76,37 -132,37 -43,0 -79,-8 -107,-24 -29,-16 -51,-41 -67,-74z"/>
  <path id="111" class="fil14" d="M12144 19456c0,46 11,83 34,110 23,27 53,41 90,41 38,0 68,-13 89,-38 21,-26 31,-62 31,-109 0,-46 -11,-83 -33,-109 -22,-26 -52,-39 -90,-39 -38,0 -68,12 -89,38 -21,25 -32,61 -32,106zm-98 430l0 -649 101 0 0 72c12,-28 31,-49 57,-64 25,-15 56,-23 92,-23 59,0 107,22 143,65 37,43 55,100 55,170 0,74 -18,133 -54,175 -36,43 -85,64 -147,64 -31,0 -59,-6 -83,-18 -24,-13 -45,-31 -63,-57l0 265 -101 0z"/>
  <path id="112" class="fil14" d="M13016 19678l-101 0 0 -57c-18,26 -39,44 -63,57 -24,12 -52,18 -83,18 -62,0 -111,-21 -147,-64 -36,-42 -54,-101 -54,-175 0,-70 18,-127 55,-170 37,-43 84,-65 143,-65 36,0 67,8 93,23 25,15 44,36 56,64l0 -72 101 0 0 441zm-98 -222c0,-45 -11,-81 -32,-106 -22,-26 -51,-38 -89,-38 -39,0 -69,13 -90,39 -22,26 -33,63 -33,109 0,47 10,83 31,109 22,25 51,38 90,38 36,0 66,-14 88,-42 23,-27 35,-64 35,-109z"/>
  <path id="113" class="fil14" d="M13256 19308c11,-29 25,-51 43,-65 18,-14 40,-21 66,-21 15,0 29,2 42,5 14,3 28,9 41,15l-36 86c-9,-6 -18,-11 -28,-14 -10,-3 -22,-4 -34,-4 -34,0 -58,13 -72,40 -15,27 -22,72 -22,135l0 193 -101 0 0 -442 101 0 0 72z"/>
  <path id="114" class="fil14" d="M13921 19678l-101 0 0 -57c-18,26 -39,44 -63,57 -24,12 -52,18 -83,18 -62,0 -111,-21 -147,-64 -36,-42 -54,-101 -54,-175 0,-70 18,-127 55,-170 37,-43 85,-65 143,-65 36,0 67,8 93,23 25,15 44,36 56,64l0 -72 101 0 0 441zm-98 -222c0,-45 -11,-81 -32,-106 -21,-26 -51,-38 -89,-38 -39,0 -69,13 -90,39 -22,26 -33,63 -33,109 0,47 10,83 31,109 22,25 51,38 90,38 36,0 66,-14 88,-42 23,-27 35,-64 35,-109z"/>
  <path id="115" class="fil14" d="M14665 19456c0,-45 -11,-81 -32,-106 -22,-26 -51,-38 -89,-38 -39,0 -69,13 -90,39 -22,26 -33,63 -33,109 0,47 10,83 31,109 21,25 51,38 90,38 36,0 66,-14 89,-41 22,-28 34,-64 34,-110zm-3 -499l101 0 0 721 -101 0 0 -57c-18,26 -39,44 -63,57 -24,12 -52,18 -83,18 -62,0 -111,-21 -147,-64 -36,-42 -54,-101 -54,-175 0,-70 18,-127 55,-170 37,-43 84,-65 143,-65 36,0 67,8 93,23 25,15 44,36 56,64l0 -352z"/>
  <path id="116" class="fil14" d="M15317 19678l-101 0 0 -57c-18,26 -39,44 -63,57 -24,12 -52,18 -83,18 -62,0 -111,-21 -147,-64 -36,-42 -54,-101 -54,-175 0,-70 19,-127 55,-170 37,-43 85,-65 144,-65 36,0 66,8 92,23 26,15 44,36 56,64l0 -72 101 0 0 441zm-98 -222c0,-45 -11,-81 -32,-106 -21,-26 -51,-38 -89,-38 -38,0 -68,13 -90,39 -22,26 -33,63 -33,109 0,47 11,83 32,109 21,25 51,38 89,38 36,0 66,-14 89,-42 23,-27 34,-64 34,-109z"/>
  <path id="117" class="fil14" d="M15557 19308c11,-29 25,-51 43,-65 18,-14 40,-21 67,-21 14,0 28,2 42,5 13,3 27,9 40,15l-36 86c-9,-6 -18,-11 -28,-14 -10,-3 -21,-4 -34,-4 -33,0 -57,13 -72,40 -15,27 -22,72 -22,135l0 193 -101 0 0 -442 101 0 0 72z"/>
  <polygon id="118" class="fil14" points="15812,19678 15812,18957 15913,18957 15913,19678 "/>
  <path id="119" class="fil14" d="M16481 19473l-352 0c2,41 15,73 37,96 22,23 51,35 88,35 32,0 59,-7 81,-20 22,-14 41,-36 57,-67l85 48c-25,44 -56,77 -93,99 -36,22 -79,32 -128,32 -71,0 -127,-21 -169,-64 -42,-43 -63,-101 -63,-173 0,-69 22,-126 65,-170 43,-45 99,-67 167,-67 71,0 126,20 166,61 39,41 59,97 59,171l0 19zm-104 -68c-4,-32 -16,-56 -37,-72 -20,-17 -47,-25 -82,-25 -34,0 -60,8 -80,24 -20,16 -35,40 -43,73l242 0z"/>
  <path id="120" class="fil14" d="M16972 19237l0 249c0,43 9,73 26,92 18,19 47,28 86,28 40,0 69,-9 86,-28 18,-19 27,-49 27,-92l0 -249 101 0 0 219c0,84 -17,145 -51,183 -34,38 -88,57 -162,57 -75,0 -130,-18 -163,-56 -34,-38 -51,-99 -51,-184l0 -219 101 0z"/>
  <path id="121" class="fil14" d="M17434 19678l0 -441 95 0 0 73c20,-31 43,-53 71,-67 27,-14 60,-21 99,-21 33,0 61,5 84,16 23,10 42,26 55,46 7,12 13,26 16,42 4,16 5,45 5,85l0 267 -101 0 0 -226c0,-58 -7,-97 -22,-116 -14,-19 -39,-28 -75,-28 -23,0 -44,4 -63,13 -18,9 -33,21 -43,36 -8,11 -13,25 -16,41 -3,17 -4,43 -4,79l0 201 -101 0z"/>
  <path id="122" class="fil14" d="M1619 20379l0 249c0,42 9,73 27,92 18,18 46,28 86,28 39,0 68,-10 86,-28 17,-19 26,-50 26,-92l0 -249 101 0 0 218c0,85 -17,146 -51,184 -33,38 -87,57 -161,57 -76,0 -130,-19 -164,-57 -34,-37 -51,-99 -51,-184l0 -218 101 0z"/>
  <path id="123" class="fil14" d="M2031 20740l84 -46c6,22 17,39 34,51 17,11 38,17 64,17 23,0 41,-5 54,-16 13,-10 19,-24 19,-42 0,-24 -23,-45 -69,-62 -15,-5 -27,-10 -35,-14 -48,-19 -81,-39 -99,-59 -19,-20 -28,-45 -28,-74 0,-39 15,-71 46,-95 31,-25 71,-37 122,-37 34,0 64,6 88,19 24,12 42,30 53,53l-72 50c-5,-14 -14,-25 -27,-34 -13,-8 -29,-12 -46,-12 -19,0 -34,5 -46,14 -12,9 -18,21 -18,36 0,23 27,44 78,63 17,6 30,11 39,15 40,16 69,34 87,54 17,20 26,46 26,76 0,44 -16,79 -48,104 -32,25 -76,37 -132,37 -43,0 -79,-8 -107,-24 -29,-16 -51,-41 -67,-74z"/>
  <path id="124" class="fil14" d="M2834 20601c0,-41 -14,-76 -40,-104 -26,-29 -59,-43 -97,-43 -37,0 -70,14 -96,43 -27,28 -40,63 -40,104 0,41 13,76 40,104 26,29 59,43 96,43 38,0 70,-14 97,-43 26,-28 40,-63 40,-104zm-380 -1c0,-32 7,-63 19,-91 12,-29 30,-55 53,-77 22,-22 48,-39 78,-51 29,-11 60,-17 92,-17 34,0 65,6 94,17 29,12 56,30 79,52 23,23 41,49 53,77 12,29 18,59 18,90 0,33 -6,63 -18,92 -12,28 -29,53 -52,75 -24,24 -51,41 -81,53 -29,12 -60,18 -93,18 -32,0 -62,-6 -92,-18 -29,-12 -55,-29 -78,-52 -24,-23 -41,-48 -53,-77 -13,-28 -19,-59 -19,-91z"/>
  <path id="125" class="fil14" d="M3435 20820l-101 0 0 -441 95 0 0 72c20,-30 43,-53 69,-67 25,-14 55,-21 90,-21 35,0 63,7 86,21 22,15 40,37 51,66 24,-30 48,-52 75,-66 26,-14 56,-21 89,-21 29,0 55,5 76,16 22,11 39,26 51,47 6,9 10,21 12,34 3,13 4,33 4,57l0 36 0 267 -101 0 0 -226c0,-60 -6,-99 -18,-117 -13,-19 -35,-28 -68,-28 -39,0 -68,12 -84,38 -17,25 -26,69 -26,132l0 201 -102 0 0 -226c0,-55 -6,-93 -19,-114 -14,-21 -36,-31 -69,-31 -19,0 -38,4 -54,13 -16,9 -29,21 -39,37 -6,11 -11,23 -13,38 -3,15 -4,42 -4,82l0 201z"/>
  <path id="126" class="fil14" d="M4583 20820l-101 0 0 -57c-18,25 -39,44 -63,57 -24,12 -52,18 -83,18 -62,0 -111,-21 -147,-64 -36,-42 -54,-101 -54,-175 0,-70 19,-127 55,-170 37,-44 85,-65 144,-65 36,0 66,7 92,22 25,15 44,37 56,65l0 -72 101 0 0 441zm-98 -222c0,-45 -11,-81 -32,-106 -21,-26 -51,-39 -89,-39 -38,0 -68,14 -90,40 -22,26 -33,62 -33,109 0,47 10,83 32,108 21,26 51,39 89,39 36,0 66,-14 89,-42 22,-27 34,-64 34,-109zm-171 -286l89 -126 105 0 -136 126 -58 0z"/>
  <path id="127" class="fil14" d="M4672 20740l83 -46c7,22 18,39 35,51 16,11 38,17 64,17 23,0 41,-5 54,-16 12,-10 19,-24 19,-42 0,-24 -23,-45 -69,-62 -15,-5 -27,-10 -36,-14 -47,-19 -80,-39 -99,-59 -18,-20 -28,-45 -28,-74 0,-39 16,-71 47,-95 30,-25 71,-37 122,-37 34,0 63,6 88,19 24,12 42,30 53,53l-72 50c-5,-14 -14,-25 -27,-34 -13,-8 -29,-12 -46,-12 -19,0 -35,5 -46,14 -12,9 -18,21 -18,36 0,23 26,44 78,63 17,6 29,11 38,15 41,16 70,34 88,54 17,20 26,46 26,76 0,44 -16,79 -48,104 -32,25 -76,37 -132,37 -43,0 -79,-8 -107,-24 -29,-16 -51,-41 -67,-74z"/>
  <path id="128" class="fil14" d="M5513 20598c0,46 11,82 34,110 23,27 53,41 90,41 38,0 68,-13 89,-39 21,-25 31,-61 31,-108 0,-47 -11,-83 -33,-109 -22,-26 -52,-40 -90,-40 -38,0 -68,13 -89,39 -21,25 -32,61 -32,106zm-98 430l0 -649 101 0 0 72c12,-28 31,-49 57,-65 25,-15 56,-22 92,-22 59,0 107,21 143,65 37,43 55,100 55,170 0,74 -18,133 -54,175 -36,43 -85,64 -147,64 -31,0 -59,-6 -83,-18 -24,-13 -45,-32 -63,-57l0 265 -101 0z"/>
  <path id="129" class="fil14" d="M6070 20450c11,-30 26,-51 43,-65 18,-14 40,-21 67,-21 14,0 28,2 42,5 14,3 28,8 41,15l-37 86c-8,-7 -18,-11 -28,-14 -10,-3 -21,-5 -33,-5 -34,0 -58,14 -73,41 -14,26 -22,72 -22,135l0 193 -101 0 0 -442 101 0 0 72z"/>
  <path id="130" class="fil14" d="M6667 20601c0,-41 -13,-76 -40,-104 -26,-29 -58,-43 -96,-43 -38,0 -70,14 -97,43 -26,28 -40,63 -40,104 0,41 14,76 40,104 27,29 59,43 97,43 37,0 70,-14 96,-43 27,-28 40,-63 40,-104zm-379 -1c0,-32 6,-63 18,-91 12,-29 30,-55 53,-77 23,-22 49,-39 78,-51 30,-11 60,-17 93,-17 33,0 64,6 94,17 29,12 55,30 78,52 24,23 41,49 53,77 13,29 19,59 19,90 0,33 -6,63 -18,92 -12,28 -30,53 -53,75 -24,24 -51,41 -80,53 -30,12 -61,18 -93,18 -32,0 -63,-6 -92,-18 -30,-12 -56,-29 -79,-52 -23,-23 -41,-48 -53,-77 -12,-28 -18,-59 -18,-91z"/>
  <path id="131" class="fil14" d="M7197 20598c0,-45 -10,-81 -32,-106 -21,-26 -51,-39 -89,-39 -38,0 -68,14 -90,40 -22,26 -33,62 -33,109 0,47 11,83 32,108 21,26 51,39 89,39 37,0 67,-14 89,-42 23,-27 34,-63 34,-109zm-3 -499l101 0 0 721 -101 0 0 -57c-18,25 -39,44 -63,57 -24,12 -51,18 -82,18 -63,0 -112,-21 -148,-64 -35,-42 -53,-101 -53,-175 0,-70 18,-127 55,-170 36,-44 84,-65 143,-65 36,0 67,7 92,22 26,15 45,37 56,65l0 -352z"/>
  <path id="132" class="fil14" d="M7533 20379l0 249c0,42 8,73 26,92 18,18 46,28 86,28 40,0 68,-10 86,-28 17,-19 26,-50 26,-92l0 -249 101 0 0 218c0,85 -17,146 -50,184 -34,38 -88,57 -162,57 -75,0 -130,-19 -164,-57 -34,-37 -50,-99 -50,-184l0 -218 101 0z"/>
  <path id="133" class="fil14" d="M8324 20505c-16,-17 -34,-30 -54,-39 -21,-9 -43,-14 -67,-14 -41,0 -74,14 -99,40 -25,27 -37,62 -37,106 0,46 12,82 37,109 25,26 60,39 104,39 24,0 46,-5 65,-14 19,-9 36,-23 51,-41l0 116c-19,10 -39,18 -60,23 -21,5 -44,8 -68,8 -69,0 -125,-22 -169,-66 -43,-44 -65,-101 -65,-171 0,-71 22,-128 68,-172 45,-43 104,-65 177,-65 23,0 44,2 63,7 19,4 37,11 54,20l0 114z"/>
  <polygon id="134" class="fil14" points="8451,20820 8451,20468 8374,20468 8374,20379 8451,20379 8451,20212 8552,20212 8552,20379 8629,20379 8629,20468 8552,20468 8552,20820 "/>
  <path id="135" class="fil14" d="M8707 20189c0,-17 6,-32 19,-45 13,-12 27,-18 45,-18 18,0 33,6 45,18 12,12 18,27 18,45 0,18 -6,33 -18,45 -13,12 -27,18 -45,18 -18,0 -32,-6 -45,-19 -13,-12 -19,-27 -19,-44zm13 631l0 -441 101 0 0 441 -101 0z"/>
  <path id="136" class="fil14" d="M9121 20847l-232 -468 111 0 96 222c3,7 7,17 11,31 4,13 9,30 14,49 3,-14 6,-27 10,-40 5,-14 10,-27 16,-40l95 -222 110 0 -231 468z"/>
  <path id="137" class="fil14" d="M9762 20601c0,-41 -13,-76 -40,-104 -26,-29 -58,-43 -96,-43 -38,0 -70,14 -97,43 -26,28 -40,63 -40,104 0,41 14,76 40,104 27,29 59,43 97,43 37,0 70,-14 96,-43 27,-28 40,-63 40,-104zm-379 -1c0,-32 6,-63 18,-91 12,-29 30,-55 53,-77 23,-22 49,-39 78,-51 30,-11 60,-17 93,-17 33,0 64,6 94,17 29,12 55,30 78,52 24,23 41,49 53,77 13,29 19,59 19,90 0,33 -6,63 -18,92 -12,28 -30,53 -53,75 -24,24 -51,41 -80,53 -30,12 -61,18 -93,18 -32,0 -63,-6 -92,-18 -30,-12 -56,-29 -79,-52 -23,-23 -41,-48 -53,-77 -12,-28 -18,-59 -18,-91z"/>
  <path id="138" class="fil14" d="M10678 20820l-101 0 0 -57c-18,25 -39,44 -63,57 -24,12 -52,18 -83,18 -62,0 -111,-21 -147,-64 -36,-42 -54,-101 -54,-175 0,-70 18,-127 55,-170 37,-44 85,-65 143,-65 36,0 67,7 93,22 25,15 44,37 56,65l0 -72 101 0 0 441zm-98 -222c0,-45 -11,-81 -32,-106 -21,-26 -51,-39 -89,-39 -38,0 -68,14 -90,40 -22,26 -33,62 -33,109 0,47 10,83 31,108 22,26 51,39 90,39 36,0 66,-14 88,-42 23,-27 35,-64 35,-109z"/>
  <polygon id="139" class="fil14" points="11109,20820 11109,20099 11210,20099 11210,20820 "/>
  <path id="140" class="fil14" d="M11769 20820l-101 0 0 -57c-17,25 -39,44 -63,57 -24,12 -51,18 -82,18 -63,0 -112,-21 -147,-64 -36,-42 -54,-101 -54,-175 0,-70 18,-127 55,-170 36,-44 84,-65 143,-65 36,0 67,7 92,22 26,15 45,37 56,65l0 -72 101 0 0 441zm-98 -222c0,-45 -10,-81 -32,-106 -21,-26 -51,-39 -89,-39 -38,0 -68,14 -90,40 -22,26 -33,62 -33,109 0,47 11,83 32,108 21,26 51,39 89,39 37,0 66,-14 89,-42 23,-27 34,-64 34,-109z"/>
  <polygon id="141" class="fil14" points="12220,20820 12220,20468 12143,20468 12143,20379 12220,20379 12220,20212 12321,20212 12321,20379 12398,20379 12398,20468 12321,20468 12321,20820 "/>
  <path id="142" class="fil14" d="M12476 20189c0,-17 7,-32 19,-45 13,-12 28,-18 45,-18 18,0 33,6 45,18 12,12 18,27 18,45 0,18 -6,33 -18,45 -12,12 -27,18 -45,18 -17,0 -32,-6 -45,-19 -12,-12 -19,-27 -19,-44zm14 631l0 -441 100 0 0 441 -100 0z"/>
  <path id="143" class="fil14" d="M13159 20614l-352 0c2,42 15,74 37,97 22,23 51,35 88,35 32,0 59,-7 81,-21 22,-13 41,-35 57,-66l85 48c-25,44 -56,77 -93,99 -36,21 -79,32 -128,32 -71,0 -127,-21 -169,-64 -42,-44 -63,-101 -63,-173 0,-69 22,-126 65,-171 43,-44 99,-66 167,-66 71,0 126,20 166,61 39,40 59,97 59,170l0 19zm-104 -67c-4,-32 -17,-56 -37,-73 -20,-16 -47,-24 -82,-24 -34,0 -60,8 -80,24 -20,16 -35,40 -43,73l242 0z"/>
  <path id="144" class="fil14" d="M13365 20450c11,-30 25,-51 43,-65 18,-14 40,-21 67,-21 14,0 28,2 42,5 14,3 27,8 41,15l-37 86c-8,-7 -18,-11 -28,-14 -10,-3 -21,-5 -34,-5 -33,0 -57,14 -72,41 -15,26 -22,72 -22,135l0 193 -101 0 0 -442 101 0 0 72z"/>
  <path id="145" class="fil14" d="M13716 20450c11,-30 25,-51 43,-65 18,-14 40,-21 66,-21 15,0 29,2 42,5 14,3 28,8 41,15l-36 86c-9,-7 -18,-11 -28,-14 -10,-3 -22,-5 -34,-5 -34,0 -58,14 -72,41 -15,26 -22,72 -22,135l0 193 -101 0 0 -442 101 0 0 72z"/>
  <path id="146" class="fil14" d="M14381 20820l-101 0 0 -57c-18,25 -39,44 -63,57 -24,12 -52,18 -83,18 -62,0 -111,-21 -147,-64 -36,-42 -54,-101 -54,-175 0,-70 18,-127 55,-170 37,-44 85,-65 143,-65 37,0 67,7 93,22 25,15 44,37 56,65l0 -72 101 0 0 441zm-98 -222c0,-45 -11,-81 -32,-106 -21,-26 -51,-39 -89,-39 -38,0 -68,14 -90,40 -22,26 -33,62 -33,109 0,47 10,83 32,108 21,26 50,39 89,39 36,0 66,-14 88,-42 23,-27 35,-64 35,-109z"/>
  <path id="147" class="fil14" d="M14533 20769c0,-18 6,-32 18,-44 12,-12 26,-18 43,-18 17,0 32,6 44,18 11,12 17,26 17,44 0,16 -6,31 -17,42 -12,12 -27,18 -44,18 -17,0 -31,-6 -43,-18 -12,-11 -18,-26 -18,-42z"/>
  <polygon class="fil15" points="1460,13402 1460,12519 2001,12519 2001,12713 1695,12713 1695,12866 1984,12866 1984,13055 1695,13055 1695,13402 "/>
  <path id="1" class="fil15" d="M2549 13099c0,-45 -11,-81 -34,-107 -23,-26 -54,-40 -93,-40 -39,0 -70,14 -93,40 -23,26 -34,62 -34,107 0,45 11,81 34,107 22,26 54,39 93,39 40,0 71,-13 93,-39 23,-26 34,-62 34,-107zm214 0c0,44 -9,86 -26,125 -17,39 -41,75 -74,106 -33,31 -70,55 -111,71 -41,16 -84,24 -130,24 -46,0 -90,-8 -131,-24 -41,-16 -77,-40 -109,-71 -33,-31 -57,-66 -74,-105 -17,-40 -25,-82 -25,-126 0,-45 8,-87 25,-126 16,-39 41,-75 74,-106 31,-31 68,-55 109,-70 40,-16 84,-24 131,-24 47,0 91,8 132,24 40,15 77,39 109,70 33,32 58,67 75,107 17,39 25,81 25,125z"/>
  <path id="2" class="fil15" d="M2888 13402l0 -609 202 0 0 144c21,-53 50,-92 86,-118 36,-26 80,-39 132,-39 8,0 17,0 25,0 9,1 18,2 26,3l-21 195c-12,-4 -25,-7 -37,-9 -13,-2 -25,-3 -37,-3 -52,0 -92,16 -120,48 -28,32 -43,77 -43,136l0 252 -213 0z"/>
  <path id="3" class="fil15" d="M4244 13402l0 -333c0,-52 -6,-89 -19,-109 -13,-20 -36,-30 -68,-30 -40,0 -68,14 -84,42 -16,28 -24,85 -24,172l0 258 -207 0 0 -333c0,-53 -6,-90 -19,-109 -13,-20 -36,-30 -68,-30 -40,0 -68,14 -84,42 -16,27 -24,85 -24,172l0 258 -209 0 0 -609 211 0 0 106c26,-43 55,-75 88,-95 33,-21 72,-31 117,-31 49,0 90,10 122,29 31,19 54,48 67,86 24,-38 53,-67 87,-86 34,-19 75,-29 121,-29 36,0 68,7 96,19 27,12 50,30 69,55 15,19 25,42 32,68 6,25 9,67 9,125l0 13 0 349 -213 0z"/>
  <path id="4" class="fil15" d="M5073 13097c0,-48 -13,-85 -38,-113 -25,-28 -60,-41 -104,-41 -43,0 -78,13 -103,41 -25,27 -38,65 -38,113 0,47 13,85 38,112 26,27 60,41 103,41 44,0 79,-14 104,-41 25,-27 38,-65 38,-112zm189 -304l0 609 -197 0 0 -99c-29,42 -60,73 -95,93 -36,19 -77,29 -124,29 -82,0 -146,-29 -195,-89 -49,-59 -73,-139 -73,-238 0,-99 26,-178 76,-237 51,-58 120,-88 206,-88 45,0 85,10 118,30 33,19 62,49 85,90l0 -100 199 0z"/>
  <polygon id="5" class="fil15" points="5430,13402 5430,12467 5645,12467 5645,13402 "/>
  <path id="6" class="fil15" d="M5804 12603c0,-33 12,-60 35,-83 23,-23 51,-34 84,-34 33,0 62,11 84,33 23,23 34,51 34,84 0,33 -11,62 -34,85 -23,23 -51,35 -84,35 -33,0 -60,-12 -84,-36 -23,-24 -35,-52 -35,-84zm11 799l0 -609 215 0 0 609 -215 0z"/>
  <polygon id="7" class="fil15" points="6733,13402 6115,13402 6428,12950 6154,12950 6154,12793 6760,12793 6436,13236 6733,13236 "/>
  <path id="8" class="fil15" d="M7328 13097c0,-48 -13,-85 -38,-113 -25,-28 -60,-41 -104,-41 -44,0 -78,13 -103,41 -25,27 -38,65 -38,113 0,47 13,85 38,112 25,27 60,41 103,41 44,0 79,-14 104,-41 25,-27 38,-65 38,-112zm189 -304l0 609 -198 0 0 -99c-28,42 -59,73 -95,93 -35,19 -76,29 -123,29 -82,0 -147,-29 -195,-89 -49,-59 -73,-139 -73,-238 0,-99 25,-178 76,-237 51,-58 119,-88 205,-88 46,0 86,10 119,30 33,19 61,49 85,90l0 -100 199 0z"/>
  <path id="9" class="fil15" d="M8116 12993c-21,-18 -41,-32 -60,-40 -20,-9 -40,-13 -61,-13 -43,0 -77,14 -102,42 -25,28 -38,67 -38,115 0,46 14,84 40,111 26,28 61,42 105,42 22,0 42,-4 61,-13 20,-9 38,-22 55,-40l0 186c-26,15 -52,25 -77,32 -26,7 -53,10 -80,10 -94,0 -169,-30 -227,-90 -59,-60 -88,-139 -88,-237 0,-95 30,-173 89,-234 60,-60 136,-91 229,-91 30,0 58,3 83,9 25,6 49,16 71,29l0 182z"/>
  <path id="10" class="fil15" d="M8243 12603c0,-33 12,-60 35,-83 23,-23 51,-34 83,-34 34,0 62,11 85,33 23,23 34,51 34,84 0,33 -11,62 -35,85 -23,23 -51,35 -84,35 -32,0 -60,-12 -83,-36 -23,-24 -35,-52 -35,-84zm11 799l0 -609 215 0 0 609 -215 0z"/>
  <path id="11" class="fil15" d="M9065 13099c0,-45 -11,-81 -34,-107 -23,-26 -54,-40 -93,-40 -39,0 -70,14 -93,40 -23,26 -34,62 -34,107 0,45 11,81 34,107 22,26 54,39 93,39 40,0 71,-13 93,-39 23,-26 34,-62 34,-107zm214 0c0,44 -9,86 -26,125 -17,39 -41,75 -74,106 -33,31 -70,55 -111,71 -41,16 -84,24 -130,24 -46,0 -90,-8 -131,-24 -41,-16 -77,-40 -109,-71 -33,-31 -57,-66 -74,-105 -17,-40 -25,-82 -25,-126 0,-45 8,-87 25,-126 16,-39 41,-75 74,-106 31,-31 68,-55 109,-70 40,-16 84,-24 131,-24 47,0 91,8 132,24 40,15 77,39 109,70 33,32 58,67 75,107 17,39 25,81 25,125zm-165 -600l-187 211 -92 0 109 -211 170 0z"/>
  <path id="12" class="fil15" d="M9403 13402l0 -609 196 0 0 124c29,-50 62,-86 99,-109 37,-23 82,-35 134,-35 40,0 75,7 105,19 31,13 56,31 75,55 17,20 28,46 35,75 6,29 10,73 10,131l0 349 -215 0 0 -326c0,-49 -8,-84 -24,-107 -16,-22 -41,-33 -76,-33 -45,0 -77,17 -98,50 -20,33 -30,86 -30,160l0 256 -211 0z"/>
  <path id="13" class="fil15" d="M11060 13098c0,-47 -12,-85 -38,-112 -24,-27 -59,-41 -102,-41 -43,0 -78,14 -102,41 -25,27 -38,65 -38,112 0,48 13,85 37,112 25,28 59,41 103,41 43,0 78,-13 102,-41 26,-27 38,-65 38,-112zm191 -631l0 935 -198 0 0 -99c-27,41 -58,72 -92,92 -34,20 -72,30 -114,30 -86,0 -154,-29 -204,-88 -51,-59 -76,-139 -76,-239 0,-97 25,-175 75,-235 51,-60 116,-90 198,-90 51,0 93,10 125,28 33,19 61,50 87,93 -3,-14 -4,-31 -6,-49 -1,-18 -2,-38 -2,-59l0 -319 207 0z"/>
  <path id="14" class="fil15" d="M11830 13019c-4,-34 -17,-62 -40,-83 -22,-21 -49,-32 -82,-32 -35,0 -63,10 -84,29 -20,19 -34,48 -41,86l247 0zm211 121l-463 0c1,47 13,83 36,109 24,25 58,38 101,38 33,0 60,-6 83,-18 22,-13 39,-31 51,-55l161 65c-19,47 -53,83 -102,108 -49,26 -110,38 -181,38 -106,0 -191,-29 -255,-88 -64,-59 -96,-137 -96,-233 0,-95 32,-174 96,-237 64,-62 145,-94 243,-94 101,0 180,32 239,96 58,63 87,150 87,261l0 10z"/>
  <polygon id="15" class="fil15" points="1452,14883 1452,13948 1667,13948 1667,14883 "/>
  <path id="16" class="fil15" d="M2295 14578c0,-47 -13,-85 -38,-113 -25,-27 -60,-41 -104,-41 -44,0 -78,14 -103,41 -25,28 -38,65 -38,113 0,47 13,85 38,112 25,28 60,41 103,41 44,0 79,-13 104,-41 25,-27 38,-65 38,-112zm189 -304l0 609 -198 0 0 -99c-28,43 -59,73 -94,93 -36,20 -77,30 -124,30 -82,0 -146,-30 -195,-89 -49,-60 -73,-139 -73,-239 0,-99 25,-178 76,-237 51,-58 119,-87 205,-87 46,0 86,10 119,29 33,20 62,50 85,90l0 -100 199 0z"/>
  <path id="17" class="fil15" d="M3273 14883l-226 0 0 -883 252 0c98,0 168,5 208,15 39,9 73,26 101,49 32,27 57,61 74,101 17,41 26,86 26,135 0,53 -9,99 -26,139 -16,40 -41,73 -74,98 -25,20 -55,34 -88,42 -34,8 -88,13 -162,13l-41 0 -44 0 0 291zm0 -485l46 0c58,0 98,-8 121,-24 23,-16 34,-43 34,-81 0,-37 -11,-63 -33,-79 -23,-16 -63,-24 -120,-24l-48 0 0 208z"/>
  <path id="18" class="fil15" d="M3816 14883l0 -609 203 0 0 144c21,-53 49,-92 86,-118 36,-26 80,-39 131,-39 8,0 17,0 26,1 8,0 17,1 26,3l-21 195c-13,-5 -26,-8 -38,-10 -13,-2 -24,-3 -36,-3 -52,0 -92,16 -121,48 -28,32 -42,77 -42,136l0 252 -214 0z"/>
  <path id="19" class="fil15" d="M4799 14580c0,-45 -12,-81 -35,-107 -22,-26 -53,-39 -92,-39 -40,0 -71,13 -94,39 -22,26 -33,62 -33,107 0,46 11,81 33,107 23,26 54,39 94,39 39,0 70,-13 93,-39 23,-26 34,-61 34,-107zm213 0c0,44 -8,86 -25,125 -17,40 -42,75 -75,106 -33,32 -70,55 -110,71 -41,17 -84,25 -130,25 -47,0 -91,-8 -131,-25 -41,-16 -78,-39 -110,-71 -32,-30 -57,-65 -74,-105 -16,-40 -25,-82 -25,-126 0,-44 9,-86 25,-126 17,-39 41,-74 74,-106 32,-31 68,-54 109,-70 41,-16 85,-23 132,-23 47,0 91,7 131,23 41,16 77,39 109,70 33,32 58,68 75,107 17,39 25,81 25,125z"/>
  <path id="20" class="fil15" d="M5328 14581c0,47 12,84 37,112 24,27 59,41 102,41 43,0 78,-14 103,-41 25,-28 38,-65 38,-112 0,-48 -13,-85 -38,-113 -25,-27 -59,-41 -103,-41 -43,0 -78,14 -102,41 -25,28 -37,65 -37,113zm-191 571l0 -878 198 0 0 103c27,-41 58,-72 92,-92 34,-20 72,-30 114,-30 86,0 154,29 204,87 51,59 76,138 76,238 0,98 -25,176 -75,236 -51,61 -117,91 -198,91 -51,0 -93,-10 -125,-29 -33,-19 -62,-50 -87,-93 2,12 4,27 5,44 1,17 1,38 1,64l0 259 -205 0z"/>
  <path id="21" class="fil15" d="M5946 14084c0,-32 12,-60 35,-83 23,-23 51,-34 83,-34 34,0 62,11 85,34 23,22 34,50 34,83 0,34 -11,62 -35,85 -23,23 -51,35 -84,35 -32,0 -60,-12 -83,-36 -23,-23 -35,-51 -35,-84zm11 799l0 -609 215 0 0 609 -215 0z"/>
  <path id="22" class="fil15" d="M6756 14500c-4,-34 -17,-62 -39,-83 -23,-21 -50,-31 -83,-31 -35,0 -63,9 -84,28 -20,19 -34,48 -41,86l247 0zm211 121l-463 0c1,47 13,83 36,109 24,26 58,38 101,38 33,0 60,-6 83,-18 22,-12 39,-31 51,-55l161 65c-19,47 -53,83 -102,108 -49,26 -109,39 -181,39 -106,0 -191,-30 -255,-89 -64,-59 -96,-136 -96,-233 0,-95 32,-174 96,-236 64,-63 145,-94 243,-94 101,0 181,31 239,95 58,63 87,151 87,261l0 10z"/>
  <path id="23" class="fil15" d="M7556 14579c0,-47 -13,-84 -38,-112 -25,-27 -59,-41 -103,-41 -43,0 -77,14 -102,41 -25,28 -37,65 -37,112 0,48 12,86 37,113 24,27 59,40 102,40 44,0 78,-13 103,-40 25,-28 38,-65 38,-113zm190 -631l0 935 -198 0 0 -99c-27,41 -58,72 -92,92 -34,20 -72,31 -114,31 -85,0 -153,-30 -204,-89 -51,-59 -76,-139 -76,-239 0,-97 25,-175 76,-235 50,-60 116,-89 197,-89 51,0 93,9 126,27 32,19 61,50 86,93 -2,-14 -4,-30 -5,-49 -1,-18 -2,-38 -2,-59l0 -319 206 0z"/>
  <path id="24" class="fil15" d="M8370 14578c0,-47 -13,-85 -38,-113 -26,-27 -60,-41 -104,-41 -44,0 -78,14 -103,41 -25,28 -38,65 -38,113 0,47 13,85 38,112 25,28 60,41 103,41 44,0 78,-13 104,-41 25,-27 38,-65 38,-112zm189 -304l0 609 -198 0 0 -99c-28,43 -59,73 -95,93 -35,20 -76,30 -124,30 -81,0 -146,-30 -194,-89 -49,-60 -73,-139 -73,-239 0,-99 25,-178 76,-237 51,-58 119,-87 205,-87 46,0 86,10 119,29 33,20 61,50 85,90l0 -100 199 0z"/>
  <path id="25" class="fil15" d="M9186 14579c0,-47 -13,-84 -38,-112 -25,-27 -59,-41 -102,-41 -44,0 -78,14 -103,41 -25,28 -37,65 -37,112 0,48 12,86 37,113 25,27 59,40 103,40 43,0 77,-13 102,-40 25,-28 38,-65 38,-113zm190 -631l0 935 -197 0 0 -99c-28,41 -58,72 -93,92 -34,20 -72,31 -113,31 -86,0 -154,-30 -205,-89 -50,-59 -76,-139 -76,-239 0,-97 26,-175 76,-235 50,-60 116,-89 197,-89 52,0 94,9 126,27 32,19 61,50 86,93 -2,-14 -4,-30 -5,-49 -1,-18 -2,-38 -2,-59l0 -319 206 0z"/>
 </g>
</svg>
