<?xml version="1.0" encoding="UTF-8"?>
<!DOCTYPE svg PUBLIC "-//W3C//DTD SVG 1.1//EN" "http://www.w3.org/Graphics/SVG/1.1/DTD/svg11.dtd">
<!-- Creator: CorelDRAW X7 -->
<svg xmlns="http://www.w3.org/2000/svg" xml:space="preserve" width="2250px" height="4000px" version="1.1" style="shape-rendering:geometricPrecision; text-rendering:geometricPrecision; image-rendering:optimizeQuality; fill-rule:evenodd; clip-rule:evenodd"
viewBox="0 0 2254 4007"
 xmlns:xlink="http://www.w3.org/1999/xlink">
 <defs>
  <style type="text/css">
   <![CDATA[
    .fil8 {fill:#006A5E;fill-rule:nonzero}
    .fil7 {fill:#4E3E37;fill-rule:nonzero}
    .fil2 {fill:#541124;fill-rule:nonzero}
    .fil11 {fill:#541224;fill-rule:nonzero}
    .fil4 {fill:#6EBA6D;fill-rule:nonzero}
    .fil9 {fill:#DEA517;fill-rule:nonzero}
    .fil1 {fill:#E2E7C6;fill-rule:nonzero}
    .fil10 {fill:#E8642A;fill-rule:nonzero}
    .fil6 {fill:#E8CAA6;fill-rule:nonzero}
    .fil12 {fill:#F7AEB4;fill-rule:nonzero}
    .fil5 {fill:#F9F0E8;fill-rule:nonzero}
    .fil0 {fill:#FDF38B;fill-rule:nonzero}
    .fil3 {fill:white;fill-rule:nonzero}
   ]]>
  </style>
 </defs>
 <g id="Capa_x0020_1">
  <metadata id="CorelCorpID_0Corel-Layer"/>
  <polygon class="fil0" points="0,4007 2254,4007 2254,0 0,0 "/>
  <g id="_962934296464">
   <path class="fil1" d="M301 2594c36,0 65,30 65,66 0,36 -29,65 -65,65 -53,0 -97,44 -97,97 0,54 44,97 97,97l0 131c-126,0 -228,-102 -228,-228 0,-126 102,-228 228,-228z"/>
   <path class="fil2" d="M64 2822c0,-130 106,-237 237,-237 41,0 74,34 74,75 0,41 -33,74 -74,74 -48,0 -88,40 -88,88 0,49 40,88 88,88 5,0 9,4 9,9l0 131c0,5 -4,9 -9,9 -131,0 -237,-106 -237,-237zm228 106c-54,-5 -97,-50 -97,-106 0,-58 48,-106 106,-106 31,0 56,-25 56,-56 0,-31 -25,-57 -56,-57 -121,0 -219,99 -219,219 0,118 93,214 210,219l0 -113z"/>
   <path class="fil3" d="M775 2986c0,40 -33,73 -73,73 -41,0 -74,-33 -74,-73 0,-41 33,-74 74,-74 40,0 73,33 73,74z"/>
   <path class="fil2" d="M784 2986c0,45 -37,82 -82,82 -46,0 -83,-37 -83,-82 0,-46 37,-83 83,-83 45,0 82,37 82,83zm-147 0c0,35 29,64 65,64 35,0 64,-29 64,-64 0,-36 -29,-65 -64,-65 -36,0 -65,29 -65,65z"/>
   <path class="fil4" d="M347 2431c-13,0 -24,10 -24,24 0,13 11,24 24,24 14,0 24,-11 24,-24l0 0c0,-14 -10,-24 -24,-24z"/>
   <path class="fil2" d="M347 2488c-18,0 -33,-15 -33,-33 0,-19 15,-33 33,-33 19,0 33,14 33,33 0,18 -14,33 -33,33zm0 -48c-8,0 -15,6 -15,15 0,8 7,15 15,15 9,0 15,-7 15,-15 0,-9 -6,-15 -15,-15z"/>
   <path class="fil4" d="M347 2510c-13,0 -24,11 -24,24 0,13 11,24 24,24 14,0 24,-11 24,-24l0 0c0,-13 -10,-24 -24,-24z"/>
   <path class="fil2" d="M347 2567c-18,0 -33,-15 -33,-33 0,-18 15,-33 33,-33 19,0 33,15 33,33 0,18 -14,33 -33,33zm0 -48c-8,0 -15,7 -15,15 0,8 7,15 15,15 9,0 15,-7 15,-15 0,-8 -6,-15 -15,-15z"/>
   <path class="fil4" d="M468 2491c-13,0 -24,10 -24,24 0,13 11,24 24,24 13,0 24,-11 24,-24l0 -1c0,-13 -11,-23 -24,-23z"/>
   <path class="fil2" d="M468 2548c-18,0 -33,-15 -33,-33 0,-19 15,-33 33,-33 18,0 33,14 33,32 0,19 -15,34 -33,34zm0 -48c-8,0 -15,6 -15,15 0,8 7,15 15,15 8,0 15,-7 15,-15 0,-9 -7,-15 -15,-15z"/>
   <path class="fil4" d="M468 2411c-13,0 -24,11 -24,24 0,13 11,24 24,24 13,0 24,-11 24,-24l0 0c0,-13 -11,-24 -24,-24z"/>
   <path class="fil2" d="M468 2468c-18,0 -33,-15 -33,-33 0,-18 15,-33 33,-33 18,0 33,15 33,33 0,18 -15,33 -33,33zm0 -48c-8,0 -15,7 -15,15 0,9 7,15 15,15 8,0 15,-6 15,-15 0,-8 -7,-15 -15,-15z"/>
   <path class="fil4" d="M468 2570c-13,0 -24,11 -24,24 0,13 11,24 24,24 13,0 24,-11 24,-24l0 0c0,-13 -11,-24 -24,-24z"/>
   <path class="fil2" d="M468 2627c-18,0 -33,-15 -33,-33 0,-18 15,-33 33,-33 18,0 33,15 33,33 0,18 -15,33 -33,33zm0 -48c-8,0 -15,7 -15,15 0,8 7,15 15,15 8,0 15,-7 15,-15 0,-8 -7,-15 -15,-15z"/>
   <path class="fil4" d="M468 2649c-13,0 -24,11 -24,24 0,13 11,24 24,24 13,0 24,-11 24,-24l0 0c0,-13 -11,-24 -24,-24z"/>
   <path class="fil2" d="M468 2706c-18,0 -33,-15 -33,-33 0,-18 15,-33 33,-33 18,0 33,15 33,33 0,18 -15,33 -33,33zm0 -48c-8,0 -15,7 -15,15 0,8 7,15 15,15 8,0 15,-7 15,-15 0,-8 -7,-15 -15,-15z"/>
   <path class="fil4" d="M589 2377c-13,0 -24,11 -24,24 0,14 11,24 24,24 13,0 24,-10 24,-24l0 0c0,-13 -11,-24 -24,-24z"/>
   <path class="fil2" d="M589 2434c-18,0 -33,-15 -33,-33 0,-18 15,-33 33,-33 18,0 33,15 33,33 0,18 -15,33 -33,33zm0 -48c-8,0 -15,7 -15,15 0,9 7,15 15,15 8,0 15,-6 15,-15 0,-8 -7,-15 -15,-15z"/>
   <path class="fil4" d="M589 2457c-13,0 -24,10 -24,24 0,13 11,24 24,24 13,0 24,-11 24,-24l0 -1c0,-13 -11,-23 -24,-23z"/>
   <path class="fil2" d="M589 2514c-18,0 -33,-15 -33,-33 0,-19 15,-33 33,-33 18,0 33,14 33,33 0,18 -15,33 -33,33zm0 -48c-8,0 -15,6 -15,15 0,8 7,15 15,15 8,0 15,-7 15,-15 0,-9 -7,-15 -15,-15z"/>
   <path class="fil4" d="M683 2431c-13,0 -24,10 -24,24 0,13 11,24 24,24 14,0 24,-11 24,-24l0 0c0,-14 -10,-24 -24,-24z"/>
   <path class="fil2" d="M683 2488c-18,0 -33,-15 -33,-33 0,-19 15,-33 33,-33 19,0 33,14 33,33 0,18 -14,33 -33,33zm0 -48c-8,0 -15,6 -15,15 0,8 7,15 15,15 9,0 15,-7 15,-15 0,-9 -6,-15 -15,-15z"/>
   <path class="fil4" d="M683 2351c-13,0 -24,11 -24,24 0,14 11,24 24,24 14,0 24,-10 24,-24l0 0c0,-13 -10,-24 -24,-24z"/>
   <path class="fil2" d="M683 2408c-18,0 -33,-15 -33,-33 0,-18 15,-33 33,-33 19,0 33,15 33,33 0,18 -14,33 -33,33zm0 -48c-8,0 -15,7 -15,15 0,9 7,15 15,15 9,0 15,-6 15,-15 0,-8 -6,-15 -15,-15z"/>
   <path class="fil4" d="M683 2510c-13,0 -24,11 -24,24 0,13 11,24 24,24 14,0 24,-11 24,-24l0 0c0,-13 -10,-24 -24,-24z"/>
   <path class="fil2" d="M683 2567c-18,0 -33,-15 -33,-33 0,-18 15,-33 33,-33 19,0 33,15 33,33 0,18 -14,33 -33,33zm0 -48c-8,0 -15,7 -15,15 0,8 7,15 15,15 9,0 15,-7 15,-15 0,-8 -6,-15 -15,-15z"/>
   <polygon class="fil2" points="593,2788 522,2788 522,2390 593,2390 "/>
   <path class="fil2" d="M593 2797l-71 0c-5,0 -9,-4 -9,-9l0 -398c0,-5 4,-9 9,-9l71 0c5,0 9,4 9,9l0 398c0,5 -4,9 -9,9zm-62 -18l53 0 0 -380 -53 0 0 380z"/>
   <path class="fil1" d="M706 2616c0,-36 29,-65 66,-65 36,0 65,29 65,65 0,54 43,97 97,97 53,0 97,-43 97,-97l131 0c0,126 -102,228 -228,228 -126,0 -228,-102 -228,-228z"/>
   <path class="fil2" d="M934 2853c-131,0 -237,-106 -237,-237 0,-41 34,-74 75,-74 41,0 74,33 74,74 0,49 40,88 88,88 48,0 88,-39 88,-88 0,-5 4,-9 9,-9l131 0c5,0 9,4 9,9 0,131 -106,237 -237,237zm105 -228c-4,54 -50,97 -105,97 -58,0 -106,-47 -106,-106 0,-31 -25,-56 -56,-56 -32,0 -57,25 -57,56 0,121 98,219 219,219 118,0 214,-93 219,-210l-114 0z"/>
   <path class="fil5" d="M1097 2616c41,0 73,-33 73,-73 0,-41 -32,-74 -73,-74 -41,0 -74,33 -74,74 0,40 33,73 74,73z"/>
   <path class="fil2" d="M1097 2625c-46,0 -83,-37 -83,-82 0,-46 37,-83 83,-83 45,0 82,37 82,83 0,45 -37,82 -82,82zm0 -147c-36,0 -65,29 -65,65 0,35 29,64 65,64 36,0 64,-29 64,-64 0,-36 -28,-65 -64,-65z"/>
   <path class="fil6" d="M543 2469c-167,0 -302,67 -302,151l0 648 603 0 0 -648c0,-84 -135,-151 -301,-151z"/>
   <path class="fil2" d="M232 3270c0,0 0,-1 0,-2l0 -648c0,-90 136,-160 311,-160 174,0 310,70 310,160l0 648c0,1 0,2 0,2l-621 0zm18 -11l585 0 0 -639c0,-78 -131,-142 -292,-142 -162,0 -293,64 -293,142l0 639z"/>
   <path class="fil7" d="M432 2490c0,29 -24,53 -54,53 -29,0 -54,-24 -54,-53 0,-30 25,-54 54,-54 30,0 54,24 54,54z"/>
   <path class="fil2" d="M378 2552c-34,0 -63,-28 -63,-62 0,-35 29,-63 63,-63 35,0 63,28 63,63 0,34 -28,62 -63,62zm0 -107c-24,0 -45,20 -45,45 0,24 21,44 45,44 25,0 45,-20 45,-44 0,-25 -20,-45 -45,-45z"/>
   <path class="fil7" d="M749 2490c0,29 -24,53 -53,53 -30,0 -54,-24 -54,-53 0,-30 24,-54 54,-54 29,0 53,24 53,54z"/>
   <path class="fil2" d="M696 2552c-35,0 -63,-28 -63,-62 0,-35 28,-63 63,-63 34,0 62,28 62,63 0,34 -28,62 -62,62zm0 -107c-25,0 -45,20 -45,45 0,24 20,44 45,44 24,0 44,-20 44,-44 0,-25 -20,-45 -44,-45z"/>
   <path class="fil5" d="M742 2361c0,110 -89,200 -199,200 -110,0 -200,-90 -200,-200 0,-110 90,-199 200,-199 110,0 199,89 199,199z"/>
   <path class="fil2" d="M543 2570c-115,0 -209,-94 -209,-209 0,-115 94,-208 209,-208 115,0 208,93 208,208 0,115 -93,209 -208,209zm0 -399c-105,0 -191,85 -191,190 0,105 86,191 191,191 105,0 190,-86 190,-191 0,-105 -85,-190 -190,-190z"/>
   <path class="fil1" d="M543 2328c-16,0 -28,13 -28,28l0 57c0,15 12,28 28,28 15,0 28,-13 28,-28l0 -57c0,-15 -13,-28 -28,-28z"/>
   <path class="fil2" d="M543 2450c-21,0 -37,-17 -37,-37l0 -57c0,-20 16,-37 37,-37 5,0 9,4 9,9 0,5 -4,9 -9,9 -11,0 -19,9 -19,19l0 57c0,10 8,19 19,19 10,0 19,-9 19,-19 0,-5 4,-9 9,-9 5,0 9,4 9,9 0,20 -17,37 -37,37z"/>
   <path class="fil2" d="M467 2344c0,7 -6,13 -13,13 -8,0 -14,-6 -14,-13 0,-8 6,-14 14,-14 7,0 13,6 13,14z"/>
   <path class="fil2" d="M636 2344c0,7 -6,13 -14,13 -7,0 -13,-6 -13,-13 0,-8 6,-14 13,-14 8,0 14,6 14,14z"/>
   <polygon class="fil8" points="317,3270 317,3268 460,3268 460,3270 "/>
   <path class="fil2" d="M308 3270l0 -2c0,-4 4,-9 9,-9l143 0c5,0 9,5 9,9l0 2 -161 0z"/>
   <polygon class="fil8" points="633,3270 633,3268 766,3268 766,3270 "/>
   <path class="fil2" d="M624 3270l0 -2c0,-4 4,-9 9,-9l133 0c5,0 9,5 9,9l0 2 -151 0z"/>
   <path class="fil7" d="M432 2596c0,30 -24,54 -54,54 -29,0 -54,-24 -54,-54 0,-29 25,-53 54,-53 30,0 54,24 54,53z"/>
   <path class="fil2" d="M378 2659c-34,0 -63,-28 -63,-63 0,-34 29,-62 63,-62 35,0 63,28 63,62 0,35 -28,63 -63,63zm0 -107c-24,0 -45,20 -45,44 0,25 21,45 45,45 25,0 45,-20 45,-45 0,-24 -20,-44 -45,-44z"/>
   <path class="fil7" d="M749 2596c0,30 -24,54 -53,54 -30,0 -54,-24 -54,-54 0,-29 24,-53 54,-53 29,0 53,24 53,53z"/>
   <path class="fil2" d="M696 2659c-35,0 -63,-28 -63,-63 0,-34 28,-62 63,-62 34,0 62,28 62,62 0,35 -28,63 -62,63zm0 -107c-25,0 -45,20 -45,44 0,25 20,45 45,45 24,0 44,-20 44,-45 0,-24 -20,-44 -44,-44z"/>
   <path class="fil7" d="M432 2704c0,29 -24,53 -54,53 -29,0 -54,-24 -54,-53 0,-30 25,-54 54,-54 30,0 54,24 54,54z"/>
   <path class="fil2" d="M378 2766c-34,0 -63,-28 -63,-62 0,-35 29,-63 63,-63 35,0 63,28 63,63 0,34 -28,62 -63,62zm0 -107c-24,0 -45,20 -45,45 0,24 21,44 45,44 25,0 45,-20 45,-44 0,-25 -20,-45 -45,-45z"/>
   <path class="fil7" d="M749 2704c0,29 -24,53 -53,53 -30,0 -54,-24 -54,-53 0,-30 24,-54 54,-54 29,0 53,24 53,54z"/>
   <path class="fil2" d="M696 2766c-35,0 -63,-28 -63,-62 0,-35 28,-63 63,-63 34,0 62,28 62,63 0,34 -28,62 -62,62zm0 -107c-25,0 -45,20 -45,45 0,24 20,44 45,44 24,0 44,-20 44,-44 0,-25 -20,-45 -44,-45z"/>
   <path class="fil2" d="M543 2748l0 0c-3,0 -6,-2 -8,-4l-153 -250c-2,-4 -1,-9 3,-12 5,-3 10,-1 13,3l145 237 145 -237c2,-4 8,-6 12,-3 4,3 6,8 3,12l-153 250c-1,2 -4,4 -7,4z"/>
   <polygon class="fil7" points="622,2298 467,2298 467,2176 622,2176 "/>
   <path class="fil2" d="M622 2307l-155 0c-4,0 -9,-4 -9,-9l0 -122c0,-5 5,-9 9,-9l155 0c5,0 9,4 9,9l0 122c0,5 -4,9 -9,9zm-146 -18l137 0 0 -104 -137 0 0 104z"/>
   <polygon class="fil9" points="366,2252 729,2252 729,2062 366,2062 "/>
   <path class="fil2" d="M729 2261l-363 0c-5,0 -9,-4 -9,-9l0 -190c0,-5 4,-9 9,-9l363 0c4,0 9,4 9,9l0 190c0,5 -5,9 -9,9zm-354 -18l345 0 0 -172 -345 0 0 172z"/>
   <polygon class="fil7" points="366,2252 729,2252 729,2145 366,2145 "/>
   <path class="fil2" d="M729 2261l-363 0c-5,0 -9,-4 -9,-9l0 -107c0,-5 4,-9 9,-9l363 0c4,0 9,4 9,9l0 107c0,5 -5,9 -9,9zm-354 -18l345 0 0 -89 -345 0 0 89z"/>
   <polygon class="fil9" points="315,2252 787,2252 787,2202 315,2202 "/>
   <path class="fil2" d="M787 2261l-472 0c-5,0 -9,-4 -9,-9l0 -50c0,-5 4,-9 9,-9l472 0c5,0 9,4 9,9l0 50c0,5 -4,9 -9,9zm-463 -18l454 0 0 -32 -454 0 0 32z"/>
   <polygon class="fil10" points="844,2911 241,2911 241,3268 844,3268 "/>
   <path class="fil2" d="M232 3270c0,0 0,-1 0,-2l0 -357c0,-5 4,-9 9,-9l603 0c5,0 9,4 9,9l0 357c0,1 0,2 0,2l-621 0zm18 -11l585 0 0 -339 -585 0 0 339z"/>
   <polygon class="fil9" points="774,2865 568,2865 568,2779 774,2779 "/>
   <path class="fil2" d="M774 2874l-206 0c-5,0 -9,-4 -9,-9l0 -86c0,-5 4,-9 9,-9l206 0c5,0 9,4 9,9l0 86c0,5 -4,9 -9,9zm-197 -18l188 0 0 -68 -188 0 0 68z"/>
   <path class="fil11" d="M545 2522c-42,0 -77,-35 -77,-77 0,-5 4,-9 10,-9 5,0 9,4 9,9 0,32 26,58 58,58 32,0 58,-26 58,-58 0,-5 4,-9 9,-9 5,0 10,4 10,9 0,42 -35,77 -77,77z"/>
   <path class="fil12" d="M435 2398c0,13 -11,24 -24,24 -13,0 -24,-11 -24,-24 0,-13 11,-24 24,-24 13,0 24,11 24,24z"/>
   <path class="fil12" d="M690 2398c0,13 -10,24 -24,24 -13,0 -23,-11 -23,-24 0,-13 10,-24 23,-24 14,0 24,11 24,24z"/>
  </g>
 </g>
</svg>
