<?xml version="1.0" encoding="UTF-8"?>
<!DOCTYPE svg PUBLIC "-//W3C//DTD SVG 1.1//EN" "http://www.w3.org/Graphics/SVG/1.1/DTD/svg11.dtd">
<!-- Creator: CorelDRAW X7 -->
<svg xmlns="http://www.w3.org/2000/svg" xml:space="preserve" width="2250px" height="4000px" version="1.1" style="shape-rendering:geometricPrecision; text-rendering:geometricPrecision; image-rendering:optimizeQuality; fill-rule:evenodd; clip-rule:evenodd"
viewBox="0 0 2254 4007"
 xmlns:xlink="http://www.w3.org/1999/xlink">
 <defs>
  <style type="text/css">
   <![CDATA[
    .fil8 {fill:#006A5E;fill-rule:nonzero}
    .fil7 {fill:#4E3E37;fill-rule:nonzero}
    .fil2 {fill:#541124;fill-rule:nonzero}
    .fil12 {fill:#541224;fill-rule:nonzero}
    .fil4 {fill:#6EBA6D;fill-rule:nonzero}
    .fil0 {fill:#6F6F6E;fill-rule:nonzero}
    .fil11 {fill:#9C9B9B;fill-rule:nonzero}
    .fil9 {fill:#DEA517;fill-rule:nonzero}
    .fil1 {fill:#E2E7C6;fill-rule:nonzero}
    .fil10 {fill:#E8642A;fill-rule:nonzero}
    .fil6 {fill:#E8CAA6;fill-rule:nonzero}
    .fil5 {fill:#F9F0E8;fill-rule:nonzero}
    .fil3 {fill:white;fill-rule:nonzero}
   ]]>
  </style>
 </defs>
 <g id="Capa_x0020_1">
  <metadata id="CorelCorpID_0Corel-Layer"/>
  <polygon class="fil0" points="0,4007 2254,4007 2254,0 0,0 "/>
  <g id="_962958725584">
   <path class="fil1" d="M304 2595c36,0 65,30 65,66 0,36 -29,65 -65,65 -54,0 -97,43 -97,96 0,53 43,96 97,96l0 131c-125,0 -227,-102 -227,-227 0,-125 102,-227 227,-227z"/>
   <path class="fil2" d="M68 2822c0,-130 106,-236 236,-236 41,0 74,34 74,75 0,40 -33,74 -74,74 -49,0 -88,39 -88,87 0,48 39,87 88,87 5,0 9,4 9,9l0 131c0,5 -4,9 -9,9 -130,0 -236,-106 -236,-236zm227 105c-54,-5 -97,-50 -97,-105 0,-58 48,-105 106,-105 31,0 56,-25 56,-56 0,-31 -25,-57 -56,-57 -120,0 -218,98 -218,218 0,117 93,213 209,217l0 -112z"/>
   <path class="fil3" d="M775 2984c0,41 -32,74 -73,74 -40,0 -73,-33 -73,-74 0,-40 33,-73 73,-73 41,0 73,33 73,73z"/>
   <path class="fil2" d="M784 2984c0,46 -37,83 -82,83 -45,0 -82,-37 -82,-83 0,-45 37,-82 82,-82 45,0 82,37 82,82zm-146 0c0,36 29,65 64,65 35,0 64,-29 64,-65 0,-35 -29,-64 -64,-64 -35,0 -64,29 -64,64z"/>
   <path class="fil4" d="M350 2432c-13,0 -24,11 -24,24 0,14 11,24 24,24 13,0 24,-10 24,-24l0 0c0,-13 -11,-24 -24,-24z"/>
   <path class="fil2" d="M350 2489c-18,0 -33,-15 -33,-33 0,-18 15,-33 33,-33 18,0 33,15 33,33 0,18 -15,33 -33,33zm0 -48c-8,0 -15,7 -15,15 0,9 7,15 15,15 8,0 15,-6 15,-15 0,-8 -7,-15 -15,-15z"/>
   <path class="fil4" d="M350 2511c-13,0 -24,11 -24,24 0,13 11,24 24,24 13,0 24,-11 24,-24l0 0c0,-13 -11,-24 -24,-24z"/>
   <path class="fil2" d="M350 2568c-18,0 -33,-15 -33,-33 0,-18 15,-33 33,-33 18,0 33,15 33,33 0,18 -15,33 -33,33zm0 -48c-8,0 -15,7 -15,15 0,8 7,15 15,15 8,0 15,-7 15,-15 0,-8 -7,-15 -15,-15z"/>
   <path class="fil4" d="M470 2492c-13,0 -24,11 -24,24 0,13 11,24 24,24 13,0 24,-11 24,-24l0 0c0,-13 -11,-24 -24,-24z"/>
   <path class="fil2" d="M470 2549c-18,0 -33,-15 -33,-33 0,-18 15,-33 33,-33 18,0 33,15 33,33 0,18 -15,33 -33,33zm0 -48c-8,0 -15,7 -15,15 0,8 7,15 15,15 8,0 15,-7 15,-15 0,-8 -7,-15 -15,-15z"/>
   <path class="fil4" d="M470 2413c-13,0 -24,11 -24,24 0,13 11,24 24,24 13,0 24,-11 24,-24l0 0c0,-13 -11,-24 -24,-24z"/>
   <path class="fil2" d="M470 2470c-18,0 -33,-15 -33,-33 0,-18 15,-33 33,-33 18,0 33,15 33,33 0,18 -15,33 -33,33zm0 -48c-8,0 -15,7 -15,15 0,8 7,15 15,15 8,0 15,-7 15,-15 0,-8 -7,-15 -15,-15z"/>
   <path class="fil4" d="M470 2571c-13,0 -24,11 -24,24 0,13 11,24 24,24 13,0 24,-11 24,-24l0 0c0,-13 -11,-24 -24,-24z"/>
   <path class="fil2" d="M470 2628c-18,0 -33,-15 -33,-33 0,-18 15,-33 33,-33 18,0 33,15 33,33 0,18 -15,33 -33,33zm0 -48c-8,0 -15,7 -15,15 0,8 7,15 15,15 8,0 15,-7 15,-15 0,-8 -7,-15 -15,-15z"/>
   <path class="fil4" d="M470 2650c-13,0 -24,11 -24,24 0,13 11,24 24,24 13,0 24,-11 24,-24l0 0c0,-13 -11,-24 -24,-24z"/>
   <path class="fil2" d="M470 2707c-18,0 -33,-15 -33,-33 0,-18 15,-33 33,-33 18,0 33,15 33,33 0,18 -15,33 -33,33zm0 -48c-8,0 -15,6 -15,15 0,8 7,15 15,15 8,0 15,-7 15,-15 0,-9 -7,-15 -15,-15z"/>
   <path class="fil4" d="M590 2379c-13,0 -24,11 -24,24 0,13 11,24 24,24 13,0 24,-11 24,-24l0 0c0,-13 -11,-24 -24,-24z"/>
   <path class="fil2" d="M590 2436c-18,0 -33,-15 -33,-33 0,-18 15,-33 33,-33 18,0 33,15 33,33 0,18 -15,33 -33,33zm0 -48c-8,0 -15,7 -15,15 0,9 7,15 15,15 8,0 15,-6 15,-15 0,-8 -7,-15 -15,-15z"/>
   <path class="fil4" d="M590 2458c-13,0 -24,11 -24,24 0,13 11,24 24,24 13,0 24,-11 24,-24l0 0c0,-13 -11,-24 -24,-24z"/>
   <path class="fil2" d="M590 2515c-18,0 -33,-15 -33,-33 0,-18 15,-33 33,-33 18,0 33,15 33,33 0,18 -15,33 -33,33zm0 -48c-8,0 -15,7 -15,15 0,8 7,15 15,15 8,0 15,-7 15,-15 0,-8 -7,-15 -15,-15z"/>
   <path class="fil4" d="M684 2432c-13,0 -24,11 -24,24 0,14 11,24 24,24 13,0 24,-10 24,-24l0 0c0,-13 -11,-24 -24,-24z"/>
   <path class="fil2" d="M684 2489c-18,0 -33,-15 -33,-33 0,-18 15,-33 33,-33 18,0 33,15 33,33 0,18 -15,33 -33,33zm0 -48c-8,0 -15,7 -15,15 0,9 7,15 15,15 8,0 15,-6 15,-15 0,-8 -7,-15 -15,-15z"/>
   <path class="fil4" d="M684 2354c-13,0 -24,10 -24,23 0,14 11,24 24,24 13,0 24,-10 24,-24l0 0c0,-13 -11,-23 -24,-23z"/>
   <path class="fil2" d="M684 2410c-18,0 -33,-14 -33,-33 0,-18 15,-32 33,-32 18,0 33,14 33,32 0,19 -15,33 -33,33zm0 -48c-8,0 -15,7 -15,15 0,9 7,15 15,15 8,0 15,-6 15,-15 0,-8 -7,-15 -15,-15z"/>
   <path class="fil4" d="M684 2511c-13,0 -24,11 -24,24 0,13 11,24 24,24 13,0 24,-11 24,-24l0 0c0,-13 -11,-24 -24,-24z"/>
   <path class="fil2" d="M684 2568c-18,0 -33,-15 -33,-33 0,-18 15,-33 33,-33 18,0 33,15 33,33 0,18 -15,33 -33,33zm0 -48c-8,0 -15,7 -15,15 0,8 7,15 15,15 8,0 15,-7 15,-15 0,-8 -7,-15 -15,-15z"/>
   <polygon class="fil2" points="594,2788 523,2788 523,2392 594,2392 "/>
   <path class="fil2" d="M594 2797l-71 0c-5,0 -9,-4 -9,-9l0 -396c0,-5 4,-9 9,-9l71 0c5,0 9,4 9,9l0 396c0,5 -4,9 -9,9zm-62 -18l53 0 0 -378 -53 0 0 378z"/>
   <path class="fil1" d="M707 2617c0,-36 29,-65 65,-65 36,0 65,29 65,65 0,53 43,96 96,96 53,0 97,-43 97,-96l130 0c0,125 -102,227 -227,227 -125,0 -226,-102 -226,-227z"/>
   <path class="fil2" d="M933 2853c-130,0 -235,-106 -235,-236 0,-41 33,-74 74,-74 41,0 74,33 74,74 0,48 39,87 87,87 48,0 88,-39 88,-87 0,-5 4,-9 9,-9l130 0c5,0 9,4 9,9 0,130 -106,236 -236,236zm105 -227c-4,54 -50,96 -105,96 -58,0 -105,-47 -105,-105 0,-31 -25,-56 -56,-56 -31,0 -56,25 -56,56 0,120 97,218 217,218 117,0 213,-93 218,-209l-113 0z"/>
   <path class="fil5" d="M1095 2617c41,0 74,-33 74,-73 0,-40 -33,-73 -74,-73 -40,0 -73,33 -73,73 0,40 33,73 73,73z"/>
   <path class="fil2" d="M1095 2626c-45,0 -82,-37 -82,-82 0,-45 37,-82 82,-82 46,0 82,37 82,82 0,45 -36,82 -82,82zm0 -146c-35,0 -64,29 -64,64 0,35 29,64 64,64 36,0 65,-29 65,-64 0,-35 -29,-64 -65,-64z"/>
   <path class="fil6" d="M544 2471c-166,0 -300,67 -300,150l0 645 600 0 0 -645c0,-83 -134,-150 -300,-150z"/>
   <path class="fil2" d="M235 3268c0,-1 0,-1 0,-2l0 -645c0,-90 136,-159 309,-159 173,0 309,69 309,159l0 645c0,1 0,1 0,2l-618 0zm18 -11l582 0 0 -636c0,-78 -130,-142 -291,-142 -160,0 -291,64 -291,142l0 636z"/>
   <path class="fil7" d="M434 2491c0,30 -24,54 -54,54 -29,0 -53,-24 -53,-54 0,-29 24,-53 53,-53 30,0 54,24 54,53z"/>
   <path class="fil2" d="M380 2554c-34,0 -62,-28 -62,-63 0,-34 28,-62 62,-62 35,0 63,28 63,62 0,35 -28,63 -63,63zm0 -107c-24,0 -44,20 -44,44 0,25 20,45 44,45 25,0 45,-20 45,-45 0,-24 -20,-44 -45,-44z"/>
   <path class="fil7" d="M750 2491c0,30 -24,54 -54,54 -29,0 -53,-24 -53,-54 0,-29 24,-53 53,-53 30,0 54,24 54,53z"/>
   <path class="fil2" d="M696 2554c-34,0 -62,-28 -62,-63 0,-34 28,-62 62,-62 34,0 62,28 62,62 0,35 -28,63 -62,63zm0 -107c-24,0 -44,20 -44,44 0,25 20,45 44,45 25,0 45,-20 45,-45 0,-24 -20,-44 -45,-44z"/>
   <path class="fil5" d="M743 2363c0,110 -89,199 -199,199 -109,0 -198,-89 -198,-199 0,-109 89,-198 198,-198 110,0 199,89 199,198z"/>
   <path class="fil2" d="M544 2571c-114,0 -207,-93 -207,-208 0,-114 93,-207 207,-207 115,0 208,93 208,207 0,115 -93,208 -208,208zm0 -397c-104,0 -189,85 -189,189 0,105 85,190 189,190 105,0 190,-85 190,-190 0,-104 -85,-189 -190,-189z"/>
   <path class="fil1" d="M544 2330c-15,0 -28,13 -28,28l0 57c0,15 13,28 28,28 16,0 28,-13 28,-28l0 -57c0,-15 -12,-28 -28,-28z"/>
   <path class="fil2" d="M544 2452c-20,0 -37,-17 -37,-37l0 -57c0,-20 17,-37 37,-37 5,0 9,4 9,9 0,5 -4,9 -9,9 -10,0 -19,9 -19,19l0 57c0,10 9,19 19,19 11,0 19,-9 19,-19 0,-5 4,-9 9,-9 5,0 9,4 9,9 0,20 -16,37 -37,37z"/>
   <path class="fil2" d="M469 2346c0,8 -6,14 -13,14 -8,0 -14,-6 -14,-14 0,-7 6,-13 14,-13 7,0 13,6 13,13z"/>
   <path class="fil2" d="M637 2346c0,8 -6,14 -14,14 -7,0 -13,-6 -13,-14 0,-7 6,-13 13,-13 8,0 14,6 14,13z"/>
   <polygon class="fil8" points="319,3268 319,3266 462,3266 462,3268 "/>
   <path class="fil2" d="M310 3268l0 -2c0,-5 4,-9 9,-9l143 0c5,0 9,4 9,9l0 2 -161 0z"/>
   <polygon class="fil8" points="634,3268 634,3266 766,3266 766,3268 "/>
   <path class="fil2" d="M625 3268l0 -2c0,-5 4,-9 9,-9l132 0c5,0 9,4 9,9l0 2 -150 0z"/>
   <path class="fil7" d="M434 2597c0,30 -24,54 -54,54 -29,0 -53,-24 -53,-54 0,-29 24,-53 53,-53 30,0 54,24 54,53z"/>
   <path class="fil2" d="M380 2660c-34,0 -62,-28 -62,-63 0,-34 28,-62 62,-62 35,0 63,28 63,62 0,35 -28,63 -63,63zm0 -107c-24,0 -44,20 -44,44 0,25 20,45 44,45 25,0 45,-20 45,-45 0,-24 -20,-44 -45,-44z"/>
   <path class="fil7" d="M750 2597c0,30 -24,54 -54,54 -29,0 -53,-24 -53,-54 0,-29 24,-53 53,-53 30,0 54,24 54,53z"/>
   <path class="fil2" d="M696 2660c-34,0 -62,-28 -62,-63 0,-34 28,-62 62,-62 34,0 62,28 62,62 0,35 -28,63 -62,63zm0 -107c-24,0 -44,20 -44,44 0,25 20,45 44,45 25,0 45,-20 45,-45 0,-24 -20,-44 -45,-44z"/>
   <path class="fil7" d="M434 2704c0,30 -24,54 -54,54 -29,0 -53,-24 -53,-54 0,-29 24,-53 53,-53 30,0 54,24 54,53z"/>
   <path class="fil2" d="M380 2766c-34,0 -62,-27 -62,-62 0,-34 28,-62 62,-62 35,0 63,28 63,62 0,35 -28,62 -63,62zm0 -106c-24,0 -44,20 -44,44 0,25 20,45 44,45 25,0 45,-20 45,-45 0,-24 -20,-44 -45,-44z"/>
   <path class="fil7" d="M750 2704c0,30 -24,54 -54,54 -29,0 -53,-24 -53,-54 0,-29 24,-53 53,-53 30,0 54,24 54,53z"/>
   <path class="fil2" d="M696 2766c-34,0 -62,-27 -62,-62 0,-34 28,-62 62,-62 34,0 62,28 62,62 0,35 -28,62 -62,62zm0 -106c-24,0 -44,20 -44,44 0,25 20,45 44,45 25,0 45,-20 45,-45 0,-24 -20,-44 -45,-44z"/>
   <path class="fil2" d="M544 2748l0 0c-3,0 -6,-1 -8,-4l-151 -248c-3,-4 -2,-10 3,-12 4,-3 9,-2 12,3l144 235 144 -235c3,-5 9,-6 13,-3 4,2 5,8 3,12l-152 248c-2,3 -5,4 -8,4z"/>
   <polygon class="fil7" points="623,2300 469,2300 469,2180 623,2180 "/>
   <path class="fil2" d="M623 2309l-154 0c-5,0 -9,-4 -9,-9l0 -120c0,-5 4,-9 9,-9l154 0c5,0 9,4 9,9l0 120c0,5 -4,9 -9,9zm-145 -18l136 0 0 -102 -136 0 0 102z"/>
   <polygon class="fil9" points="368,2255 729,2255 729,2066 368,2066 "/>
   <path class="fil2" d="M729 2264l-361 0c-5,0 -9,-4 -9,-9l0 -189c0,-5 4,-9 9,-9l361 0c5,0 9,4 9,9l0 189c0,5 -4,9 -9,9zm-352 -18l343 0 0 -171 -343 0 0 171z"/>
   <polygon class="fil7" points="368,2255 729,2255 729,2148 368,2148 "/>
   <path class="fil2" d="M729 2264l-361 0c-5,0 -9,-4 -9,-9l0 -107c0,-5 4,-9 9,-9l361 0c5,0 9,4 9,9l0 107c0,5 -4,9 -9,9zm-352 -18l343 0 0 -89 -343 0 0 89z"/>
   <polygon class="fil9" points="318,2255 787,2255 787,2205 318,2205 "/>
   <path class="fil2" d="M787 2264l-470 0c-4,0 -8,-4 -8,-9l0 -50c0,-5 4,-9 8,-9l470 0c5,0 9,4 9,9l0 50c0,5 -4,9 -9,9zm-461 -18l452 0 0 -32 -452 0 0 32z"/>
   <polygon class="fil10" points="844,2910 244,2910 244,3266 844,3266 "/>
   <path class="fil2" d="M235 3268c0,-1 0,-1 0,-2l0 -356c0,-5 4,-9 9,-9l600 0c5,0 9,4 9,9l0 356c0,1 0,1 0,2l-618 0zm18 -11l582 0 0 -338 -582 0 0 338z"/>
   <polygon class="fil9" points="774,2865 570,2865 570,2779 774,2779 "/>
   <path class="fil2" d="M774 2874l-204 0c-5,0 -9,-4 -9,-9l0 -86c0,-5 4,-9 9,-9l204 0c5,0 9,4 9,9l0 86c0,5 -4,9 -9,9zm-195 -18l186 0 0 -68 -186 0 0 68z"/>
   <path class="fil11" d="M437 2400c0,13 -11,24 -24,24 -13,0 -23,-11 -23,-24 0,-13 10,-24 23,-24 13,0 24,11 24,24z"/>
   <path class="fil11" d="M691 2400c0,13 -11,24 -24,24 -13,0 -23,-11 -23,-24 0,-13 10,-24 23,-24 13,0 24,11 24,24z"/>
   <path class="fil12" d="M626 2476c0,10 -8,18 -18,18 -10,0 -18,-8 -18,-18 0,-10 8,-18 18,-18 10,0 18,8 18,18z"/>
  </g>
 </g>
</svg>
