<?xml version="1.0" encoding="UTF-8"?>
<!DOCTYPE svg PUBLIC "-//W3C//DTD SVG 1.1//EN" "http://www.w3.org/Graphics/SVG/1.1/DTD/svg11.dtd">
<!-- Creator: CorelDRAW X7 -->
<svg xmlns="http://www.w3.org/2000/svg" xml:space="preserve" width="1039px" height="383px" version="1.1" style="shape-rendering:geometricPrecision; text-rendering:geometricPrecision; image-rendering:optimizeQuality; fill-rule:evenodd; clip-rule:evenodd"
viewBox="0 0 1139 419"
 xmlns:xlink="http://www.w3.org/1999/xlink">
 <defs>
  <style type="text/css">
   <![CDATA[
    .str0 {stroke:white;stroke-width:41.1015}
    .fil1 {fill:none;fill-rule:nonzero}
    .fil2 {fill:white}
    .fil0 {fill:#61C5C3;fill-rule:nonzero}
   ]]>
  </style>
 </defs>
 <g id="Capa_x0020_1">
  <metadata id="CorelCorpID_0Corel-Layer"/>
  <g id="_962935907248">
   <path class="fil0" d="M1119 59c0,-21 -18,-38 -39,-38l-1021 0c-21,0 -38,17 -38,38l0 301c0,22 17,39 38,39l1021 0c21,0 39,-17 39,-39l0 -301z"/>
   <path class="fil1 str0" d="M1119 59c0,-21 -18,-38 -39,-38l-1021 0c-21,0 -38,17 -38,38l0 301c0,22 17,39 38,39l1021 0c21,0 39,-17 39,-39l0 -301z"/>
   <path class="fil2" d="M392 234c-3,0 -6,-1 -7,-1l-7 24c-3,1 -6,1 -11,1 -5,0 -10,0 -13,-2l-1 -1 36 -110c5,-1 10,-1 15,-1 7,0 12,0 16,1l36 110c-4,3 -9,4 -14,4 -5,0 -9,-1 -12,-3 -2,-2 -4,-6 -5,-12l-4 -11c-1,0 -3,1 -6,1l-23 0zm-1 -21l7 0 12 0c0,0 1,0 3,0 1,0 2,0 3,0l-3 -10c-3,-10 -6,-21 -9,-34l-1 0c-1,4 -4,15 -8,31l-4 13zm136 -38c1,3 1,6 1,9 0,3 0,6 -1,9l-19 0 0 37c0,6 2,8 7,8l9 0c1,4 2,8 2,11 0,3 0,6 0,7 -9,1 -16,2 -23,2 -14,0 -21,-8 -21,-23l0 -42 -12 0c-1,-3 -2,-6 -2,-9 0,-3 1,-6 2,-9l12 0 0 -10c0,-5 1,-9 4,-11 2,-3 5,-4 10,-4l10 0 2 1 0 24 19 0zm21 12c1,-2 2,-5 3,-8 2,-2 4,-4 5,-5 10,0 17,5 21,15 4,-10 11,-15 21,-15 3,0 6,0 11,1 0,3 -1,7 -2,12 -1,5 -3,9 -5,12 -2,-1 -4,-1 -8,-2 -6,0 -10,3 -14,9l0 51c-3,1 -8,1 -13,1 -4,0 -9,0 -12,-1l0 -53c0,-8 -3,-14 -7,-17zm151 58c0,3 -1,5 -3,8 -1,2 -3,4 -5,5 -7,0 -13,-3 -17,-8 -8,6 -15,10 -24,10 -4,0 -8,-1 -11,-2 -3,-2 -6,-4 -8,-6 -2,-2 -4,-5 -5,-8 -1,-3 -2,-6 -2,-9 0,-5 1,-9 3,-13 2,-3 4,-6 7,-9 3,-2 6,-4 10,-5 4,-1 9,-2 13,-2 3,0 5,0 7,0 2,0 3,0 5,0l0 -3c0,-7 -4,-10 -11,-10 -5,0 -13,1 -24,5 -3,-4 -6,-10 -6,-18 2,-1 5,-2 8,-3 4,-1 7,-1 10,-2 4,-1 7,-1 10,-2 4,0 7,0 9,0 4,0 8,0 11,2 4,1 7,2 10,5 3,2 5,5 6,8 2,4 3,8 3,13l0 34c0,5 1,8 4,10zm-50 -12c0,5 3,8 9,8 3,0 7,-2 11,-5l0 -13c-2,0 -4,-1 -6,-1 -1,0 -2,0 -3,0 -7,0 -11,4 -11,11zm-4 -75l26 -28c3,1 6,3 9,6 3,3 5,6 6,9l-30 23c-2,-1 -5,-2 -7,-4 -2,-2 -3,-4 -4,-6zm75 94c0,-3 1,-6 2,-10 1,-3 3,-6 5,-8 9,5 16,7 23,7 3,0 5,-1 7,-2 1,-1 2,-2 2,-4 0,-3 -2,-6 -7,-7l-9 -4c-14,-5 -21,-13 -21,-24 0,-9 3,-15 9,-20 5,-5 13,-8 23,-8 5,0 10,1 16,2 6,2 11,3 14,5 1,3 0,7 -2,10 -1,4 -3,7 -5,8 -9,-4 -17,-6 -23,-6 -2,0 -4,1 -5,2 -1,1 -2,2 -2,3 0,3 2,5 7,7l10 3c14,5 22,14 22,27 0,8 -3,15 -9,19 -6,5 -15,8 -26,8 -11,0 -22,-3 -31,-8z"/>
  </g>
 </g>
</svg>
