<?xml version="1.0" encoding="UTF-8"?>
<!DOCTYPE svg PUBLIC "-//W3C//DTD SVG 1.1//EN" "http://www.w3.org/Graphics/SVG/1.1/DTD/svg11.dtd">
<!-- Creator: CorelDRAW X7 -->
<svg xmlns="http://www.w3.org/2000/svg" xml:space="preserve" width="1045px" height="384px" version="1.1" style="shape-rendering:geometricPrecision; text-rendering:geometricPrecision; image-rendering:optimizeQuality; fill-rule:evenodd; clip-rule:evenodd"
viewBox="0 0 1145 421"
 xmlns:xlink="http://www.w3.org/1999/xlink">
 <defs>
  <style type="text/css">
   <![CDATA[
    .str0 {stroke:white;stroke-width:41.1061}
    .fil1 {fill:none;fill-rule:nonzero}
    .fil2 {fill:white}
    .fil0 {fill:#61C5C3;fill-rule:nonzero}
   ]]>
  </style>
 </defs>
 <g id="Capa_x0020_1">
  <metadata id="CorelCorpID_0Corel-Layer"/>
  <g id="_962934325264">
   <path class="fil0" d="M1125 59c0,-21 -18,-38 -39,-38l-1027 0c-21,0 -38,17 -38,38l0 303c0,22 17,39 38,39l1027 0c21,0 39,-17 39,-39l0 -303z"/>
   <path class="fil1 str0" d="M1125 59c0,-21 -18,-38 -39,-38l-1027 0c-21,0 -38,17 -38,38l0 303c0,22 17,39 38,39l1027 0c21,0 39,-17 39,-39l0 -303z"/>
   <path class="fil2" d="M183 249c0,-4 1,-8 3,-11 2,-4 4,-7 7,-9 12,7 23,11 34,11 4,0 8,-2 10,-4 2,-2 3,-4 3,-7 0,-6 -3,-10 -10,-13l-20 -8c-8,-3 -13,-7 -17,-12 -5,-5 -7,-11 -7,-19 0,-5 1,-9 3,-14 2,-4 5,-7 9,-10 4,-4 8,-6 13,-8 5,-1 11,-2 17,-2 13,0 25,3 38,9 -1,9 -4,15 -9,20 -12,-5 -22,-8 -30,-8 -5,0 -8,1 -10,3 -2,2 -3,4 -3,7 0,4 3,8 9,10l20 9c9,3 15,8 19,13 4,6 6,12 6,19 0,6 -1,10 -3,15 -1,4 -4,8 -8,11 -4,3 -8,5 -14,7 -5,2 -12,3 -19,3 -15,0 -28,-4 -41,-12zm142 -54l0 63c-2,1 -4,1 -6,1 -3,0 -5,0 -7,0 -2,0 -5,0 -7,0 -2,0 -4,0 -6,-1l0 -54c0,-7 -3,-10 -8,-10l-3 0c0,-2 -1,-5 -1,-9 0,-3 1,-7 1,-9 3,0 6,-1 8,-1 3,0 5,0 7,0l4 0c5,0 10,2 13,5 3,4 5,9 5,15zm-29 -53c3,-1 7,-2 12,-2 5,0 9,1 12,2 2,3 2,7 2,10 0,3 0,7 -2,10 -3,1 -7,2 -12,2 -6,0 -9,-1 -12,-2 -2,-3 -2,-7 -2,-10 0,-3 0,-7 2,-10zm111 39c4,-4 9,-6 16,-7 1,2 3,4 5,6 1,3 2,5 3,8 -3,2 -5,6 -5,12l0 43c0,10 -1,19 -2,26 -2,6 -4,12 -8,16 -3,3 -7,6 -12,8 -5,1 -11,2 -18,2 -11,0 -21,-2 -31,-5 0,-4 1,-7 2,-11 1,-3 3,-6 5,-8 7,3 14,5 22,5 11,0 17,-6 17,-17l0 -5c-6,4 -12,6 -19,6 -10,0 -17,-4 -22,-12 -5,-7 -8,-18 -8,-31 0,-7 1,-13 3,-18 1,-6 4,-10 7,-14 3,-4 6,-7 10,-9 4,-2 8,-3 13,-3 9,0 16,3 22,8zm-6 53l0 -36c-4,-4 -8,-6 -11,-6 -8,0 -12,9 -12,25 0,15 4,22 10,22 5,0 9,-2 13,-5zm56 -4l0 -34c0,-7 -1,-12 -4,-16 5,-4 10,-6 15,-6 6,0 10,2 12,4 2,3 3,7 3,12l0 36c0,3 1,6 2,8 1,2 3,3 7,3 3,0 7,-2 11,-6l0 -55c4,-1 8,-1 13,-1 4,0 9,0 13,1l0 59c0,6 1,10 4,12 0,2 -1,4 -3,7 -1,3 -3,5 -5,6 -9,-1 -15,-4 -19,-12 -9,8 -17,12 -25,12 -8,0 -13,-3 -17,-8 -5,-5 -7,-13 -7,-22zm134 -35l0 63c-2,1 -4,1 -6,1 -2,0 -4,0 -7,0 -2,0 -4,0 -7,0 -2,0 -4,0 -6,-1l0 -54c0,-7 -2,-10 -8,-10l-2 0c-1,-2 -1,-5 -1,-9 0,-3 0,-7 1,-9 3,0 5,-1 8,-1 2,0 5,0 6,0l4 0c6,0 10,2 13,5 4,4 5,9 5,15zm-29 -53c3,-1 8,-2 13,-2 5,0 9,1 12,2 1,3 2,7 2,10 0,3 -1,7 -2,10 -3,1 -8,2 -13,2 -5,0 -9,-1 -12,-2 -1,-3 -2,-7 -2,-10 0,-3 1,-7 2,-10zm126 83l-43 0c0,5 1,9 3,12 3,3 6,4 12,4 2,0 5,0 9,-1 3,-1 7,-2 12,-4 3,4 6,9 7,15 -9,7 -20,10 -33,10 -7,0 -13,-1 -17,-3 -5,-3 -9,-6 -12,-10 -3,-4 -5,-8 -6,-14 -1,-5 -2,-11 -2,-18 0,-6 1,-11 2,-17 2,-5 4,-9 7,-13 3,-4 7,-7 12,-9 5,-3 10,-4 16,-4 6,0 10,1 15,3 4,2 8,4 11,7 2,3 5,7 6,11 2,5 3,9 3,14 0,7 -1,13 -2,17zm-44 -17l22 0 0 -2c0,-4 -1,-8 -3,-10 -1,-3 -4,-4 -8,-4 -3,0 -6,1 -8,3 -1,3 -2,7 -3,13zm145 -4l0 34c0,7 2,12 4,16 -4,4 -9,6 -15,6 -6,0 -10,-2 -12,-4 -2,-3 -3,-7 -3,-12l0 -36c0,-3 0,-6 -1,-8 -1,-2 -3,-3 -6,-3 -2,0 -4,1 -6,2 -2,1 -4,2 -6,4l0 55c-2,1 -4,1 -6,1 -3,0 -5,0 -7,0 -2,0 -5,0 -7,0 -2,0 -4,0 -6,-1l0 -82 1 -1 10 0c7,0 11,3 13,10 8,-7 16,-11 24,-11 7,0 13,3 17,8 4,6 6,13 6,22zm80 -28c1,3 1,6 1,9 0,3 0,6 -1,9l-19 -1 0 39c0,5 2,7 7,7l9 0c2,4 2,8 2,11 0,4 0,6 0,8 -8,1 -16,1 -23,1 -14,0 -21,-7 -21,-23l0 -42 -13 0c0,-3 -1,-6 -1,-9 0,-3 1,-6 1,-9l13 0 0 -10c0,-5 1,-9 4,-12 2,-2 5,-3 10,-3l11 0 1 1 0 24 19 0zm90 49l-43 0c0,5 1,9 4,12 2,3 6,4 11,4 3,0 6,0 9,-1 4,-1 8,-2 12,-4 4,4 6,9 7,15 -9,7 -20,10 -33,10 -7,0 -12,-1 -17,-3 -5,-3 -9,-6 -11,-10 -3,-4 -5,-8 -7,-14 -1,-5 -2,-11 -2,-18 0,-6 1,-11 3,-17 1,-5 3,-9 7,-13 3,-4 6,-7 11,-9 5,-3 10,-4 17,-4 5,0 10,1 14,3 4,2 8,4 11,7 3,3 5,7 7,11 1,5 2,9 2,14 0,7 -1,13 -2,17zm-43 -17l21 0 0 -2c0,-4 -1,-8 -2,-10 -2,-3 -5,-4 -8,-4 -4,0 -7,1 -8,3 -2,3 -3,7 -3,13z"/>
  </g>
 </g>
</svg>
