<?xml version="1.0" encoding="UTF-8"?>
<!DOCTYPE svg PUBLIC "-//W3C//DTD SVG 1.1//EN" "http://www.w3.org/Graphics/SVG/1.1/DTD/svg11.dtd">
<!-- Creator: CorelDRAW X7 -->
<svg xmlns="http://www.w3.org/2000/svg" xml:space="preserve" width="168.402mm" height="182.722mm" version="1.1" style="shape-rendering:geometricPrecision; text-rendering:geometricPrecision; image-rendering:optimizeQuality; fill-rule:evenodd; clip-rule:evenodd"
viewBox="0 0 19384 21032"
 xmlns:xlink="http://www.w3.org/1999/xlink">
 <defs>
  <style type="text/css">
   <![CDATA[
    .fil0 {fill:#FCEA6B;fill-rule:nonzero}
    .fil1 {fill:white;fill-rule:nonzero}
   ]]>
  </style>
 </defs>
 <g id="Capa_x0020_1">
  <metadata id="CorelCorpID_0Corel-Layer"/>
  <path class="fil0" d="M0 10353c0,-5421 4394,-9816 9815,-9816 4666,0 8572,3256 9569,7620l0 4391c-997,4364 -4903,7620 -9569,7620 -5421,0 -9815,-4395 -9815,-9815z"/>
  <path class="fil1" d="M19384 13961c-1557,3398 -4987,5758 -8968,5758 -5446,0 -9860,-4414 -9860,-9859 0,-5446 4414,-9860 9860,-9860 3981,0 7411,2360 8968,5758l0 8203z"/>
  <path class="fil1" d="M7012 18258c0,0 143,1868 -921,2583 -125,84 -187,148 -198,191l555 0c840,-225 2386,-974 2916,-2160l-2352 -614z"/>
 </g>
</svg>
