<?xml version="1.0" encoding="UTF-8"?>
<!DOCTYPE svg PUBLIC "-//W3C//DTD SVG 1.1//EN" "http://www.w3.org/Graphics/SVG/1.1/DTD/svg11.dtd">
<!-- Creator: CorelDRAW X7 -->
<svg xmlns="http://www.w3.org/2000/svg" xml:space="preserve" width="190.5mm" height="338.667mm" version="1.1" style="shape-rendering:geometricPrecision; text-rendering:geometricPrecision; image-rendering:optimizeQuality; fill-rule:evenodd; clip-rule:evenodd"
viewBox="0 0 19050 33867"
 xmlns:xlink="http://www.w3.org/1999/xlink">
 <defs>
  <style type="text/css">
   <![CDATA[
    .fil0 {fill:#75D1B0}
    .fil2 {fill:#541124;fill-rule:nonzero}
    .fil6 {fill:#54BDBE;fill-rule:nonzero}
    .fil9 {fill:#5AAE92;fill-rule:nonzero}
    .fil5 {fill:#6B604E;fill-rule:nonzero}
    .fil3 {fill:#6EBA6D;fill-rule:nonzero}
    .fil1 {fill:#A6B25B;fill-rule:nonzero}
    .fil8 {fill:#B3B2B2;fill-rule:nonzero}
    .fil7 {fill:#C3585C;fill-rule:nonzero}
    .fil13 {fill:#CFAE2D;fill-rule:nonzero}
    .fil12 {fill:#DF1B53;fill-rule:nonzero}
    .fil10 {fill:#F3955E;fill-rule:nonzero}
    .fil11 {fill:#F7F4E6;fill-rule:nonzero}
    .fil4 {fill:#FFFDEE;fill-rule:nonzero}
   ]]>
  </style>
 </defs>
 <g id="Capa_x0020_1">
  <metadata id="CorelCorpID_0Corel-Layer"/>
  <rect class="fil0" width="19050" height="33867"/>
  <g id="_880364108400">
   <path class="fil1" d="M5668 12311c-44,0 -80,-35 -80,-80 0,-2800 703,-4121 733,-4176 21,-39 70,-53 109,-32 38,21 53,70 32,108 -8,13 -714,1346 -714,4100 0,45 -36,80 -80,80z"/>
   <path class="fil2" d="M5668 12346c-63,0 -114,-52 -114,-115 0,-2809 707,-4137 737,-4193 20,-36 59,-59 100,-59 19,0 38,5 55,14 55,30 76,99 46,155 -7,13 -710,1343 -710,4083 0,63 -51,115 -114,115zm723 -4299c-16,0 -32,9 -40,24 -30,55 -729,1369 -729,4160 0,26 21,46 46,46 25,0 46,-20 46,-46 0,-2763 710,-4103 717,-4116 13,-22 4,-50 -18,-62 -7,-4 -14,-6 -22,-6z"/>
   <path class="fil3" d="M8593 5914c0,-217 -157,-393 -350,-393 -113,0 -213,61 -277,154 -26,-5 -53,-8 -80,-8 -230,0 -421,188 -460,434 -9,0 -19,-1 -28,-1 -321,0 -584,279 -608,633 -236,50 -423,252 -479,512 -362,45 -643,390 -643,809 0,449 324,814 723,814 400,0 724,-365 724,-814 0,-1 0,-2 0,-3 219,-90 379,-318 398,-590 282,-61 495,-339 495,-674 0,-29 -2,-56 -5,-84 175,-51 310,-212 343,-413 143,-50 247,-199 247,-376z"/>
   <path class="fil2" d="M6391 8902c-417,0 -757,-380 -757,-848 0,-424 277,-780 649,-839 63,-254 246,-450 475,-510 36,-360 313,-639 640,-639l0 0c52,-253 253,-433 488,-433 21,0 42,2 65,5 73,-97 178,-152 292,-152 212,0 384,192 384,428 0,181 -100,339 -251,401 -38,194 -167,352 -336,412 1,21 2,40 2,60 0,335 -208,626 -497,701 -27,261 -179,486 -396,586 -10,458 -346,828 -758,828zm1007 -2767c-299,0 -551,263 -574,600 -1,15 -12,28 -27,31 -222,47 -399,238 -452,486 -3,15 -15,25 -29,27 -350,43 -614,376 -614,775 0,430 309,780 689,780 380,0 690,-350 690,-780 -1,-14 8,-29 21,-34 211,-88 359,-308 376,-561 1,-16 12,-28 27,-32 272,-58 469,-327 469,-640 0,-26 -2,-52 -5,-80 -2,-17 9,-32 24,-37 164,-47 289,-199 319,-386 2,-12 11,-23 23,-27 132,-45 224,-186 224,-343 0,-198 -142,-359 -316,-359 -98,0 -189,51 -249,140 -8,11 -21,17 -35,14 -26,-5 -50,-8 -73,-8 -210,0 -389,171 -426,406 -3,17 -18,29 -36,28 -9,0 -17,0 -26,0z"/>
   <path class="fil1" d="M5362 12351c45,0 80,-35 80,-80 0,-2800 -341,-2434 -371,-2488 -21,-39 -70,-53 -109,-32 -38,21 -53,69 -32,108 8,13 352,-342 352,2412 0,45 36,80 80,80z"/>
   <path class="fil2" d="M5362 12386c-63,0 -114,-52 -114,-115 0,-956 -41,-1642 -123,-2038 -68,-331 -143,-348 -158,-348 -6,0 -12,2 -17,4 -5,2 -11,5 -19,5 -12,0 -25,-8 -31,-19 -30,-55 -9,-124 46,-154 17,-9 36,-14 55,-14 37,0 73,18 94,49 0,0 1,0 1,0 80,5 165,50 237,346 95,388 144,1118 144,2169 0,63 -52,115 -115,115zm-395 -2570c232,0 350,826 350,2455 0,26 20,46 45,46 26,0 46,-20 46,-46 0,-1046 -47,-1770 -141,-2153 -71,-288 -144,-292 -175,-293 -14,-1 -38,-3 -51,-26 -12,-22 -41,-30 -62,-18 -14,7 -23,21 -24,36 4,0 8,-1 12,-1z"/>
   <path class="fil3" d="M2799 7642c0,-217 157,-394 350,-394 113,0 213,61 277,155 26,-5 53,-8 80,-8 230,0 421,188 460,434 9,0 19,-1 28,-1 321,0 584,279 608,632 236,51 423,253 479,513 362,45 643,390 643,809 0,449 -324,814 -723,814 -400,0 -724,-365 -724,-814 0,-1 0,-2 0,-3 -219,-90 -379,-318 -398,-590 -282,-61 -495,-339 -495,-674 0,-29 2,-57 5,-84 -175,-51 -310,-212 -343,-414 -143,-49 -247,-199 -247,-375z"/>
   <path class="fil2" d="M5001 10630c-412,0 -748,-370 -758,-829 -217,-99 -369,-324 -395,-585 -290,-75 -498,-366 -498,-701 0,-20 1,-40 2,-60 -169,-61 -298,-218 -336,-412 -151,-62 -251,-221 -251,-401 0,-236 172,-428 384,-428 114,0 219,55 293,152 22,-3 43,-5 64,-5 235,0 436,180 488,433l0 0c327,0 604,279 640,639 229,59 412,256 475,509 372,60 649,416 649,840 0,467 -340,848 -757,848zm-1852 -3347c-174,0 -316,161 -316,359 0,156 92,298 224,343 12,4 21,15 23,27 30,187 155,339 318,386 16,5 27,20 25,37 -3,28 -5,54 -5,80 0,313 197,582 469,640 15,3 26,16 27,31 17,254 165,474 376,561 13,6 22,18 22,32 0,1 -1,3 -1,3 0,430 310,779 690,779 380,0 689,-349 689,-779 0,-399 -264,-732 -614,-775 -14,-2 -26,-13 -29,-27 -53,-248 -230,-439 -452,-486 -15,-3 -26,-16 -27,-31 -23,-337 -275,-601 -574,-601 -8,0 -17,1 -26,1 -18,1 -33,-11 -36,-29 -37,-234 -216,-405 -426,-405 -23,0 -47,3 -73,8 -14,2 -27,-3 -35,-15 -60,-88 -151,-139 -249,-139z"/>
   <path class="fil1" d="M6607 12309c-44,0 -79,-36 -79,-80 0,-2755 -707,-4088 -714,-4101 -21,-38 -7,-87 32,-108 39,-21 87,-7 108,32 30,55 733,1376 733,4177 0,44 -35,80 -80,80z"/>
   <path class="fil2" d="M6607 12343c-63,0 -114,-52 -114,-114 0,-2743 -702,-4071 -709,-4084 -30,-56 -10,-125 45,-155 17,-9 36,-14 55,-14 42,0 80,23 100,59 30,56 738,1384 738,4194 0,62 -52,114 -115,114zm-723 -4299c-8,0 -15,2 -22,6 -22,12 -30,40 -18,62 7,13 718,1349 718,4117 0,25 20,45 45,45 26,0 46,-20 46,-45 0,-2793 -699,-4106 -729,-4161 -8,-15 -23,-24 -40,-24z"/>
   <path class="fil3" d="M6216 7458c1,-18 2,-36 2,-54 0,-334 -211,-612 -492,-674 -82,-268 -309,-461 -576,-461 -143,0 -274,55 -378,147 -78,-66 -176,-107 -282,-107 -27,0 -54,4 -80,9 -61,-62 -142,-99 -231,-99 -193,0 -350,176 -350,393 0,161 86,299 210,360 53,225 235,390 451,390 53,0 104,-10 151,-28 89,150 228,258 390,294 9,30 20,58 32,85 -42,103 -65,217 -65,338 0,449 324,814 723,814 400,0 724,-365 724,-814 0,-234 -88,-445 -229,-593z"/>
   <path class="fil2" d="M5721 8899c-418,0 -757,-380 -757,-848 0,-117 21,-231 62,-337 -8,-19 -15,-38 -21,-57 -152,-39 -287,-140 -379,-282 -44,14 -90,22 -136,22 -222,0 -418,-165 -481,-402 -130,-72 -214,-220 -214,-383 0,-236 172,-428 384,-428 88,0 174,35 242,97 24,-4 47,-6 69,-6 101,0 198,34 281,97 111,-90 241,-138 379,-138 269,0 509,187 603,468 291,74 499,366 499,702 0,13 0,26 -1,41 147,161 228,375 228,606 0,468 -340,848 -758,848zm-1080 -1599c12,0 23,6 30,16 84,144 219,246 368,279 12,3 21,12 25,23 9,28 19,55 30,81 4,8 4,18 1,27 -42,102 -63,212 -63,325 0,430 309,780 689,780 380,0 689,-350 689,-780 0,-215 -80,-423 -219,-570 -6,-7 -10,-16 -9,-26 1,-19 2,-36 2,-51 0,-311 -196,-581 -465,-640 -12,-3 -22,-12 -25,-24 -81,-261 -299,-437 -544,-437 -130,0 -253,48 -355,139 -13,11 -32,11 -45,0 -76,-64 -166,-98 -260,-98 -23,0 -47,2 -73,7 -11,2 -23,-1 -31,-9 -58,-58 -131,-89 -207,-89 -174,0 -315,161 -315,359 0,143 74,272 190,329 9,5 16,13 18,23 51,214 223,364 418,364 47,0 93,-9 139,-26 4,-2 8,-2 12,-2z"/>
   <path class="fil1" d="M6779 12435c27,0 50,-22 50,-50 0,-1722 442,-2556 446,-2564 13,-24 4,-54 -20,-68 -24,-13 -54,-4 -68,20 -19,35 -458,861 -458,2612 0,28 22,50 50,50z"/>
   <path class="fil2" d="M6779 12470c-47,0 -84,-38 -84,-85 0,-1760 443,-2593 462,-2628 15,-27 43,-44 74,-44 14,0 28,4 40,10 41,22 56,74 34,114 -4,9 -442,841 -442,2548 0,47 -38,85 -84,85zm452 -2689c-4,0 -10,3 -14,9 -18,34 -454,852 -454,2595 0,9 7,16 16,16 8,0 16,-7 16,-16 0,-1731 446,-2572 450,-2580 4,-8 1,-17 -6,-22 -3,-1 -5,-2 -8,-2z"/>
   <path class="fil3" d="M7024 9402c-1,-11 -2,-23 -2,-34 0,-209 133,-382 308,-421 52,-168 193,-289 360,-289 90,0 172,35 237,93 49,-42 110,-67 176,-67 17,0 34,2 50,5 38,-39 89,-62 145,-62 120,0 218,110 218,246 0,100 -54,187 -131,225 -33,140 -147,244 -282,244 -33,0 -65,-6 -95,-18 -55,94 -142,162 -244,185 -5,18 -12,35 -19,52 26,65 40,136 40,212 0,281 -202,509 -452,509 -250,0 -452,-228 -452,-509 0,-147 55,-278 143,-371z"/>
   <path class="fil2" d="M7333 10316c-268,0 -487,-244 -487,-543 0,-146 51,-281 143,-384 -1,-7 -1,-14 -1,-21 0,-213 131,-399 315,-450 62,-177 216,-294 387,-294 86,0 168,28 237,83 53,-38 113,-58 176,-58 13,0 25,1 39,3 44,-38 99,-59 156,-59 139,0 252,125 252,280 0,104 -52,200 -135,248 -43,151 -169,255 -312,255 -27,0 -54,-3 -80,-11 -57,85 -140,147 -232,172 -3,8 -6,17 -9,25 25,67 38,138 38,211 0,299 -219,543 -487,543zm357 -1624c-147,0 -279,107 -328,265 -3,12 -13,21 -25,23 -162,36 -280,199 -280,388 0,10 0,21 1,31 0,10 -3,19 -10,26 -84,90 -133,216 -133,348 0,262 187,475 418,475 231,0 418,-213 418,-475 0,-69 -13,-136 -38,-199 -4,-8 -4,-18 0,-27 7,-15 14,-32 19,-49 3,-11 13,-20 25,-23 90,-20 171,-81 222,-168 9,-14 26,-21 42,-15 27,11 54,16 82,16 116,0 219,-90 249,-218 2,-10 9,-18 18,-23 68,-33 112,-110 112,-194 0,-117 -83,-212 -184,-212 -45,0 -87,19 -121,52 -8,8 -20,12 -31,9 -15,-3 -30,-4 -43,-4 -56,0 -109,20 -154,59 -13,11 -32,10 -45,-1 -62,-55 -136,-84 -214,-84z"/>
   <path class="fil1" d="M6052 12311c-44,0 -80,-35 -80,-80 0,-2800 703,-4121 733,-4176 22,-39 70,-53 109,-32 39,21 53,70 32,108 -7,13 -714,1346 -714,4100 0,45 -36,80 -80,80z"/>
   <path class="fil2" d="M6052 12346c-63,0 -114,-52 -114,-115 0,-2809 707,-4137 737,-4193 20,-36 59,-59 101,-59 19,0 38,5 54,14 55,30 76,99 46,155 -7,13 -710,1344 -710,4083 0,63 -51,115 -114,115zm724 -4299c-17,0 -33,9 -41,24 -29,55 -729,1369 -729,4160 0,26 21,46 46,46 25,0 46,-20 46,-46 0,-2761 711,-4103 718,-4116 12,-22 4,-50 -18,-62 -7,-4 -15,-6 -22,-6z"/>
   <path class="fil3" d="M9327 7328c-57,0 -110,16 -157,42 -86,-107 -209,-175 -348,-175 -110,0 -211,43 -291,115 -108,-109 -250,-175 -406,-175 -166,0 -316,74 -426,195 -89,-57 -192,-90 -301,-90 -299,0 -547,241 -600,560 -7,-1 -15,-1 -22,-1 -400,0 -724,364 -724,814 0,449 324,814 724,814 399,0 723,-365 723,-814 0,-3 0,-7 0,-10 125,-23 237,-90 324,-185 89,57 192,90 302,90 211,0 398,-122 507,-306 58,29 122,46 190,46 139,0 262,-68 348,-175 47,26 100,42 157,42 193,0 349,-176 349,-393 0,-218 -156,-394 -349,-394z"/>
   <path class="fil2" d="M6776 9461c-418,0 -758,-381 -758,-848 0,-466 337,-845 752,-848 66,-326 326,-559 628,-559 103,0 204,28 295,80 119,-120 271,-185 432,-185 149,0 293,57 408,163 85,-68 184,-103 289,-103 134,0 263,60 357,166 47,-22 96,-33 148,-33 211,0 383,192 383,428 0,235 -172,427 -383,427 -52,0 -101,-11 -148,-33 -94,106 -223,166 -357,166 -61,0 -120,-12 -177,-36 -121,186 -314,296 -520,296 -103,0 -205,-28 -296,-81 -84,85 -185,144 -296,170 -9,459 -345,830 -757,830zm0 -1628c-380,0 -690,350 -690,780 0,430 310,779 690,779 380,0 689,-349 689,-779l0 -10c-1,-16 11,-30 27,-33 116,-22 222,-82 306,-175 11,-13 30,-15 44,-6 86,55 184,84 283,84 192,0 370,-108 478,-288 9,-16 29,-21 44,-13 56,28 115,42 175,42 122,0 239,-59 321,-163 11,-13 29,-16 44,-8 44,25 91,37 140,37 173,0 315,-161 315,-358 0,-198 -142,-359 -315,-359 -49,0 -96,12 -140,37 -15,8 -33,5 -44,-8 -82,-104 -199,-163 -321,-163 -98,0 -190,37 -268,106 -13,12 -34,12 -47,-1 -105,-107 -241,-165 -382,-165 -150,0 -293,65 -401,184 -11,12 -29,15 -43,6 -87,-56 -184,-85 -283,-85 -277,0 -515,224 -566,531 -3,17 -18,30 -35,29l-7 0c-5,-1 -10,-1 -14,-1z"/>
   <path class="fil1" d="M6297 12294c-44,0 -80,-36 -80,-80 0,-2358 -602,-3490 -609,-3501 -21,-39 -6,-88 32,-109 39,-21 88,-7 109,32 26,47 629,1180 629,3578 0,44 -36,80 -81,80z"/>
   <path class="fil2" d="M6297 12328c-63,0 -114,-51 -114,-114 0,-2342 -599,-3474 -605,-3485 -30,-55 -9,-125 46,-155 17,-9 36,-14 55,-14 41,0 80,23 100,60 26,47 633,1187 633,3594 0,63 -52,114 -115,114zm-618 -3700c-8,0 -15,2 -22,6 -22,12 -31,40 -19,62 7,11 614,1153 614,3518 0,25 20,46 45,46 26,0 46,-21 46,-46 0,-2390 -599,-3515 -624,-3562 -8,-14 -24,-24 -40,-24z"/>
   <path class="fil3" d="M5679 8423c-7,0 -13,0 -20,0 -45,-272 -257,-478 -512,-478 -94,0 -182,28 -258,76 -94,-103 -223,-166 -364,-166 -134,0 -256,56 -348,149 -69,-61 -155,-98 -249,-98 -118,0 -224,58 -298,150 -40,-23 -85,-36 -133,-36 -165,0 -299,151 -299,336 0,186 134,337 299,337 48,0 93,-13 133,-36 74,92 180,150 298,150 58,0 113,-14 163,-39 93,157 253,261 434,261 93,0 181,-28 257,-77 75,82 171,139 278,159 0,2 0,5 0,8 0,384 277,696 619,696 341,0 619,-312 619,-696 0,-385 -278,-696 -619,-696z"/>
   <path class="fil2" d="M5679 9849c-355,0 -644,-317 -653,-711 -93,-23 -178,-71 -249,-142 -78,44 -165,67 -252,67 -178,0 -343,-94 -447,-252 -49,20 -99,30 -150,30 -115,0 -225,-51 -306,-141 -40,18 -82,27 -125,27 -184,0 -333,-166 -333,-371 0,-204 149,-370 333,-370 43,0 85,9 125,27 81,-90 191,-141 306,-141 90,0 174,30 247,86 99,-89 222,-138 350,-138 137,0 268,56 370,158 77,-44 164,-68 252,-68 259,0 482,200 541,479 356,5 644,331 644,730 0,403 -293,730 -653,730zm-897 -931c10,0 19,4 26,11 71,79 161,130 258,148 17,3 28,18 28,34l0 8c0,365 262,662 585,662 322,0 584,-297 584,-662 0,-365 -262,-662 -584,-662 -5,0 -9,0 -13,0l-5 1c-18,1 -32,-12 -35,-29 -44,-261 -245,-450 -479,-450 -84,0 -167,25 -240,71 -14,9 -32,7 -43,-6 -92,-100 -212,-155 -339,-155 -120,0 -235,49 -324,139 -13,13 -33,14 -47,2 -65,-59 -143,-90 -226,-90 -103,0 -201,50 -271,137 -10,14 -29,17 -43,9 -37,-21 -77,-32 -117,-32 -146,0 -265,136 -265,302 0,167 119,303 265,303 40,0 80,-11 117,-32 14,-8 33,-5 43,9 70,87 168,137 271,137 51,0 100,-12 147,-36 16,-8 36,-2 45,13 91,153 242,245 405,245 83,0 166,-25 239,-72 6,-3 12,-5 18,-5z"/>
   <path class="fil1" d="M7252 12171c-30,0 -53,-24 -53,-53 0,-1571 -402,-2326 -406,-2333 -14,-26 -5,-58 21,-73 26,-14 58,-4 72,22 17,31 419,786 419,2384 0,29 -24,53 -53,53z"/>
   <path class="fil2" d="M7252 12205c-48,0 -88,-39 -88,-87 0,-1555 -397,-2309 -401,-2317 -23,-42 -8,-95 35,-118 12,-7 27,-11 41,-11 32,0 62,17 77,45 18,32 423,794 423,2401 0,48 -39,87 -87,87zm-413 -2465c-3,0 -6,1 -9,3 -9,5 -12,16 -7,25 4,8 410,771 410,2350 0,10 8,19 19,19 10,0 19,-9 19,-19 0,-1589 -398,-2337 -415,-2368 -3,-6 -10,-10 -17,-10z"/>
   <path class="fil3" d="M6840 9592c-5,0 -9,0 -13,0 -30,-181 -172,-319 -342,-319 -63,0 -121,19 -172,51 -62,-68 -148,-111 -242,-111 -89,0 -171,38 -232,100 -46,-41 -103,-65 -166,-65 -79,0 -149,38 -198,99 -27,-15 -57,-24 -89,-24 -110,0 -200,101 -200,225 0,123 90,224 200,224 32,0 62,-9 89,-24 49,61 119,100 198,100 39,0 75,-10 108,-26 63,104 169,174 290,174 62,0 121,-19 171,-52 50,55 114,93 185,106 0,2 0,4 0,6 0,256 185,463 413,463 227,0 412,-207 412,-463 0,-257 -185,-464 -412,-464z"/>
   <path class="fil2" d="M6840 10554c-240,0 -436,-212 -447,-477 -58,-15 -111,-46 -156,-90 -52,28 -109,43 -166,43 -119,0 -230,-61 -303,-165 -30,11 -62,17 -95,17 -77,0 -151,-33 -207,-92 -26,11 -53,16 -80,16 -129,0 -234,-116 -234,-258 0,-143 105,-259 234,-259 27,0 54,6 80,16 56,-59 130,-92 207,-92 58,0 116,19 164,55 67,-58 149,-89 234,-89 92,0 179,36 248,102 52,-27 108,-42 166,-42 175,0 327,132 370,319 239,9 431,229 431,498 0,274 -200,498 -446,498zm-598 -644c10,0 19,4 26,11 46,51 103,84 166,95 16,4 28,18 28,35l0 3c-1,239 169,431 378,431 208,0 378,-192 378,-429 0,-237 -170,-430 -378,-430 -3,0 -6,0 -8,0l-4 0c-1,0 -1,0 -1,0 -17,0 -31,-12 -34,-28 -28,-169 -157,-291 -308,-291 -54,0 -107,16 -153,46 -14,9 -33,7 -44,-6 -59,-64 -136,-100 -217,-100 -77,0 -151,32 -208,90 -13,13 -33,13 -47,1 -41,-37 -91,-56 -143,-56 -65,0 -127,31 -171,87 -11,13 -29,16 -44,8 -23,-13 -47,-19 -72,-19 -91,0 -165,85 -165,190 0,104 74,189 165,189 25,0 49,-6 72,-19 15,-8 33,-5 44,8 44,56 106,87 171,87 32,0 63,-7 93,-22 16,-8 36,-2 45,13 58,99 155,157 260,157 53,0 106,-15 153,-45 6,-4 12,-6 18,-6z"/>
   <path class="fil1" d="M4694 12171c-29,0 -53,-24 -53,-53 0,-1571 -402,-2326 -406,-2333 -14,-26 -4,-58 21,-73 26,-14 59,-4 73,22 17,31 419,786 419,2384 0,29 -24,53 -54,53z"/>
   <path class="fil2" d="M4694 12205c-48,0 -87,-39 -87,-87 0,-1555 -398,-2309 -402,-2317 -23,-42 -7,-95 35,-118 13,-7 27,-11 42,-11 32,0 61,17 77,45 17,32 423,794 423,2401 0,48 -39,87 -88,87zm-412 -2465c-3,0 -6,1 -9,3 -9,5 -13,16 -8,25 4,8 410,771 410,2350 0,10 9,19 19,19 11,0 19,-9 19,-19 0,-1589 -397,-2337 -414,-2368 -4,-6 -10,-10 -17,-10z"/>
   <path class="fil3" d="M4282 9592c-4,0 -9,0 -13,0 -30,-181 -171,-319 -342,-319 -62,0 -121,19 -171,51 -63,-68 -149,-111 -243,-111 -89,0 -170,38 -232,100 -45,-41 -103,-65 -165,-65 -79,0 -150,38 -199,99 -27,-15 -57,-24 -89,-24 -110,0 -199,101 -199,225 0,123 89,224 199,224 32,0 62,-9 89,-24 49,61 120,100 199,100 38,0 75,-10 108,-26 62,104 169,174 289,174 63,0 121,-19 172,-52 49,55 113,93 185,106 0,2 0,4 0,6 0,256 184,463 412,463 228,0 412,-207 412,-463 0,-257 -184,-464 -412,-464z"/>
   <path class="fil2" d="M4282 10554c-240,0 -436,-212 -446,-477 -58,-15 -111,-46 -157,-90 -51,28 -108,43 -166,43 -119,0 -230,-61 -302,-165 -31,11 -63,17 -95,17 -78,0 -152,-33 -207,-92 -26,11 -53,16 -81,16 -129,0 -233,-116 -233,-258 0,-143 104,-259 233,-259 28,0 55,6 81,16 55,-59 129,-92 207,-92 58,0 115,19 164,55 66,-58 148,-89 233,-89 92,0 179,36 249,102 51,-27 108,-42 165,-42 176,0 327,132 370,319 239,9 432,229 432,498 0,274 -201,498 -447,498zm-597 -644c9,0 18,4 25,11 46,51 104,84 166,95 16,4 28,18 28,35l0 3c0,239 170,431 378,431 209,0 378,-192 378,-429 0,-237 -169,-430 -378,-430 -3,0 -5,0 -8,0l-4 0c0,0 0,0 -1,0 -16,0 -31,-12 -33,-28 -28,-169 -158,-291 -309,-291 -53,0 -106,16 -153,46 -14,9 -32,7 -44,-6 -58,-64 -135,-100 -217,-100 -76,0 -150,32 -207,90 -13,13 -34,13 -48,1 -41,-37 -90,-56 -142,-56 -65,0 -128,31 -172,87 -10,13 -29,16 -44,8 -22,-13 -47,-19 -72,-19 -91,0 -165,85 -165,190 0,104 74,189 165,189 25,0 50,-6 73,-19 14,-8 33,-5 43,8 44,56 107,87 172,87 32,0 63,-7 93,-22 16,-8 35,-2 44,13 59,99 156,157 260,157 54,0 107,-15 153,-45 6,-4 12,-6 19,-6z"/>
   <path class="fil1" d="M7419 12171c29,0 53,-24 53,-53 0,-1571 402,-2326 406,-2333 14,-26 5,-58 -21,-73 -26,-14 -59,-4 -73,22 -17,31 -418,786 -418,2384 0,29 23,53 53,53z"/>
   <path class="fil2" d="M7419 12205c-48,0 -88,-39 -88,-87 0,-1607 406,-2369 423,-2401 16,-28 45,-45 77,-45 15,0 29,4 42,10 42,24 58,77 35,119 -4,8 -402,762 -402,2317 0,48 -39,87 -87,87zm412 -2465c-7,0 -13,4 -17,10 -16,31 -414,779 -414,2368 0,10 8,19 19,19 10,0 19,-9 19,-19 0,-1579 406,-2342 410,-2350 5,-9 2,-20 -8,-25 -3,-2 -6,-3 -9,-3z"/>
   <path class="fil3" d="M7831 9592c4,0 9,0 13,0 30,-181 172,-319 342,-319 62,0 121,19 171,51 63,-68 149,-111 243,-111 89,0 170,38 232,100 45,-41 103,-65 166,-65 78,0 149,38 198,99 27,-15 57,-24 89,-24 110,0 199,101 199,225 0,123 -89,224 -199,224 -32,0 -62,-9 -89,-24 -49,61 -120,100 -198,100 -39,0 -76,-10 -109,-26 -62,104 -168,174 -289,174 -62,0 -121,-19 -172,-52 -49,55 -113,93 -185,106 0,2 0,4 0,6 0,256 -184,463 -412,463 -228,0 -412,-207 -412,-463 0,-257 184,-464 412,-464z"/>
   <path class="fil2" d="M7831 10554c-246,0 -446,-224 -446,-498 0,-269 192,-489 431,-498 43,-187 194,-319 370,-319 57,0 114,15 166,42 69,-66 156,-102 248,-102 85,0 167,31 233,89 49,-36 106,-55 165,-55 77,0 151,33 207,92 25,-10 52,-16 80,-16 129,0 233,116 233,259 0,142 -104,258 -233,258 -28,0 -55,-5 -80,-16 -56,59 -130,92 -207,92 -33,0 -65,-6 -96,-17 -72,104 -183,165 -302,165 -57,0 -114,-15 -166,-43 -45,44 -99,75 -157,90 -10,265 -206,477 -446,477zm0 -928c-208,0 -378,193 -378,430 0,237 170,429 378,429 209,0 378,-192 378,-429l0 -5c0,-17 12,-31 28,-35 63,-11 120,-44 166,-95 11,-12 30,-14 44,-5 46,30 99,45 153,45 104,0 201,-58 260,-157 9,-15 29,-21 45,-13 29,15 61,22 93,22 65,0 127,-31 171,-87 11,-13 29,-16 44,-8 23,13 47,19 72,19 91,0 165,-85 165,-189 0,-105 -74,-190 -165,-190 -25,0 -49,6 -72,19 -15,8 -33,5 -44,-8 -44,-56 -106,-87 -171,-87 -53,0 -102,19 -143,56 -14,12 -35,12 -47,-1 -58,-58 -131,-90 -208,-90 -81,0 -158,36 -217,100 -12,13 -30,15 -44,6 -47,-30 -100,-46 -153,-46 -151,0 -280,122 -308,291 -3,16 -17,28 -34,28 0,0 -1,0 -1,0l-4 0c-3,0 -5,0 -8,0z"/>
   <polygon class="fil4" points="15731,8893 8597,8893 8597,12491 15731,12491 "/>
   <path class="fil2" d="M15731 12526l-7134 0c-19,0 -35,-16 -35,-35l0 -3598c0,-19 16,-34 35,-34l7134 0c19,0 34,15 34,34l0 3598c0,19 -15,35 -34,35zm-7100 -69l7066 0 0 -3530 -7066 0 0 3530z"/>
   <polygon class="fil5" points="14960,7252 9286,7252 7934,8893 16393,8893 "/>
   <path class="fil2" d="M16393 8927l-8459 0c-13,0 -25,-7 -30,-19 -6,-12 -4,-27 4,-37l1352 -1641c6,-8 16,-12 26,-12l5674 0c10,0 19,4 26,11l1433 1641c9,11 11,25 5,37 -5,12 -17,20 -31,20zm-8386 -68l8311 0 -1374 -1573 -5642 0 -1295 1573z"/>
   <polygon class="fil6" points="13131,11195 12196,11195 12196,9871 13131,9871 "/>
   <path class="fil2" d="M13131 11230l-935 0c-19,0 -34,-16 -34,-35l0 -1324c0,-19 15,-35 34,-35l935 0c19,0 34,16 34,35l0 1324c0,19 -15,35 -34,35zm-901 -69l867 0 0 -1256 -867 0 0 1256z"/>
   <polygon class="fil6" points="14853,11195 13918,11195 13918,9871 14853,9871 "/>
   <path class="fil2" d="M14853 11230l-935 0c-19,0 -34,-16 -34,-35l0 -1324c0,-19 15,-35 34,-35l935 0c19,0 34,16 34,35l0 1324c0,19 -15,35 -34,35zm-901 -69l867 0 0 -1256 -867 0 0 1256z"/>
   <polygon class="fil7" points="15731,12492 8597,12492 8597,11184 15731,11184 "/>
   <path class="fil2" d="M15731 12526l-7134 0c-19,0 -35,-16 -35,-35l0 -1307c0,-19 16,-35 35,-35l7134 0c19,0 34,16 34,35l0 1307c0,19 -15,35 -34,35zm-7100 -69l7066 0 0 -1239 -7066 0 0 1239z"/>
   <polygon class="fil8" points="11284,12492 10102,12492 10102,9871 11284,9871 "/>
   <path class="fil2" d="M11284 12526l-1182 0c-19,0 -34,-16 -34,-35l0 -2620c0,-19 15,-35 34,-35l1182 0c19,0 34,16 34,35l0 2620c0,19 -15,35 -34,35zm-1148 -69l1113 0 0 -2552 -1113 0 0 2552z"/>
   <path class="fil9" d="M8820 11705l-250 0c-90,0 -169,68 -215,171 -43,-120 -129,-202 -227,-202l-251 0c-98,0 -184,82 -227,202 -46,-103 -125,-171 -215,-171l-250 0c-90,0 -169,68 -215,171 -42,-120 -128,-202 -227,-202l-250 0c-99,0 -185,82 -228,202 -45,-103 -125,-171 -214,-171l-251 0c-90,0 -169,68 -215,171 -42,-120 -128,-202 -227,-202l-250 0c-99,0 -185,82 -227,202 -46,-103 -125,-171 -215,-171l-251 0c-89,0 -169,68 -214,171 -43,-120 -129,-202 -228,-202l-250 0c-141,0 -256,168 -256,373l0 45c0,205 115,373 256,373l250 0c90,0 169,-68 215,-171 43,120 129,203 227,203l251 0c98,0 184,-83 227,-203 46,103 125,171 215,171l250 0c90,0 169,-68 215,-171 43,120 129,203 227,203l251 0c98,0 184,-83 227,-203 46,103 125,171 215,171l250 0c90,0 169,-68 215,-171 42,120 128,203 227,203l250 0c99,0 185,-83 228,-203 45,103 125,171 214,171l251 0c90,0 169,-68 214,-171 43,120 129,203 228,203l250 0c141,0 256,-169 256,-374l0 -44c0,-206 -115,-374 -256,-374z"/>
   <path class="fil2" d="M8820 12531l-250 0c-92,0 -176,-60 -231,-160 -54,81 -130,128 -211,128l-251 0c-81,0 -157,-46 -211,-128 -54,100 -139,160 -231,160l-250 0c-92,0 -176,-60 -231,-160 -54,81 -129,128 -211,128l-250 0c-82,0 -158,-46 -212,-128 -54,100 -138,160 -230,160l-251 0c-92,0 -176,-60 -230,-160 -54,82 -130,128 -212,128l-250 0c-82,0 -157,-46 -212,-128 -54,100 -138,160 -230,160l-251 0c-91,0 -176,-60 -230,-160 -54,82 -130,128 -212,128l-250 0c-160,0 -290,-183 -290,-407l0 -45c0,-225 130,-408 290,-408l250 0c92,0 177,60 231,160 54,-81 130,-128 211,-128l251 0c81,0 157,47 211,128 55,-100 139,-160 231,-160l250 0c92,0 176,60 231,160 54,-81 130,-128 211,-128l251 0c81,0 157,47 211,128 54,-100 139,-160 231,-160l250 0c92,0 176,60 231,160 54,-81 130,-128 211,-128l250 0c82,0 158,47 212,128 54,-100 138,-160 230,-160l251 0c92,0 176,60 230,160 55,-81 130,-128 212,-128l250 0c160,0 290,183 290,408l0 44c0,225 -130,408 -290,408zm-478 -271l2 0c14,0 26,9 31,22 39,112 114,180 195,180l250 0c120,0 222,-155 222,-339l0 -44c0,-184 -102,-340 -222,-340l-250 0c-73,0 -142,57 -184,151 -5,13 -18,21 -32,20 -14,0 -27,-9 -31,-22 -40,-111 -115,-180 -195,-180l-251 0c-80,0 -155,69 -195,180 -4,13 -17,22 -31,22 -13,1 -26,-7 -32,-20 -42,-94 -111,-151 -184,-151l-250 0c-73,0 -141,57 -184,151 -5,13 -18,21 -32,20 -14,0 -26,-9 -31,-22 -40,-111 -114,-180 -195,-180l-250 0c-81,0 -156,69 -195,180 -5,13 -17,22 -31,22 -14,1 -27,-7 -33,-20 -42,-94 -111,-151 -183,-151l-251 0c-73,0 -141,57 -183,151 -6,13 -19,21 -33,20 -14,0 -26,-9 -31,-22 -39,-111 -114,-180 -195,-180l-250 0c-81,0 -156,69 -195,180 -5,13 -17,22 -31,22 -14,1 -27,-7 -33,-20 -42,-94 -110,-151 -183,-151l-251 0c-72,0 -141,57 -183,151 -6,13 -19,21 -33,20 -14,0 -26,-9 -30,-22 -40,-111 -115,-180 -196,-180l-250 0c-120,0 -222,155 -222,339l0 45c0,184 102,339 222,339l250 0c73,0 142,-56 184,-151 6,-13 19,-21 32,-20 14,0 27,9 31,22 40,112 115,180 195,180l251 0c81,0 155,-68 195,-180 5,-13 17,-22 31,-22 14,-1 27,7 32,20 42,95 111,151 184,151l250 0c73,0 142,-56 184,-151 5,-13 18,-21 32,-20 14,0 27,9 31,22 40,112 114,180 195,180l251 0c80,0 155,-68 195,-180 4,-13 16,-22 31,-22 14,-1 26,7 32,20 42,95 111,151 184,151l250 0c73,0 141,-56 183,-151 6,-13 19,-21 33,-20 14,0 26,9 31,22 39,112 114,180 195,180l250 0c81,0 156,-68 195,-180 5,-13 17,-22 31,-22 14,-1 27,7 33,20 42,95 111,151 183,151l251 0c73,0 141,-56 183,-151 6,-12 18,-20 31,-20z"/>
   <polygon class="fil3" points="13131,10972 12196,10972 12196,11184 13131,11184 "/>
   <path class="fil2" d="M13131 11218l-935 0c-19,0 -34,-16 -34,-34l0 -212c0,-19 15,-34 34,-34l935 0c19,0 34,15 34,34l0 212c0,18 -15,34 -34,34zm-901 -69l867 0 0 -143 -867 0 0 143z"/>
   <polygon class="fil3" points="14853,10972 13918,10972 13918,11184 14853,11184 "/>
   <path class="fil2" d="M14853 11218l-935 0c-19,0 -34,-16 -34,-34l0 -212c0,-19 15,-34 34,-34l935 0c19,0 34,15 34,34l0 212c0,18 -15,34 -34,34zm-901 -69l867 0 0 -143 -867 0 0 143z"/>
   <polygon class="fil10" points="11591,12492 11852,12492 11852,8891 11591,8891 "/>
   <path class="fil2" d="M11852 12526l-261 0c-19,0 -34,-16 -34,-35l0 -3600c0,-19 15,-34 34,-34l261 0c19,0 34,15 34,34l0 3600c0,19 -15,35 -34,35zm-227 -69l193 0 0 -3531 -193 0 0 3531z"/>
   <polygon class="fil10" points="9279,12492 9541,12492 9541,8891 9279,8891 "/>
   <path class="fil2" d="M9541 12526l-262 0c-19,0 -34,-16 -34,-35l0 -3600c0,-19 15,-34 34,-34l262 0c18,0 34,15 34,34l0 3600c0,19 -16,35 -34,35zm-228 -69l193 0 0 -3531 -193 0 0 3531z"/>
   <polygon class="fil10" points="13393,12492 13654,12492 13654,8891 13393,8891 "/>
   <path class="fil2" d="M13654 12526l-261 0c-19,0 -35,-16 -35,-35l0 -3600c0,-19 16,-34 35,-34l261 0c19,0 34,15 34,34l0 3600c0,19 -15,35 -34,35zm-227 -69l193 0 0 -3531 -193 0 0 3531z"/>
   <path class="fil11" d="M12302 4796l-2153 0 634 634 0 2850c0,351 284,634 634,634l1519 0 0 -3484c0,-350 -284,-634 -634,-634z"/>
   <path class="fil2" d="M12936 8949l-1519 0c-368,0 -668,-300 -668,-669l0 -2836 -624 -624c-10,-10 -13,-25 -7,-37 5,-13 18,-22 31,-22l2153 0c368,0 668,300 668,669l0 3484c0,19 -15,35 -34,35zm-2704 -4119l576 575c6,7 10,16 10,25l0 2850c0,331 269,600 599,600l1485 0 0 -3450c0,-331 -270,-600 -600,-600l-2070 0z"/>
   <path class="fil11" d="M10783 5430c0,350 -283,634 -634,634 -350,0 -634,-284 -634,-634 0,-350 284,-634 634,-634 351,0 634,284 634,634z"/>
   <path class="fil2" d="M10149 6098c-368,0 -668,-300 -668,-668 0,-369 300,-668 668,-668 369,0 669,299 669,668 0,368 -300,668 -669,668zm0 -1268c-330,0 -599,269 -599,600 0,330 269,600 599,600 331,0 600,-270 600,-600 0,-331 -269,-600 -600,-600z"/>
   <path class="fil11" d="M13488 7649l0 -3 -2071 0c351,0 634,284 634,634 0,351 -283,634 -634,634l2071 0 0 -2c328,-24 587,-297 587,-632 0,-334 -259,-607 -587,-631z"/>
   <path class="fil2" d="M13488 8949l-2071 0c-19,0 -34,-16 -34,-35 0,-18 15,-34 34,-34 331,0 600,-269 600,-600 0,-330 -269,-599 -600,-599 -19,0 -34,-16 -34,-35 0,-18 15,-34 34,-34l2071 0c6,0 11,2 15,4 341,32 606,321 606,664 0,344 -265,633 -606,665 -4,2 -9,4 -15,4zm-1776 -69l1763 0c4,-1 7,-2 11,-2 311,-23 554,-286 554,-598 0,-312 -243,-574 -554,-597 -4,0 -7,-1 -11,-2l-1763 0c221,109 374,337 374,599 0,263 -153,491 -374,600z"/>
   <path class="fil2" d="M11077 5498l0 18 0 0c8,0 14,0 19,0l58 0c0,6 -1,11 -1,14 -2,13 -11,19 -26,19l-66 0c-8,0 -13,-2 -17,-6 -4,-4 -7,-10 -7,-17l0 -147 2 -2 108 0c1,5 2,10 2,16 0,6 -1,12 -4,18l-68 0 0 18 0 18c5,-1 10,-1 17,-1l39 0c1,5 2,10 2,16 0,6 -1,12 -2,17l-56 0 0 19z"/>
   <path class="fil2" d="M11216 5534c1,-6 3,-11 5,-17 3,-5 7,-10 11,-13 18,11 35,16 51,16 7,0 12,-2 15,-5 3,-3 5,-7 5,-12 0,-7 -5,-14 -16,-18l-29 -13c-12,-5 -21,-11 -27,-18 -6,-8 -9,-17 -9,-28 0,-8 1,-15 5,-21 3,-6 7,-12 13,-17 5,-4 12,-8 19,-11 8,-2 17,-3 26,-3 19,0 38,4 57,14 -1,13 -6,23 -14,30 -17,-8 -32,-12 -45,-12 -7,0 -12,1 -15,4 -3,3 -5,7 -5,10 0,7 5,12 15,16l30 13c13,5 22,12 28,21 7,8 10,18 10,29 0,7 -2,15 -5,21 -2,7 -7,12 -12,17 -6,5 -13,9 -21,11 -8,3 -18,4 -29,4 -22,0 -43,-6 -63,-18z"/>
   <path class="fil2" d="M11511 5445l0 -3c0,-24 -9,-37 -28,-37 -10,0 -18,5 -22,15 -5,9 -7,24 -7,42 0,19 2,33 8,42 6,9 15,13 26,13 6,0 12,-1 19,-4 7,-3 15,-7 23,-13 5,3 9,7 12,12 4,5 6,9 7,14 -4,3 -9,7 -14,10 -5,3 -10,6 -16,9 -6,2 -12,4 -19,5 -6,2 -13,2 -19,2 -13,0 -24,-2 -33,-7 -9,-5 -16,-12 -21,-20 -6,-8 -10,-17 -12,-28 -2,-11 -4,-22 -4,-33 0,-15 2,-29 6,-40 4,-11 9,-21 15,-28 7,-8 14,-13 23,-17 9,-4 18,-6 28,-6 10,0 19,2 27,4 8,3 15,7 21,11 6,5 10,11 13,17 3,6 5,13 5,20 0,15 -8,23 -23,23 -4,0 -9,-1 -15,-3z"/>
   <path class="fil2" d="M11747 5430c0,6 -1,11 -2,16 -2,5 -4,9 -7,13 -3,4 -6,8 -10,10 -4,3 -7,6 -11,7 8,3 15,11 19,23l7 21c3,9 7,15 13,19 -3,3 -6,6 -11,8 -5,3 -11,4 -17,4 -6,0 -11,-2 -14,-5 -3,-4 -6,-10 -9,-18l-9 -27c-2,-5 -5,-8 -8,-11 -3,-3 -7,-4 -14,-4l-10 0 0 63c-5,1 -12,1 -20,1 -8,0 -14,0 -20,-1l0 -170 2 -2c15,-1 27,-1 37,-1 10,0 18,0 23,0 9,0 18,1 25,3 8,2 14,6 19,10 6,5 10,11 13,17 3,7 4,15 4,24zm-83 -24l0 49c8,0 14,0 19,0 6,-1 10,-2 13,-3 4,-2 6,-5 8,-8 1,-3 2,-8 2,-14 0,-16 -8,-24 -23,-24l-11 0c-3,0 -6,0 -8,0z"/>
   <path class="fil2" d="M11829 5549l0 -172c5,-1 12,-1 20,-1 8,0 15,0 20,1l0 172c-5,1 -12,1 -20,1 -8,0 -15,0 -20,-1z"/>
   <path class="fil2" d="M12023 5411l0 18 0 120c-5,1 -12,1 -20,1 -8,0 -14,0 -20,-1l0 -138 -16 0 -26 0c-1,-5 -1,-11 -1,-17 0,-6 0,-12 1,-17l124 0c2,5 2,10 2,16 0,6 -1,11 -5,14 -3,3 -8,4 -16,4l-7 0 -16 0 0 0z"/>
   <path class="fil2" d="M12269 5377l0 108c0,22 -6,38 -17,50 -12,12 -29,17 -50,17 -22,0 -39,-5 -51,-17 -11,-12 -17,-28 -17,-50l0 -108 2 -1 14 0c16,0 24,8 24,25l0 85c0,12 2,20 6,26 5,6 12,8 22,8 10,0 17,-2 21,-8 4,-6 6,-14 6,-26l0 -109c5,-1 12,-1 20,-1 8,0 15,0 20,1z"/>
   <path class="fil2" d="M12478 5430c0,6 -1,11 -2,16 -2,5 -4,9 -7,13 -3,4 -6,8 -10,10 -4,3 -8,6 -12,7 9,3 16,11 20,23l7 21c3,9 7,15 13,19 -3,3 -6,6 -11,8 -6,3 -11,4 -17,4 -6,0 -11,-2 -14,-5 -3,-4 -6,-10 -9,-18l-9 -27c-2,-5 -5,-8 -8,-11 -3,-3 -7,-4 -14,-4l-10 0 0 63c-5,1 -12,1 -20,1 -8,0 -15,0 -20,-1l0 -170 2 -2c14,-1 27,-1 37,-1 10,0 17,0 23,0 9,0 18,1 25,3 8,2 14,6 19,10 6,5 10,11 13,17 3,7 4,15 4,24zm-83 -24l0 49c8,0 14,0 19,0 6,-1 10,-2 13,-3 4,-2 6,-5 8,-8 1,-3 2,-8 2,-14 0,-16 -8,-24 -23,-24l-11 0c-3,0 -6,0 -8,0z"/>
   <path class="fil2" d="M12601 5513c-4,0 -8,0 -10,-1l-11 37c-4,1 -9,1 -17,1 -8,0 -14,-1 -19,-2l-1 -2 55 -169c6,-1 14,-1 23,-1 10,0 17,0 23,2l55 168c-6,3 -13,5 -20,5 -9,0 -15,-2 -19,-5 -3,-3 -6,-8 -9,-17l-4 -17c-3,1 -6,1 -10,1l-36 0zm-1 -32l10 0 19 0c1,0 2,0 4,0 2,0 4,0 5,0l-4 -15c-5,-14 -9,-32 -14,-52l-2 0c-1,7 -5,23 -12,48l-6 19z"/>
   <path class="fil2" d="M11291 5810l-20 0 0 54c-5,1 -12,1 -20,1 -8,0 -15,0 -20,-1l0 -170 2 -2c15,0 27,-1 36,-1 10,0 17,0 22,0 9,0 18,1 26,4 7,2 14,6 19,11 5,5 9,11 12,19 3,7 5,16 5,25 0,10 -2,19 -5,26 -3,8 -7,14 -12,19 -6,5 -12,9 -20,11 -7,3 -16,4 -25,4zm-20 -88l0 58c5,0 9,0 11,0 3,0 5,0 6,0 4,0 8,-1 11,-3 3,-1 6,-4 8,-6 1,-3 3,-6 4,-9 0,-4 1,-7 1,-11 0,-4 -1,-8 -1,-11 -1,-4 -3,-7 -4,-9 -2,-3 -4,-5 -7,-7 -3,-1 -6,-2 -10,-2l-11 0c-3,0 -5,0 -8,0z"/>
   <path class="fil2" d="M11562 5693l0 108c0,21 -6,38 -17,49 -12,12 -29,18 -50,18 -22,0 -39,-6 -51,-18 -11,-11 -17,-28 -17,-49l0 -108 1 -2 15 0c16,0 24,8 24,25l0 85c0,12 2,21 6,26 5,6 12,9 22,9 10,0 17,-3 21,-9 4,-5 6,-14 6,-26l0 -108c5,-1 12,-2 20,-2 8,0 15,1 20,2zm-99 -30l56 -35c3,3 7,7 10,13 3,6 5,11 5,17l-60 23c-3,-1 -5,-4 -7,-7 -2,-4 -4,-8 -4,-11z"/>
   <path class="fil2" d="M11650 5692c13,0 25,-1 35,-1 9,0 17,0 23,0 18,0 32,4 43,11 10,8 16,19 16,35 0,7 -3,14 -7,20 -4,7 -9,11 -16,14 4,1 8,3 12,6 4,3 7,7 10,11 2,4 5,8 6,13 2,4 2,9 2,14 0,17 -5,30 -16,38 -11,8 -26,12 -46,12 -7,0 -15,0 -25,0 -10,0 -23,0 -37,-1l-2 -1 0 -169 2 -2zm38 27l0 41 18 0c8,0 13,-2 16,-6 4,-4 5,-9 5,-15 0,-5 -1,-10 -5,-14 -3,-3 -8,-5 -16,-5l-10 0c-3,0 -6,0 -8,-1zm21 69l-21 0 0 49c4,0 9,0 15,0 5,0 10,0 15,-1 4,-1 8,-3 11,-7 4,-4 5,-10 5,-16 0,-7 -2,-13 -6,-17 -4,-5 -11,-8 -19,-8z"/>
   <path class="fil2" d="M11916 5830l43 0c0,7 0,12 -1,17 -1,5 -4,9 -8,12 -4,4 -10,6 -18,6l-56 0c-8,0 -13,-3 -18,-7 -4,-4 -6,-10 -6,-17l0 -148 2 -2 15 0c15,0 23,8 23,25l0 115c7,-1 15,-1 24,-1z"/>
   <path class="fil2" d="M12034 5864l0 -171c5,-1 12,-2 20,-2 8,0 15,1 20,2l0 171c-5,1 -12,1 -20,1 -8,0 -15,0 -20,-1z"/>
   <path class="fil2" d="M12253 5761l0 -3c0,-25 -10,-37 -28,-37 -10,0 -18,4 -23,14 -4,10 -7,24 -7,43 0,18 3,32 9,41 6,9 14,13 26,13 5,0 12,-1 19,-4 7,-2 15,-7 23,-13 4,3 8,7 12,12 3,5 6,9 6,14 -3,4 -8,7 -13,10 -5,4 -11,6 -16,9 -6,2 -13,4 -19,5 -6,2 -13,3 -19,3 -13,0 -24,-3 -33,-8 -9,-5 -16,-11 -22,-20 -5,-8 -9,-17 -11,-28 -3,-11 -4,-22 -4,-33 0,-15 2,-28 6,-40 4,-11 9,-20 15,-28 6,-7 14,-13 23,-17 8,-4 18,-5 28,-5 10,0 19,1 27,4 8,2 15,6 21,11 6,4 10,10 13,16 3,6 5,13 5,21 0,15 -8,22 -23,22 -5,0 -10,-1 -15,-2z"/>
   <path class="fil2" d="M12408 5828c-5,0 -8,0 -10,0l-11 36c-4,1 -10,2 -17,2 -8,0 -15,-1 -20,-3l-1 -2 55 -168c7,-1 14,-2 23,-2 10,0 18,1 24,2l54 168c-6,3 -13,5 -20,5 -9,0 -15,-1 -18,-4 -4,-4 -7,-9 -9,-18l-5 -16c-2,0 -5,0 -10,0l-35 0zm-1 -32l10 0 18 0c1,0 2,0 5,0 2,0 3,0 4,0l-4 -15c-4,-14 -9,-31 -14,-52l-1 0c-2,7 -6,23 -12,48l-6 19z"/>
   <path class="fil2" d="M12705 6410l-1605 0c-19,0 -34,-15 -34,-34 0,-19 15,-34 34,-34l1605 0c19,0 34,15 34,34 0,19 -15,34 -34,34z"/>
   <path class="fil2" d="M12705 6794l-1605 0c-19,0 -34,-16 -34,-35 0,-19 15,-34 34,-34l1605 0c19,0 34,15 34,34 0,19 -15,35 -34,35z"/>
   <path class="fil2" d="M12705 7177l-1605 0c-19,0 -34,-15 -34,-34 0,-19 15,-35 34,-35l1605 0c19,0 34,16 34,35 0,19 -15,34 -34,34z"/>
   <path class="fil2" d="M8876 9483c-9,0 -18,-3 -25,-10 -13,-14 -13,-35 0,-48l535 -535c13,-13 35,-13 48,0 13,14 13,35 0,49l-534 534c-7,7 -16,10 -24,10z"/>
   <path class="fil2" d="M9944 9483c-9,0 -17,-3 -24,-10l-534 -534c-14,-14 -14,-35 0,-49 13,-13 35,-13 48,0l534 535c14,13 14,34 0,48 -6,7 -15,10 -24,10z"/>
   <path class="fil3" d="M9714 9397c0,160 -129,289 -289,289 -160,0 -289,-129 -289,-289 0,-159 129,-289 289,-289 160,0 289,130 289,289z"/>
   <path class="fil2" d="M9425 9720c-178,0 -323,-145 -323,-323 0,-178 145,-323 323,-323 178,0 323,145 323,323 0,178 -145,323 -323,323zm0 -577c-140,0 -255,114 -255,254 0,141 115,255 255,255 141,0 255,-114 255,-255 0,-140 -114,-254 -255,-254z"/>
   <path class="fil12" d="M9296 9268c0,71 -58,129 -129,129 -72,0 -130,-58 -130,-129 0,-71 58,-129 130,-129 71,0 129,58 129,129z"/>
   <path class="fil2" d="M9167 9431c-91,0 -164,-73 -164,-163 0,-90 73,-163 164,-163 90,0 163,73 163,163 0,90 -73,163 -163,163zm0 -258c-53,0 -95,43 -95,95 0,52 42,95 95,95 52,0 95,-43 95,-95 0,-52 -43,-95 -95,-95z"/>
   <path class="fil12" d="M9737 9198c0,71 -58,129 -129,129 -72,0 -130,-58 -130,-129 0,-72 58,-130 130,-130 71,0 129,58 129,130z"/>
   <path class="fil2" d="M9608 9361c-91,0 -164,-73 -164,-163 0,-90 73,-164 164,-164 90,0 163,74 163,164 0,90 -73,163 -163,163zm0 -258c-53,0 -95,42 -95,95 0,52 42,95 95,95 52,0 95,-43 95,-95 0,-53 -43,-95 -95,-95z"/>
   <path class="fil12" d="M9478 9068c0,72 -58,130 -129,130 -71,0 -129,-58 -129,-130 0,-71 58,-129 129,-129 71,0 129,58 129,129z"/>
   <path class="fil2" d="M9349 9232c-90,0 -163,-73 -163,-164 0,-90 73,-163 163,-163 90,0 164,73 164,163 0,91 -74,164 -164,164zm0 -259c-52,0 -95,43 -95,95 0,53 43,95 95,95 52,0 95,-42 95,-95 0,-52 -43,-95 -95,-95z"/>
   <path class="fil13" d="M9944 9449c0,295 -239,534 -534,534 -295,0 -534,-239 -534,-534l1068 0z"/>
   <path class="fil2" d="M9410 10017c-314,0 -569,-255 -569,-568 0,-19 16,-35 35,-35l1068 0c19,0 34,16 34,35 0,313 -255,568 -568,568zm-499 -534c18,260 235,466 499,466 264,0 481,-206 499,-466l-998 0z"/>
   <path class="fil2" d="M11187 9483c-8,0 -17,-3 -24,-10 -13,-14 -13,-35 0,-48l534 -535c14,-13 35,-13 49,0 13,14 13,35 0,49l-534 534c-7,7 -16,10 -25,10z"/>
   <path class="fil2" d="M12256 9483c-9,0 -18,-3 -25,-10l-534 -534c-13,-14 -13,-35 0,-49 14,-13 35,-13 49,0l534 535c13,13 13,34 0,48 -7,7 -16,10 -24,10z"/>
   <path class="fil3" d="M12026 9397c0,160 -130,289 -289,289 -160,0 -289,-129 -289,-289 0,-159 129,-289 289,-289 159,0 289,130 289,289z"/>
   <path class="fil2" d="M11737 9720c-178,0 -323,-145 -323,-323 0,-178 145,-323 323,-323 178,0 323,145 323,323 0,178 -145,323 -323,323zm0 -577c-141,0 -255,114 -255,254 0,141 114,255 255,255 140,0 254,-114 254,-255 0,-140 -114,-254 -254,-254z"/>
   <path class="fil12" d="M11607 9268c0,71 -57,129 -129,129 -71,0 -129,-58 -129,-129 0,-71 58,-129 129,-129 72,0 129,58 129,129z"/>
   <path class="fil2" d="M11478 9431c-90,0 -163,-73 -163,-163 0,-90 73,-163 163,-163 90,0 164,73 164,163 0,90 -74,163 -164,163zm0 -258c-52,0 -95,43 -95,95 0,52 43,95 95,95 53,0 95,-43 95,-95 0,-52 -42,-95 -95,-95z"/>
   <path class="fil12" d="M12048 9198c0,71 -57,129 -129,129 -71,0 -129,-58 -129,-129 0,-72 58,-130 129,-130 72,0 129,58 129,130z"/>
   <path class="fil2" d="M11919 9361c-90,0 -163,-73 -163,-163 0,-90 73,-164 163,-164 90,0 164,74 164,164 0,90 -74,163 -164,163zm0 -258c-52,0 -95,42 -95,95 0,52 43,95 95,95 53,0 95,-43 95,-95 0,-53 -42,-95 -95,-95z"/>
   <path class="fil12" d="M11790 9068c0,72 -58,130 -129,130 -72,0 -130,-58 -130,-130 0,-71 58,-129 130,-129 71,0 129,58 129,129z"/>
   <path class="fil2" d="M11661 9232c-90,0 -164,-73 -164,-164 0,-90 74,-163 164,-163 90,0 163,73 163,163 0,91 -73,164 -163,164zm0 -259c-53,0 -95,43 -95,95 0,53 42,95 95,95 52,0 95,-42 95,-95 0,-52 -43,-95 -95,-95z"/>
   <path class="fil13" d="M12256 9449c0,295 -239,534 -535,534 -295,0 -534,-239 -534,-534l1069 0z"/>
   <path class="fil2" d="M11722 10017c-314,0 -569,-255 -569,-568 0,-19 15,-35 34,-35l1069 0c19,0 34,16 34,35 0,313 -255,568 -568,568zm-499 -534c17,260 234,466 499,466 264,0 481,-206 498,-466l-997 0z"/>
   <path class="fil2" d="M12989 9483c-9,0 -17,-3 -24,-10 -13,-14 -13,-35 0,-48l534 -535c14,-13 35,-13 49,0 13,14 13,35 0,49l-535 534c-6,7 -15,10 -24,10z"/>
   <path class="fil2" d="M14058 9483c-9,0 -18,-3 -25,-10l-534 -534c-13,-14 -13,-35 0,-49 14,-13 35,-13 49,0l534 535c13,13 13,34 0,48 -7,7 -16,10 -24,10z"/>
   <path class="fil3" d="M13828 9397c0,160 -130,289 -289,289 -160,0 -289,-129 -289,-289 0,-159 129,-289 289,-289 159,0 289,130 289,289z"/>
   <path class="fil2" d="M13539 9720c-179,0 -323,-145 -323,-323 0,-178 144,-323 323,-323 178,0 323,145 323,323 0,178 -145,323 -323,323zm0 -577c-141,0 -255,114 -255,254 0,141 114,255 255,255 140,0 254,-114 254,-255 0,-140 -114,-254 -254,-254z"/>
   <path class="fil12" d="M13409 9268c0,71 -58,129 -129,129 -71,0 -129,-58 -129,-129 0,-71 58,-129 129,-129 71,0 129,58 129,129z"/>
   <path class="fil2" d="M13280 9431c-90,0 -163,-73 -163,-163 0,-90 73,-163 163,-163 90,0 164,73 164,163 0,90 -74,163 -164,163zm0 -258c-52,0 -95,43 -95,95 0,52 43,95 95,95 52,0 95,-43 95,-95 0,-52 -43,-95 -95,-95z"/>
   <path class="fil12" d="M13850 9198c0,71 -58,129 -129,129 -71,0 -129,-58 -129,-129 0,-72 58,-130 129,-130 71,0 129,58 129,130z"/>
   <path class="fil2" d="M13721 9361c-90,0 -163,-73 -163,-163 0,-90 73,-164 163,-164 90,0 163,74 163,164 0,90 -73,163 -163,163zm0 -258c-52,0 -95,42 -95,95 0,52 43,95 95,95 52,0 95,-43 95,-95 0,-53 -43,-95 -95,-95z"/>
   <path class="fil12" d="M13592 9068c0,72 -58,130 -129,130 -72,0 -130,-58 -130,-130 0,-71 58,-129 130,-129 71,0 129,58 129,129z"/>
   <path class="fil2" d="M13463 9232c-91,0 -164,-73 -164,-164 0,-90 73,-163 164,-163 90,0 163,73 163,163 0,91 -73,164 -163,164zm0 -259c-53,0 -95,43 -95,95 0,53 42,95 95,95 52,0 95,-42 95,-95 0,-52 -43,-95 -95,-95z"/>
   <path class="fil13" d="M14058 9449c0,295 -240,534 -535,534 -295,0 -534,-239 -534,-534l1069 0z"/>
   <path class="fil2" d="M13523 10017c-313,0 -568,-255 -568,-568 0,-19 15,-35 34,-35l1069 0c18,0 34,16 34,35 0,313 -255,568 -569,568zm-498 -534c17,260 234,466 498,466 265,0 482,-206 499,-466l-997 0z"/>
  </g>
 </g>
</svg>
