<?xml version="1.0" encoding="UTF-8"?>
<!DOCTYPE svg PUBLIC "-//W3C//DTD SVG 1.1//EN" "http://www.w3.org/Graphics/SVG/1.1/DTD/svg11.dtd">
<!-- Creator: CorelDRAW X7 -->
<svg xmlns="http://www.w3.org/2000/svg" xml:space="preserve" width="190.5mm" height="338.667mm" version="1.1" style="shape-rendering:geometricPrecision; text-rendering:geometricPrecision; image-rendering:optimizeQuality; fill-rule:evenodd; clip-rule:evenodd"
viewBox="0 0 19050 33867"
 xmlns:xlink="http://www.w3.org/1999/xlink">
 <defs>
  <style type="text/css">
   <![CDATA[
    .fil0 {fill:none;fill-rule:nonzero}
    .fil1 {fill:#2B2A29;fill-rule:nonzero}
    .fil2 {fill:white;fill-rule:nonzero}
   ]]>
  </style>
 </defs>
 <g id="Capa_x0020_1">
  <metadata id="CorelCorpID_0Corel-Layer"/>
  <polygon class="fil0" points="0,33867 19050,33867 19050,0 0,0 "/>
  <path class="fil1" d="M1640 17300l29 0c61,0 102,-6 123,-20 20,-13 30,-36 30,-70 0,-36 -11,-62 -33,-77 -21,-15 -62,-22 -120,-22l-29 0 0 189zm-6 91l0 306 -104 0 0 -681 167 0c50,0 86,2 110,8 23,5 44,14 61,27 22,15 38,37 50,63 13,27 19,57 19,89 0,32 -6,62 -19,89 -12,28 -28,49 -50,64 -17,13 -38,22 -61,27 -24,5 -60,8 -110,8l-22 0 -41 0z"/>
  <path id="1" class="fil1" d="M2409 17697l-100 0 0 -57c-18,25 -40,44 -64,56 -24,13 -51,19 -82,19 -62,0 -112,-21 -147,-64 -36,-43 -54,-101 -54,-175 0,-71 18,-127 55,-171 36,-43 84,-65 143,-65 36,0 67,8 92,23 26,15 45,37 57,65l0 -72 100 0 0 441zm-98 -222c0,-46 -10,-81 -32,-107 -21,-25 -50,-38 -89,-38 -38,0 -68,13 -90,39 -22,27 -32,63 -32,110 0,46 10,83 31,108 21,26 51,38 90,38 36,0 65,-14 88,-41 23,-28 34,-64 34,-109z"/>
  <path id="2" class="fil1" d="M2650 17326c10,-29 25,-51 43,-65 17,-14 40,-21 66,-21 14,0 28,2 42,6 14,3 28,8 41,14l-36 86c-9,-6 -19,-11 -29,-13 -10,-3 -21,-5 -33,-5 -34,0 -58,13 -73,40 -14,27 -21,72 -21,135l0 194 -101 0 0 -442 101 0 0 71z"/>
  <path id="3" class="fil1" d="M3315 17697l-101 0 0 -57c-18,25 -39,44 -63,56 -25,13 -52,19 -83,19 -62,0 -112,-21 -147,-64 -36,-43 -54,-101 -54,-175 0,-71 18,-127 55,-171 36,-43 84,-65 143,-65 36,0 67,8 93,23 25,15 44,37 56,65l0 -72 101 0 0 441zm-99 -222c0,-46 -10,-81 -31,-107 -22,-25 -51,-38 -90,-38 -38,0 -68,13 -90,39 -21,27 -32,63 -32,110 0,46 10,83 31,108 21,26 51,38 90,38 36,0 65,-14 88,-41 23,-28 34,-64 34,-109z"/>
  <path id="4" class="fil1" d="M4156 17697l-101 0 0 -57c-18,25 -39,44 -63,56 -24,13 -51,19 -82,19 -63,0 -112,-21 -147,-64 -36,-43 -54,-101 -54,-175 0,-71 18,-127 55,-171 36,-43 84,-65 143,-65 36,0 67,8 92,23 26,15 45,37 56,65l0 -72 101 0 0 441zm-98 -222c0,-46 -10,-81 -32,-107 -21,-25 -51,-38 -89,-38 -38,0 -68,13 -90,39 -22,27 -33,63 -33,110 0,46 11,83 32,108 21,26 51,38 89,38 37,0 66,-14 89,-41 23,-28 34,-64 34,-109z"/>
  <path id="5" class="fil1" d="M4625 17381c-16,-17 -33,-30 -54,-38 -21,-10 -43,-14 -67,-14 -41,0 -74,13 -99,40 -25,27 -37,62 -37,106 0,46 12,82 37,108 25,26 60,39 104,39 24,0 46,-4 65,-13 20,-9 36,-23 51,-42l0 116c-19,11 -39,19 -60,24 -21,5 -44,8 -67,8 -70,0 -126,-22 -170,-66 -43,-44 -65,-101 -65,-171 0,-71 23,-129 68,-172 45,-44 104,-66 177,-66 23,0 44,3 63,7 19,5 37,12 54,21l0 113z"/>
  <path id="6" class="fil1" d="M5153 17491l-353 0c3,41 15,73 37,97 22,23 52,34 88,34 33,0 60,-6 81,-20 22,-14 41,-36 57,-66l85 47c-25,45 -55,77 -92,99 -36,22 -80,33 -129,33 -71,0 -127,-22 -169,-65 -41,-43 -62,-100 -62,-172 0,-70 21,-126 65,-171 43,-44 98,-67 166,-67 71,0 127,21 166,61 40,41 60,98 60,171l0 19zm-105 -68c-4,-31 -16,-55 -36,-72 -20,-17 -48,-25 -83,-25 -33,0 -60,8 -80,24 -20,16 -34,41 -42,73l241 0z"/>
  <path id="7" class="fil1" d="M5359 17326c11,-29 25,-51 43,-65 18,-14 40,-21 66,-21 15,0 29,2 42,6 14,3 28,8 41,14l-36 86c-9,-6 -18,-11 -28,-13 -10,-3 -22,-5 -34,-5 -34,0 -58,13 -72,40 -15,27 -22,72 -22,135l0 194 -101 0 0 -442 101 0 0 71z"/>
  <path id="8" class="fil1" d="M5938 17381c-16,-17 -33,-30 -54,-38 -21,-10 -43,-14 -67,-14 -41,0 -74,13 -99,40 -25,27 -37,62 -37,106 0,46 12,82 37,108 25,26 60,39 104,39 24,0 46,-4 65,-13 20,-9 36,-23 51,-42l0 116c-19,11 -39,19 -60,24 -21,5 -44,8 -67,8 -70,0 -126,-22 -170,-66 -43,-44 -65,-101 -65,-171 0,-71 23,-129 68,-172 45,-44 104,-66 177,-66 23,0 44,3 63,7 19,5 37,12 54,21l0 113z"/>
  <path id="9" class="fil1" d="M6456 17697l-101 0 0 -57c-18,25 -39,44 -63,56 -24,13 -51,19 -82,19 -63,0 -112,-21 -148,-64 -35,-43 -53,-101 -53,-175 0,-71 18,-127 55,-171 36,-43 84,-65 143,-65 36,0 67,8 92,23 26,15 45,37 56,65l0 -72 101 0 0 441zm-98 -222c0,-46 -10,-81 -32,-107 -21,-25 -51,-38 -89,-38 -38,0 -68,13 -90,39 -22,27 -33,63 -33,110 0,46 11,83 32,108 21,26 51,38 89,38 37,0 66,-14 89,-41 23,-28 34,-64 34,-109z"/>
  <path id="10" class="fil1" d="M6696 17326c11,-29 26,-51 43,-65 18,-14 40,-21 67,-21 14,0 28,2 42,6 14,3 27,8 41,14l-37 86c-8,-6 -18,-11 -28,-13 -10,-3 -21,-5 -33,-5 -34,0 -58,13 -73,40 -14,27 -22,72 -22,135l0 194 -101 0 0 -442 101 0 0 71z"/>
  <path id="11" class="fil1" d="M7658 17491l-352 0c3,41 15,73 37,97 22,23 51,34 88,34 32,0 59,-6 81,-20 22,-14 41,-36 57,-66l85 47c-25,45 -56,77 -92,99 -37,22 -80,33 -129,33 -71,0 -127,-22 -169,-65 -42,-43 -63,-100 -63,-172 0,-70 22,-126 65,-171 43,-44 99,-67 167,-67 71,0 126,21 166,61 40,41 59,98 59,171l0 19zm-104 -68c-4,-31 -16,-55 -37,-72 -20,-17 -47,-25 -82,-25 -33,0 -60,8 -80,24 -20,16 -34,41 -42,73l241 0z"/>
  <polygon id="12" class="fil1" points="7768,17697 7768,16976 7869,16976 7869,17697 "/>
  <path id="13" class="fil1" d="M8399 17256l0 248c0,43 9,74 26,92 18,19 46,28 86,28 40,0 68,-9 86,-28 18,-18 26,-49 26,-92l0 -248 101 0 0 218c0,84 -16,146 -50,184 -34,38 -88,57 -162,57 -75,0 -130,-19 -164,-57 -33,-38 -50,-99 -50,-184l0 -218 101 0z"/>
  <path id="14" class="fil1" d="M8810 17617l84 -46c6,22 17,39 34,50 17,12 39,18 65,18 22,0 40,-6 53,-16 13,-10 19,-25 19,-43 0,-23 -23,-44 -68,-61 -16,-6 -28,-10 -36,-14 -47,-20 -80,-39 -99,-60 -19,-20 -28,-44 -28,-73 0,-39 15,-71 46,-96 31,-24 72,-37 123,-37 34,0 63,7 87,19 24,13 42,31 53,54l-71 49c-5,-14 -15,-25 -28,-33 -13,-8 -28,-12 -46,-12 -19,0 -34,4 -46,13 -11,10 -17,22 -17,37 0,23 26,44 78,63 16,6 29,11 38,14 40,16 70,34 87,55 18,20 26,46 26,76 0,44 -16,78 -48,103 -32,25 -75,38 -132,38 -43,0 -79,-8 -107,-24 -29,-17 -51,-41 -67,-74z"/>
  <path id="15" class="fil1" d="M9613 17478c0,-41 -13,-76 -40,-105 -26,-28 -58,-42 -96,-42 -38,0 -70,14 -97,42 -26,29 -40,64 -40,105 0,41 14,75 40,104 27,28 59,42 97,42 37,0 70,-14 96,-42 27,-29 40,-63 40,-104zm-379 -1c0,-33 6,-63 18,-92 12,-28 30,-54 53,-76 23,-22 49,-39 78,-51 30,-12 60,-18 93,-18 33,0 64,6 93,18 30,12 56,29 79,52 24,23 41,48 53,77 12,28 18,58 18,90 0,32 -6,63 -17,91 -12,29 -30,54 -53,76 -24,23 -51,41 -80,53 -30,12 -61,18 -93,18 -32,0 -63,-6 -92,-18 -30,-12 -56,-29 -79,-52 -23,-23 -41,-49 -53,-77 -12,-29 -18,-59 -18,-91z"/>
  <path id="16" class="fil1" d="M10431 17475c0,-46 -11,-81 -32,-107 -22,-25 -51,-38 -89,-38 -39,0 -69,13 -90,39 -22,27 -33,63 -33,110 0,46 10,83 31,108 22,26 51,38 90,38 36,0 66,-14 89,-41 22,-27 34,-64 34,-109zm-3 -499l101 0 0 721 -101 0 0 -57c-18,25 -39,44 -63,56 -24,13 -52,19 -83,19 -62,0 -111,-21 -147,-64 -36,-43 -54,-101 -54,-175 0,-71 18,-127 55,-171 37,-43 84,-65 143,-65 36,0 67,8 93,23 25,15 44,37 56,65l0 -352z"/>
  <path id="17" class="fil1" d="M11093 17491l-353 0c3,41 15,73 37,97 22,23 51,34 88,34 33,0 60,-6 81,-20 22,-14 41,-36 57,-66l85 47c-25,45 -55,77 -92,99 -37,22 -80,33 -129,33 -71,0 -127,-22 -169,-65 -42,-43 -63,-100 -63,-172 0,-70 22,-126 65,-171 44,-44 99,-67 167,-67 71,0 126,21 166,61 40,41 60,98 60,171l0 19zm-105 -68c-4,-31 -16,-55 -36,-72 -20,-17 -48,-25 -83,-25 -33,0 -60,8 -80,24 -20,16 -34,41 -42,73l241 0z"/>
  <polygon id="18" class="fil1" points="11490,17697 11490,16976 11591,16976 11591,17697 "/>
  <path id="19" class="fil1" d="M12150 17697l-101 0 0 -57c-18,25 -39,44 -63,56 -24,13 -51,19 -83,19 -62,0 -111,-21 -147,-64 -36,-43 -54,-101 -54,-175 0,-71 19,-127 55,-171 37,-43 85,-65 144,-65 36,0 67,8 92,23 26,15 44,37 56,65l0 -72 101 0 0 441zm-98 -222c0,-46 -11,-81 -32,-107 -21,-25 -51,-38 -89,-38 -38,0 -68,13 -90,39 -22,27 -33,63 -33,110 0,46 11,83 32,108 21,26 51,38 89,38 36,0 66,-14 89,-41 23,-28 34,-64 34,-109z"/>
  <polygon id="20" class="fil1" points="12600,17697 12600,17344 12523,17344 12523,17256 12600,17256 12600,17089 12701,17089 12701,17256 12779,17256 12779,17344 12701,17344 12701,17697 "/>
  <path id="21" class="fil1" d="M12857 17065c0,-17 6,-32 19,-44 12,-12 27,-19 45,-19 18,0 33,6 45,18 12,12 18,27 18,45 0,18 -6,33 -19,46 -12,12 -27,18 -44,18 -18,0 -33,-6 -45,-19 -13,-12 -19,-27 -19,-45zm13 632l0 -441 101 0 0 441 -101 0z"/>
  <path id="22" class="fil1" d="M13540 17491l-352 0c2,41 14,73 36,97 22,23 52,34 88,34 33,0 60,-6 82,-20 21,-14 40,-36 56,-66l85 47c-25,45 -55,77 -92,99 -36,22 -79,33 -129,33 -70,0 -127,-22 -169,-65 -41,-43 -62,-100 -62,-172 0,-70 21,-126 65,-171 43,-44 98,-67 166,-67 71,0 127,21 166,61 40,41 60,98 60,171l0 19zm-105 -68c-4,-31 -16,-55 -36,-72 -20,-17 -48,-25 -83,-25 -33,0 -60,8 -80,24 -20,16 -34,41 -42,73l241 0z"/>
  <path id="23" class="fil1" d="M13746 17326c11,-29 25,-51 43,-65 18,-14 40,-21 66,-21 15,0 29,2 42,6 14,3 28,8 41,14l-36 86c-9,-6 -18,-11 -28,-13 -10,-3 -22,-5 -34,-5 -34,0 -58,13 -72,40 -15,27 -22,72 -22,135l0 194 -101 0 0 -442 101 0 0 71z"/>
  <path id="24" class="fil1" d="M14097 17326c11,-29 25,-51 43,-65 18,-14 40,-21 66,-21 14,0 28,2 42,6 14,3 28,8 41,14l-36 86c-9,-6 -18,-11 -28,-13 -11,-3 -22,-5 -34,-5 -34,0 -58,13 -73,40 -14,27 -21,72 -21,135l0 194 -101 0 0 -442 101 0 0 71z"/>
  <path id="25" class="fil1" d="M14762 17697l-101 0 0 -57c-18,25 -39,44 -63,56 -25,13 -52,19 -83,19 -62,0 -112,-21 -147,-64 -36,-43 -54,-101 -54,-175 0,-71 18,-127 55,-171 36,-43 84,-65 143,-65 36,0 67,8 93,23 25,15 44,37 56,65l0 -72 101 0 0 441zm-99 -222c0,-46 -10,-81 -31,-107 -22,-25 -51,-38 -90,-38 -38,0 -68,13 -90,39 -21,27 -32,63 -32,110 0,46 10,83 31,108 21,26 51,38 90,38 36,0 65,-14 88,-41 23,-28 34,-64 34,-109z"/>
  <path id="26" class="fil1" d="M15603 17697l-101 0 0 -57c-17,25 -39,44 -63,56 -24,13 -51,19 -82,19 -63,0 -112,-21 -147,-64 -36,-43 -54,-101 -54,-175 0,-71 18,-127 55,-171 36,-43 84,-65 143,-65 36,0 67,8 92,23 26,15 45,37 56,65l0 -72 101 0 0 441zm-98 -222c0,-46 -10,-81 -32,-107 -21,-25 -51,-38 -89,-38 -38,0 -68,13 -90,39 -22,27 -33,63 -33,110 0,46 11,83 32,108 21,26 51,38 89,38 37,0 66,-14 89,-41 23,-28 34,-64 34,-109z"/>
  <path id="27" class="fil1" d="M15980 17617l83 -46c7,22 18,39 35,50 16,12 38,18 64,18 23,0 41,-6 54,-16 12,-10 19,-25 19,-43 0,-23 -23,-44 -69,-61 -15,-6 -27,-10 -36,-14 -47,-20 -80,-39 -99,-60 -18,-20 -28,-44 -28,-73 0,-39 16,-71 47,-96 30,-24 71,-37 122,-37 34,0 63,7 88,19 24,13 42,31 53,54l-72 49c-5,-14 -14,-25 -27,-33 -14,-8 -29,-12 -46,-12 -19,0 -35,4 -46,13 -12,10 -18,22 -18,37 0,23 26,44 78,63 17,6 29,11 38,14 41,16 70,34 88,55 17,20 26,46 26,76 0,44 -16,78 -48,103 -32,25 -76,38 -132,38 -43,0 -79,-8 -108,-24 -28,-17 -50,-41 -66,-74z"/>
  <path id="28" class="fil1" d="M16534 17256l0 248c0,43 9,74 26,92 18,19 46,28 86,28 40,0 68,-9 86,-28 18,-18 26,-49 26,-92l0 -248 101 0 0 218c0,84 -16,146 -50,184 -34,38 -88,57 -162,57 -75,0 -130,-19 -164,-57 -33,-38 -50,-99 -50,-184l0 -218 101 0z"/>
  <path id="29" class="fil1" d="M1676 18865l-231 -468 110 0 97 222c3,7 7,17 11,31 4,14 9,30 13,49 4,-13 7,-27 11,-40 4,-13 10,-26 15,-40l96 -222 110 0 -232 468z"/>
  <path id="30" class="fil1" d="M2318 18619c0,-41 -13,-75 -40,-104 -26,-28 -58,-42 -96,-42 -38,0 -70,14 -97,42 -27,29 -40,63 -40,104 0,41 13,76 40,104 27,29 59,43 97,43 37,0 70,-14 96,-43 27,-28 40,-63 40,-104zm-379 -1c0,-32 6,-62 18,-91 12,-29 30,-54 53,-76 22,-22 48,-39 78,-51 30,-12 60,-18 93,-18 33,0 64,6 93,18 30,12 56,29 79,52 23,23 41,48 53,77 12,28 18,58 18,89 0,33 -6,64 -18,92 -11,29 -29,54 -52,76 -24,23 -51,41 -80,53 -30,11 -61,18 -93,18 -32,0 -63,-7 -93,-18 -29,-12 -55,-30 -78,-52 -23,-23 -41,-49 -53,-77 -12,-29 -18,-59 -18,-92z"/>
  <path id="31" class="fil1" d="M2860 18523c-15,-17 -33,-30 -54,-39 -20,-9 -43,-13 -66,-13 -42,0 -75,13 -100,40 -24,26 -37,62 -37,106 0,46 13,82 38,108 25,26 59,39 103,39 25,0 47,-4 66,-14 19,-9 36,-23 50,-41l0 116c-18,11 -38,18 -59,24 -21,5 -44,8 -68,8 -69,0 -126,-23 -169,-67 -44,-43 -65,-101 -65,-171 0,-71 22,-128 67,-171 45,-44 104,-66 177,-66 23,0 44,2 64,7 19,4 37,11 53,21l0 113z"/>
  <path id="32" class="fil1" d="M3379 18838l-101 0 0 -57c-18,26 -39,45 -63,57 -24,12 -52,19 -83,19 -62,0 -111,-22 -147,-64 -36,-43 -54,-101 -54,-176 0,-70 18,-127 55,-170 37,-43 85,-65 143,-65 36,0 67,8 93,23 25,15 44,36 56,64l0 -72 101 0 0 441zm-98 -222c0,-45 -11,-81 -32,-106 -21,-26 -51,-38 -89,-38 -39,0 -69,13 -90,39 -22,26 -33,63 -33,109 0,47 10,83 31,109 22,25 51,38 90,38 36,0 66,-14 88,-41 23,-28 35,-64 35,-110z"/>
  <path id="33" class="fil1" d="M3847 18523c-15,-17 -33,-30 -54,-39 -20,-9 -43,-13 -67,-13 -41,0 -74,13 -99,40 -24,26 -37,62 -37,106 0,46 13,82 38,108 25,26 59,39 103,39 25,0 47,-4 66,-14 19,-9 36,-23 50,-41l0 116c-18,11 -38,18 -59,24 -22,5 -44,8 -68,8 -69,0 -126,-23 -169,-67 -44,-43 -66,-101 -66,-171 0,-71 23,-128 68,-171 45,-44 104,-66 177,-66 23,0 44,2 63,7 20,4 38,11 54,21l0 113z"/>
  <path id="34" class="fil1" d="M3942 18207c0,-17 6,-32 19,-44 12,-13 27,-19 45,-19 18,0 33,6 45,18 12,12 18,27 18,45 0,18 -6,33 -19,45 -12,13 -27,19 -44,19 -18,0 -33,-7 -45,-19 -13,-13 -19,-28 -19,-45zm13 631l0 -441 101 0 0 441 -101 0z"/>
  <path id="35" class="fil1" d="M4547 18619c0,-41 -13,-75 -40,-104 -26,-28 -58,-42 -96,-42 -38,0 -70,14 -97,42 -26,29 -40,63 -40,104 0,41 14,76 40,104 27,29 59,43 97,43 37,0 70,-14 96,-43 27,-28 40,-63 40,-104zm-379 -1c0,-32 6,-62 18,-91 12,-29 30,-54 53,-76 23,-22 49,-39 78,-51 30,-12 61,-18 93,-18 33,0 64,6 94,18 29,12 55,29 78,52 24,23 41,48 53,77 13,28 19,58 19,89 0,33 -6,64 -18,92 -12,29 -30,54 -53,76 -24,23 -51,41 -80,53 -30,11 -61,18 -93,18 -32,0 -63,-7 -92,-18 -30,-12 -56,-30 -79,-52 -23,-23 -41,-49 -53,-77 -12,-29 -18,-59 -18,-92zm177 -287l89 -127 104 0 -136 127 -57 0z"/>
  <path id="36" class="fil1" d="M4760 18838l0 -441 95 0 0 73c20,-31 44,-53 71,-67 27,-14 61,-21 100,-21 33,0 61,5 84,16 23,10 41,26 54,46 8,12 13,26 17,42 3,17 5,45 5,85l0 267 -102 0 0 -226c0,-58 -7,-96 -21,-116 -14,-19 -39,-28 -75,-28 -24,0 -45,4 -63,13 -19,9 -33,21 -44,37 -7,10 -13,24 -16,40 -3,17 -4,43 -4,80l0 200 -101 0z"/>
  <path id="37" class="fil1" d="M6032 18633l-352 0c2,41 15,73 37,96 22,24 51,35 88,35 32,0 59,-7 81,-20 22,-14 41,-36 57,-67l85 48c-25,44 -56,77 -93,99 -36,22 -79,33 -128,33 -71,0 -127,-22 -169,-65 -42,-43 -63,-101 -63,-173 0,-69 22,-126 65,-170 43,-45 99,-67 167,-67 71,0 126,20 166,61 39,41 59,98 59,171l0 19zm-104 -68c-4,-32 -16,-56 -37,-72 -20,-17 -47,-25 -82,-25 -34,0 -60,8 -80,24 -20,16 -35,41 -43,73l242 0z"/>
  <polygon id="38" class="fil1" points="6142,18838 6142,18117 6243,18117 6243,18838 "/>
  <path id="39" class="fil1" d="M7060 18490l270 0c0,4 0,11 0,19 1,22 2,37 2,45 0,96 -28,170 -83,223 -54,53 -132,80 -231,80 -56,0 -106,-9 -150,-25 -43,-17 -82,-41 -114,-75 -33,-32 -57,-71 -75,-115 -17,-45 -25,-92 -25,-143 0,-51 8,-99 26,-142 17,-43 43,-82 78,-115 33,-32 72,-57 116,-74 45,-17 93,-26 144,-26 53,0 101,10 143,30 43,19 80,49 114,89l-81 61c-23,-27 -49,-46 -78,-59 -29,-13 -61,-20 -97,-20 -73,0 -134,24 -180,71 -47,47 -70,109 -70,184 0,77 23,140 70,188 46,47 107,71 181,71 64,0 113,-14 150,-44 36,-29 54,-69 54,-120l0 -10 -164 0 0 -93z"/>
  <path id="40" class="fil1" d="M7786 18619c0,-41 -13,-75 -39,-104 -27,-28 -59,-42 -97,-42 -38,0 -70,14 -97,42 -26,29 -39,63 -39,104 0,41 13,76 39,104 27,29 59,43 97,43 38,0 70,-14 97,-43 26,-28 39,-63 39,-104zm-379 -1c0,-32 6,-62 19,-91 12,-29 29,-54 52,-76 23,-22 49,-39 78,-51 30,-12 61,-18 93,-18 33,0 64,6 94,18 29,12 55,29 79,52 23,23 41,48 53,77 12,28 18,58 18,89 0,33 -6,64 -18,92 -12,29 -29,54 -52,76 -25,23 -51,41 -81,53 -29,11 -60,18 -93,18 -32,0 -63,-7 -92,-18 -30,-12 -56,-30 -79,-52 -23,-23 -41,-49 -53,-77 -12,-29 -18,-59 -18,-92z"/>
  <path id="41" class="fil1" d="M8097 18616c0,46 12,82 35,110 23,27 53,41 89,41 38,0 68,-13 89,-38 21,-26 31,-62 31,-109 0,-46 -11,-83 -33,-109 -21,-26 -51,-39 -90,-39 -38,0 -67,12 -89,38 -21,25 -32,61 -32,106zm3 -499l0 352c12,-27 31,-49 57,-64 26,-15 57,-23 93,-23 58,0 106,22 142,65 37,43 55,100 55,170 0,75 -18,133 -54,176 -35,42 -85,64 -147,64 -31,0 -58,-7 -83,-19 -24,-12 -45,-31 -63,-57l0 57 -101 0 0 -721 101 0z"/>
  <path id="42" class="fil1" d="M8545 18207c0,-17 7,-32 19,-44 13,-13 28,-19 45,-19 18,0 33,6 45,18 12,12 18,27 18,45 0,18 -6,33 -18,45 -12,13 -27,19 -45,19 -17,0 -32,-7 -45,-19 -12,-13 -19,-28 -19,-45zm14 631l0 -441 100 0 0 441 -100 0z"/>
  <path id="43" class="fil1" d="M9228 18633l-352 0c2,41 15,73 37,96 22,24 51,35 88,35 32,0 59,-7 81,-20 22,-14 41,-36 57,-67l85 48c-25,44 -56,77 -93,99 -36,22 -79,33 -128,33 -71,0 -127,-22 -169,-65 -42,-43 -63,-101 -63,-173 0,-69 22,-126 65,-170 43,-45 99,-67 167,-67 71,0 126,20 166,61 39,41 59,98 59,171l0 19zm-105 -68c-3,-32 -16,-56 -36,-72 -20,-17 -47,-25 -82,-25 -34,0 -60,8 -80,24 -20,16 -35,41 -43,73l241 0z"/>
  <path id="44" class="fil1" d="M9434 18468c11,-29 25,-51 43,-65 18,-14 40,-21 67,-21 14,0 28,2 42,5 14,4 27,9 41,15l-37 86c-9,-6 -18,-11 -28,-14 -10,-3 -21,-4 -34,-4 -33,0 -57,13 -72,40 -15,27 -22,72 -22,135l0 193 -101 0 0 -442 101 0 0 72z"/>
  <path id="45" class="fil1" d="M9684 18838l0 -441 95 0 0 73c20,-31 44,-53 71,-67 27,-14 60,-21 100,-21 32,0 60,5 84,16 23,10 41,26 54,46 8,12 13,26 17,42 3,17 5,45 5,85l0 267 -102 0 0 -226c0,-58 -7,-96 -21,-116 -15,-19 -40,-28 -76,-28 -23,0 -44,4 -63,13 -18,9 -33,21 -43,37 -8,10 -13,24 -16,40 -3,17 -4,43 -4,80l0 200 -101 0z"/>
  <path id="46" class="fil1" d="M10591 18619c0,-41 -14,-75 -40,-104 -26,-28 -59,-42 -97,-42 -37,0 -70,14 -96,42 -27,29 -40,63 -40,104 0,41 13,76 40,104 26,29 59,43 96,43 38,0 70,-14 97,-43 26,-28 40,-63 40,-104zm-380 -1c0,-32 7,-62 19,-91 12,-29 30,-54 53,-76 22,-22 48,-39 78,-51 29,-12 60,-18 92,-18 34,0 65,6 94,18 29,12 56,29 79,52 23,23 41,48 53,77 12,28 18,58 18,89 0,33 -6,64 -18,92 -12,29 -29,54 -52,76 -24,23 -51,41 -81,53 -29,11 -60,18 -93,18 -32,0 -62,-7 -92,-18 -29,-12 -55,-30 -78,-52 -24,-23 -41,-49 -53,-77 -13,-29 -19,-59 -19,-92z"/>
  <path id="47" class="fil1" d="M11408 18616c0,-45 -10,-81 -32,-106 -21,-26 -50,-38 -89,-38 -38,0 -68,13 -90,39 -21,26 -32,63 -32,109 0,47 10,83 31,109 21,25 51,38 90,38 36,0 66,-14 88,-41 23,-28 34,-64 34,-110zm-2 -499l100 0 0 721 -100 0 0 -57c-18,26 -40,45 -63,57 -25,12 -52,19 -83,19 -62,0 -112,-22 -147,-64 -36,-43 -54,-101 -54,-176 0,-70 18,-127 55,-170 36,-43 84,-65 143,-65 36,0 67,8 92,23 26,15 45,36 57,64l0 -352z"/>
  <path id="48" class="fil1" d="M12070 18633l-352 0c2,41 15,73 37,96 22,24 51,35 88,35 32,0 59,-7 81,-20 22,-14 41,-36 57,-67l85 48c-25,44 -56,77 -92,99 -37,22 -80,33 -129,33 -71,0 -127,-22 -169,-65 -42,-43 -63,-101 -63,-173 0,-69 22,-126 65,-170 43,-45 99,-67 167,-67 71,0 126,20 166,61 40,41 59,98 59,171l0 19zm-104 -68c-4,-32 -16,-56 -37,-72 -20,-17 -47,-25 -82,-25 -33,0 -60,8 -80,24 -20,16 -34,41 -43,73l242 0z"/>
  <path id="49" class="fil1" d="M12190 18838l0 -352 -78 0 0 -89 78 0 0 -118c0,-58 12,-101 36,-129 24,-28 62,-42 113,-42 11,0 22,1 34,2 11,2 23,4 35,8l0 91c-8,-5 -16,-9 -25,-11 -8,-2 -16,-3 -24,-3 -25,0 -42,7 -53,22 -10,15 -15,40 -15,75l0 105 106 0 0 89 -106 0 0 352 -101 0z"/>
  <path id="50" class="fil1" d="M12458 18207c0,-17 7,-32 19,-44 13,-13 28,-19 45,-19 18,0 33,6 45,18 12,12 18,27 18,45 0,18 -6,33 -18,45 -12,13 -27,19 -45,19 -17,0 -32,-7 -45,-19 -12,-13 -19,-28 -19,-45zm14 631l0 -441 101 0 0 441 -101 0z"/>
  <path id="51" class="fil1" d="M12717 18838l0 -441 95 0 0 73c20,-31 43,-53 71,-67 27,-14 60,-21 99,-21 33,0 61,5 84,16 23,10 41,26 55,46 7,12 13,26 16,42 4,17 5,45 5,85l0 267 -102 0 0 -226c0,-58 -6,-96 -21,-116 -14,-19 -39,-28 -75,-28 -23,0 -44,4 -63,13 -18,9 -33,21 -43,37 -8,10 -13,24 -16,40 -3,17 -4,43 -4,80l0 200 -101 0z"/>
  <path id="52" class="fil1" d="M13268 18207c0,-17 6,-32 19,-44 12,-13 27,-19 45,-19 18,0 33,6 45,18 12,12 18,27 18,45 0,18 -6,33 -18,45 -13,13 -28,19 -45,19 -18,0 -33,-7 -45,-19 -13,-13 -19,-28 -19,-45zm13 631l0 -441 101 0 0 441 -101 0z"/>
  <path id="53" class="fil1" d="M13627 18468c11,-29 25,-51 43,-65 18,-14 40,-21 67,-21 14,0 28,2 42,5 14,4 27,9 41,15l-37 86c-8,-6 -18,-11 -28,-14 -10,-3 -21,-4 -34,-4 -33,0 -57,13 -72,40 -14,27 -22,72 -22,135l0 193 -101 0 0 -442 101 0 0 72z"/>
  <path id="54" class="fil1" d="M14292 18838l-101 0 0 -57c-18,26 -39,45 -63,57 -24,12 -51,19 -82,19 -63,0 -112,-22 -148,-64 -35,-43 -53,-101 -53,-176 0,-70 18,-127 54,-170 37,-43 85,-65 144,-65 36,0 67,8 92,23 26,15 45,36 56,64l0 -72 101 0 0 441zm-98 -222c0,-45 -11,-81 -32,-106 -21,-26 -51,-38 -89,-38 -38,0 -68,13 -90,39 -22,26 -33,63 -33,109 0,47 11,83 32,109 21,25 51,38 89,38 37,0 66,-14 89,-41 23,-28 34,-64 34,-110zm-170 -285l88 -127 105 0 -136 127 -57 0z"/>
  <polygon id="55" class="fil1" points="1526,19980 1526,19259 1627,19259 1627,19980 "/>
  <path id="56" class="fil1" d="M1762 19349c0,-17 7,-32 19,-45 13,-12 28,-18 45,-18 18,0 33,6 45,18 12,12 18,27 18,45 0,18 -6,33 -18,45 -12,12 -27,18 -45,18 -17,0 -32,-6 -45,-18 -12,-13 -19,-28 -19,-45zm14 631l0 -441 101 0 0 441 -101 0z"/>
  <path id="57" class="fil1" d="M2021 19980l0 -441 95 0 0 73c20,-31 43,-53 71,-67 27,-14 60,-21 99,-21 33,0 61,5 84,15 23,11 42,26 55,47 7,12 13,26 16,42 4,16 5,44 5,85l0 267 -101 0 0 -226c0,-58 -7,-97 -22,-116 -14,-19 -39,-28 -75,-28 -23,0 -44,4 -63,13 -18,8 -33,21 -43,36 -8,11 -13,24 -16,41 -3,17 -4,43 -4,79l0 201 -101 0z"/>
  <path id="58" class="fil1" d="M3005 19774l-352 0c3,42 15,74 37,97 22,23 51,35 88,35 32,0 59,-7 81,-21 22,-13 41,-35 57,-66l85 48c-25,44 -56,77 -92,99 -37,21 -80,32 -129,32 -71,0 -127,-21 -169,-64 -42,-44 -63,-101 -63,-173 0,-69 22,-126 65,-170 43,-45 99,-67 167,-67 71,0 126,20 166,61 40,40 59,97 59,170l0 19zm-104 -67c-4,-32 -16,-56 -37,-72 -20,-17 -47,-25 -82,-25 -33,0 -60,8 -80,24 -20,16 -34,40 -42,73l241 0z"/>
  <path id="59" class="fil1" d="M3526 19980l-101 0 0 -57c-18,25 -39,44 -63,57 -24,12 -52,18 -83,18 -62,0 -111,-21 -147,-64 -36,-42 -54,-101 -54,-175 0,-70 18,-127 55,-170 37,-44 84,-65 143,-65 36,0 67,7 93,22 25,15 44,37 56,65l0 -72 101 0 0 441zm-98 -222c0,-45 -11,-81 -32,-106 -22,-26 -51,-39 -89,-39 -39,0 -69,14 -90,40 -22,26 -33,63 -33,109 0,47 10,83 31,108 21,26 51,39 90,39 36,0 66,-14 88,-42 23,-27 35,-64 35,-109z"/>
  <path id="60" class="fil1" d="M3766 19980l-101 0 0 -441 95 0 0 73c20,-31 43,-54 68,-68 26,-14 56,-21 91,-21 34,0 63,7 85,22 23,14 40,36 52,66 23,-31 48,-53 74,-67 26,-14 56,-21 90,-21 29,0 54,5 76,16 22,11 38,26 51,47 5,9 9,21 12,34 3,14 4,33 4,57l0 36 0 267 -101 0 0 -226c0,-59 -6,-98 -19,-117 -12,-19 -35,-28 -67,-28 -40,0 -68,12 -85,38 -17,25 -25,69 -25,132l0 201 -102 0 0 -226c0,-55 -7,-93 -20,-114 -13,-21 -36,-31 -68,-31 -20,0 -38,4 -54,13 -17,9 -30,22 -40,37 -6,11 -10,23 -13,38 -2,15 -3,42 -3,82l0 201z"/>
  <path id="61" class="fil1" d="M4490 19349c0,-17 6,-32 18,-45 13,-12 28,-18 45,-18 18,0 33,6 45,18 12,12 18,27 18,45 0,18 -6,33 -18,45 -12,12 -27,18 -45,18 -17,0 -32,-6 -45,-18 -12,-13 -18,-28 -18,-45zm13 631l0 -441 101 0 0 441 -101 0z"/>
  <path id="62" class="fil1" d="M5173 19774l-353 0c3,42 15,74 37,97 22,23 51,35 88,35 33,0 60,-7 81,-21 22,-13 41,-35 57,-66l85 48c-25,44 -55,77 -92,99 -37,21 -80,32 -129,32 -71,0 -127,-21 -169,-64 -42,-44 -63,-101 -63,-173 0,-69 22,-126 65,-170 44,-45 99,-67 167,-67 71,0 126,20 166,61 40,40 60,97 60,170l0 19zm-105 -67c-4,-32 -16,-56 -36,-72 -20,-17 -48,-25 -83,-25 -33,0 -60,8 -80,24 -20,16 -34,40 -42,73l241 0z"/>
  <path id="63" class="fil1" d="M5278 19980l0 -441 95 0 0 73c20,-31 43,-53 71,-67 27,-14 60,-21 99,-21 33,0 61,5 84,15 23,11 41,26 54,47 8,12 14,26 17,42 4,16 5,44 5,85l0 267 -102 0 0 -226c0,-58 -7,-97 -21,-116 -14,-19 -39,-28 -75,-28 -23,0 -45,4 -63,13 -18,8 -33,21 -43,36 -8,11 -13,24 -16,41 -3,17 -4,43 -4,79l0 201 -101 0z"/>
  <polygon id="64" class="fil1" points="5861,19980 5861,19628 5784,19628 5784,19539 5861,19539 5861,19372 5962,19372 5962,19539 6039,19539 6039,19628 5962,19628 5962,19980 "/>
  <path id="65" class="fil1" d="M6473 19761c0,-41 -13,-76 -40,-104 -26,-28 -58,-43 -96,-43 -38,0 -70,15 -97,43 -26,28 -39,63 -39,104 0,41 13,76 39,104 27,29 59,43 97,43 38,0 70,-14 96,-43 27,-28 40,-63 40,-104zm-379 -1c0,-32 6,-63 18,-91 13,-29 30,-54 53,-77 23,-22 49,-39 78,-50 30,-12 61,-18 93,-18 33,0 64,6 94,18 29,11 55,29 79,52 23,22 40,48 53,76 12,29 18,59 18,90 0,33 -6,63 -18,92 -12,28 -30,54 -53,76 -24,23 -51,40 -80,52 -29,12 -61,18 -93,18 -32,0 -63,-6 -92,-18 -30,-12 -56,-29 -79,-51 -23,-23 -41,-49 -53,-78 -12,-28 -18,-59 -18,-91z"/>
  <path id="66" class="fil1" d="M6636 19900l84 -46c6,22 17,39 34,51 17,11 38,17 64,17 23,0 41,-5 54,-16 13,-10 19,-24 19,-42 0,-24 -23,-45 -69,-62 -15,-5 -27,-10 -35,-14 -48,-19 -81,-39 -99,-59 -19,-20 -28,-45 -28,-73 0,-40 15,-72 46,-96 31,-25 71,-37 122,-37 34,0 64,6 88,19 24,12 42,30 53,54l-71 49c-6,-14 -15,-25 -28,-33 -13,-9 -29,-13 -46,-13 -19,0 -34,5 -46,14 -12,9 -17,21 -17,36 0,23 26,44 77,63 17,6 30,11 39,15 40,16 69,34 87,54 17,21 26,46 26,76 0,44 -16,79 -48,104 -32,25 -76,37 -132,37 -43,0 -79,-8 -107,-24 -29,-16 -51,-41 -67,-74z"/>
  <path id="67" class="fil1" d="M7697 19758c0,-45 -11,-81 -32,-106 -22,-26 -51,-39 -89,-39 -39,0 -69,14 -90,40 -22,26 -33,63 -33,109 0,47 10,83 31,108 21,26 51,39 90,39 36,0 66,-14 88,-42 23,-27 35,-64 35,-109zm98 195c0,86 -18,147 -52,182 -34,35 -93,53 -174,53 -61,0 -110,-13 -146,-39 -36,-25 -54,-59 -55,-102l108 -1c2,19 11,34 27,44 16,10 39,15 68,15 43,0 74,-10 93,-28 19,-19 28,-51 29,-95l1 -59c-18,25 -39,44 -63,57 -25,12 -52,18 -83,18 -62,0 -112,-21 -147,-64 -36,-42 -54,-101 -54,-175 0,-70 18,-127 55,-170 37,-44 84,-65 143,-65 36,0 67,7 93,22 25,15 44,37 56,65l0 -72 101 0 0 414z"/>
  <path id="68" class="fil1" d="M8358 19774l-352 0c3,42 15,74 37,97 22,23 51,35 88,35 32,0 60,-7 81,-21 22,-13 41,-35 57,-66l85 48c-25,44 -56,77 -92,99 -37,21 -80,32 -129,32 -71,0 -127,-21 -169,-64 -42,-44 -63,-101 -63,-173 0,-69 22,-126 65,-170 43,-45 99,-67 167,-67 71,0 126,20 166,61 40,40 59,97 59,170l0 19zm-104 -67c-4,-32 -16,-56 -36,-72 -21,-17 -48,-25 -83,-25 -33,0 -60,8 -80,24 -20,16 -34,40 -42,73l241 0z"/>
  <path id="69" class="fil1" d="M8463 19980l0 -441 95 0 0 73c21,-31 44,-53 71,-67 28,-14 61,-21 100,-21 33,0 61,5 84,15 23,11 41,26 54,47 8,12 14,26 17,42 3,16 5,44 5,85l0 267 -102 0 0 -226c0,-58 -7,-97 -21,-116 -14,-19 -39,-28 -75,-28 -24,0 -45,4 -63,13 -19,8 -33,21 -44,36 -7,11 -12,24 -15,41 -3,17 -5,43 -5,79l0 201 -101 0z"/>
  <path id="70" class="fil1" d="M9448 19774l-352 0c2,42 14,74 37,97 21,23 51,35 88,35 32,0 59,-7 81,-21 22,-13 40,-35 57,-66l84 48c-24,44 -55,77 -92,99 -36,21 -79,32 -128,32 -71,0 -127,-21 -169,-64 -42,-44 -63,-101 -63,-173 0,-69 22,-126 65,-170 43,-45 99,-67 167,-67 71,0 126,20 166,61 39,40 59,97 59,170l0 19zm-105 -67c-4,-32 -16,-56 -36,-72 -20,-17 -48,-25 -83,-25 -33,0 -59,8 -80,24 -20,16 -34,40 -42,73l241 0z"/>
  <path id="71" class="fil1" d="M9654 19610c11,-30 25,-51 43,-65 18,-14 40,-21 67,-21 14,0 28,2 42,5 13,3 27,8 40,15l-36 86c-9,-7 -18,-11 -28,-14 -10,-3 -21,-4 -34,-4 -33,0 -57,13 -72,40 -15,27 -22,72 -22,135l0 193 -101 0 0 -442 101 0 0 72z"/>
  <path id="72" class="fil1" d="M10319 19980l-101 0 0 -57c-18,25 -39,44 -63,57 -24,12 -52,18 -83,18 -62,0 -111,-21 -147,-64 -36,-42 -54,-101 -54,-175 0,-70 19,-127 55,-170 37,-44 85,-65 144,-65 36,0 66,7 92,22 26,15 44,37 56,65l0 -72 101 0 0 441zm-98 -222c0,-45 -11,-81 -32,-106 -21,-26 -51,-39 -89,-39 -38,0 -68,14 -90,40 -22,26 -33,63 -33,109 0,47 11,83 32,108 21,26 51,39 89,39 36,0 66,-14 89,-42 23,-27 34,-64 34,-109z"/>
  <polygon id="73" class="fil1" points="10463,19980 10463,19259 10564,19259 10564,19980 "/>
  <path id="74" class="fil1" d="M11133 19774l-353 0c3,42 15,74 37,97 22,23 51,35 88,35 33,0 60,-7 81,-21 22,-13 41,-35 57,-66l85 48c-25,44 -56,77 -92,99 -37,21 -80,32 -129,32 -71,0 -127,-21 -169,-64 -42,-44 -63,-101 -63,-173 0,-69 22,-126 65,-170 44,-45 99,-67 167,-67 71,0 126,20 166,61 40,40 60,97 60,170l0 19zm-105 -67c-4,-32 -16,-56 -36,-72 -20,-17 -48,-25 -83,-25 -33,0 -60,8 -80,24 -20,16 -34,40 -42,73l241 0z"/>
  <path id="75" class="fil1" d="M11187 19900l84 -46c6,22 18,39 34,51 17,11 39,17 65,17 23,0 40,-5 53,-16 13,-10 19,-24 19,-42 0,-24 -22,-45 -68,-62 -16,-5 -28,-10 -36,-14 -47,-19 -80,-39 -99,-59 -19,-20 -28,-45 -28,-73 0,-40 15,-72 46,-96 31,-25 72,-37 123,-37 34,0 63,6 87,19 25,12 42,30 53,54l-71 49c-5,-14 -15,-25 -28,-33 -13,-9 -28,-13 -45,-13 -20,0 -35,5 -47,14 -11,9 -17,21 -17,36 0,23 26,44 78,63 16,6 29,11 38,15 41,16 70,34 87,54 18,21 26,46 26,76 0,44 -16,79 -48,104 -31,25 -75,37 -132,37 -43,0 -78,-8 -107,-24 -28,-16 -51,-41 -67,-74z"/>
  <path id="76" class="fil1" d="M12248 19758c0,-45 -11,-81 -32,-106 -21,-26 -51,-39 -89,-39 -38,0 -68,14 -90,40 -22,26 -33,63 -33,109 0,47 11,83 32,108 21,26 51,39 89,39 37,0 66,-14 89,-42 22,-27 34,-63 34,-109zm-3 -499l101 0 0 721 -101 0 0 -57c-18,25 -39,44 -63,57 -24,12 -52,18 -83,18 -62,0 -111,-21 -147,-64 -36,-42 -54,-101 -54,-175 0,-70 19,-127 55,-170 37,-44 85,-65 144,-65 36,0 66,7 92,22 26,15 44,37 56,65l0 -352z"/>
  <path id="77" class="fil1" d="M12910 19774l-353 0c3,42 15,74 37,97 22,23 52,35 88,35 33,0 60,-7 82,-21 21,-13 40,-35 56,-66l85 48c-25,44 -55,77 -92,99 -36,21 -79,32 -129,32 -71,0 -127,-21 -169,-64 -41,-44 -62,-101 -62,-173 0,-69 21,-126 65,-170 43,-45 98,-67 166,-67 71,0 127,20 166,61 40,40 60,97 60,170l0 19zm-105 -67c-4,-32 -16,-56 -36,-72 -20,-17 -48,-25 -83,-25 -33,0 -60,8 -80,24 -20,16 -34,40 -42,73l241 0z"/>
  <path id="78" class="fil1" d="M13400 19539l0 249c0,42 9,73 27,92 18,18 46,28 86,28 39,0 68,-10 86,-28 17,-19 26,-50 26,-92l0 -249 101 0 0 218c0,85 -17,146 -50,184 -34,38 -88,57 -162,57 -75,0 -130,-19 -164,-56 -34,-38 -51,-100 -51,-185l0 -218 101 0z"/>
  <path id="79" class="fil1" d="M13812 19900l84 -46c6,22 17,39 34,51 17,11 38,17 64,17 23,0 41,-5 54,-16 13,-10 19,-24 19,-42 0,-24 -23,-45 -69,-62 -15,-5 -27,-10 -35,-14 -48,-19 -81,-39 -99,-59 -19,-20 -28,-45 -28,-73 0,-40 15,-72 46,-96 31,-25 71,-37 122,-37 34,0 64,6 88,19 24,12 42,30 53,54l-71 49c-6,-14 -15,-25 -28,-33 -13,-9 -29,-13 -46,-13 -19,0 -34,5 -46,14 -12,9 -17,21 -17,36 0,23 26,44 77,63 17,6 30,11 39,15 40,16 69,34 87,54 17,21 26,46 26,76 0,44 -16,79 -48,104 -32,25 -76,37 -132,37 -43,0 -79,-8 -107,-24 -29,-16 -51,-41 -67,-74z"/>
  <path id="80" class="fil1" d="M14615 19761c0,-41 -14,-76 -40,-104 -26,-28 -59,-43 -97,-43 -37,0 -70,15 -96,43 -27,28 -40,63 -40,104 0,41 13,76 40,104 26,29 59,43 96,43 38,0 70,-14 97,-43 26,-28 40,-63 40,-104zm-380 -1c0,-32 7,-63 19,-91 12,-29 30,-54 53,-77 22,-22 48,-39 78,-50 29,-12 60,-18 92,-18 34,0 65,6 94,18 29,11 56,29 79,52 23,22 41,48 53,76 12,29 18,59 18,90 0,33 -6,63 -18,92 -12,28 -29,54 -52,76 -24,23 -51,40 -81,52 -29,12 -60,18 -93,18 -32,0 -62,-6 -92,-18 -29,-12 -55,-29 -78,-51 -24,-23 -41,-49 -53,-78 -13,-28 -19,-59 -19,-91z"/>
  <path id="81" class="fil1" d="M15432 19758c0,-45 -10,-81 -31,-106 -22,-26 -51,-39 -90,-39 -38,0 -68,14 -90,40 -21,26 -32,63 -32,109 0,47 10,83 31,108 21,26 51,39 90,39 36,0 66,-14 88,-42 23,-27 34,-63 34,-109zm-2 -499l101 0 0 721 -101 0 0 -57c-18,25 -39,44 -63,57 -25,12 -52,18 -83,18 -62,0 -112,-21 -147,-64 -36,-42 -54,-101 -54,-175 0,-70 18,-127 55,-170 36,-44 84,-65 143,-65 36,0 67,7 93,22 25,15 44,37 56,65l0 -352z"/>
  <path id="82" class="fil1" d="M16094 19774l-352 0c3,42 15,74 37,97 22,23 51,35 88,35 32,0 59,-7 81,-21 22,-13 41,-35 57,-66l85 48c-25,44 -56,77 -92,99 -37,21 -80,32 -129,32 -71,0 -127,-21 -169,-64 -42,-44 -63,-101 -63,-173 0,-69 22,-126 65,-170 43,-45 99,-67 167,-67 71,0 126,20 166,61 40,40 59,97 59,170l0 19zm-104 -67c-4,-32 -16,-56 -37,-72 -20,-17 -47,-25 -82,-25 -33,0 -60,8 -80,24 -20,16 -34,40 -43,73l242 0z"/>
  <polygon id="83" class="fil1" points="16204,19980 16204,19259 16305,19259 16305,19980 "/>
  <path id="84" class="fil1" d="M1471 21042l84 -46c6,22 17,39 34,50 17,12 38,18 65,18 22,0 40,-5 53,-16 13,-10 19,-24 19,-42 0,-24 -23,-45 -69,-62 -15,-5 -27,-10 -35,-14 -48,-19 -81,-39 -99,-59 -19,-20 -28,-45 -28,-74 0,-39 15,-71 46,-96 31,-24 72,-36 122,-36 34,0 64,6 88,19 24,12 42,30 53,53l-71 50c-6,-14 -15,-25 -28,-34 -13,-8 -28,-12 -46,-12 -19,0 -34,4 -46,14 -12,9 -17,21 -17,36 0,23 26,44 78,63 16,6 29,11 38,14 40,17 69,35 87,55 17,20 26,46 26,76 0,44 -16,79 -48,104 -32,24 -76,37 -132,37 -43,0 -79,-8 -107,-24 -29,-16 -51,-41 -67,-74z"/>
  <path id="85" class="fil1" d="M2025 20681l0 248c0,43 9,74 27,93 17,18 46,27 85,27 40,0 69,-9 86,-27 18,-19 27,-50 27,-93l0 -248 101 0 0 218c0,84 -17,146 -51,184 -34,38 -88,57 -162,57 -75,0 -130,-19 -163,-57 -34,-37 -51,-99 -51,-184l0 -218 101 0z"/>
  <path id="86" class="fil1" d="M2912 20916l-353 0c3,41 15,74 37,97 22,23 51,35 88,35 33,0 60,-7 81,-21 22,-14 41,-36 57,-66l85 47c-25,45 -56,78 -92,99 -37,22 -80,33 -129,33 -71,0 -127,-22 -169,-65 -42,-43 -63,-100 -63,-172 0,-69 22,-126 65,-171 44,-44 99,-66 167,-66 71,0 126,20 166,61 40,40 60,97 60,170l0 19zm-105 -67c-4,-32 -16,-56 -36,-73 -21,-16 -48,-25 -83,-25 -33,0 -60,8 -80,24 -20,17 -34,41 -42,74l241 0z"/>
  <polygon id="87" class="fil1" points="3021,21122 3021,20401 3122,20401 3122,21122 "/>
  <path id="88" class="fil1" d="M3613 20903c0,-41 -13,-76 -40,-104 -26,-29 -58,-43 -96,-43 -38,0 -70,14 -97,43 -26,28 -39,63 -39,104 0,41 13,76 39,104 27,28 59,42 97,42 38,0 70,-14 96,-42 27,-28 40,-63 40,-104zm-379 -1c0,-32 6,-63 18,-91 13,-29 30,-55 53,-77 23,-22 49,-39 78,-51 30,-11 61,-17 93,-17 33,0 64,6 94,17 29,12 55,29 79,52 23,23 40,49 53,77 12,29 18,59 18,90 0,32 -6,63 -18,91 -12,29 -30,54 -53,76 -24,24 -51,41 -80,53 -30,12 -61,18 -93,18 -32,0 -63,-6 -92,-18 -30,-12 -56,-29 -79,-52 -23,-23 -41,-48 -53,-77 -12,-28 -18,-59 -18,-91z"/>
  <path id="89" class="fil1" d="M4431 20900c0,-46 -11,-81 -32,-107 -21,-25 -51,-38 -89,-38 -38,0 -68,13 -90,40 -22,26 -33,62 -33,109 0,47 10,83 32,108 21,26 51,38 89,38 37,0 66,-13 89,-41 23,-27 34,-63 34,-109zm98 430l-101 0 0 -265c-18,25 -39,44 -63,56 -24,13 -52,19 -83,19 -62,0 -111,-21 -147,-64 -36,-43 -54,-101 -54,-175 0,-70 19,-127 55,-170 37,-44 85,-65 144,-65 36,0 66,7 92,22 26,15 44,37 56,65l0 -72 101 0 0 649z"/>
  <path id="90" class="fil1" d="M4766 20681l0 248c0,43 9,74 27,93 17,18 46,27 86,27 39,0 68,-9 85,-27 18,-19 27,-50 27,-93l0 -248 101 0 0 218c0,84 -17,146 -51,184 -34,38 -88,57 -162,57 -75,0 -129,-19 -163,-57 -34,-37 -51,-99 -51,-184l0 -218 101 0z"/>
  <path id="91" class="fil1" d="M5653 20916l-353 0c3,41 15,74 37,97 22,23 51,35 88,35 33,0 60,-7 81,-21 22,-14 41,-36 57,-66l85 47c-25,45 -55,78 -92,99 -37,22 -80,33 -129,33 -71,0 -127,-22 -169,-65 -41,-43 -62,-100 -62,-172 0,-69 21,-126 64,-171 44,-44 99,-66 167,-66 71,0 127,20 166,61 40,40 60,97 60,170l0 19zm-105 -67c-4,-32 -16,-56 -36,-73 -20,-16 -48,-25 -83,-25 -33,0 -60,8 -80,24 -20,17 -34,41 -42,74l241 0z"/>
  <polygon id="92" class="fil1" points="6069,21122 6069,20769 5992,20769 5992,20681 6069,20681 6069,20514 6170,20514 6170,20681 6247,20681 6247,20769 6170,20769 6170,21122 "/>
  <path id="93" class="fil1" d="M6759 20916l-353 0c3,41 15,74 37,97 22,23 51,35 88,35 33,0 60,-7 81,-21 22,-14 41,-36 57,-66l85 47c-25,45 -55,78 -92,99 -37,22 -80,33 -129,33 -71,0 -127,-22 -169,-65 -41,-43 -62,-100 -62,-172 0,-69 21,-126 65,-171 43,-44 98,-66 166,-66 71,0 127,20 166,61 40,40 60,97 60,170l0 19zm-105 -67c-4,-32 -16,-56 -36,-73 -20,-16 -48,-25 -83,-25 -33,0 -60,8 -80,24 -20,17 -34,41 -42,74l241 0z"/>
  <path id="94" class="fil1" d="M6864 21122l0 -441 95 0 0 72c20,-30 43,-52 71,-66 27,-14 60,-21 99,-21 33,0 61,5 84,15 23,11 42,26 55,47 7,12 13,26 16,42 4,16 5,44 5,85l0 267 -101 0 0 -226c0,-58 -7,-97 -22,-116 -14,-19 -39,-29 -75,-29 -23,0 -44,5 -63,13 -18,9 -33,21 -43,37 -8,11 -13,24 -16,41 -3,16 -4,43 -4,79l0 201 -101 0z"/>
  <path id="95" class="fil1" d="M7741 20900c0,-46 -11,-81 -32,-107 -21,-25 -51,-38 -89,-38 -38,0 -68,13 -90,40 -22,26 -33,62 -33,109 0,47 10,83 32,108 21,26 51,38 89,38 36,0 66,-13 89,-41 22,-28 34,-64 34,-109zm98 195c0,86 -17,146 -52,182 -34,35 -92,53 -174,53 -61,0 -109,-13 -145,-39 -37,-26 -55,-60 -56,-102l109 -1c1,19 10,34 26,44 16,10 39,15 68,15 43,0 74,-10 93,-29 19,-19 29,-50 29,-95l1 -58c-18,25 -39,44 -63,56 -24,13 -52,19 -83,19 -62,0 -111,-21 -147,-64 -36,-43 -54,-101 -54,-175 0,-70 18,-127 55,-170 37,-44 85,-65 144,-65 36,0 66,7 92,22 25,15 44,37 56,65l0 -72 101 0 0 414z"/>
  <path id="96" class="fil1" d="M8393 21122l-101 0 0 -57c-18,25 -39,44 -63,56 -24,13 -51,19 -82,19 -63,0 -112,-21 -148,-64 -35,-43 -53,-101 -53,-175 0,-70 18,-127 55,-170 36,-44 84,-65 143,-65 36,0 67,7 92,22 26,15 45,37 56,65l0 -72 101 0 0 441zm-98 -222c0,-46 -10,-81 -32,-107 -21,-25 -51,-38 -89,-38 -38,0 -68,13 -90,40 -22,26 -33,62 -33,109 0,47 11,83 32,108 21,26 51,38 89,38 37,0 66,-13 89,-41 23,-28 34,-64 34,-109z"/>
  <path id="97" class="fil1" d="M8532 21122l0 -441 95 0 0 72c20,-30 44,-52 71,-66 28,-14 61,-21 100,-21 33,0 61,5 84,15 23,11 41,26 54,47 8,12 14,26 17,42 3,16 5,44 5,85l0 267 -102 0 0 -226c0,-58 -7,-97 -21,-116 -14,-19 -39,-29 -75,-29 -24,0 -45,5 -63,13 -19,9 -33,21 -44,37 -7,11 -12,24 -15,41 -3,16 -5,43 -5,79l0 201 -101 0z"/>
  <path id="98" class="fil1" d="M9805 20916l-353 0c3,41 15,74 37,97 22,23 51,35 88,35 32,0 60,-7 81,-21 22,-14 41,-36 57,-66l85 47c-25,45 -56,78 -92,99 -37,22 -80,33 -129,33 -71,0 -127,-22 -169,-65 -42,-43 -63,-100 -63,-172 0,-69 22,-126 65,-171 43,-44 99,-66 167,-66 71,0 126,20 166,61 40,40 60,97 60,170l0 19zm-105 -67c-4,-32 -16,-56 -36,-73 -21,-16 -48,-25 -83,-25 -33,0 -60,8 -80,24 -20,17 -34,41 -42,74l241 0z"/>
  <path id="99" class="fil1" d="M9909 21122l0 -441 95 0 0 72c21,-30 44,-52 72,-66 27,-14 60,-21 99,-21 33,0 61,5 84,15 23,11 41,26 54,47 8,12 14,26 17,42 4,16 5,44 5,85l0 267 -102 0 0 -226c0,-58 -7,-97 -21,-116 -14,-19 -39,-29 -75,-29 -24,0 -45,5 -63,13 -18,9 -33,21 -44,37 -7,11 -12,24 -15,41 -3,16 -5,43 -5,79l0 201 -101 0z"/>
  <path id="100" class="fil1" d="M11086 20807c-15,-17 -33,-30 -54,-39 -20,-9 -43,-14 -66,-14 -42,0 -75,14 -100,40 -24,27 -37,62 -37,106 0,46 13,82 38,108 25,27 59,40 103,40 25,0 47,-5 66,-14 19,-9 36,-23 50,-42l0 117c-18,10 -38,18 -59,23 -21,5 -44,8 -68,8 -69,0 -126,-22 -169,-66 -44,-44 -65,-101 -65,-171 0,-71 22,-128 67,-172 45,-44 104,-65 177,-65 23,0 44,2 63,6 20,5 38,12 54,21l0 114z"/>
  <path id="101" class="fil1" d="M11288 20681l0 248c0,43 8,74 26,93 18,18 46,27 86,27 40,0 68,-9 86,-27 18,-19 26,-50 26,-93l0 -248 101 0 0 218c0,84 -16,146 -50,184 -34,38 -88,57 -162,57 -75,0 -130,-19 -164,-57 -34,-37 -50,-99 -50,-184l0 -218 101 0z"/>
  <path id="102" class="fil1" d="M12174 20916l-352 0c2,41 15,74 37,97 22,23 51,35 88,35 32,0 59,-7 81,-21 22,-14 40,-36 57,-66l84 47c-24,45 -55,78 -92,99 -36,22 -79,33 -128,33 -71,0 -127,-22 -169,-65 -42,-43 -63,-100 -63,-172 0,-69 22,-126 65,-171 43,-44 99,-66 167,-66 71,0 126,20 166,61 39,40 59,97 59,170l0 19zm-105 -67c-4,-32 -16,-56 -36,-73 -20,-16 -48,-25 -82,-25 -34,0 -60,8 -80,24 -20,17 -35,41 -43,74l241 0z"/>
  <path id="103" class="fil1" d="M12279 21122l0 -441 95 0 0 72c20,-30 44,-52 71,-66 28,-14 61,-21 100,-21 33,0 61,5 84,15 23,11 41,26 54,47 8,12 13,26 17,42 3,16 5,44 5,85l0 267 -102 0 0 -226c0,-58 -7,-97 -21,-116 -14,-19 -39,-29 -75,-29 -24,0 -45,5 -63,13 -19,9 -33,21 -44,37 -7,11 -13,24 -15,41 -3,16 -5,43 -5,79l0 201 -101 0z"/>
  <polygon id="104" class="fil1" points="12863,21122 12863,20769 12786,20769 12786,20681 12863,20681 12863,20514 12964,20514 12964,20681 13041,20681 13041,20769 12964,20769 12964,21122 "/>
  <path id="105" class="fil1" d="M13543 21122l-101 0 0 -57c-18,25 -39,44 -63,56 -24,13 -51,19 -83,19 -62,0 -111,-21 -147,-64 -36,-43 -54,-101 -54,-175 0,-70 19,-127 55,-170 37,-44 85,-65 144,-65 36,0 67,7 92,22 26,15 44,37 56,65l0 -72 101 0 0 441zm-98 -222c0,-46 -11,-81 -32,-107 -21,-25 -51,-38 -89,-38 -38,0 -68,13 -90,40 -22,26 -33,62 -33,109 0,47 11,83 32,108 21,26 51,38 89,38 37,0 66,-13 89,-41 23,-28 34,-64 34,-109z"/>
  <path id="106" class="fil1" d="M13919 21042l84 -46c6,22 18,39 34,50 17,12 39,18 65,18 23,0 40,-5 53,-16 13,-10 19,-24 19,-42 0,-24 -22,-45 -68,-62 -16,-5 -28,-10 -36,-14 -47,-19 -80,-39 -99,-59 -19,-20 -28,-45 -28,-74 0,-39 15,-71 46,-96 31,-24 72,-36 123,-36 34,0 63,6 87,19 25,12 42,30 54,53l-72 50c-5,-14 -14,-25 -28,-34 -13,-8 -28,-12 -45,-12 -20,0 -35,4 -47,14 -11,9 -17,21 -17,36 0,23 26,44 78,63 16,6 29,11 38,14 41,17 70,35 87,55 18,20 27,46 27,76 0,44 -16,79 -48,104 -32,24 -76,37 -132,37 -43,0 -79,-8 -108,-24 -28,-16 -51,-41 -67,-74z"/>
  <path id="107" class="fil1" d="M14473 20681l0 248c0,43 9,74 27,93 18,18 46,27 86,27 39,0 68,-9 86,-27 17,-19 26,-50 26,-93l0 -248 101 0 0 218c0,84 -17,146 -50,184 -34,38 -88,57 -162,57 -75,0 -130,-19 -164,-57 -34,-37 -51,-99 -51,-184l0 -218 101 0z"/>
  <path id="108" class="fil1" d="M1676 22290l-231 -467 110 0 97 222c3,6 7,17 11,30 4,14 9,30 13,49 4,-13 7,-27 11,-40 4,-13 10,-26 15,-39l96 -222 110 0 -232 467z"/>
  <path id="109" class="fil1" d="M2318 22045c0,-41 -13,-76 -40,-105 -26,-28 -58,-42 -96,-42 -38,0 -70,14 -97,42 -27,29 -40,64 -40,105 0,40 13,75 40,104 27,28 59,42 97,42 37,0 70,-14 96,-42 27,-29 40,-64 40,-104zm-379 -1c0,-33 6,-63 18,-92 12,-28 30,-54 53,-76 22,-22 48,-39 78,-51 30,-12 60,-18 93,-18 33,0 64,6 93,18 30,12 56,29 79,52 23,23 41,48 53,77 12,28 18,58 18,90 0,32 -6,63 -18,91 -11,29 -29,54 -52,76 -24,23 -51,41 -80,53 -30,12 -61,18 -93,18 -32,0 -63,-6 -93,-18 -29,-12 -55,-29 -78,-52 -23,-23 -41,-49 -53,-77 -12,-29 -18,-59 -18,-91z"/>
  <path id="110" class="fil1" d="M2860 21948c-15,-17 -33,-30 -54,-39 -20,-9 -43,-13 -66,-13 -42,0 -75,13 -100,40 -24,27 -37,62 -37,106 0,46 13,82 38,108 25,26 59,39 103,39 25,0 47,-4 66,-13 19,-10 36,-23 50,-42l0 116c-18,11 -38,19 -59,24 -21,5 -44,8 -68,8 -69,0 -126,-22 -169,-66 -44,-44 -65,-101 -65,-171 0,-71 22,-129 67,-172 45,-44 104,-66 177,-66 23,0 44,3 64,7 19,5 37,12 53,21l0 113z"/>
  <path id="111" class="fil1" d="M3379 22264l-101 0 0 -57c-18,25 -39,44 -63,56 -24,13 -52,19 -83,19 -62,0 -111,-22 -147,-64 -36,-43 -54,-101 -54,-175 0,-71 18,-128 55,-171 37,-43 85,-65 143,-65 36,0 67,8 93,23 25,15 44,36 56,65l0 -72 101 0 0 441zm-98 -222c0,-46 -11,-81 -32,-107 -21,-25 -51,-38 -89,-38 -39,0 -69,13 -90,39 -22,26 -33,63 -33,109 0,47 10,84 31,109 22,25 51,38 90,38 36,0 66,-14 88,-41 23,-28 35,-64 35,-109z"/>
  <path id="112" class="fil1" d="M3847 21948c-15,-17 -33,-30 -54,-39 -20,-9 -43,-13 -67,-13 -41,0 -74,13 -99,40 -24,27 -37,62 -37,106 0,46 13,82 38,108 25,26 59,39 103,39 25,0 47,-4 66,-13 19,-10 36,-23 50,-42l0 116c-18,11 -38,19 -59,24 -22,5 -44,8 -68,8 -69,0 -126,-22 -169,-66 -44,-44 -66,-101 -66,-171 0,-71 23,-129 68,-172 45,-44 104,-66 177,-66 23,0 44,3 63,7 20,5 38,12 54,21l0 113z"/>
  <path id="113" class="fil1" d="M3942 21632c0,-17 6,-32 19,-44 12,-13 27,-19 45,-19 18,0 33,6 45,18 12,12 18,27 18,45 0,18 -6,33 -19,46 -12,12 -27,18 -44,18 -18,0 -33,-6 -45,-19 -13,-13 -19,-27 -19,-45zm13 632l0 -441 101 0 0 441 -101 0z"/>
  <path id="114" class="fil1" d="M4547 22045c0,-41 -13,-76 -40,-105 -26,-28 -58,-42 -96,-42 -38,0 -70,14 -97,42 -26,29 -40,64 -40,105 0,40 14,75 40,104 27,28 59,42 97,42 37,0 70,-14 96,-42 27,-29 40,-64 40,-104zm-379 -1c0,-33 6,-63 18,-92 12,-28 30,-54 53,-76 23,-22 49,-39 78,-51 30,-12 61,-18 93,-18 33,0 64,6 94,18 29,12 55,29 78,52 24,23 41,48 53,77 13,28 19,58 19,90 0,32 -6,63 -18,91 -12,29 -30,54 -53,76 -24,23 -51,41 -80,53 -30,12 -61,18 -93,18 -32,0 -63,-6 -92,-18 -30,-12 -56,-29 -79,-52 -23,-23 -41,-49 -53,-77 -12,-29 -18,-59 -18,-91zm177 -288l89 -127 104 0 -136 127 -57 0z"/>
  <path id="115" class="fil1" d="M4760 22264l0 -441 95 0 0 72c20,-30 44,-53 71,-67 27,-14 61,-21 100,-21 33,0 61,6 84,16 23,10 41,26 54,46 8,12 13,26 17,43 3,16 5,44 5,84l0 268 -102 0 0 -227c0,-58 -7,-96 -21,-115 -14,-19 -39,-29 -75,-29 -24,0 -45,4 -63,13 -19,9 -33,21 -44,37 -7,10 -13,24 -16,41 -3,16 -4,42 -4,79l0 201 -101 0z"/>
  <path id="116" class="fil1" d="M5684 22471l-104 0 121 -245 -162 -403 112 0 80 228c5,14 9,28 13,43 3,14 6,29 8,44 5,-16 14,-41 29,-74l3 -6 108 -235 110 0 -318 648z"/>
  <polygon id="117" class="fil1" points="6349,22264 6349,21543 6450,21543 6450,22264 "/>
  <path id="118" class="fil1" d="M7009 22264l-101 0 0 -57c-18,25 -39,44 -63,56 -24,13 -52,19 -83,19 -62,0 -111,-22 -147,-64 -36,-43 -54,-101 -54,-175 0,-71 18,-128 55,-171 37,-43 84,-65 143,-65 36,0 67,8 93,23 25,15 44,36 56,65l0 -72 101 0 0 441zm-98 -222c0,-46 -11,-81 -32,-107 -22,-25 -51,-38 -89,-38 -39,0 -69,13 -90,39 -22,26 -33,63 -33,109 0,47 10,84 31,109 22,25 51,38 90,38 36,0 66,-14 88,-41 23,-28 35,-64 35,-109z"/>
  <path id="119" class="fil1" d="M7097 22184l84 -46c6,22 18,39 35,50 16,12 38,18 64,18 23,0 41,-6 53,-16 13,-11 20,-25 20,-43 0,-24 -23,-44 -69,-61 -15,-6 -28,-10 -36,-14 -47,-20 -80,-40 -99,-60 -18,-20 -28,-44 -28,-73 0,-39 16,-71 46,-96 31,-24 72,-37 123,-37 34,0 63,7 88,19 24,13 42,31 53,54l-72 49c-5,-14 -14,-25 -27,-33 -14,-8 -29,-12 -46,-12 -19,0 -35,4 -46,13 -12,9 -18,22 -18,37 0,23 26,44 78,63 17,6 29,10 38,14 41,16 70,34 88,55 17,20 26,45 26,76 0,44 -16,78 -48,103 -32,25 -76,38 -132,38 -43,0 -79,-8 -108,-24 -28,-17 -50,-41 -67,-74z"/>
  <path id="120" class="fil1" d="M7996 22290l-231 -467 110 0 96 222c3,6 7,17 12,30 4,14 8,30 13,49 3,-13 7,-27 11,-40 4,-13 9,-26 15,-39l96 -222 110 0 -232 467z"/>
  <path id="121" class="fil1" d="M8282 21632c0,-17 6,-32 19,-44 13,-13 27,-19 45,-19 18,0 33,6 45,18 12,12 18,27 18,45 0,18 -6,33 -18,46 -13,12 -27,18 -45,18 -18,0 -32,-6 -45,-19 -13,-13 -19,-27 -19,-45zm13 632l0 -441 101 0 0 441 -101 0z"/>
  <path id="122" class="fil1" d="M8490 22184l84 -46c6,22 17,39 34,50 17,12 38,18 65,18 22,0 40,-6 53,-16 13,-11 19,-25 19,-43 0,-24 -23,-44 -69,-61 -15,-6 -27,-10 -35,-14 -47,-20 -80,-40 -99,-60 -19,-20 -28,-44 -28,-73 0,-39 15,-71 46,-96 31,-24 72,-37 122,-37 35,0 64,7 88,19 24,13 42,31 53,54l-71 49c-6,-14 -15,-25 -28,-33 -13,-8 -28,-12 -46,-12 -19,0 -34,4 -46,13 -11,9 -17,22 -17,37 0,23 26,44 78,63 16,6 29,10 38,14 40,16 69,34 87,55 18,20 26,45 26,76 0,44 -16,78 -48,103 -32,25 -76,38 -132,38 -43,0 -79,-8 -107,-24 -29,-17 -51,-41 -67,-74z"/>
  <path id="123" class="fil1" d="M8937 21632c0,-17 7,-32 19,-44 13,-13 28,-19 45,-19 18,0 33,6 45,18 12,12 18,27 18,45 0,18 -6,33 -18,46 -12,12 -27,18 -45,18 -17,0 -32,-6 -45,-19 -12,-13 -19,-27 -19,-45zm14 632l0 -441 101 0 0 441 -101 0z"/>
  <path id="124" class="fil1" d="M9542 22045c0,-41 -13,-76 -39,-105 -26,-28 -59,-42 -97,-42 -38,0 -70,14 -96,42 -27,29 -40,64 -40,105 0,40 13,75 40,104 26,28 58,42 96,42 38,0 70,-14 97,-42 26,-29 39,-64 39,-104zm-379 -1c0,-33 7,-63 19,-92 12,-28 30,-54 52,-76 23,-22 49,-39 79,-51 29,-12 60,-18 92,-18 33,0 65,6 94,18 29,12 56,29 79,52 23,23 41,48 53,77 12,28 18,58 18,90 0,32 -6,63 -18,91 -12,29 -29,54 -52,76 -24,23 -51,41 -81,53 -29,12 -60,18 -93,18 -32,0 -62,-6 -92,-18 -29,-12 -56,-29 -79,-52 -23,-23 -40,-49 -53,-77 -12,-29 -18,-59 -18,-91z"/>
  <path id="125" class="fil1" d="M9756 22264l0 -441 95 0 0 72c20,-30 43,-53 71,-67 27,-14 60,-21 99,-21 33,0 61,6 84,16 23,10 41,26 55,46 7,12 13,26 16,43 4,16 5,44 5,84l0 268 -102 0 0 -227c0,-58 -6,-96 -21,-115 -14,-19 -39,-29 -75,-29 -23,0 -44,4 -63,13 -18,9 -33,21 -43,37 -8,10 -13,24 -16,41 -3,16 -4,42 -4,79l0 201 -101 0z"/>
  <path id="126" class="fil1" d="M10740 22058l-352 0c2,41 15,73 37,97 22,23 51,34 88,34 32,0 59,-7 81,-20 22,-14 41,-36 57,-66l85 47c-25,45 -56,77 -92,99 -37,22 -80,33 -129,33 -71,0 -127,-22 -169,-65 -42,-43 -63,-101 -63,-172 0,-70 22,-126 65,-171 43,-44 99,-67 167,-67 71,0 126,21 166,61 40,41 59,98 59,171l0 19zm-104 -68c-4,-31 -16,-55 -37,-72 -20,-17 -47,-25 -82,-25 -33,0 -60,8 -80,24 -20,16 -34,41 -43,73l242 0z"/>
  <path id="127" class="fil1" d="M10795 22184l84 -46c6,22 17,39 34,50 17,12 38,18 65,18 22,0 40,-6 53,-16 13,-11 19,-25 19,-43 0,-24 -23,-44 -69,-61 -15,-6 -27,-10 -35,-14 -48,-20 -81,-40 -99,-60 -19,-20 -28,-44 -28,-73 0,-39 15,-71 46,-96 31,-24 72,-37 122,-37 35,0 64,7 88,19 24,13 42,31 53,54l-71 49c-6,-14 -15,-25 -28,-33 -13,-8 -28,-12 -46,-12 -19,0 -34,4 -46,13 -12,9 -17,22 -17,37 0,23 26,44 78,63 16,6 29,10 38,14 40,16 69,34 87,55 17,20 26,45 26,76 0,44 -16,78 -48,103 -32,25 -76,38 -132,38 -43,0 -79,-8 -107,-24 -29,-17 -51,-41 -67,-74z"/>
  <polygon id="128" class="fil1" points="11562,22264 11562,21911 11485,21911 11485,21823 11562,21823 11562,21656 11663,21656 11663,21823 11740,21823 11740,21911 11663,21911 11663,22264 "/>
  <path id="129" class="fil1" d="M12252 22058l-352 0c2,41 14,73 36,97 22,23 52,34 88,34 33,0 60,-7 82,-20 21,-14 40,-36 56,-66l85 47c-25,45 -55,77 -92,99 -36,22 -79,33 -129,33 -70,0 -127,-22 -168,-65 -42,-43 -63,-101 -63,-172 0,-70 21,-126 65,-171 43,-44 98,-67 166,-67 71,0 127,21 166,61 40,41 60,98 60,171l0 19zm-105 -68c-4,-31 -16,-55 -36,-72 -20,-17 -48,-25 -83,-25 -33,0 -60,8 -80,24 -20,16 -34,41 -42,73l241 0z"/>
  <path id="130" class="fil1" d="M12458 21893c11,-29 25,-51 43,-65 18,-14 40,-21 66,-21 15,0 29,2 43,5 13,4 27,9 40,15l-36 86c-9,-6 -18,-11 -28,-14 -10,-3 -22,-4 -34,-4 -34,0 -58,13 -72,40 -15,27 -22,72 -22,135l0 194 -101 0 0 -442 101 0 0 71z"/>
  <path id="131" class="fil1" d="M12809 21893c11,-29 25,-51 43,-65 18,-14 40,-21 66,-21 14,0 28,2 42,5 14,4 28,9 41,15l-36 86c-9,-6 -18,-11 -28,-14 -11,-3 -22,-4 -34,-4 -34,0 -58,13 -73,40 -14,27 -21,72 -21,135l0 194 -101 0 0 -442 101 0 0 71z"/>
  <path id="132" class="fil1" d="M13050 21632c0,-17 6,-32 19,-44 12,-13 27,-19 45,-19 17,0 33,6 44,18 12,12 18,27 18,45 0,18 -6,33 -18,46 -12,12 -27,18 -44,18 -18,0 -33,-6 -45,-19 -13,-13 -19,-27 -19,-45zm13 632l0 -441 101 0 0 441 -101 0z"/>
  <polygon id="133" class="fil1" points="13332,22264 13332,21911 13255,21911 13255,21823 13332,21823 13332,21656 13433,21656 13433,21823 13510,21823 13510,21911 13433,21911 13433,22264 "/>
  <path id="134" class="fil1" d="M13943 22045c0,-41 -13,-76 -39,-105 -26,-28 -59,-42 -97,-42 -38,0 -70,14 -96,42 -27,29 -40,64 -40,105 0,40 13,75 40,104 26,28 58,42 96,42 38,0 70,-14 97,-42 26,-29 39,-64 39,-104zm-379 -1c0,-33 7,-63 19,-92 12,-28 30,-54 53,-76 22,-22 48,-39 78,-51 29,-12 60,-18 92,-18 34,0 65,6 94,18 29,12 56,29 79,52 23,23 41,48 53,77 12,28 18,58 18,90 0,32 -6,63 -18,91 -12,29 -29,54 -52,76 -24,23 -51,41 -81,53 -29,12 -60,18 -93,18 -32,0 -62,-6 -92,-18 -29,-12 -55,-29 -78,-52 -24,-23 -41,-49 -54,-77 -12,-29 -18,-59 -18,-91z"/>
  <path id="135" class="fil1" d="M14258 21893c11,-29 25,-51 43,-65 18,-14 40,-21 66,-21 14,0 28,2 42,5 14,4 28,9 41,15l-36 86c-9,-6 -18,-11 -28,-14 -11,-3 -22,-4 -34,-4 -34,0 -58,13 -72,40 -15,27 -22,72 -22,135l0 194 -101 0 0 -442 101 0 0 71z"/>
  <path id="136" class="fil1" d="M14499 21632c0,-17 6,-32 19,-44 12,-13 27,-19 45,-19 18,0 33,6 45,18 11,12 17,27 17,45 0,18 -6,33 -18,46 -12,12 -27,18 -44,18 -18,0 -33,-6 -45,-19 -13,-13 -19,-27 -19,-45zm13 632l0 -441 101 0 0 441 -101 0z"/>
  <path id="137" class="fil1" d="M15172 22264l-101 0 0 -57c-18,25 -39,44 -63,56 -24,13 -51,19 -82,19 -63,0 -112,-22 -147,-64 -36,-43 -54,-101 -54,-175 0,-71 18,-128 55,-171 36,-43 84,-65 143,-65 36,0 67,8 92,23 26,15 45,36 56,65l0 -72 101 0 0 441zm-98 -222c0,-46 -10,-81 -32,-107 -21,-25 -51,-38 -89,-38 -38,0 -68,13 -90,39 -22,26 -33,63 -33,109 0,47 11,84 32,109 21,25 51,38 89,38 37,0 66,-14 89,-41 23,-28 34,-64 34,-109z"/>
  <polygon id="138" class="fil1" points="15316,22264 15316,21543 15417,21543 15417,22264 "/>
  <path id="139" class="fil1" d="M15986 22058l-352 0c2,41 14,73 36,97 22,23 52,34 88,34 33,0 60,-7 82,-20 21,-14 40,-36 56,-66l85 47c-25,45 -55,77 -92,99 -36,22 -79,33 -129,33 -70,0 -127,-22 -169,-65 -41,-43 -62,-101 -62,-172 0,-70 21,-126 65,-171 43,-44 98,-67 166,-67 71,0 127,21 166,61 40,41 60,98 60,171l0 19zm-105 -68c-4,-31 -16,-55 -36,-72 -20,-17 -48,-25 -83,-25 -33,0 -60,8 -80,24 -20,16 -34,41 -42,73l241 0z"/>
  <path id="140" class="fil1" d="M16040 22184l84 -46c6,22 18,39 35,50 16,12 38,18 64,18 23,0 41,-6 53,-16 13,-11 20,-25 20,-43 0,-24 -23,-44 -69,-61 -15,-6 -28,-10 -36,-14 -47,-20 -80,-40 -99,-60 -18,-20 -28,-44 -28,-73 0,-39 16,-71 46,-96 31,-24 72,-37 123,-37 34,0 63,7 88,19 24,13 42,31 53,54l-72 49c-5,-14 -14,-25 -27,-33 -14,-8 -29,-12 -46,-12 -19,0 -35,4 -46,13 -12,9 -18,22 -18,37 0,23 26,44 78,63 17,6 29,10 38,14 41,16 70,34 88,55 17,20 26,45 26,76 0,44 -16,78 -48,103 -32,25 -76,38 -132,38 -43,0 -79,-8 -108,-24 -28,-17 -50,-41 -67,-74z"/>
  <path id="141" class="fil1" d="M1851 23090c-16,-17 -34,-30 -54,-39 -21,-9 -43,-13 -67,-13 -41,0 -74,13 -99,40 -25,26 -37,62 -37,106 0,46 12,82 37,108 25,26 60,39 104,39 24,0 46,-5 65,-14 19,-9 36,-23 51,-41l0 116c-19,10 -39,18 -60,24 -21,5 -44,7 -68,7 -69,0 -125,-22 -169,-66 -43,-44 -65,-101 -65,-171 0,-71 22,-128 68,-171 45,-44 104,-66 177,-66 23,0 44,2 63,7 19,4 37,11 54,21l0 113z"/>
  <path id="142" class="fil1" d="M2301 23186c0,-41 -14,-75 -40,-104 -26,-28 -59,-42 -97,-42 -37,0 -70,14 -96,42 -27,29 -40,63 -40,104 0,41 13,76 40,104 26,29 59,43 96,43 38,0 70,-14 97,-43 26,-28 40,-63 40,-104zm-380 -1c0,-32 7,-62 19,-91 12,-29 30,-54 53,-76 22,-23 48,-39 78,-51 29,-12 60,-18 92,-18 34,0 65,6 94,18 29,12 56,29 79,52 23,22 41,48 53,77 12,28 18,58 18,89 0,33 -6,63 -18,92 -12,28 -29,54 -52,76 -24,23 -51,41 -81,53 -29,11 -60,17 -93,17 -31,0 -62,-6 -92,-17 -29,-12 -55,-30 -78,-52 -24,-23 -41,-49 -53,-78 -12,-28 -19,-58 -19,-91z"/>
  <path id="143" class="fil1" d="M2514 23405l0 -441 95 0 0 73c20,-31 44,-53 71,-67 27,-14 60,-21 100,-21 32,0 60,5 84,16 23,10 41,26 54,46 7,12 13,26 16,42 4,16 6,45 6,85l0 267 -102 0 0 -226c0,-58 -7,-97 -21,-116 -15,-19 -40,-28 -76,-28 -23,0 -44,4 -63,13 -18,9 -33,21 -43,37 -8,10 -13,24 -16,40 -3,17 -4,43 -4,80l0 200 -101 0z"/>
  <path id="144" class="fil1" d="M3023 23325l84 -45c6,22 18,39 34,50 17,12 39,17 65,17 23,0 40,-5 53,-15 13,-11 19,-25 19,-43 0,-24 -22,-44 -68,-61 -16,-6 -28,-11 -36,-14 -47,-20 -80,-40 -99,-60 -19,-20 -28,-45 -28,-73 0,-40 15,-72 46,-96 31,-25 72,-37 123,-37 34,0 63,6 87,19 25,13 42,30 54,54l-72 49c-5,-14 -14,-25 -28,-33 -13,-9 -28,-13 -45,-13 -20,0 -35,5 -47,14 -11,9 -17,21 -17,37 0,23 26,43 78,62 16,6 29,11 38,15 41,16 70,34 87,54 18,21 27,46 27,76 0,45 -16,79 -48,104 -32,25 -76,37 -132,37 -44,0 -79,-8 -108,-24 -28,-16 -51,-40 -67,-74z"/>
  <polygon id="145" class="fil1" points="3503,23405 3503,23053 3426,23053 3426,22964 3503,22964 3503,22798 3604,22798 3604,22964 3681,22964 3681,23053 3604,23053 3604,23405 "/>
  <path id="146" class="fil1" d="M3869 23035c11,-29 25,-51 43,-65 18,-14 40,-21 67,-21 14,0 28,2 42,5 13,4 27,9 40,15l-36 86c-9,-6 -18,-11 -28,-14 -10,-3 -21,-4 -34,-4 -33,0 -57,13 -72,40 -15,27 -22,72 -22,135l0 193 -101 0 0 -442 101 0 0 72z"/>
  <path id="147" class="fil1" d="M4217 22964l0 249c0,43 9,73 26,92 18,19 47,28 86,28 40,0 69,-9 86,-28 18,-19 27,-49 27,-92l0 -249 101 0 0 219c0,84 -17,145 -51,183 -34,38 -88,57 -162,57 -75,0 -130,-18 -163,-56 -34,-38 -51,-99 -51,-184l0 -219 101 0z"/>
  <path id="148" class="fil1" d="M4670 22774c0,-17 6,-32 19,-44 13,-13 27,-19 45,-19 18,0 33,6 45,18 12,12 18,27 18,45 0,18 -6,33 -18,45 -13,12 -27,19 -45,19 -18,0 -32,-7 -45,-19 -13,-13 -19,-28 -19,-45zm13 631l0 -441 101 0 0 441 -101 0z"/>
  <path id="149" class="fil1" d="M5246 23183c0,-45 -11,-81 -32,-106 -22,-26 -51,-38 -89,-38 -39,0 -69,13 -90,39 -22,26 -33,63 -33,109 0,47 10,83 31,109 21,25 51,38 90,38 36,0 66,-14 89,-41 22,-28 34,-64 34,-110zm-3 -499l101 0 0 721 -101 0 0 -57c-18,26 -39,44 -63,57 -24,12 -52,18 -83,18 -62,0 -111,-21 -147,-64 -36,-42 -54,-100 -54,-175 0,-70 18,-127 55,-170 37,-43 84,-65 143,-65 36,0 67,8 93,23 25,15 44,36 56,64l0 -352z"/>
  <path id="150" class="fil1" d="M5898 23405l-101 0 0 -57c-18,26 -39,44 -63,57 -24,12 -52,18 -83,18 -62,0 -111,-21 -147,-64 -36,-42 -54,-100 -54,-175 0,-70 19,-127 55,-170 37,-43 85,-65 144,-65 36,0 66,8 92,23 26,15 44,36 56,64l0 -72 101 0 0 441zm-98 -222c0,-45 -11,-81 -32,-106 -21,-26 -51,-38 -89,-38 -38,0 -68,13 -90,39 -22,26 -33,63 -33,109 0,47 11,83 32,109 21,25 51,38 89,38 36,0 66,-14 89,-42 22,-27 34,-64 34,-109z"/>
  <path id="151" class="fil1" d="M5987 23325l83 -45c7,22 18,39 35,50 17,12 38,17 64,17 23,0 41,-5 54,-15 13,-11 19,-25 19,-43 0,-24 -23,-44 -69,-61 -15,-6 -27,-11 -36,-14 -47,-20 -80,-40 -98,-60 -19,-20 -29,-45 -29,-73 0,-40 16,-72 47,-96 31,-25 71,-37 122,-37 34,0 64,6 88,19 24,13 42,30 53,54l-72 49c-5,-14 -14,-25 -27,-33 -13,-9 -29,-13 -46,-13 -19,0 -35,5 -46,14 -12,9 -18,21 -18,37 0,23 26,43 78,62 17,6 30,11 38,15 41,16 70,34 88,54 17,21 26,46 26,76 0,45 -16,79 -48,104 -32,25 -76,37 -132,37 -43,0 -79,-8 -107,-24 -29,-16 -51,-40 -67,-74z"/>
  <path id="152" class="fil1" d="M7060 23090c-16,-17 -34,-30 -54,-39 -21,-9 -43,-13 -67,-13 -41,0 -74,13 -99,40 -25,26 -37,62 -37,106 0,46 12,82 37,108 25,26 59,39 104,39 24,0 46,-5 65,-14 19,-9 36,-23 51,-41l0 116c-19,10 -39,18 -60,24 -21,5 -44,7 -68,7 -69,0 -125,-22 -169,-66 -43,-44 -65,-101 -65,-171 0,-71 22,-128 67,-171 46,-44 105,-66 178,-66 22,0 44,2 63,7 19,4 37,11 54,21l0 113z"/>
  <path id="153" class="fil1" d="M7509 23186c0,-41 -13,-75 -39,-104 -26,-28 -59,-42 -97,-42 -37,0 -70,14 -96,42 -27,29 -40,63 -40,104 0,41 13,76 40,104 26,29 59,43 96,43 38,0 70,-14 97,-43 26,-28 39,-63 39,-104zm-379 -1c0,-32 7,-62 19,-91 12,-29 30,-54 53,-76 22,-23 48,-39 78,-51 29,-12 60,-18 92,-18 34,0 65,6 94,18 29,12 56,29 79,52 23,22 41,48 53,77 12,28 18,58 18,89 0,33 -6,63 -18,92 -12,28 -29,54 -52,76 -24,23 -51,41 -81,53 -29,11 -60,17 -93,17 -32,0 -62,-6 -92,-17 -29,-12 -55,-30 -78,-52 -24,-23 -41,-49 -53,-78 -13,-28 -19,-58 -19,-91z"/>
  <path id="154" class="fil1" d="M7723 23405l0 -441 95 0 0 73c20,-31 43,-53 71,-67 27,-14 60,-21 99,-21 33,0 61,5 84,16 23,10 42,26 55,46 7,12 13,26 16,42 4,16 5,45 5,85l0 267 -101 0 0 -226c0,-58 -7,-97 -22,-116 -14,-19 -39,-28 -75,-28 -23,0 -44,4 -63,13 -18,9 -33,21 -43,37 -8,10 -13,24 -16,40 -3,17 -4,43 -4,80l0 200 -101 0z"/>
  <polygon id="155" class="fil1" points="8575,23405 8575,22684 8676,22684 8676,23405 "/>
  <path id="156" class="fil1" d="M9235 23405l-101 0 0 -57c-18,26 -39,44 -63,57 -24,12 -51,18 -83,18 -62,0 -111,-21 -147,-64 -36,-42 -54,-100 -54,-175 0,-70 19,-127 55,-170 37,-43 85,-65 144,-65 36,0 67,8 92,23 26,15 44,36 56,64l0 -72 101 0 0 441zm-98 -222c0,-45 -11,-81 -32,-106 -21,-26 -51,-38 -89,-38 -38,0 -68,13 -90,39 -22,26 -33,63 -33,109 0,47 11,83 32,109 21,25 51,38 89,38 36,0 66,-14 89,-42 23,-27 34,-64 34,-109z"/>
  <path id="157" class="fil1" d="M9324 23325l84 -45c6,22 17,39 34,50 17,12 38,17 64,17 23,0 41,-5 54,-15 13,-11 19,-25 19,-43 0,-24 -23,-44 -69,-61 -15,-6 -27,-11 -35,-14 -48,-20 -81,-40 -99,-60 -19,-20 -28,-45 -28,-73 0,-40 15,-72 46,-96 31,-25 71,-37 122,-37 34,0 64,6 88,19 24,13 42,30 53,54l-72 49c-5,-14 -14,-25 -27,-33 -13,-9 -29,-13 -46,-13 -19,0 -34,5 -46,14 -12,9 -18,21 -18,37 0,23 27,43 78,62 17,6 30,11 39,15 40,16 69,34 87,54 17,21 26,46 26,76 0,45 -16,79 -48,104 -32,25 -76,37 -132,37 -43,0 -79,-8 -107,-24 -29,-16 -51,-40 -67,-74z"/>
  <path id="158" class="fil1" d="M10397 23090c-16,-17 -34,-30 -54,-39 -21,-9 -43,-13 -67,-13 -41,0 -74,13 -99,40 -25,26 -37,62 -37,106 0,46 12,82 37,108 25,26 60,39 104,39 24,0 46,-5 65,-14 19,-9 36,-23 51,-41l0 116c-19,10 -39,18 -60,24 -21,5 -44,7 -68,7 -69,0 -125,-22 -169,-66 -43,-44 -65,-101 -65,-171 0,-71 22,-128 68,-171 45,-44 104,-66 177,-66 23,0 44,2 63,7 19,4 37,11 54,21l0 113z"/>
  <path id="159" class="fil1" d="M10847 23186c0,-41 -14,-75 -40,-104 -26,-28 -59,-42 -97,-42 -37,0 -70,14 -96,42 -27,29 -40,63 -40,104 0,41 13,76 40,104 26,29 59,43 96,43 38,0 70,-14 97,-43 26,-28 40,-63 40,-104zm-380 -1c0,-32 7,-62 19,-91 12,-29 30,-54 53,-76 22,-23 48,-39 78,-51 29,-12 60,-18 92,-18 34,0 65,6 94,18 29,12 56,29 79,52 23,22 41,48 53,77 12,28 18,58 18,89 0,33 -6,63 -18,92 -12,28 -29,54 -52,76 -24,23 -51,41 -81,53 -29,11 -60,17 -93,17 -31,0 -62,-6 -92,-17 -29,-12 -55,-30 -78,-52 -24,-23 -41,-49 -53,-78 -12,-28 -19,-58 -19,-91z"/>
  <path id="160" class="fil1" d="M11161 23405l-101 0 0 -441 95 0 0 73c20,-31 43,-54 68,-68 26,-14 56,-21 91,-21 34,0 63,7 85,22 23,14 40,36 52,66 23,-31 48,-53 74,-67 26,-14 56,-21 90,-21 29,0 54,6 76,16 22,11 39,27 51,47 5,10 9,21 12,34 3,14 4,33 4,58l0 35 0 267 -101 0 0 -226c0,-59 -6,-98 -19,-117 -12,-19 -35,-28 -67,-28 -40,0 -68,13 -85,38 -17,25 -25,69 -25,133l0 200 -102 0 0 -226c0,-55 -7,-92 -20,-114 -13,-21 -36,-31 -68,-31 -20,0 -38,4 -54,13 -17,9 -30,22 -40,38 -6,10 -10,22 -13,37 -2,15 -3,43 -3,83l0 200z"/>
  <path id="161" class="fil1" d="M11991 22964l0 249c0,43 9,73 27,92 17,19 46,28 86,28 39,0 68,-9 86,-28 17,-19 26,-49 26,-92l0 -249 101 0 0 219c0,84 -17,145 -51,183 -33,38 -87,57 -161,57 -76,0 -130,-18 -164,-56 -34,-38 -51,-99 -51,-184l0 -219 101 0z"/>
  <path id="162" class="fil1" d="M12453 23405l0 -441 95 0 0 73c20,-31 44,-53 71,-67 27,-14 61,-21 100,-21 33,0 61,5 84,16 23,10 41,26 54,46 8,12 13,26 17,42 3,16 5,45 5,85l0 267 -102 0 0 -226c0,-58 -7,-97 -21,-116 -14,-19 -39,-28 -75,-28 -24,0 -45,4 -63,13 -19,9 -33,21 -44,37 -7,10 -13,24 -15,40 -3,17 -5,43 -5,80l0 200 -101 0z"/>
  <path id="163" class="fil1" d="M13004 22774c0,-17 7,-32 19,-44 13,-13 28,-19 45,-19 18,0 33,6 45,18 12,12 18,27 18,45 0,18 -6,33 -18,45 -12,12 -27,19 -45,19 -17,0 -32,-7 -45,-19 -12,-13 -19,-28 -19,-45zm14 631l0 -441 101 0 0 441 -101 0z"/>
  <path id="164" class="fil1" d="M13580 23183c0,-45 -11,-81 -32,-106 -21,-26 -51,-38 -89,-38 -38,0 -68,13 -90,39 -22,26 -33,63 -33,109 0,47 11,83 32,109 21,25 51,38 89,38 37,0 66,-14 89,-41 23,-28 34,-64 34,-110zm-3 -499l101 0 0 721 -101 0 0 -57c-18,26 -39,44 -63,57 -24,12 -52,18 -83,18 -62,0 -111,-21 -147,-64 -36,-42 -54,-100 -54,-175 0,-70 19,-127 55,-170 37,-43 85,-65 144,-65 36,0 66,8 92,23 26,15 44,36 56,64l0 -352z"/>
  <path id="165" class="fil1" d="M14232 23405l-101 0 0 -57c-17,26 -39,44 -63,57 -24,12 -51,18 -82,18 -63,0 -112,-21 -147,-64 -36,-42 -54,-100 -54,-175 0,-70 18,-127 55,-170 36,-43 84,-65 143,-65 36,0 67,8 92,23 26,15 45,36 56,64l0 -72 101 0 0 441zm-98 -222c0,-45 -10,-81 -32,-106 -21,-26 -51,-38 -89,-38 -38,0 -68,13 -90,39 -22,26 -33,63 -33,109 0,47 11,83 32,109 21,25 51,38 89,38 37,0 66,-14 89,-42 23,-27 34,-64 34,-109z"/>
  <path id="166" class="fil1" d="M14689 23183c0,-45 -11,-81 -32,-106 -22,-26 -51,-38 -89,-38 -39,0 -69,13 -90,39 -22,26 -33,63 -33,109 0,47 10,83 31,109 22,25 51,38 90,38 36,0 66,-14 89,-41 22,-28 34,-64 34,-110zm-3 -499l101 0 0 721 -101 0 0 -57c-18,26 -39,44 -63,57 -24,12 -52,18 -83,18 -62,0 -111,-21 -147,-64 -36,-42 -54,-100 -54,-175 0,-70 18,-127 55,-170 37,-43 84,-65 143,-65 36,0 67,8 93,23 25,15 44,36 56,64l0 -352z"/>
  <path id="167" class="fil1" d="M15351 23200l-353 0c3,41 15,73 37,96 22,23 51,35 88,35 33,0 60,-7 81,-20 22,-14 41,-36 57,-67l85 48c-25,44 -56,77 -92,99 -37,22 -80,32 -129,32 -71,0 -127,-21 -169,-64 -42,-43 -63,-101 -63,-173 0,-69 22,-126 65,-170 44,-45 99,-67 167,-67 71,0 126,20 166,61 40,41 60,98 60,171l0 19zm-105 -68c-4,-32 -16,-56 -36,-72 -20,-17 -48,-25 -83,-25 -33,0 -60,8 -80,24 -20,16 -34,40 -42,73l241 0z"/>
  <path id="168" class="fil1" d="M15405 23325l84 -45c6,22 18,39 34,50 17,12 39,17 65,17 23,0 40,-5 53,-15 13,-11 19,-25 19,-43 0,-24 -22,-44 -68,-61 -16,-6 -28,-11 -36,-14 -47,-20 -80,-40 -99,-60 -19,-20 -28,-45 -28,-73 0,-40 15,-72 46,-96 31,-25 72,-37 123,-37 34,0 63,6 87,19 25,13 42,30 53,54l-71 49c-5,-14 -15,-25 -28,-33 -13,-9 -28,-13 -45,-13 -20,0 -35,5 -47,14 -11,9 -17,21 -17,37 0,23 26,43 78,62 16,6 29,11 38,15 41,16 70,34 87,54 18,21 26,46 26,76 0,45 -16,79 -48,104 -31,25 -75,37 -132,37 -43,0 -78,-8 -107,-24 -28,-16 -51,-40 -67,-74z"/>
  <path id="169" class="fil1" d="M16225 23613l-104 0 121 -246 -162 -403 112 0 81 229c4,14 9,28 12,42 4,15 6,29 9,44 4,-15 13,-40 29,-74l2 -5 109 -236 109 0 -318 649z"/>
  <path id="170" class="fil1" d="M1619 24325c0,46 11,82 34,110 23,27 53,41 90,41 38,0 68,-13 89,-39 21,-25 31,-61 31,-108 0,-47 -11,-83 -33,-109 -21,-26 -51,-40 -90,-40 -38,0 -67,13 -89,39 -21,25 -32,61 -32,106zm-98 430l0 -649 101 0 0 72c12,-28 31,-49 57,-64 26,-16 57,-23 93,-23 58,0 106,21 142,65 37,43 55,100 55,170 0,74 -18,133 -54,175 -36,43 -85,64 -147,64 -31,0 -59,-6 -83,-18 -24,-13 -45,-32 -63,-57l0 265 -101 0z"/>
  <path id="171" class="fil1" d="M2422 24328c0,-41 -13,-76 -39,-104 -27,-29 -59,-43 -97,-43 -38,0 -70,14 -96,43 -27,28 -40,63 -40,104 0,41 13,76 40,104 26,29 58,43 96,43 38,0 70,-14 97,-43 26,-28 39,-63 39,-104zm-379 -1c0,-32 6,-63 19,-91 12,-29 30,-55 52,-77 23,-22 49,-39 79,-51 29,-11 60,-17 92,-17 33,0 65,6 94,17 29,12 56,30 79,53 23,22 41,48 53,76 12,29 18,59 18,90 0,33 -6,63 -18,92 -12,28 -29,53 -52,76 -24,23 -51,40 -81,52 -29,12 -60,18 -93,18 -32,0 -63,-6 -92,-18 -29,-12 -56,-29 -79,-52 -23,-23 -40,-48 -53,-77 -12,-28 -18,-59 -18,-91z"/>
  <path id="172" class="fil1" d="M2636 24547l0 -441 94 0 0 72c21,-30 44,-52 72,-66 27,-14 60,-21 99,-21 33,0 61,5 84,15 23,11 41,26 54,47 8,12 14,26 17,42 4,16 5,44 5,85l0 267 -102 0 0 -226c0,-58 -7,-97 -21,-116 -14,-19 -39,-28 -75,-28 -23,0 -45,4 -63,13 -18,8 -33,21 -43,36 -8,11 -13,24 -16,41 -3,17 -4,43 -4,79l0 201 -101 0z"/>
  <path id="173" class="fil1" d="M3513 24325c0,-45 -11,-81 -32,-106 -22,-26 -51,-39 -89,-39 -39,0 -69,14 -90,40 -22,26 -33,62 -33,109 0,47 10,83 31,108 22,26 51,39 90,39 36,0 66,-14 89,-42 22,-27 34,-63 34,-109zm-3 -499l101 0 0 721 -101 0 0 -57c-18,25 -39,44 -63,57 -24,12 -52,18 -83,18 -62,0 -111,-21 -147,-64 -36,-42 -54,-101 -54,-175 0,-70 18,-127 55,-170 37,-44 84,-65 143,-65 36,0 67,7 93,22 25,15 44,37 56,65l0 -352z"/>
  <path id="174" class="fil1" d="M3851 24177c11,-30 25,-51 43,-65 18,-14 40,-21 66,-21 15,0 29,2 42,5 14,3 28,8 41,15l-36 86c-9,-7 -18,-11 -28,-14 -10,-3 -22,-5 -34,-5 -34,0 -58,14 -72,41 -15,26 -22,72 -22,135l0 193 -101 0 0 -442 101 0 0 72z"/>
  <path id="175" class="fil1" d="M4516 24547l-101 0 0 -57c-18,25 -39,44 -63,57 -24,12 -52,18 -83,18 -62,0 -111,-21 -147,-64 -36,-42 -54,-101 -54,-175 0,-70 18,-127 55,-170 37,-44 84,-65 143,-65 36,0 67,7 93,22 25,15 44,37 56,65l0 -72 101 0 0 441zm-98 -222c0,-45 -11,-81 -32,-106 -22,-26 -51,-39 -89,-39 -39,0 -69,14 -90,40 -22,26 -33,62 -33,109 0,47 10,83 31,108 22,26 51,39 90,39 36,0 66,-14 88,-42 23,-27 35,-64 35,-109zm-171 -286l89 -126 105 0 -137 126 -57 0z"/>
  <path id="176" class="fil1" d="M5367 24341l-352 0c2,42 15,74 37,97 21,23 51,35 88,35 32,0 59,-7 81,-21 22,-13 40,-35 57,-66l84 48c-24,44 -55,77 -92,99 -36,21 -79,32 -128,32 -71,0 -127,-21 -169,-64 -42,-44 -63,-101 -63,-173 0,-69 22,-126 65,-170 43,-45 99,-67 167,-67 71,0 126,20 166,61 39,40 59,97 59,170l0 19zm-105 -67c-4,-32 -16,-56 -36,-73 -20,-16 -48,-24 -83,-24 -33,0 -59,8 -80,24 -20,16 -34,40 -42,73l241 0z"/>
  <path id="177" class="fil1" d="M5472 24547l0 -441 95 0 0 72c20,-30 44,-52 71,-66 27,-14 61,-21 100,-21 33,0 61,5 84,15 23,11 41,26 54,47 8,12 13,26 17,42 3,16 5,44 5,85l0 267 -102 0 0 -226c0,-58 -7,-97 -21,-116 -14,-19 -39,-28 -75,-28 -24,0 -45,4 -63,13 -19,8 -33,21 -44,36 -7,11 -13,24 -15,41 -3,17 -5,43 -5,79l0 201 -101 0z"/>
  <path id="178" class="fil1" d="M6420 24547l-100 0 0 -441 94 0 0 72c21,-30 43,-53 69,-67 26,-14 56,-21 91,-21 34,0 63,7 85,21 23,15 40,37 52,67 23,-31 48,-53 74,-67 26,-14 56,-21 90,-21 29,0 54,5 76,16 21,11 38,26 50,47 6,9 10,21 13,34 2,14 4,33 4,57l0 36 0 267 -101 0 0 -226c0,-60 -7,-99 -19,-117 -13,-19 -35,-28 -67,-28 -40,0 -68,12 -85,38 -17,25 -25,69 -25,132l0 201 -102 0 0 -226c0,-55 -7,-93 -20,-114 -13,-21 -36,-31 -68,-31 -20,0 -38,4 -55,13 -16,9 -29,22 -39,37 -6,11 -10,23 -13,38 -2,15 -4,42 -4,82l0 201z"/>
  <path id="179" class="fil1" d="M7568 24547l-101 0 0 -57c-18,25 -39,44 -63,57 -24,12 -51,18 -82,18 -63,0 -112,-21 -148,-64 -35,-42 -53,-101 -53,-175 0,-70 18,-127 55,-170 36,-44 84,-65 143,-65 36,0 67,7 92,22 26,15 45,37 56,65l0 -72 101 0 0 441zm-98 -222c0,-45 -10,-81 -32,-106 -21,-26 -51,-39 -89,-39 -38,0 -68,14 -90,40 -22,26 -33,62 -33,109 0,47 11,83 32,108 21,26 51,39 89,39 37,0 66,-14 89,-42 23,-27 34,-64 34,-109z"/>
  <path id="180" class="fil1" d="M7808 24177c11,-30 26,-51 43,-65 18,-14 40,-21 67,-21 14,0 28,2 42,5 14,3 27,8 41,15l-37 86c-8,-7 -18,-11 -28,-14 -10,-3 -21,-5 -34,-5 -33,0 -57,14 -72,41 -14,26 -22,72 -22,135l0 193 -101 0 0 -442 101 0 0 72z"/>
  <path id="181" class="fil1" d="M8388 24232c-16,-17 -34,-30 -55,-39 -20,-9 -42,-14 -66,-14 -42,0 -75,14 -99,40 -25,27 -38,62 -38,106 0,46 13,82 38,109 25,26 59,39 103,39 25,0 47,-5 66,-14 19,-9 36,-23 51,-41l0 116c-19,10 -39,18 -60,23 -21,5 -44,8 -68,8 -69,0 -125,-22 -169,-66 -44,-44 -65,-101 -65,-171 0,-71 22,-128 67,-172 45,-43 104,-65 177,-65 23,0 44,2 64,7 19,4 37,11 54,20l0 114z"/>
  <path id="182" class="fil1" d="M8491 24547l0 -721 95 0 0 352c20,-30 43,-52 71,-66 27,-14 60,-21 99,-21 33,0 61,5 84,15 23,11 41,26 54,47 8,12 14,26 17,42 4,16 5,44 5,85l0 267 -102 0 0 -226c0,-58 -7,-97 -21,-116 -14,-19 -39,-28 -75,-28 -23,0 -45,4 -63,13 -18,8 -33,21 -43,36 -8,11 -13,24 -16,41 -3,17 -4,43 -4,79l0 201 -101 0z"/>
  <path id="183" class="fil1" d="M9466 24547l-101 0 0 -57c-18,25 -39,44 -63,57 -24,12 -52,18 -83,18 -62,0 -111,-21 -147,-64 -36,-42 -54,-101 -54,-175 0,-70 18,-127 55,-170 37,-44 84,-65 143,-65 36,0 67,7 93,22 25,15 44,37 56,65l0 -72 101 0 0 441zm-98 -222c0,-45 -11,-81 -32,-106 -22,-26 -51,-39 -89,-39 -39,0 -69,14 -90,40 -22,26 -33,62 -33,109 0,47 10,83 31,108 22,26 51,39 90,39 36,0 66,-14 88,-42 23,-27 35,-64 35,-109z"/>
  <path id="184" class="fil1" d="M9990 24325c0,46 11,82 34,110 23,27 53,41 90,41 38,0 68,-13 89,-39 21,-25 31,-61 31,-108 0,-47 -11,-83 -33,-109 -21,-26 -51,-40 -90,-40 -38,0 -67,13 -89,39 -21,25 -32,61 -32,106zm-98 430l0 -649 101 0 0 72c12,-28 31,-49 57,-64 26,-16 57,-23 93,-23 58,0 106,21 142,65 37,43 55,100 55,170 0,74 -18,133 -54,175 -36,43 -85,64 -147,64 -31,0 -59,-6 -83,-18 -24,-13 -45,-32 -63,-57l0 265 -101 0z"/>
  <path id="185" class="fil1" d="M10548 24177c11,-30 25,-51 43,-65 18,-14 40,-21 66,-21 15,0 28,2 42,5 14,3 28,8 41,15l-36 86c-9,-7 -18,-11 -28,-14 -11,-3 -22,-5 -34,-5 -34,0 -58,14 -72,41 -15,26 -22,72 -22,135l0 193 -101 0 0 -442 101 0 0 72z"/>
  <path id="186" class="fil1" d="M11144 24328c0,-41 -13,-76 -39,-104 -27,-29 -59,-43 -97,-43 -38,0 -70,14 -97,43 -26,28 -39,63 -39,104 0,41 13,76 39,104 27,29 59,43 97,43 38,0 70,-14 96,-43 27,-28 40,-63 40,-104zm-379 -1c0,-32 6,-63 18,-91 13,-29 30,-55 53,-77 23,-22 49,-39 78,-51 30,-11 61,-17 93,-17 33,0 64,6 94,17 29,12 55,30 79,53 23,22 40,48 53,76 12,29 18,59 18,90 0,33 -6,63 -18,92 -12,28 -30,53 -53,76 -24,23 -50,40 -80,52 -29,12 -61,18 -93,18 -32,0 -63,-6 -92,-18 -30,-12 -56,-29 -79,-52 -23,-23 -41,-48 -53,-77 -12,-28 -18,-59 -18,-91z"/>
  <path id="187" class="fil1" d="M11674 24325c0,-45 -10,-81 -31,-106 -22,-26 -51,-39 -89,-39 -39,0 -69,14 -90,40 -22,26 -33,62 -33,109 0,47 10,83 31,108 21,26 51,39 90,39 36,0 65,-14 88,-42 23,-27 34,-64 34,-109zm99 195c0,86 -18,147 -52,182 -34,35 -93,53 -174,53 -61,0 -110,-13 -146,-39 -36,-25 -54,-60 -55,-102l108 -1c2,19 11,34 27,44 16,10 39,15 68,15 43,0 74,-10 93,-29 19,-18 28,-50 29,-94l1 -59c-18,25 -39,44 -63,57 -25,12 -52,18 -83,18 -62,0 -112,-21 -147,-64 -36,-42 -54,-101 -54,-175 0,-70 18,-127 55,-170 37,-44 84,-65 143,-65 36,0 67,7 93,22 25,15 44,37 56,65l0 -72 101 0 0 414z"/>
  <path id="188" class="fil1" d="M12013 24177c11,-30 25,-51 43,-65 18,-14 40,-21 66,-21 14,0 28,2 42,5 14,3 28,8 41,15l-36 86c-9,-7 -18,-11 -28,-14 -11,-3 -22,-5 -34,-5 -34,0 -58,14 -72,41 -15,26 -22,72 -22,135l0 193 -101 0 0 -442 101 0 0 72z"/>
  <path id="189" class="fil1" d="M12678 24547l-101 0 0 -57c-18,25 -39,44 -63,57 -24,12 -52,18 -83,18 -62,0 -112,-21 -147,-64 -36,-42 -54,-101 -54,-175 0,-70 18,-127 55,-170 37,-44 84,-65 143,-65 36,0 67,7 93,22 25,15 44,37 56,65l0 -72 101 0 0 441zm-98 -222c0,-45 -11,-81 -32,-106 -22,-26 -51,-39 -89,-39 -39,0 -69,14 -90,40 -22,26 -33,62 -33,109 0,47 10,83 31,108 21,26 51,39 90,39 36,0 66,-14 88,-42 23,-27 35,-64 35,-109z"/>
  <path id="190" class="fil1" d="M12918 24547l-101 0 0 -441 95 0 0 72c20,-30 43,-53 68,-67 26,-14 56,-21 91,-21 34,0 63,7 85,21 23,15 40,37 52,67 23,-31 48,-53 74,-67 26,-14 56,-21 90,-21 29,0 54,5 76,16 22,11 38,26 51,47 5,9 9,21 12,34 3,14 4,33 4,57l0 36 0 267 -101 0 0 -226c0,-60 -6,-99 -19,-117 -13,-19 -35,-28 -67,-28 -40,0 -68,12 -85,38 -17,25 -25,69 -25,132l0 201 -102 0 0 -226c0,-55 -7,-93 -20,-114 -13,-21 -36,-31 -68,-31 -20,0 -38,4 -54,13 -17,9 -30,22 -40,37 -6,11 -10,23 -13,38 -2,15 -3,42 -3,82l0 201z"/>
  <path id="191" class="fil1" d="M14065 24547l-101 0 0 -57c-17,25 -39,44 -63,57 -24,12 -51,18 -82,18 -62,0 -112,-21 -147,-64 -36,-42 -54,-101 -54,-175 0,-70 18,-127 55,-170 36,-44 84,-65 143,-65 36,0 67,7 92,22 26,15 45,37 56,65l0 -72 101 0 0 441zm-98 -222c0,-45 -10,-81 -32,-106 -21,-26 -51,-39 -89,-39 -38,0 -68,14 -90,40 -22,26 -33,62 -33,109 0,47 11,83 32,108 21,26 51,39 89,39 37,0 66,-14 89,-42 23,-27 34,-64 34,-109z"/>
  <path id="192" class="fil1" d="M14154 24467l84 -46c6,22 17,39 34,51 17,11 39,17 65,17 22,0 40,-5 53,-16 13,-10 19,-24 19,-42 0,-24 -23,-45 -68,-62 -16,-5 -28,-10 -36,-14 -47,-19 -80,-39 -99,-59 -19,-20 -28,-45 -28,-74 0,-39 15,-71 46,-95 31,-25 72,-37 123,-37 34,0 63,6 87,19 25,12 42,30 53,53l-71 50c-5,-14 -15,-25 -28,-34 -13,-8 -28,-12 -46,-12 -19,0 -34,5 -46,14 -11,9 -17,21 -17,36 0,23 26,44 78,63 16,6 29,11 38,15 40,16 70,34 87,54 18,20 26,46 26,76 0,44 -16,79 -48,104 -31,25 -75,37 -132,37 -43,0 -79,-8 -107,-24 -29,-16 -51,-41 -67,-74z"/>
  <path id="193" class="fil1" d="M15215 24325c0,-45 -11,-81 -32,-106 -21,-26 -51,-39 -89,-39 -38,0 -68,14 -90,40 -22,26 -33,62 -33,109 0,47 10,83 32,108 21,26 51,39 89,39 36,0 66,-14 89,-42 22,-27 34,-63 34,-109zm-3 -499l101 0 0 721 -101 0 0 -57c-18,25 -39,44 -63,57 -24,12 -52,18 -83,18 -62,0 -111,-21 -147,-64 -36,-42 -54,-101 -54,-175 0,-70 18,-127 55,-170 37,-44 85,-65 144,-65 36,0 66,7 92,22 25,15 44,37 56,65l0 -352z"/>
  <path id="194" class="fil1" d="M15877 24341l-353 0c3,42 15,74 37,97 22,23 51,35 88,35 33,0 60,-7 81,-21 22,-13 41,-35 57,-66l85 48c-25,44 -55,77 -92,99 -37,21 -80,32 -129,32 -71,0 -127,-21 -169,-64 -41,-44 -62,-101 -62,-173 0,-69 21,-126 65,-170 43,-45 98,-67 166,-67 71,0 127,20 166,61 40,40 60,97 60,170l0 19zm-105 -67c-4,-32 -16,-56 -36,-73 -20,-16 -48,-24 -83,-24 -33,0 -60,8 -80,24 -20,16 -34,40 -42,73l241 0z"/>
  <path id="195" class="fil1" d="M1622 25318c11,-29 25,-51 43,-64 18,-14 40,-21 67,-21 14,0 28,1 42,5 14,3 27,8 41,14l-37 86c-8,-6 -18,-11 -28,-13 -10,-3 -21,-5 -34,-5 -33,0 -57,14 -72,40 -14,27 -22,72 -22,135l0 194 -101 0 0 -442 101 0 0 71z"/>
  <path id="196" class="fil1" d="M2297 25483l-353 0c3,41 15,74 37,97 22,23 51,35 88,35 33,0 60,-7 81,-21 22,-14 41,-36 57,-66l85 47c-25,45 -55,78 -92,99 -37,22 -80,33 -129,33 -71,0 -127,-22 -169,-65 -41,-43 -62,-100 -62,-172 0,-69 21,-126 65,-171 43,-44 98,-66 166,-66 71,0 127,20 166,61 40,40 60,97 60,170l0 19zm-105 -68c-4,-31 -16,-55 -36,-72 -20,-16 -48,-25 -83,-25 -33,0 -60,8 -80,24 -20,17 -34,41 -42,73l241 0z"/>
  <path id="197" class="fil1" d="M2731 25374c-15,-17 -33,-30 -54,-39 -20,-9 -43,-14 -67,-14 -41,0 -74,13 -99,40 -25,27 -37,62 -37,106 0,46 13,82 38,108 24,26 59,40 103,40 25,0 46,-5 66,-14 19,-9 36,-23 50,-42l0 116c-18,11 -38,19 -60,24 -21,5 -43,8 -67,8 -69,0 -126,-22 -169,-66 -44,-44 -66,-101 -66,-171 0,-71 23,-129 68,-172 45,-44 104,-65 177,-65 23,0 44,2 63,6 20,5 38,12 54,21l0 114z"/>
  <path id="198" class="fil1" d="M3181 25470c0,-41 -13,-76 -40,-104 -26,-29 -58,-43 -96,-43 -38,0 -70,14 -97,43 -26,28 -39,63 -39,104 0,41 13,75 39,104 27,28 59,42 97,42 38,0 70,-14 96,-42 27,-29 40,-63 40,-104zm-379 -1c0,-32 6,-63 18,-92 13,-28 30,-54 53,-76 23,-22 49,-39 78,-51 30,-12 61,-17 93,-17 33,0 64,5 94,17 29,12 55,29 79,52 23,23 40,49 53,77 12,28 18,59 18,90 0,32 -6,63 -18,91 -12,29 -30,54 -53,76 -24,23 -51,41 -80,53 -29,12 -61,18 -93,18 -32,0 -63,-6 -92,-18 -30,-12 -56,-29 -79,-52 -23,-23 -41,-49 -53,-77 -12,-29 -18,-59 -18,-91z"/>
  <path id="199" class="fil1" d="M3394 25689l0 -441 95 0 0 72c20,-30 44,-53 71,-66 28,-14 61,-21 100,-21 33,0 61,5 84,15 23,11 41,26 54,46 8,13 13,27 17,43 3,16 5,44 5,84l0 268 -102 0 0 -227c0,-58 -7,-96 -21,-115 -14,-19 -39,-29 -75,-29 -24,0 -45,5 -63,13 -19,9 -33,21 -44,37 -7,11 -13,24 -15,41 -3,16 -5,43 -5,79l0 201 -101 0z"/>
  <path id="200" class="fil1" d="M4109 25715l-231 -467 110 0 97 222c3,7 6,17 11,30 4,14 9,30 13,49 3,-13 7,-26 11,-40 4,-13 9,-26 15,-39l96 -222 110 0 -232 467z"/>
  <path id="201" class="fil1" d="M4829 25483l-353 0c3,41 15,74 37,97 22,23 51,35 88,35 33,0 60,-7 81,-21 22,-14 41,-36 57,-66l85 47c-25,45 -55,78 -92,99 -37,22 -80,33 -129,33 -71,0 -127,-22 -169,-65 -42,-43 -63,-100 -63,-172 0,-69 22,-126 65,-171 44,-44 99,-66 167,-66 71,0 126,20 166,61 40,40 60,97 60,170l0 19zm-105 -68c-4,-31 -16,-55 -36,-72 -20,-16 -48,-25 -83,-25 -33,0 -60,8 -80,24 -20,17 -34,41 -42,73l241 0z"/>
  <path id="202" class="fil1" d="M5035 25318c11,-29 25,-51 43,-64 18,-14 40,-21 66,-21 14,0 28,1 42,5 14,3 28,8 41,14l-36 86c-9,-6 -18,-11 -28,-13 -11,-3 -22,-5 -34,-5 -34,0 -58,14 -73,40 -14,27 -21,72 -21,135l0 194 -101 0 0 -442 101 0 0 71z"/>
  <path id="203" class="fil1" d="M5234 25609l84 -46c6,22 17,39 34,50 17,12 38,18 65,18 22,0 40,-6 53,-16 13,-10 19,-24 19,-43 0,-23 -23,-44 -69,-61 -15,-6 -27,-10 -35,-14 -48,-19 -81,-39 -99,-59 -19,-20 -28,-45 -28,-74 0,-39 15,-71 46,-96 31,-24 72,-36 122,-36 35,0 64,6 88,18 24,13 42,31 53,54l-71 50c-6,-14 -15,-26 -28,-34 -13,-8 -28,-12 -46,-12 -19,0 -34,4 -46,13 -12,10 -17,22 -17,37 0,23 26,44 78,63 16,6 29,11 38,14 40,16 69,35 87,55 17,20 26,46 26,76 0,44 -16,79 -48,103 -32,25 -76,38 -132,38 -43,0 -79,-8 -107,-24 -29,-16 -51,-41 -67,-74z"/>
  <path id="204" class="fil1" d="M5681 25057c0,-17 7,-31 19,-44 13,-12 28,-19 45,-19 18,0 33,6 45,18 12,12 18,27 18,45 0,18 -6,33 -18,46 -12,12 -27,18 -45,18 -17,0 -32,-6 -45,-19 -12,-12 -19,-27 -19,-45zm14 632l0 -441 101 0 0 441 -101 0z"/>
  <path id="205" class="fil1" d="M6286 25470c0,-41 -13,-76 -39,-104 -27,-29 -59,-43 -97,-43 -38,0 -70,14 -96,43 -27,28 -40,63 -40,104 0,41 13,75 40,104 26,28 58,42 96,42 38,0 70,-14 97,-42 26,-29 39,-63 39,-104zm-379 -1c0,-32 6,-63 19,-92 12,-28 29,-54 52,-76 23,-22 49,-39 79,-51 29,-12 60,-17 92,-17 33,0 65,5 94,17 29,12 56,29 79,52 23,23 41,49 53,77 12,28 18,59 18,90 0,32 -6,63 -18,91 -12,29 -29,54 -52,76 -24,23 -51,41 -81,53 -29,12 -60,18 -93,18 -32,0 -63,-6 -92,-18 -29,-12 -56,-29 -79,-52 -23,-23 -40,-49 -53,-77 -12,-29 -18,-59 -18,-91zm177 -288l89 -127 105 0 -136 127 -58 0z"/>
  <path id="206" class="fil1" d="M6500 25689l0 -441 94 0 0 72c21,-30 44,-53 72,-66 27,-14 60,-21 99,-21 33,0 61,5 84,15 23,11 41,26 54,46 8,13 14,27 17,43 4,16 5,44 5,84l0 268 -102 0 0 -227c0,-58 -7,-96 -21,-115 -14,-19 -39,-29 -75,-29 -23,0 -45,5 -63,13 -18,9 -33,21 -44,37 -7,11 -12,24 -15,41 -3,16 -5,43 -5,79l0 201 -100 0z"/>
  <path id="207" class="fil1" d="M7073 25637c0,-17 6,-31 17,-43 12,-13 27,-19 44,-19 17,0 31,6 43,19 12,12 18,26 18,43 0,17 -6,31 -18,43 -12,12 -26,17 -43,17 -17,0 -32,-5 -44,-17 -11,-12 -17,-26 -17,-43z"/>
  <polygon class="fil2" points="1460,14803 1460,13920 2001,13920 2001,14114 1695,14114 1695,14267 1984,14267 1984,14456 1695,14456 1695,14803 "/>
  <path id="1" class="fil2" d="M2549 14500c0,-45 -11,-81 -34,-107 -23,-26 -54,-40 -93,-40 -39,0 -70,14 -93,40 -23,26 -34,62 -34,107 0,45 11,81 34,107 22,26 54,39 93,39 40,0 71,-13 93,-39 23,-26 34,-62 34,-107zm214 0c0,44 -9,85 -26,125 -17,39 -41,75 -74,106 -33,31 -70,55 -111,71 -41,16 -84,24 -130,24 -46,0 -90,-8 -131,-24 -41,-16 -77,-40 -109,-71 -33,-31 -57,-66 -74,-105 -17,-40 -25,-82 -25,-126 0,-45 8,-87 25,-126 16,-39 41,-75 74,-106 31,-31 68,-55 109,-70 40,-16 84,-24 131,-24 47,0 91,8 132,24 40,15 77,39 109,70 33,32 58,67 75,107 17,39 25,81 25,125z"/>
  <path id="2" class="fil2" d="M2888 14803l0 -609 202 0 0 144c21,-53 50,-92 86,-118 36,-26 80,-40 132,-40 8,0 17,1 25,1 9,1 18,2 26,3l-21 195c-12,-4 -25,-7 -37,-9 -13,-2 -25,-3 -37,-3 -52,0 -92,16 -120,48 -28,32 -43,77 -43,136l0 252 -213 0z"/>
  <path id="3" class="fil2" d="M4244 14803l0 -333c0,-52 -6,-89 -19,-109 -13,-20 -36,-30 -68,-30 -40,0 -68,14 -84,42 -16,28 -24,85 -24,172l0 258 -207 0 0 -333c0,-53 -6,-90 -19,-109 -13,-20 -36,-30 -68,-30 -40,0 -68,14 -84,41 -16,28 -24,85 -24,173l0 258 -209 0 0 -609 211 0 0 106c26,-43 55,-75 88,-95 33,-21 72,-31 117,-31 49,0 90,10 122,29 31,19 54,48 67,86 24,-39 53,-67 87,-86 34,-19 75,-29 121,-29 36,0 68,6 96,19 27,12 50,30 69,55 15,19 25,42 32,67 6,26 9,68 9,126l0 13 0 349 -213 0z"/>
  <path id="4" class="fil2" d="M5073 14498c0,-48 -13,-85 -38,-113 -25,-28 -60,-42 -104,-42 -43,0 -78,14 -103,42 -25,27 -38,65 -38,113 0,47 13,85 38,112 26,27 60,41 103,41 44,0 79,-14 104,-41 25,-27 38,-65 38,-112zm189 -304l0 609 -197 0 0 -99c-29,42 -60,73 -95,93 -36,19 -77,29 -124,29 -82,0 -146,-29 -195,-89 -49,-59 -73,-139 -73,-238 0,-100 26,-178 76,-237 51,-58 120,-88 206,-88 45,0 85,10 118,30 33,19 62,49 85,90l0 -100 199 0z"/>
  <polygon id="5" class="fil2" points="5430,14803 5430,13868 5645,13868 5645,14803 "/>
  <path id="6" class="fil2" d="M5804 14004c0,-33 12,-60 35,-83 23,-23 51,-34 84,-34 33,0 62,11 84,33 23,23 34,51 34,84 0,33 -11,61 -34,85 -23,23 -51,35 -84,35 -33,0 -60,-12 -84,-36 -23,-24 -35,-52 -35,-84zm11 799l0 -609 215 0 0 609 -215 0z"/>
  <polygon id="7" class="fil2" points="6733,14803 6115,14803 6428,14351 6154,14351 6154,14194 6760,14194 6436,14637 6733,14637 "/>
  <path id="8" class="fil2" d="M7328 14498c0,-48 -13,-85 -38,-113 -25,-28 -60,-42 -104,-42 -44,0 -78,14 -103,42 -25,27 -38,65 -38,113 0,47 13,85 38,112 25,27 60,41 103,41 44,0 79,-14 104,-41 25,-27 38,-65 38,-112zm189 -304l0 609 -198 0 0 -99c-28,42 -59,73 -95,93 -35,19 -76,29 -123,29 -82,0 -147,-29 -195,-89 -49,-59 -73,-139 -73,-238 0,-100 25,-178 76,-237 51,-58 119,-88 205,-88 46,0 86,10 119,30 33,19 61,49 85,90l0 -100 199 0z"/>
  <path id="9" class="fil2" d="M8116 14394c-21,-18 -41,-32 -60,-40 -20,-9 -40,-13 -61,-13 -43,0 -77,14 -102,42 -25,28 -38,66 -38,115 0,46 14,84 40,111 26,28 61,42 105,42 22,0 42,-4 61,-13 20,-9 38,-22 55,-40l0 186c-26,14 -52,25 -77,32 -26,7 -53,10 -80,10 -94,0 -169,-30 -227,-90 -59,-60 -88,-139 -88,-237 0,-95 30,-173 89,-234 60,-60 136,-91 229,-91 30,0 58,3 83,9 25,6 49,16 71,29l0 182z"/>
  <path id="10" class="fil2" d="M8243 14004c0,-33 12,-60 35,-83 23,-23 51,-34 83,-34 34,0 62,11 85,33 23,23 34,51 34,84 0,33 -11,61 -35,85 -23,23 -51,35 -84,35 -32,0 -60,-12 -83,-36 -23,-24 -35,-52 -35,-84zm11 799l0 -609 215 0 0 609 -215 0z"/>
  <path id="11" class="fil2" d="M9065 14500c0,-45 -11,-81 -34,-107 -23,-26 -54,-40 -93,-40 -39,0 -70,14 -93,40 -23,26 -34,62 -34,107 0,45 11,81 34,107 22,26 54,39 93,39 40,0 71,-13 93,-39 23,-26 34,-62 34,-107zm214 0c0,44 -9,85 -26,125 -17,39 -41,75 -74,106 -33,31 -70,55 -111,71 -41,16 -84,24 -130,24 -46,0 -90,-8 -131,-24 -41,-16 -77,-40 -109,-71 -33,-31 -57,-66 -74,-105 -17,-40 -25,-82 -25,-126 0,-45 8,-87 25,-126 16,-39 41,-75 74,-106 31,-31 68,-55 109,-70 40,-16 84,-24 131,-24 47,0 91,8 132,24 40,15 77,39 109,70 33,32 58,67 75,107 17,39 25,81 25,125zm-165 -600l-187 211 -92 0 109 -211 170 0z"/>
  <path id="12" class="fil2" d="M9403 14803l0 -609 196 0 0 124c29,-50 62,-86 99,-109 37,-23 82,-35 134,-35 40,0 75,7 105,19 31,13 56,31 75,55 17,20 28,45 35,75 6,29 10,73 10,131l0 349 -215 0 0 -326c0,-49 -8,-84 -24,-107 -16,-22 -41,-33 -76,-33 -45,0 -77,17 -98,50 -20,33 -30,86 -30,160l0 256 -211 0z"/>
  <path id="13" class="fil2" d="M11060 14499c0,-47 -12,-85 -38,-112 -24,-27 -59,-41 -102,-41 -43,0 -78,14 -102,41 -25,27 -38,65 -38,112 0,48 13,85 37,112 25,28 59,41 103,41 43,0 78,-13 102,-41 26,-27 38,-65 38,-112zm191 -631l0 935 -198 0 0 -99c-27,41 -58,72 -92,92 -34,20 -72,30 -114,30 -86,0 -154,-29 -204,-88 -51,-60 -76,-139 -76,-239 0,-97 25,-175 75,-235 51,-60 116,-90 198,-90 51,0 93,10 125,28 33,19 61,50 87,93 -3,-14 -4,-31 -6,-49 -1,-18 -2,-38 -2,-60l0 -318 207 0z"/>
  <path id="14" class="fil2" d="M11830 14420c-4,-35 -17,-62 -40,-83 -22,-21 -49,-32 -82,-32 -35,0 -63,10 -84,29 -20,19 -34,48 -41,86l247 0zm211 121l-463 0c1,47 13,83 36,109 24,25 58,38 101,38 33,0 60,-6 83,-18 22,-13 39,-31 51,-55l161 65c-19,47 -53,83 -102,108 -49,25 -110,38 -181,38 -106,0 -191,-29 -255,-88 -64,-59 -96,-137 -96,-233 0,-95 32,-174 96,-237 64,-62 145,-94 243,-94 101,0 180,32 239,96 58,63 87,150 87,261l0 10z"/>
  <polygon id="15" class="fil2" points="1452,16284 1452,15349 1667,15349 1667,16284 "/>
  <path id="16" class="fil2" d="M2295 15979c0,-47 -13,-85 -38,-113 -25,-27 -60,-41 -104,-41 -44,0 -78,14 -103,41 -25,27 -38,65 -38,113 0,47 13,85 38,112 25,28 60,41 103,41 44,0 79,-13 104,-41 25,-27 38,-65 38,-112zm189 -304l0 609 -198 0 0 -99c-28,42 -59,73 -94,93 -36,20 -77,30 -124,30 -82,0 -146,-30 -195,-89 -49,-60 -73,-139 -73,-239 0,-99 25,-178 76,-237 51,-58 119,-87 205,-87 46,0 86,9 119,29 33,20 62,50 85,90l0 -100 199 0z"/>
  <path id="17" class="fil2" d="M3273 16284l-226 0 0 -883 252 0c98,0 168,5 208,15 39,9 73,26 101,49 32,27 57,61 74,101 17,41 26,85 26,135 0,53 -9,99 -26,139 -16,40 -41,73 -74,98 -25,20 -55,33 -88,42 -34,8 -88,13 -162,13l-41 0 -44 0 0 291zm0 -485l46 0c58,0 98,-8 121,-24 23,-16 34,-43 34,-81 0,-37 -11,-64 -33,-79 -23,-16 -63,-24 -120,-24l-48 0 0 208z"/>
  <path id="18" class="fil2" d="M3816 16284l0 -609 203 0 0 144c21,-53 49,-92 86,-118 36,-26 80,-39 131,-39 8,0 17,0 26,1 8,0 17,1 26,2l-21 196c-13,-5 -26,-8 -38,-10 -13,-2 -24,-3 -36,-3 -52,0 -92,16 -121,48 -28,32 -42,77 -42,136l0 252 -214 0z"/>
  <path id="19" class="fil2" d="M4799 15981c0,-45 -12,-81 -35,-107 -22,-26 -53,-39 -92,-39 -40,0 -71,13 -94,39 -22,26 -33,62 -33,107 0,46 11,81 33,107 23,26 54,39 94,39 39,0 70,-13 93,-39 23,-26 34,-61 34,-107zm213 0c0,44 -8,86 -25,125 -17,40 -42,75 -75,106 -33,32 -70,55 -110,71 -41,16 -84,25 -130,25 -47,0 -91,-9 -131,-25 -41,-16 -78,-39 -110,-71 -32,-30 -57,-65 -74,-105 -16,-40 -25,-82 -25,-126 0,-44 9,-86 25,-126 17,-39 41,-75 74,-106 32,-31 68,-54 109,-70 41,-16 85,-23 132,-23 47,0 91,7 131,23 41,16 77,39 109,70 33,32 58,67 75,107 17,39 25,81 25,125z"/>
  <path id="20" class="fil2" d="M5328 15982c0,47 12,84 37,112 24,27 59,41 102,41 43,0 78,-14 103,-41 25,-28 38,-65 38,-112 0,-48 -13,-85 -38,-113 -25,-27 -59,-41 -103,-41 -43,0 -78,14 -102,41 -25,28 -37,65 -37,113zm-191 571l0 -878 198 0 0 103c27,-41 58,-72 92,-92 34,-20 72,-30 114,-30 86,0 154,29 204,87 51,59 76,138 76,238 0,97 -25,176 -75,236 -51,60 -117,91 -198,91 -51,0 -93,-10 -125,-29 -33,-19 -62,-50 -87,-93 2,12 4,27 5,44 1,17 1,38 1,64l0 259 -205 0z"/>
  <path id="21" class="fil2" d="M5946 15485c0,-32 12,-60 35,-83 23,-23 51,-34 83,-34 34,0 62,11 85,34 23,22 34,50 34,83 0,34 -11,62 -35,85 -23,23 -51,35 -84,35 -32,0 -60,-12 -83,-36 -23,-23 -35,-51 -35,-84zm11 799l0 -609 215 0 0 609 -215 0z"/>
  <path id="22" class="fil2" d="M6756 15901c-4,-34 -17,-62 -39,-83 -23,-21 -50,-32 -83,-32 -35,0 -63,10 -84,29 -20,19 -34,48 -41,86l247 0zm211 121l-463 0c1,47 13,83 36,109 24,25 58,38 101,38 33,0 60,-6 83,-18 22,-12 39,-31 51,-55l161 65c-19,47 -53,83 -102,108 -49,26 -109,39 -181,39 -106,0 -191,-30 -255,-89 -64,-59 -96,-136 -96,-233 0,-95 32,-174 96,-236 64,-63 145,-94 243,-94 101,0 181,31 239,95 58,63 87,150 87,261l0 10z"/>
  <path id="23" class="fil2" d="M7556 15980c0,-47 -13,-84 -38,-112 -25,-27 -59,-41 -103,-41 -43,0 -77,14 -102,41 -25,28 -37,65 -37,112 0,48 12,85 37,113 24,27 59,40 102,40 44,0 78,-13 103,-41 25,-27 38,-64 38,-112zm190 -631l0 935 -198 0 0 -99c-27,41 -58,72 -92,92 -34,20 -72,31 -114,31 -85,0 -153,-30 -204,-89 -51,-59 -76,-139 -76,-239 0,-97 25,-175 76,-235 50,-60 116,-89 197,-89 51,0 93,9 126,27 32,19 61,50 86,93 -2,-14 -4,-30 -5,-49 -1,-18 -2,-38 -2,-59l0 -319 206 0z"/>
  <path id="24" class="fil2" d="M8370 15979c0,-47 -13,-85 -38,-113 -26,-27 -60,-41 -104,-41 -44,0 -78,14 -103,41 -25,27 -38,65 -38,113 0,47 13,85 38,112 25,28 60,41 103,41 44,0 78,-13 104,-41 25,-27 38,-65 38,-112zm189 -304l0 609 -198 0 0 -99c-28,42 -59,73 -95,93 -35,20 -76,30 -124,30 -81,0 -146,-30 -194,-89 -49,-60 -73,-139 -73,-239 0,-99 25,-178 76,-237 51,-58 119,-87 205,-87 46,0 86,9 119,29 33,20 61,50 85,90l0 -100 199 0z"/>
  <path id="25" class="fil2" d="M9186 15980c0,-47 -13,-84 -38,-112 -25,-27 -59,-41 -102,-41 -44,0 -78,14 -103,41 -25,28 -37,65 -37,112 0,48 12,85 37,113 25,27 59,40 103,40 43,0 77,-13 102,-41 25,-27 38,-64 38,-112zm190 -631l0 935 -197 0 0 -99c-28,41 -58,72 -93,92 -34,20 -72,31 -113,31 -86,0 -154,-30 -205,-89 -50,-59 -76,-139 -76,-239 0,-97 26,-175 76,-235 50,-60 116,-89 197,-89 52,0 94,9 126,27 32,19 61,50 86,93 -2,-14 -4,-30 -5,-49 -1,-18 -2,-38 -2,-59l0 -319 206 0z"/>
 </g>
</svg>
