<?xml version="1.0" encoding="UTF-8"?>
<!DOCTYPE svg PUBLIC "-//W3C//DTD SVG 1.1//EN" "http://www.w3.org/Graphics/SVG/1.1/DTD/svg11.dtd">
<!-- Creator: CorelDRAW X7 -->
<svg xmlns="http://www.w3.org/2000/svg" xml:space="preserve" width="190.5mm" height="338.667mm" version="1.1" style="shape-rendering:geometricPrecision; text-rendering:geometricPrecision; image-rendering:optimizeQuality; fill-rule:evenodd; clip-rule:evenodd"
viewBox="0 0 19050 33867"
 xmlns:xlink="http://www.w3.org/1999/xlink">
 <defs>
  <style type="text/css">
   <![CDATA[
    .fil0 {fill:none;fill-rule:nonzero}
    .fil1 {fill:#2B2A29;fill-rule:nonzero}
    .fil2 {fill:white;fill-rule:nonzero}
   ]]>
  </style>
 </defs>
 <g id="Capa_x0020_1">
  <metadata id="CorelCorpID_0Corel-Layer"/>
  <polygon class="fil0" points="0,33867 19050,33867 19050,0 0,0 "/>
  <polygon class="fil1" points="1750,17046 1750,17633 1639,17633 1639,17046 1458,17046 1458,16952 1930,16952 1930,17046 "/>
  <path id="1" class="fil1" d="M2325 17633l-101 0 0 -57c-18,25 -39,44 -63,57 -24,12 -51,18 -82,18 -63,0 -112,-21 -148,-64 -35,-42 -53,-101 -53,-175 0,-70 18,-127 55,-170 36,-43 84,-65 143,-65 36,0 67,7 92,22 26,15 45,37 56,65l0 -72 101 0 0 441zm-98 -222c0,-45 -10,-81 -32,-106 -21,-26 -51,-39 -89,-39 -38,0 -68,14 -90,40 -22,26 -33,63 -33,109 0,47 11,83 32,108 21,26 51,39 89,39 37,0 66,-14 89,-42 23,-27 34,-64 34,-109z"/>
  <path id="2" class="fil1" d="M2565 17633l-101 0 0 -441 95 0 0 73c21,-31 43,-54 69,-68 25,-14 56,-21 90,-21 35,0 63,7 86,22 23,14 40,36 52,66 23,-31 48,-53 74,-67 26,-14 56,-21 89,-21 29,0 55,5 77,16 21,11 38,26 50,47 6,9 10,21 13,34 2,14 4,33 4,57l0 36 0 267 -101 0 0 -226c0,-59 -7,-98 -19,-117 -13,-19 -35,-28 -67,-28 -40,0 -68,12 -85,38 -17,25 -26,69 -26,132l0 201 -102 0 0 -226c0,-55 -6,-93 -19,-114 -13,-21 -36,-31 -68,-31 -20,0 -38,4 -55,13 -16,9 -29,22 -39,37 -6,11 -10,23 -13,38 -2,15 -4,42 -4,82l0 201z"/>
  <path id="3" class="fil1" d="M3395 17411c0,45 12,82 35,109 23,28 53,42 90,42 38,0 67,-13 88,-39 21,-25 32,-61 32,-108 0,-46 -11,-83 -33,-109 -22,-26 -52,-40 -90,-40 -38,0 -68,13 -89,39 -22,25 -33,61 -33,106zm4 -499l0 352c12,-28 30,-49 56,-64 26,-15 57,-23 93,-23 59,0 106,22 143,65 36,43 55,100 55,170 0,74 -18,133 -54,175 -36,43 -85,64 -147,64 -32,0 -59,-6 -83,-18 -24,-13 -45,-32 -63,-57l0 57 -101 0 0 -721 101 0z"/>
  <path id="4" class="fil1" d="M3844 17002c0,-17 6,-32 19,-45 12,-12 27,-18 44,-18 18,0 33,6 45,18 12,12 18,27 18,45 0,18 -6,33 -18,45 -12,12 -27,19 -45,19 -17,0 -32,-7 -44,-19 -13,-13 -19,-28 -19,-45zm13 631l0 -441 101 0 0 441 -101 0z"/>
  <path id="5" class="fil1" d="M4527 17427l-353 0c3,42 15,74 37,97 22,23 51,35 88,35 33,0 60,-7 81,-21 22,-13 41,-35 57,-66l85 48c-25,44 -55,77 -92,99 -37,21 -80,32 -129,32 -71,0 -127,-21 -169,-64 -42,-43 -62,-101 -62,-173 0,-69 21,-126 64,-170 44,-45 99,-67 167,-67 71,0 127,20 166,61 40,40 60,97 60,170l0 19zm-105 -67c-4,-32 -16,-56 -36,-72 -20,-17 -48,-25 -83,-25 -33,0 -60,8 -80,24 -20,16 -34,40 -42,73l241 0zm-187 -234l89 -127 105 0 -136 127 -58 0z"/>
  <path id="6" class="fil1" d="M4632 17633l0 -441 95 0 0 73c20,-31 43,-53 71,-67 27,-14 60,-21 99,-21 33,0 61,5 84,16 23,10 42,25 55,46 7,12 13,26 16,42 4,16 5,45 5,85l0 267 -101 0 0 -226c0,-58 -7,-97 -22,-116 -14,-19 -39,-28 -75,-28 -23,0 -44,4 -63,13 -18,8 -33,21 -43,36 -8,11 -13,24 -16,41 -3,17 -4,43 -4,79l0 201 -101 0z"/>
  <polygon id="7" class="fil1" points="5484,17633 5484,16912 5585,16912 5585,17633 "/>
  <path id="8" class="fil1" d="M6144 17633l-101 0 0 -57c-18,25 -39,44 -63,57 -24,12 -52,18 -83,18 -62,0 -111,-21 -147,-64 -36,-42 -54,-101 -54,-175 0,-70 19,-127 55,-170 37,-43 85,-65 144,-65 36,0 67,7 92,22 26,15 44,37 56,65l0 -72 101 0 0 441zm-98 -222c0,-45 -11,-81 -32,-106 -21,-26 -51,-39 -89,-39 -38,0 -68,14 -90,40 -22,26 -33,63 -33,109 0,47 11,83 32,108 21,26 51,39 89,39 36,0 66,-14 89,-42 23,-27 34,-64 34,-109z"/>
  <path id="9" class="fil1" d="M6585 17633l0 -352 -77 0 0 -89 77 0 0 -118c0,-59 12,-102 36,-130 25,-27 63,-41 114,-41 11,0 22,0 33,2 12,1 23,4 35,7l0 91c-8,-4 -16,-8 -24,-10 -8,-3 -17,-4 -25,-4 -24,0 -42,8 -52,23 -11,15 -16,40 -16,75l0 105 106 0 0 89 -106 0 0 352 -101 0z"/>
  <path id="10" class="fil1" d="M7209 17414c0,-41 -13,-76 -40,-104 -26,-28 -58,-43 -96,-43 -38,0 -70,15 -97,43 -26,28 -39,63 -39,104 0,41 13,76 39,104 27,29 59,43 97,43 38,0 70,-14 96,-43 27,-28 40,-63 40,-104zm-379 -1c0,-32 6,-63 18,-91 13,-29 30,-54 53,-77 23,-22 49,-39 78,-50 30,-12 61,-18 93,-18 33,0 64,6 94,18 29,11 55,29 79,52 23,22 40,48 53,76 12,29 18,59 18,90 0,33 -6,63 -18,92 -12,28 -30,54 -53,76 -24,23 -51,40 -80,52 -30,12 -61,18 -93,18 -32,0 -63,-6 -92,-18 -30,-12 -56,-29 -79,-51 -23,-23 -41,-49 -53,-78 -12,-28 -18,-59 -18,-91z"/>
  <path id="11" class="fil1" d="M7523 17263c11,-30 25,-51 43,-65 18,-14 40,-21 67,-21 14,0 28,2 42,5 14,3 27,8 41,15l-37 86c-9,-7 -18,-11 -28,-14 -10,-3 -21,-4 -34,-4 -33,0 -57,13 -72,40 -15,27 -22,72 -22,135l0 193 -101 0 0 -442 101 0 0 72z"/>
  <path id="12" class="fil1" d="M7874 17633l-101 0 0 -441 95 0 0 73c20,-31 43,-54 68,-68 26,-14 56,-21 91,-21 34,0 63,7 85,22 23,14 40,36 52,66 23,-31 48,-53 74,-67 27,-14 56,-21 90,-21 29,0 54,5 76,16 22,11 39,26 51,47 5,9 10,21 12,34 3,14 4,33 4,57l0 36 0 267 -101 0 0 -226c0,-59 -6,-98 -19,-117 -12,-19 -35,-28 -67,-28 -40,0 -68,12 -85,38 -17,25 -25,69 -25,132l0 201 -102 0 0 -226c0,-55 -7,-93 -20,-114 -13,-21 -36,-31 -68,-31 -20,0 -38,4 -54,13 -17,9 -30,22 -40,37 -6,11 -10,23 -13,38 -2,15 -3,42 -3,82l0 201z"/>
  <path id="13" class="fil1" d="M9022 17633l-101 0 0 -57c-18,25 -39,44 -63,57 -25,12 -52,18 -83,18 -62,0 -112,-21 -147,-64 -36,-42 -54,-101 -54,-175 0,-70 18,-127 55,-170 37,-43 84,-65 143,-65 36,0 67,7 93,22 25,15 44,37 56,65l0 -72 101 0 0 441zm-99 -222c0,-45 -10,-81 -31,-106 -22,-26 -51,-39 -89,-39 -39,0 -69,14 -90,40 -22,26 -33,63 -33,109 0,47 10,83 31,108 21,26 51,39 90,39 36,0 65,-14 88,-42 23,-27 34,-64 34,-109z"/>
  <path id="14" class="fil1" d="M9490 17318c-15,-17 -33,-30 -54,-39 -21,-9 -43,-13 -67,-13 -41,0 -74,13 -99,40 -25,26 -37,61 -37,106 0,45 13,81 38,108 24,26 59,39 103,39 24,0 46,-5 66,-14 19,-9 36,-23 50,-41l0 116c-18,10 -38,18 -60,23 -21,6 -43,8 -67,8 -69,0 -126,-22 -169,-66 -44,-44 -66,-101 -66,-171 0,-71 23,-128 68,-172 45,-43 104,-65 177,-65 23,0 44,2 63,7 19,4 38,11 54,21l0 113z"/>
  <path id="15" class="fil1" d="M9585 17002c0,-17 6,-32 19,-45 12,-12 27,-18 44,-18 18,0 34,6 45,18 12,12 18,27 18,45 0,18 -6,33 -18,45 -12,12 -27,19 -45,19 -17,0 -32,-7 -44,-19 -13,-13 -19,-28 -19,-45zm13 631l0 -441 101 0 0 441 -101 0z"/>
  <path id="16" class="fil1" d="M10190 17414c0,-41 -14,-76 -40,-104 -26,-28 -58,-43 -97,-43 -37,0 -70,15 -96,43 -27,28 -40,63 -40,104 0,41 13,76 40,104 26,29 59,43 96,43 38,0 70,-14 97,-43 26,-28 40,-63 40,-104zm-379 -1c0,-32 6,-63 18,-91 12,-29 30,-54 53,-77 22,-22 48,-39 78,-50 29,-12 60,-18 93,-18 33,0 64,6 93,18 30,11 56,29 79,52 23,22 41,48 53,76 12,29 18,59 18,90 0,33 -6,63 -18,92 -11,28 -29,54 -52,76 -24,23 -51,40 -80,52 -30,12 -61,18 -93,18 -32,0 -63,-6 -93,-18 -29,-12 -55,-29 -78,-51 -23,-23 -41,-49 -53,-78 -12,-28 -18,-59 -18,-91zm177 -287l88 -127 105 0 -136 127 -57 0z"/>
  <path id="17" class="fil1" d="M10403 17633l0 -441 95 0 0 73c20,-31 44,-53 71,-67 27,-14 60,-21 100,-21 32,0 60,5 84,16 23,10 41,25 54,46 8,12 13,26 17,42 3,16 5,45 5,85l0 267 -102 0 0 -226c0,-58 -7,-97 -21,-116 -15,-19 -40,-28 -76,-28 -23,0 -44,4 -63,13 -18,8 -33,21 -43,36 -8,11 -13,24 -16,41 -3,17 -4,43 -4,79l0 201 -101 0z"/>
  <path id="18" class="fil1" d="M11326 17841l-103 0 121 -246 -162 -403 111 0 81 229c5,14 9,28 13,42 3,15 6,29 8,44 4,-15 14,-40 29,-74l2 -5 109 -236 110 0 -319 649z"/>
  <path id="19" class="fil1" d="M12402 17633l-101 0 0 -57c-18,25 -39,44 -63,57 -24,12 -52,18 -83,18 -62,0 -111,-21 -147,-64 -36,-42 -54,-101 -54,-175 0,-70 18,-127 55,-170 37,-43 85,-65 143,-65 36,0 67,7 93,22 25,15 44,37 56,65l0 -72 101 0 0 441zm-98 -222c0,-45 -11,-81 -32,-106 -21,-26 -51,-39 -89,-39 -38,0 -68,14 -90,40 -22,26 -33,63 -33,109 0,47 10,83 32,108 21,26 50,39 89,39 36,0 66,-14 88,-42 23,-27 35,-64 35,-109z"/>
  <path id="20" class="fil1" d="M12870 17318c-15,-17 -33,-30 -54,-39 -20,-9 -43,-13 -66,-13 -42,0 -75,13 -100,40 -24,26 -37,61 -37,106 0,45 13,81 38,108 25,26 59,39 103,39 25,0 47,-5 66,-14 19,-9 36,-23 50,-41l0 116c-18,10 -38,18 -59,23 -21,6 -44,8 -68,8 -69,0 -126,-22 -169,-66 -44,-44 -65,-101 -65,-171 0,-71 22,-128 67,-172 45,-43 104,-65 177,-65 23,0 44,2 64,7 19,4 37,11 53,21l0 113z"/>
  <polygon id="21" class="fil1" points="12997,17633 12997,17281 12920,17281 12920,17192 12997,17192 12997,17025 13098,17025 13098,17192 13175,17192 13175,17281 13098,17281 13098,17633 "/>
  <path id="22" class="fil1" d="M13360 17192l0 249c0,42 9,73 27,92 18,18 46,28 86,28 39,0 68,-10 86,-28 17,-19 26,-50 26,-92l0 -249 101 0 0 218c0,85 -17,146 -50,184 -34,38 -88,57 -162,57 -76,0 -130,-19 -164,-56 -34,-38 -51,-100 -51,-185l0 -218 101 0z"/>
  <path id="23" class="fil1" d="M14237 17633l-100 0 0 -57c-18,25 -40,44 -64,57 -24,12 -51,18 -82,18 -62,0 -112,-21 -147,-64 -36,-42 -54,-101 -54,-175 0,-70 18,-127 55,-170 36,-43 84,-65 143,-65 36,0 67,7 92,22 26,15 45,37 57,65l0 -72 100 0 0 441zm-98 -222c0,-45 -10,-81 -32,-106 -21,-26 -50,-39 -89,-39 -38,0 -68,14 -90,40 -22,26 -32,63 -32,109 0,47 10,83 31,108 21,26 51,39 90,39 36,0 65,-14 88,-42 23,-27 34,-64 34,-109z"/>
  <polygon id="24" class="fil1" points="14381,17633 14381,16912 14482,16912 14482,17633 "/>
  <path id="25" class="fil1" d="M14618 17002c0,-17 6,-32 19,-45 12,-12 27,-18 45,-18 17,0 33,6 44,18 12,12 18,27 18,45 0,18 -6,33 -18,45 -12,12 -27,19 -44,19 -18,0 -33,-7 -45,-19 -13,-13 -19,-28 -19,-45zm13 631l0 -441 101 0 0 441 -101 0z"/>
  <polygon id="26" class="fil1" points="15215,17633 14805,17633 15051,17281 14830,17281 14830,17192 15215,17192 14975,17545 15215,17545 "/>
  <path id="27" class="fil1" d="M15719 17633l-101 0 0 -57c-18,25 -39,44 -63,57 -24,12 -51,18 -83,18 -62,0 -111,-21 -147,-64 -36,-42 -54,-101 -54,-175 0,-70 19,-127 55,-170 37,-43 85,-65 144,-65 36,0 67,7 92,22 26,15 44,37 56,65l0 -72 101 0 0 441zm-98 -222c0,-45 -11,-81 -32,-106 -21,-26 -51,-39 -89,-39 -38,0 -68,14 -90,40 -22,26 -33,63 -33,109 0,47 11,83 32,108 21,26 51,39 89,39 36,0 66,-14 89,-42 23,-27 34,-64 34,-109z"/>
  <path id="28" class="fil1" d="M16188 17318c-16,-17 -34,-30 -54,-39 -21,-9 -43,-13 -67,-13 -41,0 -74,13 -99,40 -25,26 -37,61 -37,106 0,45 12,81 37,108 25,26 59,39 104,39 24,0 46,-5 65,-14 19,-9 36,-23 51,-41l0 116c-19,10 -39,18 -60,23 -21,6 -44,8 -68,8 -69,0 -125,-22 -169,-66 -43,-44 -65,-101 -65,-171 0,-71 22,-128 67,-172 46,-43 105,-65 178,-65 22,0 44,2 63,7 19,4 37,11 54,21l0 113z"/>
  <path id="29" class="fil1" d="M16282 17002c0,-17 7,-32 19,-45 13,-12 28,-18 45,-18 18,0 33,6 45,18 12,12 18,27 18,45 0,18 -6,33 -18,45 -12,12 -27,19 -45,19 -17,0 -32,-7 -45,-19 -12,-13 -19,-28 -19,-45zm14 631l0 -441 100 0 0 441 -100 0z"/>
  <path id="30" class="fil1" d="M16887 17414c0,-41 -13,-76 -39,-104 -27,-28 -59,-43 -97,-43 -38,0 -70,15 -97,43 -26,28 -39,63 -39,104 0,41 13,76 39,104 27,29 59,43 97,43 38,0 70,-14 96,-43 27,-28 40,-63 40,-104zm-379 -1c0,-32 6,-63 18,-91 13,-29 30,-54 53,-77 23,-22 49,-39 78,-50 30,-12 61,-18 93,-18 33,0 64,6 94,18 29,11 55,29 79,52 23,22 41,48 53,76 12,29 18,59 18,90 0,33 -6,63 -18,92 -12,28 -29,54 -52,76 -25,23 -51,40 -81,52 -29,12 -60,18 -93,18 -32,0 -63,-6 -92,-18 -30,-12 -56,-29 -79,-51 -23,-23 -41,-49 -53,-78 -12,-28 -18,-59 -18,-91zm177 -287l89 -127 105 0 -136 127 -58 0z"/>
  <path id="31" class="fil1" d="M17100 17633l0 -441 95 0 0 73c20,-31 44,-53 71,-67 28,-14 61,-21 100,-21 33,0 61,5 84,16 23,10 41,25 54,46 8,12 14,26 17,42 3,16 5,45 5,85l0 267 -102 0 0 -226c0,-58 -7,-97 -21,-116 -14,-19 -39,-28 -75,-28 -24,0 -45,4 -63,13 -19,8 -33,21 -44,36 -7,11 -12,24 -15,41 -3,17 -5,43 -5,79l0 201 -101 0z"/>
  <path id="32" class="fil1" d="M1838 18553c0,-46 -10,-81 -31,-107 -22,-25 -51,-38 -90,-38 -38,0 -68,13 -90,40 -21,26 -32,62 -32,109 0,47 10,83 31,108 21,26 51,38 90,38 36,0 66,-13 88,-41 23,-27 34,-64 34,-109zm-2 -499l101 0 0 721 -101 0 0 -57c-18,25 -39,44 -63,56 -25,13 -52,19 -83,19 -62,0 -112,-21 -147,-64 -36,-42 -54,-101 -54,-175 0,-70 18,-127 55,-170 36,-44 84,-65 143,-65 36,0 67,7 93,22 25,15 44,37 56,65l0 -352z"/>
  <path id="33" class="fil1" d="M2500 18569l-352 0c3,41 15,74 37,97 22,23 51,35 88,35 32,0 59,-7 81,-21 22,-14 41,-36 57,-66l85 47c-25,45 -56,78 -92,99 -37,22 -80,33 -129,33 -71,0 -127,-22 -169,-65 -42,-43 -63,-100 -63,-172 0,-69 22,-126 65,-171 43,-44 99,-66 167,-66 71,0 126,20 166,61 40,40 59,97 59,170l0 19zm-104 -67c-4,-32 -16,-56 -37,-73 -20,-16 -47,-25 -82,-25 -33,0 -60,8 -80,25 -20,16 -34,40 -42,73l241 0z"/>
  <polygon id="34" class="fil1" points="2610,18775 2610,18054 2711,18054 2711,18775 "/>
  <path id="35" class="fil1" d="M3472 18460c-15,-17 -33,-30 -54,-39 -21,-9 -43,-14 -67,-14 -41,0 -74,14 -99,40 -25,27 -37,62 -37,106 0,46 13,82 37,108 25,27 60,40 104,40 24,0 46,-5 66,-14 19,-9 36,-23 50,-42l0 117c-18,10 -38,18 -60,23 -21,5 -44,8 -67,8 -70,0 -126,-22 -169,-66 -44,-44 -66,-101 -66,-171 0,-71 23,-128 68,-172 45,-44 104,-65 177,-65 23,0 44,2 63,7 19,4 37,11 54,20l0 114z"/>
  <path id="36" class="fil1" d="M3990 18775l-100 0 0 -57c-18,25 -40,44 -64,56 -24,13 -51,19 -82,19 -62,0 -112,-21 -147,-64 -36,-42 -54,-101 -54,-175 0,-70 18,-127 55,-170 36,-44 84,-65 143,-65 36,0 67,7 92,22 26,15 45,37 57,65l0 -72 100 0 0 441zm-98 -222c0,-46 -10,-81 -32,-107 -21,-25 -50,-38 -89,-38 -38,0 -68,13 -90,40 -22,26 -32,62 -32,109 0,47 10,83 31,108 21,26 51,38 89,38 37,0 66,-13 89,-41 23,-28 34,-64 34,-109z"/>
  <polygon id="37" class="fil1" points="4153,18775 4153,18422 4076,18422 4076,18334 4153,18334 4153,18167 4254,18167 4254,18334 4331,18334 4331,18422 4254,18422 4254,18775 "/>
  <path id="38" class="fil1" d="M4834 18775l-101 0 0 -57c-18,25 -39,44 -63,56 -25,13 -52,19 -83,19 -62,0 -112,-21 -147,-64 -36,-42 -54,-101 -54,-175 0,-70 18,-127 55,-170 37,-44 84,-65 143,-65 36,0 67,7 93,22 25,15 44,37 56,65l0 -72 101 0 0 441zm-98 -222c0,-46 -11,-81 -32,-107 -22,-25 -51,-38 -89,-38 -39,0 -69,13 -90,40 -22,26 -33,62 -33,109 0,47 10,83 31,108 21,26 51,38 90,38 36,0 66,-13 88,-41 23,-28 35,-64 35,-109z"/>
  <path id="39" class="fil1" d="M4922 18695l84 -46c6,22 18,39 34,51 17,11 39,17 65,17 23,0 40,-5 53,-16 13,-10 19,-24 19,-42 0,-24 -22,-45 -68,-62 -16,-5 -28,-10 -36,-14 -47,-19 -80,-39 -99,-59 -19,-20 -28,-45 -28,-74 0,-39 15,-71 46,-96 31,-24 72,-36 123,-36 34,0 63,6 87,19 25,12 42,30 54,53l-72 50c-5,-14 -14,-25 -28,-34 -13,-8 -28,-12 -45,-12 -20,0 -35,5 -47,14 -11,9 -17,21 -17,36 0,23 26,44 78,63 16,6 29,11 38,14 41,17 70,35 87,55 18,20 27,46 27,76 0,44 -17,79 -48,104 -32,24 -76,37 -132,37 -44,0 -79,-8 -108,-24 -28,-16 -51,-41 -67,-74z"/>
  <polygon id="40" class="fil1" points="5402,18775 5402,18422 5325,18422 5325,18334 5402,18334 5402,18167 5503,18167 5503,18334 5580,18334 5580,18422 5503,18422 5503,18775 "/>
  <path id="41" class="fil1" d="M5768 18404c11,-29 25,-50 43,-64 18,-14 40,-21 67,-21 14,0 28,1 42,5 13,3 27,8 40,15l-36 85c-9,-6 -18,-10 -28,-13 -10,-3 -21,-5 -34,-5 -33,0 -57,14 -72,40 -15,27 -22,72 -22,136l0 193 -101 0 0 -442 101 0 0 71z"/>
  <path id="42" class="fil1" d="M6364 18556c0,-41 -13,-76 -39,-104 -26,-29 -59,-43 -97,-43 -38,0 -70,14 -96,43 -27,28 -40,63 -40,104 0,41 13,76 40,104 26,28 58,43 96,43 38,0 70,-15 97,-43 26,-28 39,-63 39,-104zm-379 -1c0,-32 7,-63 19,-91 12,-29 30,-55 52,-77 23,-22 49,-39 79,-51 29,-11 60,-17 92,-17 33,0 65,6 94,17 29,12 56,30 79,52 23,23 41,49 53,77 12,29 18,59 18,90 0,32 -6,63 -18,91 -12,29 -29,54 -52,76 -24,24 -51,41 -81,53 -29,12 -60,18 -93,18 -32,0 -62,-6 -92,-18 -29,-12 -56,-29 -79,-52 -23,-23 -40,-48 -53,-77 -12,-28 -18,-59 -18,-91z"/>
  <path id="43" class="fil1" d="M6966 18404c11,-29 25,-50 43,-64 18,-14 40,-21 67,-21 14,0 28,1 42,5 14,3 27,8 41,15l-37 85c-9,-6 -18,-10 -28,-13 -10,-3 -21,-5 -34,-5 -33,0 -57,14 -72,40 -15,27 -22,72 -22,136l0 193 -101 0 0 -442 101 0 0 71z"/>
  <path id="44" class="fil1" d="M7314 18334l0 249c0,42 9,73 26,92 18,18 47,28 86,28 40,0 69,-10 86,-28 18,-19 27,-50 27,-92l0 -249 101 0 0 218c0,84 -17,146 -51,184 -34,38 -88,57 -162,57 -75,0 -130,-19 -163,-57 -34,-37 -51,-99 -51,-184l0 -218 101 0z"/>
  <path id="45" class="fil1" d="M7877 18404c11,-29 25,-50 43,-64 18,-14 40,-21 66,-21 15,0 28,1 42,5 14,3 28,8 41,15l-36 85c-9,-6 -18,-10 -28,-13 -11,-3 -22,-5 -34,-5 -34,0 -58,14 -72,40 -15,27 -22,72 -22,136l0 193 -101 0 0 -442 101 0 0 71z"/>
  <path id="46" class="fil1" d="M8542 18775l-101 0 0 -57c-18,25 -39,44 -63,56 -24,13 -52,19 -83,19 -62,0 -111,-21 -147,-64 -36,-42 -54,-101 -54,-175 0,-70 18,-127 55,-170 37,-44 84,-65 143,-65 36,0 67,7 93,22 25,15 44,37 56,65l0 -72 101 0 0 441zm-98 -222c0,-46 -11,-81 -32,-107 -22,-25 -51,-38 -89,-38 -39,0 -69,13 -90,40 -22,26 -33,62 -33,109 0,47 10,83 31,108 21,26 51,38 90,38 36,0 66,-13 88,-41 23,-28 35,-64 35,-109z"/>
  <polygon id="47" class="fil1" points="8686,18775 8686,18054 8787,18054 8787,18775 "/>
  <path id="48" class="fil1" d="M9294 18983l-104 0 121 -246 -162 -403 112 0 81 228c5,14 9,28 12,43 4,14 7,29 9,44 4,-16 14,-40 29,-74l2 -6 109 -235 109 0 -318 649z"/>
  <polygon id="49" class="fil1" points="9959,18775 9959,18054 10060,18054 10060,18775 "/>
  <path id="50" class="fil1" d="M10619 18775l-101 0 0 -57c-18,25 -39,44 -63,56 -24,13 -51,19 -82,19 -63,0 -112,-21 -148,-64 -35,-42 -53,-101 -53,-175 0,-70 18,-127 55,-170 36,-44 84,-65 143,-65 36,0 67,7 92,22 26,15 45,37 56,65l0 -72 101 0 0 441zm-98 -222c0,-46 -10,-81 -32,-107 -21,-25 -51,-38 -89,-38 -38,0 -68,13 -90,40 -22,26 -33,62 -33,109 0,47 11,83 32,108 21,26 51,38 89,38 37,0 66,-13 89,-41 23,-28 34,-64 34,-109z"/>
  <path id="51" class="fil1" d="M11143 18553c0,46 12,82 35,110 22,27 52,40 90,40 38,0 67,-12 88,-38 21,-25 32,-61 32,-108 0,-47 -11,-83 -33,-109 -22,-27 -52,-40 -90,-40 -38,0 -68,13 -89,38 -22,26 -33,61 -33,107zm-97 430l0 -649 101 0 0 72c12,-28 30,-49 56,-65 26,-15 57,-22 93,-22 59,0 106,21 143,65 36,43 55,100 55,170 0,74 -18,133 -54,175 -36,43 -85,64 -147,64 -32,0 -59,-6 -83,-19 -24,-12 -45,-31 -63,-56l0 265 -101 0z"/>
  <path id="52" class="fil1" d="M11698 18334l0 249c0,42 9,73 27,92 17,18 46,28 86,28 39,0 68,-10 86,-28 17,-19 26,-50 26,-92l0 -249 101 0 0 218c0,84 -17,146 -51,184 -33,38 -87,57 -161,57 -76,0 -130,-19 -164,-57 -34,-37 -51,-99 -51,-184l0 -218 101 0z"/>
  <path id="53" class="fil1" d="M12585 18569l-352 0c2,41 14,74 36,97 22,23 52,35 88,35 33,0 60,-7 82,-21 21,-14 40,-36 56,-66l85 47c-25,45 -55,78 -92,99 -36,22 -79,33 -129,33 -70,0 -127,-22 -169,-65 -41,-43 -62,-100 -62,-172 0,-69 21,-126 65,-171 43,-44 98,-66 166,-66 71,0 127,20 166,61 40,40 60,97 60,170l0 19zm-105 -67c-4,-32 -16,-56 -36,-73 -20,-16 -48,-25 -83,-25 -33,0 -60,8 -80,25 -20,16 -34,40 -42,73l241 0z"/>
  <path id="54" class="fil1" d="M12639 18695l84 -46c6,22 18,39 35,51 16,11 38,17 64,17 23,0 41,-5 53,-16 13,-10 20,-24 20,-42 0,-24 -23,-45 -69,-62 -15,-5 -28,-10 -36,-14 -47,-19 -80,-39 -99,-59 -18,-20 -28,-45 -28,-74 0,-39 16,-71 46,-96 31,-24 72,-36 123,-36 34,0 63,6 88,19 24,12 42,30 53,53l-72 50c-5,-14 -14,-25 -27,-34 -14,-8 -29,-12 -46,-12 -19,0 -35,5 -46,14 -12,9 -18,21 -18,36 0,23 26,44 78,63 17,6 29,11 38,14 41,17 70,35 88,55 17,20 26,46 26,76 0,44 -16,79 -48,104 -32,24 -76,37 -132,37 -43,0 -79,-8 -108,-24 -28,-16 -50,-41 -67,-74z"/>
  <polygon id="55" class="fil1" points="13119,18775 13119,18422 13042,18422 13042,18334 13119,18334 13119,18167 13220,18167 13220,18334 13297,18334 13297,18422 13220,18422 13220,18775 "/>
  <path id="56" class="fil1" d="M13800 18775l-101 0 0 -57c-18,25 -39,44 -63,56 -25,13 -52,19 -83,19 -62,0 -112,-21 -147,-64 -36,-42 -54,-101 -54,-175 0,-70 18,-127 55,-170 36,-44 84,-65 143,-65 36,0 67,7 93,22 25,15 44,37 56,65l0 -72 101 0 0 441zm-99 -222c0,-46 -10,-81 -31,-107 -22,-25 -51,-38 -90,-38 -38,0 -68,13 -90,40 -21,26 -32,62 -32,109 0,47 10,83 31,108 21,26 51,38 90,38 36,0 65,-13 88,-41 23,-28 34,-64 34,-109z"/>
  <path id="57" class="fil1" d="M14641 18775l-101 0 0 -57c-18,25 -39,44 -63,56 -24,13 -51,19 -82,19 -63,0 -112,-21 -147,-64 -36,-42 -54,-101 -54,-175 0,-70 18,-127 55,-170 36,-44 84,-65 143,-65 36,0 67,7 92,22 26,15 45,37 56,65l0 -72 101 0 0 441zm-98 -222c0,-46 -10,-81 -32,-107 -21,-25 -51,-38 -89,-38 -38,0 -68,13 -90,40 -22,26 -33,62 -33,109 0,47 11,83 32,108 21,26 51,38 89,38 37,0 66,-13 89,-41 23,-28 34,-64 34,-109z"/>
  <polygon id="58" class="fil1" points="14785,18775 14785,18054 14886,18054 14886,18775 "/>
  <path id="59" class="fil1" d="M15635 18553c0,-46 -11,-81 -32,-107 -21,-25 -51,-38 -89,-38 -38,0 -68,13 -90,40 -22,26 -33,62 -33,109 0,47 10,83 32,108 21,26 51,38 89,38 37,0 66,-13 89,-41 22,-27 34,-64 34,-109zm-3 -499l101 0 0 721 -101 0 0 -57c-18,25 -39,44 -63,56 -24,13 -52,19 -83,19 -62,0 -111,-21 -147,-64 -36,-42 -54,-101 -54,-175 0,-70 19,-127 55,-170 37,-44 85,-65 144,-65 36,0 66,7 92,22 26,15 44,37 56,65l0 -352z"/>
  <path id="60" class="fil1" d="M15877 18775l0 -441 101 0 0 441 -101 0zm-15 -508l88 -126 105 0 -136 126 -57 0z"/>
  <path id="61" class="fil1" d="M16537 18775l-101 0 0 -57c-18,25 -39,44 -63,56 -24,13 -52,19 -83,19 -62,0 -111,-21 -147,-64 -36,-42 -54,-101 -54,-175 0,-70 19,-127 55,-170 37,-44 85,-65 144,-65 36,0 66,7 92,22 26,15 44,37 56,65l0 -72 101 0 0 441zm-98 -222c0,-46 -11,-81 -32,-107 -21,-25 -51,-38 -89,-38 -38,0 -68,13 -90,40 -22,26 -33,62 -33,109 0,47 11,83 32,108 21,26 51,38 89,38 36,0 66,-13 89,-41 23,-28 34,-64 34,-109z"/>
  <path id="62" class="fil1" d="M1838 19695c0,-46 -10,-81 -31,-107 -22,-25 -51,-38 -90,-38 -38,0 -68,13 -90,39 -21,27 -32,63 -32,110 0,46 10,83 31,108 21,26 51,38 90,38 36,0 66,-14 88,-41 23,-28 34,-64 34,-109zm-2 -499l101 0 0 721 -101 0 0 -57c-18,25 -39,44 -63,56 -25,13 -52,19 -83,19 -62,0 -112,-22 -147,-64 -36,-43 -54,-101 -54,-175 0,-71 18,-127 55,-171 36,-43 84,-65 143,-65 36,0 67,8 93,23 25,15 44,36 56,65l0 -352z"/>
  <path id="63" class="fil1" d="M2500 19711l-352 0c3,41 15,73 37,97 22,23 51,34 88,34 32,0 59,-6 81,-20 22,-14 41,-36 57,-66l85 47c-25,45 -56,77 -92,99 -37,22 -80,33 -129,33 -71,0 -127,-22 -169,-65 -42,-43 -63,-101 -63,-172 0,-70 22,-126 65,-171 43,-44 99,-67 167,-67 71,0 126,21 166,61 40,41 59,98 59,171l0 19zm-104 -68c-4,-31 -16,-55 -37,-72 -20,-17 -47,-25 -82,-25 -33,0 -60,8 -80,24 -20,16 -34,41 -42,73l241 0z"/>
  <polygon id="64" class="fil1" points="2610,19917 2610,19196 2711,19196 2711,19917 "/>
  <path id="65" class="fil1" d="M3240 19695c0,45 12,82 35,109 22,28 52,41 90,41 38,0 67,-12 88,-38 21,-25 32,-62 32,-108 0,-47 -11,-83 -33,-110 -22,-26 -52,-39 -90,-39 -38,0 -68,13 -90,38 -21,26 -32,61 -32,107zm-97 429l0 -648 101 0 0 72c11,-28 30,-50 56,-65 26,-15 57,-23 93,-23 59,0 106,22 143,65 36,44 54,100 54,171 0,74 -18,132 -54,175 -35,42 -84,64 -147,64 -31,0 -58,-6 -82,-19 -24,-12 -45,-31 -63,-56l0 264 -101 0z"/>
  <path id="66" class="fil1" d="M3798 19546c11,-29 25,-51 43,-65 18,-14 40,-21 66,-21 15,0 29,2 43,5 13,4 27,9 40,15l-36 86c-9,-6 -18,-11 -28,-14 -10,-3 -22,-4 -34,-4 -34,0 -58,13 -72,40 -15,27 -22,72 -22,135l0 194 -101 0 0 -442 101 0 0 71z"/>
  <path id="67" class="fil1" d="M4472 19711l-352 0c3,41 15,73 37,97 22,23 51,34 88,34 32,0 59,-6 81,-20 22,-14 41,-36 57,-66l85 47c-25,45 -56,77 -92,99 -37,22 -80,33 -129,33 -71,0 -127,-22 -169,-65 -42,-43 -63,-101 -63,-172 0,-70 22,-126 65,-171 43,-44 99,-67 167,-67 71,0 126,21 166,61 40,41 59,98 59,171l0 19zm-104 -68c-4,-31 -16,-55 -37,-72 -20,-17 -47,-25 -82,-25 -33,0 -60,8 -80,24 -20,16 -34,41 -42,73l241 0z"/>
  <path id="68" class="fil1" d="M4895 19695c0,-46 -11,-81 -32,-107 -22,-25 -51,-38 -89,-38 -39,0 -69,13 -90,39 -22,27 -33,63 -33,110 0,46 10,83 31,108 21,26 51,38 90,38 36,0 66,-14 89,-41 22,-28 34,-64 34,-109zm-3 -499l101 0 0 721 -101 0 0 -57c-18,25 -39,44 -63,56 -24,13 -52,19 -83,19 -62,0 -111,-22 -147,-64 -36,-43 -54,-101 -54,-175 0,-71 18,-127 55,-171 37,-43 84,-65 143,-65 36,0 67,8 93,23 25,15 44,36 56,65l0 -352z"/>
  <path id="69" class="fil1" d="M5123 19285c0,-17 7,-32 19,-44 13,-13 28,-19 45,-19 18,0 33,6 45,18 12,12 18,27 18,45 0,18 -6,33 -18,46 -12,12 -27,18 -45,18 -17,0 -32,-6 -45,-19 -12,-12 -19,-27 -19,-45zm14 632l0 -441 100 0 0 441 -100 0z"/>
  <path id="70" class="fil1" d="M5797 19917l-101 0 0 -57c-18,25 -39,44 -63,56 -24,13 -52,19 -83,19 -62,0 -111,-22 -147,-64 -36,-43 -54,-101 -54,-175 0,-71 18,-127 55,-171 37,-43 84,-65 143,-65 36,0 67,8 93,23 25,15 44,36 56,65l0 -72 101 0 0 441zm-98 -222c0,-46 -11,-81 -32,-107 -22,-25 -51,-38 -89,-38 -39,0 -69,13 -90,39 -22,27 -33,63 -33,110 0,46 10,83 31,108 22,26 51,38 90,38 36,0 66,-14 88,-41 23,-28 35,-64 35,-109z"/>
  <polygon id="71" class="fil1" points="5941,19917 5941,19196 6042,19196 6042,19917 "/>
  <path id="72" class="fil1" d="M6616 19241l-88 254 -85 -29 114 -246 59 21zm169 0l-88 254 -85 -29 114 -246 59 21z"/>
  <path id="73" class="fil1" d="M7319 19711l-353 0c3,41 15,73 37,97 22,23 51,34 88,34 33,0 60,-6 81,-20 22,-14 41,-36 57,-66l85 47c-25,45 -55,77 -92,99 -37,22 -80,33 -129,33 -71,0 -127,-22 -169,-65 -42,-43 -63,-101 -63,-172 0,-70 22,-126 65,-171 44,-44 99,-67 167,-67 71,0 126,21 166,61 40,41 60,98 60,171l0 19zm-105 -68c-4,-31 -16,-55 -36,-72 -20,-17 -48,-25 -83,-25 -33,0 -60,8 -80,24 -20,16 -34,41 -42,73l241 0z"/>
  <polygon id="74" class="fil1" points="7428,19917 7428,19196 7529,19196 7529,19917 "/>
  <path id="75" class="fil1" d="M8278 19695c0,-46 -11,-81 -32,-107 -21,-25 -51,-38 -89,-38 -38,0 -68,13 -90,39 -22,27 -33,63 -33,110 0,46 11,83 32,108 21,26 51,38 89,38 37,0 67,-13 89,-41 23,-27 34,-64 34,-109zm98 429l-101 0 0 -264c-18,25 -39,44 -63,56 -24,13 -51,19 -83,19 -62,0 -111,-22 -147,-64 -36,-43 -54,-101 -54,-175 0,-71 19,-127 55,-171 37,-43 85,-65 144,-65 36,0 67,8 92,23 26,15 44,36 56,65l0 -72 101 0 0 648z"/>
  <path id="76" class="fil1" d="M8613 19476l0 248c0,43 9,74 27,92 17,19 46,28 86,28 39,0 68,-9 86,-28 17,-18 26,-49 26,-92l0 -248 101 0 0 218c0,84 -17,146 -51,184 -33,38 -87,57 -161,57 -76,0 -130,-19 -164,-57 -34,-38 -51,-99 -51,-184l0 -218 101 0z"/>
  <path id="77" class="fil1" d="M9500 19711l-353 0c3,41 15,73 37,97 22,23 52,34 88,34 33,0 60,-6 82,-20 21,-14 40,-36 56,-66l85 47c-25,45 -55,77 -92,99 -36,22 -79,33 -129,33 -70,0 -127,-22 -169,-65 -41,-43 -62,-101 -62,-172 0,-70 21,-126 65,-171 43,-44 98,-67 166,-67 71,0 127,21 166,61 40,41 60,98 60,171l0 19zm-105 -68c-4,-31 -16,-55 -36,-72 -20,-17 -48,-25 -83,-25 -33,0 -60,8 -80,24 -20,16 -34,41 -42,73l241 0z"/>
  <path id="78" class="fil1" d="M9993 19917l-101 0 0 -441 95 0 0 72c20,-31 43,-53 69,-67 25,-15 56,-22 90,-22 35,0 63,8 86,22 23,14 40,37 52,66 23,-30 48,-53 74,-67 26,-14 56,-21 89,-21 29,0 55,6 77,16 21,11 38,27 50,47 6,10 10,21 13,35 2,13 4,32 4,57l0 35 0 268 -101 0 0 -227c0,-59 -7,-98 -19,-117 -13,-18 -35,-28 -67,-28 -40,0 -68,13 -85,38 -17,25 -26,70 -26,133l0 201 -102 0 0 -227c0,-54 -6,-92 -19,-113 -13,-21 -36,-32 -69,-32 -19,0 -37,5 -54,14 -16,9 -29,21 -39,37 -6,10 -10,23 -13,37 -2,15 -4,43 -4,83l0 201z"/>
  <path id="79" class="fil1" d="M11141 19917l-101 0 0 -57c-18,25 -39,44 -63,56 -24,13 -51,19 -83,19 -62,0 -111,-22 -147,-64 -36,-43 -54,-101 -54,-175 0,-71 19,-127 55,-171 37,-43 85,-65 144,-65 36,0 67,8 92,23 26,15 44,36 56,65l0 -72 101 0 0 441zm-98 -222c0,-46 -11,-81 -32,-107 -21,-25 -51,-38 -89,-38 -38,0 -68,13 -90,39 -22,27 -33,63 -33,110 0,46 11,83 32,108 21,26 51,38 89,38 36,0 66,-14 89,-41 23,-28 34,-64 34,-109zm-171 -286l89 -127 105 0 -136 127 -58 0z"/>
  <path id="80" class="fil1" d="M11230 19837l83 -46c7,22 18,39 35,50 17,12 38,18 64,18 23,0 41,-6 54,-16 13,-10 19,-25 19,-43 0,-24 -23,-44 -69,-61 -15,-6 -27,-10 -36,-14 -47,-20 -80,-39 -98,-60 -19,-20 -29,-44 -29,-73 0,-39 16,-71 47,-96 31,-24 71,-37 122,-37 34,0 64,7 88,19 24,13 42,31 53,54l-72 49c-5,-14 -14,-25 -27,-33 -13,-8 -29,-12 -46,-12 -19,0 -34,4 -46,13 -12,10 -18,22 -18,37 0,23 26,44 78,63 17,6 30,10 38,14 41,16 70,34 88,55 17,20 26,45 26,76 0,44 -16,78 -48,103 -32,25 -76,38 -132,38 -43,0 -79,-8 -107,-24 -29,-17 -51,-41 -67,-74z"/>
  <polygon id="81" class="fil1" points="11997,19917 11997,19564 11920,19564 11920,19476 11997,19476 11997,19309 12098,19309 12098,19476 12175,19476 12175,19564 12098,19564 12098,19917 "/>
  <path id="82" class="fil1" d="M12253 19285c0,-17 7,-32 19,-44 13,-13 28,-19 45,-19 18,0 33,6 45,18 12,12 18,27 18,45 0,18 -6,33 -18,46 -12,12 -27,18 -45,18 -17,0 -32,-6 -45,-19 -12,-12 -19,-27 -19,-45zm14 632l0 -441 101 0 0 441 -101 0z"/>
  <path id="83" class="fil1" d="M12937 19711l-353 0c3,41 15,73 37,97 22,23 51,34 88,34 32,0 60,-6 81,-20 22,-14 41,-36 57,-66l85 47c-25,45 -56,77 -92,99 -37,22 -80,33 -129,33 -71,0 -127,-22 -169,-65 -42,-43 -63,-101 -63,-172 0,-70 22,-126 65,-171 43,-44 99,-67 167,-67 71,0 126,21 166,61 40,41 60,98 60,171l0 19zm-105 -68c-4,-31 -16,-55 -36,-72 -21,-17 -48,-25 -83,-25 -33,0 -60,8 -80,24 -20,16 -34,41 -42,73l241 0z"/>
  <path id="84" class="fil1" d="M13041 19917l0 -441 95 0 0 72c21,-30 44,-53 72,-67 27,-14 60,-21 99,-21 33,0 61,6 84,16 23,10 41,26 54,46 8,12 14,27 17,43 4,16 5,44 5,84l0 268 -102 0 0 -227c0,-58 -7,-96 -21,-115 -14,-19 -39,-29 -75,-29 -24,0 -45,4 -63,13 -18,9 -33,21 -44,37 -7,10 -12,24 -15,41 -3,16 -5,42 -5,79l0 201 -101 0z"/>
  <path id="85" class="fil1" d="M14026 19711l-352 0c2,41 15,73 37,97 22,23 51,34 88,34 32,0 59,-6 81,-20 22,-14 40,-36 57,-66l84 47c-24,45 -55,77 -92,99 -36,22 -79,33 -128,33 -71,0 -127,-22 -169,-65 -42,-43 -63,-101 -63,-172 0,-70 22,-126 65,-171 43,-44 99,-67 167,-67 71,0 126,21 166,61 39,41 59,98 59,171l0 19zm-105 -68c-4,-31 -16,-55 -36,-72 -20,-17 -48,-25 -82,-25 -34,0 -60,8 -80,24 -20,16 -35,41 -43,73l241 0z"/>
  <polygon id="86" class="fil1" points="14205,19801 14296,19835 14175,20084 14115,20060 "/>
  <path id="87" class="fil1" d="M14807 19917l-101 0 0 -441 95 0 0 72c20,-31 43,-53 69,-67 25,-15 55,-22 90,-22 35,0 63,8 86,22 22,14 40,37 51,66 24,-30 48,-53 75,-67 26,-14 56,-21 89,-21 29,0 55,6 76,16 22,11 39,27 51,47 6,10 10,21 12,35 3,13 4,32 4,57l0 35 0 268 -101 0 0 -227c0,-59 -6,-98 -19,-117 -12,-18 -34,-28 -67,-28 -39,0 -68,13 -84,38 -17,25 -26,70 -26,133l0 201 -102 0 0 -227c0,-54 -6,-92 -19,-113 -14,-21 -36,-32 -69,-32 -20,0 -38,5 -54,14 -17,9 -30,21 -39,37 -6,10 -11,23 -13,37 -3,15 -4,43 -4,83l0 201z"/>
  <path id="88" class="fil1" d="M15955 19917l-101 0 0 -57c-18,25 -39,44 -63,56 -24,13 -52,19 -83,19 -62,0 -111,-22 -147,-64 -36,-43 -54,-101 -54,-175 0,-71 18,-127 55,-171 37,-43 85,-65 143,-65 37,0 67,8 93,23 25,15 44,36 56,65l0 -72 101 0 0 441zm-98 -222c0,-46 -11,-81 -32,-107 -21,-25 -51,-38 -89,-38 -38,0 -68,13 -90,39 -22,27 -33,63 -33,110 0,46 10,83 32,108 21,26 50,38 89,38 36,0 66,-14 88,-41 23,-28 35,-64 35,-109zm-171 -286l89 -127 105 0 -136 127 -58 0z"/>
  <path id="89" class="fil1" d="M16043 19837l84 -46c6,22 18,39 35,50 16,12 38,18 64,18 23,0 41,-6 54,-16 12,-10 19,-25 19,-43 0,-24 -23,-44 -69,-61 -15,-6 -27,-10 -36,-14 -47,-20 -80,-39 -99,-60 -18,-20 -28,-44 -28,-73 0,-39 16,-71 46,-96 31,-24 72,-37 123,-37 34,0 63,7 88,19 24,13 42,31 53,54l-72 49c-5,-14 -14,-25 -27,-33 -14,-8 -29,-12 -46,-12 -19,0 -35,4 -46,13 -12,10 -18,22 -18,37 0,23 26,44 78,63 17,6 29,10 38,14 41,16 70,34 88,55 17,20 26,45 26,76 0,44 -16,78 -48,103 -32,25 -76,38 -132,38 -43,0 -79,-8 -108,-24 -28,-17 -50,-41 -67,-74z"/>
  <path id="90" class="fil1" d="M1619 20836c0,46 11,83 34,110 23,27 53,41 90,41 38,0 68,-13 89,-38 21,-26 31,-62 31,-109 0,-46 -11,-83 -33,-109 -21,-26 -51,-39 -90,-39 -38,0 -67,12 -89,38 -21,25 -32,61 -32,106zm-98 430l0 -649 101 0 0 72c12,-27 31,-49 57,-64 26,-15 57,-23 93,-23 58,0 106,22 142,65 37,43 55,100 55,170 0,75 -18,133 -54,176 -36,42 -85,63 -147,63 -31,0 -59,-6 -83,-18 -24,-12 -45,-31 -63,-57l0 265 -101 0z"/>
  <path id="91" class="fil1" d="M2491 21058l-101 0 0 -57c-18,26 -39,45 -63,57 -24,12 -52,18 -83,18 -62,0 -111,-21 -147,-63 -36,-43 -54,-101 -54,-176 0,-70 19,-127 55,-170 37,-43 85,-65 144,-65 36,0 66,8 92,23 25,15 44,36 56,64l0 -72 101 0 0 441zm-98 -222c0,-45 -11,-81 -32,-106 -21,-26 -51,-38 -89,-38 -38,0 -68,13 -90,39 -22,26 -33,63 -33,109 0,47 10,83 32,109 21,25 51,38 89,38 36,0 66,-14 89,-41 22,-28 34,-64 34,-110z"/>
  <path id="92" class="fil1" d="M2947 20836c0,-45 -10,-81 -32,-106 -21,-26 -51,-38 -89,-38 -38,0 -68,13 -90,39 -22,26 -33,63 -33,109 0,47 11,83 32,109 21,25 51,38 89,38 37,0 66,-14 89,-41 23,-28 34,-64 34,-110zm98 195c0,86 -17,147 -51,182 -35,35 -93,53 -174,53 -61,0 -110,-13 -146,-39 -36,-25 -55,-59 -55,-102l108 0c2,19 10,33 27,43 16,10 38,15 67,15 44,0 75,-9 93,-28 20,-19 29,-51 29,-95l1 -59c-18,26 -39,45 -63,57 -24,12 -51,18 -82,18 -63,0 -112,-21 -148,-63 -35,-43 -53,-101 -53,-176 0,-70 18,-127 55,-170 36,-43 84,-65 143,-65 36,0 67,8 92,23 26,15 45,36 56,64l0 -72 101 0 0 414z"/>
  <path id="93" class="fil1" d="M3600 21058l-101 0 0 -57c-18,26 -39,45 -63,57 -24,12 -52,18 -83,18 -62,0 -111,-21 -147,-63 -36,-43 -54,-101 -54,-176 0,-70 18,-127 55,-170 37,-43 84,-65 143,-65 36,0 67,8 93,23 25,15 44,36 56,64l0 -72 101 0 0 441zm-98 -222c0,-45 -11,-81 -32,-106 -22,-26 -51,-38 -89,-38 -39,0 -69,13 -90,39 -22,26 -33,63 -33,109 0,47 10,83 31,109 21,25 51,38 90,38 36,0 66,-14 88,-41 23,-28 35,-64 35,-110z"/>
  <path id="94" class="fil1" d="M3674 20615l89 -253 85 28 -115 246 -59 -21zm170 0l89 -253 84 28 -114 246 -59 -21z"/>
  <path id="95" class="fil1" d="M4743 20743c-16,-17 -34,-30 -54,-39 -21,-9 -43,-13 -67,-13 -41,0 -74,13 -99,40 -25,26 -38,62 -38,106 0,46 13,82 38,108 25,26 59,39 103,39 25,0 47,-5 66,-14 19,-9 36,-23 51,-41l0 116c-19,11 -39,18 -60,24 -21,5 -44,7 -68,7 -69,0 -125,-22 -169,-66 -44,-44 -65,-101 -65,-171 0,-71 22,-128 67,-171 46,-44 104,-66 178,-66 22,0 43,2 63,7 19,4 37,11 54,21l0 113z"/>
  <path id="96" class="fil1" d="M4947 20688c11,-29 25,-51 43,-65 18,-14 40,-21 66,-21 14,0 28,2 42,5 14,4 28,9 41,15l-36 86c-9,-6 -18,-11 -28,-14 -11,-3 -22,-4 -34,-4 -34,0 -58,13 -72,40 -15,27 -22,72 -22,135l0 193 -101 0 0 -442 101 0 0 72z"/>
  <path id="97" class="fil1" d="M5621 20853l-352 0c2,41 15,73 37,96 21,24 51,35 88,35 32,0 59,-7 81,-20 22,-14 40,-36 57,-67l84 48c-24,44 -55,77 -92,99 -36,22 -79,32 -128,32 -71,0 -127,-21 -169,-64 -42,-43 -63,-101 -63,-173 0,-69 22,-126 65,-170 43,-45 99,-67 167,-67 71,0 126,20 166,61 39,41 59,98 59,171l0 19zm-105 -68c-4,-32 -16,-56 -36,-72 -20,-17 -48,-25 -82,-25 -34,0 -60,8 -81,24 -20,16 -34,40 -42,73l241 0z"/>
  <path id="98" class="fil1" d="M6141 21058l-101 0 0 -57c-17,26 -39,45 -63,57 -24,12 -51,18 -82,18 -63,0 -112,-21 -147,-63 -36,-43 -54,-101 -54,-176 0,-70 18,-127 55,-170 36,-43 84,-65 143,-65 36,0 67,8 92,23 26,15 45,36 56,64l0 -72 101 0 0 441zm-98 -222c0,-45 -10,-81 -32,-106 -21,-26 -51,-38 -89,-38 -38,0 -68,13 -90,39 -22,26 -33,63 -33,109 0,47 11,83 32,109 21,25 51,38 89,38 37,0 66,-14 89,-41 23,-28 34,-64 34,-110z"/>
  <path id="99" class="fil1" d="M6381 20688c11,-29 26,-51 43,-65 18,-14 40,-21 67,-21 14,0 28,2 42,5 14,4 28,9 41,15l-37 86c-8,-6 -18,-11 -28,-14 -10,-3 -21,-4 -33,-4 -34,0 -58,13 -73,40 -14,27 -22,72 -22,135l0 193 -101 0 0 -442 101 0 0 72z"/>
  <path id="100" class="fil1" d="M7046 21058l-101 0 0 -57c-17,26 -39,45 -63,57 -24,12 -51,18 -82,18 -62,0 -112,-21 -147,-63 -36,-43 -54,-101 -54,-176 0,-70 18,-127 55,-170 36,-43 84,-65 143,-65 36,0 67,8 92,23 26,15 45,36 56,64l0 -72 101 0 0 441zm-98 -222c0,-45 -10,-81 -32,-106 -21,-26 -51,-38 -89,-38 -38,0 -68,13 -90,39 -22,26 -32,63 -32,109 0,47 10,83 31,109 21,25 51,38 89,38 37,0 66,-14 89,-41 23,-28 34,-64 34,-110zm-170 -285l88 -127 105 0 -136 127 -57 0z"/>
  <path id="101" class="fil1" d="M7464 20427c0,-17 7,-32 19,-44 13,-13 28,-19 45,-19 18,0 33,6 45,18 12,12 18,27 18,45 0,18 -6,33 -18,45 -12,13 -27,19 -45,19 -17,0 -32,-7 -45,-19 -12,-13 -19,-28 -19,-45zm14 631l0 -441 101 0 0 441 -101 0z"/>
  <path id="102" class="fil1" d="M7723 21058l0 -441 95 0 0 73c20,-31 43,-53 71,-67 27,-14 60,-21 99,-21 33,0 61,5 84,16 23,10 42,26 55,46 7,12 13,26 16,42 4,16 5,45 5,85l0 267 -101 0 0 -226c0,-58 -7,-97 -22,-116 -14,-19 -39,-28 -75,-28 -23,0 -44,4 -63,13 -18,9 -33,21 -43,37 -8,10 -13,24 -16,40 -3,17 -4,43 -4,80l0 200 -101 0z"/>
  <path id="103" class="fil1" d="M8612 20743c-15,-17 -33,-30 -54,-39 -21,-9 -43,-13 -67,-13 -41,0 -74,13 -99,40 -25,26 -37,62 -37,106 0,46 13,82 37,108 25,26 60,39 104,39 24,0 46,-5 66,-14 19,-9 36,-23 50,-41l0 116c-18,11 -38,18 -60,24 -21,5 -43,7 -67,7 -69,0 -126,-22 -169,-66 -44,-44 -66,-101 -66,-171 0,-71 23,-128 68,-171 45,-44 104,-66 177,-66 23,0 44,2 63,7 19,4 38,11 54,21l0 113z"/>
  <path id="104" class="fil1" d="M9140 20853l-352 0c2,41 14,73 36,96 22,24 52,35 88,35 33,0 60,-7 82,-20 21,-14 40,-36 57,-67l84 48c-24,44 -55,77 -92,99 -36,22 -79,32 -129,32 -70,0 -127,-21 -168,-64 -42,-43 -63,-101 -63,-173 0,-69 21,-126 65,-170 43,-45 99,-67 166,-67 71,0 127,20 167,61 39,41 59,98 59,171l0 19zm-105 -68c-4,-32 -16,-56 -36,-72 -20,-17 -48,-25 -83,-25 -33,0 -59,8 -80,24 -20,16 -34,40 -42,73l241 0z"/>
  <path id="105" class="fil1" d="M9245 21058l0 -441 95 0 0 73c20,-31 44,-53 71,-67 27,-14 61,-21 100,-21 33,0 61,5 84,16 23,10 41,26 54,46 8,12 13,26 17,42 3,16 5,45 5,85l0 267 -102 0 0 -226c0,-58 -7,-97 -21,-116 -14,-19 -39,-28 -76,-28 -23,0 -44,4 -63,13 -18,9 -33,21 -43,37 -8,10 -13,24 -16,40 -3,17 -4,43 -4,80l0 200 -101 0z"/>
  <polygon id="106" class="fil1" points="9829,21058 9829,20706 9752,20706 9752,20617 9829,20617 9829,20451 9930,20451 9930,20617 10007,20617 10007,20706 9930,20706 9930,21058 "/>
  <path id="107" class="fil1" d="M10085 20427c0,-17 6,-32 19,-44 13,-13 27,-19 45,-19 18,0 33,6 45,18 12,12 18,27 18,45 0,18 -6,33 -18,45 -13,13 -27,19 -45,19 -18,0 -32,-7 -45,-19 -13,-13 -19,-28 -19,-45zm13 631l0 -441 101 0 0 441 -101 0z"/>
  <path id="108" class="fil1" d="M10498 21085l-231 -468 110 0 97 222c3,7 7,17 11,31 4,14 9,30 13,49 4,-13 7,-27 11,-40 5,-13 10,-26 16,-40l95 -222 110 0 -232 468z"/>
  <path id="109" class="fil1" d="M11140 20839c0,-41 -13,-75 -40,-104 -26,-28 -58,-42 -96,-42 -38,0 -70,14 -97,42 -26,29 -40,63 -40,104 0,41 14,76 40,104 27,29 59,43 97,43 37,0 70,-14 96,-43 27,-28 40,-63 40,-104zm-379 -1c0,-32 6,-62 18,-91 12,-29 30,-54 53,-76 23,-23 49,-39 78,-51 30,-12 60,-18 93,-18 33,0 64,6 93,18 30,12 56,29 79,52 24,23 41,48 53,77 12,28 18,58 18,89 0,33 -6,64 -17,92 -12,29 -30,54 -53,76 -24,23 -51,41 -80,53 -30,11 -61,17 -93,17 -32,0 -63,-6 -92,-17 -30,-12 -56,-30 -79,-52 -23,-23 -41,-49 -53,-78 -12,-28 -18,-58 -18,-91z"/>
  <path id="110" class="fil1" d="M11303 20978l83 -45c7,22 18,39 35,50 16,12 38,17 64,17 23,0 41,-5 54,-15 12,-11 19,-25 19,-43 0,-24 -23,-44 -69,-61 -15,-6 -27,-11 -36,-14 -47,-20 -80,-40 -99,-60 -18,-20 -28,-45 -28,-73 0,-40 16,-72 47,-96 31,-25 71,-37 122,-37 34,0 63,7 88,19 24,13 42,30 53,54l-72 49c-5,-14 -14,-25 -27,-33 -13,-8 -29,-13 -46,-13 -19,0 -35,5 -46,14 -12,9 -18,21 -18,37 0,23 26,44 78,62 17,6 29,11 38,15 41,16 70,34 88,54 17,21 26,46 26,77 0,44 -16,78 -48,103 -32,25 -76,37 -132,37 -43,0 -79,-8 -107,-24 -29,-16 -51,-40 -67,-74z"/>
  <path id="111" class="fil1" d="M12144 20836c0,46 11,83 34,110 23,27 53,41 90,41 38,0 68,-13 89,-38 21,-26 31,-62 31,-109 0,-46 -11,-83 -33,-109 -22,-26 -52,-39 -90,-39 -38,0 -68,12 -89,38 -21,25 -32,61 -32,106zm-98 430l0 -649 101 0 0 72c12,-27 31,-49 57,-64 25,-15 56,-23 92,-23 59,0 107,22 143,65 37,43 55,100 55,170 0,75 -18,133 -54,176 -36,42 -85,63 -147,63 -31,0 -59,-6 -83,-18 -24,-12 -45,-31 -63,-57l0 265 -101 0z"/>
  <path id="112" class="fil1" d="M13016 21058l-101 0 0 -57c-18,26 -39,45 -63,57 -24,12 -52,18 -83,18 -62,0 -111,-21 -147,-63 -36,-43 -54,-101 -54,-176 0,-70 18,-127 55,-170 37,-43 84,-65 143,-65 36,0 67,8 93,23 25,15 44,36 56,64l0 -72 101 0 0 441zm-98 -222c0,-45 -11,-81 -32,-106 -22,-26 -51,-38 -89,-38 -39,0 -69,13 -90,39 -22,26 -33,63 -33,109 0,47 10,83 31,109 22,25 51,38 90,38 36,0 66,-14 88,-41 23,-28 35,-64 35,-110z"/>
  <path id="113" class="fil1" d="M13256 20688c11,-29 25,-51 43,-65 18,-14 40,-21 66,-21 15,0 29,2 42,5 14,4 28,9 41,15l-36 86c-9,-6 -18,-11 -28,-14 -10,-3 -22,-4 -34,-4 -34,0 -58,13 -72,40 -15,27 -22,72 -22,135l0 193 -101 0 0 -442 101 0 0 72z"/>
  <path id="114" class="fil1" d="M13921 21058l-101 0 0 -57c-18,26 -39,45 -63,57 -24,12 -52,18 -83,18 -62,0 -111,-21 -147,-63 -36,-43 -54,-101 -54,-176 0,-70 18,-127 55,-170 37,-43 85,-65 143,-65 36,0 67,8 93,23 25,15 44,36 56,64l0 -72 101 0 0 441zm-98 -222c0,-45 -11,-81 -32,-106 -21,-26 -51,-38 -89,-38 -39,0 -69,13 -90,39 -22,26 -33,63 -33,109 0,47 10,83 31,109 22,25 51,38 90,38 36,0 66,-14 88,-41 23,-28 35,-64 35,-110z"/>
  <path id="115" class="fil1" d="M14665 20836c0,-45 -11,-81 -32,-106 -22,-26 -51,-38 -89,-38 -39,0 -69,13 -90,39 -22,26 -33,63 -33,109 0,47 10,83 31,109 21,25 51,38 90,38 36,0 66,-14 89,-41 22,-28 34,-64 34,-110zm-3 -499l101 0 0 721 -101 0 0 -57c-18,26 -39,45 -63,57 -24,12 -52,18 -83,18 -62,0 -111,-21 -147,-63 -36,-43 -54,-101 -54,-176 0,-70 18,-127 55,-170 37,-43 84,-65 143,-65 36,0 67,8 93,23 25,15 44,36 56,64l0 -352z"/>
  <path id="116" class="fil1" d="M15317 21058l-101 0 0 -57c-18,26 -39,45 -63,57 -24,12 -52,18 -83,18 -62,0 -111,-21 -147,-63 -36,-43 -54,-101 -54,-176 0,-70 19,-127 55,-170 37,-43 85,-65 144,-65 36,0 66,8 92,23 26,15 44,36 56,64l0 -72 101 0 0 441zm-98 -222c0,-45 -11,-81 -32,-106 -21,-26 -51,-38 -89,-38 -38,0 -68,13 -90,39 -22,26 -33,63 -33,109 0,47 11,83 32,109 21,25 51,38 89,38 36,0 66,-14 89,-41 23,-28 34,-64 34,-110z"/>
  <path id="117" class="fil1" d="M15557 20688c11,-29 25,-51 43,-65 18,-14 40,-21 67,-21 14,0 28,2 42,5 13,4 27,9 40,15l-36 86c-9,-6 -18,-11 -28,-14 -10,-3 -21,-4 -34,-4 -33,0 -57,13 -72,40 -15,27 -22,72 -22,135l0 193 -101 0 0 -442 101 0 0 72z"/>
  <polygon id="118" class="fil1" points="15812,21058 15812,20337 15913,20337 15913,21058 "/>
  <path id="119" class="fil1" d="M16481 20853l-352 0c2,41 15,73 37,96 22,24 51,35 88,35 32,0 59,-7 81,-20 22,-14 41,-36 57,-67l85 48c-25,44 -56,77 -93,99 -36,22 -79,32 -128,32 -71,0 -127,-21 -169,-64 -42,-43 -63,-101 -63,-173 0,-69 22,-126 65,-170 43,-45 99,-67 167,-67 71,0 126,20 166,61 39,41 59,98 59,171l0 19zm-104 -68c-4,-32 -16,-56 -37,-72 -20,-17 -47,-25 -82,-25 -34,0 -60,8 -80,24 -20,16 -35,40 -43,73l242 0z"/>
  <path id="120" class="fil1" d="M16972 20617l0 249c0,43 9,73 26,92 18,19 47,28 86,28 40,0 69,-9 86,-28 18,-19 27,-49 27,-92l0 -249 101 0 0 219c0,84 -17,145 -51,183 -34,38 -88,57 -162,57 -75,0 -130,-18 -163,-56 -34,-38 -51,-99 -51,-184l0 -219 101 0z"/>
  <path id="121" class="fil1" d="M17434 21058l0 -441 95 0 0 73c20,-31 43,-53 71,-67 27,-14 60,-21 99,-21 33,0 61,5 84,16 23,10 42,26 55,46 7,12 13,26 16,42 4,16 5,45 5,85l0 267 -101 0 0 -226c0,-58 -7,-97 -22,-116 -14,-19 -39,-28 -75,-28 -23,0 -44,4 -63,13 -18,9 -33,21 -43,37 -8,10 -13,24 -16,40 -3,17 -4,43 -4,80l0 200 -101 0z"/>
  <path id="122" class="fil1" d="M1619 21759l0 249c0,42 9,73 27,92 18,18 46,28 86,28 39,0 68,-10 86,-28 17,-19 26,-50 26,-92l0 -249 101 0 0 218c0,85 -17,146 -51,184 -33,38 -87,57 -161,57 -76,0 -130,-19 -164,-56 -34,-38 -51,-100 -51,-185l0 -218 101 0z"/>
  <path id="123" class="fil1" d="M2031 22120l84 -46c6,22 17,39 34,51 17,11 38,17 64,17 23,0 41,-5 54,-16 13,-10 19,-24 19,-42 0,-24 -23,-45 -69,-62 -15,-5 -27,-10 -35,-14 -48,-19 -81,-39 -99,-59 -19,-20 -28,-45 -28,-74 0,-39 15,-71 46,-95 31,-25 71,-37 122,-37 34,0 64,6 88,19 24,12 42,30 53,53l-72 50c-5,-14 -14,-25 -27,-34 -13,-8 -29,-12 -46,-12 -19,0 -34,5 -46,14 -12,9 -18,21 -18,36 0,23 27,44 78,63 17,6 30,11 39,15 40,16 69,34 87,54 17,21 26,46 26,76 0,44 -16,79 -48,104 -32,25 -76,37 -132,37 -43,0 -79,-8 -107,-24 -29,-16 -51,-41 -67,-74z"/>
  <path id="124" class="fil1" d="M2834 21981c0,-41 -14,-76 -40,-104 -26,-29 -59,-43 -97,-43 -37,0 -70,14 -96,43 -27,28 -40,63 -40,104 0,41 13,76 40,104 26,29 59,43 96,43 38,0 70,-14 97,-43 26,-28 40,-63 40,-104zm-380 -1c0,-32 7,-63 19,-91 12,-29 30,-54 53,-77 22,-22 48,-39 78,-51 29,-11 60,-17 92,-17 34,0 65,6 94,17 29,12 56,30 79,53 23,22 41,48 53,76 12,29 18,59 18,90 0,33 -6,63 -18,92 -12,28 -29,54 -52,76 -24,23 -51,40 -81,52 -29,12 -60,18 -93,18 -32,0 -62,-6 -92,-18 -29,-12 -55,-29 -78,-51 -24,-23 -41,-49 -53,-78 -13,-28 -19,-59 -19,-91z"/>
  <path id="125" class="fil1" d="M3435 22200l-101 0 0 -441 95 0 0 72c20,-30 43,-53 69,-67 25,-14 55,-21 90,-21 35,0 63,7 86,22 22,14 40,36 51,66 24,-31 48,-53 75,-67 26,-14 56,-21 89,-21 29,0 55,5 76,16 22,11 39,26 51,47 6,9 10,21 12,34 3,14 4,33 4,57l0 36 0 267 -101 0 0 -226c0,-59 -6,-99 -18,-117 -13,-19 -35,-28 -68,-28 -39,0 -68,12 -84,38 -17,25 -26,69 -26,132l0 201 -102 0 0 -226c0,-55 -6,-93 -19,-114 -14,-21 -36,-31 -69,-31 -19,0 -38,4 -54,13 -16,9 -29,22 -39,37 -6,11 -11,23 -13,38 -3,15 -4,42 -4,82l0 201z"/>
  <path id="126" class="fil1" d="M4583 22200l-101 0 0 -57c-18,25 -39,44 -63,57 -24,12 -52,18 -83,18 -62,0 -111,-21 -147,-64 -36,-42 -54,-101 -54,-175 0,-70 19,-127 55,-170 37,-44 85,-65 144,-65 36,0 66,7 92,22 25,15 44,37 56,65l0 -72 101 0 0 441zm-98 -222c0,-45 -11,-81 -32,-106 -21,-26 -51,-39 -89,-39 -38,0 -68,14 -90,40 -22,26 -33,62 -33,109 0,47 10,83 32,108 21,26 51,39 89,39 36,0 66,-14 89,-42 22,-27 34,-64 34,-109zm-171 -286l89 -126 105 0 -136 126 -58 0z"/>
  <path id="127" class="fil1" d="M4672 22120l83 -46c7,22 18,39 35,51 16,11 38,17 64,17 23,0 41,-5 54,-16 12,-10 19,-24 19,-42 0,-24 -23,-45 -69,-62 -15,-5 -27,-10 -36,-14 -47,-19 -80,-39 -99,-59 -18,-20 -28,-45 -28,-74 0,-39 16,-71 47,-95 30,-25 71,-37 122,-37 34,0 63,6 88,19 24,12 42,30 53,53l-72 50c-5,-14 -14,-25 -27,-34 -13,-8 -29,-12 -46,-12 -19,0 -35,5 -46,14 -12,9 -18,21 -18,36 0,23 26,44 78,63 17,6 29,11 38,15 41,16 70,34 88,54 17,21 26,46 26,76 0,44 -16,79 -48,104 -32,25 -76,37 -132,37 -43,0 -79,-8 -107,-24 -29,-16 -51,-41 -67,-74z"/>
  <path id="128" class="fil1" d="M5513 21978c0,46 11,82 34,110 23,27 53,41 90,41 38,0 68,-13 89,-39 21,-25 31,-61 31,-108 0,-47 -11,-83 -33,-109 -22,-26 -52,-40 -90,-40 -38,0 -68,13 -89,39 -21,25 -32,61 -32,106zm-98 430l0 -649 101 0 0 72c12,-28 31,-49 57,-64 25,-16 56,-23 92,-23 59,0 107,21 143,65 37,43 55,100 55,170 0,74 -18,133 -54,175 -36,43 -85,64 -147,64 -31,0 -59,-6 -83,-18 -24,-13 -45,-32 -63,-57l0 265 -101 0z"/>
  <path id="129" class="fil1" d="M6070 21830c11,-30 26,-51 43,-65 18,-14 40,-21 67,-21 14,0 28,2 42,5 14,3 28,8 41,15l-37 86c-8,-7 -18,-11 -28,-14 -10,-3 -21,-5 -33,-5 -34,0 -58,14 -73,41 -14,26 -22,72 -22,135l0 193 -101 0 0 -442 101 0 0 72z"/>
  <path id="130" class="fil1" d="M6667 21981c0,-41 -13,-76 -40,-104 -26,-29 -58,-43 -96,-43 -38,0 -70,14 -97,43 -26,28 -40,63 -40,104 0,41 14,76 40,104 27,29 59,43 97,43 37,0 70,-14 96,-43 27,-28 40,-63 40,-104zm-379 -1c0,-32 6,-63 18,-91 12,-29 30,-54 53,-77 23,-22 49,-39 78,-51 30,-11 60,-17 93,-17 33,0 64,6 94,17 29,12 55,30 78,53 24,22 41,48 53,76 13,29 19,59 19,90 0,33 -6,63 -18,92 -12,28 -30,54 -53,76 -24,23 -51,40 -80,52 -30,12 -61,18 -93,18 -32,0 -63,-6 -92,-18 -30,-12 -56,-29 -79,-51 -23,-23 -41,-49 -53,-78 -12,-28 -18,-59 -18,-91z"/>
  <path id="131" class="fil1" d="M7197 21978c0,-45 -10,-81 -32,-106 -21,-26 -51,-39 -89,-39 -38,0 -68,14 -90,40 -22,26 -33,62 -33,109 0,47 11,83 32,108 21,26 51,39 89,39 37,0 67,-14 89,-42 23,-27 34,-63 34,-109zm-3 -499l101 0 0 721 -101 0 0 -57c-18,25 -39,44 -63,57 -24,12 -51,18 -82,18 -63,0 -112,-21 -148,-64 -35,-42 -53,-101 -53,-175 0,-70 18,-127 55,-170 36,-44 84,-65 143,-65 36,0 67,7 92,22 26,15 45,37 56,65l0 -352z"/>
  <path id="132" class="fil1" d="M7533 21759l0 249c0,42 8,73 26,92 18,18 46,28 86,28 40,0 68,-10 86,-28 17,-19 26,-50 26,-92l0 -249 101 0 0 218c0,85 -17,146 -50,184 -34,38 -88,57 -162,57 -75,0 -130,-19 -164,-56 -34,-38 -50,-100 -50,-185l0 -218 101 0z"/>
  <path id="133" class="fil1" d="M8324 21885c-16,-17 -34,-30 -54,-39 -21,-9 -43,-14 -67,-14 -41,0 -74,14 -99,40 -25,27 -37,62 -37,106 0,46 12,82 37,109 25,26 60,39 104,39 24,0 46,-5 65,-14 19,-9 36,-23 51,-41l0 116c-19,10 -39,18 -60,23 -21,6 -44,8 -68,8 -69,0 -125,-22 -169,-66 -43,-44 -65,-101 -65,-171 0,-71 22,-128 68,-172 45,-43 104,-65 177,-65 23,0 44,2 63,7 19,4 37,11 54,20l0 114z"/>
  <polygon id="134" class="fil1" points="8451,22200 8451,21848 8374,21848 8374,21759 8451,21759 8451,21592 8552,21592 8552,21759 8629,21759 8629,21848 8552,21848 8552,22200 "/>
  <path id="135" class="fil1" d="M8707 21569c0,-17 6,-32 19,-45 13,-12 27,-18 45,-18 18,0 33,6 45,18 12,12 18,27 18,45 0,18 -6,33 -18,45 -13,12 -27,18 -45,18 -18,0 -32,-6 -45,-18 -13,-13 -19,-28 -19,-45zm13 631l0 -441 101 0 0 441 -101 0z"/>
  <path id="136" class="fil1" d="M9121 22227l-232 -468 111 0 96 222c3,7 7,17 11,31 4,13 9,30 14,49 3,-14 6,-27 10,-40 5,-13 10,-27 16,-40l95 -222 110 0 -231 468z"/>
  <path id="137" class="fil1" d="M9762 21981c0,-41 -13,-76 -40,-104 -26,-29 -58,-43 -96,-43 -38,0 -70,14 -97,43 -26,28 -40,63 -40,104 0,41 14,76 40,104 27,29 59,43 97,43 37,0 70,-14 96,-43 27,-28 40,-63 40,-104zm-379 -1c0,-32 6,-63 18,-91 12,-29 30,-54 53,-77 23,-22 49,-39 78,-51 30,-11 60,-17 93,-17 33,0 64,6 94,17 29,12 55,30 78,53 24,22 41,48 53,76 13,29 19,59 19,90 0,33 -6,63 -18,92 -12,28 -30,54 -53,76 -24,23 -51,40 -80,52 -30,12 -61,18 -93,18 -32,0 -63,-6 -92,-18 -30,-12 -56,-29 -79,-51 -23,-23 -41,-49 -53,-78 -12,-28 -18,-59 -18,-91z"/>
  <path id="138" class="fil1" d="M10678 22200l-101 0 0 -57c-18,25 -39,44 -63,57 -24,12 -52,18 -83,18 -62,0 -111,-21 -147,-64 -36,-42 -54,-101 -54,-175 0,-70 18,-127 55,-170 37,-44 85,-65 143,-65 36,0 67,7 93,22 25,15 44,37 56,65l0 -72 101 0 0 441zm-98 -222c0,-45 -11,-81 -32,-106 -21,-26 -51,-39 -89,-39 -38,0 -68,14 -90,40 -22,26 -33,62 -33,109 0,47 10,83 31,108 22,26 51,39 90,39 36,0 66,-14 88,-42 23,-27 35,-64 35,-109z"/>
  <polygon id="139" class="fil1" points="11109,22200 11109,21479 11210,21479 11210,22200 "/>
  <path id="140" class="fil1" d="M11769 22200l-101 0 0 -57c-17,25 -39,44 -63,57 -24,12 -51,18 -82,18 -63,0 -112,-21 -147,-64 -36,-42 -54,-101 -54,-175 0,-70 18,-127 55,-170 36,-44 84,-65 143,-65 36,0 67,7 92,22 26,15 45,37 56,65l0 -72 101 0 0 441zm-98 -222c0,-45 -10,-81 -32,-106 -21,-26 -51,-39 -89,-39 -38,0 -68,14 -90,40 -22,26 -33,62 -33,109 0,47 11,83 32,108 21,26 51,39 89,39 37,0 66,-14 89,-42 23,-27 34,-64 34,-109z"/>
  <polygon id="141" class="fil1" points="12220,22200 12220,21848 12143,21848 12143,21759 12220,21759 12220,21592 12321,21592 12321,21759 12398,21759 12398,21848 12321,21848 12321,22200 "/>
  <path id="142" class="fil1" d="M12476 21569c0,-17 7,-32 19,-45 13,-12 28,-18 45,-18 18,0 33,6 45,18 12,12 18,27 18,45 0,18 -6,33 -18,45 -12,12 -27,18 -45,18 -17,0 -32,-6 -45,-18 -12,-13 -19,-28 -19,-45zm14 631l0 -441 100 0 0 441 -100 0z"/>
  <path id="143" class="fil1" d="M13159 21994l-352 0c2,42 15,74 37,97 22,23 51,35 88,35 32,0 59,-7 81,-21 22,-13 41,-35 57,-66l85 48c-25,44 -56,77 -93,99 -36,21 -79,32 -128,32 -71,0 -127,-21 -169,-64 -42,-44 -63,-101 -63,-173 0,-69 22,-126 65,-170 43,-45 99,-67 167,-67 71,0 126,20 166,61 39,40 59,97 59,170l0 19zm-104 -67c-4,-32 -17,-56 -37,-72 -20,-17 -47,-25 -82,-25 -34,0 -60,8 -80,24 -20,16 -35,40 -43,73l242 0z"/>
  <path id="144" class="fil1" d="M13365 21830c11,-30 25,-51 43,-65 18,-14 40,-21 67,-21 14,0 28,2 42,5 14,3 27,8 41,15l-37 86c-8,-7 -18,-11 -28,-14 -10,-3 -21,-5 -34,-5 -33,0 -57,14 -72,41 -15,26 -22,72 -22,135l0 193 -101 0 0 -442 101 0 0 72z"/>
  <path id="145" class="fil1" d="M13716 21830c11,-30 25,-51 43,-65 18,-14 40,-21 66,-21 15,0 29,2 42,5 14,3 28,8 41,15l-36 86c-9,-7 -18,-11 -28,-14 -10,-3 -22,-5 -34,-5 -34,0 -58,14 -72,41 -15,26 -22,72 -22,135l0 193 -101 0 0 -442 101 0 0 72z"/>
  <path id="146" class="fil1" d="M14381 22200l-101 0 0 -57c-18,25 -39,44 -63,57 -24,12 -52,18 -83,18 -62,0 -111,-21 -147,-64 -36,-42 -54,-101 -54,-175 0,-70 18,-127 55,-170 37,-44 85,-65 143,-65 37,0 67,7 93,22 25,15 44,37 56,65l0 -72 101 0 0 441zm-98 -222c0,-45 -11,-81 -32,-106 -21,-26 -51,-39 -89,-39 -38,0 -68,14 -90,40 -22,26 -33,62 -33,109 0,47 10,83 32,108 21,26 50,39 89,39 36,0 66,-14 88,-42 23,-27 35,-64 35,-109z"/>
  <path id="147" class="fil1" d="M14533 22149c0,-17 6,-32 18,-44 12,-12 26,-18 43,-18 17,0 32,6 44,18 11,12 17,27 17,44 0,16 -6,31 -17,42 -12,12 -27,18 -44,18 -17,0 -31,-6 -43,-18 -12,-11 -18,-26 -18,-42z"/>
  <polygon class="fil2" points="1460,14739 1460,13856 2001,13856 2001,14050 1695,14050 1695,14203 1984,14203 1984,14392 1695,14392 1695,14739 "/>
  <path id="1" class="fil2" d="M2549 14436c0,-45 -11,-81 -34,-107 -23,-26 -54,-39 -93,-39 -39,0 -70,13 -93,39 -23,26 -34,62 -34,107 0,46 11,82 34,108 22,26 54,38 93,38 40,0 71,-12 93,-38 23,-26 34,-62 34,-108zm214 0c0,44 -9,86 -26,125 -17,40 -41,75 -74,106 -33,32 -70,56 -111,72 -41,16 -84,24 -130,24 -46,0 -90,-8 -131,-24 -41,-16 -77,-40 -109,-72 -33,-30 -57,-65 -74,-105 -17,-39 -25,-81 -25,-126 0,-44 8,-86 25,-126 16,-39 41,-74 74,-106 31,-31 68,-54 109,-70 40,-15 84,-23 131,-23 47,0 91,8 132,23 40,16 77,39 109,70 33,32 58,68 75,107 17,39 25,81 25,125z"/>
  <path id="2" class="fil2" d="M2888 14739l0 -608 202 0 0 143c21,-52 50,-92 86,-118 36,-26 80,-39 132,-39 8,0 17,0 25,1 9,0 18,1 26,3l-21 195c-12,-5 -25,-8 -37,-10 -13,-2 -25,-3 -37,-3 -52,0 -92,16 -120,48 -28,32 -43,78 -43,136l0 252 -213 0z"/>
  <path id="3" class="fil2" d="M4244 14739l0 -332c0,-53 -6,-89 -19,-109 -13,-20 -36,-30 -68,-30 -40,0 -68,14 -84,42 -16,28 -24,85 -24,171l0 258 -207 0 0 -332c0,-54 -6,-90 -19,-110 -13,-19 -36,-29 -68,-29 -40,0 -68,13 -84,41 -16,28 -24,85 -24,172l0 258 -209 0 0 -608 211 0 0 105c26,-43 55,-74 88,-95 33,-20 72,-30 117,-30 49,0 90,9 122,28 31,20 54,48 67,87 24,-39 53,-68 87,-87 34,-19 75,-28 121,-28 36,0 68,6 96,18 27,12 50,31 69,55 15,20 25,42 32,68 6,26 9,67 9,125l0 14 0 348 -213 0z"/>
  <path id="4" class="fil2" d="M5073 14434c0,-47 -13,-85 -38,-112 -25,-28 -60,-42 -104,-42 -43,0 -78,14 -103,41 -25,28 -38,66 -38,113 0,48 13,85 38,112 26,28 60,41 103,41 44,0 79,-13 104,-41 25,-27 38,-64 38,-112zm189 -303l0 608 -197 0 0 -98c-29,42 -60,73 -95,92 -36,20 -77,30 -124,30 -82,0 -146,-30 -195,-89 -49,-59 -73,-139 -73,-239 0,-99 26,-178 76,-237 51,-58 120,-87 206,-87 45,0 85,10 118,29 33,20 62,50 85,91l0 -100 199 0z"/>
  <polygon id="5" class="fil2" points="5430,14739 5430,13805 5645,13805 5645,14739 "/>
  <path id="6" class="fil2" d="M5804 13940c0,-32 12,-60 35,-83 23,-22 51,-34 84,-34 33,0 62,11 84,34 23,22 34,50 34,83 0,34 -11,62 -34,85 -23,23 -51,35 -84,35 -33,0 -60,-12 -84,-35 -23,-24 -35,-52 -35,-85zm11 799l0 -608 215 0 0 608 -215 0z"/>
  <polygon id="7" class="fil2" points="6733,14739 6115,14739 6428,14287 6154,14287 6154,14131 6760,14131 6436,14574 6733,14574 "/>
  <path id="8" class="fil2" d="M7328 14434c0,-47 -13,-85 -38,-112 -25,-28 -60,-42 -104,-42 -44,0 -78,14 -103,41 -25,28 -38,66 -38,113 0,48 13,85 38,112 25,28 60,41 103,41 44,0 79,-13 104,-41 25,-27 38,-64 38,-112zm189 -303l0 608 -198 0 0 -98c-28,42 -59,73 -95,92 -35,20 -76,30 -123,30 -82,0 -147,-30 -195,-89 -49,-59 -73,-139 -73,-239 0,-99 25,-178 76,-237 51,-58 119,-87 205,-87 46,0 86,10 119,29 33,20 61,50 85,91l0 -100 199 0z"/>
  <path id="9" class="fil2" d="M8116 14331c-21,-19 -41,-32 -60,-41 -20,-8 -40,-12 -61,-12 -43,0 -77,14 -102,42 -25,28 -38,66 -38,114 0,47 14,84 40,112 26,28 61,41 105,41 22,0 42,-4 61,-13 20,-8 38,-22 55,-40l0 187c-26,14 -52,25 -77,31 -26,7 -53,11 -80,11 -94,0 -169,-30 -227,-90 -59,-60 -88,-140 -88,-238 0,-95 30,-173 89,-233 60,-61 136,-91 229,-91 30,0 58,3 83,9 25,6 49,16 71,29l0 182z"/>
  <path id="10" class="fil2" d="M8243 13940c0,-32 12,-60 35,-83 23,-22 51,-34 83,-34 34,0 62,11 85,34 23,22 34,50 34,83 0,34 -11,62 -35,85 -23,23 -51,35 -84,35 -32,0 -60,-12 -83,-35 -23,-24 -35,-52 -35,-85zm11 799l0 -608 215 0 0 608 -215 0z"/>
  <path id="11" class="fil2" d="M9065 14436c0,-45 -11,-81 -34,-107 -23,-26 -54,-39 -93,-39 -39,0 -70,13 -93,39 -23,26 -34,62 -34,107 0,46 11,82 34,108 22,26 54,38 93,38 40,0 71,-12 93,-38 23,-26 34,-62 34,-108zm214 0c0,44 -9,86 -26,125 -17,40 -41,75 -74,106 -33,32 -70,56 -111,72 -41,16 -84,24 -130,24 -46,0 -90,-8 -131,-24 -41,-16 -77,-40 -109,-72 -33,-30 -57,-65 -74,-105 -17,-39 -25,-81 -25,-126 0,-44 8,-86 25,-126 16,-39 41,-74 74,-106 31,-31 68,-54 109,-70 40,-15 84,-23 131,-23 47,0 91,8 132,23 40,16 77,39 109,70 33,32 58,68 75,107 17,39 25,81 25,125zm-165 -599l-187 211 -92 0 109 -211 170 0z"/>
  <path id="12" class="fil2" d="M9403 14739l0 -608 196 0 0 123c29,-50 62,-86 99,-109 37,-23 82,-34 134,-34 40,0 75,6 105,19 31,13 56,31 75,54 17,21 28,46 35,75 6,30 10,73 10,132l0 348 -215 0 0 -326c0,-49 -8,-84 -24,-106 -16,-22 -41,-33 -76,-33 -45,0 -77,16 -98,49 -20,33 -30,87 -30,161l0 255 -211 0z"/>
  <path id="13" class="fil2" d="M11060 14436c0,-48 -12,-85 -38,-113 -24,-27 -59,-41 -102,-41 -43,0 -78,14 -102,41 -25,28 -38,65 -38,113 0,47 13,85 37,112 25,27 59,41 103,41 43,0 78,-14 102,-41 26,-28 38,-65 38,-112zm191 -631l0 934 -198 0 0 -98c-27,40 -58,71 -92,91 -34,21 -72,31 -114,31 -86,0 -154,-30 -204,-89 -51,-59 -76,-139 -76,-239 0,-97 25,-175 75,-235 51,-59 116,-89 198,-89 51,0 93,9 125,28 33,18 61,49 87,93 -3,-15 -4,-31 -6,-50 -1,-18 -2,-38 -2,-59l0 -318 207 0z"/>
  <path id="14" class="fil2" d="M11830 14357c-4,-35 -17,-63 -40,-84 -22,-21 -49,-31 -82,-31 -35,0 -63,9 -84,28 -20,19 -34,48 -41,87l247 0zm211 121l-463 0c1,46 13,83 36,108 24,26 58,38 101,38 33,0 60,-6 83,-18 22,-12 39,-30 51,-54l161 65c-19,46 -53,82 -102,108 -49,25 -110,38 -181,38 -106,0 -191,-30 -255,-89 -64,-59 -96,-136 -96,-233 0,-95 32,-173 96,-236 64,-63 145,-94 243,-94 101,0 180,32 239,95 58,64 87,151 87,261l0 11z"/>
  <polygon id="15" class="fil2" points="1452,16221 1452,15286 1667,15286 1667,16221 "/>
  <path id="16" class="fil2" d="M2295 15916c0,-48 -13,-85 -38,-113 -25,-28 -60,-42 -104,-42 -44,0 -78,14 -103,42 -25,27 -38,65 -38,113 0,47 13,84 38,112 25,27 60,41 103,41 44,0 79,-14 104,-41 25,-28 38,-65 38,-112zm189 -304l0 609 -198 0 0 -99c-28,42 -59,73 -94,93 -36,19 -77,29 -124,29 -82,0 -146,-30 -195,-89 -49,-59 -73,-139 -73,-238 0,-100 25,-179 76,-237 51,-59 119,-88 205,-88 46,0 86,10 119,30 33,19 62,49 85,90l0 -100 199 0z"/>
  <path id="17" class="fil2" d="M3273 16221l-226 0 0 -883 252 0c98,0 168,4 208,14 39,10 73,26 101,50 32,26 57,60 74,101 17,40 26,85 26,134 0,53 -9,99 -26,139 -16,40 -41,73 -74,99 -25,19 -55,33 -88,41 -34,9 -88,13 -162,13l-41 0 -44 0 0 292zm0 -486l46 0c58,0 98,-8 121,-24 23,-15 34,-42 34,-81 0,-37 -11,-63 -33,-79 -23,-15 -63,-23 -120,-23l-48 0 0 207z"/>
  <path id="18" class="fil2" d="M3816 16221l0 -609 203 0 0 143c21,-52 49,-91 86,-117 36,-27 80,-40 131,-40 8,0 17,0 26,1 8,1 17,2 26,3l-21 195c-13,-4 -26,-7 -38,-9 -13,-2 -24,-3 -36,-3 -52,0 -92,16 -121,48 -28,32 -42,77 -42,135l0 253 -214 0z"/>
  <path id="19" class="fil2" d="M4799 15918c0,-46 -12,-81 -35,-108 -22,-26 -53,-39 -92,-39 -40,0 -71,13 -94,39 -22,27 -33,62 -33,108 0,45 11,81 33,107 23,26 54,39 94,39 39,0 70,-13 93,-39 23,-26 34,-62 34,-107zm213 0c0,43 -8,85 -25,125 -17,39 -42,74 -75,106 -33,31 -70,55 -110,71 -41,16 -84,24 -130,24 -47,0 -91,-8 -131,-24 -41,-16 -78,-40 -110,-71 -32,-31 -57,-66 -74,-105 -16,-40 -25,-82 -25,-126 0,-45 9,-87 25,-126 17,-40 41,-75 74,-107 32,-30 68,-54 109,-69 41,-16 85,-24 132,-24 47,0 91,8 131,24 41,15 77,39 109,69 33,32 58,68 75,107 17,40 25,82 25,126z"/>
  <path id="20" class="fil2" d="M5328 15918c0,47 12,85 37,112 24,28 59,41 102,41 43,0 78,-13 103,-41 25,-27 38,-65 38,-112 0,-47 -13,-85 -38,-112 -25,-27 -59,-41 -103,-41 -43,0 -78,14 -102,41 -25,27 -37,65 -37,112zm-191 572l0 -878 198 0 0 102c27,-41 58,-72 92,-92 34,-20 72,-30 114,-30 86,0 154,29 204,88 51,58 76,138 76,238 0,97 -25,176 -75,236 -51,60 -117,90 -198,90 -51,0 -93,-9 -125,-28 -33,-19 -62,-50 -87,-94 2,12 4,27 5,44 1,18 1,39 1,64l0 260 -205 0z"/>
  <path id="21" class="fil2" d="M5946 15422c0,-33 12,-60 35,-83 23,-23 51,-35 83,-35 34,0 62,12 85,34 23,23 34,50 34,84 0,33 -11,61 -35,84 -23,24 -51,35 -84,35 -32,0 -60,-11 -83,-35 -23,-24 -35,-52 -35,-84zm11 799l0 -609 215 0 0 609 -215 0z"/>
  <path id="22" class="fil2" d="M6756 15838c-4,-35 -17,-63 -39,-84 -23,-21 -50,-31 -83,-31 -35,0 -63,9 -84,29 -20,19 -34,48 -41,86l247 0zm211 121l-463 0c1,47 13,83 36,108 24,26 58,39 101,39 33,0 60,-6 83,-19 22,-12 39,-30 51,-54l161 65c-19,47 -53,83 -102,108 -49,25 -109,38 -181,38 -106,0 -191,-29 -255,-88 -64,-59 -96,-137 -96,-233 0,-95 32,-174 96,-237 64,-63 145,-94 243,-94 101,0 181,32 239,95 58,64 87,151 87,261l0 11z"/>
  <path id="23" class="fil2" d="M7556 15917c0,-48 -13,-85 -38,-112 -25,-28 -59,-41 -103,-41 -43,0 -77,13 -102,41 -25,27 -37,64 -37,112 0,48 12,85 37,112 24,27 59,41 102,41 44,0 78,-14 103,-41 25,-27 38,-65 38,-112zm190 -631l0 935 -198 0 0 -99c-27,41 -58,71 -92,92 -34,20 -72,30 -114,30 -85,0 -153,-30 -204,-89 -51,-59 -76,-138 -76,-238 0,-97 25,-176 76,-235 50,-60 116,-90 197,-90 51,0 93,9 126,28 32,18 61,49 86,93 -2,-15 -4,-31 -5,-49 -1,-19 -2,-39 -2,-60l0 -318 206 0z"/>
  <path id="24" class="fil2" d="M8370 15916c0,-48 -13,-85 -38,-113 -26,-28 -60,-42 -104,-42 -44,0 -78,14 -103,42 -25,27 -38,65 -38,113 0,47 13,84 38,112 25,27 60,41 103,41 44,0 78,-14 104,-41 25,-28 38,-65 38,-112zm189 -304l0 609 -198 0 0 -99c-28,42 -59,73 -95,93 -35,19 -76,29 -124,29 -81,0 -146,-30 -194,-89 -49,-59 -73,-139 -73,-238 0,-100 25,-179 76,-237 51,-59 119,-88 205,-88 46,0 86,10 119,30 33,19 61,49 85,90l0 -100 199 0z"/>
  <path id="25" class="fil2" d="M9186 15917c0,-48 -13,-85 -38,-112 -25,-28 -59,-41 -102,-41 -44,0 -78,13 -103,41 -25,27 -37,64 -37,112 0,48 12,85 37,112 25,27 59,41 103,41 43,0 77,-14 102,-41 25,-27 38,-65 38,-112zm190 -631l0 935 -197 0 0 -99c-28,41 -58,71 -93,92 -34,20 -72,30 -113,30 -86,0 -154,-30 -205,-89 -50,-59 -76,-138 -76,-238 0,-97 26,-176 76,-235 50,-60 116,-90 197,-90 52,0 94,9 126,28 32,18 61,49 86,93 -2,-15 -4,-31 -5,-49 -1,-19 -2,-39 -2,-60l0 -318 206 0z"/>
 </g>
</svg>
